<svg width="67" height="34" viewBox="0 0 67 34" fill="none" xmlns="http://www.w3.org/2000/svg">
<path d="M33 8.5C28.3056 8.5 24.5 12.3056 24.5 17C24.5 21.6944 28.3056 25.5 33 25.5C37.4176 25.5 41.0476 22.1303 41.4608 17.8207C41.4801 17.6202 41.377 17.4277 41.1995 17.3324C41.0219 17.2372 40.8045 17.2578 40.6481 17.3848C39.7884 18.0824 38.6937 18.5 37.5 18.5C34.7386 18.5 32.5 16.2614 32.5 13.5C32.5 11.8599 33.2892 10.4042 34.5106 9.49167C34.6721 9.37101 34.7453 9.16516 34.6963 8.96961C34.6473 8.77406 34.4857 8.62706 34.2864 8.59678C33.8666 8.53302 33.437 8.5 33 8.5Z" fill="#6038F1"/>
</svg>
