<svg width="304" height="617" viewBox="0 0 304 617" fill="none" xmlns="http://www.w3.org/2000/svg">
<path d="M299.557 616.5C243.057 616.5 238.057 616.5 155.057 616.5C83.5567 616.5 59.0567 616.5 1.5567 616.5C1.5567 567.347 -26.4433 401.5 155.057 392C339.057 419 299.557 567.5 299.557 616.5Z" fill="#BBABF7"/>
<path d="M149.107 320.388C149.678 323.652 149.09 326.482 147.186 326.815C145.282 327.148 141.305 325.117 140.734 321.853C140.163 318.589 140.985 314.195 142.889 313.862C145.844 313.345 148.535 317.124 149.107 320.388Z" fill="#7755F1"/>
<path d="M181.734 317.036C182.305 320.3 183.819 322.762 185.723 322.429C187.627 322.096 190.678 318.835 190.107 315.571C189.535 312.307 187.27 308.453 185.366 308.786C182.411 309.303 181.163 313.772 181.734 317.036Z" fill="#7755F1"/>
<path d="M39.1408 577H270.141V616H39.1408V577Z" fill="#BBABF7"/>
<path d="M286.641 589H286.141V599H286.132C286.138 599.166 286.141 599.333 286.141 599.5C285.641 608.5 279.141 616.5 269.141 615C258.641 612 254.641 609 252.641 599.5C252.641 595.449 254.171 591.761 256.808 589H53.3741C56.9156 591.836 59.1408 595.938 59.1408 600.5C59.1408 609.061 51.3058 616 41.6408 616C31.1408 613 27.1408 610.5 25.1408 601C25.1408 600.665 25.1513 600.331 25.172 600H25.1408V589H24.4477V479.474C23.8058 474.593 23.8404 469.281 24.6408 463.5C29.1408 431 96.6408 392.456 151.141 392.456C201.988 392.456 284.131 445.861 286.585 479H286.641V589Z" fill="#BBABF7"/>
<path d="M187.641 400C185.141 407 176.933 417.5 160.641 417.5C144.348 417.5 130.142 404 124.141 397C154.64 384 138.347 384 154.64 384C170.932 384 154.64 384 187.641 400Z" fill="#EEEAFC"/>
<rect x="135.141" y="356" width="39" height="45" fill="#EEEAFC"/>
<path fill-rule="evenodd" clip-rule="evenodd" d="M232.408 317.907C236.542 314.166 240.158 307.043 242.641 293.5C242.641 271 224.082 266.5 214.141 266.5C204.2 266.5 201.641 280.5 205.141 294.5C206.199 298.734 206.568 302.446 206.799 305.677C201.075 313.497 196.141 324.839 196.141 330C196.141 338.284 196.141 346.5 210.141 344C215.555 343.033 223.823 339 229.141 330C230.958 326.925 232.233 322.509 232.408 317.907ZM119.052 302.28C119.111 301.694 119.141 301.1 119.141 300.5C119.141 290.283 110.41 282 99.6409 282C88.8713 282 80.1409 290.283 80.1409 300.5C80.1409 307.736 84.5198 314.002 90.9007 317.042C90.7298 318.006 90.6409 318.994 90.6409 320C90.6409 330.493 103.141 342.5 118.141 340.5C129.463 340.5 132.141 330.493 132.141 320C132.141 311.929 126.711 305.033 119.052 302.28Z" fill="#D6CCFB"/>
<path fill-rule="evenodd" clip-rule="evenodd" d="M169.111 376C184.641 376 207.641 353.794 207.641 319C213.141 283.5 193.621 255 162.141 255C137.279 255 122.684 269.163 117.646 292.257C109.994 293.844 104.141 302.513 104.141 311C104.141 319.279 109.711 326.176 117.087 327.691C122.461 355.27 142.36 376 169.111 376Z" fill="#EEEAFC"/>
<path d="M157.141 286.5C157.141 288.157 152.141 291.556 148.141 292C143.641 292.5 141.641 293 141.141 291C141.141 289 145.141 285.562 149.641 285C153.641 284.5 157.141 284.843 157.141 286.5Z" fill="#7755F1"/>
<path d="M194.641 290.5C194.141 291.5 190.641 292 187.641 291.5C181.141 289 182.641 286 183.141 285C184.641 284 186.141 284.5 189.641 285C193.141 286 194.641 289.5 194.641 290.5Z" fill="#7755F1"/>
<path d="M174.141 314C174.282 321.887 174.807 326.023 177.141 332.5C171.033 333.413 168.469 334.167 165.641 336" stroke="#7755F1" stroke-width="3" stroke-linecap="round" stroke-linejoin="round"/>
<path d="M154.141 342.5C156.675 346.38 159.508 347.513 166.641 348" stroke="#7755F1" stroke-width="3" stroke-linecap="round" stroke-linejoin="round"/>
<ellipse cx="195.141" cy="265" rx="13" ry="10" fill="#D6CDFB"/>
<path d="M134.141 362C148.141 375 163.141 377.5 175.141 375.613" stroke="#7655F1" stroke-linecap="round"/>
<path d="M132.829 493.596C111.503 500.767 105.194 489.905 99.8193 475.86C94.4444 461.815 113.298 453.694 127.458 451.92C140.897 446.777 143.292 446.766 148.667 460.811C154.042 474.857 169.795 481.166 132.829 493.596Z" fill="#EEEAFC"/>
<path d="M143.333 461.56C138.225 462.764 134.02 459.63 132.601 453.786C125.855 450.228 146.518 445.684 151.626 444.48C166.041 441.862 179.45 439.043 180.868 444.887C182.287 450.732 165.641 456.301 143.333 461.56Z" fill="#EEEAFC"/>
<path d="M150.547 474.818C144.164 477.261 136.533 472.821 135.518 470.168C134.503 467.516 137.629 460.183 144.012 457.74C150.395 455.298 156.567 459.072 157.583 461.725C158.598 464.377 156.931 472.376 150.547 474.818Z" fill="#EEEAFC"/>
<path d="M150.867 485.097C144.484 487.54 136.853 483.1 135.838 480.447C134.823 477.795 137.949 470.462 144.332 468.019C150.715 465.576 156.887 469.351 157.902 472.004C158.917 474.656 157.25 482.654 150.867 485.097Z" fill="#EEEAFC"/>
<path d="M120.772 466.634C117.892 467.736 99.1855 470.057 99.7141 467.278C101.43 458.261 121.221 431.128 124.1 430.026C126.98 428.924 130.446 429.425 130.712 434.807C131.723 437.448 123.078 452.349 120.772 466.634Z" fill="#EEEAFC"/>
<path d="M155.722 459L145.222 461" stroke="#BBABF7" stroke-linecap="round"/>
<path d="M234.829 458.596C213.503 465.767 207.194 454.905 201.82 440.86C196.445 426.815 215.299 418.694 229.458 416.92C242.897 411.777 245.293 411.766 250.668 425.811C256.042 439.857 271.795 446.166 234.829 458.596Z" fill="#EEEAFC"/>
<path d="M245.333 426.56C240.225 427.764 236.02 424.63 234.601 418.786C227.855 415.228 248.518 410.684 253.626 409.48C268.041 406.862 281.45 404.043 282.868 409.887C284.287 415.732 267.641 421.301 245.333 426.56Z" fill="#EEEAFC"/>
<path d="M252.547 439.818C246.164 442.261 238.533 437.821 237.518 435.168C236.503 432.516 239.629 425.183 246.012 422.74C252.395 420.298 258.567 424.072 259.583 426.725C260.598 429.377 258.931 437.376 252.547 439.818Z" fill="#EEEAFC"/>
<path d="M252.867 450.097C246.484 452.54 238.853 448.1 237.838 445.447C236.823 442.795 239.949 435.462 246.332 433.019C252.715 430.576 258.887 434.351 259.902 437.004C260.917 439.656 259.25 447.654 252.867 450.097Z" fill="#EEEAFC"/>
<path d="M222.773 431.634C219.893 432.736 201.186 435.057 201.714 432.278C203.43 423.261 223.221 396.128 226.101 395.026C228.981 393.924 232.447 394.425 232.713 399.807C233.723 402.448 225.078 417.349 222.773 431.634Z" fill="#EEEAFC"/>
<path d="M257.722 424L247.222 426" stroke="#BBABF7" stroke-linecap="round"/>
<path d="M112 293L119.5 304" stroke="#BBABF7" stroke-width="4" stroke-linecap="round"/>
<path d="M100.699 94.5713C100.567 94.4153 100.396 94.2965 100.204 94.2266C100.012 94.1568 99.8048 94.1385 99.6034 94.1734C99.3928 94.2045 99.1953 94.2948 99.0339 94.4336C98.8725 94.5724 98.7537 94.7541 98.6913 94.9577C97.7383 97.8466 95.8953 100.36 93.4264 102.137C91.5472 103.485 89.3594 104.338 87.0641 104.62C86.8547 104.647 86.6566 104.73 86.4904 104.86C86.3243 104.99 86.1964 105.163 86.1202 105.36C86.0439 105.557 86.0222 105.77 86.0573 105.979C86.0924 106.187 86.183 106.381 86.3195 106.542L87.0517 107.449C88.3001 108.944 89.9827 110.013 91.8663 110.509C93.7499 111.005 95.7411 110.903 97.564 110.217C98.5671 109.843 99.5017 109.306 100.33 108.627C102.235 107.036 103.433 104.754 103.66 102.282C103.887 99.8103 103.125 97.349 101.541 95.4371L100.699 94.5713ZM101.235 102.098C101.08 103.93 100.214 105.629 98.8218 106.831V106.831C97.3854 108.02 95.5362 108.59 93.6799 108.417C92.1145 108.28 90.6432 107.611 89.511 106.522C91.8392 105.91 94.0044 104.793 95.8533 103.251C97.7021 101.709 99.1895 99.7801 100.21 97.5998C101.061 98.9356 101.423 100.525 101.235 102.098V102.098ZM80.9355 92.7465C80.732 92.5125 80.4455 92.3666 80.1365 92.3397C79.828 92.3279 79.5272 92.4382 79.2994 92.6467L72.0825 98.5922C71.8485 98.7957 71.7026 99.0822 71.6757 99.3912C71.6639 99.6998 71.7742 100.001 71.9827 100.228C72.4634 100.819 73.0573 101.309 73.7296 101.667C74.4018 102.026 75.1389 102.247 75.8975 102.317C76.7634 102.414 77.64 102.307 78.4567 102.003C79.0871 101.769 79.6722 101.428 80.1861 100.994C80.7814 100.5 81.2705 99.8909 81.6239 99.2029C81.9772 98.5149 82.1875 97.7625 82.2421 96.991C82.3848 95.459 81.915 93.933 80.9355 92.7465V92.7465ZM79.9282 96.8148C79.8434 97.7434 79.3937 98.6005 78.6777 99.1978V99.1978C78.1196 99.6612 77.4313 99.9395 76.7081 99.9943C75.9848 100.049 75.2624 99.8775 74.641 99.5034L79.782 95.3938C79.9321 95.8515 79.982 96.3361 79.9282 96.8148V96.8148ZM127.504 78.7937C126.048 79.3205 124.857 80.3974 124.186 81.7928C123.515 83.1883 123.419 84.7911 123.917 86.257C124.026 86.5498 124.24 86.7919 124.516 86.9369C124.805 87.0659 125.132 87.08 125.431 86.9766L134.283 83.8553C134.572 83.7496 134.807 83.535 134.939 83.2577C135.071 82.9803 135.089 82.6623 134.989 82.3719C134.74 81.6443 134.346 80.9745 133.832 80.403C133.317 79.8315 132.692 79.3699 131.995 79.0461C131.302 78.7043 130.547 78.5058 129.775 78.4624C129.003 78.419 128.231 78.5317 127.504 78.7937V78.7937ZM125.969 84.3549C125.977 83.6287 126.202 82.9214 126.616 82.3243C127.029 81.7272 127.612 81.2677 128.289 81.0048C129.167 80.7051 130.126 80.7564 130.966 81.1479C131.433 81.3738 131.844 81.7015 132.167 82.1069L125.969 84.3549ZM130.714 66.4199L129.708 65.314L128.884 66.5411C125.628 71.2127 120.986 74.7424 115.614 76.6307C111.102 78.2125 106.253 78.5769 101.555 77.6872C98.3608 74.3543 94.6448 71.5639 90.5531 69.4255L89.2482 68.7294L88.8832 70.1878C87.4403 75.6777 84.3186 80.5797 79.9541 84.209C75.581 87.8574 70.1649 90.0273 64.4824 90.4075L62.9932 90.5037L63.5102 91.9136C65.6889 99.1403 69.7989 105.635 75.397 110.698C83.1439 117.579 96.974 124.079 105.676 120.888C106.842 120.47 107.926 119.853 108.881 119.063C110.679 117.479 111.968 115.397 112.585 113.081C116.823 116.8 123.939 121.688 130.57 119.257L130.702 119.208C140.528 115.605 142.849 97.809 140.695 86.2776C139.25 78.8525 135.792 71.9676 130.697 66.3758L130.714 66.4199ZM107.354 117.149C100.371 122.983 84.9158 116.005 76.9038 108.946C71.9795 104.514 68.2684 98.898 66.1223 92.6303C71.7579 91.9477 77.0783 89.6583 81.4486 86.0353C85.8055 82.3924 89.0268 77.577 90.7309 72.1595C96.5132 75.4012 101.362 80.0791 104.809 85.7414C110.284 94.8801 114.353 111.358 107.354 117.149ZM138.368 86.6809C140.313 97.1643 138.443 114.145 129.798 117.016C125.392 118.631 119.261 116.156 113.127 110.333C113.682 104.168 112.767 97.9599 110.458 92.2174L114.357 90.7875C114.642 90.677 114.873 90.4618 115.005 90.186C115.136 89.9102 115.156 89.5947 115.063 89.3041C114.809 88.5776 114.415 87.9083 113.903 87.3345C113.39 86.7607 112.769 86.2939 112.076 85.9606C111.382 85.6274 110.63 85.4345 109.862 85.3928C109.094 85.3511 108.325 85.4616 107.599 85.7178V85.7178C107.43 85.2552 107.106 84.8491 106.878 84.4327C105.991 82.9808 105.012 81.5866 103.948 80.2588C108.162 80.6373 112.409 80.1111 116.403 78.7155C121.745 76.8357 126.442 73.4751 129.945 69.0261C134.218 74.0924 137.119 80.1716 138.368 86.6809ZM108.638 87.9362C109.451 87.703 110.322 87.7748 111.086 88.1381C111.563 88.3553 111.982 88.6809 112.31 89.089L109.6 90.0827C109.273 89.3278 108.962 88.617 108.638 87.9362ZM122.194 95.4613L122.15 95.4775C119.836 96.3259 117.948 98.0508 116.895 100.28C115.841 102.508 115.707 105.062 116.521 107.389L116.917 108.468C116.99 108.667 117.112 108.843 117.272 108.981C117.432 109.119 117.624 109.215 117.831 109.258C118.038 109.291 118.25 109.271 118.447 109.199C118.644 109.127 118.819 109.005 118.955 108.846C120.387 107.025 122.243 105.581 124.36 104.639C127.169 103.45 130.283 103.183 133.253 103.877C133.46 103.916 133.673 103.898 133.871 103.825C134.069 103.753 134.243 103.628 134.376 103.465C134.513 103.305 134.605 103.112 134.643 102.905C134.682 102.698 134.664 102.484 134.594 102.286L134.19 101.184C133.771 100.025 133.128 98.9595 132.298 98.0486C131.468 97.1376 130.466 96.3992 129.35 95.8754C128.235 95.3516 127.027 95.0527 125.795 94.9958C124.564 94.9388 123.334 95.125 122.174 95.5436L122.194 95.4613ZM124.287 102.192L123.34 102.539C121.526 103.34 119.871 104.463 118.457 105.854C118.087 104.179 118.34 102.427 119.171 100.926C120.001 99.4248 121.35 98.2787 122.966 97.7025V97.7025C123.835 97.3928 124.757 97.2605 125.678 97.3135C126.599 97.3664 127.5 97.6035 128.327 98.0107C129.802 98.6949 130.983 99.8843 131.656 101.364C129.169 101.082 126.65 101.365 124.287 102.192V102.192ZM95.489 79.1371L88.3543 85.1024C88.2315 85.1963 88.1294 85.3144 88.0542 85.4495C87.9791 85.5845 87.9325 85.7336 87.9174 85.8874C87.907 86.2039 88.02 86.5119 88.2325 86.7466C88.988 87.6573 90.0032 88.316 91.1427 88.6349C92.2822 88.9538 93.4919 88.9178 94.6103 88.5316C95.2351 88.3084 95.8158 87.977 96.3257 87.5526V87.5526C96.9262 87.0662 97.4238 86.465 97.7894 85.7841C98.155 85.1033 98.3814 84.3565 98.4553 83.5872C98.5291 82.818 98.449 82.0417 98.2197 81.3037C97.9903 80.5657 97.6162 79.8809 97.1193 79.289C97.0228 79.1711 96.9039 79.0735 96.7694 79.0019C96.635 78.9303 96.4876 78.8862 96.3359 78.8721C96.1842 78.8579 96.0313 78.8741 95.8859 78.9196C95.7405 78.9651 95.6056 79.039 95.489 79.1371ZM96.1119 83.3573C96.0283 84.279 95.5874 85.1314 94.8834 85.7322L95.6156 86.6384L94.8834 85.7322C94.3238 86.1925 93.6359 86.4688 92.9134 86.5235C92.191 86.5782 91.4692 86.4086 90.8467 86.0379L95.9253 81.8262C96.1056 82.3152 96.1694 82.8394 96.1119 83.3573V83.3573Z" fill="#BBABF7"/>
<path d="M176.275 308.216C176.275 311.695 187.258 332.891 200.425 332.891C211.975 332.891 215.65 320.62 215.65 317.141C215.65 313.661 212.5 294.041 193.6 295.091C176.525 296.039 176.275 304.736 176.275 308.216Z" fill="#7755F1"/>
<path d="M162.543 300.417C165.693 311.442 155.648 327.717 153.618 327.717C151.589 327.717 139.443 337.167 129.993 330.342C121.594 313.017 130.589 300.417 132.618 300.417C135.768 300.417 144.168 293.067 162.543 300.417Z" fill="#7755F1"/>
<path d="M120.188 306.584H127.888C128.468 306.584 129.024 306.363 129.434 305.969C129.845 305.576 130.075 305.042 130.075 304.486C130.075 303.93 129.845 303.397 129.434 303.003C129.024 302.61 128.468 302.389 127.888 302.389H120.188C119.607 302.389 119.051 302.61 118.641 303.003C118.23 303.397 118 303.93 118 304.486C118 305.042 118.23 305.576 118.641 305.969C119.051 306.363 119.607 306.584 120.188 306.584ZM213.113 306.584H220.812C221.393 306.584 221.949 306.363 222.359 305.969C222.77 305.576 223 305.042 223 304.486C223 303.93 222.77 303.397 222.359 303.003C221.949 302.61 221.393 302.389 220.812 302.389H213.113C212.532 302.389 211.976 302.61 211.566 303.003C211.155 303.397 210.925 303.93 210.925 304.486C210.925 305.042 211.155 305.576 211.566 305.969C211.976 306.363 212.532 306.584 213.113 306.584Z" fill="#3C3B41"/>
<path d="M120.188 302.389H126.75C128.788 299.784 131.43 297.67 134.467 296.214C137.505 294.758 140.854 294 144.25 294H196.75C200.146 294 203.495 294.758 206.533 296.214C209.57 297.67 212.212 299.784 214.25 302.389H220.812C221.393 302.389 221.949 302.61 222.359 303.003C222.77 303.397 223 303.93 223 304.486C223 305.043 222.77 305.576 222.359 305.969C221.949 306.363 221.393 306.584 220.812 306.584H216.788C217.996 309.229 218.621 312.085 218.625 314.973C218.625 328.102 212.062 335.945 201.125 335.945C189.312 335.945 175.706 319.167 174.875 307.59C173.492 307.023 172.004 306.73 170.5 306.73C168.996 306.73 167.508 307.023 166.125 307.59C165.294 319.167 151.688 335.945 139.875 335.945C128.938 335.945 122.375 328.102 122.375 314.973C122.379 312.085 123.004 309.229 124.213 306.584H120.188C119.607 306.584 119.051 306.363 118.641 305.969C118.23 305.576 118 305.043 118 304.486C118 303.93 118.23 303.397 118.641 303.003C119.051 302.61 119.607 302.389 120.188 302.389ZM201.125 331.751C212.544 331.751 214.25 321.222 214.25 314.973C214.25 310.523 212.406 306.255 209.124 303.109C205.842 299.962 201.391 298.195 196.75 298.195C184.062 298.195 179.25 298.908 179.25 306.584C179.25 315.937 191.675 331.751 201.125 331.751ZM165.775 303.144C168.856 302.25 172.144 302.25 175.225 303.144C175.553 301.31 176.401 299.598 177.675 298.195H163.281C164.571 299.593 165.434 301.306 165.775 303.144ZM139.875 331.751C149.325 331.751 161.75 315.937 161.75 306.584C161.75 298.908 156.938 298.195 144.25 298.195C139.609 298.195 135.158 299.962 131.876 303.109C128.594 306.255 126.75 310.523 126.75 314.973C126.75 321.222 128.456 331.751 139.875 331.751Z" fill="#BBABF7"/>
<path d="M135.258 304.722C135.447 308.031 134.99 309.349 132.971 310.553C135.132 310.676 135.758 312.084 136.159 316.23C136.062 312.213 136.264 310.367 138.539 310.117C136.209 309.395 135.581 308.095 135.258 304.722Z" fill="#D6CDFB"/>
<path fill-rule="evenodd" clip-rule="evenodd" d="M182.126 267.028C182.259 266.948 182.391 266.867 182.521 266.786C184.501 267.017 186.699 267.251 189.141 267.5C190.444 267.385 191.775 267.349 193.116 267.37C199.522 273.988 203.131 282.149 207.121 291.5C214.301 291.5 220.121 277.127 220.121 270.5C220.121 269.369 219.951 268.275 219.635 267.237C222.193 265.131 222.896 260.851 220.641 252.699C218.641 241.5 207.448 232.199 193.641 232.199C186.261 231.245 178.127 233.248 172.022 236.575C167.955 231.337 161.028 228 151.141 228C135.44 228 124.004 238.299 122.348 249.663C120.327 249.541 117.946 249.64 115.141 250C101.641 250 88.1409 264.059 88.1409 274C88.1409 283.941 99.4383 294 112.141 294C129.001 292.073 132.402 284.577 133.523 269.276C134.132 269.61 134.761 269.924 135.41 270.217C140.363 273.114 148.12 275 155.641 275C166.89 274.598 178.14 271.518 182.126 267.028Z" fill="#D6CDFB"/>
<path d="M216.685 10.4305C216.414 10.1638 216.048 10.0344 215.661 10.0053L184.496 8.68001C183.91 8.66143 183.387 8.97022 183.281 9.4718L178.971 29.9363C177.594 28.0749 175.338 26.6568 172.578 26.0755C167.372 24.9791 162.461 27.4545 161.585 31.6177C160.708 35.7808 164.203 40.0265 169.409 41.1229C174.615 42.2194 179.526 39.7439 180.403 35.5808L184.153 17.7747L212.724 18.9728L210.147 31.2114C208.77 29.35 206.451 27.9187 203.754 27.3507C198.547 26.2542 193.637 28.7297 192.76 32.8928C191.883 37.0559 195.378 41.3016 200.585 42.3981C205.791 43.4945 210.701 41.0191 211.578 36.8559L216.966 11.2753C217.029 10.9744 216.904 10.6338 216.685 10.4305ZM169.842 39.0665C166.016 38.2606 163.46 35.1556 164.104 32.0959C164.749 29.0363 168.34 27.2259 172.166 28.0317C175.992 28.8375 178.548 31.9426 177.904 35.0022C177.26 38.0619 173.668 39.8723 169.842 39.0665ZM201.007 40.3917C197.181 39.5859 194.625 36.4808 195.269 33.4212C195.914 30.3616 199.505 28.5511 203.331 29.357C207.158 30.1628 209.713 33.2679 209.069 36.3275C208.425 39.3872 204.834 41.1976 201.007 40.3917ZM213.147 16.9665L184.575 15.7684L185.621 10.8028L214.192 12.0009L213.147 16.9665Z" fill="#BBABF7"/>
<path d="M235.975 132.326C235.844 132.326 235.714 132.301 235.592 132.25C235.471 132.2 235.361 132.126 235.268 132.033L233.641 130.407L232.489 131.353L234.219 133.083C234.317 133.175 234.395 133.285 234.449 133.408C234.503 133.531 234.532 133.663 234.534 133.797C234.536 133.931 234.512 134.064 234.461 134.188C234.411 134.312 234.336 134.425 234.241 134.52C234.147 134.614 234.034 134.689 233.91 134.739C233.785 134.79 233.652 134.814 233.518 134.812C233.384 134.81 233.252 134.781 233.13 134.727C233.007 134.672 232.897 134.594 232.805 134.496L230.936 132.628L229.784 133.574L230.935 134.724C231.028 134.817 231.102 134.927 231.152 135.049C231.202 135.17 231.228 135.3 231.228 135.431C231.228 135.563 231.202 135.693 231.152 135.814C231.102 135.936 231.028 136.046 230.936 136.139C230.843 136.232 230.732 136.305 230.611 136.356C230.49 136.406 230.36 136.432 230.228 136.432C230.097 136.432 229.967 136.406 229.846 136.356C229.724 136.306 229.614 136.232 229.521 136.139L228.231 134.849L227.558 135.401C227.138 135.737 226.632 135.903 226.128 135.903C225.715 135.903 225.306 135.784 224.943 135.563L212.96 147.546C217.844 154.148 218.535 161.674 214.516 165.694C212.083 168.127 208.273 168.888 204.052 167.864C206.682 174.481 206.029 180.748 202.202 184.575C199.937 186.84 196.812 188.015 193.189 188.015C192.039 188.015 190.839 187.898 189.601 187.658C184.6 186.691 179.534 183.847 175.337 179.65C166.572 170.886 164.363 158.834 170.411 152.785C174.24 148.957 180.508 148.305 187.122 150.935C186.099 146.713 186.861 142.904 189.293 140.471C193.313 136.451 200.839 137.143 207.441 142.027L219.424 130.044C219.179 129.642 219.064 129.174 219.095 128.704C219.125 128.234 219.3 127.785 219.595 127.418L220.139 126.756L218.849 125.466C218.754 125.374 218.677 125.264 218.625 125.142C218.573 125.02 218.545 124.888 218.544 124.756C218.543 124.623 218.568 124.491 218.618 124.368C218.669 124.245 218.743 124.134 218.837 124.04C218.931 123.946 219.042 123.872 219.165 123.821C219.288 123.771 219.42 123.746 219.552 123.747C219.685 123.748 219.816 123.776 219.938 123.828C220.06 123.881 220.171 123.957 220.263 124.052L221.413 125.202L222.359 124.051L220.491 122.181C220.393 122.09 220.315 121.979 220.261 121.857C220.207 121.734 220.178 121.602 220.176 121.468C220.174 121.334 220.199 121.201 220.249 121.077C220.299 120.952 220.374 120.84 220.469 120.745C220.564 120.65 220.676 120.576 220.801 120.525C220.925 120.475 221.058 120.45 221.192 120.452C221.326 120.455 221.458 120.484 221.581 120.538C221.703 120.592 221.813 120.671 221.905 120.768L223.634 122.498L224.58 121.345L222.954 119.719C222.859 119.627 222.782 119.517 222.73 119.395C222.678 119.273 222.65 119.141 222.649 119.009C222.648 118.876 222.673 118.744 222.723 118.621C222.774 118.498 222.848 118.387 222.942 118.293C223.036 118.199 223.147 118.125 223.27 118.074C223.393 118.024 223.525 117.999 223.657 118C223.79 118.001 223.921 118.029 224.043 118.081C224.165 118.134 224.276 118.21 224.368 118.305L225.855 119.792L226.085 119.512C226.286 119.261 226.538 119.055 226.825 118.908C227.111 118.761 227.425 118.675 227.746 118.657C228.068 118.64 228.389 118.69 228.69 118.806C228.991 118.921 229.264 119.098 229.492 119.325L235.663 125.495C235.89 125.723 236.066 125.996 236.181 126.296C236.296 126.596 236.346 126.917 236.329 127.238C236.311 127.559 236.227 127.873 236.08 128.159C235.934 128.445 235.729 128.697 235.479 128.899L235.195 129.132L236.682 130.619C236.822 130.759 236.917 130.937 236.956 131.131C236.994 131.325 236.974 131.526 236.899 131.709C236.823 131.892 236.695 132.048 236.531 132.158C236.366 132.268 236.173 132.326 235.975 132.326ZM220.787 131.509L203.928 148.368C205.085 148.961 206.026 149.902 206.618 151.059L223.478 134.2L220.787 131.51V131.509ZM204.071 150.916C203.68 150.523 203.214 150.211 202.701 149.999C202.188 149.786 201.638 149.678 201.083 149.679C199.955 149.679 198.894 150.119 198.096 150.916C197.305 151.709 196.861 152.784 196.861 153.904C196.861 155.024 197.305 156.098 198.096 156.891C198.889 157.682 199.964 158.126 201.084 158.126C202.204 158.126 203.278 157.682 204.071 156.891C204.862 156.098 205.306 155.024 205.306 153.904C205.306 152.784 204.862 151.709 204.071 150.916V150.916ZM190.707 141.885C188.436 144.158 188.046 148.085 189.664 152.394C189.734 152.582 189.747 152.787 189.699 152.982C189.652 153.176 189.547 153.353 189.398 153.487C189.249 153.621 189.063 153.708 188.865 153.736C188.666 153.763 188.464 153.73 188.284 153.641C181.727 150.391 175.421 150.605 171.825 154.2C166.557 159.469 168.766 170.251 176.751 178.236C180.669 182.154 185.367 184.802 189.981 185.695C194.448 186.557 198.289 185.66 200.787 183.161C204.382 179.567 204.596 173.261 201.345 166.703C201.257 166.523 201.224 166.321 201.252 166.123C201.279 165.924 201.366 165.738 201.501 165.59C201.635 165.441 201.811 165.336 202.006 165.289C202.201 165.241 202.405 165.253 202.593 165.323C206.902 166.943 210.83 166.552 213.101 164.28C216.364 161.017 215.669 154.704 211.533 148.973L207.267 153.239C207.361 154.107 207.272 154.986 207.004 155.817C206.736 156.648 206.297 157.413 205.713 158.063C205.13 158.713 204.416 159.232 203.618 159.587C202.821 159.943 201.957 160.126 201.084 160.125C200.267 160.127 199.457 159.967 198.702 159.654C197.946 159.342 197.26 158.884 196.682 158.305C195.517 157.137 194.862 155.554 194.862 153.904C194.862 152.253 195.517 150.671 196.682 149.502C197.338 148.842 198.135 148.339 199.013 148.03C199.891 147.72 200.827 147.613 201.752 147.716L206.013 143.455C200.283 139.319 193.969 138.625 190.707 141.885V141.885ZM234.249 126.909L228.078 120.739C228.051 120.712 228.019 120.69 227.984 120.676C227.948 120.661 227.91 120.654 227.872 120.654H227.856C227.808 120.657 227.716 120.674 227.638 120.772L221.149 128.677C221.104 128.733 221.081 128.804 221.085 128.875C221.089 128.947 221.119 129.015 221.17 129.065L221.493 129.387L221.494 129.388L221.495 129.389L225.923 133.817C225.972 133.867 226.037 133.897 226.106 133.902C226.175 133.908 226.243 133.888 226.299 133.846L234.215 127.349L234.225 127.341C234.257 127.316 234.283 127.284 234.302 127.248C234.321 127.211 234.332 127.172 234.334 127.131C234.337 127.09 234.33 127.049 234.315 127.011C234.301 126.973 234.278 126.938 234.249 126.909V126.909Z" fill="#BBABF7"/>
<path d="M191.118 177.598C190.931 177.786 190.676 177.891 190.411 177.891C190.146 177.891 189.892 177.786 189.704 177.598L177.39 165.282C177.203 165.095 177.097 164.84 177.097 164.575C177.097 164.31 177.203 164.056 177.39 163.868L180.673 160.584C180.861 160.397 181.115 160.292 181.38 160.292C181.645 160.292 181.9 160.397 182.087 160.584L194.402 172.9C194.59 173.088 194.695 173.342 194.695 173.607C194.695 173.872 194.59 174.127 194.402 174.314L191.118 177.598ZM181.38 162.706L179.51 164.576L190.411 175.476L192.281 173.606L181.381 162.706H181.38Z" fill="#BBABF7"/>
<path fill-rule="evenodd" clip-rule="evenodd" d="M113.028 493.334C99.9371 530.518 96.1034 549.813 93.2224 564.312L93.222 564.314C92.9691 565.587 92.7235 566.823 92.4796 568.031C89.4797 582.89 86.7459 593.482 73.7087 616.5H74.8575C87.7126 593.722 90.4627 583.074 93.4598 568.229C93.7039 567.02 93.9497 565.783 94.2029 564.509C97.0798 550.029 100.903 530.785 113.972 493.666L113.028 493.334Z" fill="#EEEAFC"/>
<path fill-rule="evenodd" clip-rule="evenodd" d="M230.045 458.213C249.876 499.548 263.406 518 273.89 532.297C274.247 532.784 274.601 533.267 274.951 533.745C285.477 548.118 292.906 558.773 300.796 586.008L301 583.159C293.344 557.659 285.994 547.129 275.76 533.156C275.408 532.676 275.053 532.191 274.695 531.702C264.232 517.433 250.741 499.035 230.949 457.782L230.045 458.213Z" fill="#EEEAFC"/>
<path fill-rule="evenodd" clip-rule="evenodd" d="M103.38 477.325L103.705 476.946L102.946 476.295L102.62 476.675L101.505 477.975L101.505 477.976C86.3855 495.618 76.0733 507.651 52.2111 523.2L52.211 523.2L52.2015 523.207C28.666 539.333 16.4228 548.546 0 565.286V566.699L0.00774432 566.707L0.357404 566.35C16.8935 549.447 29.0812 540.261 52.7619 524.035C76.7411 508.409 87.1292 496.287 102.259 478.633L103.38 477.325Z" fill="#EEEAFC"/>
<path fill-rule="evenodd" clip-rule="evenodd" d="M210.495 450.429C210.456 450.156 210.202 449.966 209.929 450.005C209.656 450.044 209.466 450.298 209.505 450.571C213.434 477.974 214.569 494.024 213.091 524.976L213.091 524.976L213.091 524.99C213.018 528.639 212.94 532.18 212.864 535.622L212.864 535.623C212.14 568.524 211.613 592.475 217.485 616.5H218.5C218.5 616.461 218.495 616.421 218.486 616.381C212.616 592.451 213.14 568.613 213.864 535.62L213.864 535.619C213.94 532.188 214.017 528.657 214.09 525.017C215.571 494 214.432 477.886 210.495 450.429Z" fill="#EEEAFC"/>
</svg>
