<svg width="305" height="603" viewBox="0 0 305 603" fill="none" xmlns="http://www.w3.org/2000/svg">
<path d="M300.5 603C244 603 239 603 156 603C84.5 603 59.9999 603 2.49994 603C2.49994 553.847 -25.5 388 156 378.5C340 405.5 300.5 554 300.5 603Z" fill="#BBABF7"/>
<path d="M40.5695 564H271.57V603H40.5695V564Z" fill="#BBABF7"/>
<path d="M288.07 576H287.57V586H287.561C287.567 586.166 287.57 586.333 287.57 586.5C287.07 595.5 280.57 603.5 270.57 602C260.07 599 256.07 596 254.07 586.5C254.07 582.449 255.6 578.761 258.237 576H54.8028C58.3443 578.836 60.5695 582.938 60.5695 587.5C60.5695 596.061 52.7345 603 43.0695 603C32.5695 600 28.5695 597.5 26.5695 588C26.5695 587.665 26.58 587.331 26.6007 587H26.5695V576H25.8764V466.474C25.2345 461.593 25.2691 456.281 26.0695 450.5C30.5695 418 98.0695 379.456 152.57 379.456C203.417 379.456 285.56 432.861 288.013 466H288.07V576Z" fill="#BBABF7"/>
<path d="M189.07 387C186.57 394 178.362 404.5 162.07 404.5C145.777 404.5 131.571 391 125.57 384C156.068 371 139.776 371 156.068 371C172.361 371 156.068 371 189.07 387Z" fill="#EEEAFC"/>
<rect x="136.57" y="343" width="39" height="45" fill="#EEEAFC"/>
<path fill-rule="evenodd" clip-rule="evenodd" d="M233.837 304.907C237.971 301.166 241.587 294.043 244.07 280.5C244.07 258 225.511 253.5 215.57 253.5C205.628 253.5 203.07 267.5 206.57 281.5C207.628 285.734 207.996 289.446 208.227 292.677C202.504 300.497 197.57 311.839 197.57 317C197.57 325.284 197.57 333.5 211.57 331C216.984 330.033 225.251 326 230.57 317C232.386 313.925 233.662 309.509 233.837 304.907ZM120.481 289.28C120.539 288.694 120.57 288.1 120.57 287.5C120.57 277.283 111.839 269 101.07 269C90.3 269 81.5696 277.283 81.5696 287.5C81.5696 294.736 85.9485 301.002 92.3294 304.042C92.1586 305.006 92.0696 305.994 92.0696 307C92.0696 317.493 104.57 329.5 119.57 327.5C130.891 327.5 133.57 317.493 133.57 307C133.57 298.929 128.14 292.033 120.481 289.28Z" fill="#D6CCFB"/>
<path fill-rule="evenodd" clip-rule="evenodd" d="M170.54 363C186.07 363 209.07 340.794 209.07 306C214.57 270.5 195.05 242 163.57 242C138.707 242 124.112 256.163 119.074 279.257C111.423 280.844 105.57 289.513 105.57 298C105.57 306.279 111.14 313.176 118.516 314.691C123.89 342.27 143.788 363 170.54 363Z" fill="#EEEAFC"/>
<path fill-rule="evenodd" clip-rule="evenodd" d="M183.554 254.028C183.688 253.948 183.82 253.867 183.95 253.786C185.929 254.017 188.128 254.251 190.57 254.5C191.873 254.385 193.203 254.349 194.545 254.37C200.951 260.988 204.56 269.149 208.55 278.5C215.729 278.5 221.55 264.127 221.55 257.5C221.55 256.369 221.38 255.275 221.063 254.237C223.622 252.131 224.325 247.851 222.07 239.699C220.07 228.5 208.877 219.199 195.07 219.199C187.69 218.245 179.556 220.248 173.45 223.575C169.384 218.337 162.457 215 152.57 215C136.869 215 125.433 225.299 123.777 236.663C121.756 236.541 119.375 236.64 116.57 237C103.07 237 89.5696 251.059 89.5696 261C89.5696 270.941 100.867 281 113.57 281C130.43 279.073 133.831 271.577 134.951 256.276C135.561 256.61 136.19 256.924 136.839 257.217C141.792 260.114 149.549 262 157.07 262C168.319 261.598 179.568 258.518 183.554 254.028Z" fill="#D6CDFB"/>
<path d="M154.07 299C154.07 302.314 153.003 305 151.07 305C149.137 305 145.57 302.314 145.57 299C145.57 295.686 147.137 291.5 149.07 291.5C152.07 291.5 154.07 295.686 154.07 299Z" fill="#7755F1"/>
<path d="M154.07 299C154.07 302.314 153.003 305 151.07 305C149.137 305 145.57 302.314 145.57 299C145.57 295.686 147.137 291.5 149.07 291.5C152.07 291.5 154.07 295.686 154.07 299Z" fill="#7755F1"/>
<path d="M188.07 299.5C188.07 302.814 189.137 305.5 191.07 305.5C193.003 305.5 196.57 302.814 196.57 299.5C196.57 296.186 195.003 292 193.07 292C190.07 292 188.07 296.186 188.07 299.5Z" fill="#7755F1"/>
<path d="M158.57 273.5C158.57 275.157 153.57 278.556 149.57 279C145.07 279.5 143.07 280 142.57 278C142.57 276 146.57 272.562 151.07 272C155.07 271.5 158.57 271.843 158.57 273.5Z" fill="#7755F1"/>
<path d="M196.07 277.5C195.57 278.5 192.07 279 189.07 278.5C182.57 276 184.07 273 184.57 272C186.07 271 187.57 271.5 191.07 272C194.57 273 196.07 276.5 196.07 277.5Z" fill="#7755F1"/>
<path d="M175.57 301C175.711 308.887 176.236 313.023 178.57 319.5C172.462 320.413 169.898 321.167 167.07 323" stroke="#7755F1" stroke-width="3" stroke-linecap="round" stroke-linejoin="round"/>
<path d="M155.57 329.5C158.104 333.38 160.937 334.513 168.07 335" stroke="#7755F1" stroke-width="3" stroke-linecap="round" stroke-linejoin="round"/>
<path d="M170.07 299C170.07 313.672 159.065 325.5 145.57 325.5C132.074 325.5 121.07 313.672 121.07 299C121.07 284.328 132.074 272.5 145.57 272.5C159.065 272.5 170.07 284.328 170.07 299Z" fill="#BBABF7" fill-opacity="0.1" stroke="#7D5EF1"/>
<path d="M228.07 298C228.07 312.672 217.065 324.5 203.57 324.5C190.074 324.5 179.07 312.672 179.07 298C179.07 283.328 190.074 271.5 203.57 271.5C217.065 271.5 228.07 283.328 228.07 298Z" fill="#BBABF7" fill-opacity="0.1" stroke="#7D5EF1"/>
<path d="M169.07 307.5C174.408 304.101 176.834 304.469 180.57 307.5M115.07 281L122.57 289.5" stroke="#7755F1" stroke-linecap="round" stroke-linejoin="round"/>
<ellipse cx="196.57" cy="252" rx="13" ry="10" fill="#D6CDFB"/>
<path d="M135.57 349C149.57 362 164.57 364.5 176.57 362.613" stroke="#7655F1" stroke-linecap="round"/>
<path fill-rule="evenodd" clip-rule="evenodd" d="M62.0696 444L121.57 504.5L128.07 527L102.57 523L41.5695 462C41.0696 450.5 46.5696 441.5 62.0696 444C62.0696 444 62.0696 444 62.0696 444Z" fill="#7452F1"/>
<ellipse cx="66.5696" cy="488" rx="17" ry="18" fill="#EEEAFC"/>
<path d="M110.57 477C110.57 484.732 99.6153 491.5 88.5696 491.5C77.5239 491.5 54.5696 484.232 54.5696 476.5C54.5696 468.768 75.5239 462 86.5696 462C97.6153 462 110.57 469.268 110.57 477Z" fill="#EEEAFC"/>
<path d="M75.0695 502.5C75.0695 506.366 36.4355 515 32.5695 515C28.7035 515 24.5 512.866 24.5 509C22.5 506 55.0695 468.5 60.5695 470.5C64.4355 470.5 75.0695 498.634 75.0695 502.5Z" fill="#EEEAFC"/>
<path d="M59.5696 509C53.0696 512.16 45.5696 524.5 44.5696 530.839C40.1513 530.839 25.5696 514.538 25.5696 511.5C25.5696 508.462 35.1513 510.839 39.5696 510.839C43.9879 510.839 59.5696 505.962 59.5696 509Z" fill="#EEEAFC"/>
<path d="M115.07 485.975C116.07 489.475 116.57 496.475 116.07 498.5C110.57 495 104.07 489.975 93.0695 491C90.32 491.256 105.808 472 108.57 472C110.57 473 114.07 482.975 115.07 485.975Z" fill="#EEEAFC"/>
<path d="M93.5695 491C86.5695 492 81.5695 498 79.5695 499C77.3604 499 79.5695 492.209 79.5695 490C79.5695 487.791 81.3603 486 83.5695 486C85.7786 486 93.5695 488.791 93.5695 491Z" fill="#EEEAFC"/>
<path d="M43.8311 527.279C43.829 527.306 43.8023 528.946 43.635 528.946" stroke="#EEEAFC" stroke-linecap="round"/>
<path d="M44.0696 530.5C39.5696 557 48.5696 576.5 38.0696 602" stroke="#EEEAFC" stroke-linecap="round"/>
<path d="M102.57 523L41.5696 462C42.5794 446.92 47.5119 443.491 62.0696 444L121.57 504.5L128.07 527L102.57 523Z" stroke="#EEEAFC" stroke-linecap="round"/>
<path d="M272.285 560.395C272.05 560.725 271.811 561.058 271.57 561.395C266.671 568.217 260.432 576.278 253.285 573.895C250.785 570.395 249.285 564.985 249.285 561.395C249.285 557.805 251.695 542.395 255.285 542.395C257.285 540.395 270.07 555 272.285 560.395Z" fill="#EEEAFC"/>
<path d="M271.57 560C279.57 578 280.07 587.5 277.57 601" stroke="#EEEAFC"/>
<path fill-rule="evenodd" clip-rule="evenodd" d="M279.07 463.5L271.944 466.125C251.747 477.989 243.052 518.198 242.07 529C239.57 544.5 237.07 556.5 221.57 575L211.07 588.5L205.182 582.748C198.209 578.577 163.609 574.448 146.38 572.391C143.304 572.024 140.782 571.723 139.07 571.5L106.57 568.5L117.542 560.867C125.029 555.284 136.647 543.988 144.07 506L144.07 505.998C146.07 486.499 157.57 464.999 177.07 444.5C177.149 444.453 177.233 444.409 177.323 444.367L188.07 433L207.496 440.77L279.07 463.5Z" fill="#EEEAFC"/>
<path d="M205.57 460.5L231.57 469" stroke="#7452F1" stroke-linecap="round" stroke-linejoin="round"/>
<path d="M192.57 478L232.57 493" stroke="#7452F1" stroke-linecap="round" stroke-linejoin="round"/>
<path d="M188.57 483L229.07 498" stroke="#7452F1" stroke-linecap="round" stroke-linejoin="round"/>
<path d="M186.57 488L201.57 494" stroke="#7452F1" stroke-linecap="round" stroke-linejoin="round"/>
<path d="M177.07 502L204.07 510" stroke="#7452F1" stroke-linecap="round" stroke-linejoin="round"/>
<path d="M175.57 507L193.57 512" stroke="#7452F1" stroke-linecap="round" stroke-linejoin="round"/>
<path d="M186.57 529L218.57 534" stroke="#BBABF7" stroke-linecap="round" stroke-linejoin="round"/>
<path d="M184.57 542.5L214.57 549.5" stroke="#BBABF7" stroke-linecap="round" stroke-linejoin="round"/>
<path d="M231.208 561.012C231.208 561.012 209.709 558.264 201.24 553.869C192.771 549.474 173.878 539.035 182.999 530.794C192.119 522.552 217.983 526.559 240.328 530.794L241.57 531" stroke="#BBABF7" stroke-linecap="square" stroke-linejoin="round"/>
<path d="M87.5696 471C103.07 471 110.161 478.437 116.07 498C107.069 484.306 104.07 480 91.0696 478.5" stroke="#BBABF7" stroke-linecap="round" stroke-linejoin="round"/>
<path d="M116.57 499.5L112.07 494.5" stroke="#EEEAFC" stroke-linecap="round" stroke-linejoin="round"/>
<path d="M259.57 544.5C259.57 550.575 250.369 562.5 244.57 562.5C238.771 562.5 233.07 562 231.57 561.5C234.07 555.5 240.07 538.5 241.57 530.5C246.57 531.5 254.07 538.5 259.57 544.5Z" fill="#EEEAFC"/>
<path d="M259.407 560.002C259.407 563.316 255.936 571.5 252.07 571.5C249.07 568 243.407 563.816 243.407 560.502C243.407 557.188 248.541 554.002 252.407 554.002C256.273 554.002 259.407 556.688 259.407 560.002Z" fill="#EEEAFC"/>
<path d="M181.57 535L219.07 542.5" stroke="#BBABF7" stroke-linecap="square" stroke-linejoin="round"/>
<path d="M174.868 459.767C179.553 453.527 182.856 450.119 189.173 444.574L206.636 451.181C200.514 456.84 197.216 460.31 192.404 466.403L174.868 459.767Z" stroke="#7452F1"/>
<path d="M159.729 484.215C162.833 476.743 165.229 472.879 170.689 467.58L188.281 474.236C183.746 480.5 181.283 484.331 177.355 490.884L159.729 484.215Z" stroke="#7452F1"/>
<path d="M209.07 455.5L245.07 467.5" stroke="#7452F1" stroke-linecap="round" stroke-linejoin="round"/>
<path d="M164.57 475.5L168.07 487.5L197.57 473.5" stroke="#7452F1" stroke-width="2" stroke-linecap="round" stroke-linejoin="round"/>
<path d="M112.503 203.859L107.359 189.727L121.399 184.616L126.543 198.749L112.503 203.859ZM110.946 159.323L99.108 163.631L97.8054 160.052C96.3357 156.015 95.5448 152.319 95.4326 148.965C95.3203 145.611 95.6476 142.512 96.4143 139.67C97.2423 136.805 98.3428 134.118 99.7159 131.609C101.15 129.078 102.649 126.627 104.211 124.257C105.812 121.804 107.321 119.384 108.739 116.997C110.218 114.589 111.385 112.085 112.241 109.487C113.158 106.867 113.638 104.094 113.682 101.169C113.726 98.2429 113.113 95.0365 111.844 91.5493L111.209 89.8058C110.14 86.8692 108.599 84.3472 106.585 82.2397C104.548 80.0711 102.206 78.3947 99.5581 77.2108C96.9713 76.0045 94.1927 75.3184 91.2225 75.1524C88.3134 74.9642 85.3905 75.4044 82.454 76.4732L79.8845 77.4085C76.948 78.4773 74.3954 80.0299 72.2267 82.0663C70.1192 84.0804 68.4318 86.392 67.1644 89.0011C65.9581 91.5879 65.272 94.3664 65.106 97.3367C64.9178 100.246 65.358 103.169 66.4268 106.105L68.3641 111.428L55.8247 113.809L54.5889 110.414C52.9634 105.948 52.2641 101.457 52.4908 96.9399C52.7787 92.4011 53.8565 88.129 55.7242 84.1236C57.5919 80.1183 60.1829 76.5771 63.4971 73.5003C66.8502 70.3399 70.7597 67.947 75.2257 66.3215L78.9881 64.9521C83.4541 63.3266 87.9565 62.6578 92.4954 62.9457C97.012 63.1725 101.273 64.2197 105.278 66.0874C109.284 67.9551 112.825 70.5461 115.902 73.8603C119.04 77.1522 121.422 81.0311 123.047 85.4971L123.682 87.2407C125.218 91.462 126.076 95.3414 126.255 98.8789C126.434 102.416 126.143 105.709 125.382 108.758C124.682 111.784 123.637 114.624 122.247 117.277C120.918 119.908 119.454 122.451 117.852 124.904C116.312 127.335 114.792 129.725 113.291 132.072C111.851 134.398 110.65 136.81 109.688 139.307C108.788 141.783 108.272 144.361 108.139 147.042C108.006 149.723 108.508 152.624 109.643 155.744L110.946 159.323Z" fill="white" fill-opacity="0.01"/>
<path d="M112.503 203.859L111.563 204.201L111.905 205.141L112.845 204.798L112.503 203.859ZM107.359 189.727L107.017 188.787L106.077 189.129L106.419 190.069L107.359 189.727ZM121.399 184.616L122.339 184.274L121.997 183.335L121.057 183.677L121.399 184.616ZM126.543 198.749L126.885 199.688L127.825 199.346L127.483 198.407L126.543 198.749ZM110.946 159.323L111.288 160.262L112.228 159.92L111.886 158.981L110.946 159.323ZM99.108 163.631L98.1683 163.973L98.5103 164.913L99.45 164.571L99.108 163.631ZM96.4143 139.67L95.4537 139.392L95.4512 139.401L95.4489 139.409L96.4143 139.67ZM99.7159 131.609L98.8459 131.116L98.8423 131.123L98.8387 131.129L99.7159 131.609ZM104.211 124.257L105.046 124.808L105.048 124.804L104.211 124.257ZM108.739 116.997L107.887 116.474L107.883 116.48L107.879 116.487L108.739 116.997ZM112.241 109.487L111.297 109.157L111.294 109.166L111.291 109.174L112.241 109.487ZM106.585 82.2397L105.856 82.9243L105.862 82.9306L106.585 82.2397ZM99.5581 77.2108L99.1354 78.1171L99.1426 78.1204L99.1499 78.1237L99.5581 77.2108ZM91.2225 75.1524L91.1579 76.1504L91.1667 76.1509L91.2225 75.1524ZM72.2267 82.0663L71.5422 81.3373L71.5358 81.3434L72.2267 82.0663ZM67.1644 89.0011L66.2649 88.5642L66.2614 88.5713L66.258 88.5785L67.1644 89.0011ZM65.106 97.3367L66.104 97.4013L66.1045 97.3925L65.106 97.3367ZM68.3641 111.428L68.5507 112.41L69.706 112.191L69.3038 111.086L68.3641 111.428ZM55.8247 113.809L54.885 114.151L55.1759 114.95L56.0113 114.792L55.8247 113.809ZM52.4908 96.9399L51.4927 96.8766L51.492 96.8898L52.4908 96.9399ZM63.4971 73.5003L64.1775 74.2331L64.1829 74.228L63.4971 73.5003ZM92.4954 62.9457L92.4321 63.9438L92.4453 63.9445L92.4954 62.9457ZM115.902 73.8603L115.169 74.5407L115.178 74.5503L115.902 73.8603ZM125.382 108.758L124.411 108.515L124.409 108.524L124.407 108.532L125.382 108.758ZM122.247 117.277L121.361 116.813L121.358 116.82L121.354 116.826L122.247 117.277ZM117.852 124.904L117.015 124.358L117.008 124.369L117.852 124.904ZM113.291 132.072L112.448 131.534L112.444 131.54L112.44 131.546L113.291 132.072ZM109.688 139.307L108.755 138.948L108.752 138.957L108.749 138.965L109.688 139.307ZM113.442 203.517L108.299 189.385L106.419 190.069L111.563 204.201L113.442 203.517ZM107.701 190.666L121.741 185.556L121.057 183.677L107.017 188.787L107.701 190.666ZM120.46 184.958L125.603 199.091L127.483 198.407L122.339 184.274L120.46 184.958ZM126.201 197.809L112.161 202.919L112.845 204.798L126.885 199.688L126.201 197.809ZM110.604 158.383L98.7659 162.691L99.45 164.571L111.288 160.262L110.604 158.383ZM100.048 163.289L98.745 159.71L96.8657 160.394L98.1683 163.973L100.048 163.289ZM98.745 159.71C97.3019 155.745 96.5399 152.155 96.432 148.931L94.4331 148.998C94.5497 152.482 95.3696 156.284 96.8657 160.394L98.745 159.71ZM96.432 148.931C96.3226 145.663 96.6422 142.665 97.3798 139.93L95.4489 139.409C94.653 142.36 94.318 145.559 94.4331 148.998L96.432 148.931ZM97.375 139.948C98.1835 137.15 99.2566 134.531 100.593 132.089L98.8387 131.129C97.429 133.705 96.3011 136.46 95.4537 139.392L97.375 139.948ZM100.586 132.102C102.009 129.59 103.496 127.159 105.046 124.808L103.376 123.707C101.801 126.096 100.291 128.566 98.8459 131.116L100.586 132.102ZM105.048 124.804C106.657 122.339 108.174 119.907 109.599 117.508L107.879 116.487C106.469 118.861 104.967 121.269 103.373 123.711L105.048 124.804ZM109.591 117.521C111.109 115.048 112.31 112.474 113.191 109.8L111.291 109.174C110.461 111.696 109.327 114.129 107.887 116.474L109.591 117.521ZM113.185 109.818C114.139 107.091 114.637 104.211 114.682 101.184L112.682 101.154C112.64 103.978 112.177 106.644 111.297 109.157L113.185 109.818ZM114.682 101.184C114.728 98.1084 114.084 94.7794 112.783 91.2073L110.904 91.8914C112.142 95.2935 112.724 98.3774 112.682 101.154L114.682 101.184ZM112.783 91.2073L112.149 89.4637L110.269 90.1478L110.904 91.8914L112.783 91.2073ZM112.149 89.4637C111.036 86.4067 109.424 83.7634 107.308 81.5488L105.862 82.9306C107.773 84.931 109.244 87.3318 110.269 90.1478L112.149 89.4637ZM107.314 81.5552C105.189 79.2924 102.738 77.5373 99.9662 76.2979L99.1499 78.1237C101.674 79.2521 103.908 80.8497 105.856 82.9242L107.314 81.5552ZM99.9807 76.3044C97.2737 75.0422 94.3701 74.3268 91.2783 74.154L91.1667 76.1509C94.0154 76.3101 96.6688 76.9669 99.1354 78.1171L99.9807 76.3044ZM91.287 74.1545C88.2301 73.9567 85.1691 74.4209 82.112 75.5336L82.796 77.4129C85.612 76.388 88.3966 75.9716 91.1579 76.1503L91.287 74.1545ZM82.112 75.5336L79.5425 76.4688L80.2265 78.3481L82.796 77.4129L82.112 75.5336ZM79.5425 76.4688C76.4852 77.5815 73.8145 79.2035 71.5422 81.3373L72.9112 82.7953C74.9762 80.8562 77.4107 79.373 80.2265 78.3481L79.5425 76.4688ZM71.5358 81.3434C69.3428 83.4393 67.5845 85.8476 66.2649 88.5642L68.0638 89.438C69.279 86.9365 70.8957 84.7216 72.9176 82.7892L71.5358 81.3434ZM66.258 88.5785C64.9958 91.2854 64.2804 94.1891 64.1076 97.2809L66.1045 97.3925C66.2637 94.5438 66.9205 91.8904 68.0707 89.4237L66.258 88.5785ZM64.1081 97.2721C63.9103 100.329 64.3745 103.39 65.4872 106.447L67.3665 105.763C66.3416 102.947 65.9252 100.163 66.1039 97.4013L64.1081 97.2721ZM65.4872 106.447L67.4244 111.77L69.3038 111.086L67.3665 105.763L65.4872 106.447ZM68.1775 110.445L55.6381 112.827L56.0113 114.792L68.5507 112.41L68.1775 110.445ZM56.7644 113.467L55.5286 110.072L53.6492 110.756L54.885 114.151L56.7644 113.467ZM55.5286 110.072C53.9464 105.725 53.2698 101.367 53.4895 96.9901L51.492 96.8898C51.2583 101.546 51.9804 106.171 53.6492 110.756L55.5286 110.072ZM53.4888 97.0032C53.769 92.5851 54.817 88.4353 56.6305 84.5462L54.8179 83.701C52.8959 87.8227 51.7883 92.217 51.4928 96.8766L53.4888 97.0032ZM56.6305 84.5462C58.4424 80.6607 60.9556 77.2242 64.1774 74.2331L62.8167 72.7674C59.4101 75.9301 56.7415 79.5759 54.8179 83.701L56.6305 84.5462ZM64.1829 74.228C67.4339 71.1639 71.2254 68.8417 75.5677 67.2612L74.8837 65.3818C70.2939 67.0524 66.2664 69.5159 62.8112 72.7725L64.1829 74.228ZM75.5677 67.2612L79.3301 65.8918L78.6461 64.0124L74.8837 65.3818L75.5677 67.2612ZM79.3301 65.8918C83.6724 64.3113 88.0371 63.665 92.4321 63.9437L92.5587 61.9477C87.876 61.6507 83.2358 62.3419 78.6461 64.0124L79.3301 65.8918ZM92.4453 63.9445C96.836 64.1649 100.97 65.1818 104.856 66.9937L105.701 65.1811C101.576 63.2575 97.188 62.18 92.5455 61.947L92.4453 63.9445ZM104.856 66.9937C108.741 68.8056 112.178 71.3188 115.169 74.5406L116.635 73.1799C113.472 69.7733 109.826 67.1047 105.701 65.1811L104.856 66.9937ZM115.178 74.5503C118.216 77.7378 120.527 81.4968 122.107 85.8391L123.987 85.1551C122.316 80.5654 119.863 76.5665 116.625 73.1703L115.178 74.5503ZM122.107 85.8391L122.742 87.5827L124.621 86.8987L123.987 85.1551L122.107 85.8391ZM122.742 87.5827C124.253 91.7342 125.083 95.514 125.256 98.9294L127.254 98.8283C127.068 95.1687 126.183 91.1897 124.621 86.8987L122.742 87.5827ZM125.256 98.9294C125.431 102.381 125.146 105.574 124.411 108.515L126.352 109C127.14 105.845 127.437 102.452 127.254 98.8283L125.256 98.9294ZM124.407 108.532C123.726 111.478 122.71 114.238 121.361 116.813L123.133 117.741C124.564 115.009 125.637 112.089 126.356 108.983L124.407 108.532ZM121.354 116.826C120.042 119.425 118.596 121.935 117.015 124.358L118.69 125.451C120.311 122.966 121.795 120.392 123.14 117.728L121.354 116.826ZM117.008 124.369C115.468 126.799 113.949 129.187 112.448 131.534L114.133 132.611C115.635 130.262 117.156 127.872 118.697 125.439L117.008 124.369ZM112.44 131.546C110.968 133.923 109.74 136.391 108.755 138.948L110.622 139.666C111.56 137.228 112.733 134.873 114.141 132.599L112.44 131.546ZM108.749 138.965C107.814 141.537 107.278 144.214 107.14 146.993L109.138 147.091C109.266 144.508 109.763 142.029 110.628 139.649L108.749 138.965ZM107.14 146.993C106.999 149.834 107.533 152.869 108.704 156.086L110.583 155.402C109.482 152.378 109.013 149.612 109.138 147.091L107.14 146.993ZM108.704 156.086L110.006 159.665L111.886 158.981L110.583 155.402L108.704 156.086Z" fill="#BBABF7"/>
<path d="M231.303 47.8365L251.225 52.7463L209.929 156.265L197.713 151.819L231.303 47.8365ZM183.849 172.952C184.944 169.945 186.944 167.764 189.849 166.409C192.8 164.929 195.841 164.759 198.974 165.899C202.231 167.085 204.577 169.216 206.012 172.292C207.492 175.243 207.684 178.222 206.59 181.229C205.45 184.361 203.365 186.582 200.334 187.891C197.304 189.2 194.159 189.262 190.902 188.076C187.77 186.936 185.526 184.913 184.171 182.008C182.817 179.103 182.709 176.084 183.849 172.952Z" fill="white" fill-opacity="0.01"/>
<path d="M231.303 47.8365L231.542 46.8655L230.638 46.6426L230.351 47.5291L231.303 47.8365ZM251.225 52.7463L252.154 53.1169L252.58 52.0502L251.465 51.7754L251.225 52.7463ZM209.929 156.265L209.587 157.205L210.499 157.537L210.858 156.636L209.929 156.265ZM197.713 151.819L196.762 151.512L196.465 152.429L197.371 152.759L197.713 151.819ZM189.849 166.409L190.271 167.315L190.284 167.309L190.297 167.303L189.849 166.409ZM206.012 172.292L205.105 172.714L205.111 172.727L205.118 172.74L206.012 172.292ZM200.334 187.891L200.731 188.809L200.334 187.891ZM184.171 182.008L183.265 182.431L184.171 182.008ZM231.064 48.8074L250.986 53.7173L251.465 51.7754L231.542 46.8655L231.064 48.8074ZM250.296 52.3758L209 155.895L210.858 156.636L252.154 53.1169L250.296 52.3758ZM210.271 155.326L198.055 150.879L197.371 152.759L209.587 157.205L210.271 155.326ZM198.665 152.126L232.255 48.1438L230.351 47.5291L196.762 151.512L198.665 152.126ZM184.789 173.294C185.793 170.536 187.606 168.558 190.271 167.315L189.426 165.503C186.281 166.969 184.095 169.353 182.91 172.61L184.789 173.294ZM190.297 167.303C192.999 165.948 195.755 165.792 198.632 166.839L199.316 164.959C195.928 163.726 192.6 163.91 189.401 165.515L190.297 167.303ZM198.632 166.839C201.646 167.936 203.786 169.884 205.105 172.714L206.918 171.869C205.369 168.547 202.816 166.234 199.316 164.959L198.632 166.839ZM205.118 172.74C206.479 175.454 206.647 178.147 205.65 180.887L207.53 181.571C208.721 178.296 208.504 175.031 206.905 171.843L205.118 172.74ZM205.65 180.887C204.603 183.763 202.713 185.774 199.937 186.973L200.731 188.809C204.016 187.389 206.296 184.959 207.53 181.571L205.65 180.887ZM199.937 186.973C197.154 188.175 194.275 188.239 191.244 187.136L190.56 189.016C194.044 190.284 197.453 190.225 200.731 188.809L199.937 186.973ZM191.244 187.136C188.35 186.083 186.315 184.24 185.078 181.585L183.265 182.431C184.737 185.587 187.189 187.789 190.56 189.016L191.244 187.136ZM185.078 181.585C183.84 178.931 183.736 176.188 184.789 173.294L182.91 172.61C181.683 175.98 181.793 179.275 183.265 182.431L185.078 181.585Z" fill="#BBABF7"/>
<path d="M87.9165 327C87.7295 335.899 86.2289 339.333 80.5696 342.131C86.332 342.914 87.7128 346.815 87.9165 358C88.5002 347.225 89.427 342.325 95.5696 342.131C89.4833 339.71 88.0745 336.097 87.9165 327Z" stroke="#BBABF7" stroke-linecap="round" stroke-linejoin="round"/>
<path d="M65.5696 308C65.2642 320.057 62.8132 324.709 53.5696 328.5C62.9815 329.561 65.2368 334.846 65.5696 350C66.5229 335.401 68.0367 328.763 78.0696 328.5C68.1287 325.221 65.8276 320.325 65.5696 308Z" stroke="#BBABF7" stroke-linecap="round" stroke-linejoin="round"/>
<path d="M156.755 492.56C154.246 495.632 152.941 499.432 152.147 502.827C151.767 504.452 151.506 505.973 151.283 507.27C151.268 507.361 151.252 507.451 151.237 507.54C151.009 508.867 150.808 510 150.534 510.686C150.532 510.691 150.532 510.693 150.532 510.693L156.755 492.56ZM156.755 492.56L174.306 496.829L156.755 492.56ZM150.531 510.693C150.531 510.693 150.531 510.693 150.531 510.693L150.531 510.693Z" stroke="#7452F1"/>
<path fill-rule="evenodd" clip-rule="evenodd" d="M25.4357 508.245C25.5712 508.005 25.4859 507.7 25.2453 507.564C25.0046 507.429 24.6997 507.514 24.5643 507.755C19.1538 517.367 14.0245 526.499 9.87286 534.48C6.47331 541.014 3.7176 546.798 2.00001 551.452V554.574C3.49378 549.629 6.63291 542.874 10.76 534.941C14.9026 526.978 20.0233 517.861 25.4357 508.245ZM1.5116 555H1.4888C1.49642 555 1.50402 555 1.5116 555ZM1.00001 554.512V554.489C0.999834 554.496 0.999835 554.504 1.00001 554.512Z" fill="#EEEAFC"/>
</svg>
