<svg width="360" height="612" viewBox="0 0 360 612" fill="none" xmlns="http://www.w3.org/2000/svg">
<path d="M369.5 436.955C383.51 451.228 265.057 611.5 182.057 611.5C110.557 611.5 206.057 518 182.057 499.5C454.057 584.336 0.556747 396.5 182.057 387C312.504 474.62 336.852 463.407 259 369C269 348.955 289.5 355.455 369.5 436.955Z" fill="#BBABF7"/>
<path d="M-7.04565 436.955C-21.0558 451.228 97.3976 611.5 180.398 611.5C251.898 611.5 156.398 518 180.398 499.5C-91.6024 584.336 361.898 396.5 180.398 387C49.9507 474.62 25.6026 463.407 103.454 369C93.4543 348.955 72.9543 355.455 -7.04565 436.955Z" fill="#BBABF7"/>
<path d="M204.56 161.912L248.298 165.738C252.726 166.126 256.001 170.028 255.614 174.455C255.226 178.882 251.323 182.157 246.895 181.769L203.158 177.943C198.73 177.555 195.455 173.653 195.842 169.226C196.229 164.799 200.133 161.524 204.56 161.912Z" stroke="#BBABF7" stroke-width="2"/>
<path d="M246.548 176.443C245.09 176.315 244.011 175.03 244.139 173.572C244.267 172.114 245.552 171.036 247.01 171.163C248.468 171.291 249.546 172.576 249.418 174.034C249.291 175.492 248.006 176.571 246.548 176.443Z" stroke="#BBABF7" stroke-width="2"/>
<path d="M235.989 175.519C234.531 175.392 233.453 174.106 233.58 172.648C233.708 171.191 234.993 170.112 236.451 170.24C237.909 170.367 238.987 171.652 238.86 173.11C238.732 174.568 237.447 175.647 235.989 175.519Z" stroke="#BBABF7" stroke-width="2"/>
<path d="M225.43 174.595C223.972 174.468 222.893 173.183 223.021 171.725C223.148 170.267 224.434 169.188 225.892 169.316C227.349 169.443 228.428 170.729 228.3 172.187C228.173 173.645 226.888 174.723 225.43 174.595Z" stroke="#BBABF7" stroke-width="2"/>
<path d="M214.871 173.672C213.413 173.544 212.334 172.259 212.462 170.801C212.589 169.343 213.875 168.265 215.332 168.392C216.79 168.52 217.869 169.805 217.741 171.263C217.614 172.721 216.328 173.799 214.871 173.672Z" stroke="#BBABF7" stroke-width="2"/>
<path d="M248.885 165.567L249.557 157.886C249.572 157.714 249.503 157.546 249.371 157.435L246.646 155.135L208.437 151.792M204.01 161.641L204.681 153.972C204.696 153.794 204.801 153.635 204.959 153.551L208.285 151.779M237.915 153.897L238.764 144.197C238.789 143.905 238.574 143.648 238.282 143.623L220.488 142.066C220.35 142.054 220.212 142.097 220.105 142.185L217.687 144.178C217.578 144.268 217.509 144.399 217.497 144.541L216.924 151.087M217.287 146.939L199.036 140.296M253.893 168.056L256.845 134.324M220.64 153.473L219.812 162.931M255.94 134.055L244.756 140.896C244.437 141.091 244.415 141.547 244.714 141.772L249.79 145.58L254.668 149.097C255.002 149.337 255.47 149.123 255.506 148.713L256.073 142.237L256.745 134.553C256.783 134.12 256.312 133.828 255.94 134.055Z" stroke="#BBABF7" stroke-width="2" stroke-linecap="round"/>
<path d="M231.718 149.323C230.99 149.259 230.45 148.616 230.514 147.888C230.578 147.159 231.22 146.619 231.949 146.683C232.678 146.747 233.218 147.39 233.154 148.118C233.09 148.847 232.447 149.387 231.718 149.323Z" fill="#BBABF7"/>
<path d="M246.413 37.272L227.869 18.728C226.687 17.546 225.284 16.6085 223.74 15.9688C222.195 15.3292 220.54 15 218.869 15V15C216.351 15 213.891 15.7465 211.798 17.1451C209.704 18.5437 208.073 20.5315 207.11 22.8572C206.146 25.1829 205.894 27.7421 206.385 30.2111C206.877 32.6801 208.089 34.948 209.869 36.728L228.413 55.272C230.193 57.052 232.461 58.2642 234.93 58.7553C237.399 59.2464 239.958 58.9944 242.284 58.031C244.609 57.0677 246.597 55.4363 247.996 53.3432C249.394 51.2502 250.141 48.7893 250.141 46.272V46.272C250.141 44.6005 249.812 42.9454 249.172 41.4012C248.532 39.857 247.595 38.4539 246.413 37.272ZM232.141 54L214.141 36L227.141 23L245.141 41L232.141 54Z" fill="#7452F1"/>
<path d="M244.141 14H220.141C219.941 14 219.741 14.0043 219.541 14.013V14.033C219.316 14.022 219.093 14 218.866 14C217.04 13.9986 215.233 14.3631 213.55 15.072L211.676 9.452C211.235 8.17407 210.478 7.02887 209.474 6.12367C208.47 5.21847 207.252 4.58288 205.936 4.27642C204.619 3.96996 203.247 4.00266 201.946 4.37146C200.646 4.74026 199.46 5.4331 198.5 6.38508C197.541 7.33705 196.838 8.51703 196.459 9.81449C196.08 11.112 196.036 12.4845 196.332 13.8034C196.628 15.1224 197.253 16.3448 198.15 17.3559C199.048 18.3671 200.187 19.1341 201.461 19.585L206.685 21.429C205.341 24.0133 204.857 26.959 205.302 29.8377C205.748 32.7163 207.1 35.3778 209.162 37.435L227.706 55.979C229.97 58.2459 232.955 59.6494 236.145 59.9463C239.335 60.2431 242.528 59.4147 245.172 57.6044C247.815 55.7942 249.742 53.1162 250.618 50.0347C251.494 46.9531 251.264 43.6621 249.969 40.732C252.875 39.4029 255.24 37.1193 256.669 34.2607C258.098 31.4021 258.506 28.1405 257.826 25.0178C257.145 21.8952 255.416 19.0994 252.927 17.0951C250.437 15.0908 247.337 13.9986 244.141 14V14ZM202.127 17.7C201.161 17.3674 200.296 16.7943 199.613 16.0347C198.93 15.2751 198.452 14.3541 198.224 13.3586C197.995 12.363 198.024 11.3257 198.308 10.3444C198.591 9.36307 199.12 8.47016 199.844 7.74984C200.568 7.02951 201.464 6.50551 202.447 6.22725C203.43 5.94898 204.467 5.92562 205.462 6.15937C206.456 6.39312 207.374 6.87627 208.13 7.56326C208.886 8.25026 209.455 9.11846 209.782 10.086L211.756 16.01C210.195 16.9603 208.839 18.2112 207.765 19.69L202.127 17.7ZM237.413 58C235.872 58.0041 234.346 57.7027 232.922 57.113C231.499 56.5234 230.207 55.6574 229.12 54.565L210.576 36.021C208.782 34.2287 207.618 31.9027 207.259 29.3925C206.9 26.8822 207.365 24.3233 208.585 22.1L211.141 23C211.133 23.7172 211.379 24.4141 211.836 24.9672C212.292 25.5203 212.93 25.8938 213.636 26.0215C214.342 26.1493 215.07 26.023 215.692 25.6651C216.313 25.3072 216.788 24.7408 217.032 24.0662C217.276 23.3917 217.273 22.6526 217.024 21.9799C216.775 21.3073 216.296 20.7446 215.671 20.3914C215.047 20.0383 214.318 19.9177 213.613 20.0508C212.908 20.184 212.273 20.5624 211.821 21.119L209.741 20.386C210.771 19.1013 212.06 18.0481 213.525 17.2954C214.989 16.5427 216.596 16.1072 218.24 16.0175C219.885 15.9277 221.529 16.1857 223.067 16.7746C224.605 17.3635 226.001 18.27 227.165 19.435L245.706 37.979C247.346 39.6192 248.463 41.7089 248.916 43.9839C249.368 46.259 249.136 48.6171 248.248 50.7601C247.361 52.9031 245.857 54.7348 243.929 56.0235C242 57.3122 239.733 58 237.413 58V58ZM213.141 23C213.141 22.8022 213.2 22.6089 213.309 22.4444C213.419 22.28 213.576 22.1518 213.758 22.0761C213.941 22.0004 214.142 21.9806 214.336 22.0192C214.53 22.0578 214.708 22.153 214.848 22.2929C214.988 22.4327 215.083 22.6109 215.122 22.8049C215.16 22.9989 215.141 23.2 215.065 23.3827C214.989 23.5654 214.861 23.7216 214.697 23.8315C214.532 23.9413 214.339 24 214.141 24C213.876 24 213.621 23.8946 213.434 23.7071C213.246 23.5196 213.141 23.2652 213.141 23ZM244.141 33.586L230.555 20H244.141V33.586ZM249.023 38.961C248.48 38.0934 247.843 37.2885 247.123 36.561L246.141 35.586V19C246.141 18.7348 246.036 18.4804 245.848 18.2929C245.661 18.1054 245.406 18 245.141 18H228.553C227.778 17.2342 226.916 16.5629 225.983 16H244.141C246.89 16.0005 249.555 16.9447 251.691 18.6747C253.827 20.4047 255.305 22.8157 255.876 25.5043C256.448 28.193 256.079 30.9964 254.832 33.4459C253.584 35.8953 251.534 37.8422 249.023 38.961Z" fill="#BBABF7"/>
<path d="M226.434 22.293L213.434 35.293C213.246 35.4805 213.141 35.7348 213.141 36C213.141 36.2652 213.246 36.5195 213.434 36.707L231.434 54.707C231.621 54.8945 231.876 54.9998 232.141 54.9998C232.406 54.9998 232.66 54.8945 232.848 54.707L245.848 41.707C246.035 41.5195 246.141 41.2652 246.141 41C246.141 40.7348 246.035 40.4805 245.848 40.293L227.848 22.293C227.66 22.1055 227.406 22.0002 227.141 22.0002C226.876 22.0002 226.621 22.1055 226.434 22.293ZM232.141 52.586L215.555 36L227.141 24.414L243.727 41L232.141 52.586Z" fill="#BBABF7"/>
<path d="M226.848 28.2927L225.434 29.7069L232.433 36.7066L233.847 35.2924L226.848 28.2927Z" fill="#BBABF7"/>
<path d="M235.848 37.293L234.434 38.7072L236.434 40.7069L237.848 39.2927L235.848 37.293Z" fill="#BBABF7"/>
<path d="M223.848 31.2932L222.434 32.7074L235.434 45.7076L236.848 44.2933L223.848 31.2932Z" fill="#BBABF7"/>
<path d="M220.848 34.2932L219.434 35.7074L227.934 44.2075L229.348 42.7933L220.848 34.2932Z" fill="#BBABF7"/>
<g clip-path="url(#clip0_524_333)">
<path d="M123.755 81.3737L131.431 97.0019L121.117 95.3768L121.125 95.3556L123.755 81.3737Z" fill="#7452F1"/>
<path d="M116.094 65.7838L123.755 81.3737L121.125 95.3556L121.118 95.3768L110.805 93.7517L116.084 65.7852L116.094 65.7838Z" fill="#7452F1"/>
<path d="M140.922 92.6633L140.935 92.6818L131.431 97.0019L123.755 81.3737L116.094 65.7838L126.994 64.3016L140.922 92.6633Z" fill="#7452F1"/>
<path d="M137.883 62.8206L150.44 88.3616L140.935 92.6818L140.922 92.6633L126.994 64.3015L137.874 62.822L137.883 62.8206Z" fill="#7452F1"/>
<path d="M132.249 102.946C134.209 102.679 136.203 103 137.981 103.867C139.759 104.734 141.239 106.109 142.235 107.818C143.231 109.526 143.699 111.492 143.578 113.466C143.457 115.44 142.753 117.334 141.556 118.908C140.358 120.483 138.721 121.666 136.851 122.31C134.981 122.954 132.962 123.029 131.049 122.525C129.137 122.021 127.417 120.962 126.106 119.48C124.796 117.999 123.954 116.162 123.688 114.202C123.331 111.574 124.033 108.913 125.638 106.802C127.244 104.691 129.621 103.304 132.249 102.946V102.946ZM136.727 113.61L139.311 110.352L135.12 110.326L132.788 106.909L131.443 110.826L127.421 111.969L130.781 114.418L130.625 118.537L134.044 116.144L137.977 117.537L136.727 113.61Z" fill="#7452F1"/>
<path d="M139.311 110.352L136.727 113.61L137.977 117.537L134.044 116.144L130.625 118.537L130.782 114.418L127.421 111.969L131.444 110.826L132.788 106.909L135.12 110.326L139.311 110.352Z" fill="#7452F1"/>
<path d="M134.944 122.763C136.904 122.497 138.741 121.655 140.222 120.345C141.703 119.034 142.763 117.314 143.267 115.402C143.771 113.489 143.696 111.47 143.052 109.6C142.408 107.73 141.225 106.093 139.65 104.895C138.076 103.698 136.182 102.994 134.208 102.873C132.234 102.752 130.268 103.22 128.56 104.216C126.851 105.212 125.476 106.692 124.609 108.47C123.742 110.248 123.421 112.242 123.688 114.202C124.046 116.83 125.433 119.207 127.544 120.813C129.654 122.418 132.316 123.12 134.944 122.763V122.763ZM131.845 99.9732C135.26 99.5102 138.719 100.422 141.461 102.509C144.203 104.596 146.004 107.687 146.468 111.102C146.931 114.516 146.02 117.976 143.933 120.718C141.847 123.461 138.757 125.262 135.342 125.727C131.927 126.191 128.468 125.28 125.725 123.194C122.982 121.108 121.18 118.018 120.715 114.604C120.25 111.189 121.16 107.73 123.245 104.987C125.331 102.243 128.42 100.44 131.835 99.9746L131.845 99.9732Z" fill="#7452F1"/>
<path d="M138.109 118.533C137.95 118.554 137.788 118.537 137.638 118.484L134.193 117.256L131.201 119.359C131.049 119.466 130.869 119.529 130.683 119.54C130.497 119.551 130.312 119.509 130.148 119.42C129.984 119.331 129.848 119.198 129.756 119.036C129.664 118.874 129.619 118.69 129.626 118.504L129.761 114.913L126.83 112.778C126.678 112.668 126.561 112.517 126.491 112.343C126.421 112.169 126.401 111.979 126.434 111.795C126.467 111.61 126.551 111.438 126.677 111.299C126.802 111.16 126.965 111.059 127.145 111.008L130.67 110.005L131.84 106.586C131.911 106.42 132.023 106.276 132.166 106.167C132.31 106.058 132.479 105.988 132.657 105.963C132.836 105.939 133.017 105.961 133.184 106.028C133.351 106.095 133.498 106.204 133.611 106.345L135.651 109.328L139.316 109.353C139.504 109.354 139.687 109.408 139.845 109.508C140.004 109.609 140.131 109.752 140.212 109.921C140.292 110.09 140.324 110.279 140.303 110.465C140.282 110.651 140.209 110.828 140.093 110.975L137.838 113.814L138.927 117.239C138.971 117.378 138.985 117.525 138.966 117.67C138.948 117.814 138.898 117.953 138.819 118.077C138.741 118.2 138.637 118.305 138.515 118.383C138.392 118.462 138.253 118.513 138.109 118.533L138.109 118.533ZM133.906 115.149C134.065 115.127 134.227 115.144 134.377 115.198L136.41 115.923L135.771 113.913C135.722 113.757 135.711 113.591 135.741 113.429C135.771 113.268 135.84 113.117 135.941 112.988L137.251 111.339L135.115 111.325C134.954 111.323 134.795 111.283 134.652 111.207C134.51 111.131 134.388 111.022 134.297 110.889L133.086 109.12L132.392 111.148C132.34 111.301 132.252 111.438 132.135 111.55C132.018 111.661 131.876 111.742 131.72 111.786L129.666 112.37L131.368 113.61C131.501 113.707 131.607 113.834 131.679 113.982C131.751 114.129 131.785 114.292 131.779 114.456L131.7 116.564L133.466 115.322C133.596 115.23 133.748 115.171 133.906 115.149L133.906 115.149ZM138.022 63.812L116.231 66.7754C115.968 66.8112 115.702 66.7411 115.49 66.5805C115.279 66.42 115.141 66.1821 115.105 65.9193C115.069 65.6565 115.139 65.3903 115.3 65.1792C115.46 64.9681 115.698 64.8294 115.961 64.7937L137.753 61.8302C138.016 61.7945 138.282 61.8646 138.493 62.0252C138.704 62.1857 138.843 62.4235 138.878 62.6863C138.914 62.9491 138.844 63.2154 138.683 63.4265C138.523 63.6376 138.285 63.7762 138.022 63.812Z" fill="#BBABF7"/>
<path d="M131.567 97.9926C131.359 98.0209 131.148 97.983 130.962 97.8844C130.777 97.7858 130.627 97.6314 130.535 97.4431L115.198 66.226C115.082 65.988 115.065 65.7136 115.151 65.4631C115.236 65.2125 115.418 65.0062 115.656 64.8894C115.893 64.7726 116.168 64.7547 116.419 64.8398C116.669 64.9248 116.876 65.1058 116.994 65.3431L132.33 96.5602C132.447 96.7984 132.465 97.0732 132.379 97.3243C132.293 97.5753 132.112 97.7822 131.874 97.8996C131.777 97.9465 131.674 97.9778 131.567 97.9926V97.9926Z" fill="#BBABF7"/>
<path d="M131.567 97.9925C131.329 98.025 131.088 97.9707 130.886 97.8397C130.685 97.7086 130.538 97.5095 130.471 97.2788C130.405 97.048 130.423 96.8011 130.524 96.583C130.625 96.3649 130.8 96.1903 131.019 96.0911L150.022 87.4526C150.142 87.3979 150.271 87.3675 150.403 87.3628C150.534 87.3582 150.665 87.3796 150.788 87.4257C150.911 87.4717 151.024 87.5417 151.12 87.6314C151.216 87.7212 151.294 87.829 151.348 87.9487C151.403 88.0685 151.433 88.1977 151.437 88.3292C151.442 88.4606 151.42 88.5916 151.374 88.7147C151.327 88.8377 151.257 88.9505 151.167 89.0464C151.077 89.1423 150.969 89.2196 150.849 89.2737L131.846 97.9122C131.757 97.9523 131.664 97.9793 131.567 97.9925Z" fill="#BBABF7"/>
<path d="M141.062 93.657C140.854 93.6853 140.642 93.6475 140.457 93.5489C140.272 93.4503 140.122 93.2959 140.029 93.1076L126.094 64.7443C125.979 64.5064 125.962 64.2326 126.048 63.9827C126.134 63.7328 126.316 63.527 126.553 63.4104C126.79 63.2938 127.064 63.2758 127.314 63.3603C127.565 63.4448 127.772 63.6249 127.89 63.8614L141.825 92.2247C141.942 92.4629 141.959 92.7377 141.874 92.9887C141.788 93.2398 141.606 93.4467 141.369 93.5641C141.272 93.6109 141.168 93.6423 141.062 93.657V93.657ZM150.571 89.355C150.363 89.3833 150.151 89.3455 149.966 89.2469C149.781 89.1483 149.631 88.9939 149.538 88.8056L136.99 63.2625C136.873 63.0244 136.855 62.7496 136.941 62.4985C137.026 62.2473 137.208 62.0405 137.446 61.9235C137.684 61.8064 137.959 61.7887 138.21 61.8743C138.461 61.9598 138.668 62.1416 138.785 62.3797L151.334 87.9227C151.451 88.1609 151.468 88.4357 151.383 88.6867C151.297 88.9378 151.115 89.1447 150.878 89.262C150.781 89.3089 150.677 89.3403 150.571 89.355Z" fill="#BBABF7"/>
<path d="M138.007 63.8141L116.215 66.7776C115.952 66.8133 115.686 66.7432 115.475 66.5826C115.264 66.4221 115.125 66.1842 115.089 65.9214C115.054 65.6586 115.124 65.3924 115.284 65.1813C115.445 64.9702 115.683 64.8315 115.945 64.7958L137.737 61.8323C138 61.7966 138.266 61.8667 138.477 62.0273C138.688 62.1878 138.827 62.4257 138.863 62.6885C138.898 62.9513 138.828 63.2175 138.668 63.4286C138.507 63.6397 138.269 63.7783 138.007 63.8141ZM131.563 97.9931C131.467 98.006 131.369 98.005 131.273 97.9901L110.653 94.7401C110.523 94.7199 110.398 94.6743 110.286 94.6059C110.174 94.5374 110.076 94.4475 109.999 94.3413C109.921 94.2351 109.865 94.1146 109.834 93.9868C109.803 93.859 109.798 93.7263 109.818 93.5964C109.839 93.4665 109.885 93.3419 109.953 93.2298C110.022 93.1176 110.112 93.0201 110.218 92.9428C110.325 92.8655 110.445 92.8099 110.573 92.7793C110.701 92.7486 110.834 92.7435 110.964 92.7642L131.584 96.0142C131.821 96.0515 132.037 96.1728 132.192 96.3561C132.347 96.5394 132.431 96.7724 132.429 97.0126C132.426 97.2527 132.337 97.4839 132.179 97.6639C132.02 97.844 131.801 97.9608 131.563 97.9931V97.9931Z" fill="#BBABF7"/>
<path d="M121.256 96.3504C121.149 96.3647 121.041 96.3621 120.935 96.3427C120.675 96.2932 120.444 96.1423 120.295 95.9232C120.145 95.7041 120.089 95.4347 120.138 95.1739L122.774 81.1922C122.824 80.9321 122.975 80.7024 123.194 80.5535C123.413 80.4046 123.682 80.3485 123.942 80.3976C124.202 80.4468 124.432 80.5971 124.582 80.8156C124.732 81.0341 124.789 81.303 124.74 81.5634L122.104 95.5452C122.065 95.7514 121.962 95.9402 121.81 96.0847C121.658 96.2292 121.464 96.3222 121.256 96.3504ZM110.943 94.744C110.837 94.7582 110.729 94.7557 110.623 94.7363C110.362 94.6868 110.132 94.5359 109.983 94.3168C109.833 94.0977 109.776 93.8282 109.825 93.5675L115.097 65.601C115.146 65.3403 115.297 65.1097 115.516 64.9602C115.735 64.8106 116.005 64.7542 116.266 64.8035C116.527 64.8527 116.757 65.0035 116.907 65.2227C117.056 65.4419 117.113 65.7115 117.063 65.9723L111.792 93.9387C111.753 94.145 111.65 94.3337 111.497 94.4782C111.345 94.6227 111.151 94.7157 110.943 94.744V94.744ZM135.481 126.726C132.737 127.099 129.944 126.651 127.456 125.436C124.967 124.222 122.894 122.298 121.5 119.906C120.105 117.514 119.451 114.762 119.62 111.998C119.79 109.234 120.775 106.583 122.451 104.379C124.127 102.175 126.419 100.517 129.037 99.6162C131.656 98.715 134.482 98.6104 137.16 99.3157C139.838 100.021 142.246 101.504 144.08 103.578C145.915 105.652 147.093 108.224 147.466 110.967C147.962 114.646 146.979 118.371 144.732 121.325C142.485 124.28 139.158 126.222 135.481 126.726ZM131.977 100.963C129.625 101.283 127.421 102.293 125.644 103.866C123.866 105.438 122.594 107.502 121.99 109.798C121.385 112.093 121.475 114.515 122.247 116.76C123.02 119.004 124.441 120.968 126.33 122.405C128.219 123.842 130.491 124.686 132.86 124.831C135.229 124.977 137.588 124.416 139.638 123.221C141.689 122.025 143.338 120.249 144.379 118.115C145.42 115.982 145.804 113.589 145.485 111.237C145.052 108.085 143.388 105.233 140.855 103.307C138.323 101.381 135.13 100.538 131.977 100.963V100.963Z" fill="#BBABF7"/>
<path d="M135.076 123.754C132.921 124.047 130.726 123.694 128.771 122.74C126.816 121.786 125.187 120.274 124.091 118.395C122.996 116.515 122.482 114.353 122.615 112.181C122.748 110.01 123.522 107.926 124.839 106.195C126.156 104.463 127.957 103.161 130.014 102.453C132.071 101.745 134.292 101.663 136.396 102.217C138.5 102.771 140.392 103.936 141.833 105.566C143.275 107.196 144.201 109.216 144.494 111.372C144.883 114.262 144.111 117.189 142.345 119.51C140.58 121.831 137.966 123.357 135.076 123.754V123.754ZM132.381 103.936C130.618 104.176 128.964 104.933 127.631 106.113C126.298 107.292 125.344 108.84 124.891 110.562C124.438 112.283 124.505 114.1 125.084 115.783C125.663 117.466 126.729 118.94 128.146 120.017C129.563 121.095 131.267 121.728 133.044 121.837C134.82 121.946 136.59 121.526 138.127 120.629C139.665 119.732 140.902 118.4 141.683 116.8C142.463 115.2 142.752 113.405 142.512 111.641C142.188 109.277 140.939 107.138 139.04 105.694C137.141 104.249 134.746 103.617 132.381 103.936V103.936Z" fill="#BBABF7"/>
<path d="M131.972 100.966C131.842 100.984 131.709 100.976 131.582 100.942C131.455 100.909 131.336 100.851 131.231 100.771C131.127 100.692 131.039 100.593 130.973 100.479C130.907 100.366 130.864 100.24 130.846 100.11L130.442 97.1364C130.406 96.8736 130.476 96.6074 130.637 96.3963C130.797 96.1852 131.035 96.0465 131.298 96.0108C131.561 95.975 131.827 96.0452 132.038 96.2057C132.249 96.3663 132.388 96.6041 132.423 96.8669L132.828 99.8405C132.846 99.9707 132.838 100.103 132.804 100.23C132.771 100.357 132.713 100.476 132.633 100.581C132.554 100.685 132.454 100.773 132.341 100.839C132.227 100.905 132.102 100.949 131.972 100.966V100.966Z" fill="#BBABF7"/>
</g>
<path fill-rule="evenodd" clip-rule="evenodd" d="M52.6408 472.5C68.0728 440.485 103.049 390.694 133.377 361.493C160.755 326.865 154.889 328.01 139.751 330.965C132.623 332.356 123.438 334.149 114.701 332.795C108.687 338.04 99.6162 344.89 90.2391 351.972C70.427 366.933 49.2471 382.928 52.6408 387L52.6408 472.5Z" fill="#BBABF7"/>
<path fill-rule="evenodd" clip-rule="evenodd" d="M314.641 478C299.209 445.985 273.953 401.694 243.625 372.493C216.247 337.865 222.114 339.01 237.251 341.965C244.38 343.356 253.564 345.149 262.301 343.795C268.855 349.511 277.787 356.276 286.435 362.825C302.489 374.983 317.566 386.4 314.641 389C314.641 414.053 314.641 439.107 314.641 462.775L314.641 478Z" fill="#BBABF7"/>
<path d="M67.1408 572H298.141V611H67.1408V572Z" fill="#BBABF7"/>
<path d="M314.641 584V585V589.5V594V594.5C314.641 594.5 314.641 594.971 314.641 595.138C314.5 604.5 314.641 602.5 314.641 611C303 611 289 611 273.5 611C273.5 606.949 282.171 586.761 284.808 584H81.3741C84.9156 586.836 101.5 606.438 101.5 611C82.5 611 62.1128 611 52.4478 611C52.5 599 52.4477 604.5 52.4477 597.5C52.4477 597.165 52.427 596.831 52.4477 596.5V595V584.613V584V474.474C51.8058 469.593 51.8404 464.281 52.6408 458.5C57.1408 426 124.641 387.456 179.141 387.456C229.988 387.456 312.131 440.861 314.585 474H314.641V584Z" fill="#BBABF7"/>
<path d="M215.641 395C213.141 402 204.933 412.5 188.641 412.5C172.348 412.5 158.142 399 152.141 392C182.64 379 166.347 379 182.64 379C198.932 379 182.64 379 215.641 395Z" fill="#EEEAFC"/>
<rect x="163.141" y="351" width="39" height="45" fill="#EEEAFC"/>
<path fill-rule="evenodd" clip-rule="evenodd" d="M255.408 313.907C259.542 310.166 263.158 303.043 265.641 289.5C265.641 267 247.082 262.5 237.141 262.5C227.2 262.5 224.641 276.5 228.141 290.5C229.199 294.734 229.568 298.446 229.799 301.677C224.075 309.497 219.141 320.839 219.141 326C219.141 334.284 219.141 342.5 233.141 340C238.555 339.033 246.823 335 252.141 326C253.958 322.925 255.233 318.509 255.408 313.907ZM142.052 298.28C142.111 297.694 142.141 297.1 142.141 296.5C142.141 286.283 133.41 278 122.641 278C111.871 278 103.141 286.283 103.141 296.5C103.141 303.736 107.52 310.002 113.901 313.042C113.73 314.006 113.641 314.994 113.641 316C113.641 326.493 126.141 338.5 141.141 336.5C152.463 336.5 155.141 326.493 155.141 316C155.141 307.929 149.711 301.033 142.052 298.28Z" fill="#D6CCFB"/>
<path d="M230.641 315C225.606 347.5 202.671 372 187.141 372C159.141 372 140.141 340.5 137.641 312C137.641 277.206 153.661 251 185.141 251C216.621 251 236.141 279.5 230.641 315Z" fill="#EEEAFC"/>
<path fill-rule="evenodd" clip-rule="evenodd" d="M205.126 263.028C205.259 262.948 205.391 262.867 205.521 262.786C207.501 263.017 209.699 263.251 212.141 263.5C213.444 263.385 214.775 263.349 216.116 263.37C222.522 269.988 226.131 278.149 230.121 287.5C237.301 287.5 243.121 273.127 243.121 266.5C243.121 265.369 242.951 264.275 242.635 263.237C245.193 261.131 245.896 256.851 243.641 248.699C241.641 237.5 230.448 228.199 216.641 228.199C209.261 227.245 201.127 229.248 195.022 232.575C190.955 227.337 184.028 224 174.141 224C158.44 224 147.004 234.299 145.348 245.663C143.327 245.541 140.946 245.64 138.141 246C124.641 246 111.141 260.059 111.141 270C111.141 279.941 122.438 290 135.141 290C152.001 288.073 155.402 280.577 156.523 265.276C157.132 265.61 157.761 265.924 158.41 266.217C163.363 269.114 171.12 271 178.641 271C189.89 270.598 201.14 267.518 205.126 263.028Z" fill="#D6CDFB"/>
<path d="M180.641 307C180.641 310.314 179.574 313 177.641 313C175.708 313 172.141 310.314 172.141 307C172.141 303.686 173.708 299.5 175.641 299.5C178.641 299.5 180.641 303.686 180.641 307Z" fill="#7755F1"/>
<path d="M180.641 307C180.641 310.314 179.574 313 177.641 313C175.708 313 172.141 310.314 172.141 307C172.141 303.686 173.708 299.5 175.641 299.5C178.641 299.5 180.641 303.686 180.641 307Z" fill="#7755F1"/>
<path d="M178.141 278.711C178.141 280.368 173.141 283.767 169.141 284.211C164.641 284.711 162.641 285.211 162.141 283.211C162.141 281.211 166.141 277.774 170.641 277.211C174.641 276.711 178.141 277.055 178.141 278.711Z" fill="#7755F1"/>
<path d="M209.151 289.077C208.651 290.077 205.151 290.577 202.151 290.077C195.651 287.577 197.151 284.577 197.651 283.577C199.151 282.577 200.651 283.077 204.151 283.577C207.651 284.577 209.151 288.077 209.151 289.077Z" fill="#7755F1"/>
<path d="M190.641 308C190.782 315.887 189.307 323.523 191.641 330C185.533 330.913 188.969 328.167 186.141 330" stroke="#7755F1" stroke-width="3" stroke-linecap="round" stroke-linejoin="round"/>
<path d="M187.441 344.062C191.512 350.296 175.982 343.279 187.441 344.062Z" stroke="#7755F1" stroke-width="3" stroke-linecap="round" stroke-linejoin="round"/>
<ellipse cx="218.141" cy="261" rx="13" ry="10" fill="#D6CDFB"/>
<path d="M158.141 359.5C175.641 377 186.641 380.5 208.641 361" stroke="#7655F1" stroke-linecap="round"/>
<circle cx="186.141" cy="307" r="10" fill="#BBABF7"/>
<path d="M169.141 297C175.731 299.929 179.569 300.935 186.88 300.607C193.93 300.98 197.317 299.748 203.141 297L202.155 318C197.142 315.491 193.899 314.488 186.88 313.835C179.459 313.916 175.612 314.939 169.141 318V297Z" fill="#BBABF7"/>
<path d="M167.641 333.5C162.641 345.5 159.641 356.5 132.641 365.5C122.641 368.5 103.141 372 104.641 321C104.641 307.193 129.334 285 143.141 285C156.948 285 167.641 319.693 167.641 333.5Z" fill="#EEEAFC"/>
<path d="M203.141 332.5C208.141 344.5 211.141 355.5 238.141 364.5C248.141 367.5 267.641 371 266.141 320C266.141 306.193 241.448 284 227.641 284C213.834 284 203.141 318.693 203.141 332.5Z" fill="#EEEAFC"/>
<path d="M152.141 357C162.641 348.5 166.141 338.5 168.641 332" stroke="#7452F1" stroke-linecap="round"/>
<path d="M221.641 358C211.141 349.5 207.641 339.5 205.141 333" stroke="#7452F1" stroke-linecap="round"/>
<circle cx="149.641" cy="312.5" r="27.5" fill="#BBABF7"/>
<circle cx="149.641" cy="312.5" r="22.5" fill="#7452F1"/>
<circle cx="149.478" cy="323.613" r="2.5" transform="rotate(31.9409 149.478 323.613)" fill="#EEEAFC"/>
<circle cx="222.641" cy="312.5" r="27.5" fill="#BBABF7"/>
<circle cx="222.641" cy="312.5" r="22.5" fill="#7452F1"/>
<circle cx="222.086" cy="323.652" r="2.5" transform="rotate(151.859 222.086 323.652)" fill="#EEEAFC"/>
<path d="M147.089 300.037C153.036 295.591 157.455 300.384 156.387 303.795C155.776 306.472 148.763 309.234 149.524 314.804" stroke="#EEEAFC" stroke-width="3" stroke-linecap="round"/>
<path d="M220.123 300.027C226.086 295.603 230.488 300.412 229.408 303.819C228.787 306.494 221.764 309.231 222.505 314.803" stroke="#EEEAFC" stroke-width="3" stroke-linecap="round"/>
<path d="M296 443C297.946 447.175 300.135 451.351 305 460" stroke="#EEEAFC" stroke-linecap="round"/>
<path d="M86 418C82.3134 422.522 70.6866 438.174 67 442" stroke="#EEEAFC" stroke-linecap="round"/>
<defs>
<clipPath id="clip0_524_333">
<rect width="64" height="64" fill="white" transform="translate(95.1409 67.6241) rotate(-7.74422)"/>
</clipPath>
</defs>
</svg>
