<svg width="304" height="635" viewBox="0 0 304 635" fill="none" xmlns="http://www.w3.org/2000/svg">
<path d="M299.557 634.5C243.057 634.5 238.057 634.5 155.057 634.5C83.5567 634.5 59.0567 634.5 1.5567 634.5C1.5567 585.347 -26.4433 419.5 155.057 410C339.057 437 299.557 585.5 299.557 634.5Z" fill="#BBABF7"/>
<path d="M39.1408 595H270.141V634H39.1408V595Z" fill="#BBABF7"/>
<path d="M286.641 607H286.141V617H286.132C286.138 617.166 286.141 617.333 286.141 617.5C285.641 626.5 279.141 634.5 269.141 633C258.641 630 254.641 627 252.641 617.5C252.641 613.449 254.171 609.761 256.808 607H53.3741C56.9156 609.836 59.1408 613.938 59.1408 618.5C59.1408 627.061 51.3058 634 41.6408 634C31.1408 631 27.1408 628.5 25.1408 619C25.1408 618.665 25.1513 618.331 25.172 618H25.1408V607H24.4477V497.474C23.8058 492.593 23.8404 487.281 24.6408 481.5C29.1408 449 96.6408 410.456 151.141 410.456C201.988 410.456 284.131 463.861 286.585 497H286.641V607Z" fill="#BBABF7"/>
<path d="M187.641 418C185.141 425 176.933 435.5 160.641 435.5C144.348 435.5 130.142 422 124.141 415C154.64 402 138.347 402 154.64 402C170.932 402 154.64 402 187.641 418Z" fill="#EEEAFC"/>
<rect x="135.141" y="374" width="39" height="45" fill="#EEEAFC"/>
<path fill-rule="evenodd" clip-rule="evenodd" d="M223.158 307.043C225.56 302.012 226.195 294.048 223.341 280.579C214.784 259.769 195.908 262.665 186.714 266.446C177.52 270.226 180.478 284.148 189.039 295.765C191.628 299.278 193.38 302.571 194.822 305.471C192.503 314.88 192.253 327.247 194.215 332.02C197.366 339.682 200.49 347.28 212.488 339.644C217.127 336.691 223.24 329.817 224.736 319.47C225.247 315.936 224.747 311.366 223.158 307.043ZM112.376 335.699C112.208 335.135 112.01 334.574 111.782 334.019C107.896 324.569 96.6721 320.229 86.7117 324.325C76.7513 328.42 71.8266 339.401 75.7122 348.851C78.464 355.543 84.8967 359.673 91.9545 360.058C92.163 361.014 92.4564 361.962 92.839 362.892C96.8296 372.597 112.956 378.948 126.069 371.394C136.54 367.088 135.212 356.815 131.221 347.11C128.152 339.645 120.507 335.333 112.376 335.699Z" fill="#D6CCFB"/>
<path fill-rule="evenodd" clip-rule="evenodd" d="M186.71 384.843C201.073 378.937 213.9 349.653 200.668 317.473C192.254 282.549 163.363 263.613 134.248 275.585C111.254 285.04 103.141 303.689 107.264 326.964C100.791 331.342 98.6744 341.585 101.902 349.435C105.05 357.092 112.825 361.352 120.223 359.948C135.682 383.411 161.968 395.016 186.71 384.843Z" fill="#EEEAFC"/>
<path fill-rule="evenodd" clip-rule="evenodd" d="M157.305 279.109C157.399 278.984 157.49 278.86 157.579 278.735C159.497 278.196 161.62 277.576 163.973 276.878C165.135 276.276 166.351 275.737 167.6 275.246C176.042 278.931 182.483 285.106 189.729 292.237C196.369 289.507 196.286 274.001 193.766 267.871C193.336 266.825 192.763 265.877 192.076 265.039C193.641 262.117 192.664 257.892 187.478 251.21C181.369 241.613 167.48 237.268 154.71 242.518C147.522 244.442 140.761 249.388 136.379 254.786C130.627 251.489 122.951 251.037 113.806 254.797C99.285 260.768 92.6249 274.642 95.415 285.782C93.4995 286.437 91.3353 287.435 88.8776 288.834C76.3919 293.968 69.2527 312.105 73.0333 321.299C76.8138 330.493 91.0878 335.5 102.836 330.669C117.696 322.476 117.991 314.249 113.209 299.672C113.899 299.749 114.601 299.8 115.312 299.825C120.995 300.62 128.887 299.414 135.842 296.554C146.093 291.905 155.326 284.778 157.305 279.109Z" fill="#D6CDFB"/>
<path d="M147.138 331.915C148.399 334.98 148.433 337.87 146.646 338.605C144.858 339.34 140.537 338.212 139.277 335.148C138.017 332.083 137.874 327.615 139.662 326.88C142.436 325.739 145.878 328.85 147.138 331.915Z" fill="#7755F1"/>
<path d="M147.138 331.915C148.399 334.98 148.433 337.87 146.646 338.605C144.858 339.34 140.537 338.212 139.277 335.148C138.017 332.083 137.874 327.615 139.662 326.88C142.436 325.739 145.878 328.85 147.138 331.915Z" fill="#7755F1"/>
<path d="M178.774 319.448C180.034 322.512 182.042 324.591 183.83 323.856C185.618 323.121 187.895 319.28 186.635 316.215C185.375 313.15 182.334 309.875 180.546 310.61C177.771 311.751 177.514 316.383 178.774 319.448Z" fill="#7755F1"/>
<path d="M141.603 306.62C142.233 308.152 138.901 313.197 135.371 315.129C131.399 317.303 129.739 318.526 128.516 316.866C127.756 315.017 130.148 310.316 134.096 308.085C137.605 306.101 140.973 305.087 141.603 306.62Z" fill="#7755F1"/>
<path d="M177.806 296.058C177.724 297.173 174.677 298.967 171.713 299.645C164.75 299.805 164.997 296.46 165.079 295.345C166.086 293.85 167.663 293.742 171.09 292.873C174.708 292.467 177.426 295.133 177.806 296.058Z" fill="#7755F1"/>
<path d="M167.783 325.589C170.914 332.829 172.972 336.454 177.594 341.558C172.292 344.725 170.207 346.397 168.289 349.168" stroke="#7755F1" stroke-width="3" stroke-linecap="round" stroke-linejoin="round"/>
<path d="M160.125 359.553C163.944 362.178 166.995 362.148 173.777 359.886" stroke="#7755F1" stroke-width="3" stroke-linecap="round" stroke-linejoin="round"/>
<path d="M161.936 325.831C167.516 339.401 161.836 354.524 149.355 359.657C136.873 364.789 122.198 358.035 116.618 344.465C111.038 330.895 116.718 315.771 129.199 310.639C141.681 305.507 156.356 312.26 161.936 325.831Z" fill="#BBABF7" fill-opacity="0.1" stroke="#7D5EF1"/>
<path d="M215.198 302.849C220.778 316.419 215.098 331.543 202.617 336.675C190.135 341.807 175.46 335.053 169.88 321.483C164.3 307.913 169.98 292.789 182.461 287.657C194.943 282.525 209.618 289.279 215.198 302.849Z" fill="#BBABF7" fill-opacity="0.1" stroke="#7D5EF1"/>
<path d="M164.244 334.072C167.888 328.899 170.272 328.316 174.88 329.699M104.223 330.099L114.392 335.108" stroke="#7755F1" stroke-linecap="round" stroke-linejoin="round"/>
<ellipse cx="168.571" cy="272.284" rx="13" ry="10" transform="rotate(-22.3519 168.571 272.284)" fill="#D6CDFB"/>
<path d="M132.141 374.5C146.526 386.602 163.496 389.678 175.141 388.613" stroke="#7655F1" stroke-linecap="round"/>
<path fill-rule="evenodd" clip-rule="evenodd" d="M169.374 406.394C172.996 402.973 179.801 398.68 182.978 396.677L182.979 396.676C183.263 396.497 183.518 396.336 183.739 396.196C188.161 392.254 191.626 387.551 194.4 383.787C198.25 378.561 200.768 375.145 202.66 378.084C205.378 382.306 202.298 396.685 189.947 408.463C192.276 408.693 194.186 409.55 195.016 410.537C196.101 411.828 196.911 415.207 196.296 418.66C197.368 419.048 198.207 419.574 198.686 420.144C200.033 421.746 200.955 426.566 199.255 430.752C197.8 434.899 192.856 440.421 182.072 448.76C164.272 462.523 154.753 454.327 145.073 442.818C142.602 439.88 141.749 436.79 142.062 433.712C141.504 423.458 150.719 393.474 152.997 391.559C155.356 389.574 158.795 388.912 160.81 393.909C161.606 394.855 161.425 398.622 161.179 403.754C161.054 406.361 160.913 409.32 160.873 412.441C161.701 411.98 162.527 411.546 163.342 411.144C165.702 409.16 167.659 407.564 169.374 406.394Z" fill="#EEEAFC"/>
<path d="M142 430C141.738 429.159 148.437 389.819 156.5 390C164.563 390.181 160.162 412.691 161 412C166.738 408.138 169.187 405.922 174 402" stroke="#BBABF7" stroke-linecap="round"/>
<path opacity="0.3" d="M203.456 100.297L252.157 89.471L251.359 95.762L202.591 107.113L203.456 100.297Z" fill="#BBABF7"/>
<path d="M242.799 145.466C242.392 148.672 240.633 151.235 238.435 152.247C237.608 152.634 236.728 152.789 235.82 152.673C234.913 152.558 234.099 152.189 233.395 151.608C231.519 150.079 230.456 147.158 230.862 143.952C231.42 139.556 234.535 136.325 237.841 136.744C241.148 137.164 243.357 141.07 242.799 145.466Z" fill="#BBABF7"/>
<path d="M254.453 87.2013L208.487 65.491C208.124 65.2811 207.681 65.2248 207.277 65.3375L157.345 74.8808C156.695 75.0031 156.197 75.5341 156.115 76.1794L155.046 84.6077C154.967 85.2328 155.298 85.8485 155.855 86.1445L174.936 96.1051L172.334 116.611C172.288 116.974 172.366 117.332 172.572 117.645C172.657 117.779 174.839 121.088 179.217 124.696C183.242 128.014 189.985 132.189 199.238 133.383L199.298 133.391C208.536 134.542 216.108 132.184 220.834 129.977C225.972 127.596 228.911 124.937 229.03 124.809C229.307 124.557 229.472 124.23 229.518 123.867L232.12 103.36L240.796 101.347L236.332 136.532C236.227 137.359 236.825 138.131 237.652 138.236C238.479 138.341 239.251 137.743 239.356 136.916L243.964 100.601L253.084 98.4804C253.696 98.3328 254.171 97.8194 254.251 97.1943L255.32 88.7659C255.402 88.1207 255.053 87.4822 254.453 87.2013ZM226.568 122.898C225.631 123.66 223.139 125.536 219.46 127.241C215.128 129.253 208.176 131.403 199.685 130.346L199.624 130.338C191.135 129.261 184.943 125.423 181.23 122.391C178.074 119.819 176.129 117.38 175.433 116.41L177.817 97.618L180.814 99.1865L201.452 109.959C201.658 110.108 201.91 110.222 202.172 110.255C202.192 110.258 202.192 110.258 202.213 110.261C202.233 110.263 202.253 110.266 202.253 110.266C202.495 110.296 202.765 110.269 203.025 110.159L228.972 104.108L226.588 122.901L226.568 122.898ZM251.359 95.7621L242.766 97.7655L206.305 79.6174C205.555 79.2353 204.634 79.5488 204.252 80.2993C203.87 81.0499 204.183 81.9706 204.934 82.3527L238.08 98.851L230.355 100.637L202.591 107.113L177.284 93.9035L158.204 83.943L158.999 77.6721L207.501 68.4186L252.155 89.4912L251.359 95.7621Z" fill="#BBABF7"/>
<path d="M239.962 167.828L228.046 166.316L233.415 151.61C234.12 152.191 234.933 152.561 235.841 152.676C236.748 152.791 237.628 152.636 238.456 152.25L239.962 167.828Z" fill="#BBABF7"/>
<path opacity="0.3" d="M159.002 77.6519L203.456 100.297L202.592 107.113L158.204 83.9429L159.002 77.6519Z" fill="#BBABF7"/>
<path opacity="0.3" d="M227.448 115.962L206.12 122.742C202.47 123.897 198.47 123.451 195.176 121.476L176.206 110.157L177.794 97.6356L202.132 110.25L228.929 104.123L227.428 115.959L227.448 115.962Z" fill="#BBABF7"/>
<path d="M145.049 159.766L154.454 199.752L122.871 207.181C123.289 205.629 124.757 204.261 126.74 203.795L148.119 198.766C149.784 198.374 150.84 196.752 150.459 195.131L142.293 160.414L145.049 159.766Z" fill="#7452F1"/>
<path d="M137.997 155.737L147.403 195.723L126.04 200.748C124.223 201.175 122.685 202.112 121.567 203.334L112.731 165.77C112.229 163.635 113.973 161.404 116.638 160.777L137.997 155.737ZM135.483 164.205C135.287 163.372 134.446 162.851 133.613 163.047L119.003 166.484C118.17 166.68 117.649 167.521 117.845 168.354C118.041 169.187 118.882 169.708 119.715 169.512L134.325 166.075C135.158 165.879 135.683 165.053 135.483 164.205ZM137.449 172.563C137.253 171.73 136.412 171.209 135.579 171.405L120.968 174.842C120.136 175.037 119.615 175.879 119.811 176.712C120.006 177.544 120.848 178.065 121.681 177.87L136.291 174.433C137.124 174.237 137.645 173.395 137.449 172.563ZM139.415 180.92C139.219 180.088 138.378 179.566 137.545 179.762L122.934 183.199C122.102 183.395 121.581 184.237 121.776 185.069C121.972 185.902 122.814 186.423 123.647 186.227L138.257 182.79C139.09 182.595 139.611 181.753 139.415 180.92ZM141.381 189.278C141.185 188.445 140.344 187.924 139.511 188.12L124.9 191.557C124.067 191.752 123.546 192.594 123.742 193.427C123.938 194.26 124.78 194.781 125.612 194.585L140.223 191.148C141.056 190.952 141.577 190.111 141.381 189.278ZM109.703 166.482L118.542 204.061C116.996 203.466 115.202 203.313 113.386 203.74L92.0224 208.765L82.6133 168.764L103.992 163.735C106.641 163.112 109.201 164.348 109.703 166.482ZM106.277 171.075C106.081 170.242 105.24 169.721 104.407 169.917L89.7966 173.354C88.9638 173.55 88.4428 174.391 88.6387 175.224C88.8345 176.057 89.6761 176.578 90.5088 176.382L105.119 172.945C105.952 172.749 106.477 171.923 106.277 171.075ZM108.243 179.433C108.047 178.6 107.206 178.079 106.373 178.275L91.7624 181.711C90.9297 181.907 90.4086 182.749 90.6045 183.582C90.8004 184.414 91.642 184.935 92.4747 184.739L107.085 181.303C107.918 181.107 108.439 180.265 108.243 179.433ZM110.209 187.79C110.013 186.957 109.172 186.436 108.339 186.632L93.7283 190.069C92.8956 190.265 92.3745 191.106 92.5704 191.939C92.7663 192.772 93.6079 193.293 94.4406 193.097L109.051 189.66C109.884 189.464 110.405 188.623 110.209 187.79ZM112.175 196.148C111.979 195.315 111.137 194.794 110.305 194.99L95.6942 198.426C94.8615 198.622 94.3404 199.464 94.5363 200.297C94.7321 201.129 95.5737 201.65 96.4065 201.455L111.017 198.018C111.85 197.822 112.371 196.98 112.175 196.148Z" fill="#7452F1"/>
<path d="M119.086 208.072L87.503 215.501L78.0974 175.514L80.853 174.866L89.0192 209.583C89.3967 211.188 91.0692 212.185 92.7346 211.793L114.113 206.765C114.976 206.562 115.836 206.551 116.611 206.72C118.135 207.017 119.026 208.022 119.086 208.072Z" fill="#7452F1"/>
<path d="M148.063 158.993L157.497 199.1C157.881 200.736 156.862 202.381 155.227 202.766L88.1547 218.543C86.5195 218.928 84.8738 217.909 84.4891 216.273L75.0551 176.166C74.6705 174.531 75.6894 172.885 77.3246 172.501L80.1407 171.838L79.5638 169.385C79.1863 167.781 80.2391 166.143 81.9046 165.751L103.283 160.722C105.872 160.113 108.437 160.693 110.278 162.065C111.298 160.019 113.336 158.358 115.94 157.745L137.319 152.716C138.984 152.325 140.657 153.321 141.034 154.926L141.611 157.379L144.427 156.717C146.032 156.339 147.678 157.358 148.063 158.993ZM154.454 199.752L145.049 159.766L142.293 160.414L150.459 195.131C150.837 196.736 149.784 198.374 148.119 198.766L126.755 203.791C124.772 204.257 123.289 205.629 122.886 207.178L154.454 199.752ZM147.406 195.738L137.997 155.737L116.634 160.762C113.984 161.385 112.229 163.635 112.727 165.755L121.567 203.334C122.685 202.112 124.223 201.175 126.04 200.748L147.403 195.723L147.406 195.738ZM118.542 204.061L109.703 166.482C109.201 164.348 106.645 163.127 103.98 163.754L82.6168 168.779L92.0224 208.765L113.401 203.737C115.202 203.313 116.996 203.466 118.542 204.061ZM87.503 215.501L119.086 208.072C119.038 208.003 118.135 207.017 116.608 206.705C115.836 206.551 114.972 206.547 114.109 206.75L92.7311 211.778C91.0656 212.17 89.3967 211.188 89.0156 209.568L80.853 174.866L78.0974 175.514L87.503 215.501ZM128.623 137.01C129.352 137.462 129.58 138.431 129.11 139.148L120.914 152.261C120.447 152.994 119.508 153.215 118.776 152.748C118.046 152.297 117.822 151.343 118.289 150.61L126.485 137.497C126.94 136.783 127.894 136.559 128.623 137.01Z" fill="#BBABF7"/>
<path d="M133.613 163.047C134.446 162.851 135.287 163.372 135.483 164.205C135.679 165.038 135.158 165.879 134.325 166.075L119.715 169.512C118.882 169.708 118.04 169.187 117.845 168.354C117.649 167.521 118.17 166.68 119.002 166.484L133.613 163.047ZM135.579 171.405C136.412 171.209 137.253 171.73 137.449 172.563C137.645 173.395 137.124 174.237 136.291 174.433L121.681 177.87C120.848 178.065 120.006 177.544 119.81 176.712C119.615 175.879 120.136 175.037 120.968 174.841L135.579 171.405ZM137.545 179.762C138.377 179.566 139.219 180.088 139.415 180.92C139.611 181.753 139.09 182.595 138.257 182.79L123.646 186.227C122.814 186.423 121.972 185.902 121.776 185.069C121.58 184.237 122.101 183.395 122.934 183.199L137.545 179.762ZM139.511 188.12C140.343 187.924 141.185 188.445 141.381 189.278C141.577 190.111 141.056 190.952 140.223 191.148L125.612 194.585C124.78 194.781 123.938 194.26 123.742 193.427C123.546 192.594 124.067 191.752 124.9 191.557L139.511 188.12ZM106.374 138.744L109.896 153.718C110.092 154.551 109.571 155.393 108.738 155.588C107.905 155.784 107.064 155.263 106.868 154.431L103.346 139.457C103.15 138.624 103.671 137.782 104.504 137.586C105.336 137.391 106.178 137.912 106.374 138.744ZM104.407 169.917C105.24 169.721 106.081 170.242 106.277 171.075C106.473 171.908 105.952 172.749 105.119 172.945L90.5087 176.382C89.676 176.578 88.8344 176.057 88.6385 175.224C88.4426 174.391 88.9637 173.55 89.7964 173.354L104.407 169.917ZM106.373 178.275C107.206 178.079 108.047 178.6 108.243 179.433C108.439 180.265 107.918 181.107 107.085 181.303L92.4746 184.739C91.6418 184.935 90.8003 184.414 90.6044 183.582C90.4085 182.749 90.9296 181.907 91.7623 181.711L106.373 178.275ZM108.339 186.632C109.171 186.436 110.013 186.957 110.209 187.79C110.405 188.623 109.884 189.464 109.051 189.66L94.4404 193.097C93.6077 193.293 92.7661 192.772 92.5702 191.939C92.3744 191.106 92.8954 190.265 93.7282 190.069L108.339 186.632ZM110.305 194.99C111.137 194.794 111.979 195.315 112.175 196.148C112.371 196.98 111.85 197.822 111.017 198.018L96.4063 201.455C95.5736 201.65 94.732 201.129 94.5361 200.297C94.3402 199.464 94.8613 198.622 95.694 198.426L110.305 194.99ZM97.9698 155.389C98.6992 155.841 98.9387 156.791 98.4871 157.52C98.0391 158.265 97.0817 158.474 96.3559 158.038L83.1737 149.954C82.4444 149.502 82.22 148.548 82.6564 147.822C83.0929 147.097 84.0583 146.854 84.7877 147.305L97.9698 155.389Z" fill="#BBABF7"/>
<path d="M123.317 59.3659C122.02 59.9648 120.656 60.4056 119.254 60.6788C114.004 61.6965 111.081 60.3842 109.663 59.3163C106.925 61.3296 99.2624 66.0059 92.788 60.8325C91.2854 59.7911 90.1836 58.2676 89.6652 56.5143C89.1469 54.7611 89.2431 52.8833 89.938 51.1923C90.9625 48.6087 92.9622 46.5318 95.5052 45.4102C95.5421 43.1544 96.4046 40.9905 97.9296 39.3279C99.8798 37.3574 102.792 36.5592 106.585 36.9537C106.957 36.9967 107.297 37.1845 107.531 37.4764C107.765 37.7684 107.875 38.1409 107.836 38.5132C107.798 38.8856 107.614 39.2277 107.325 39.4654C107.036 39.7031 106.664 39.8172 106.292 39.783C103.407 39.4824 101.277 39.9958 99.9658 41.3151C99.375 42.021 98.9291 42.8365 98.6537 43.7148C98.3783 44.5932 98.2786 45.5172 98.3605 46.4341C98.3838 46.6427 98.3607 46.8539 98.2927 47.0525C98.2248 47.251 98.1137 47.4321 97.9675 47.5827C97.8213 47.7333 97.6435 47.8497 97.447 47.9235C97.2505 47.9973 97.0402 48.0266 96.831 48.0095C96.12 47.9528 93.6376 49.5755 92.5825 52.2415C92.1042 53.3654 92.0408 54.6227 92.4036 55.7891C92.7664 56.9554 93.5318 57.9548 94.5633 58.6091C100.569 63.4087 108.73 56.4363 108.814 56.3663C108.968 56.2326 109.148 56.1335 109.344 56.0756C109.539 56.0178 109.744 56.0026 109.946 56.031C110.148 56.0594 110.341 56.1308 110.513 56.2404C110.684 56.3499 110.83 56.4951 110.941 56.666C110.993 56.7331 112.753 59.039 118.712 57.882C123.332 56.9864 126.722 54.0759 127.33 51.7813C127.475 51.2507 127.453 50.6883 127.267 50.1706C127.081 49.6528 126.741 49.2049 126.291 48.8878C126.004 48.6429 125.826 48.2941 125.797 47.918C125.767 47.542 125.888 47.1695 126.133 46.8825C126.377 46.5956 126.726 46.4176 127.102 46.3879C127.478 46.3581 127.851 46.479 128.138 46.7239C128.997 47.3873 129.641 48.2907 129.986 49.3199C130.332 50.349 130.365 51.4576 130.081 52.5055C129.365 55.2137 126.745 57.781 123.317 59.3659V59.3659Z" fill="#BBABF7"/>
<path d="M90.4266 60.1584C87.5634 61.5484 84.3311 61.9873 81.201 61.4111C77.2598 60.5806 73.9157 57.9101 71.2614 53.4712C66.8656 46.1237 71.332 39.8149 74.843 37.0177C74.5304 34.7286 74.3438 28.9166 79.6557 25.4763C82.8204 23.3797 86.4833 22.1573 90.2729 21.9331C90.9794 19.2183 93.4612 15.3237 99.5631 14.1443C105.543 12.9854 108.641 14.193 110.073 15.1842C112.906 13.4494 121.314 9.43282 128.692 17.0043C133.565 22.0048 131.725 25.7376 130.703 27.1141C128.081 30.6537 122.075 31.7463 118.999 30.1556C113.668 27.4054 114.547 23.3728 114.588 23.2023C114.627 23.0167 114.702 22.8409 114.811 22.6851C114.919 22.5293 115.057 22.3966 115.217 22.295C115.377 22.1933 115.556 22.1247 115.743 22.0931C115.93 22.0616 116.121 22.0677 116.305 22.1112C116.49 22.1547 116.664 22.2346 116.817 22.3463C116.97 22.458 117.1 22.5992 117.198 22.7617C117.295 22.9241 117.36 23.1044 117.387 23.2921C117.414 23.4797 117.403 23.6709 117.356 23.8544C117.349 23.9045 117.024 25.9367 120.303 27.6283C122.263 28.6414 126.716 27.7153 128.418 25.4209C130.023 23.2541 128.341 20.7285 126.65 18.9924C119.451 11.6045 111.165 17.8305 110.818 18.0961C110.666 18.2136 110.492 18.2991 110.306 18.3475C110.12 18.3959 109.926 18.4061 109.736 18.3775C109.546 18.3489 109.364 18.2822 109.2 18.1812C109.037 18.0803 108.896 17.9473 108.785 17.7903C108.785 17.7903 106.863 15.6297 100.088 16.9432C93.3131 18.2567 92.8928 23.2477 92.8757 23.4546C92.8628 23.6435 92.8125 23.8279 92.7278 23.9972C92.6432 24.1665 92.5257 24.3174 92.3823 24.441C92.2389 24.5645 92.0724 24.6585 91.8924 24.7172C91.7125 24.776 91.5226 24.7985 91.3339 24.7834C87.7179 24.7728 84.1821 25.8483 81.1843 27.8705C76.3217 31.0217 77.7018 37.0527 77.7615 37.3072C77.8299 37.5879 77.8111 37.8828 77.7077 38.1526C77.6043 38.4224 77.4212 38.6543 77.1828 38.8175C76.8564 39.0436 69.1731 44.4753 73.6864 52.0192C75.9275 55.7372 78.6418 57.9609 81.7658 58.627C84.9615 59.1229 88.2275 58.4161 90.9322 56.6433C91.2405 56.4255 91.6226 56.3391 91.9946 56.4031C92.3665 56.4671 92.6978 56.6762 92.9156 56.9845C93.1333 57.2927 93.2197 57.6748 93.1557 58.0468C93.0918 58.4187 92.8826 58.75 92.5744 58.9678C91.8929 59.4239 91.1745 59.8222 90.4266 60.1584V60.1584Z" fill="#BBABF7"/>
<path d="M139.911 43.1428L139.884 43.1553C139.538 43.3061 139.147 43.3135 138.796 43.1758C138.445 43.0381 138.163 42.7666 138.012 42.4211C137.933 42.2505 137.89 42.0658 137.884 41.8781C137.879 41.6903 137.912 41.5034 137.98 41.3286C138.049 41.1537 138.152 40.9945 138.284 40.8606C138.415 40.7266 138.573 40.6206 138.746 40.549C138.862 40.4953 142.123 38.82 140.479 31.9001C138.768 24.6995 130.405 24.0363 130.32 24.0318C130.134 24.0189 129.952 23.9695 129.784 23.8862C129.617 23.803 129.468 23.6876 129.345 23.5467C129.222 23.4057 129.129 23.242 129.069 23.0649C129.01 22.8877 128.986 22.7006 128.999 22.5141C129.011 22.3277 129.061 22.1456 129.144 21.9783C129.227 21.811 129.343 21.6617 129.484 21.539C129.625 21.4163 129.788 21.3225 129.965 21.2631C130.143 21.2037 130.33 21.1797 130.516 21.1926C134.152 21.4435 141.491 23.865 143.246 31.2426C145.414 40.3586 140.384 42.9243 139.911 43.1428V43.1428Z" fill="#BBABF7"/>
<path d="M136.147 54.6571C133.313 55.8011 130.257 56.2906 127.208 56.089C126.832 56.0593 126.483 55.8814 126.238 55.5944C125.993 55.3075 125.872 54.9349 125.902 54.5588C125.931 54.1826 126.109 53.8337 126.396 53.5887C126.683 53.3438 127.056 53.2228 127.432 53.2526C127.495 53.2577 133.878 53.7192 136.837 50.8217C137.373 50.2805 137.782 49.6257 138.032 48.9056C138.282 48.1856 138.367 47.4185 138.28 46.6612C138.293 45.1531 137.933 43.6652 137.233 42.3291C136.533 40.9931 135.515 39.8502 134.268 39.0015C132.813 38.1684 131.182 37.6913 129.508 37.6091C127.833 37.5269 126.163 37.842 124.633 38.5286C124.283 38.6698 123.891 38.6661 123.543 38.5182C123.196 38.3704 122.921 38.0905 122.78 37.7402C122.639 37.3899 122.643 36.9979 122.791 36.6503C122.938 36.3028 123.218 36.0282 123.569 35.887C125.518 35.0313 127.642 34.6498 129.766 34.7736C131.891 34.8974 133.957 35.5231 135.793 36.5993C137.418 37.6937 138.753 39.1677 139.68 40.8938C140.607 42.6199 141.1 44.546 141.115 46.5053C141.227 47.6692 141.078 48.8434 140.68 49.9428C140.281 51.0422 139.644 52.0392 138.813 52.8618C138.032 53.6072 137.131 54.2144 136.147 54.6571V54.6571ZM100.245 32.2604C99.9332 32.4052 99.5799 32.4324 99.2499 32.3369C98.92 32.2414 98.6357 32.0298 98.4496 31.741C98.2636 31.4523 98.1883 31.1059 98.2377 30.766C98.2871 30.4261 98.4579 30.1155 98.7185 29.8917C99.1018 29.6142 99.4103 29.2461 99.6165 28.8201C99.8226 28.3942 99.9199 27.9238 99.8996 27.451C99.7767 26.8045 99.5074 26.1947 99.1122 25.6685C98.717 25.1422 98.2065 24.7135 97.6199 24.4153C97.2948 24.224 97.0589 23.9114 96.9643 23.5462C96.8696 23.1811 96.9239 22.7933 97.1152 22.4681C97.3065 22.143 97.6191 21.9072 97.9842 21.8125C98.3494 21.7179 98.7372 21.7722 99.0623 21.9634C100.043 22.485 100.886 23.2305 101.525 24.1395C102.163 25.0485 102.577 26.0952 102.735 27.1945C102.797 28.1171 102.633 29.0409 102.258 29.8859C101.882 30.7309 101.307 31.4717 100.58 32.0441C100.48 32.132 100.366 32.2049 100.245 32.2604V32.2604Z" fill="#BBABF7"/>
<path d="M113.007 34.9633C112.672 35.1185 112.289 35.1372 111.941 35.0154C111.592 34.8936 111.304 34.6408 111.138 34.3106C107.222 26.5189 102.023 28.3839 101.803 28.4669C101.452 28.6022 101.061 28.593 100.717 28.4411C100.373 28.2893 100.103 28.0072 99.9663 27.6567C99.828 27.3088 99.8334 26.9201 99.9814 26.5762C100.129 26.2322 100.408 25.961 100.755 25.822C100.83 25.7873 108.559 22.8293 113.679 33.0352C113.848 33.3722 113.877 33.7625 113.758 34.1203C113.639 34.4782 113.383 34.7742 113.047 34.9435L113.007 34.9633ZM110.8 53.2445C110.566 53.3527 110.306 53.3949 110.049 53.3666C109.792 53.3384 109.548 53.2407 109.343 53.0841C109.137 52.9274 108.978 52.7178 108.883 52.4777C108.788 52.2376 108.759 51.976 108.801 51.7211C108.972 51.107 109.008 50.4632 108.906 49.834C108.805 49.2047 108.568 48.605 108.213 48.0758C107.834 47.7733 107.4 47.5484 106.934 47.4141C106.469 47.2798 105.982 47.2386 105.5 47.293C105.126 47.3433 104.747 47.243 104.447 47.0142C104.147 46.7853 103.95 46.4466 103.9 46.0726C103.85 45.6985 103.95 45.3198 104.179 45.0197C104.408 44.7197 104.746 44.5228 105.12 44.4724C106.042 44.3599 106.977 44.4459 107.863 44.7248C108.749 45.0036 109.565 45.4688 110.256 46.089C110.954 46.9197 111.442 47.9065 111.678 48.9658C111.914 50.025 111.891 51.1255 111.611 52.174C111.574 52.4054 111.481 52.6241 111.34 52.8109C111.198 52.9976 111.013 53.1466 110.8 53.2445V53.2445Z" fill="#BBABF7"/>
<path d="M121.555 48.2712C121.269 48.403 120.948 48.4363 120.641 48.3658C120.334 48.2953 120.059 48.1249 119.86 47.8815C119.399 47.2077 118.793 46.6458 118.087 46.2373C117.38 45.8288 116.591 45.5841 115.777 45.5213C113.023 45.4958 110.674 48.2273 110.651 48.2552C110.531 48.3982 110.383 48.516 110.218 48.6021C110.052 48.6882 109.871 48.7407 109.685 48.7568C109.499 48.7729 109.311 48.7521 109.133 48.6957C108.955 48.6394 108.79 48.5485 108.647 48.4282C108.504 48.308 108.386 48.1608 108.3 47.995C108.214 47.8292 108.161 47.6481 108.145 47.462C108.129 47.2759 108.15 47.0884 108.206 46.9104C108.263 46.7323 108.354 46.567 108.474 46.4241C108.603 46.2689 111.687 42.6536 115.781 42.6755C117.016 42.728 118.224 43.0618 119.311 43.6514C120.398 44.2411 121.337 45.0711 122.055 46.0782C122.193 46.2462 122.291 46.4436 122.341 46.6553C122.39 46.867 122.391 47.0873 122.342 47.2993C122.294 47.5112 122.197 47.7092 122.06 47.878C121.923 48.0468 121.749 48.1819 121.551 48.2729L121.555 48.2712ZM80.7834 52.633C80.6026 52.7168 80.4059 52.7607 80.2067 52.7618C79.8322 52.766 79.4711 52.6222 79.2019 52.3617C78.9327 52.1013 78.7771 51.7452 78.769 51.3707C78.7622 50.4432 78.9578 49.5254 79.342 48.6812C79.7261 47.837 80.2897 47.0867 80.9934 46.4825C82.5542 45.3204 84.7053 45.1704 87.3706 46.0408C87.5484 46.0984 87.713 46.1903 87.8552 46.3115C87.9974 46.4327 88.1144 46.5807 88.1994 46.7471C88.2844 46.9134 88.3358 47.0949 88.3507 47.2811C88.3656 47.4674 88.3436 47.6547 88.2861 47.8325C88.2285 48.0102 88.1366 48.1749 88.0154 48.3171C87.8942 48.4593 87.7462 48.5763 87.5798 48.6613C87.4135 48.7463 87.232 48.7977 87.0457 48.8126C86.8595 48.8274 86.6722 48.8055 86.4944 48.7479C85.8973 48.4766 85.2486 48.3378 84.5928 48.3411C83.937 48.3443 83.2896 48.4896 82.6953 48.7669C82.347 49.0969 82.0708 49.4955 81.8842 49.9375C81.6975 50.3796 81.6044 50.8555 81.6108 51.3353C81.6109 51.608 81.533 51.875 81.3864 52.1049C81.2398 52.3348 81.0306 52.5181 80.7834 52.633V52.633ZM91.9769 37.4014C91.7593 37.5019 91.5198 37.5458 91.2807 37.529C90.3129 37.5281 89.3576 37.3097 88.4855 36.8901C87.6134 36.4705 86.8467 35.8603 86.242 35.1047C85.7309 34.3138 85.3813 33.4295 85.2134 32.5029C85.0456 31.5763 85.0627 30.6257 85.2639 29.7057C85.3596 29.3489 85.5903 29.0433 85.9073 28.8536C86.2243 28.6639 86.6027 28.605 86.9624 28.6893C87.322 28.7736 87.6348 28.9946 87.8344 29.3054C88.0341 29.6162 88.105 29.9925 88.0321 30.3547C87.8087 31.4079 87.9911 32.5066 88.5427 33.4312C88.9112 33.8415 89.3644 34.1669 89.871 34.3847C90.3776 34.6026 90.9254 34.7078 91.4767 34.693C91.7916 34.7151 92.0901 34.8413 92.3254 35.0518C92.5606 35.2623 92.7192 35.5451 92.776 35.8556C92.8329 36.166 92.7849 36.4866 92.6395 36.7668C92.4941 37.047 92.2597 37.2709 91.9731 37.4032L91.9769 37.4014Z" fill="#BBABF7"/>
<path d="M83.163 48.5005L83.1268 48.5172C82.7814 48.6655 82.3913 48.671 82.0419 48.5325C81.6924 48.394 81.412 48.1228 81.2619 47.7781C80.0259 45.0696 79.8803 41.9891 80.8555 39.1761C81.8307 36.3631 83.8517 34.0337 86.499 32.6714C86.8315 32.4917 87.2218 32.4514 87.584 32.5594C87.9462 32.6674 88.2506 32.9149 88.4304 33.2474C88.6101 33.5799 88.6504 33.9701 88.5423 34.3323C88.4343 34.6945 88.1868 34.999 87.8543 35.1787C80.7316 39.0303 83.7423 46.3475 83.8747 46.6577C84.0179 46.9972 84.0237 47.3791 83.891 47.7228C83.7582 48.0666 83.4972 48.3454 83.163 48.5005V48.5005Z" fill="#BBABF7"/>
<path fill-rule="evenodd" clip-rule="evenodd" d="M147.077 436.241C147.279 436.054 147.596 436.066 147.783 436.268C147.971 436.471 147.959 436.787 147.757 436.975C125.786 457.35 100.91 471.726 76.6533 485.744L76.6407 485.752C75.2173 486.574 73.7961 487.396 72.3777 488.217C47.0522 502.881 22.6358 517.515 3.03199 538.619L3.36162 536.806C22.8968 516.185 47.0138 501.748 71.8766 487.351C73.2924 486.532 74.7105 485.712 76.1304 484.892C100.406 470.862 125.191 456.538 147.077 436.241Z" fill="#EEEAFC"/>
<path fill-rule="evenodd" clip-rule="evenodd" d="M160.58 452.728C144.011 478.324 130.787 500.741 119.383 520.406C117.343 523.923 115.361 527.353 113.429 530.696C104.559 546.046 96.7366 559.583 89.1086 571.558C70.5618 600.675 53.2055 620.491 24.8831 634.5H27.1084C54.6134 620.431 71.7474 600.675 89.952 572.095C97.5928 560.1 105.429 546.539 114.3 531.188L114.308 531.173C116.236 527.837 118.213 524.415 120.248 520.907C131.649 501.249 144.863 478.847 161.42 453.272L160.58 452.728Z" fill="#EEEAFC"/>
</svg>
