<svg width="50" height="50" viewBox="0 0 50 50" fill="none" xmlns="http://www.w3.org/2000/svg">
<path d="M44.2559 25.9106C44.5866 25.7269 44.7917 25.3783 44.7917 25C44.7917 24.6217 44.5866 24.2732 44.2559 24.0895L39.501 21.4479C30.1332 16.2436 20.2581 12.0102 10.0296 8.81379L8.64403 8.3808C8.32774 8.28196 7.98329 8.3395 7.71631 8.53579C7.44932 8.73207 7.29166 9.04368 7.29166 9.37505V21.3542C7.29166 21.9082 7.72532 22.3653 8.27857 22.3944L10.382 22.5051C15.5103 22.7751 20.6074 23.4706 25.6206 24.5847L26.117 24.695C26.2275 24.7195 26.2754 24.7647 26.302 24.8006C26.3355 24.8458 26.3618 24.9154 26.3618 25.0001C26.3618 25.0847 26.3355 25.1543 26.302 25.1996C26.2754 25.2354 26.2275 25.2806 26.117 25.3051L25.6206 25.4154C20.6074 26.5295 15.5103 27.225 10.3819 27.495L8.27857 27.6057C7.72532 27.6348 7.29166 28.0919 7.29166 28.6459V40.6251C7.29166 40.9564 7.44932 41.268 7.71631 41.4643C7.98329 41.6606 8.32773 41.7181 8.64402 41.6193L10.0296 41.1863C20.2581 37.9899 30.1332 33.7565 39.501 28.5522L44.2559 25.9106Z" fill="#C4B6F8"/>
</svg>
