<svg width="26" height="18" viewBox="0 0 26 18" fill="none" xmlns="http://www.w3.org/2000/svg">
<path d="M25.994 6.34377C26.0524 4.6782 25.6827 3.0251 24.9192 1.53796C24.4012 0.927744 23.6823 0.515948 22.8878 0.374322C19.6015 0.0805334 16.3016 -0.0398807 13.0022 0.0135951C9.71487 -0.0423079 6.42684 0.0742206 3.15207 0.362686C2.50463 0.478719 1.90546 0.777919 1.4277 1.22377C0.364734 2.18959 0.246627 3.84195 0.12852 5.23831C-0.0428398 7.74893 -0.0428398 10.268 0.12852 12.7787C0.162688 13.5646 0.281461 14.3447 0.482841 15.1059C0.625249 15.6936 0.913369 16.2374 1.3214 16.6885C1.80242 17.1579 2.41553 17.4742 3.0812 17.5961C5.62749 17.9058 8.19314 18.0341 10.7582 17.9801C14.8919 18.0383 18.5178 17.9801 22.8051 17.6543C23.4871 17.5398 24.1175 17.2232 24.6122 16.7467C24.9428 16.4207 25.1898 16.0218 25.3326 15.583C25.755 14.3061 25.9625 12.9696 25.9468 11.6267C25.994 10.975 25.994 7.04195 25.994 6.34377ZM10.333 12.3248V5.12195L17.3249 8.74085C15.3644 9.8114 12.7778 11.0216 10.333 12.3248Z" fill="#D4C9FB"/>
</svg>
