<svg width="67" height="34" viewBox="0 0 67 34" fill="none" xmlns="http://www.w3.org/2000/svg">
<rect width="67" height="34" rx="10" fill="#544B75"/>
<path fill-rule="evenodd" clip-rule="evenodd" d="M20.8906 23.5312C24.6272 23.5312 27.6562 20.5022 27.6562 16.7656C27.6562 13.0291 24.6272 10 20.8906 10C17.1541 10 14.125 13.0291 14.125 16.7656C14.125 20.5022 17.1541 23.5312 20.8906 23.5312ZM30.3461 19.2166C29.2587 23.4237 25.4376 26.5312 20.8906 26.5312C15.4972 26.5312 11.125 22.159 11.125 16.7656C11.125 16.7041 11.1256 16.6428 11.1267 16.5816C10.9129 16.6989 10.6674 16.7656 10.4062 16.7656H9.5C8.67157 16.7656 8 16.0941 8 15.2656C8 14.4372 8.67157 13.7656 9.5 13.7656H10.4062C10.8194 13.7656 11.1935 13.9326 11.4647 14.2028C12.5905 10.0526 16.3841 7 20.8906 7C25.7332 7 29.7526 10.5248 30.523 15.1488C31.274 14.6175 32.1204 14.3031 33.0497 14.3113C33.949 14.3192 34.7622 14.6278 35.4794 15.1341C36.2559 10.5173 40.2719 7 45.1094 7C49.6159 7 53.4095 10.0526 54.5353 14.2028C54.8065 13.9326 55.1806 13.7656 55.5938 13.7656H56.5C57.3284 13.7656 58 14.4372 58 15.2656C58 16.0941 57.3284 16.7656 56.5 16.7656H55.5938C55.3326 16.7656 55.0871 16.6989 54.8733 16.5816C54.8744 16.6428 54.875 16.7041 54.875 16.7656C54.875 22.159 50.5028 26.5312 45.1094 26.5312C40.5624 26.5312 36.7413 23.4237 35.6539 19.2166C35.279 19.1465 34.9306 18.9343 34.6964 18.596C33.9566 17.5273 33.3481 17.314 33.0234 17.3112C32.7027 17.3083 32.0783 17.5062 31.2929 18.6112C31.0584 18.9411 30.7149 19.1477 30.3461 19.2166ZM45.1094 23.5312C48.8459 23.5312 51.875 20.5022 51.875 16.7656C51.875 13.0291 48.8459 10 45.1094 10C41.3728 10 38.3438 13.0291 38.3438 16.7656C38.3438 20.5022 41.3728 23.5312 45.1094 23.5312Z" fill="#8766FF"/>
</svg>
