<svg width="45" height="45" viewBox="0 0 45 45" fill="none" xmlns="http://www.w3.org/2000/svg">
<path fill-rule="evenodd" clip-rule="evenodd" d="M13.1041 9.16972C19.3585 8.68041 25.6416 8.68041 31.8959 9.16972L36.0972 9.49841C38.4374 9.68149 40.3518 11.4354 40.7386 13.7506C41.7065 19.5434 41.7065 25.4566 40.7386 31.2494C40.3518 33.5646 38.4374 35.3185 36.0972 35.5016L31.8959 35.8303C25.6416 36.3196 19.3585 36.3196 13.1041 35.8303L8.90283 35.5016C6.56269 35.3185 4.64827 33.5646 4.26144 31.2494C3.29355 25.4566 3.29355 19.5434 4.26144 13.7506C4.64827 11.4354 6.56269 9.68149 8.90283 9.49841L13.1041 9.16972ZM18.75 27.1315V17.8685C18.75 17.4313 19.227 17.1612 19.6019 17.3861L27.3211 22.0177C27.6852 22.2361 27.6852 22.7639 27.3211 22.9823L19.6019 27.6139C19.227 27.8388 18.75 27.5687 18.75 27.1315Z" fill="#D4C9FB"/>
</svg>
