<svg width="300" height="676" viewBox="0 0 300 676" fill="none" xmlns="http://www.w3.org/2000/svg">
<path d="M126.107 380.388C126.678 383.652 126.09 386.482 124.186 386.815C122.282 387.148 118.305 385.117 117.734 381.853C117.163 378.589 117.985 374.195 119.889 373.862C122.844 373.345 125.535 377.124 126.107 380.388Z" fill="#291E53"/>
<path d="M158.734 377.036C159.305 380.3 160.819 382.762 162.723 382.429C164.627 382.096 167.678 378.835 167.107 375.571C166.535 372.307 164.27 368.453 162.366 368.786C159.411 369.303 158.163 373.772 158.734 377.036Z" fill="#291E53"/>
<path d="M16.1408 636H15.1408V637V673.876C11.9342 672.792 9.60787 671.675 7.85258 670.177C5.53953 668.202 4.11623 665.469 3.14116 660.897C3.14307 660.617 3.15276 660.339 3.17005 660.062L3.23648 659H3.14081V649V648H2.44769V539.474V539.409L2.43916 539.344C1.81014 534.561 1.84187 529.339 2.63136 523.637C3.71561 515.806 8.62177 507.489 16.3641 499.379C24.0927 491.283 34.5703 483.475 46.6327 476.661C70.768 463.028 101.1 453.456 128.141 453.456C153.288 453.456 186.342 466.694 213.469 484.142C227.017 492.855 239.031 502.584 247.799 512.172C256.598 521.793 261.999 531.134 262.587 539.074L262.641 539.797V648H262.141V649V658H262.098L262.133 659.033C262.138 659.179 262.14 659.325 262.141 659.472C261.897 663.75 260.231 667.745 257.496 670.48C255.145 672.832 251.979 674.281 248.141 674.177V637V636H247.141H16.1408ZM234.033 670.43C236.202 672.387 239.041 673.765 242.738 675H27.471C33.1998 672.222 37.1408 666.818 37.1408 660.5C37.1408 656.495 35.543 652.84 32.9141 650H231.678C229.735 652.69 228.641 655.97 228.641 659.5V659.604L228.662 659.706C229.686 664.566 231.254 667.922 234.033 670.43ZM18.7794 675C18.2121 674.837 17.6662 674.676 17.1408 674.516V638H246.141V673.96C241.066 672.493 237.712 671.056 235.373 668.945C233.045 666.844 231.617 663.976 230.641 659.397C230.667 655.645 232.094 652.243 234.531 649.691L236.145 648H233.808H30.3741H27.5258L29.749 649.781C33.0839 652.451 35.1408 656.279 35.1408 660.5C35.1408 668.358 27.9437 674.934 18.7794 675Z" fill="#291E53" stroke="#8766FF" stroke-width="2"/>
<path d="M2.72401 600.19L2.03429 600.914L0.586145 599.534L1.27586 598.81L2.72401 600.19ZM83.0269 533.184C71.3155 550.286 56.8084 561.136 42.4632 570.664C28.0765 580.22 13.9697 588.384 2.72401 600.19L1.27586 598.81C12.7229 586.793 27.1161 578.457 41.3566 568.998C55.6387 559.512 69.8862 548.833 81.3768 532.054L83.0269 533.184Z" fill="#8766FF"/>
<path d="M164.641 460C162.141 467 153.933 477.5 137.641 477.5C121.348 477.5 107.142 464 101.141 457C131.64 444 115.347 444 131.64 444C147.932 444 131.64 444 164.641 460Z" fill="#A298C9"/>
<rect x="112.141" y="416" width="39" height="45" fill="#A298C9"/>
<path fill-rule="evenodd" clip-rule="evenodd" d="M209.408 377.907C213.542 374.166 217.158 367.043 219.641 353.5C219.641 331 201.082 326.5 191.141 326.5C181.2 326.5 178.641 340.5 182.141 354.5C183.199 358.734 183.568 362.446 183.799 365.677C178.075 373.497 173.141 384.839 173.141 390C173.141 398.284 173.141 406.5 187.141 404C192.555 403.033 200.823 399 206.141 390C207.958 386.925 209.233 382.509 209.408 377.907ZM96.0518 362.28C96.1107 361.694 96.1409 361.1 96.1409 360.5C96.1409 350.283 87.4104 342 76.6409 342C65.8713 342 57.1409 350.283 57.1409 360.5C57.1409 367.736 61.5198 374.002 67.9007 377.042C67.7298 378.006 67.6409 378.994 67.6409 380C67.6409 390.493 80.1409 402.5 95.1409 400.5C106.463 400.5 109.141 390.493 109.141 380C109.141 371.929 103.711 365.033 96.0518 362.28Z" fill="#726B8E"/>
<path fill-rule="evenodd" clip-rule="evenodd" d="M146.111 436C161.641 436 184.641 413.794 184.641 379C190.141 343.5 170.621 315 139.141 315C114.279 315 99.6835 329.163 94.6457 352.257C86.9943 353.844 81.1409 362.513 81.1409 371C81.1409 379.279 86.7112 386.176 94.087 387.691C99.4614 415.27 119.36 436 146.111 436Z" fill="#A298C9"/>
<path d="M134.141 346.5C134.141 348.157 129.141 351.556 125.141 352C120.641 352.5 118.641 353 118.141 351C118.141 349 122.141 345.562 126.641 345C130.641 344.5 134.141 344.843 134.141 346.5Z" fill="#291E53"/>
<path d="M171.641 350.5C171.141 351.5 167.641 352 164.641 351.5C158.141 349 159.641 346 160.141 345C161.641 344 163.141 344.5 166.641 345C170.141 346 171.641 349.5 171.641 350.5Z" fill="#291E53"/>
<path d="M151.141 374C151.282 381.887 151.807 386.023 154.141 392.5C148.033 393.413 145.469 394.167 142.641 396" stroke="#291E53" stroke-width="3" stroke-linecap="round" stroke-linejoin="round"/>
<path d="M131.141 402.5C133.675 406.38 136.508 407.513 143.641 408" stroke="#291E53" stroke-width="3" stroke-linecap="round" stroke-linejoin="round"/>
<ellipse cx="172.141" cy="325" rx="13" ry="10" fill="#A298C9"/>
<path d="M111.141 422C125.141 435 140.141 437.5 152.141 435.613" stroke="#291E53" stroke-linecap="round"/>
<path d="M109.829 553.596C88.5026 560.767 82.1942 549.905 76.8193 535.86C71.4444 521.815 90.2984 513.694 104.458 511.92C117.897 506.777 120.292 506.766 125.667 520.811C131.042 534.857 146.795 541.166 109.829 553.596Z" fill="#A298C9"/>
<path d="M120.333 521.56C115.225 522.764 111.02 519.63 109.601 513.786C102.855 510.228 123.518 505.684 128.626 504.48C143.041 501.862 156.45 499.043 157.868 504.888C159.287 510.732 142.641 516.301 120.333 521.56Z" fill="#A298C9"/>
<path d="M127.547 534.818C121.164 537.261 113.533 532.821 112.518 530.168C111.503 527.516 114.629 520.183 121.012 517.74C127.395 515.298 133.567 519.072 134.583 521.725C135.598 524.377 133.931 532.376 127.547 534.818Z" fill="#A298C9"/>
<path d="M127.867 545.097C121.484 547.54 113.853 543.1 112.838 540.447C111.823 537.795 114.949 530.462 121.332 528.019C127.715 525.576 133.887 529.351 134.902 532.004C135.917 534.656 134.25 542.654 127.867 545.097Z" fill="#A298C9"/>
<path d="M97.7724 526.634C94.8925 527.736 76.1855 530.057 76.7141 527.278C78.4296 518.261 98.2205 491.128 101.1 490.026C103.98 488.924 107.446 489.425 107.712 494.807C108.723 497.448 100.078 512.349 97.7724 526.634Z" fill="#A298C9"/>
<path d="M132.722 519L122.222 521" stroke="#291E53" stroke-linecap="round"/>
<path d="M211.829 518.596C190.503 525.767 184.194 514.905 178.82 500.86C173.445 486.815 192.299 478.694 206.458 476.92C219.897 471.777 222.293 471.766 227.668 485.811C233.042 499.857 248.795 506.166 211.829 518.596Z" fill="#A298C9"/>
<path d="M222.333 486.56C217.225 487.764 213.02 484.63 211.601 478.786C204.855 475.228 225.518 470.684 230.626 469.48C245.041 466.862 258.45 464.043 259.868 469.888C261.287 475.732 244.641 481.301 222.333 486.56Z" fill="#A298C9"/>
<path d="M229.547 499.818C223.164 502.261 215.533 497.821 214.518 495.168C213.503 492.516 216.629 485.183 223.012 482.74C229.395 480.298 235.567 484.072 236.583 486.725C237.598 489.377 235.931 497.376 229.547 499.818Z" fill="#A298C9"/>
<path d="M229.867 510.097C223.484 512.54 215.853 508.1 214.838 505.447C213.823 502.795 216.949 495.462 223.332 493.019C229.715 490.576 235.887 494.351 236.902 497.004C237.917 499.656 236.25 507.654 229.867 510.097Z" fill="#A298C9"/>
<path d="M199.773 491.634C196.893 492.736 178.186 495.057 178.714 492.278C180.43 483.261 200.221 456.128 203.101 455.026C205.981 453.924 209.447 454.425 209.713 459.807C210.723 462.448 202.078 477.349 199.773 491.634Z" fill="#A298C9"/>
<path d="M234.722 484L224.222 486" stroke="#291E53" stroke-linecap="round"/>
<path d="M89 353L96.5 364" stroke="#8766FF" stroke-width="4" stroke-linecap="round"/>
<path d="M207.5 518C239.052 596.578 252.797 583.74 263.5 635.5" stroke="#8766FF" stroke-width="2"/>
<path d="M77.699 154.571C77.5669 154.415 77.3963 154.296 77.2041 154.227C77.0119 154.157 76.8048 154.138 76.6034 154.173C76.3928 154.205 76.1953 154.295 76.0339 154.434C75.8725 154.572 75.7537 154.754 75.6913 154.958C74.7383 157.847 72.8953 160.36 70.4264 162.137C68.5472 163.485 66.3594 164.338 64.0641 164.62C63.8547 164.647 63.6566 164.73 63.4904 164.86C63.3243 164.99 63.1964 165.163 63.1202 165.36C63.0439 165.557 63.0222 165.77 63.0573 165.978C63.0924 166.187 63.183 166.381 63.3195 166.542L64.0517 167.449C65.3001 168.944 66.9827 170.013 68.8663 170.509C70.7499 171.005 72.7411 170.903 74.564 170.217C75.5671 169.843 76.5017 169.306 77.3302 168.627C79.2354 167.036 80.4325 164.754 80.6595 162.282C80.8865 159.81 80.1249 157.349 78.5414 155.437L77.699 154.571ZM78.2346 162.098C78.0796 163.93 77.2135 165.629 75.8218 166.831C74.3854 168.02 72.5362 168.59 70.6799 168.417C69.1145 168.28 67.6432 167.611 66.511 166.522C68.8392 165.909 71.0044 164.793 72.8533 163.251C74.7021 161.709 76.1895 159.78 77.2101 157.6C78.0612 158.936 78.4233 160.525 78.2346 162.098ZM57.9355 152.746C57.732 152.512 57.4455 152.367 57.1365 152.34C56.828 152.328 56.5272 152.438 56.2994 152.647L49.0825 158.592C48.8485 158.796 48.7026 159.082 48.6757 159.391C48.6639 159.7 48.7742 160.001 48.9827 160.228C49.4634 160.819 50.0573 161.309 50.7296 161.667C51.4018 162.026 52.1389 162.247 52.8975 162.317C53.7634 162.414 54.64 162.307 55.4567 162.003C56.0871 161.769 56.6722 161.428 57.1861 160.994C57.7814 160.5 58.2705 159.891 58.6239 159.203C58.9772 158.515 59.1875 157.762 59.2421 156.991C59.3848 155.459 58.915 153.933 57.9355 152.746ZM56.9282 156.815C56.8434 157.743 56.3937 158.6 55.6777 159.198C55.1196 159.661 54.4313 159.939 53.7081 159.994C52.9848 160.049 52.2624 159.877 51.641 159.503L56.782 155.394C56.9321 155.851 56.982 156.336 56.9282 156.815ZM104.504 138.794C103.048 139.321 101.857 140.397 101.186 141.793C100.515 143.188 100.419 144.791 100.917 146.257C101.026 146.55 101.24 146.792 101.516 146.937C101.805 147.066 102.132 147.08 102.431 146.977L111.283 143.855C111.572 143.75 111.807 143.535 111.939 143.258C112.071 142.98 112.089 142.662 111.989 142.372C111.74 141.644 111.346 140.975 110.832 140.403C110.317 139.831 109.692 139.37 108.995 139.046C108.302 138.704 107.547 138.506 106.775 138.462C106.003 138.419 105.231 138.532 104.504 138.794ZM102.969 144.355C102.977 143.629 103.202 142.921 103.616 142.324C104.029 141.727 104.612 141.268 105.289 141.005C106.167 140.705 107.126 140.756 107.966 141.148C108.433 141.374 108.844 141.701 109.167 142.107L102.969 144.355ZM107.714 126.42L106.708 125.314L105.884 126.541C102.628 131.213 97.9856 134.742 92.6136 136.631C88.1019 138.212 83.2529 138.577 78.5554 137.687C75.3608 134.354 71.6448 131.564 67.5531 129.426L66.2482 128.729L65.8832 130.188C64.4403 135.678 61.3186 140.58 56.9541 144.209C52.581 147.857 47.1649 150.027 41.4824 150.407L39.9932 150.504L40.5102 151.914C42.6889 159.14 46.7989 165.635 52.397 170.698C60.1439 177.579 73.974 184.079 82.6759 180.888C83.8419 180.47 84.9263 179.852 85.8805 179.063C87.6793 177.479 88.9683 175.397 89.5851 173.081C93.8231 176.8 100.939 181.688 107.57 179.257L107.702 179.208C117.528 175.605 119.849 157.809 117.695 146.278C116.25 138.853 112.792 131.968 107.697 126.376L107.714 126.42ZM84.3538 177.149C77.3711 182.983 61.9158 176.004 53.9038 168.946C48.9795 164.514 45.2684 158.898 43.1223 152.63C48.7579 151.948 54.0783 149.658 58.4486 146.035C62.8055 142.392 66.0268 137.577 67.7309 132.159C73.5132 135.401 78.3619 140.079 81.8088 145.741C87.2844 154.88 91.3526 171.358 84.3538 177.149ZM115.368 146.681C117.313 157.164 115.443 174.145 106.798 177.015C102.392 178.631 96.2611 176.156 90.1269 170.333C90.6821 164.168 89.7673 157.96 87.4577 152.217L91.357 150.787C91.6417 150.677 91.8733 150.462 92.0045 150.186C92.1357 149.91 92.1565 149.595 92.0626 149.304C91.8094 148.578 91.4153 147.908 90.9027 147.334C90.3902 146.761 89.7694 146.294 89.0759 145.961C88.3825 145.627 87.6301 145.434 86.8619 145.393C86.0936 145.351 85.3248 145.462 84.5993 145.718C84.4297 145.255 84.1058 144.849 83.8782 144.433C82.9909 142.981 82.0122 141.587 80.948 140.259C85.1622 140.637 89.4087 140.111 93.4031 138.715C98.7448 136.836 103.442 133.475 106.945 129.026C111.218 134.092 114.119 140.172 115.368 146.681ZM85.6378 147.936C86.4512 147.703 87.3218 147.775 88.0861 148.138C88.5625 148.355 88.9815 148.681 89.3096 149.089L86.5999 150.083C86.273 149.328 85.9624 148.617 85.6378 147.936ZM99.1941 155.461L99.15 155.477C96.8355 156.326 94.9478 158.051 93.8945 160.28C92.8413 162.508 92.7071 165.062 93.521 167.389L93.9168 168.468C93.9896 168.667 94.1117 168.843 94.2717 168.981C94.4317 169.119 94.6242 169.215 94.8311 169.258C95.038 169.291 95.2501 169.271 95.4468 169.199C95.6436 169.127 95.8185 169.005 95.9546 168.846C97.3874 167.025 99.2429 165.581 101.36 164.639C104.169 163.45 107.283 163.183 110.253 163.877C110.46 163.916 110.673 163.898 110.871 163.825C111.069 163.753 111.243 163.628 111.376 163.465C111.513 163.305 111.605 163.112 111.643 162.905C111.682 162.698 111.664 162.484 111.594 162.286L111.19 161.184C110.771 160.025 110.128 158.959 109.298 158.049C108.468 157.138 107.466 156.399 106.35 155.875C105.235 155.352 104.027 155.053 102.795 154.996C101.564 154.939 100.334 155.125 99.1742 155.544L99.1941 155.461ZM101.287 162.191L100.34 162.539C98.5256 163.34 96.8714 164.463 95.4574 165.854C95.0868 164.179 95.3404 162.427 96.1705 160.926C97.0007 159.425 98.3504 158.279 99.966 157.702C100.835 157.393 101.757 157.261 102.678 157.313C103.599 157.366 104.5 157.603 105.327 158.011C106.802 158.695 107.983 159.884 108.656 161.364C106.169 161.082 103.65 161.365 101.287 162.191ZM72.489 139.137L65.3543 145.102C65.2315 145.196 65.1294 145.314 65.0542 145.449C64.9791 145.585 64.9325 145.734 64.9174 145.887C64.907 146.204 65.02 146.512 65.2325 146.747C65.988 147.657 67.0032 148.316 68.1427 148.635C69.2822 148.954 70.4919 148.918 71.6104 148.532C72.2351 148.308 72.8158 147.977 73.3257 147.553C73.9262 147.066 74.4238 146.465 74.7894 145.784C75.155 145.103 75.3814 144.356 75.4553 143.587C75.5291 142.818 75.449 142.042 75.2197 141.304C74.9903 140.566 74.6162 139.881 74.1193 139.289C74.0228 139.171 73.9039 139.073 73.7694 139.002C73.635 138.93 73.4876 138.886 73.3359 138.872C73.1842 138.858 73.0313 138.874 72.8859 138.92C72.7405 138.965 72.6056 139.039 72.489 139.137ZM73.1119 143.357C73.0283 144.279 72.5874 145.131 71.8834 145.732L72.6156 146.638L71.8834 145.732C71.3238 146.192 70.6359 146.469 69.9134 146.523C69.191 146.578 68.4692 146.409 67.8467 146.038L72.9253 141.826C73.1056 142.315 73.1694 142.839 73.1119 143.357Z" fill="#8766FF"/>
<path d="M153.275 368.216C153.275 371.695 164.258 392.891 177.425 392.891C188.975 392.891 192.65 380.62 192.65 377.141C192.65 373.661 189.5 354.041 170.6 355.091C153.525 356.039 153.275 364.736 153.275 368.216Z" fill="#291E53"/>
<path d="M139.543 360.417C142.693 371.442 132.648 387.717 130.618 387.717C128.589 387.717 116.443 397.167 106.993 390.342C98.5935 373.017 107.589 360.417 109.618 360.417C112.768 360.417 121.168 353.067 139.543 360.417Z" fill="#291E53"/>
<path d="M97.1875 366.583H104.888C105.468 366.583 106.024 366.362 106.434 365.969C106.845 365.576 107.075 365.042 107.075 364.486C107.075 363.93 106.845 363.397 106.434 363.003C106.024 362.61 105.468 362.389 104.888 362.389H97.1875C96.6073 362.389 96.0509 362.61 95.6407 363.003C95.2305 363.397 95 363.93 95 364.486C95 365.042 95.2305 365.576 95.6407 365.969C96.0509 366.362 96.6073 366.583 97.1875 366.583ZM190.113 366.583H197.812C198.393 366.583 198.949 366.362 199.359 365.969C199.77 365.576 200 365.042 200 364.486C200 363.93 199.77 363.397 199.359 363.003C198.949 362.61 198.393 362.389 197.812 362.389H190.113C189.532 362.389 188.976 362.61 188.566 363.003C188.155 363.397 187.925 363.93 187.925 364.486C187.925 365.042 188.155 365.576 188.566 365.969C188.976 366.362 189.532 366.583 190.113 366.583Z" fill="#3C3B41"/>
<path d="M97.1875 362.389H103.75C105.788 359.784 108.43 357.67 111.467 356.214C114.505 354.758 117.854 354 121.25 354H173.75C177.146 354 180.495 354.758 183.533 356.214C186.57 357.67 189.212 359.784 191.25 362.389H197.812C198.393 362.389 198.949 362.61 199.359 363.003C199.77 363.397 200 363.93 200 364.486C200 365.043 199.77 365.576 199.359 365.969C198.949 366.363 198.393 366.584 197.812 366.584H193.788C194.996 369.229 195.621 372.085 195.625 374.973C195.625 388.102 189.062 395.945 178.125 395.945C166.312 395.945 152.706 379.167 151.875 367.59C150.492 367.023 149.004 366.73 147.5 366.73C145.996 366.73 144.508 367.023 143.125 367.59C142.294 379.167 128.688 395.945 116.875 395.945C105.938 395.945 99.375 388.102 99.375 374.973C99.3786 372.085 100.004 369.229 101.213 366.584H97.1875C96.6073 366.584 96.0509 366.363 95.6407 365.969C95.2305 365.576 95 365.043 95 364.486C95 363.93 95.2305 363.397 95.6407 363.003C96.0509 362.61 96.6073 362.389 97.1875 362.389ZM178.125 391.751C189.544 391.751 191.25 381.222 191.25 374.973C191.25 370.523 189.406 366.255 186.124 363.109C182.842 359.962 178.391 358.195 173.75 358.195C161.062 358.195 156.25 358.908 156.25 366.584C156.25 375.937 168.675 391.751 178.125 391.751ZM142.775 363.144C145.856 362.25 149.144 362.25 152.225 363.144C152.553 361.31 153.401 359.598 154.675 358.195H140.281C141.571 359.593 142.434 361.306 142.775 363.144ZM116.875 391.751C126.325 391.751 138.75 375.937 138.75 366.584C138.75 358.908 133.938 358.195 121.25 358.195C116.609 358.195 112.158 359.962 108.876 363.109C105.594 366.255 103.75 370.523 103.75 374.973C103.75 381.222 105.456 391.751 116.875 391.751Z" fill="#8766FF"/>
<path d="M112.258 364.722C112.447 368.031 111.99 369.349 109.971 370.553C112.132 370.676 112.758 372.084 113.159 376.23C113.062 372.213 113.264 370.367 115.539 370.117C113.209 369.395 112.581 368.095 112.258 364.722Z" fill="#8766FF"/>
<path fill-rule="evenodd" clip-rule="evenodd" d="M159.126 327.028C159.259 326.948 159.391 326.867 159.521 326.786C161.501 327.017 163.699 327.251 166.141 327.5C167.444 327.385 168.775 327.349 170.116 327.37C176.522 333.988 180.131 342.149 184.121 351.5C191.301 351.5 197.121 337.127 197.121 330.5C197.121 329.369 196.951 328.275 196.635 327.237C199.193 325.131 199.896 320.851 197.641 312.699C195.641 301.5 184.448 292.199 170.641 292.199C163.261 291.245 155.127 293.248 149.022 296.575C144.955 291.337 138.028 288 128.141 288C112.44 288 101.004 298.299 99.3479 309.663C97.3272 309.541 94.9461 309.64 92.1409 310C78.6409 310 65.1409 324.059 65.1409 334C65.1409 343.941 76.4383 354 89.1409 354C106.001 352.073 109.402 344.577 110.523 329.276C111.132 329.61 111.761 329.924 112.41 330.217C117.363 333.114 125.12 335 132.641 335C143.89 334.598 155.14 331.518 159.126 327.028Z" fill="#726B8E"/>
<path d="M193.685 70.4305C193.414 70.1638 193.048 70.0344 192.661 70.0053L161.496 68.68C160.91 68.6614 160.387 68.9702 160.281 69.4718L155.971 89.9363C154.594 88.0749 152.338 86.6568 149.578 86.0755C144.372 84.9791 139.461 87.4545 138.585 91.6177C137.708 95.7808 141.203 100.026 146.409 101.123C151.615 102.219 156.526 99.7439 157.403 95.5808L161.153 77.7747L189.724 78.9728L187.147 91.2114C185.77 89.35 183.451 87.9187 180.754 87.3506C175.547 86.2542 170.637 88.7297 169.76 92.8928C168.883 97.0559 172.378 101.302 177.585 102.398C182.791 103.495 187.701 101.019 188.578 96.8559L193.966 71.2753C194.029 70.9744 193.904 70.6338 193.685 70.4305ZM146.842 99.0665C143.016 98.2606 140.46 95.1556 141.104 92.0959C141.749 89.0363 145.34 87.2259 149.166 88.0317C152.992 88.8375 155.548 91.9426 154.904 95.0022C154.26 98.0619 150.668 99.8723 146.842 99.0665ZM178.007 100.392C174.181 99.5859 171.625 96.4808 172.269 93.4212C172.914 90.3616 176.505 88.5511 180.331 89.357C184.158 90.1628 186.713 93.2679 186.069 96.3275C185.425 99.3872 181.834 101.198 178.007 100.392ZM190.147 76.9665L161.575 75.7684L162.621 70.8028L191.192 72.0009L190.147 76.9665Z" fill="#8766FF"/>
<path d="M212.975 192.326C212.844 192.326 212.714 192.301 212.592 192.25C212.471 192.2 212.361 192.126 212.268 192.033L210.641 190.407L209.489 191.353L211.219 193.083C211.317 193.175 211.395 193.285 211.449 193.408C211.503 193.531 211.532 193.663 211.534 193.797C211.536 193.931 211.512 194.064 211.461 194.188C211.411 194.312 211.336 194.425 211.241 194.52C211.147 194.614 211.034 194.689 210.91 194.739C210.785 194.79 210.652 194.814 210.518 194.812C210.384 194.81 210.252 194.781 210.13 194.727C210.007 194.672 209.897 194.594 209.805 194.496L207.936 192.628L206.784 193.574L207.935 194.724C208.028 194.817 208.102 194.927 208.152 195.049C208.202 195.17 208.228 195.3 208.228 195.431C208.228 195.563 208.202 195.693 208.152 195.814C208.102 195.936 208.028 196.046 207.936 196.139C207.843 196.232 207.732 196.305 207.611 196.356C207.49 196.406 207.36 196.432 207.228 196.432C207.097 196.432 206.967 196.406 206.846 196.356C206.724 196.306 206.614 196.232 206.521 196.139L205.231 194.849L204.558 195.401C204.138 195.737 203.632 195.903 203.128 195.903C202.715 195.903 202.306 195.784 201.943 195.563L189.96 207.546C194.844 214.148 195.535 221.674 191.516 225.694C189.083 228.127 185.273 228.888 181.052 227.864C183.682 234.481 183.029 240.748 179.202 244.575C176.937 246.84 173.812 248.015 170.189 248.015C169.039 248.015 167.839 247.898 166.601 247.658C161.6 246.691 156.534 243.847 152.337 239.65C143.572 230.886 141.363 218.834 147.411 212.785C151.24 208.957 157.508 208.305 164.122 210.935C163.099 206.713 163.861 202.904 166.293 200.471C170.313 196.451 177.839 197.143 184.441 202.027L196.424 190.044C196.179 189.642 196.064 189.174 196.095 188.704C196.125 188.234 196.3 187.785 196.595 187.418L197.139 186.756L195.849 185.466C195.754 185.374 195.677 185.264 195.625 185.142C195.573 185.02 195.545 184.888 195.544 184.756C195.543 184.623 195.568 184.491 195.618 184.368C195.669 184.245 195.743 184.134 195.837 184.04C195.931 183.946 196.042 183.872 196.165 183.821C196.288 183.771 196.42 183.746 196.552 183.747C196.685 183.748 196.816 183.776 196.938 183.828C197.06 183.881 197.171 183.957 197.263 184.052L198.413 185.202L199.359 184.051L197.491 182.181C197.393 182.09 197.315 181.979 197.261 181.857C197.207 181.734 197.178 181.602 197.176 181.468C197.174 181.334 197.199 181.201 197.249 181.077C197.299 180.952 197.374 180.84 197.469 180.745C197.564 180.65 197.676 180.576 197.801 180.525C197.925 180.475 198.058 180.45 198.192 180.452C198.326 180.455 198.458 180.484 198.581 180.538C198.703 180.592 198.813 180.671 198.905 180.768L200.634 182.498L201.58 181.345L199.954 179.719C199.859 179.627 199.782 179.517 199.73 179.395C199.678 179.273 199.65 179.141 199.649 179.009C199.648 178.876 199.673 178.744 199.723 178.621C199.774 178.498 199.848 178.387 199.942 178.293C200.036 178.199 200.147 178.125 200.27 178.074C200.393 178.024 200.525 177.999 200.657 178C200.79 178.001 200.921 178.029 201.043 178.081C201.165 178.134 201.276 178.21 201.368 178.305L202.855 179.792L203.085 179.512C203.286 179.261 203.538 179.055 203.825 178.908C204.111 178.761 204.425 178.675 204.746 178.657C205.068 178.64 205.389 178.69 205.69 178.806C205.991 178.921 206.264 179.098 206.492 179.325L212.663 185.495C212.89 185.723 213.066 185.996 213.181 186.296C213.296 186.596 213.346 186.917 213.329 187.238C213.311 187.559 213.227 187.873 213.08 188.159C212.934 188.445 212.729 188.697 212.479 188.899L212.195 189.132L213.682 190.619C213.822 190.759 213.917 190.937 213.956 191.131C213.994 191.325 213.974 191.526 213.899 191.709C213.823 191.892 213.695 192.048 213.531 192.158C213.366 192.268 213.173 192.326 212.975 192.326ZM197.787 191.509L180.928 208.368C182.085 208.961 183.026 209.902 183.618 211.059L200.478 194.2L197.787 191.51V191.509ZM181.071 210.916C180.68 210.523 180.214 210.211 179.701 209.999C179.188 209.786 178.638 209.678 178.083 209.679C176.955 209.679 175.894 210.119 175.096 210.916C174.305 211.709 173.861 212.784 173.861 213.904C173.861 215.024 174.305 216.098 175.096 216.891C175.889 217.682 176.964 218.126 178.084 218.126C179.204 218.126 180.278 217.682 181.071 216.891C181.862 216.098 182.306 215.024 182.306 213.904C182.306 212.784 181.862 211.709 181.071 210.916ZM167.707 201.885C165.436 204.158 165.046 208.085 166.664 212.394C166.734 212.582 166.747 212.787 166.699 212.982C166.652 213.176 166.547 213.353 166.398 213.487C166.249 213.621 166.063 213.708 165.865 213.736C165.666 213.763 165.464 213.73 165.284 213.641C158.727 210.391 152.421 210.605 148.825 214.2C143.557 219.469 145.766 230.251 153.751 238.236C157.669 242.154 162.367 244.802 166.981 245.695C171.448 246.557 175.289 245.66 177.787 243.161C181.382 239.567 181.596 233.261 178.345 226.703C178.257 226.523 178.224 226.321 178.252 226.123C178.279 225.924 178.366 225.738 178.501 225.59C178.635 225.441 178.811 225.336 179.006 225.289C179.201 225.241 179.405 225.253 179.593 225.323C183.902 226.943 187.83 226.552 190.101 224.28C193.364 221.017 192.669 214.704 188.533 208.973L184.267 213.239C184.361 214.107 184.272 214.986 184.004 215.817C183.736 216.648 183.297 217.413 182.713 218.063C182.13 218.713 181.416 219.232 180.618 219.587C179.821 219.943 178.957 220.126 178.084 220.125C177.267 220.127 176.457 219.967 175.702 219.654C174.946 219.342 174.26 218.884 173.682 218.305C172.517 217.137 171.862 215.554 171.862 213.904C171.862 212.253 172.517 210.671 173.682 209.502C174.338 208.842 175.135 208.339 176.013 208.03C176.891 207.72 177.827 207.613 178.752 207.716L183.013 203.455C177.283 199.319 170.969 198.625 167.707 201.885ZM211.249 186.909L205.078 180.739C205.051 180.712 205.019 180.69 204.984 180.676C204.948 180.661 204.91 180.654 204.872 180.654H204.856C204.808 180.657 204.716 180.674 204.638 180.772L198.149 188.677C198.104 188.733 198.081 188.804 198.085 188.875C198.089 188.947 198.119 189.015 198.17 189.065L198.493 189.387L198.494 189.388L198.495 189.389L202.923 193.817C202.972 193.867 203.037 193.897 203.106 193.902C203.175 193.908 203.243 193.888 203.299 193.846L211.215 187.349L211.225 187.341C211.257 187.316 211.283 187.284 211.302 187.248C211.321 187.211 211.332 187.172 211.334 187.131C211.337 187.09 211.33 187.049 211.315 187.011C211.301 186.973 211.278 186.938 211.249 186.909Z" fill="#8766FF"/>
<path d="M168.118 237.598C167.931 237.786 167.676 237.891 167.411 237.891C167.146 237.891 166.892 237.786 166.704 237.598L154.39 225.282C154.203 225.095 154.097 224.84 154.097 224.575C154.097 224.31 154.203 224.056 154.39 223.868L157.673 220.584C157.861 220.397 158.115 220.292 158.38 220.292C158.645 220.292 158.9 220.397 159.087 220.584L171.402 232.9C171.59 233.088 171.695 233.342 171.695 233.607C171.695 233.872 171.59 234.127 171.402 234.314L168.118 237.598ZM158.38 222.706L156.51 224.576L167.411 235.476L169.281 233.606L158.381 222.706H158.38Z" fill="#8766FF"/>
<rect x="14" y="627" width="238" height="46" fill="#291E53"/>
<path d="M90.5 553.5C62.2102 633.31 77.423 629.524 51.226 675.43" stroke="#8766FF" stroke-width="2"/>
<path d="M196.475 674.28L196.788 675.23L194.888 675.854L194.575 674.905L196.475 674.28ZM187.988 513.82C190.813 523.823 191.991 536.613 192.374 550.682C192.757 564.761 192.345 580.195 191.96 595.499C191.575 610.816 191.217 626.002 191.704 639.637C192.19 653.286 193.521 665.294 196.475 674.28L194.575 674.905C191.53 665.64 190.193 653.4 189.705 639.708C189.216 626.002 189.576 610.754 189.961 595.449C190.346 580.13 190.756 564.753 190.375 550.736C189.993 536.71 188.819 524.121 186.063 514.364L187.988 513.82Z" fill="#8766FF"/>
<rect x="-1.5" y="1.5" width="260" height="673" rx="15.5" transform="matrix(-1 0 0 1 261 0)" stroke="#696187" stroke-width="3"/>
</svg>
