<svg width="299" height="676" viewBox="0 0 299 676" fill="none" xmlns="http://www.w3.org/2000/svg">
<path d="M125.107 380.388C125.678 383.652 125.09 386.482 123.186 386.815C121.282 387.148 117.305 385.117 116.734 381.853C116.163 378.589 116.985 374.195 118.889 373.862C121.844 373.345 124.535 377.124 125.107 380.388Z" fill="#7755F1"/>
<path d="M157.734 377.036C158.305 380.3 159.819 382.762 161.723 382.429C163.627 382.096 166.678 378.835 166.107 375.571C165.535 372.307 163.27 368.453 161.366 368.786C158.411 369.303 157.163 373.772 157.734 377.036Z" fill="#7755F1"/>
<path d="M15.1408 637H246.141V676H15.1408V637Z" fill="#BBABF7"/>
<path d="M262.641 649H262.141V659H262.132C262.138 659.166 262.141 659.333 262.141 659.5C261.641 668.5 255.141 676.5 245.141 675C234.641 672 230.641 669 228.641 659.5C228.641 655.449 230.171 651.761 232.808 649H29.3741C32.9156 651.836 35.1408 655.938 35.1408 660.5C35.1408 669.061 27.3058 676 17.6408 676C7.14081 673 3.14081 670.5 1.14081 661C1.14081 660.665 1.15129 660.331 1.172 660H1.14081V649H0.447693V539.474C-0.194244 534.593 -0.159582 529.281 0.640807 523.5C5.14083 491 72.6408 452.456 127.141 452.456C177.988 452.456 260.131 505.861 262.585 539H262.641V649Z" fill="#BBABF7"/>
<path d="M1.36198 599.845L1.01711 600.207L0.293038 599.517L0.637901 599.155L1.36198 599.845ZM81.6144 532.902C69.9582 549.923 55.516 560.73 41.1866 570.248C26.8364 579.779 12.658 587.986 1.36198 599.845L0.637901 599.155C12.0346 587.191 26.3562 578.898 40.6333 569.415C54.9311 559.918 69.2435 549.197 80.7893 532.337L81.6144 532.902Z" fill="#EEEAFC"/>
<path d="M194.475 674.844L194.631 675.319L193.681 675.631L193.525 675.156L194.475 674.844ZM185.981 514.364C188.789 524.305 189.966 537.045 190.349 551.103C190.732 565.167 190.32 580.587 189.935 595.894C189.55 611.209 189.192 626.41 189.678 640.063C190.165 653.723 191.498 665.788 194.475 674.844L193.525 675.156C190.502 665.962 189.167 653.78 188.679 640.098C188.191 626.41 188.55 611.178 188.935 595.869C189.321 580.554 189.731 565.162 189.349 551.131C188.967 537.093 187.792 524.454 185.019 514.636L185.981 514.364Z" fill="#EEEAFC"/>
<path d="M163.641 460C161.141 467 152.933 477.5 136.641 477.5C120.348 477.5 106.142 464 100.141 457C130.64 444 114.347 444 130.64 444C146.932 444 130.64 444 163.641 460Z" fill="#EEEAFC"/>
<rect x="111.141" y="416" width="39" height="45" fill="#EEEAFC"/>
<path fill-rule="evenodd" clip-rule="evenodd" d="M208.408 377.907C212.542 374.166 216.158 367.043 218.641 353.5C218.641 331 200.082 326.5 190.141 326.5C180.2 326.5 177.641 340.5 181.141 354.5C182.199 358.734 182.568 362.446 182.799 365.677C177.075 373.497 172.141 384.839 172.141 390C172.141 398.284 172.141 406.5 186.141 404C191.555 403.033 199.823 399 205.141 390C206.958 386.925 208.233 382.509 208.408 377.907ZM95.0518 362.28C95.1107 361.694 95.1409 361.1 95.1409 360.5C95.1409 350.283 86.4104 342 75.6409 342C64.8713 342 56.1409 350.283 56.1409 360.5C56.1409 367.736 60.5198 374.002 66.9007 377.042C66.7298 378.006 66.6409 378.994 66.6409 380C66.6409 390.493 79.1409 402.5 94.1409 400.5C105.463 400.5 108.141 390.493 108.141 380C108.141 371.929 102.711 365.033 95.0518 362.28Z" fill="#D6CCFB"/>
<path fill-rule="evenodd" clip-rule="evenodd" d="M145.111 436C160.641 436 183.641 413.794 183.641 379C189.141 343.5 169.621 315 138.141 315C113.279 315 98.6835 329.163 93.6457 352.257C85.9943 353.844 80.1409 362.513 80.1409 371C80.1409 379.279 85.7112 386.176 93.087 387.691C98.4614 415.27 118.36 436 145.111 436Z" fill="#EEEAFC"/>
<path d="M133.141 346.5C133.141 348.157 128.141 351.556 124.141 352C119.641 352.5 117.641 353 117.141 351C117.141 349 121.141 345.562 125.641 345C129.641 344.5 133.141 344.843 133.141 346.5Z" fill="#7755F1"/>
<path d="M170.641 350.5C170.141 351.5 166.641 352 163.641 351.5C157.141 349 158.641 346 159.141 345C160.641 344 162.141 344.5 165.641 345C169.141 346 170.641 349.5 170.641 350.5Z" fill="#7755F1"/>
<path d="M150.141 374C150.282 381.887 150.807 386.023 153.141 392.5C147.033 393.413 144.469 394.167 141.641 396" stroke="#7755F1" stroke-width="3" stroke-linecap="round" stroke-linejoin="round"/>
<path d="M130.141 402.5C132.675 406.38 135.508 407.513 142.641 408" stroke="#7755F1" stroke-width="3" stroke-linecap="round" stroke-linejoin="round"/>
<ellipse cx="171.141" cy="325" rx="13" ry="10" fill="#D6CDFB"/>
<path d="M110.141 422C124.141 435 139.141 437.5 151.141 435.613" stroke="#7655F1" stroke-linecap="round"/>
<path d="M108.829 553.596C87.5026 560.767 81.1942 549.905 75.8193 535.86C70.4444 521.815 89.2984 513.694 103.458 511.92C116.897 506.777 119.292 506.766 124.667 520.811C130.042 534.857 145.795 541.166 108.829 553.596Z" fill="#EEEAFC"/>
<path d="M119.333 521.56C114.225 522.764 110.02 519.63 108.601 513.786C101.855 510.228 122.518 505.684 127.626 504.48C142.041 501.862 155.45 499.043 156.868 504.887C158.287 510.732 141.641 516.301 119.333 521.56Z" fill="#EEEAFC"/>
<path d="M126.547 534.818C120.164 537.261 112.533 532.821 111.518 530.168C110.503 527.516 113.629 520.183 120.012 517.74C126.395 515.298 132.567 519.072 133.583 521.725C134.598 524.377 132.931 532.376 126.547 534.818Z" fill="#EEEAFC"/>
<path d="M126.867 545.097C120.484 547.54 112.853 543.1 111.838 540.447C110.823 537.795 113.949 530.462 120.332 528.019C126.715 525.576 132.887 529.351 133.902 532.004C134.917 534.656 133.25 542.654 126.867 545.097Z" fill="#EEEAFC"/>
<path d="M96.7724 526.634C93.8925 527.736 75.1855 530.057 75.7141 527.278C77.4296 518.261 97.2205 491.128 100.1 490.026C102.98 488.924 106.446 489.425 106.712 494.807C107.723 497.448 99.0778 512.349 96.7724 526.634Z" fill="#EEEAFC"/>
<path d="M131.722 519L121.222 521" stroke="#BBABF7" stroke-linecap="round"/>
<path d="M210.829 518.596C189.503 525.767 183.194 514.905 177.82 500.86C172.445 486.815 191.299 478.694 205.458 476.92C218.897 471.777 221.293 471.766 226.668 485.811C232.042 499.857 247.795 506.166 210.829 518.596Z" fill="#EEEAFC"/>
<path d="M221.333 486.56C216.225 487.764 212.02 484.63 210.601 478.786C203.855 475.228 224.518 470.684 229.626 469.48C244.041 466.862 257.45 464.043 258.868 469.887C260.287 475.732 243.641 481.301 221.333 486.56Z" fill="#EEEAFC"/>
<path d="M228.547 499.818C222.164 502.261 214.533 497.821 213.518 495.168C212.503 492.516 215.629 485.183 222.012 482.74C228.395 480.298 234.567 484.072 235.583 486.725C236.598 489.377 234.931 497.376 228.547 499.818Z" fill="#EEEAFC"/>
<path d="M228.867 510.097C222.484 512.54 214.853 508.1 213.838 505.447C212.823 502.795 215.949 495.462 222.332 493.019C228.715 490.576 234.887 494.351 235.902 497.004C236.917 499.656 235.25 507.654 228.867 510.097Z" fill="#EEEAFC"/>
<path d="M198.773 491.634C195.893 492.736 177.186 495.057 177.714 492.278C179.43 483.261 199.221 456.128 202.101 455.026C204.981 453.924 208.447 454.425 208.713 459.807C209.723 462.448 201.078 477.349 198.773 491.634Z" fill="#EEEAFC"/>
<path d="M233.722 484L223.222 486" stroke="#BBABF7" stroke-linecap="round"/>
<path d="M88 353L95.5 364" stroke="#BBABF7" stroke-width="4" stroke-linecap="round"/>
<path d="M89.5 553.5C61.2102 633.31 76.423 629.524 50.226 675.43" stroke="#EEEAFC"/>
<path d="M206.5 518C238.052 596.578 251.797 583.74 262.5 635.5" stroke="#EEEAFC"/>
<rect x="-0.5" y="0.5" width="262" height="675" rx="16.5" transform="matrix(-1 0 0 1 262 0)" stroke="#D2C9FB"/>
<path d="M76.699 154.571C76.5669 154.415 76.3963 154.296 76.2041 154.227C76.0119 154.157 75.8048 154.138 75.6034 154.173C75.3928 154.205 75.1953 154.295 75.0339 154.434C74.8725 154.572 74.7537 154.754 74.6913 154.958C73.7383 157.847 71.8953 160.36 69.4264 162.137C67.5472 163.485 65.3594 164.338 63.0641 164.62C62.8547 164.647 62.6566 164.73 62.4904 164.86C62.3243 164.99 62.1964 165.163 62.1202 165.36C62.0439 165.557 62.0222 165.77 62.0573 165.979C62.0924 166.187 62.183 166.381 62.3195 166.542L63.0517 167.449C64.3001 168.944 65.9827 170.013 67.8663 170.509C69.7499 171.005 71.7411 170.903 73.564 170.217C74.5671 169.843 75.5017 169.306 76.3302 168.627C78.2354 167.036 79.4325 164.754 79.6595 162.282C79.8865 159.81 79.1249 157.349 77.5414 155.437L76.699 154.571ZM77.2346 162.098C77.0796 163.93 76.2135 165.629 74.8218 166.831C73.3854 168.02 71.5362 168.59 69.6799 168.417C68.1145 168.28 66.6432 167.611 65.511 166.522C67.8392 165.91 70.0044 164.793 71.8533 163.251C73.7021 161.709 75.1895 159.78 76.2101 157.6C77.0612 158.936 77.4233 160.525 77.2346 162.098ZM56.9355 152.746C56.732 152.512 56.4455 152.367 56.1365 152.34C55.828 152.328 55.5272 152.438 55.2994 152.647L48.0825 158.592C47.8485 158.796 47.7026 159.082 47.6757 159.391C47.6639 159.7 47.7742 160.001 47.9827 160.228C48.4634 160.819 49.0573 161.309 49.7296 161.667C50.4018 162.026 51.1389 162.247 51.8975 162.317C52.7634 162.414 53.64 162.307 54.4567 162.003C55.0871 161.769 55.6722 161.428 56.1861 160.994C56.7814 160.5 57.2705 159.891 57.6239 159.203C57.9772 158.515 58.1875 157.762 58.2421 156.991C58.3848 155.459 57.915 153.933 56.9355 152.746ZM55.9282 156.815C55.8434 157.743 55.3937 158.6 54.6777 159.198C54.1196 159.661 53.4313 159.94 52.7081 159.994C51.9848 160.049 51.2624 159.878 50.641 159.503L55.782 155.394C55.9321 155.852 55.982 156.336 55.9282 156.815ZM103.504 138.794C102.048 139.321 100.857 140.397 100.186 141.793C99.5154 143.188 99.419 144.791 99.9172 146.257C100.026 146.55 100.24 146.792 100.516 146.937C100.805 147.066 101.132 147.08 101.431 146.977L110.283 143.855C110.572 143.75 110.807 143.535 110.939 143.258C111.071 142.98 111.089 142.662 110.989 142.372C110.74 141.644 110.346 140.975 109.832 140.403C109.317 139.831 108.692 139.37 107.995 139.046C107.302 138.704 106.547 138.506 105.775 138.462C105.003 138.419 104.231 138.532 103.504 138.794ZM101.969 144.355C101.977 143.629 102.202 142.921 102.616 142.324C103.029 141.727 103.612 141.268 104.289 141.005C105.167 140.705 106.126 140.756 106.966 141.148C107.433 141.374 107.844 141.701 108.167 142.107L101.969 144.355ZM106.714 126.42L105.708 125.314L104.884 126.541C101.628 131.213 96.9856 134.742 91.6136 136.631C87.1019 138.213 82.2529 138.577 77.5554 137.687C74.3608 134.354 70.6448 131.564 66.5531 129.426L65.2482 128.729L64.8832 130.188C63.4403 135.678 60.3186 140.58 55.9541 144.209C51.581 147.857 46.1649 150.027 40.4824 150.407L38.9932 150.504L39.5102 151.914C41.6889 159.14 45.7989 165.635 51.397 170.698C59.1439 177.579 72.974 184.079 81.6759 180.888C82.8419 180.47 83.9263 179.853 84.8805 179.063C86.6793 177.479 87.9683 175.397 88.5851 173.081C92.8231 176.8 99.9391 181.688 106.57 179.257L106.702 179.208C116.528 175.605 118.849 157.809 116.695 146.278C115.25 138.853 111.792 131.968 106.697 126.376L106.714 126.42ZM83.3538 177.149C76.3711 182.983 60.9158 176.005 52.9038 168.946C47.9795 164.514 44.2684 158.898 42.1223 152.63C47.7579 151.948 53.0783 149.658 57.4486 146.035C61.8055 142.392 65.0268 137.577 66.7309 132.159C72.5132 135.401 77.3619 140.079 80.8088 145.741C86.2844 154.88 90.3526 171.358 83.3538 177.149ZM114.368 146.681C116.313 157.164 114.443 174.145 105.798 177.016C101.392 178.631 95.2611 176.156 89.1269 170.333C89.6821 164.168 88.7673 157.96 86.4577 152.217L90.357 150.787C90.6417 150.677 90.8733 150.462 91.0045 150.186C91.1357 149.91 91.1565 149.595 91.0626 149.304C90.8094 148.578 90.4153 147.908 89.9027 147.335C89.3902 146.761 88.7694 146.294 88.0759 145.961C87.3825 145.627 86.6301 145.434 85.8619 145.393C85.0936 145.351 84.3248 145.462 83.5993 145.718C83.4297 145.255 83.1058 144.849 82.8782 144.433C81.9909 142.981 81.0122 141.587 79.948 140.259C84.1622 140.637 88.4087 140.111 92.4031 138.716C97.7448 136.836 102.442 133.475 105.945 129.026C110.218 134.092 113.119 140.172 114.368 146.681ZM84.6378 147.936C85.4512 147.703 86.3218 147.775 87.0861 148.138C87.5625 148.355 87.9815 148.681 88.3096 149.089L85.5999 150.083C85.273 149.328 84.9624 148.617 84.6378 147.936ZM98.1941 155.461L98.15 155.477C95.8355 156.326 93.9478 158.051 92.8945 160.28C91.8413 162.508 91.7071 165.062 92.521 167.389L92.9168 168.468C92.9896 168.667 93.1117 168.843 93.2717 168.981C93.4317 169.119 93.6242 169.215 93.8311 169.258C94.038 169.291 94.2501 169.271 94.4468 169.199C94.6436 169.127 94.8185 169.005 94.9546 168.846C96.3874 167.025 98.2429 165.581 100.36 164.639C103.169 163.45 106.283 163.183 109.253 163.877C109.46 163.916 109.673 163.898 109.871 163.825C110.069 163.753 110.243 163.628 110.376 163.465C110.513 163.305 110.605 163.112 110.643 162.905C110.682 162.698 110.664 162.484 110.594 162.286L110.19 161.184C109.771 160.025 109.128 158.959 108.298 158.049C107.468 157.138 106.466 156.399 105.35 155.875C104.235 155.352 103.027 155.053 101.795 154.996C100.564 154.939 99.3336 155.125 98.1742 155.544L98.1941 155.461ZM100.287 162.192L99.3399 162.539C97.5256 163.34 95.8714 164.463 94.4574 165.854C94.0868 164.179 94.3404 162.427 95.1705 160.926C96.0007 159.425 97.3504 158.279 98.966 157.703C99.8348 157.393 100.757 157.261 101.678 157.313C102.599 157.366 103.5 157.604 104.327 158.011C105.802 158.695 106.983 159.884 107.656 161.364C105.169 161.082 102.65 161.365 100.287 162.192ZM71.489 139.137L64.3543 145.102C64.2315 145.196 64.1294 145.314 64.0542 145.449C63.9791 145.585 63.9325 145.734 63.9174 145.887C63.907 146.204 64.02 146.512 64.2325 146.747C64.988 147.657 66.0032 148.316 67.1427 148.635C68.2822 148.954 69.4919 148.918 70.6104 148.532C71.2351 148.308 71.8158 147.977 72.3257 147.553C72.9262 147.066 73.4238 146.465 73.7894 145.784C74.155 145.103 74.3814 144.356 74.4553 143.587C74.5291 142.818 74.449 142.042 74.2197 141.304C73.9903 140.566 73.6162 139.881 73.1193 139.289C73.0228 139.171 72.9039 139.074 72.7694 139.002C72.635 138.93 72.4876 138.886 72.3359 138.872C72.1842 138.858 72.0313 138.874 71.8859 138.92C71.7405 138.965 71.6056 139.039 71.489 139.137ZM72.1119 143.357C72.0283 144.279 71.5874 145.131 70.8834 145.732L71.6156 146.638L70.8834 145.732C70.3238 146.192 69.6359 146.469 68.9134 146.523C68.191 146.578 67.4692 146.409 66.8467 146.038L71.9253 141.826C72.1056 142.315 72.1694 142.839 72.1119 143.357Z" fill="#EEEAFC"/>
<path d="M152.275 368.216C152.275 371.695 163.258 392.891 176.425 392.891C187.975 392.891 191.65 380.62 191.65 377.141C191.65 373.661 188.5 354.041 169.6 355.091C152.525 356.039 152.275 364.736 152.275 368.216Z" fill="#7755F1"/>
<path d="M138.543 360.417C141.693 371.442 131.648 387.717 129.618 387.717C127.589 387.717 115.443 397.167 105.993 390.342C97.5935 373.017 106.589 360.417 108.618 360.417C111.768 360.417 120.168 353.067 138.543 360.417Z" fill="#7755F1"/>
<path d="M96.1875 366.584H103.888C104.468 366.584 105.024 366.363 105.434 365.969C105.845 365.576 106.075 365.042 106.075 364.486C106.075 363.93 105.845 363.397 105.434 363.003C105.024 362.61 104.468 362.389 103.888 362.389H96.1875C95.6073 362.389 95.0509 362.61 94.6407 363.003C94.2305 363.397 94 363.93 94 364.486C94 365.042 94.2305 365.576 94.6407 365.969C95.0509 366.363 95.6073 366.584 96.1875 366.584ZM189.113 366.584H196.812C197.393 366.584 197.949 366.363 198.359 365.969C198.77 365.576 199 365.042 199 364.486C199 363.93 198.77 363.397 198.359 363.003C197.949 362.61 197.393 362.389 196.812 362.389H189.113C188.532 362.389 187.976 362.61 187.566 363.003C187.155 363.397 186.925 363.93 186.925 364.486C186.925 365.042 187.155 365.576 187.566 365.969C187.976 366.363 188.532 366.584 189.113 366.584Z" fill="#3C3B41"/>
<path d="M96.1875 362.389H102.75C104.788 359.784 107.43 357.67 110.467 356.214C113.505 354.758 116.854 354 120.25 354H172.75C176.146 354 179.495 354.758 182.533 356.214C185.57 357.67 188.212 359.784 190.25 362.389H196.812C197.393 362.389 197.949 362.61 198.359 363.003C198.77 363.397 199 363.93 199 364.486C199 365.043 198.77 365.576 198.359 365.969C197.949 366.363 197.393 366.584 196.812 366.584H192.788C193.996 369.229 194.621 372.085 194.625 374.973C194.625 388.102 188.062 395.945 177.125 395.945C165.312 395.945 151.706 379.167 150.875 367.59C149.492 367.023 148.004 366.73 146.5 366.73C144.996 366.73 143.508 367.023 142.125 367.59C141.294 379.167 127.688 395.945 115.875 395.945C104.938 395.945 98.375 388.102 98.375 374.973C98.3786 372.085 99.0041 369.229 100.213 366.584H96.1875C95.6073 366.584 95.0509 366.363 94.6407 365.969C94.2305 365.576 94 365.043 94 364.486C94 363.93 94.2305 363.397 94.6407 363.003C95.0509 362.61 95.6073 362.389 96.1875 362.389ZM177.125 391.751C188.544 391.751 190.25 381.222 190.25 374.973C190.25 370.523 188.406 366.255 185.124 363.109C181.842 359.962 177.391 358.195 172.75 358.195C160.062 358.195 155.25 358.908 155.25 366.584C155.25 375.937 167.675 391.751 177.125 391.751ZM141.775 363.144C144.856 362.25 148.144 362.25 151.225 363.144C151.553 361.31 152.401 359.598 153.675 358.195H139.281C140.571 359.593 141.434 361.306 141.775 363.144ZM115.875 391.751C125.325 391.751 137.75 375.937 137.75 366.584C137.75 358.908 132.938 358.195 120.25 358.195C115.609 358.195 111.158 359.962 107.876 363.109C104.594 366.255 102.75 370.523 102.75 374.973C102.75 381.222 104.456 391.751 115.875 391.751Z" fill="#BBABF7"/>
<path d="M111.258 364.722C111.447 368.031 110.99 369.349 108.971 370.553C111.132 370.676 111.758 372.084 112.159 376.23C112.062 372.213 112.264 370.367 114.539 370.117C112.209 369.395 111.581 368.095 111.258 364.722Z" fill="#D6CDFB"/>
<path fill-rule="evenodd" clip-rule="evenodd" d="M158.126 327.028C158.259 326.948 158.391 326.867 158.521 326.786C160.501 327.017 162.699 327.251 165.141 327.5C166.444 327.385 167.775 327.349 169.116 327.37C175.522 333.988 179.131 342.149 183.121 351.5C190.301 351.5 196.121 337.127 196.121 330.5C196.121 329.369 195.951 328.275 195.635 327.237C198.193 325.131 198.896 320.851 196.641 312.699C194.641 301.5 183.448 292.199 169.641 292.199C162.261 291.245 154.127 293.248 148.022 296.575C143.955 291.337 137.028 288 127.141 288C111.44 288 100.004 298.299 98.3479 309.663C96.3272 309.541 93.9461 309.64 91.1409 310C77.6409 310 64.1409 324.059 64.1409 334C64.1409 343.941 75.4383 354 88.1409 354C105.001 352.073 108.402 344.577 109.523 329.276C110.132 329.61 110.761 329.924 111.41 330.217C116.363 333.114 124.12 335 131.641 335C142.89 334.598 154.14 331.518 158.126 327.028Z" fill="#D6CDFB"/>
<path d="M192.685 70.4305C192.414 70.1638 192.048 70.0344 191.661 70.0053L160.496 68.68C159.91 68.6614 159.387 68.9702 159.281 69.4718L154.971 89.9363C153.594 88.0749 151.338 86.6568 148.578 86.0755C143.372 84.9791 138.461 87.4545 137.585 91.6177C136.708 95.7808 140.203 100.026 145.409 101.123C150.615 102.219 155.526 99.7439 156.403 95.5808L160.153 77.7747L188.724 78.9728L186.147 91.2114C184.77 89.35 182.451 87.9187 179.754 87.3506C174.547 86.2542 169.637 88.7297 168.76 92.8928C167.883 97.0559 171.378 101.302 176.585 102.398C181.791 103.495 186.701 101.019 187.578 96.8559L192.966 71.2753C193.029 70.9744 192.904 70.6338 192.685 70.4305ZM145.842 99.0665C142.016 98.2606 139.46 95.1556 140.104 92.0959C140.749 89.0363 144.34 87.2259 148.166 88.0317C151.992 88.8375 154.548 91.9426 153.904 95.0022C153.26 98.0619 149.668 99.8723 145.842 99.0665ZM177.007 100.392C173.181 99.5859 170.625 96.4808 171.269 93.4212C171.914 90.3616 175.505 88.5511 179.331 89.357C183.158 90.1628 185.713 93.2679 185.069 96.3275C184.425 99.3872 180.834 101.198 177.007 100.392ZM189.147 76.9665L160.575 75.7684L161.621 70.8028L190.192 72.0009L189.147 76.9665Z" fill="#EEEAFC"/>
<path d="M211.975 192.326C211.844 192.326 211.714 192.301 211.592 192.25C211.471 192.2 211.361 192.126 211.268 192.033L209.641 190.407L208.489 191.353L210.219 193.083C210.317 193.175 210.395 193.285 210.449 193.408C210.503 193.531 210.532 193.663 210.534 193.797C210.536 193.931 210.512 194.064 210.461 194.188C210.411 194.312 210.336 194.425 210.241 194.52C210.147 194.614 210.034 194.689 209.91 194.739C209.785 194.79 209.652 194.814 209.518 194.812C209.384 194.81 209.252 194.781 209.13 194.727C209.007 194.672 208.897 194.594 208.805 194.496L206.936 192.628L205.784 193.574L206.935 194.724C207.028 194.817 207.102 194.927 207.152 195.049C207.202 195.17 207.228 195.3 207.228 195.431C207.228 195.563 207.202 195.693 207.152 195.814C207.102 195.936 207.028 196.046 206.936 196.139C206.843 196.232 206.732 196.305 206.611 196.356C206.49 196.406 206.36 196.432 206.228 196.432C206.097 196.432 205.967 196.406 205.846 196.356C205.724 196.306 205.614 196.232 205.521 196.139L204.231 194.849L203.558 195.401C203.138 195.737 202.632 195.903 202.128 195.903C201.715 195.903 201.306 195.784 200.943 195.563L188.96 207.546C193.844 214.148 194.535 221.674 190.516 225.694C188.083 228.127 184.273 228.888 180.052 227.864C182.682 234.481 182.029 240.748 178.202 244.575C175.937 246.84 172.812 248.015 169.189 248.015C168.039 248.015 166.839 247.898 165.601 247.658C160.6 246.691 155.534 243.847 151.337 239.65C142.572 230.886 140.363 218.834 146.411 212.785C150.24 208.957 156.508 208.305 163.122 210.935C162.099 206.713 162.861 202.904 165.293 200.471C169.313 196.451 176.839 197.143 183.441 202.027L195.424 190.044C195.179 189.642 195.064 189.174 195.095 188.704C195.125 188.234 195.3 187.785 195.595 187.418L196.139 186.756L194.849 185.466C194.754 185.374 194.677 185.264 194.625 185.142C194.573 185.02 194.545 184.888 194.544 184.756C194.543 184.623 194.568 184.491 194.618 184.368C194.669 184.245 194.743 184.134 194.837 184.04C194.931 183.946 195.042 183.872 195.165 183.821C195.288 183.771 195.42 183.746 195.552 183.747C195.685 183.748 195.816 183.776 195.938 183.828C196.06 183.881 196.171 183.957 196.263 184.052L197.413 185.202L198.359 184.051L196.491 182.181C196.393 182.09 196.315 181.979 196.261 181.857C196.207 181.734 196.178 181.602 196.176 181.468C196.174 181.334 196.199 181.201 196.249 181.077C196.299 180.952 196.374 180.84 196.469 180.745C196.564 180.65 196.676 180.576 196.801 180.525C196.925 180.475 197.058 180.45 197.192 180.452C197.326 180.455 197.458 180.484 197.581 180.538C197.703 180.592 197.813 180.671 197.905 180.768L199.634 182.498L200.58 181.345L198.954 179.719C198.859 179.627 198.782 179.517 198.73 179.395C198.678 179.273 198.65 179.141 198.649 179.009C198.648 178.876 198.673 178.744 198.723 178.621C198.774 178.498 198.848 178.387 198.942 178.293C199.036 178.199 199.147 178.125 199.27 178.074C199.393 178.024 199.525 177.999 199.657 178C199.79 178.001 199.921 178.029 200.043 178.081C200.165 178.134 200.276 178.21 200.368 178.305L201.855 179.792L202.085 179.512C202.286 179.261 202.538 179.055 202.825 178.908C203.111 178.761 203.425 178.675 203.746 178.657C204.068 178.64 204.389 178.69 204.69 178.806C204.991 178.921 205.264 179.098 205.492 179.325L211.663 185.495C211.89 185.723 212.066 185.996 212.181 186.296C212.296 186.596 212.346 186.917 212.329 187.238C212.311 187.559 212.227 187.873 212.08 188.159C211.934 188.445 211.729 188.697 211.479 188.899L211.195 189.132L212.682 190.619C212.822 190.759 212.917 190.937 212.956 191.131C212.994 191.325 212.974 191.526 212.899 191.709C212.823 191.892 212.695 192.048 212.531 192.158C212.366 192.268 212.173 192.326 211.975 192.326ZM196.787 191.509L179.928 208.368C181.085 208.961 182.026 209.902 182.618 211.059L199.478 194.2L196.787 191.51V191.509ZM180.071 210.916C179.68 210.523 179.214 210.211 178.701 209.999C178.188 209.786 177.638 209.678 177.083 209.679C175.955 209.679 174.894 210.119 174.096 210.916C173.305 211.709 172.861 212.784 172.861 213.904C172.861 215.024 173.305 216.098 174.096 216.891C174.889 217.682 175.964 218.126 177.084 218.126C178.204 218.126 179.278 217.682 180.071 216.891C180.862 216.098 181.306 215.024 181.306 213.904C181.306 212.784 180.862 211.709 180.071 210.916ZM166.707 201.885C164.436 204.158 164.046 208.085 165.664 212.394C165.734 212.582 165.747 212.787 165.699 212.982C165.652 213.176 165.547 213.353 165.398 213.487C165.249 213.621 165.063 213.708 164.865 213.736C164.666 213.763 164.464 213.73 164.284 213.641C157.727 210.391 151.421 210.605 147.825 214.2C142.557 219.469 144.766 230.251 152.751 238.236C156.669 242.154 161.367 244.802 165.981 245.695C170.448 246.557 174.289 245.66 176.787 243.161C180.382 239.567 180.596 233.261 177.345 226.703C177.257 226.523 177.224 226.321 177.252 226.123C177.279 225.924 177.366 225.738 177.501 225.59C177.635 225.441 177.811 225.336 178.006 225.289C178.201 225.241 178.405 225.253 178.593 225.323C182.902 226.943 186.83 226.552 189.101 224.28C192.364 221.017 191.669 214.704 187.533 208.973L183.267 213.239C183.361 214.107 183.272 214.986 183.004 215.817C182.736 216.648 182.297 217.413 181.713 218.063C181.13 218.713 180.416 219.232 179.618 219.587C178.821 219.943 177.957 220.126 177.084 220.125C176.267 220.127 175.457 219.967 174.702 219.654C173.946 219.342 173.26 218.884 172.682 218.305C171.517 217.137 170.862 215.554 170.862 213.904C170.862 212.253 171.517 210.671 172.682 209.502C173.338 208.842 174.135 208.339 175.013 208.03C175.891 207.72 176.827 207.613 177.752 207.716L182.013 203.455C176.283 199.319 169.969 198.625 166.707 201.885ZM210.249 186.909L204.078 180.739C204.051 180.712 204.019 180.69 203.984 180.676C203.948 180.661 203.91 180.654 203.872 180.654H203.856C203.808 180.657 203.716 180.674 203.638 180.772L197.149 188.677C197.104 188.733 197.081 188.804 197.085 188.875C197.089 188.947 197.119 189.015 197.17 189.065L197.493 189.387L197.494 189.388L197.495 189.389L201.923 193.817C201.972 193.867 202.037 193.897 202.106 193.902C202.175 193.908 202.243 193.888 202.299 193.846L210.215 187.349L210.225 187.341C210.257 187.316 210.283 187.284 210.302 187.248C210.321 187.211 210.332 187.172 210.334 187.131C210.337 187.09 210.33 187.049 210.315 187.011C210.301 186.973 210.278 186.938 210.249 186.909Z" fill="#EEEAFC"/>
<path d="M167.118 237.598C166.931 237.786 166.676 237.891 166.411 237.891C166.146 237.891 165.892 237.786 165.704 237.598L153.39 225.282C153.203 225.095 153.097 224.84 153.097 224.575C153.097 224.31 153.203 224.056 153.39 223.868L156.673 220.584C156.861 220.397 157.115 220.292 157.38 220.292C157.645 220.292 157.9 220.397 158.087 220.584L170.402 232.9C170.59 233.088 170.695 233.342 170.695 233.607C170.695 233.872 170.59 234.127 170.402 234.314L167.118 237.598ZM157.38 222.706L155.51 224.576L166.411 235.476L168.281 233.606L157.381 222.706H157.38Z" fill="#EEEAFC"/>
</svg>
