<svg width="264" height="676" viewBox="0 0 264 676" fill="none" xmlns="http://www.w3.org/2000/svg">
<path d="M15.1408 635.5H13.6408V637V673.174C10.8074 672.172 8.74687 671.137 7.17721 669.797C4.98809 667.928 3.60378 665.327 2.64162 660.846C2.64428 660.594 2.65348 660.343 2.66908 660.094L2.76872 658.5H2.64081V649V647.5H1.94769V539.474V539.376L1.93489 539.279C1.31234 534.545 1.3426 529.368 2.12663 523.706C3.19051 516.022 8.01849 507.798 15.7258 499.724C23.4123 491.672 33.8475 483.893 45.8786 477.097C69.9565 463.495 100.204 453.956 127.141 453.956C152.149 453.956 185.106 467.137 212.199 484.562C225.72 493.259 237.699 502.962 246.43 512.509C255.208 522.108 260.514 531.343 261.089 539.111L261.141 539.816V647.5H260.641V649V657.5H260.581L260.633 659.05C260.638 659.186 260.64 659.322 260.641 659.459C260.4 663.625 258.776 667.493 256.143 670.127C253.986 672.283 251.119 673.652 247.641 673.682V637V635.5H246.141H15.1408ZM244.641 638.5V673.292C239.941 671.895 236.862 670.518 234.708 668.574C232.497 666.578 231.106 663.838 230.142 659.346C230.18 655.744 231.555 652.484 233.893 650.036L236.314 647.5H232.808H29.3741H25.1017L28.4364 650.171C31.6681 652.759 33.6408 656.449 33.6408 660.5C33.6408 668.008 26.7603 674.401 17.8476 674.499C17.4334 674.38 17.0313 674.262 16.6408 674.145V638.5H244.641ZM238.927 674.5H28.4182C33.3523 671.461 36.6408 666.38 36.6408 660.5C36.6408 656.742 35.2809 653.291 33.01 650.5H229.734C228.068 653.116 227.141 656.203 227.141 659.5V659.656L227.173 659.809C228.208 664.725 229.81 668.195 232.698 670.801C234.376 672.315 236.433 673.485 238.927 674.5Z" fill="#291E53" stroke="#8766FF" stroke-width="3"/>
<rect x="111.141" y="416" width="39" height="45" fill="#A298C9"/>
<path fill-rule="evenodd" clip-rule="evenodd" d="M199.158 349.043C201.559 344.012 202.194 336.048 199.34 322.579C190.784 301.769 171.908 304.665 162.714 308.446C153.52 312.226 156.477 326.147 165.038 337.765C167.628 341.278 169.38 344.571 170.822 347.471C168.502 356.88 168.252 369.247 170.215 374.02C173.365 381.682 176.49 389.28 188.487 381.644C193.127 378.691 199.239 371.817 200.735 361.47C201.246 357.936 200.747 353.366 199.158 349.043ZM88.3759 377.699C88.2076 377.135 88.0098 376.574 87.7815 376.019C83.8959 366.569 72.6716 362.229 62.7112 366.325C52.7508 370.42 47.8262 381.401 51.7117 390.85C54.4635 397.543 60.8962 401.672 67.954 402.058C68.1625 403.014 68.4559 403.962 68.8385 404.892C72.8291 414.597 88.956 420.948 102.068 413.394C112.54 409.088 111.211 398.815 107.22 389.11C104.151 381.645 96.5065 377.333 88.3759 377.699Z" fill="#726B8E"/>
<path fill-rule="evenodd" clip-rule="evenodd" d="M162.71 426.843C177.073 420.937 189.9 391.653 176.668 359.473C168.254 324.549 139.363 305.613 110.248 317.585C87.2535 327.04 79.1409 345.689 83.2643 368.964C76.7913 373.342 74.6744 383.585 77.9019 391.435C81.0504 399.092 88.8251 403.352 96.2227 401.948C111.682 425.411 137.968 437.016 162.71 426.843Z" fill="#A298C9"/>
<path fill-rule="evenodd" clip-rule="evenodd" d="M133.305 321.109C133.398 320.984 133.49 320.86 133.579 320.735C135.497 320.196 137.619 319.576 139.973 318.878C141.135 318.276 142.351 317.737 143.6 317.246C152.042 320.931 158.483 327.106 165.729 334.237C172.369 331.507 172.286 316.001 169.766 309.871C169.336 308.825 168.763 307.877 168.075 307.039C169.64 304.117 168.663 299.892 163.477 293.21C157.369 283.613 143.48 279.268 130.71 284.518C123.522 286.442 116.761 291.388 112.379 296.786C106.626 293.489 98.9503 293.037 89.8061 296.797C75.2847 302.768 68.6246 316.642 71.4148 327.782C69.4993 328.437 67.3351 329.435 64.8774 330.834C52.3917 335.968 45.2525 354.105 49.033 363.299C52.8136 372.493 67.0875 377.5 78.8357 372.669C93.6961 364.476 93.9911 356.249 89.2086 341.672C89.8992 341.749 90.6009 341.8 91.312 341.825C96.9946 342.62 104.886 341.414 111.842 338.554C122.093 333.905 131.326 326.778 133.305 321.109Z" fill="#726B8E"/>
<path d="M123.138 373.915C124.398 376.98 124.433 379.87 122.645 380.605C120.857 381.34 116.537 380.212 115.277 377.148C114.016 374.083 113.874 369.615 115.661 368.88C118.436 367.739 121.878 370.85 123.138 373.915Z" fill="#7755F1"/>
<path d="M123.138 373.915C124.398 376.98 124.433 379.87 122.645 380.605C120.857 381.34 116.537 380.212 115.277 377.148C114.016 374.083 113.874 369.615 115.661 368.88C118.436 367.739 121.878 370.85 123.138 373.915Z" fill="#291E53"/>
<path d="M154.774 361.448C156.034 364.512 158.042 366.591 159.83 365.856C161.618 365.121 163.895 361.28 162.635 358.215C161.375 355.15 158.333 351.875 156.546 352.61C153.771 353.751 153.513 358.383 154.774 361.448Z" fill="#291E53"/>
<path d="M117.603 348.62C118.233 350.152 114.901 355.197 111.37 357.129C107.399 359.303 105.739 360.526 104.516 358.866C103.755 357.017 106.148 352.316 110.096 350.085C113.605 348.101 116.972 347.087 117.603 348.62Z" fill="#291E53"/>
<path d="M153.806 338.058C153.724 339.173 150.677 340.967 147.713 341.645C140.75 341.805 140.997 338.46 141.079 337.345C142.086 335.85 143.663 335.742 147.09 334.873C150.708 334.467 153.426 337.133 153.806 338.058Z" fill="#291E53"/>
<path d="M143.783 367.589C146.914 374.829 148.972 378.454 153.593 383.558C148.291 386.725 146.207 388.397 144.288 391.168" stroke="#291E53" stroke-width="3" stroke-linecap="round" stroke-linejoin="round"/>
<path d="M136.125 401.553C139.944 404.178 142.995 404.148 149.777 401.886" stroke="#291E53" stroke-width="3" stroke-linecap="round" stroke-linejoin="round"/>
<path d="M137.936 367.83C143.516 381.401 137.836 396.524 125.355 401.657C112.873 406.789 98.1974 400.035 92.6176 386.465C87.0377 372.895 92.7175 357.771 105.199 352.639C117.68 347.506 132.356 354.26 137.936 367.83Z" fill="#8766FF" fill-opacity="0.14" stroke="#291E53"/>
<path d="M191.198 344.849C196.778 358.419 191.098 373.543 178.616 378.675C166.135 383.807 151.459 377.053 145.879 363.483C140.299 349.913 145.979 334.789 158.461 329.657C170.942 324.525 185.618 331.279 191.198 344.849Z" fill="#8766FF" fill-opacity="0.14" stroke="#291E53"/>
<path d="M140.244 376.072C143.888 370.899 146.272 370.316 150.88 371.699M80.2231 372.099L90.3921 377.108" stroke="#291E53" stroke-linecap="round" stroke-linejoin="round"/>
<ellipse cx="144.571" cy="314.284" rx="13" ry="10" transform="rotate(-22.3519 144.571 314.284)" fill="#726B8E"/>
<path d="M108.141 416.5C122.525 428.602 139.496 431.678 151.141 430.613" stroke="#291E53" stroke-linecap="round"/>
<path d="M77.849 246.615H103.151C104.436 246.611 105.667 246.099 106.576 245.19C107.484 244.282 107.996 243.05 108 241.766V224.849C108 223.563 107.489 222.33 106.58 221.42C105.67 220.511 104.437 220 103.151 220H77.849C76.5629 220 75.3296 220.511 74.4202 221.42C73.5109 222.33 73 223.563 73 224.849V241.766C73 243.052 73.5109 244.285 74.4202 245.194C75.3296 246.104 76.5629 246.615 77.849 246.615ZM89.851 244.427C90.115 242.933 90.8966 241.581 92.0586 240.606C93.2207 239.631 94.689 239.097 96.2057 239.097C97.7225 239.097 99.1908 239.631 100.353 240.606C101.515 241.581 102.297 242.933 102.56 244.427H89.851ZM75.1875 224.849C75.1894 224.144 75.4704 223.468 75.9691 222.969C76.4679 222.47 77.1437 222.189 77.849 222.187H103.151C103.856 222.189 104.532 222.47 105.031 222.969C105.53 223.468 105.811 224.144 105.813 224.849V241.766C105.816 242.193 105.716 242.615 105.522 242.996C105.328 243.376 105.045 243.705 104.697 243.953C104.312 241.935 103.22 240.121 101.618 238.835C100.016 237.55 98.0082 236.877 95.9549 236.937C93.9016 236.998 91.9371 237.788 90.4136 239.166C88.8902 240.544 87.9074 242.419 87.6417 244.456H77.849C77.4973 244.455 77.1492 244.385 76.8248 244.249C76.5005 244.113 76.2061 243.914 75.9588 243.664C75.7115 243.414 75.516 243.118 75.3836 242.792C75.2513 242.466 75.1846 242.117 75.1875 241.766V224.849Z" fill="#8766FF"/>
<path d="M96.2097 234.547C97.1707 234.547 98.1101 234.262 98.9094 233.729C99.7087 233.195 100.332 232.437 100.701 231.55C101.07 230.662 101.167 229.685 100.981 228.743C100.795 227.8 100.334 226.933 99.6564 226.252C98.9784 225.571 98.1138 225.106 97.1718 224.916C96.2298 224.726 95.2526 224.819 94.3636 225.184C93.4745 225.549 92.7134 226.169 92.1764 226.965C91.6394 227.762 91.3504 228.701 91.3461 229.661C91.3432 230.302 91.4669 230.937 91.71 231.529C91.9532 232.122 92.311 232.661 92.7629 233.115C93.2148 233.569 93.7519 233.929 94.3434 234.175C94.9349 234.42 95.5691 234.547 96.2097 234.547ZM96.2097 227.007C96.7399 227.007 97.2581 227.165 97.6986 227.46C98.1392 227.755 98.4821 228.174 98.684 228.664C98.8859 229.155 98.9376 229.694 98.8326 230.214C98.7275 230.733 98.4705 231.21 98.094 231.583C97.7176 231.957 97.2387 232.21 96.7182 232.311C96.1977 232.411 95.6589 232.355 95.1703 232.149C94.6818 231.943 94.2653 231.597 93.9739 231.154C93.6825 230.711 93.5293 230.192 93.5336 229.661C93.5394 228.956 93.8239 228.281 94.3251 227.783C94.8263 227.286 95.5037 227.007 96.2097 227.007ZM79.1909 229.18H84.3607C84.6508 229.18 84.929 229.065 85.1341 228.86C85.3392 228.655 85.4545 228.377 85.4545 228.086C85.4545 227.796 85.3392 227.518 85.1341 227.313C84.929 227.108 84.6508 226.993 84.3607 226.993H79.1909C78.9008 226.993 78.6226 227.108 78.4175 227.313C78.2124 227.518 78.0972 227.796 78.0972 228.086C78.0972 228.377 78.2124 228.655 78.4175 228.86C78.6226 229.065 78.9008 229.18 79.1909 229.18ZM79.1909 234.131H84.3607C84.6508 234.131 84.929 234.016 85.1341 233.811C85.3392 233.606 85.4545 233.328 85.4545 233.038C85.4545 232.747 85.3392 232.469 85.1341 232.264C84.929 232.059 84.6508 231.944 84.3607 231.944H79.1909C78.9008 231.944 78.6226 232.059 78.4175 232.264C78.2124 232.469 78.0972 232.747 78.0972 233.038C78.0972 233.328 78.2124 233.606 78.4175 233.811C78.6226 234.016 78.9008 234.131 79.1909 234.131Z" fill="#8766FF"/>
<path d="M79.584 241.642C80.188 241.642 80.6777 241.152 80.6777 240.548C80.6777 239.944 80.188 239.454 79.584 239.454C78.9799 239.454 78.4902 239.944 78.4902 240.548C78.4902 241.152 78.9799 241.642 79.584 241.642Z" fill="#8766FF"/>
<path d="M83.959 241.642C84.563 241.642 85.0527 241.152 85.0527 240.548C85.0527 239.944 84.563 239.454 83.959 239.454C83.3549 239.454 82.8652 239.944 82.8652 240.548C82.8652 241.152 83.3549 241.642 83.959 241.642Z" fill="#8766FF"/>
<path d="M116 87H58C57.7348 87 57.4804 87.1054 57.2929 87.2929C57.1054 87.4804 57 87.7348 57 88V132C57 132.265 57.1054 132.52 57.2929 132.707C57.4804 132.895 57.7348 133 58 133H89V140C89.0001 140.148 89.033 140.294 89.0963 140.428C89.1597 140.561 89.2519 140.679 89.3663 140.773C89.4807 140.867 89.6145 140.934 89.758 140.97C89.9016 141.006 90.0513 141.009 90.1963 140.98L95 140.02L99.8037 140.98C99.9487 141.009 100.098 141.006 100.242 140.97C100.385 140.934 100.519 140.867 100.634 140.773C100.748 140.679 100.84 140.561 100.904 140.428C100.967 140.294 101 140.148 101 140V133H116C116.265 133 116.52 132.895 116.707 132.707C116.895 132.52 117 132.265 117 132V88C117 87.7348 116.895 87.4804 116.707 87.2929C116.52 87.1054 116.265 87 116 87ZM99 138.78L95.1963 138.02C95.0667 137.994 94.9333 137.994 94.8037 138.02L91 138.78V133.929C91.0355 133.95 91.0747 133.963 91.1105 133.983C92.2985 134.65 93.6378 135 95 135C96.3623 135 97.7016 134.65 98.8896 133.983C98.9254 133.963 98.9645 133.95 98.9996 133.929L99 138.78ZM99.2871 131.188C99.271 131.205 99.2554 131.222 99.2402 131.24C99.2227 131.255 99.2051 131.271 99.1885 131.287C98.0708 132.385 96.5667 133 95 133C93.4333 133 91.9292 132.385 90.8115 131.287C90.7949 131.271 90.7773 131.255 90.7598 131.24C90.7446 131.222 90.729 131.205 90.7129 131.188C89.6113 130.073 88.9956 128.567 89 127C88.9964 126.712 89.0198 126.424 89.07 126.14C89.2754 124.709 89.991 123.401 91.085 122.457C92.179 121.512 93.5776 120.995 95.0229 121C96.4682 121.006 97.8629 121.534 98.9497 122.486C100.036 123.439 100.742 124.753 100.937 126.185C100.983 126.454 101.004 126.727 101 127C101.005 128.568 100.389 130.073 99.2871 131.188V131.188ZM101.647 122.567C101.598 122.495 101.545 122.426 101.494 122.355C101.412 122.242 101.332 122.128 101.245 122.02C101.185 121.946 101.122 121.875 101.06 121.804C100.974 121.704 100.889 121.605 100.799 121.509C100.73 121.438 100.659 121.369 100.589 121.301C100.498 121.212 100.407 121.123 100.312 121.039C100.237 120.972 100.159 120.908 100.082 120.844C99.9851 120.764 99.8876 120.686 99.7872 120.61C99.7061 120.549 99.6235 120.491 99.5402 120.433C99.4375 120.361 99.3333 120.293 99.2276 120.226C99.1413 120.172 99.0541 120.119 98.966 120.068C98.8571 120.006 98.7465 119.946 98.6345 119.888C98.5445 119.842 98.4545 119.796 98.363 119.754C98.2472 119.699 98.1294 119.649 98.0108 119.601C97.9184 119.563 97.8266 119.524 97.7326 119.49C97.6088 119.444 97.4826 119.405 97.3565 119.365C97.2639 119.336 97.1722 119.306 97.0783 119.28C96.945 119.244 96.8094 119.215 96.6737 119.185C96.583 119.165 96.4937 119.143 96.4021 119.127C96.2501 119.099 96.0957 119.081 95.9412 119.062C95.8635 119.053 95.7872 119.039 95.7089 119.032C95.475 119.012 95.2386 119 95 119C94.7614 119 94.525 119.012 94.291 119.033C94.2122 119.04 94.1353 119.054 94.057 119.063C93.9033 119.081 93.7498 119.1 93.5986 119.127C93.5042 119.144 93.4118 119.167 93.3186 119.187C93.1868 119.216 93.0551 119.244 92.9257 119.279C92.825 119.307 92.7267 119.339 92.6276 119.37C92.5096 119.408 92.3918 119.444 92.2761 119.487C92.1711 119.525 92.0685 119.568 91.9655 119.611C91.8625 119.653 91.7575 119.697 91.6555 119.745C91.546 119.796 91.4387 119.85 91.3318 119.905C91.2424 119.952 91.1537 119.999 91.0662 120.049C90.9525 120.114 90.841 120.181 90.7307 120.251C90.6574 120.298 90.5846 120.346 90.5124 120.395C90.394 120.476 90.2777 120.559 90.1638 120.645C90.1078 120.688 90.0531 120.732 89.9982 120.776C89.8743 120.875 89.7527 120.977 89.6349 121.084C89.5988 121.117 89.564 121.151 89.5285 121.184C89.3976 121.307 89.2697 121.432 89.1472 121.564C89.1344 121.578 89.1223 121.592 89.1096 121.606C88.2348 122.552 87.6058 123.698 87.2778 124.944C87.2728 124.963 87.2658 124.981 87.2609 125H68.8994C68.7016 124.04 68.2268 123.159 67.5338 122.466C66.8408 121.773 65.9599 121.298 65 121.101V98.8994C65.9599 98.7016 66.8408 98.2269 67.5338 97.5338C68.2269 96.8408 68.7016 95.9599 68.8994 95H105.101C105.298 95.9599 105.773 96.8408 106.466 97.5338C107.159 98.2269 108.04 98.7016 109 98.8994V121.101C108.04 121.298 107.159 121.773 106.466 122.466C105.773 123.159 105.298 124.04 105.101 125H102.739C102.71 124.887 102.672 124.778 102.639 124.668C102.612 124.579 102.588 124.489 102.558 124.401C102.506 124.25 102.446 124.104 102.385 123.957C102.358 123.892 102.335 123.824 102.306 123.759C102.213 123.55 102.112 123.347 102.003 123.149C101.974 123.097 101.941 123.049 101.911 122.998C101.827 122.852 101.741 122.707 101.647 122.567V122.567ZM115 131H101.929C101.951 130.962 101.966 130.92 101.988 130.882C102.117 130.652 102.234 130.415 102.34 130.173C102.359 130.128 102.382 130.085 102.401 130.04C102.518 129.754 102.618 129.46 102.7 129.161C102.722 129.083 102.739 129.002 102.759 128.923C102.816 128.69 102.863 128.455 102.899 128.217C102.912 128.127 102.927 128.039 102.938 127.949C102.977 127.634 102.998 127.317 103 127H106C106.265 127 106.52 126.895 106.707 126.707C106.895 126.52 107 126.265 107 126C107.001 125.205 107.317 124.442 107.88 123.88C108.442 123.317 109.205 123.001 110 123C110.265 123 110.52 122.895 110.707 122.707C110.895 122.52 111 122.265 111 122V98C111 97.7348 110.895 97.4804 110.707 97.2929C110.52 97.1054 110.265 97 110 97C109.205 96.9991 108.442 96.6828 107.88 96.1204C107.317 95.5579 107.001 94.7954 107 94C107 93.7348 106.895 93.4804 106.707 93.2929C106.52 93.1054 106.265 93 106 93H68C67.7348 93 67.4804 93.1054 67.2929 93.2929C67.1054 93.4804 67 93.7348 67 94C66.9991 94.7954 66.6828 95.5579 66.1204 96.1204C65.5579 96.6828 64.7954 96.9991 64 97C63.7348 97 63.4804 97.1054 63.2929 97.2929C63.1054 97.4804 63 97.7348 63 98V122C63 122.265 63.1054 122.52 63.2929 122.707C63.4804 122.895 63.7348 123 64 123C64.7954 123.001 65.5579 123.317 66.1204 123.88C66.6828 124.442 66.9991 125.205 67 126C67 126.265 67.1054 126.52 67.2929 126.707C67.4804 126.895 67.7348 127 68 127H87C87.002 127.318 87.0228 127.635 87.0621 127.95C87.0727 128.04 87.0872 128.128 87.1008 128.217C87.1371 128.455 87.184 128.691 87.2415 128.923C87.2615 129.003 87.2778 129.083 87.2999 129.162C87.3825 129.461 87.4827 129.755 87.5999 130.042C87.6181 130.086 87.6412 130.128 87.6599 130.172C87.7654 130.415 87.8831 130.652 88.0125 130.883C88.0339 130.921 88.0488 130.963 88.0709 131.001H59V89H115V131Z" fill="#8766FF"/>
<path d="M98 99H76C75.7348 99 75.4804 99.1054 75.2929 99.2929C75.1054 99.4804 75 99.7348 75 100V108C75 108.265 75.1054 108.52 75.2929 108.707C75.4804 108.895 75.7348 109 76 109H98C98.2652 109 98.5196 108.895 98.7071 108.707C98.8946 108.52 99 108.265 99 108V100C99 99.7348 98.8946 99.4804 98.7071 99.2929C98.5196 99.1054 98.2652 99 98 99ZM97 107H77V101H97V107Z" fill="#8766FF"/>
<path d="M195.869 165.447H166.119C165.528 165.447 165.058 164.977 165.058 164.386C165.058 163.795 165.528 163.325 166.119 163.325H195.88C196.471 163.325 196.941 163.795 196.941 164.386C196.93 164.966 196.46 165.447 195.869 165.447ZM195.869 175.805H166.119C165.528 175.805 165.058 175.334 165.058 174.744C165.058 174.153 165.528 173.683 166.119 173.683H195.88C196.471 173.683 196.941 174.153 196.941 174.744C196.93 175.334 196.46 175.805 195.869 175.805ZM195.869 186.174H166.119C165.528 186.174 165.058 185.703 165.058 185.113C165.058 184.522 165.528 184.052 166.119 184.052H195.88C196.471 184.052 196.941 184.522 196.941 185.113C196.93 185.692 196.46 186.174 195.869 186.174ZM195.869 196.531H166.119C165.528 196.531 165.058 196.061 165.058 195.47C165.058 194.88 165.528 194.409 166.119 194.409H195.88C196.471 194.409 196.941 194.88 196.941 195.47C196.93 196.061 196.46 196.531 195.869 196.531Z" fill="#8766FF"/>
<path d="M204.542 206.616H157.456C156.865 206.616 156.395 206.145 156.395 205.555V147.061C156.395 146.47 156.865 146 157.456 146H195.158C195.442 146 195.704 146.109 195.912 146.306L205.297 155.691C205.493 155.887 205.603 156.161 205.603 156.445V205.555C205.603 206.134 205.122 206.616 204.542 206.616ZM158.517 204.494H203.481V156.883L194.72 148.122H158.517V204.494Z" fill="#8766FF"/>
<path d="M204.542 157.506H195.158C194.567 157.506 194.097 157.036 194.097 156.445V147.061C194.097 146.47 194.567 146 195.158 146C195.749 146 196.219 146.47 196.219 147.061V155.384H204.542C205.133 155.384 205.603 155.855 205.603 156.445C205.603 157.025 205.122 157.506 204.542 157.506Z" fill="#8766FF"/>
<path d="M195.147 216H148.061C147.47 216 147 215.53 147 214.939V156.445C147 155.855 147.47 155.384 148.061 155.384H157.456C158.047 155.384 158.517 155.855 158.517 156.445C158.517 157.036 158.047 157.506 157.456 157.506H149.122V213.878H194.086V205.555C194.086 204.964 194.556 204.494 195.147 204.494C195.737 204.494 196.208 204.964 196.208 205.555V214.939C196.208 215.53 195.737 216 195.147 216Z" fill="#8766FF"/>
<rect x="2" y="624" width="260" height="52" fill="#291E53"/>
<rect x="113" y="537" width="119" height="19" fill="#A298C9"/>
<rect x="118" y="611" width="119" height="19" fill="#A298C9"/>
<rect x="125" y="574" width="119" height="19" fill="#A298C9"/>
<path d="M255.996 583.437C255.854 578.254 253.804 573.305 250.239 569.54C246.674 565.775 241.845 563.458 236.678 563.033C237.326 562.522 237.939 561.969 238.514 561.378C240.451 559.418 241.978 557.091 243.004 554.533C244.03 551.975 244.534 549.237 244.488 546.482C244.333 541 242.048 535.795 238.117 531.97C234.187 528.146 228.921 526.005 223.437 526H112.985C111.703 526 110.472 526.51 109.566 527.416C108.659 528.323 108.149 529.553 108.149 530.836V533.422C108.149 534.677 108.55 535.899 109.295 536.909C110.039 537.919 111.088 538.664 112.287 539.034V554.99C111.086 555.365 110.036 556.115 109.292 557.129C108.548 558.144 108.147 559.369 108.149 560.628V563.214C108.142 563.853 108.262 564.488 108.502 565.08C108.742 565.673 109.097 566.212 109.547 566.667C109.997 567.121 110.532 567.482 111.122 567.728C111.713 567.975 112.346 568.101 112.985 568.101H119.657V570.507C119.661 571.76 120.064 572.98 120.808 573.99C121.552 574.999 122.598 575.744 123.795 576.118V591.971C122.598 592.353 121.553 593.105 120.81 594.118C120.067 595.13 119.663 596.352 119.657 597.609V600.195C119.63 600.522 119.63 600.85 119.657 601.177C115.722 602.649 112.318 605.266 109.884 608.691C107.45 612.116 106.098 616.192 106.003 620.392C105.958 623.126 106.462 625.841 107.483 628.377C108.505 630.913 110.024 633.219 111.951 635.159C114.022 637.282 116.495 638.972 119.225 640.131C121.955 641.29 124.889 641.894 127.855 641.908H237.505C238.79 641.901 240.02 641.386 240.926 640.475C241.832 639.564 242.341 638.331 242.341 637.046V634.46C242.338 633.207 241.935 631.987 241.191 630.977C240.446 629.968 239.4 629.223 238.203 628.849V612.996C239.4 612.614 240.445 611.862 241.188 610.849C241.932 609.837 242.335 608.614 242.341 607.358V604.772C242.334 604.361 242.273 603.952 242.16 603.557C245.122 602.404 247.809 600.642 250.048 598.385C251.987 596.416 253.512 594.08 254.534 591.513C255.556 588.945 256.053 586.199 255.996 583.437ZM118.933 539.474H223.075C224.169 539.331 225.281 539.424 226.336 539.746C227.391 540.067 228.366 540.61 229.195 541.339C230.023 542.067 230.687 542.963 231.142 543.968C231.597 544.973 231.832 546.064 231.832 547.167C231.832 548.27 231.597 549.361 231.142 550.366C230.687 551.371 230.023 552.268 229.195 552.996C228.366 553.724 227.391 554.267 226.336 554.588C225.281 554.91 224.169 555.003 223.075 554.861H117.459V539.474H118.933ZM113.321 560.654C113.321 560.461 113.398 560.277 113.533 560.142C113.669 560.006 113.853 559.929 114.045 559.929H223.075C224.873 560.11 226.688 559.912 228.405 559.347C230.122 558.783 231.701 557.865 233.041 556.653C234.381 555.44 235.452 553.961 236.185 552.309C236.918 550.658 237.297 548.871 237.297 547.064C237.297 545.257 236.918 543.47 236.185 541.818C235.452 540.167 234.381 538.687 233.041 537.475C231.701 536.263 230.122 535.345 228.405 534.78C226.688 534.216 224.873 534.017 223.075 534.198H114.045C113.855 534.191 113.675 534.113 113.541 533.979C113.406 533.844 113.328 533.664 113.321 533.474V531.172H223.437C225.523 531.162 227.591 531.568 229.518 532.368C231.445 533.167 233.194 534.343 234.66 535.827C237.537 538.703 239.203 542.571 239.315 546.637C239.351 548.698 238.971 550.745 238.198 552.655C237.425 554.566 236.274 556.301 234.816 557.757C233.228 559.382 231.334 560.676 229.244 561.564C227.153 562.451 224.907 562.916 222.635 562.929H113.321V560.654ZM130.57 576.325H234.583C235.683 576.168 236.804 576.25 237.87 576.564C238.936 576.878 239.922 577.418 240.762 578.146C241.601 578.874 242.274 579.774 242.735 580.785C243.197 581.796 243.436 582.895 243.436 584.006C243.436 585.117 243.197 586.216 242.735 587.227C242.274 588.238 241.601 589.138 240.762 589.866C239.922 590.594 238.936 591.134 237.87 591.448C236.804 591.762 235.683 591.843 234.583 591.687H128.967V576.325H130.57ZM232.307 628.642H127.415C126.321 628.784 125.21 628.691 124.154 628.369C123.099 628.048 122.124 627.505 121.296 626.777C120.467 626.049 119.803 625.152 119.348 624.147C118.893 623.142 118.658 622.051 118.658 620.948C118.658 619.845 118.893 618.754 119.348 617.749C119.803 616.744 120.467 615.848 121.296 615.12C122.124 614.391 123.099 613.848 124.154 613.527C125.21 613.205 126.321 613.112 127.415 613.254H233.031V628.642H232.307ZM237.169 605.057V607.358C237.169 607.55 237.093 607.734 236.957 607.87C236.821 608.006 236.637 608.082 236.445 608.082H127.415C125.618 607.902 123.802 608.1 122.085 608.665C120.369 609.229 118.789 610.147 117.449 611.359C116.109 612.571 115.038 614.051 114.305 615.703C113.572 617.354 113.194 619.141 113.194 620.948C113.194 622.755 113.572 624.542 114.305 626.194C115.038 627.845 116.109 629.325 117.449 630.537C118.789 631.749 120.369 632.667 122.085 633.232C123.802 633.796 125.618 633.994 127.415 633.814H236.445C236.635 633.82 236.815 633.899 236.95 634.033C237.084 634.168 237.162 634.348 237.169 634.538V636.84H127.855C125.584 636.826 123.337 636.362 121.247 635.474C119.156 634.586 117.262 633.292 115.675 631.667C114.221 630.202 113.074 628.462 112.302 626.548C111.529 624.634 111.146 622.585 111.175 620.521C111.276 616.375 112.993 612.433 115.959 609.534C118.925 606.636 122.906 605.01 127.053 605.005H237.169V605.057ZM234.143 599.884H124.829V597.609C124.829 597.414 124.905 597.227 125.04 597.087C125.175 596.947 125.359 596.865 125.553 596.859H234.583C236.389 597.058 238.217 596.873 239.948 596.318C241.678 595.763 243.272 594.849 244.626 593.636C245.979 592.423 247.062 590.939 247.803 589.28C248.544 587.62 248.928 585.823 248.928 584.006C248.928 582.189 248.544 580.392 247.803 578.732C247.062 577.073 245.979 575.588 244.626 574.376C243.272 573.163 241.678 572.249 239.948 571.694C238.217 571.139 236.389 570.954 234.583 571.153H125.553C125.364 571.147 125.183 571.068 125.049 570.934C124.914 570.799 124.836 570.619 124.829 570.429V568.127H234.945C239.092 568.133 243.073 569.758 246.039 572.657C249.006 575.555 250.722 579.498 250.823 583.644C250.859 585.705 250.479 587.752 249.706 589.662C248.933 591.573 247.782 593.308 246.324 594.764C244.732 596.38 242.836 597.664 240.746 598.543C238.655 599.422 236.411 599.878 234.143 599.884Z" fill="#8766FF"/>
<path d="M103 646C56.9363 620.634 48.2683 614.111 18 611" stroke="#8766FF" stroke-width="3"/>
<path d="M109 661C48.4893 666.13 25 669.5 3 667" stroke="#8766FF" stroke-width="3"/>
<rect x="1.64062" y="1.5" width="260" height="673" rx="15.5" stroke="#696187" stroke-width="3"/>
<mask id="path-36-inside-1_489_34" fill="white">
<path fill-rule="evenodd" clip-rule="evenodd" d="M104.317 638.237C111.505 629.175 134.279 612.428 137.092 612.248C140.169 612.052 143.33 613.561 141.984 618.778C142.062 620.013 139.681 622.937 136.436 626.92C134.481 629.32 132.213 632.105 129.981 635.136C130.671 635.398 131.346 635.686 132 636C143.799 642.778 160.531 642.12 174.383 641.575C188.119 641.034 199.023 640.605 199.472 647.651C200.428 662.659 150 670 129 670C105.309 670 101.456 663.508 100.5 648.5C100.22 644.111 101.729 640.707 104.317 638.237Z"/>
</mask>
<path fill-rule="evenodd" clip-rule="evenodd" d="M104.317 638.237C111.505 629.175 134.279 612.428 137.092 612.248C140.169 612.052 143.33 613.561 141.984 618.778C142.062 620.013 139.681 622.937 136.436 626.92C134.481 629.32 132.213 632.105 129.981 635.136C130.671 635.398 131.346 635.686 132 636C143.799 642.778 160.531 642.12 174.383 641.575C188.119 641.034 199.023 640.605 199.472 647.651C200.428 662.659 150 670 129 670C105.309 670 101.456 663.508 100.5 648.5C100.22 644.111 101.729 640.707 104.317 638.237Z" fill="#A298C9"/>
<path d="M104.317 638.237L105.698 639.684L105.798 639.588L105.884 639.48L104.317 638.237ZM137.092 612.248L136.965 610.253H136.965L137.092 612.248ZM141.984 618.778L140.047 618.279L139.967 618.587L139.988 618.905L141.984 618.778ZM136.436 626.92L137.987 628.183V628.183L136.436 626.92ZM129.981 635.136L128.37 633.951L126.807 636.073L129.272 637.007L129.981 635.136ZM132 636L132.996 634.266L132.932 634.229L132.865 634.197L132 636ZM174.383 641.575L174.304 639.576L174.383 641.575ZM199.472 647.651L201.468 647.524L199.472 647.651ZM100.5 648.5L102.496 648.373L100.5 648.5ZM105.884 639.48C109.311 635.16 116.624 628.836 123.565 623.497C127.008 620.848 130.302 618.485 132.893 616.782C134.192 615.928 135.289 615.257 136.126 614.802C136.547 614.573 136.873 614.415 137.109 614.316C137.398 614.196 137.394 614.233 137.219 614.244L136.965 610.253C136.438 610.286 135.926 610.476 135.569 610.624C135.159 610.795 134.701 611.024 134.215 611.288C133.241 611.818 132.041 612.556 130.696 613.439C128.002 615.21 124.626 617.634 121.126 620.327C114.179 625.671 106.511 632.253 102.75 636.994L105.884 639.48ZM137.219 614.244C138.478 614.164 139.353 614.469 139.784 614.899C140.107 615.222 140.618 616.065 140.047 618.279L143.92 619.278C144.695 616.275 144.299 613.755 142.61 612.068C141.027 610.488 138.784 610.137 136.965 610.253L137.219 614.244ZM139.988 618.905C139.971 618.636 140.067 618.633 139.829 619.094C139.631 619.477 139.304 619.992 138.83 620.653C137.884 621.975 136.523 623.646 134.885 625.657L137.987 628.183C139.594 626.21 141.046 624.428 142.082 622.983C142.599 622.261 143.056 621.564 143.384 620.927C143.672 620.369 144.036 619.538 143.98 618.651L139.988 618.905ZM134.885 625.657C132.933 628.053 130.635 630.874 128.37 633.951L131.591 636.322C133.79 633.336 136.029 630.587 137.987 628.183L134.885 625.657ZM129.272 637.007C129.912 637.249 130.533 637.515 131.134 637.803L132.865 634.197C132.158 633.857 131.431 633.547 130.689 633.266L129.272 637.007ZM131.003 637.734C137.265 641.331 144.729 642.901 152.256 643.527C159.787 644.153 167.556 643.845 174.461 643.573L174.304 639.576C167.358 639.849 159.834 640.143 152.587 639.54C145.335 638.937 138.533 637.447 132.996 634.266L131.003 637.734ZM174.461 643.573C181.41 643.3 187.34 643.075 191.6 643.744C193.724 644.077 195.194 644.601 196.12 645.272C196.947 645.872 197.402 646.623 197.476 647.778L201.468 647.524C201.317 645.156 200.241 643.319 198.468 642.034C196.794 640.82 194.595 640.165 192.22 639.792C187.482 639.049 181.092 639.309 174.304 639.576L174.461 643.573ZM197.476 647.778C197.635 650.272 195.668 652.984 190.829 655.736C186.144 658.4 179.482 660.672 171.992 662.511C157.038 666.184 139.341 668 129 668V672C139.659 672 157.676 670.146 172.946 666.396C180.569 664.524 187.648 662.147 192.806 659.213C197.809 656.368 201.787 652.535 201.468 647.524L197.476 647.778ZM129 668C117.19 668 110.979 666.347 107.533 663.366C104.166 660.452 102.973 655.859 102.496 648.373L98.504 648.627C98.9833 656.149 100.195 662.306 104.916 666.39C109.558 670.407 117.119 672 129 672V668ZM102.496 648.373C102.254 644.571 103.539 641.744 105.698 639.684L102.936 636.79C99.9187 639.67 98.1869 643.651 98.504 648.627L102.496 648.373Z" fill="#291E53" mask="url(#path-36-inside-1_489_34)"/>
<path d="M160.5 459C158 466 149.792 476.5 133.5 476.5C117.208 476.5 103.001 463 97 456C127.499 443 111.207 443 127.499 443C143.791 443 127.499 443 160.5 459Z" fill="#A298C9"/>
</svg>
