<svg width="264" height="676" viewBox="0 0 264 676" fill="none" xmlns="http://www.w3.org/2000/svg">
<path d="M15.1408 637H246.141V676H15.1408V637Z" fill="#BBABF7"/>
<path d="M262.641 649H262.141V659H262.132C262.138 659.166 262.141 659.333 262.141 659.5C261.641 668.5 255.141 676.5 245.141 675C234.641 672 230.641 669 228.641 659.5C228.641 655.449 230.171 651.761 232.808 649H29.3741C32.9156 651.836 35.1408 655.938 35.1408 660.5C35.1408 669.061 27.3058 676 17.6408 676C7.14081 673 3.14081 670.5 1.14081 661C1.14081 660.665 1.15129 660.331 1.172 660H1.14081V649H0.447693V539.474C-0.194244 534.593 -0.159582 529.281 0.640807 523.5C5.14083 491 72.6408 452.456 127.141 452.456C177.988 452.456 260.131 505.861 262.585 539H262.641V649Z" fill="#BBABF7"/>
<rect x="111.141" y="416" width="39" height="45" fill="#EEEAFC"/>
<path fill-rule="evenodd" clip-rule="evenodd" d="M199.158 349.043C201.559 344.012 202.194 336.048 199.34 322.579C190.784 301.769 171.908 304.665 162.714 308.446C153.52 312.226 156.477 326.148 165.038 337.765C167.628 341.278 169.38 344.571 170.822 347.471C168.502 356.88 168.252 369.247 170.215 374.02C173.365 381.682 176.49 389.28 188.487 381.644C193.127 378.691 199.239 371.817 200.735 361.47C201.246 357.936 200.747 353.366 199.158 349.043ZM88.3759 377.699C88.2076 377.135 88.0098 376.574 87.7815 376.019C83.8959 366.569 72.6716 362.229 62.7112 366.325C52.7508 370.42 47.8262 381.401 51.7117 390.851C54.4635 397.543 60.8962 401.673 67.954 402.058C68.1625 403.014 68.4559 403.962 68.8385 404.892C72.8291 414.597 88.956 420.948 102.068 413.394C112.54 409.088 111.211 398.815 107.22 389.11C104.151 381.645 96.5065 377.333 88.3759 377.699Z" fill="#D6CCFB"/>
<path fill-rule="evenodd" clip-rule="evenodd" d="M162.71 426.843C177.073 420.937 189.9 391.653 176.668 359.473C168.254 324.549 139.363 305.613 110.248 317.585C87.2535 327.04 79.1409 345.689 83.2643 368.964C76.7913 373.342 74.6744 383.585 77.9019 391.435C81.0504 399.092 88.8251 403.352 96.2227 401.948C111.682 425.411 137.968 437.016 162.71 426.843Z" fill="#EEEAFC"/>
<path fill-rule="evenodd" clip-rule="evenodd" d="M133.305 321.109C133.398 320.984 133.49 320.86 133.579 320.735C135.497 320.196 137.619 319.576 139.973 318.878C141.135 318.276 142.351 317.737 143.6 317.246C152.042 320.931 158.483 327.106 165.729 334.237C172.369 331.507 172.286 316.001 169.766 309.871C169.336 308.825 168.763 307.877 168.075 307.039C169.64 304.117 168.663 299.892 163.477 293.21C157.369 283.613 143.48 279.268 130.71 284.518C123.522 286.442 116.761 291.388 112.379 296.786C106.626 293.489 98.9503 293.037 89.8061 296.797C75.2847 302.768 68.6246 316.642 71.4148 327.782C69.4993 328.437 67.3351 329.435 64.8774 330.834C52.3917 335.968 45.2525 354.105 49.033 363.299C52.8136 372.493 67.0875 377.5 78.8357 372.669C93.6961 364.476 93.9911 356.249 89.2086 341.672C89.8992 341.749 90.6009 341.8 91.312 341.825C96.9946 342.62 104.886 341.414 111.842 338.554C122.093 333.905 131.326 326.778 133.305 321.109Z" fill="#D6CDFB"/>
<path d="M123.138 373.915C124.398 376.98 124.433 379.87 122.645 380.605C120.857 381.34 116.537 380.212 115.277 377.148C114.016 374.083 113.874 369.615 115.661 368.88C118.436 367.739 121.878 370.85 123.138 373.915Z" fill="#7755F1"/>
<path d="M123.138 373.915C124.398 376.98 124.433 379.87 122.645 380.605C120.857 381.34 116.537 380.212 115.277 377.148C114.016 374.083 113.874 369.615 115.661 368.88C118.436 367.739 121.878 370.85 123.138 373.915Z" fill="#7755F1"/>
<path d="M154.774 361.448C156.034 364.512 158.042 366.591 159.83 365.856C161.618 365.121 163.895 361.28 162.635 358.215C161.375 355.15 158.333 351.875 156.546 352.61C153.771 353.751 153.513 358.383 154.774 361.448Z" fill="#7755F1"/>
<path d="M117.603 348.62C118.233 350.152 114.901 355.197 111.37 357.129C107.399 359.303 105.739 360.526 104.516 358.866C103.755 357.017 106.148 352.316 110.096 350.085C113.605 348.101 116.972 347.087 117.603 348.62Z" fill="#7755F1"/>
<path d="M153.806 338.058C153.724 339.173 150.677 340.967 147.713 341.645C140.75 341.805 140.997 338.46 141.079 337.345C142.086 335.85 143.663 335.742 147.09 334.873C150.708 334.467 153.426 337.133 153.806 338.058Z" fill="#7755F1"/>
<path d="M143.783 367.589C146.914 374.829 148.972 378.454 153.593 383.558C148.291 386.725 146.207 388.397 144.288 391.168" stroke="#7755F1" stroke-width="3" stroke-linecap="round" stroke-linejoin="round"/>
<path d="M136.125 401.553C139.944 404.178 142.995 404.148 149.777 401.886" stroke="#7755F1" stroke-width="3" stroke-linecap="round" stroke-linejoin="round"/>
<path d="M137.936 367.831C143.516 381.401 137.836 396.524 125.355 401.657C112.873 406.789 98.1974 400.035 92.6176 386.465C87.0377 372.895 92.7175 357.771 105.199 352.639C117.68 347.507 132.356 354.26 137.936 367.831Z" fill="#BBABF7" fill-opacity="0.1" stroke="#7D5EF1"/>
<path d="M191.198 344.849C196.778 358.419 191.098 373.543 178.616 378.675C166.135 383.807 151.459 377.053 145.879 363.483C140.299 349.913 145.979 334.789 158.461 329.657C170.942 324.525 185.618 331.279 191.198 344.849Z" fill="#BBABF7" fill-opacity="0.1" stroke="#7D5EF1"/>
<path d="M140.244 376.072C143.888 370.899 146.272 370.316 150.88 371.699M80.2231 372.099L90.3921 377.108" stroke="#7755F1" stroke-linecap="round" stroke-linejoin="round"/>
<ellipse cx="144.571" cy="314.284" rx="13" ry="10" transform="rotate(-22.3519 144.571 314.284)" fill="#D6CDFB"/>
<path d="M108.141 416.5C122.525 428.602 139.496 431.678 151.141 430.613" stroke="#7655F1" stroke-linecap="round"/>
<rect x="113" y="537" width="119" height="19" fill="#EEEAFC"/>
<rect x="118" y="611" width="119" height="19" fill="#EEEAFC"/>
<rect x="125" y="574" width="119" height="19" fill="#EEEAFC"/>
<path d="M255.996 583.437C255.854 578.254 253.804 573.305 250.239 569.54C246.674 565.775 241.845 563.458 236.678 563.033C237.326 562.522 237.939 561.969 238.514 561.378C240.451 559.418 241.978 557.091 243.004 554.533C244.03 551.975 244.534 549.237 244.488 546.482C244.333 541 242.048 535.795 238.117 531.97C234.187 528.146 228.921 526.005 223.437 526H112.985C111.703 526 110.472 526.51 109.566 527.416C108.659 528.323 108.149 529.553 108.149 530.836V533.422C108.149 534.677 108.55 535.899 109.295 536.909C110.039 537.919 111.088 538.664 112.287 539.034V554.99C111.086 555.365 110.036 556.115 109.292 557.129C108.548 558.144 108.147 559.369 108.149 560.628V563.214C108.142 563.853 108.262 564.488 108.502 565.08C108.742 565.673 109.097 566.212 109.547 566.667C109.997 567.121 110.532 567.482 111.122 567.728C111.713 567.975 112.346 568.101 112.985 568.101H119.657V570.507C119.661 571.76 120.064 572.98 120.808 573.99C121.552 574.999 122.598 575.744 123.795 576.118V591.971C122.598 592.353 121.553 593.105 120.81 594.118C120.067 595.13 119.663 596.352 119.657 597.609V600.195C119.63 600.522 119.63 600.85 119.657 601.177C115.722 602.649 112.318 605.266 109.884 608.691C107.45 612.116 106.098 616.192 106.003 620.392C105.958 623.126 106.462 625.841 107.483 628.377C108.505 630.913 110.024 633.219 111.951 635.159C114.022 637.282 116.495 638.972 119.225 640.131C121.955 641.29 124.889 641.894 127.855 641.908H237.505C238.79 641.901 240.02 641.386 240.926 640.475C241.832 639.564 242.341 638.331 242.341 637.046V634.46C242.338 633.207 241.935 631.987 241.191 630.977C240.446 629.968 239.4 629.223 238.203 628.849V612.996C239.4 612.614 240.445 611.862 241.188 610.849C241.932 609.837 242.335 608.614 242.341 607.358V604.772C242.334 604.361 242.273 603.952 242.16 603.557C245.122 602.404 247.809 600.642 250.048 598.385C251.987 596.416 253.512 594.08 254.534 591.513C255.556 588.945 256.053 586.199 255.996 583.437ZM118.933 539.474H223.075C224.169 539.331 225.281 539.424 226.336 539.746C227.391 540.067 228.366 540.61 229.195 541.339C230.023 542.067 230.687 542.963 231.142 543.968C231.597 544.973 231.832 546.064 231.832 547.167C231.832 548.27 231.597 549.361 231.142 550.366C230.687 551.371 230.023 552.268 229.195 552.996C228.366 553.724 227.391 554.267 226.336 554.588C225.281 554.91 224.169 555.003 223.075 554.861H117.459V539.474H118.933ZM113.321 560.654C113.321 560.461 113.398 560.277 113.533 560.142C113.669 560.006 113.853 559.929 114.045 559.929H223.075C224.873 560.11 226.688 559.912 228.405 559.347C230.122 558.783 231.701 557.865 233.041 556.653C234.381 555.44 235.452 553.961 236.185 552.309C236.918 550.658 237.297 548.871 237.297 547.064C237.297 545.257 236.918 543.47 236.185 541.818C235.452 540.167 234.381 538.687 233.041 537.475C231.701 536.263 230.122 535.345 228.405 534.78C226.688 534.216 224.873 534.017 223.075 534.198H114.045C113.855 534.191 113.675 534.113 113.541 533.979C113.406 533.844 113.328 533.664 113.321 533.474V531.172H223.437C225.523 531.162 227.591 531.568 229.518 532.368C231.445 533.167 233.194 534.343 234.66 535.827C237.537 538.703 239.203 542.571 239.315 546.637C239.351 548.698 238.971 550.745 238.198 552.655C237.425 554.566 236.274 556.301 234.816 557.757C233.228 559.382 231.334 560.676 229.244 561.564C227.153 562.451 224.907 562.916 222.635 562.929H113.321V560.654ZM130.57 576.325H234.583C235.683 576.168 236.804 576.25 237.87 576.564C238.936 576.878 239.922 577.418 240.762 578.146C241.601 578.874 242.274 579.774 242.735 580.785C243.197 581.796 243.436 582.895 243.436 584.006C243.436 585.117 243.197 586.216 242.735 587.227C242.274 588.238 241.601 589.138 240.762 589.866C239.922 590.594 238.936 591.134 237.87 591.448C236.804 591.762 235.683 591.843 234.583 591.687H128.967V576.325H130.57ZM232.307 628.642H127.415C126.321 628.784 125.21 628.691 124.154 628.369C123.099 628.048 122.124 627.505 121.296 626.777C120.467 626.049 119.803 625.152 119.348 624.147C118.893 623.142 118.658 622.051 118.658 620.948C118.658 619.845 118.893 618.754 119.348 617.749C119.803 616.744 120.467 615.848 121.296 615.12C122.124 614.391 123.099 613.848 124.154 613.527C125.21 613.205 126.321 613.112 127.415 613.254H233.031V628.642H232.307ZM237.169 605.057V607.358C237.169 607.55 237.093 607.734 236.957 607.87C236.821 608.006 236.637 608.082 236.445 608.082H127.415C125.618 607.902 123.802 608.1 122.085 608.665C120.369 609.229 118.789 610.147 117.449 611.359C116.109 612.571 115.038 614.051 114.305 615.703C113.572 617.354 113.194 619.141 113.194 620.948C113.194 622.755 113.572 624.542 114.305 626.194C115.038 627.845 116.109 629.325 117.449 630.537C118.789 631.749 120.369 632.667 122.085 633.232C123.802 633.796 125.618 633.994 127.415 633.814H236.445C236.635 633.82 236.815 633.899 236.95 634.033C237.084 634.168 237.162 634.348 237.169 634.538V636.84H127.855C125.584 636.826 123.337 636.362 121.247 635.474C119.156 634.586 117.262 633.292 115.675 631.667C114.221 630.202 113.074 628.462 112.302 626.548C111.529 624.634 111.146 622.585 111.175 620.521C111.276 616.375 112.993 612.433 115.959 609.534C118.925 606.636 122.906 605.01 127.053 605.005H237.169V605.057ZM234.143 599.884H124.829V597.609C124.829 597.414 124.905 597.227 125.04 597.087C125.175 596.947 125.359 596.865 125.553 596.859H234.583C236.389 597.058 238.217 596.873 239.948 596.318C241.678 595.763 243.272 594.849 244.626 593.636C245.979 592.423 247.062 590.939 247.803 589.28C248.544 587.62 248.928 585.823 248.928 584.006C248.928 582.189 248.544 580.392 247.803 578.732C247.062 577.073 245.979 575.588 244.626 574.376C243.272 573.163 241.678 572.249 239.948 571.694C238.217 571.139 236.389 570.954 234.583 571.153H125.553C125.364 571.147 125.183 571.068 125.049 570.934C124.914 570.799 124.836 570.619 124.829 570.429V568.127H234.945C239.092 568.133 243.073 569.758 246.039 572.657C249.006 575.555 250.722 579.498 250.823 583.644C250.859 585.705 250.479 587.752 249.706 589.662C248.933 591.573 247.782 593.308 246.324 594.764C244.732 596.38 242.836 597.664 240.746 598.543C238.655 599.422 236.411 599.878 234.143 599.884Z" fill="#D6CDFB"/>
<mask id="path-22-inside-1_405_22" fill="white">
<path fill-rule="evenodd" clip-rule="evenodd" d="M104.317 638.237C111.505 629.175 134.279 612.428 137.092 612.249C140.169 612.052 143.33 613.561 141.984 618.778C142.062 620.013 139.681 622.937 136.436 626.92C134.481 629.32 132.213 632.105 129.981 635.137C130.671 635.398 131.346 635.686 132 636C143.799 642.778 160.531 642.12 174.383 641.575C188.119 641.034 199.023 640.605 199.472 647.651C200.428 662.659 150 670 129 670C105.309 670 101.456 663.508 100.5 648.5C100.22 644.111 101.729 640.707 104.317 638.237Z"/>
</mask>
<path fill-rule="evenodd" clip-rule="evenodd" d="M104.317 638.237C111.505 629.175 134.279 612.428 137.092 612.249C140.169 612.052 143.33 613.561 141.984 618.778C142.062 620.013 139.681 622.937 136.436 626.92C134.481 629.32 132.213 632.105 129.981 635.137C130.671 635.398 131.346 635.686 132 636C143.799 642.778 160.531 642.12 174.383 641.575C188.119 641.034 199.023 640.605 199.472 647.651C200.428 662.659 150 670 129 670C105.309 670 101.456 663.508 100.5 648.5C100.22 644.111 101.729 640.707 104.317 638.237Z" fill="#EEEAFC"/>
<path d="M104.317 638.237L105.007 638.96L105.057 638.913L105.1 638.858L104.317 638.237ZM137.092 612.249L137.028 611.251L137.092 612.249ZM141.984 618.778L141.015 618.528L140.976 618.683L140.986 618.842L141.984 618.778ZM136.436 626.92L137.211 627.551L136.436 626.92ZM129.981 635.137L129.175 634.544L128.394 635.605L129.626 636.072L129.981 635.137ZM132 636L132.498 635.133L132.466 635.114L132.432 635.098L132 636ZM174.383 641.575L174.343 640.575L174.383 641.575ZM199.472 647.651L200.47 647.588L199.472 647.651ZM100.5 648.5L101.498 648.436L100.5 648.5ZM105.1 638.858C108.611 634.433 116.013 628.045 122.955 622.704C126.413 620.044 129.727 617.666 132.344 615.946C133.654 615.085 134.777 614.398 135.649 613.923C136.085 613.686 136.445 613.51 136.724 613.393C136.863 613.335 136.973 613.296 137.054 613.272C137.142 613.246 137.17 613.246 137.155 613.247L137.028 611.251C136.677 611.273 136.294 611.406 135.954 611.547C135.588 611.7 135.162 611.911 134.693 612.167C133.753 612.678 132.578 613.399 131.246 614.275C128.577 616.029 125.221 618.437 121.735 621.119C114.79 626.463 107.211 632.979 103.533 637.615L105.1 638.858ZM137.155 613.247C138.554 613.157 139.771 613.474 140.49 614.191C141.155 614.855 141.637 616.117 141.015 618.528L142.952 619.028C143.676 616.222 143.251 614.122 141.903 612.776C140.609 611.484 138.707 611.144 137.028 611.251L137.155 613.247ZM140.986 618.842C140.985 618.832 140.989 618.885 140.946 619.023C140.905 619.155 140.832 619.33 140.718 619.553C140.487 619.999 140.128 620.559 139.643 621.236C138.674 622.588 137.291 624.287 135.661 626.288L137.211 627.551C138.826 625.569 140.256 623.815 141.269 622.401C141.775 621.694 142.2 621.043 142.495 620.469C142.771 619.935 143.02 619.312 142.982 618.715L140.986 618.842ZM135.661 626.288C133.707 628.687 131.424 631.49 129.175 634.544L130.786 635.729C133.001 632.72 135.255 629.954 137.211 627.551L135.661 626.288ZM129.626 636.072C130.291 636.324 130.94 636.6 131.567 636.902L132.432 635.098C131.752 634.772 131.051 634.473 130.335 634.201L129.626 636.072ZM131.501 636.867C137.582 640.36 144.881 641.91 152.339 642.53C159.799 643.15 167.506 642.846 174.422 642.574L174.343 640.575C167.407 640.848 159.823 641.146 152.504 640.537C145.183 639.928 138.216 638.418 132.498 635.133L131.501 636.867ZM174.422 642.574C181.331 642.302 187.375 642.069 191.755 642.756C193.942 643.099 195.594 643.656 196.707 644.463C197.77 645.233 198.381 646.257 198.474 647.715L200.47 647.588C200.338 645.523 199.418 643.957 197.881 642.843C196.394 641.766 194.378 641.143 192.065 640.78C187.447 640.055 181.171 640.307 174.343 640.575L174.422 642.574ZM198.474 647.715C198.673 650.838 196.203 653.83 191.323 656.606C186.52 659.337 179.754 661.635 172.231 663.482C157.197 667.174 139.42 669 129 669V671C139.579 671 157.516 669.155 172.708 665.425C180.297 663.561 187.272 661.21 192.312 658.344C197.274 655.522 200.749 651.969 200.47 647.588L198.474 647.715ZM129 669C117.172 669 110.624 667.362 106.879 664.122C103.173 660.916 101.976 655.932 101.498 648.436L99.502 648.564C99.9807 656.077 101.188 661.842 105.57 665.634C109.913 669.392 117.136 671 129 671V669ZM101.498 648.436C101.237 644.341 102.634 641.225 105.007 638.96L103.626 637.514C100.824 640.188 99.2036 643.881 99.502 648.564L101.498 648.436Z" fill="#BBABF7" mask="url(#path-22-inside-1_405_22)"/>
<path d="M103 646C56.9363 620.634 48.2683 614.111 18 611" stroke="#EEEAFC"/>
<path d="M109 661C48.4893 666.13 25 669.5 3 667" stroke="#EEEAFC"/>
<rect x="0.640625" y="0.5" width="262" height="675" rx="16.5" stroke="#D2C9FB"/>
<path d="M77.849 246.615H103.151C104.436 246.611 105.667 246.099 106.576 245.19C107.484 244.282 107.996 243.05 108 241.766V224.849C108 223.563 107.489 222.33 106.58 221.42C105.67 220.511 104.437 220 103.151 220H77.849C76.5629 220 75.3296 220.511 74.4202 221.42C73.5109 222.33 73 223.563 73 224.849V241.766C73 243.052 73.5109 244.285 74.4202 245.194C75.3296 246.104 76.5629 246.615 77.849 246.615ZM89.851 244.427C90.115 242.933 90.8966 241.581 92.0586 240.606C93.2207 239.631 94.689 239.097 96.2057 239.097C97.7225 239.097 99.1908 239.631 100.353 240.606C101.515 241.581 102.297 242.933 102.56 244.427H89.851ZM75.1875 224.849C75.1894 224.144 75.4704 223.468 75.9691 222.969C76.4679 222.47 77.1437 222.189 77.849 222.187H103.151C103.856 222.189 104.532 222.47 105.031 222.969C105.53 223.468 105.811 224.144 105.813 224.849V241.766C105.816 242.193 105.716 242.615 105.522 242.996C105.328 243.376 105.045 243.705 104.697 243.953C104.312 241.935 103.22 240.121 101.618 238.835C100.016 237.55 98.0082 236.877 95.9549 236.937C93.9016 236.998 91.9371 237.788 90.4136 239.166C88.8902 240.544 87.9074 242.419 87.6417 244.456H77.849C77.4973 244.455 77.1492 244.385 76.8248 244.249C76.5005 244.113 76.2061 243.914 75.9588 243.664C75.7115 243.414 75.516 243.118 75.3836 242.792C75.2513 242.466 75.1846 242.117 75.1875 241.766V224.849Z" fill="#EEEAFC"/>
<path d="M96.2097 234.547C97.1707 234.547 98.1101 234.262 98.9094 233.729C99.7087 233.195 100.332 232.437 100.701 231.55C101.07 230.662 101.167 229.685 100.981 228.743C100.795 227.8 100.334 226.933 99.6564 226.252C98.9784 225.571 98.1138 225.106 97.1718 224.916C96.2298 224.726 95.2526 224.819 94.3636 225.184C93.4745 225.549 92.7134 226.168 92.1764 226.965C91.6394 227.762 91.3504 228.7 91.3461 229.661C91.3432 230.302 91.4669 230.937 91.71 231.529C91.9532 232.122 92.311 232.661 92.7629 233.115C93.2148 233.569 93.7519 233.929 94.3434 234.175C94.9349 234.42 95.5691 234.547 96.2097 234.547ZM96.2097 227.007C96.7399 227.007 97.2581 227.165 97.6986 227.46C98.1392 227.755 98.4821 228.174 98.684 228.664C98.8859 229.155 98.9376 229.694 98.8326 230.214C98.7275 230.733 98.4705 231.21 98.094 231.583C97.7176 231.957 97.2387 232.21 96.7182 232.311C96.1977 232.411 95.6589 232.355 95.1703 232.149C94.6818 231.943 94.2653 231.597 93.9739 231.154C93.6825 230.711 93.5293 230.192 93.5336 229.661C93.5394 228.956 93.8239 228.28 94.3251 227.783C94.8263 227.286 95.5037 227.007 96.2097 227.007ZM79.1909 229.18H84.3607C84.6508 229.18 84.929 229.065 85.1341 228.86C85.3392 228.655 85.4545 228.377 85.4545 228.086C85.4545 227.796 85.3392 227.518 85.1341 227.313C84.929 227.108 84.6508 226.993 84.3607 226.993H79.1909C78.9008 226.993 78.6226 227.108 78.4175 227.313C78.2124 227.518 78.0972 227.796 78.0972 228.086C78.0972 228.377 78.2124 228.655 78.4175 228.86C78.6226 229.065 78.9008 229.18 79.1909 229.18ZM79.1909 234.131H84.3607C84.6508 234.131 84.929 234.016 85.1341 233.811C85.3392 233.606 85.4545 233.328 85.4545 233.038C85.4545 232.747 85.3392 232.469 85.1341 232.264C84.929 232.059 84.6508 231.944 84.3607 231.944H79.1909C78.9008 231.944 78.6226 232.059 78.4175 232.264C78.2124 232.469 78.0972 232.747 78.0972 233.038C78.0972 233.328 78.2124 233.606 78.4175 233.811C78.6226 234.016 78.9008 234.131 79.1909 234.131Z" fill="#EEEAFC"/>
<path d="M79.584 241.642C80.188 241.642 80.6777 241.152 80.6777 240.548C80.6777 239.944 80.188 239.454 79.584 239.454C78.9799 239.454 78.4902 239.944 78.4902 240.548C78.4902 241.152 78.9799 241.642 79.584 241.642Z" fill="#EEEAFC"/>
<path d="M83.959 241.642C84.563 241.642 85.0527 241.152 85.0527 240.548C85.0527 239.944 84.563 239.454 83.959 239.454C83.3549 239.454 82.8652 239.944 82.8652 240.548C82.8652 241.152 83.3549 241.642 83.959 241.642Z" fill="#EEEAFC"/>
<path d="M211 151H153C152.735 151 152.48 151.105 152.293 151.293C152.105 151.48 152 151.735 152 152V196C152 196.265 152.105 196.52 152.293 196.707C152.48 196.895 152.735 197 153 197H184V204C184 204.148 184.033 204.294 184.096 204.428C184.16 204.561 184.252 204.679 184.366 204.773C184.481 204.867 184.615 204.934 184.758 204.97C184.902 205.006 185.051 205.009 185.196 204.98L190 204.02L194.804 204.98C194.949 205.009 195.098 205.006 195.242 204.97C195.385 204.934 195.519 204.867 195.634 204.773C195.748 204.679 195.84 204.561 195.904 204.428C195.967 204.294 196 204.148 196 204V197H211C211.265 197 211.52 196.895 211.707 196.707C211.895 196.52 212 196.265 212 196V152C212 151.735 211.895 151.48 211.707 151.293C211.52 151.105 211.265 151 211 151ZM194 202.78L190.196 202.02C190.067 201.994 189.933 201.994 189.804 202.02L186 202.78V197.929C186.035 197.95 186.075 197.963 186.111 197.983C187.298 198.65 188.638 199 190 199C191.362 199 192.702 198.65 193.89 197.983C193.925 197.963 193.965 197.95 194 197.929L194 202.78ZM194.287 195.188C194.271 195.205 194.255 195.222 194.24 195.24C194.223 195.255 194.205 195.271 194.188 195.287C193.071 196.385 191.567 197 190 197C188.433 197 186.929 196.385 185.812 195.287C185.795 195.271 185.777 195.255 185.76 195.24C185.745 195.222 185.729 195.205 185.713 195.188C184.611 194.073 183.996 192.567 184 191C183.996 190.712 184.02 190.424 184.07 190.14C184.275 188.709 184.991 187.401 186.085 186.457C187.179 185.512 188.578 184.995 190.023 185C191.468 185.006 192.863 185.534 193.95 186.486C195.036 187.439 195.742 188.753 195.937 190.185C195.983 190.454 196.004 190.727 196 191C196.005 192.568 195.389 194.073 194.287 195.188V195.188ZM196.647 186.567C196.598 186.495 196.545 186.426 196.494 186.355C196.412 186.242 196.332 186.128 196.245 186.02C196.185 185.946 196.122 185.875 196.06 185.804C195.974 185.704 195.889 185.605 195.799 185.509C195.73 185.438 195.659 185.369 195.589 185.301C195.498 185.212 195.407 185.123 195.312 185.039C195.237 184.972 195.159 184.908 195.082 184.844C194.985 184.764 194.888 184.686 194.787 184.61C194.706 184.549 194.624 184.491 194.54 184.433C194.438 184.361 194.333 184.293 194.228 184.226C194.141 184.172 194.054 184.119 193.966 184.068C193.857 184.006 193.746 183.946 193.634 183.888C193.544 183.842 193.454 183.796 193.363 183.754C193.247 183.699 193.129 183.649 193.011 183.601C192.918 183.563 192.827 183.524 192.733 183.49C192.609 183.444 192.483 183.405 192.356 183.365C192.264 183.336 192.172 183.306 192.078 183.28C191.945 183.244 191.809 183.215 191.674 183.185C191.583 183.165 191.494 183.143 191.402 183.127C191.25 183.099 191.096 183.081 190.941 183.062C190.863 183.053 190.787 183.039 190.709 183.032C190.475 183.012 190.239 183 190 183C189.761 183 189.525 183.012 189.291 183.033C189.212 183.04 189.135 183.054 189.057 183.063C188.903 183.081 188.75 183.1 188.599 183.127C188.504 183.144 188.412 183.167 188.319 183.187C188.187 183.216 188.055 183.244 187.926 183.279C187.825 183.307 187.727 183.339 187.628 183.37C187.51 183.408 187.392 183.444 187.276 183.487C187.171 183.525 187.069 183.568 186.965 183.611C186.862 183.653 186.757 183.697 186.655 183.745C186.546 183.796 186.439 183.85 186.332 183.905C186.242 183.952 186.154 183.999 186.066 184.049C185.952 184.114 185.841 184.181 185.731 184.251C185.657 184.298 185.585 184.346 185.512 184.395C185.394 184.476 185.278 184.559 185.164 184.645C185.108 184.688 185.053 184.732 184.998 184.776C184.874 184.875 184.753 184.977 184.635 185.084C184.599 185.117 184.564 185.151 184.528 185.184C184.398 185.307 184.27 185.432 184.147 185.564C184.134 185.578 184.122 185.592 184.11 185.606C183.235 186.552 182.606 187.698 182.278 188.944C182.273 188.963 182.266 188.981 182.261 189H163.899C163.702 188.04 163.227 187.159 162.534 186.466C161.841 185.773 160.96 185.298 160 185.101V162.899C160.96 162.702 161.841 162.227 162.534 161.534C163.227 160.841 163.702 159.96 163.899 159H200.101C200.298 159.96 200.773 160.841 201.466 161.534C202.159 162.227 203.04 162.702 204 162.899V185.101C203.04 185.298 202.159 185.773 201.466 186.466C200.773 187.159 200.298 188.04 200.101 189H197.739C197.71 188.887 197.672 188.778 197.639 188.668C197.612 188.579 197.588 188.489 197.558 188.401C197.506 188.25 197.446 188.104 197.385 187.957C197.358 187.892 197.335 187.824 197.306 187.759C197.213 187.55 197.112 187.347 197.003 187.149C196.974 187.097 196.941 187.049 196.911 186.998C196.827 186.852 196.741 186.707 196.647 186.567V186.567ZM210 195H196.929C196.951 194.962 196.966 194.92 196.988 194.882C197.117 194.652 197.234 194.415 197.34 194.173C197.359 194.128 197.382 194.085 197.401 194.04C197.518 193.754 197.618 193.46 197.7 193.161C197.722 193.083 197.739 193.002 197.759 192.923C197.816 192.69 197.863 192.455 197.899 192.217C197.912 192.127 197.927 192.039 197.938 191.949C197.977 191.634 197.998 191.317 198 191H201C201.265 191 201.52 190.895 201.707 190.707C201.895 190.52 202 190.265 202 190C202.001 189.205 202.317 188.442 202.88 187.88C203.442 187.317 204.205 187.001 205 187C205.265 187 205.52 186.895 205.707 186.707C205.895 186.52 206 186.265 206 186V162C206 161.735 205.895 161.48 205.707 161.293C205.52 161.105 205.265 161 205 161C204.205 160.999 203.442 160.683 202.88 160.12C202.317 159.558 202.001 158.795 202 158C202 157.735 201.895 157.48 201.707 157.293C201.52 157.105 201.265 157 201 157H163C162.735 157 162.48 157.105 162.293 157.293C162.105 157.48 162 157.735 162 158C161.999 158.795 161.683 159.558 161.12 160.12C160.558 160.683 159.795 160.999 159 161C158.735 161 158.48 161.105 158.293 161.293C158.105 161.48 158 161.735 158 162V186C158 186.265 158.105 186.52 158.293 186.707C158.48 186.895 158.735 187 159 187C159.795 187.001 160.558 187.317 161.12 187.88C161.683 188.442 161.999 189.205 162 190C162 190.265 162.105 190.52 162.293 190.707C162.48 190.895 162.735 191 163 191H182C182.002 191.318 182.023 191.635 182.062 191.95C182.073 192.04 182.087 192.128 182.101 192.217C182.137 192.455 182.184 192.691 182.242 192.923C182.262 193.003 182.278 193.083 182.3 193.162C182.382 193.461 182.483 193.755 182.6 194.042C182.618 194.086 182.641 194.128 182.66 194.172C182.765 194.415 182.883 194.652 183.013 194.883C183.034 194.921 183.049 194.963 183.071 195.001H154V153H210V195Z" fill="#EEEAFC"/>
<path d="M193 163H171C170.735 163 170.48 163.105 170.293 163.293C170.105 163.48 170 163.735 170 164V172C170 172.265 170.105 172.52 170.293 172.707C170.48 172.895 170.735 173 171 173H193C193.265 173 193.52 172.895 193.707 172.707C193.895 172.52 194 172.265 194 172V164C194 163.735 193.895 163.48 193.707 163.293C193.52 163.105 193.265 163 193 163ZM192 171H172V165H192V171Z" fill="#EEEAFC"/>
<path d="M110.68 95.78H83.4803C82.9403 95.78 82.5103 95.35 82.5103 94.81C82.5103 94.27 82.9403 93.84 83.4803 93.84H110.69C111.23 93.84 111.66 94.27 111.66 94.81C111.65 95.34 111.22 95.78 110.68 95.78ZM110.68 105.25H83.4803C82.9403 105.25 82.5103 104.82 82.5103 104.28C82.5103 103.74 82.9403 103.31 83.4803 103.31H110.69C111.23 103.31 111.66 103.74 111.66 104.28C111.65 104.82 111.22 105.25 110.68 105.25ZM110.68 114.73H83.4803C82.9403 114.73 82.5103 114.3 82.5103 113.76C82.5103 113.22 82.9403 112.79 83.4803 112.79H110.69C111.23 112.79 111.66 113.22 111.66 113.76C111.65 114.29 111.22 114.73 110.68 114.73ZM110.68 124.2H83.4803C82.9403 124.2 82.5103 123.77 82.5103 123.23C82.5103 122.69 82.9403 122.26 83.4803 122.26H110.69C111.23 122.26 111.66 122.69 111.66 123.23C111.65 123.77 111.22 124.2 110.68 124.2Z" fill="#EEEAFC"/>
<path d="M118.61 133.42H75.5598C75.0198 133.42 74.5898 132.99 74.5898 132.45V78.97C74.5898 78.43 75.0198 78 75.5598 78H110.03C110.29 78 110.53 78.1 110.72 78.28L119.3 86.86C119.48 87.04 119.58 87.29 119.58 87.55V132.45C119.58 132.98 119.14 133.42 118.61 133.42ZM76.5298 131.48H117.64V87.95L109.63 79.94H76.5298V131.48Z" fill="#EEEAFC"/>
<path d="M118.61 88.52H110.03C109.49 88.52 109.06 88.09 109.06 87.55V78.97C109.06 78.43 109.49 78 110.03 78C110.57 78 111 78.43 111 78.97V86.58H118.61C119.15 86.58 119.58 87.01 119.58 87.55C119.58 88.08 119.14 88.52 118.61 88.52Z" fill="#EEEAFC"/>
<path d="M110.02 142H66.97C66.43 142 66 141.57 66 141.03V87.55C66 87.01 66.43 86.58 66.97 86.58H75.56C76.1 86.58 76.53 87.01 76.53 87.55C76.53 88.09 76.1 88.52 75.56 88.52H67.94V140.06H109.05V132.45C109.05 131.91 109.48 131.48 110.02 131.48C110.56 131.48 110.99 131.91 110.99 132.45V141.03C110.99 141.57 110.56 142 110.02 142Z" fill="#EEEAFC"/>
</svg>
