<svg width="272" height="676" viewBox="0 0 272 676" fill="none" xmlns="http://www.w3.org/2000/svg">
<path d="M161 461.038C161 466.008 156.299 470.038 150.5 470.038C144.701 470.038 140 466.008 140 461.038C140 456.067 144.701 452.038 150.5 452.038C155 451.538 161 456.067 161 461.038Z" fill="#D6CDFB"/>
<path d="M15.9636 636.544H246.964V675.544H15.9636V636.544Z" fill="#BBABF7"/>
<path d="M263.464 648.544H262.964V658.544H262.955C262.961 658.71 262.964 658.877 262.964 659.044C262.464 668.044 255.823 676.5 245.823 675C235.323 672 231.464 668.544 229.464 659.044C229.464 654.993 230.994 651.305 233.631 648.544H30.1969C33.7384 651.38 35.9636 655.482 35.9636 660.044C35.9636 668.604 28.1285 675.544 18.4636 675.544C11.3228 675 3.82275 672 1.82275 662.5C1.82275 662.165 1.30204 660.831 1.32275 660.5V659.5V648.5L1.27045 648.544V539.018C0.62851 534.137 0.663172 528.825 1.46356 523.044C5.96359 490.544 73.4636 452 127.964 452C178.811 452 260.954 505.405 263.407 538.544H263.464V648.544Z" fill="#BBABF7"/>
<path d="M164.323 460C161.823 467 153.615 477.5 137.323 477.5C121.03 477.5 106.824 464 100.823 457C131.322 444 115.029 444 131.322 444C147.614 444 131.322 444 164.323 460Z" fill="#EEEAFC"/>
<ellipse cx="142.323" cy="530.575" rx="32.5" ry="11.5753" fill="#EEEAFC"/>
<path d="M172.273 530.685C172.273 531.935 171.563 533.201 170.111 534.423C168.662 535.644 166.532 536.768 163.851 537.722C158.496 539.63 151.061 540.82 142.823 540.82C134.584 540.82 127.15 539.63 121.794 537.722C119.114 536.768 116.984 535.644 115.535 534.423C114.083 533.201 113.373 531.935 113.373 530.685C113.373 529.435 114.083 528.169 115.535 526.947C116.984 525.726 119.114 524.602 121.794 523.648C127.15 521.74 134.584 520.55 142.823 520.55C151.061 520.55 158.496 521.74 163.851 523.648C166.532 524.602 168.662 525.726 170.111 526.947C171.563 528.169 172.273 529.435 172.273 530.685Z" stroke="#EEEAFC" stroke-width="1.1"/>
<path d="M99.7019 581.242C71.1836 603.314 24.1928 601.177 1.5 625" stroke="#EEEAFC"/>
<path d="M114.323 591C77.8226 644.5 84.3228 646 54.8228 675.5" stroke="#EEEAFC"/>
<path d="M72.8225 492C71.124 510.575 57.8229 551.5 36.3229 564C-0.78936 578.84 -12.9444 521.425 20.8223 486C41.3229 466 101.187 452 115.823 452C87.8225 471 72.8225 473.775 72.8225 492Z" fill="#D6CDFB"/>
<ellipse cx="142.823" cy="572.26" rx="26" ry="9.26027" fill="#D6CCFB"/>
<path d="M109.823 531H174.823L168.823 573H116.823L109.823 531Z" fill="#D6CCFB"/>
<ellipse cx="142.323" cy="530.575" rx="32.5" ry="11.5753" fill="#EEEAFC"/>
<path d="M168.823 535.438C163.823 537.5 156.958 541 142.323 541C127.687 541 121.323 537.5 115.823 535.438C115.823 530.226 127.687 526 142.323 526C156.958 526 168.823 530.226 168.823 535.438Z" fill="#BBABF7"/>
<path d="M152.156 499.681C159.656 515.723 147.044 533 143.823 533C140.601 533 152.99 532.383 138.823 505.851C138.823 490.176 151.323 488.617 158.823 475C156.323 492.894 152.156 484.005 152.156 499.681Z" fill="#EEEAFC" fill-opacity="0.75"/>
<path d="M119.822 558.897C123.871 572.672 127.718 588.861 117.374 591.901C107.03 594.942 87.545 570.372 87.2875 567.625C83.2383 553.85 93.8742 516.01 104.218 512.97C117.58 507.913 115.773 545.122 119.822 558.897Z" fill="#EEEAFC"/>
<path d="M106.322 511.397C105.822 513.397 101.822 544.897 101.822 559.397" stroke="#BBABF7"/>
<path d="M112.322 512.397C107.441 530.752 110.822 537.397 110.322 559.897" stroke="#BBABF7"/>
<path d="M100.322 514.397C100.322 514.397 94.3223 542.397 93.8223 558.397" stroke="#BBABF7"/>
<path d="M168.242 556.897C164.193 570.672 160.347 586.861 170.691 589.901C181.035 592.942 200.519 568.372 200.777 565.625C204.826 551.85 194.19 514.01 183.846 510.97C170.484 505.913 172.291 543.122 168.242 556.897Z" fill="#EEEAFC"/>
<path d="M181.742 509.397C182.242 511.397 186.242 542.897 186.242 557.397" stroke="#BBABF7"/>
<path d="M175.742 510.397C180.624 528.752 177.242 535.397 177.742 557.897" stroke="#BBABF7"/>
<path d="M187.742 512.397C187.742 512.397 193.742 540.397 194.242 556.397" stroke="#BBABF7"/>
<path d="M247.948 676C218.853 676 193.27 676 151.133 676C136.586 596.5 201.296 575 198.788 537C202.071 497.942 151.133 456 151.133 452C162.169 453 334.044 477.5 247.948 676Z" fill="#D6CCFB"/>
<path d="M181.733 210.43C179.712 209.83 177.567 209.787 175.523 210.306C173.48 210.825 171.616 211.887 170.126 213.378C168.414 215.089 167.275 217.289 166.866 219.674C166.456 222.059 166.797 224.513 167.84 226.696L165.297 229.238L165.298 231.999L162.538 231.997L162.541 234.754L159.779 234.757L159.781 237.514L157.064 237.473L157.023 240.273L154.262 240.272L152.882 241.654L153.574 246.482L158.402 247.17L173.357 232.214C174.641 232.815 176.023 233.177 177.437 233.283C176.237 231.848 175.399 230.146 174.996 228.319C174.592 226.493 174.633 224.596 175.117 222.79C175.827 220.141 177.446 217.827 179.689 216.25C181.932 214.673 184.658 213.935 187.391 214.163C187.166 213.889 186.928 213.626 186.679 213.373C185.303 211.993 183.602 210.981 181.733 210.428L181.733 210.43ZM187.939 220.167C187.405 220.023 186.841 220.033 186.313 220.196C185.785 220.36 185.314 220.669 184.954 221.089C184.595 221.509 184.362 222.022 184.282 222.569C184.202 223.116 184.279 223.675 184.503 224.18C184.728 224.685 185.091 225.116 185.55 225.424C186.01 225.731 186.547 225.902 187.099 225.917C187.652 225.932 188.198 225.79 188.673 225.507C189.148 225.224 189.533 224.813 189.784 224.321C189.924 223.73 190.017 223.13 190.063 222.525C189.974 221.969 189.727 221.451 189.35 221.032C188.973 220.614 188.483 220.313 187.939 220.167Z" stroke="#BBABF7" stroke-width="2" stroke-linecap="round" stroke-linejoin="round"/>
<path d="M189.453 214.514C186.786 213.799 183.953 214.05 181.453 215.223C178.953 216.395 176.948 218.414 175.793 220.922C174.638 223.43 174.406 226.265 175.139 228.927C175.873 231.589 177.523 233.906 179.8 235.469L178.869 238.941L180.248 241.33L177.859 242.71L179.239 245.099L176.85 246.478L178.229 248.867L175.855 250.19L177.219 252.636L174.83 254.015L174.325 255.899L177.336 259.735L181.862 257.919L187.336 237.488C190.088 237.272 192.675 236.09 194.639 234.151C196.604 232.213 197.821 229.642 198.074 226.894C198.327 224.145 197.601 221.396 196.023 219.131C194.446 216.866 192.119 215.231 189.453 214.516L189.453 214.514ZM187.939 220.167C188.688 220.368 189.327 220.858 189.715 221.53C190.103 222.202 190.209 223.001 190.008 223.75C189.807 224.5 189.316 225.139 188.644 225.527C187.972 225.915 187.174 226.02 186.424 225.819C185.674 225.619 185.035 225.128 184.647 224.456C184.259 223.784 184.154 222.985 184.355 222.236C184.556 221.486 185.046 220.847 185.718 220.459C186.39 220.071 187.189 219.966 187.939 220.167Z" stroke="#BBABF7" stroke-width="2" stroke-linecap="round" stroke-linejoin="round"/>
<path d="M173.598 210.754C173.717 208.434 174.525 206.201 175.919 204.342C177.313 202.483 179.23 201.082 181.425 200.319C183.62 199.554 185.994 199.462 188.242 200.053C190.49 200.645 192.511 201.894 194.046 203.64C195.58 205.385 196.558 207.548 196.857 209.852C197.155 212.156 196.76 214.497 195.721 216.575C194.682 218.654 193.046 220.375 191.023 221.519C189.001 222.663 186.682 223.178 184.365 222.998" stroke="#BBABF7" stroke-width="2" stroke-linecap="round" stroke-linejoin="round"/>
<path d="M65.9556 182.591C65.9244 182.235 65.7807 181.999 65.7746 181.989C65.7716 181.984 65.7672 181.98 65.762 181.978C65.7567 181.975 65.7509 181.974 65.7451 181.974L65.0597 182.034C65.0478 182.035 65.0376 182.043 65.0332 182.054C65.0289 182.065 64.9283 182.322 64.9594 182.678C64.976 182.868 65.0504 183.038 65.1226 183.203C65.1881 183.353 65.25 183.495 65.2625 183.638C65.2889 183.94 65.2579 184.188 65.2575 184.191C65.2552 184.209 65.2612 184.227 65.2739 184.241C65.2801 184.247 65.2878 184.252 65.2962 184.255C65.3047 184.259 65.3137 184.26 65.3227 184.259L65.8724 184.211C65.8907 184.209 65.9071 184.2 65.9173 184.184C65.9224 184.177 65.9257 184.168 65.927 184.159C65.9282 184.15 65.9275 184.141 65.9248 184.133C65.9218 184.123 65.8501 183.889 65.8238 183.589C65.8113 183.446 65.8477 183.295 65.8863 183.136C65.9285 182.961 65.9722 182.781 65.9556 182.591ZM65.025 182.551C65.023 182.527 65.0262 182.505 65.0348 182.485C65.0493 182.451 65.0755 182.427 65.1003 182.425L65.1005 182.425C65.1288 182.423 65.1525 182.402 65.1581 182.374C65.1616 182.357 65.1705 182.341 65.1834 182.33C65.1963 182.318 65.2126 182.311 65.2299 182.31C65.2499 182.308 65.2698 182.314 65.2857 182.326C65.3017 182.338 65.3125 182.355 65.316 182.375C65.3179 182.385 65.3221 182.395 65.3284 182.403C65.3346 182.411 65.3427 182.417 65.352 182.422C65.3613 182.426 65.3715 182.428 65.3817 182.428C65.3919 182.427 65.4019 182.425 65.4108 182.42C65.4175 182.416 65.4259 182.414 65.4365 182.413C65.4518 182.411 65.4846 182.425 65.5023 182.444C65.5166 182.459 65.5376 182.466 65.5587 182.463C65.569 182.462 65.5787 182.458 65.5871 182.452C65.5955 182.446 65.6023 182.437 65.6069 182.428C65.631 182.38 65.6698 182.35 65.7131 182.346C65.7768 182.34 65.8379 182.393 65.8638 182.471C65.8129 182.51 65.6594 182.608 65.4626 182.531C65.2842 182.46 65.1064 182.516 65.025 182.551ZM65.0853 182.095L65.7305 182.039C65.7517 182.077 65.8043 182.182 65.845 182.331C65.8054 182.297 65.7573 182.279 65.7076 182.283C65.6419 182.289 65.5846 182.332 65.5482 182.4C65.5185 182.369 65.467 182.347 65.431 182.35C65.4114 182.352 65.3948 182.356 65.3781 182.364C65.3717 182.329 65.3524 182.297 65.324 182.275C65.2955 182.254 65.26 182.244 65.2244 182.247C65.1615 182.252 65.1088 182.299 65.0949 182.362L65.0945 182.362C65.0693 182.365 65.045 182.376 65.0241 182.394C65.0388 182.245 65.0714 182.136 65.0853 182.095ZM65.761 183.594C65.7872 183.894 65.8579 184.13 65.8645 184.148L65.3205 184.196C65.3215 184.187 65.3242 184.163 65.3271 184.127L65.745 184.091C65.7533 184.09 65.7611 184.086 65.7664 184.08C65.7718 184.073 65.7744 184.065 65.7737 184.057C65.773 184.048 65.769 184.041 65.7625 184.035C65.7561 184.03 65.7478 184.027 65.7395 184.028L65.3313 184.064C65.3372 183.96 65.3404 183.805 65.3253 183.632C65.3118 183.479 65.248 183.333 65.1802 183.178C65.1103 183.018 65.0379 182.852 65.0222 182.673C65.0208 182.656 65.0197 182.639 65.0188 182.623C65.0606 182.602 65.2529 182.516 65.4394 182.589C65.516 182.619 65.587 182.627 65.6497 182.621C65.7569 182.612 65.8398 182.565 65.8856 182.533C65.8884 182.554 65.8909 182.575 65.8928 182.597C65.9085 182.776 65.866 182.951 65.8248 183.122C65.7851 183.286 65.7475 183.441 65.761 183.594Z" fill="#BBABF7"/>
<path d="M65.2729 182.811C65.2676 182.818 65.2649 182.826 65.2657 182.834C65.2664 182.843 65.2705 182.85 65.2768 182.856C65.2832 182.861 65.2916 182.864 65.3 182.863C65.3062 182.863 65.3121 182.86 65.317 182.856C65.3218 182.852 65.3254 182.847 65.3273 182.841C65.3291 182.835 65.3292 182.829 65.3274 182.823C65.3256 182.817 65.3221 182.811 65.3173 182.807C65.3046 182.797 65.2839 182.799 65.2729 182.811ZM65.497 182.937C65.492 182.944 65.4893 182.952 65.4901 182.96C65.4909 182.969 65.4949 182.976 65.5012 182.982C65.5076 182.987 65.5158 182.99 65.5241 182.989C65.5324 182.988 65.5401 182.984 65.5455 182.978C65.5509 182.972 65.5536 182.963 65.5529 182.955C65.5522 182.947 65.5481 182.939 65.5417 182.933C65.529 182.923 65.508 182.925 65.497 182.937ZM65.6883 182.733C65.6829 182.739 65.6803 182.747 65.681 182.756C65.6818 182.764 65.6858 182.772 65.6922 182.777C65.6986 182.783 65.707 182.785 65.7153 182.785C65.7216 182.784 65.7275 182.782 65.7323 182.778C65.7372 182.774 65.7408 182.768 65.7426 182.762C65.7445 182.756 65.7445 182.75 65.7427 182.744C65.741 182.738 65.7375 182.733 65.7327 182.729C65.72 182.718 65.699 182.72 65.6883 182.733ZM65.6177 183.252C65.6124 183.258 65.6097 183.267 65.6105 183.275C65.6113 183.283 65.6153 183.291 65.6216 183.296C65.628 183.302 65.6362 183.304 65.6445 183.304C65.6507 183.303 65.6566 183.301 65.6615 183.297C65.6664 183.293 65.67 183.288 65.6719 183.282C65.6738 183.276 65.6739 183.269 65.6721 183.263C65.6704 183.257 65.6669 183.252 65.6622 183.248C65.6494 183.237 65.6284 183.239 65.6177 183.252ZM65.4535 183.498C65.4482 183.505 65.4455 183.513 65.4463 183.522C65.4471 183.53 65.4511 183.538 65.4574 183.543C65.4638 183.548 65.472 183.551 65.4803 183.55C65.4886 183.549 65.4963 183.545 65.5017 183.539C65.5071 183.533 65.5098 183.524 65.5091 183.516C65.5084 183.508 65.5043 183.5 65.4979 183.495C65.4852 183.484 65.4642 183.486 65.4535 183.498ZM65.5615 183.675C65.5563 183.681 65.5538 183.69 65.5546 183.698C65.5553 183.706 65.5594 183.714 65.5657 183.719C65.5721 183.725 65.5805 183.727 65.5886 183.726C65.597 183.726 65.6048 183.722 65.6101 183.715C65.6155 183.709 65.6181 183.701 65.6174 183.692C65.6167 183.684 65.6126 183.676 65.6063 183.671C65.5938 183.66 65.5725 183.662 65.5615 183.675Z" fill="#BBABF7"/>
<path d="M53.4303 145.734L53.4755 145.207L53.0654 144.873L51.5739 143.659L51.5739 143.659L51.572 143.657L51.5785 143.656L53.4377 143.222L53.9509 143.102L54.1423 142.611L54.8391 140.824L54.8392 140.824L54.842 140.816L54.8461 140.823L55.8428 142.462L56.1165 142.913L56.6426 142.941L58.549 143.046L58.549 143.046L58.5556 143.046L58.554 143.048L57.296 144.503L56.9609 144.891L57.0799 145.389L57.5235 147.248L57.5283 147.268L57.5336 147.286L57.5298 147.285L55.7587 146.546L55.2755 146.345L54.8346 146.627L53.2676 147.631L53.4303 145.734ZM74.2062 148.53L77.1113 148.72L75.1695 151.089L74.8491 151.48L74.9738 151.97L75.7538 155.033L75.7562 155.043L75.7586 155.051L75.7475 155.053L73.032 153.84L72.5304 153.617L72.0724 153.92L69.644 155.527L69.877 152.415L69.9148 151.911L69.5314 151.582L67.2148 149.592L70.0856 148.891L70.6042 148.764L70.7874 148.263L71.8484 145.359L71.8485 145.359L71.8518 145.35L71.8568 145.358L73.4059 148.034L73.6734 148.496L74.2062 148.53Z" stroke="#BBABF7" stroke-width="2"/>
<path d="M110.91 177.834L106.926 178.182L107.1 180.175L111.085 179.826L110.91 177.834Z" fill="#BBABF7"/>
<path d="M63.7798 171.845L78.1948 170.584L68.7688 177.582C68.5887 177.707 68.4548 177.889 68.3878 178.098C68.3208 178.307 68.3245 178.532 68.3982 178.739C68.4774 178.949 68.6249 179.126 68.8172 179.242C69.0094 179.359 69.2352 179.407 69.4581 179.379L78.4238 178.594L78.2495 176.602L72.8003 177.079L82.2263 170.08C82.4064 169.955 82.5403 169.774 82.6073 169.565C82.6743 169.356 82.6706 169.131 82.5969 168.924C82.5177 168.714 82.3702 168.536 82.1779 168.42C81.9857 168.304 81.7599 168.256 81.537 168.284L63.6055 169.853L63.7798 171.845Z" fill="#BBABF7"/>
<path d="M61.9143 168.921L59.9219 169.095L60.0962 171.087L62.0886 170.913L61.9143 168.921Z" fill="#BBABF7"/>
<path d="M106.905 192.712L100.141 193.304L100.315 195.296L107.079 194.704L106.905 192.712Z" fill="#BBABF7"/>
<path d="M93.7159 145.076C91.3972 143.431 88.8414 142.149 86.1365 141.274L86.1251 141.27L86.1302 141.276L86.1302 141.276C89.8414 146.12 91.9123 152.021 92.042 158.121C92.1717 164.219 90.3553 170.2 86.8563 175.196C83.2714 180.488 77.9839 184.394 71.8722 186.265C65.758 188.137 59.1872 187.859 53.2523 185.479C55.2104 188.411 57.6947 190.955 60.5796 192.982L60.5869 192.987L60.5868 192.987C66.0329 196.886 72.6931 198.71 79.3657 198.129L93.7159 145.076ZM93.7159 145.076C99.9572 149.581 104.179 156.359 105.471 163.947C106.763 171.537 105.021 179.331 100.621 185.648L100.621 185.648L100.615 185.657C98.4556 188.827 95.6849 191.534 92.4656 193.62C89.2463 195.706 85.6432 197.128 81.8672 197.804L81.8502 197.807L81.8333 197.811C81.037 197.982 80.2321 198.053 79.3662 198.129L93.7159 145.076Z" stroke="#BBABF7" stroke-width="2"/>
<rect x="1.32275" y="0.5" width="262" height="675" rx="16.5" stroke="#D2C9FB"/>
<path opacity="0.5" d="M171.964 85.8268L166.544 88.5512L163.819 83.1303C163.576 82.5616 163.559 81.9215 163.771 81.3406C163.984 80.7596 164.41 80.2816 164.962 80.0038C165.515 79.7261 166.153 79.6695 166.746 79.8457C167.339 80.0219 167.842 80.4175 168.153 80.952L168.699 82.0387L169.786 81.4926C170.073 81.3256 170.391 81.2191 170.72 81.1797C171.049 81.1402 171.383 81.1686 171.701 81.263C172.019 81.3575 172.315 81.5161 172.569 81.7291C172.823 81.942 173.031 82.2048 173.18 82.5012C173.329 82.7976 173.416 83.1213 173.435 83.4525C173.454 83.7837 173.405 84.1153 173.291 84.4269C173.177 84.7384 173.001 85.0234 172.773 85.2641C172.545 85.5049 172.269 85.6963 171.964 85.8268ZM188.502 91.3014L191.226 96.7222L196.647 93.9978C196.952 93.8674 197.227 93.6759 197.455 93.4352C197.684 93.1944 197.86 92.9095 197.974 92.5979C198.088 92.2864 198.137 91.9548 198.118 91.6236C198.099 91.2924 198.012 90.9687 197.863 90.6723C197.714 90.3759 197.506 90.1131 197.252 89.9002C196.997 89.6872 196.702 89.5286 196.384 89.4341C196.066 89.3396 195.732 89.3113 195.403 89.3507C195.073 89.3902 194.755 89.4967 194.469 89.6637L193.382 90.2098L192.836 89.1231C192.706 88.8181 192.514 88.543 192.273 88.3148C192.033 88.0866 191.748 87.9101 191.436 87.7961C191.125 87.6822 190.793 87.6333 190.462 87.6524C190.131 87.6715 189.807 87.7582 189.51 87.9072C189.214 88.0561 188.951 88.2642 188.738 88.5186C188.525 88.7729 188.367 89.0682 188.272 89.3862C188.178 89.7042 188.149 90.0382 188.189 90.3675C188.228 90.6969 188.335 91.0147 188.502 91.3014Z" fill="#BBABF7"/>
<path d="M180.192 79.1437C180.942 76.8777 180.761 74.4065 179.689 72.2738C178.617 70.141 176.742 68.5214 174.476 67.7713L172.577 67.1427C170.311 66.3926 167.84 66.5733 165.707 67.6452C163.575 68.7171 161.955 70.5923 161.205 72.8583C160.953 72.7749 160.679 72.795 160.442 72.9141C160.205 73.0332 160.025 73.2415 159.941 73.4933L154.913 88.6827C154.83 88.9344 154.85 89.209 154.969 89.446C155.088 89.683 155.296 89.8629 155.548 89.9463C155.681 89.9903 155.862 88.9969 152.694 102.832C152.214 104.941 152.537 107.154 153.6 109.038C154.662 110.922 156.389 112.342 158.443 113.022C160.496 113.702 162.729 113.592 164.706 112.714C166.683 111.837 168.263 110.254 169.136 108.275C174.877 95.1969 174.402 96.1877 174.535 96.2317C174.786 96.3151 175.061 96.295 175.298 96.1759C175.535 96.0568 175.715 95.8484 175.798 95.5966L180.827 80.4073C180.91 80.1555 180.89 79.881 180.771 79.644C180.652 79.407 180.443 79.2271 180.192 79.1437ZM161.526 75.0712L178.614 80.7281L174.214 94.0188L157.126 88.3619L161.526 75.0712ZM171.949 69.0414L173.847 69.6699C175.61 70.2534 177.068 71.5131 177.902 73.1719C178.736 74.8307 178.876 76.7527 178.293 78.5152L163.104 73.4868C163.687 71.7244 164.947 70.2659 166.605 69.4322C168.264 68.5985 170.186 68.4579 171.949 69.0414ZM167.307 107.47C166.635 108.996 165.419 110.217 163.896 110.894C162.372 111.572 160.651 111.657 159.068 111.133C157.485 110.609 156.155 109.513 155.336 108.061C154.518 106.608 154.271 104.902 154.643 103.277L157.542 90.6062L172.541 95.5717L167.307 107.47ZM204.874 87.3148C205.624 85.0488 205.444 82.5776 204.372 80.4448C203.3 78.3121 201.425 76.6925 199.159 75.9424L197.26 75.3138C194.994 74.5637 192.523 74.7444 190.39 75.8163C188.257 76.8881 186.638 78.7633 185.888 81.0293C185.636 80.946 185.361 80.9661 185.124 81.0852C184.887 81.2043 184.707 81.4126 184.624 81.6644L179.596 96.8537C179.512 97.1055 179.532 97.3801 179.651 97.6171C179.77 97.854 179.979 98.034 180.231 98.1173C180.364 98.1613 180.545 97.168 177.376 111.003C176.896 113.112 177.219 115.325 178.282 117.209C179.345 119.093 181.072 120.513 183.125 121.193C185.179 121.873 187.412 121.763 189.389 120.886C191.366 120.008 192.945 118.425 193.819 116.446C199.56 103.368 199.084 104.359 199.217 104.403C199.469 104.486 199.744 104.466 199.981 104.347C200.218 104.228 200.398 104.02 200.481 103.768L205.509 88.5784C205.593 88.3266 205.573 88.052 205.453 87.8151C205.334 87.5781 205.126 87.3981 204.874 87.3148ZM186.208 83.2423L203.296 88.8992L198.896 102.19L181.808 96.5329L186.208 83.2423ZM196.631 77.2125L198.53 77.841C200.293 78.4245 201.751 79.6842 202.585 81.343C203.418 83.0018 203.559 84.9238 202.976 86.6863L187.786 81.6579C188.37 79.8954 189.629 78.437 191.288 77.6033C192.947 76.7696 194.869 76.629 196.631 77.2125ZM191.989 115.641C191.318 117.167 190.102 118.388 188.578 119.065C187.055 119.743 185.334 119.828 183.751 119.304C182.168 118.78 180.837 117.684 180.019 116.232C179.201 114.779 178.953 113.074 179.325 111.448L182.224 98.7773L197.224 103.743L191.989 115.641Z" fill="#BBABF7"/>
<path opacity="0.5" d="M172.263 68.0921L174.162 68.7206C176.176 69.3874 177.843 70.827 178.796 72.7228C179.748 74.6186 179.909 76.8152 179.242 78.8294L178.928 79.7788L161.84 74.1219L162.154 73.1725C162.821 71.1583 164.261 69.4915 166.156 68.5387C168.052 67.5859 170.249 67.4253 172.263 68.0921ZM203.611 87.9499L186.523 82.293L186.837 81.3436C187.504 79.3294 188.943 77.6625 190.839 76.7098C192.735 75.757 194.932 75.5963 196.946 76.2631L198.844 76.8917C200.859 77.5585 202.526 78.9981 203.478 80.8939C204.431 82.7897 204.592 84.9863 203.925 87.0005L203.611 87.9499ZM158.756 112.076C156.933 111.472 155.402 110.209 154.463 108.534C153.524 106.858 153.246 104.893 153.684 103.023L156.812 89.3112L173.9 94.9681L168.228 107.838C167.463 109.599 166.067 111.011 164.314 111.795C162.562 112.579 160.579 112.679 158.756 112.076ZM183.439 120.247C185.261 120.85 187.244 120.75 188.997 119.966C190.75 119.182 192.146 117.77 192.91 116.009L198.582 103.139L181.494 97.4823L178.367 111.194C177.929 113.064 178.207 115.03 179.146 116.705C180.084 118.38 181.616 119.643 183.439 120.247Z" fill="#BBABF7"/>
<rect x="111.823" y="416" width="39" height="45" fill="#EEEAFC"/>
<path fill-rule="evenodd" clip-rule="evenodd" d="M209.09 377.907C213.224 374.166 216.84 367.043 219.323 353.5C219.323 331 200.764 326.5 190.823 326.5C180.882 326.5 178.323 340.5 181.823 354.5C182.881 358.734 183.25 362.446 183.481 365.677C177.757 373.497 172.823 384.839 172.823 390C172.823 398.284 172.823 406.5 186.823 404C192.237 403.033 200.505 399 205.823 390C207.639 386.925 208.915 382.509 209.09 377.907ZM95.7337 362.28C95.7926 361.694 95.8228 361.1 95.8228 360.5C95.8228 350.283 87.0923 342 76.3228 342C65.5532 342 56.8228 350.283 56.8228 360.5C56.8228 367.736 61.2017 374.002 67.5826 377.042C67.4117 378.006 67.3228 378.994 67.3228 380C67.3228 390.493 79.8228 402.5 94.8228 400.5C106.145 400.5 108.823 390.493 108.823 380C108.823 371.929 103.393 365.033 95.7337 362.28Z" fill="#D6CCFB"/>
<path fill-rule="evenodd" clip-rule="evenodd" d="M145.793 436C161.323 436 184.323 413.794 184.323 379C189.823 343.5 170.303 315 138.823 315C113.961 315 99.3654 329.163 94.3276 352.257C86.6762 353.844 80.8228 362.513 80.8228 371C80.8228 379.279 86.3931 386.176 93.7689 387.691C99.1433 415.27 119.042 436 145.793 436Z" fill="#EEEAFC"/>
<path fill-rule="evenodd" clip-rule="evenodd" d="M158.808 327.028C158.941 326.948 159.073 326.867 159.203 326.786C161.182 327.017 163.381 327.251 165.823 327.5C167.126 327.385 168.456 327.349 169.798 327.37C176.204 333.988 179.813 342.149 183.803 351.5C190.983 351.5 196.803 337.127 196.803 330.5C196.803 329.369 196.633 328.275 196.317 327.237C198.875 325.131 199.578 320.851 197.323 312.699C195.323 301.5 184.13 292.199 170.323 292.199C162.943 291.245 154.809 293.248 148.703 296.575C144.637 291.337 137.71 288 127.823 288C112.122 288 100.686 298.299 99.0298 309.663C97.009 309.541 94.628 309.64 91.8228 310C78.3228 310 64.8228 324.059 64.8228 334C64.8228 343.941 76.1202 354 88.8228 354C105.683 352.073 109.084 344.577 110.204 329.276C110.814 329.61 111.443 329.924 112.092 330.217C117.045 333.114 124.802 335 132.323 335C143.572 334.598 154.821 331.518 158.808 327.028Z" fill="#D6CDFB"/>
<path d="M133.823 346.5C133.823 348.157 128.823 351.556 124.823 352C120.323 352.5 118.323 353 117.823 351C117.823 349 121.823 345.562 126.323 345C130.323 344.5 133.823 344.843 133.823 346.5Z" fill="#7755F1"/>
<path d="M171.323 350.5C170.823 351.5 167.323 352 164.323 351.5C157.823 349 159.323 346 159.823 345C161.323 344 162.823 344.5 166.323 345C169.823 346 171.323 349.5 171.323 350.5Z" fill="#7755F1"/>
<path d="M150.823 374C150.964 381.887 151.489 386.023 153.823 392.5C147.715 393.413 145.151 394.167 142.323 396" stroke="#7755F1" stroke-width="3" stroke-linecap="round" stroke-linejoin="round"/>
<path d="M130.823 402.5C133.357 406.38 136.19 407.513 143.323 408" stroke="#7755F1" stroke-width="3" stroke-linecap="round" stroke-linejoin="round"/>
<path d="M161.823 375.154C164.418 370.507 170.26 368.475 174.83 370.994" stroke="#7755F1" stroke-width="3" stroke-linecap="round" stroke-linejoin="round"/>
<path d="M132.487 376.32C129.963 371.247 125.037 369.058 115.852 371.372" stroke="#7755F1" stroke-width="3" stroke-linecap="round" stroke-linejoin="round"/>
<path d="M145.323 372C145.323 386.672 134.318 398.5 120.823 398.5C107.327 398.5 96.3228 386.672 96.3228 372C96.3228 357.328 107.327 345.5 120.823 345.5C134.318 345.5 145.323 357.328 145.323 372Z" fill="#BBABF7" fill-opacity="0.1" stroke="#7D5EF1"/>
<path d="M203.323 371C203.323 385.672 192.318 397.5 178.823 397.5C165.327 397.5 154.323 385.672 154.323 371C154.323 356.328 165.327 344.5 178.823 344.5C192.318 344.5 203.323 356.328 203.323 371Z" fill="#BBABF7" fill-opacity="0.1" stroke="#7D5EF1"/>
<path d="M144.323 380.5C149.661 377.101 152.087 377.469 155.823 380.5M90.3228 354L97.8228 362.5" stroke="#7755F1" stroke-linecap="round" stroke-linejoin="round"/>
<ellipse cx="171.823" cy="325" rx="13" ry="10" fill="#D6CDFB"/>
<path d="M110.823 422C124.823 435 139.823 437.5 151.823 435.613" stroke="#7655F1" stroke-linecap="round"/>
</svg>
