<svg width="275" height="677" viewBox="0 0 275 677" fill="none" xmlns="http://www.w3.org/2000/svg">
<path d="M164 461.038C164 466.008 159.299 470.038 153.5 470.038C147.701 470.038 143 466.008 143 461.038C143 456.067 147.701 452.038 153.5 452.038C158 451.538 164 456.067 164 461.038Z" fill="#D6CDFB"/>
<path d="M167.323 460C164.823 467 156.615 477.5 140.323 477.5C124.03 477.5 109.824 464 103.823 457C134.322 444 118.029 444 134.322 444C150.614 444 134.322 444 167.323 460Z" fill="#A298C9"/>
<rect x="114.823" y="416" width="39" height="45" fill="#A298C9"/>
<path fill-rule="evenodd" clip-rule="evenodd" d="M212.09 377.907C216.224 374.166 219.84 367.043 222.323 353.5C222.323 331 203.764 326.5 193.823 326.5C183.882 326.5 181.323 340.5 184.823 354.5C185.881 358.734 186.25 362.446 186.481 365.677C180.757 373.497 175.823 384.839 175.823 390C175.823 398.284 175.823 406.5 189.823 404C195.237 403.033 203.505 399 208.823 390C210.639 386.925 211.915 382.509 212.09 377.907ZM98.7337 362.28C98.7926 361.694 98.8228 361.1 98.8228 360.5C98.8228 350.283 90.0923 342 79.3228 342C68.5532 342 59.8228 350.283 59.8228 360.5C59.8228 367.736 64.2017 374.002 70.5826 377.042C70.4117 378.006 70.3228 378.994 70.3228 380C70.3228 390.493 82.8228 402.5 97.8228 400.5C109.145 400.5 111.823 390.493 111.823 380C111.823 371.929 106.393 365.033 98.7337 362.28Z" fill="#726B8E"/>
<path fill-rule="evenodd" clip-rule="evenodd" d="M148.793 436C164.323 436 187.323 413.794 187.323 379C192.823 343.5 173.303 315 141.823 315C116.961 315 102.365 329.163 97.3276 352.257C89.6762 353.844 83.8228 362.513 83.8228 371C83.8228 379.279 89.3931 386.176 96.7689 387.691C102.143 415.27 122.042 436 148.793 436Z" fill="#A298C9"/>
<path fill-rule="evenodd" clip-rule="evenodd" d="M161.808 327.028C161.941 326.948 162.073 326.867 162.203 326.786C164.182 327.017 166.381 327.251 168.823 327.5C170.126 327.385 171.456 327.349 172.798 327.37C179.204 333.988 182.813 342.149 186.803 351.5C193.983 351.5 199.803 337.127 199.803 330.5C199.803 329.369 199.633 328.275 199.317 327.237C201.875 325.131 202.578 320.851 200.323 312.699C198.323 301.5 187.13 292.199 173.323 292.199C165.943 291.245 157.809 293.248 151.703 296.575C147.637 291.337 140.71 288 130.823 288C115.122 288 103.686 298.299 102.03 309.663C100.009 309.541 97.628 309.64 94.8228 310C81.3228 310 67.8228 324.059 67.8228 334C67.8228 343.941 79.1202 354 91.8228 354C108.683 352.073 112.084 344.577 113.204 329.276C113.814 329.61 114.443 329.924 115.092 330.217C120.045 333.114 127.802 335 135.323 335C146.572 334.598 157.821 331.518 161.808 327.028Z" fill="#726B8E"/>
<path d="M136.823 346.5C136.823 348.157 131.823 351.556 127.823 352C123.323 352.5 121.323 353 120.823 351C120.823 349 124.823 345.562 129.323 345C133.323 344.5 136.823 344.843 136.823 346.5Z" fill="#291E53"/>
<path d="M174.323 350.5C173.823 351.5 170.323 352 167.323 351.5C160.823 349 162.323 346 162.823 345C164.323 344 165.823 344.5 169.323 345C172.823 346 174.323 349.5 174.323 350.5Z" fill="#291E53"/>
<path d="M153.823 374C153.964 381.887 154.489 386.023 156.823 392.5C150.715 393.413 148.151 394.167 145.323 396" stroke="#291E53" stroke-width="3" stroke-linecap="round" stroke-linejoin="round"/>
<path d="M133.823 402.5C136.357 406.38 139.19 407.513 146.323 408" stroke="#291E53" stroke-width="3" stroke-linecap="round" stroke-linejoin="round"/>
<path d="M164.823 375.154C167.418 370.507 173.26 368.475 177.83 370.994" stroke="#291E53" stroke-width="3" stroke-linecap="round" stroke-linejoin="round"/>
<path d="M135.487 376.32C132.963 371.247 128.037 369.058 118.852 371.372" stroke="#291E53" stroke-width="3" stroke-linecap="round" stroke-linejoin="round"/>
<path d="M148.323 372C148.323 386.672 137.318 398.5 123.823 398.5C110.327 398.5 99.3228 386.672 99.3228 372C99.3228 357.328 110.327 345.5 123.823 345.5C137.318 345.5 148.323 357.328 148.323 372Z" fill="#8766FF" fill-opacity="0.14" stroke="#291E53"/>
<path d="M206.323 371C206.323 385.672 195.318 397.5 181.823 397.5C168.327 397.5 157.323 385.672 157.323 371C157.323 356.328 168.327 344.5 181.823 344.5C195.318 344.5 206.323 356.328 206.323 371Z" fill="#8766FF" fill-opacity="0.14" stroke="#291E53"/>
<path d="M147.323 380.5C152.661 377.101 155.087 377.469 158.823 380.5M93.3228 354L100.823 362.5" stroke="#291E53" stroke-linecap="round" stroke-linejoin="round"/>
<ellipse cx="174.823" cy="325" rx="13" ry="10" fill="#726B8E"/>
<path d="M113.823 422C127.823 435 142.823 437.5 154.823 435.613" stroke="#291E53" stroke-linecap="round"/>
<ellipse cx="145.323" cy="530.575" rx="32.5" ry="11.5753" fill="#EEEAFC"/>
<path d="M175.273 530.685C175.273 531.935 174.563 533.201 173.111 534.423C171.662 535.644 169.532 536.768 166.851 537.722C161.496 539.63 154.061 540.82 145.823 540.82C137.584 540.82 130.15 539.63 124.794 537.722C122.114 536.768 119.984 535.644 118.535 534.423C117.083 533.201 116.373 531.935 116.373 530.685C116.373 529.435 117.083 528.169 118.535 526.947C119.984 525.726 122.114 524.602 124.794 523.648C130.15 521.74 137.584 520.55 145.823 520.55C154.061 520.55 161.496 521.74 166.851 523.648C169.532 524.602 171.662 525.726 173.111 526.947C174.563 528.169 175.273 529.435 175.273 530.685Z" stroke="#EEEAFC" stroke-width="1.1"/>
<path d="M102.702 581.241C74.1836 603.314 27.1928 601.177 4.5 625" stroke="#8766FF" stroke-width="2"/>
<path d="M117.323 591C80.8226 644.5 87.3228 646 57.8228 675.5" stroke="#8766FF" stroke-width="2"/>
<path d="M71.8225 492C70.124 510.575 56.8229 551.5 35.3229 564C-1.78936 578.84 -13.9444 521.425 19.8223 486C40.3229 466 100.187 452 114.823 452C86.8225 471 71.8225 473.775 71.8225 492Z" fill="#726B8E"/>
<ellipse cx="145.823" cy="572.26" rx="26" ry="9.26027" fill="#726B8E"/>
<path d="M112.823 531H177.823L171.823 573H119.823L112.823 531Z" fill="#726B8E"/>
<ellipse cx="145.323" cy="530.575" rx="32.5" ry="11.5753" fill="#A298C9"/>
<path d="M171.823 535.438C166.823 537.5 159.958 541 145.323 541C130.687 541 124.323 537.5 118.823 535.438C118.823 530.226 130.687 526 145.323 526C159.958 526 171.823 530.226 171.823 535.438Z" fill="#8766FF"/>
<path d="M155.156 499.681C162.656 515.723 150.044 533 146.823 533C143.601 533 155.99 532.383 141.823 505.851C141.823 490.176 154.323 488.617 161.823 475C159.323 492.894 155.156 484.005 155.156 499.681Z" fill="#C8C1E3" fill-opacity="0.75"/>
<path d="M122.822 558.897C126.871 572.672 130.718 588.861 120.374 591.901C110.03 594.942 90.545 570.372 90.2875 567.625C86.2383 553.85 96.8742 516.01 107.218 512.97C120.58 507.913 118.773 545.122 122.822 558.897Z" fill="#A298C9"/>
<path d="M109.322 511.397C108.822 513.397 104.822 544.897 104.822 559.397" stroke="#291E53"/>
<path d="M115.322 512.397C110.441 530.752 113.822 537.397 113.322 559.897" stroke="#291E53"/>
<path d="M103.322 514.397C103.322 514.397 97.3223 542.397 96.8223 558.397" stroke="#291E53"/>
<path d="M171.242 556.897C167.193 570.672 163.347 586.861 173.691 589.901C184.035 592.942 203.519 568.372 203.777 565.625C207.826 551.85 197.19 514.01 186.846 510.97C173.484 505.913 175.291 543.122 171.242 556.897Z" fill="#A298C9"/>
<path d="M184.742 509.397C185.242 511.397 189.242 542.897 189.242 557.397" stroke="#291E53"/>
<path d="M178.742 510.397C183.624 528.752 180.242 535.397 180.742 557.897" stroke="#291E53"/>
<path d="M190.742 512.397C190.742 512.397 196.742 540.397 197.242 556.397" stroke="#291E53"/>
<path d="M250.948 676C221.853 676 196.27 676 154.133 676C139.586 596.5 204.296 575 201.788 537C205.071 497.942 154.133 456 154.133 452C165.169 453 337.044 477.5 250.948 676Z" fill="#726B8E"/>
<path d="M184.733 210.43C182.712 209.83 180.567 209.787 178.523 210.306C176.48 210.825 174.616 211.887 173.126 213.378C171.414 215.089 170.275 217.289 169.866 219.674C169.456 222.059 169.797 224.513 170.84 226.696L168.297 229.238L168.298 231.999L165.538 231.997L165.541 234.754L162.779 234.757L162.781 237.514L160.064 237.473L160.023 240.273L157.262 240.272L155.882 241.654L156.574 246.482L161.402 247.169L176.357 232.214C177.641 232.815 179.023 233.177 180.437 233.283C179.237 231.848 178.399 230.146 177.996 228.319C177.592 226.493 177.633 224.596 178.117 222.79C178.827 220.141 180.446 217.827 182.689 216.25C184.932 214.673 187.658 213.935 190.391 214.163C190.166 213.889 189.928 213.626 189.679 213.373C188.303 211.993 186.602 210.981 184.733 210.428L184.733 210.43ZM190.939 220.167C190.405 220.023 189.841 220.033 189.313 220.196C188.785 220.36 188.314 220.669 187.954 221.089C187.595 221.509 187.362 222.022 187.282 222.569C187.202 223.116 187.279 223.675 187.503 224.18C187.728 224.685 188.091 225.116 188.55 225.424C189.01 225.731 189.547 225.902 190.099 225.917C190.652 225.932 191.198 225.789 191.673 225.507C192.148 225.224 192.533 224.813 192.784 224.321C192.924 223.73 193.017 223.13 193.063 222.525C192.974 221.969 192.727 221.451 192.35 221.032C191.973 220.614 191.483 220.313 190.939 220.167Z" stroke="#8766FF" stroke-width="2" stroke-linecap="round" stroke-linejoin="round"/>
<path d="M192.453 214.514C189.786 213.799 186.953 214.05 184.453 215.223C181.953 216.396 179.948 218.414 178.793 220.922C177.638 223.43 177.406 226.265 178.139 228.927C178.873 231.589 180.523 233.906 182.8 235.469L181.869 238.941L183.248 241.33L180.859 242.71L182.239 245.099L179.85 246.478L181.229 248.867L178.855 250.19L180.219 252.636L177.83 254.015L177.325 255.899L180.336 259.735L184.862 257.919L190.336 237.488C193.088 237.272 195.675 236.09 197.639 234.151C199.604 232.213 200.821 229.642 201.074 226.894C201.327 224.145 200.601 221.396 199.023 219.131C197.446 216.866 195.119 215.231 192.453 214.516L192.453 214.514ZM190.939 220.167C191.688 220.368 192.327 220.858 192.715 221.53C193.103 222.202 193.209 223.001 193.008 223.75C192.807 224.5 192.316 225.139 191.644 225.527C190.972 225.915 190.174 226.02 189.424 225.819C188.674 225.619 188.035 225.128 187.647 224.456C187.259 223.784 187.154 222.985 187.355 222.236C187.556 221.486 188.046 220.847 188.718 220.459C189.39 220.071 190.189 219.966 190.939 220.167Z" stroke="#8766FF" stroke-width="2" stroke-linecap="round" stroke-linejoin="round"/>
<path d="M176.598 210.754C176.717 208.434 177.525 206.201 178.919 204.342C180.313 202.483 182.23 201.083 184.425 200.319C186.62 199.554 188.994 199.462 191.242 200.053C193.49 200.645 195.511 201.894 197.046 203.64C198.58 205.385 199.558 207.548 199.857 209.852C200.155 212.156 199.76 214.497 198.721 216.575C197.682 218.654 196.046 220.375 194.023 221.519C192.001 222.663 189.682 223.178 187.365 222.998" stroke="#8766FF" stroke-width="2" stroke-linecap="round" stroke-linejoin="round"/>
<path d="M68.9556 182.591C68.9244 182.235 68.7807 181.999 68.7746 181.989C68.7716 181.984 68.7672 181.98 68.762 181.978C68.7567 181.975 68.7509 181.974 68.7451 181.974L68.0597 182.034C68.0478 182.035 68.0376 182.043 68.0332 182.054C68.0289 182.065 67.9283 182.322 67.9594 182.678C67.976 182.868 68.0504 183.038 68.1226 183.203C68.1881 183.353 68.25 183.495 68.2625 183.638C68.2889 183.94 68.2579 184.188 68.2575 184.191C68.2552 184.209 68.2612 184.227 68.2739 184.241C68.2801 184.247 68.2878 184.252 68.2962 184.255C68.3047 184.259 68.3137 184.26 68.3227 184.259L68.8724 184.211C68.8907 184.209 68.9071 184.2 68.9173 184.184C68.9224 184.177 68.9257 184.168 68.927 184.159C68.9282 184.15 68.9275 184.141 68.9248 184.133C68.9218 184.123 68.8501 183.889 68.8238 183.589C68.8113 183.446 68.8477 183.295 68.8863 183.136C68.9285 182.961 68.9722 182.781 68.9556 182.591V182.591ZM68.025 182.551C68.023 182.527 68.0262 182.505 68.0348 182.485C68.0493 182.451 68.0755 182.427 68.1003 182.425L68.1005 182.425C68.1288 182.423 68.1525 182.402 68.1581 182.374C68.1616 182.357 68.1705 182.341 68.1834 182.33C68.1963 182.318 68.2126 182.311 68.2299 182.31C68.2499 182.308 68.2698 182.314 68.2857 182.326C68.3017 182.338 68.3125 182.355 68.316 182.375C68.3179 182.385 68.3221 182.395 68.3284 182.403C68.3346 182.411 68.3427 182.417 68.352 182.422C68.3613 182.426 68.3715 182.428 68.3817 182.428C68.3919 182.427 68.4019 182.425 68.4108 182.42C68.4175 182.416 68.4259 182.414 68.4365 182.413C68.4518 182.411 68.4846 182.425 68.5023 182.444C68.5166 182.459 68.5376 182.466 68.5587 182.463C68.569 182.462 68.5787 182.458 68.5871 182.452C68.5955 182.446 68.6023 182.437 68.6069 182.428C68.631 182.38 68.6698 182.35 68.7131 182.346C68.7768 182.34 68.8379 182.393 68.8638 182.471C68.8129 182.51 68.6594 182.608 68.4626 182.531C68.2842 182.46 68.1064 182.516 68.025 182.551V182.551ZM68.0853 182.095L68.7305 182.039C68.7517 182.077 68.8043 182.182 68.845 182.331C68.8054 182.297 68.7573 182.279 68.7076 182.283C68.6419 182.289 68.5846 182.332 68.5482 182.4C68.5185 182.369 68.467 182.347 68.431 182.35C68.4114 182.352 68.3948 182.356 68.3781 182.364C68.3717 182.329 68.3524 182.297 68.324 182.275C68.2955 182.254 68.26 182.244 68.2244 182.247C68.1615 182.252 68.1088 182.299 68.0949 182.362L68.0945 182.362C68.0693 182.365 68.045 182.376 68.0241 182.394C68.0388 182.245 68.0714 182.136 68.0853 182.095V182.095ZM68.761 183.594C68.7872 183.894 68.8579 184.13 68.8645 184.148L68.3205 184.196C68.3215 184.187 68.3242 184.163 68.3271 184.127L68.745 184.091C68.7533 184.09 68.7611 184.086 68.7664 184.08C68.7718 184.073 68.7744 184.065 68.7737 184.057C68.773 184.048 68.769 184.041 68.7625 184.035C68.7561 184.03 68.7478 184.027 68.7395 184.028L68.3313 184.064C68.3372 183.96 68.3404 183.805 68.3253 183.632C68.3118 183.479 68.248 183.333 68.1802 183.178C68.1103 183.018 68.0379 182.852 68.0222 182.673C68.0208 182.656 68.0197 182.639 68.0188 182.623C68.0606 182.602 68.2529 182.516 68.4394 182.589C68.516 182.619 68.587 182.627 68.6497 182.621C68.7569 182.612 68.8398 182.565 68.8856 182.533C68.8884 182.554 68.8909 182.575 68.8928 182.597C68.9085 182.776 68.866 182.951 68.8248 183.122C68.7851 183.286 68.7475 183.441 68.761 183.594V183.594Z" fill="#8766FF"/>
<path d="M68.2729 182.811C68.2676 182.818 68.2649 182.826 68.2657 182.834C68.2664 182.843 68.2705 182.85 68.2768 182.856C68.2832 182.861 68.2916 182.864 68.3 182.863C68.3062 182.863 68.3121 182.86 68.317 182.856C68.3218 182.852 68.3254 182.847 68.3273 182.841C68.3291 182.835 68.3292 182.829 68.3274 182.823C68.3256 182.817 68.3221 182.811 68.3173 182.807C68.3046 182.797 68.2839 182.799 68.2729 182.811V182.811ZM68.497 182.937C68.492 182.944 68.4893 182.952 68.4901 182.96C68.4909 182.969 68.4949 182.976 68.5012 182.982C68.5076 182.987 68.5158 182.99 68.5241 182.989C68.5324 182.988 68.5401 182.984 68.5455 182.978C68.5509 182.972 68.5536 182.963 68.5529 182.955C68.5522 182.947 68.5481 182.939 68.5417 182.933C68.529 182.923 68.508 182.925 68.497 182.937ZM68.6883 182.733C68.6829 182.739 68.6803 182.747 68.681 182.756C68.6818 182.764 68.6858 182.772 68.6922 182.777C68.6986 182.783 68.707 182.785 68.7153 182.785C68.7216 182.784 68.7275 182.782 68.7323 182.778C68.7372 182.774 68.7408 182.768 68.7426 182.762C68.7445 182.756 68.7445 182.75 68.7427 182.744C68.741 182.738 68.7375 182.733 68.7327 182.729C68.72 182.718 68.699 182.72 68.6883 182.733V182.733ZM68.6177 183.252C68.6124 183.258 68.6097 183.267 68.6105 183.275C68.6113 183.283 68.6153 183.291 68.6216 183.296C68.628 183.302 68.6362 183.304 68.6445 183.304C68.6507 183.303 68.6566 183.301 68.6615 183.297C68.6664 183.293 68.67 183.288 68.6719 183.282C68.6738 183.276 68.6739 183.269 68.6721 183.263C68.6704 183.257 68.6669 183.252 68.6622 183.248C68.6494 183.237 68.6284 183.239 68.6177 183.252V183.252ZM68.4535 183.498C68.4482 183.505 68.4455 183.513 68.4463 183.522C68.4471 183.53 68.4511 183.538 68.4574 183.543C68.4638 183.548 68.472 183.551 68.4803 183.55C68.4886 183.549 68.4963 183.545 68.5017 183.539C68.5071 183.533 68.5098 183.524 68.5091 183.516C68.5084 183.508 68.5043 183.5 68.4979 183.495C68.4852 183.484 68.4642 183.486 68.4535 183.498ZM68.5615 183.675C68.5563 183.681 68.5538 183.69 68.5546 183.698C68.5553 183.706 68.5594 183.714 68.5657 183.719C68.5721 183.725 68.5805 183.727 68.5886 183.726C68.597 183.726 68.6048 183.722 68.6101 183.715C68.6155 183.709 68.6181 183.701 68.6174 183.692C68.6167 183.684 68.6126 183.676 68.6063 183.671C68.5938 183.66 68.5725 183.662 68.5615 183.675V183.675Z" fill="#8766FF"/>
<path d="M56.4303 145.734L56.4755 145.207L56.0654 144.873L54.5739 143.659L54.5739 143.659L54.572 143.657L54.5785 143.655L56.4377 143.222L56.9509 143.102L57.1423 142.611L57.8391 140.824L57.8392 140.824L57.842 140.816L57.8461 140.823L58.8428 142.462L59.1165 142.913L59.6426 142.941L61.549 143.046L61.549 143.046L61.5556 143.046L61.554 143.048L60.296 144.503L59.9609 144.891L60.0799 145.389L60.5235 147.248L60.5283 147.268L60.5336 147.286L60.5298 147.285L58.7587 146.546L58.2755 146.345L57.8346 146.627L56.2676 147.631L56.4303 145.734ZM70.2148 149.592L73.0856 148.891L73.6042 148.764L73.7874 148.263L74.8484 145.359L74.8485 145.359L74.8518 145.35L74.8568 145.358L76.4059 148.034L76.6734 148.496L77.2062 148.53L80.1113 148.72L78.1695 151.089L77.8491 151.48L77.9738 151.969L78.7538 155.033L78.7562 155.043L78.7586 155.051L78.7475 155.052L76.032 153.84L75.5304 153.616L75.0724 153.92L72.644 155.527L72.877 152.415L72.9148 151.911L72.5314 151.582L70.2148 149.592Z" stroke="#8766FF" stroke-width="2"/>
<path d="M113.91 177.834L109.926 178.182L110.1 180.175L114.085 179.826L113.91 177.834Z" fill="#8766FF"/>
<path d="M66.7798 171.845L81.1948 170.584L71.7688 177.582C71.5887 177.707 71.4548 177.888 71.3878 178.098C71.3208 178.307 71.3245 178.532 71.3982 178.739C71.4774 178.949 71.6249 179.126 71.8172 179.242C72.0094 179.358 72.2352 179.406 72.4581 179.379L81.4238 178.594L81.2495 176.602L75.8003 177.079L85.2263 170.08C85.4064 169.955 85.5403 169.774 85.6073 169.565C85.6743 169.356 85.6706 169.131 85.5969 168.924C85.5177 168.714 85.3702 168.536 85.1779 168.42C84.9857 168.304 84.7599 168.256 84.537 168.284L66.6055 169.852L66.7798 171.845Z" fill="#8766FF"/>
<path d="M64.9143 168.921L62.9219 169.095L63.0962 171.087L65.0886 170.913L64.9143 168.921Z" fill="#8766FF"/>
<path d="M109.905 192.712L103.141 193.304L103.315 195.296L110.079 194.704L109.905 192.712Z" fill="#8766FF"/>
<path d="M89.1302 141.276L89.1251 141.27L89.1365 141.274C91.8414 142.149 94.3971 143.431 96.7159 145.076C102.957 149.581 107.179 156.358 108.471 163.947C109.763 171.537 108.021 179.331 103.621 185.648L103.621 185.648L103.615 185.657C101.456 188.827 98.6849 191.534 95.4656 193.62C92.2463 195.706 88.6432 197.128 84.8672 197.804L84.8502 197.807L84.8333 197.811C84.037 197.982 83.2321 198.053 82.3662 198.129C75.6935 198.71 69.033 196.886 63.5868 192.987L63.5869 192.987L63.5796 192.982C60.6947 190.955 58.2104 188.411 56.2523 185.479C62.1872 187.859 68.758 188.137 74.8722 186.265C80.9839 184.394 86.2714 180.488 89.8563 175.196C93.3553 170.2 95.1717 164.219 95.042 158.121C94.9123 152.021 92.8414 146.12 89.1302 141.276L89.1302 141.276Z" stroke="#8766FF" stroke-width="2"/>
<rect x="5.32275" y="1.5" width="260" height="673" rx="15.5" stroke="#726B8E" stroke-width="3"/>
<path opacity="0.5" d="M174.964 85.8268L169.544 88.5512L166.819 83.1303C166.576 82.5616 166.559 81.9215 166.771 81.3406C166.984 80.7596 167.41 80.2816 167.962 80.0038C168.515 79.7261 169.153 79.6695 169.746 79.8457C170.339 80.0219 170.842 80.4175 171.153 80.952L171.699 82.0387L172.786 81.4926C173.073 81.3256 173.391 81.2191 173.72 81.1797C174.049 81.1402 174.383 81.1686 174.701 81.263C175.019 81.3575 175.315 81.5161 175.569 81.7291C175.823 81.942 176.031 82.2048 176.18 82.5012C176.329 82.7976 176.416 83.1213 176.435 83.4525C176.454 83.7837 176.405 84.1153 176.291 84.4269C176.177 84.7384 176.001 85.0234 175.773 85.2641C175.545 85.5049 175.269 85.6963 174.964 85.8268V85.8268ZM191.502 91.3014L194.226 96.7222L199.647 93.9978C199.952 93.8674 200.227 93.6759 200.455 93.4352C200.684 93.1944 200.86 92.9095 200.974 92.5979C201.088 92.2864 201.137 91.9548 201.118 91.6236C201.099 91.2924 201.012 90.9687 200.863 90.6723C200.714 90.3759 200.506 90.1131 200.252 89.9002C199.997 89.6872 199.702 89.5286 199.384 89.4341C199.066 89.3396 198.732 89.3113 198.403 89.3507C198.073 89.3902 197.755 89.4967 197.469 89.6637L196.382 90.2098L195.836 89.1231C195.706 88.8181 195.514 88.543 195.273 88.3148C195.033 88.0866 194.748 87.9101 194.436 87.7961C194.125 87.6822 193.793 87.6333 193.462 87.6524C193.131 87.6715 192.807 87.7582 192.51 87.9072C192.214 88.0561 191.951 88.2642 191.738 88.5186C191.525 88.7729 191.367 89.0682 191.272 89.3862C191.178 89.7042 191.149 90.0382 191.189 90.3675C191.228 90.6969 191.335 91.0147 191.502 91.3014Z" fill="#8766FF"/>
<path d="M183.192 79.1437C183.942 76.8777 183.761 74.4065 182.689 72.2738C181.617 70.141 179.742 68.5214 177.476 67.7713L175.577 67.1427C173.311 66.3926 170.84 66.5733 168.707 67.6452C166.575 68.7171 164.955 70.5923 164.205 72.8583C163.953 72.7749 163.679 72.795 163.442 72.9141C163.205 73.0332 163.025 73.2415 162.941 73.4933L157.913 88.6827C157.83 88.9344 157.85 89.209 157.969 89.446C158.088 89.683 158.296 89.8629 158.548 89.9463C158.681 89.9903 158.862 88.9969 155.694 102.832C155.214 104.941 155.537 107.154 156.6 109.038C157.662 110.922 159.389 112.342 161.443 113.022C163.496 113.702 165.729 113.592 167.706 112.714C169.683 111.837 171.263 110.254 172.136 108.275C177.877 95.1969 177.402 96.1877 177.535 96.2317C177.786 96.3151 178.061 96.295 178.298 96.1759C178.535 96.0568 178.715 95.8484 178.798 95.5966L183.827 80.4073C183.91 80.1555 183.89 79.881 183.771 79.644C183.652 79.407 183.443 79.2271 183.192 79.1437ZM164.526 75.0712L181.614 80.7281L177.214 94.0188L160.126 88.3619L164.526 75.0712ZM174.949 69.0414L176.847 69.6699C178.61 70.2534 180.068 71.5131 180.902 73.1719C181.736 74.8307 181.876 76.7527 181.293 78.5152L166.104 73.4868C166.687 71.7244 167.947 70.2659 169.605 69.4322C171.264 68.5985 173.186 68.4579 174.949 69.0414V69.0414ZM170.307 107.47C169.635 108.996 168.419 110.217 166.896 110.894C165.372 111.572 163.651 111.657 162.068 111.133C160.485 110.609 159.155 109.513 158.336 108.061C157.518 106.608 157.271 104.902 157.643 103.277L160.542 90.6062L175.541 95.5717L170.307 107.47ZM207.874 87.3148C208.624 85.0488 208.444 82.5776 207.372 80.4448C206.3 78.3121 204.425 76.6925 202.159 75.9424L200.26 75.3138C197.994 74.5637 195.523 74.7444 193.39 75.8163C191.257 76.8881 189.638 78.7633 188.888 81.0293C188.636 80.946 188.361 80.9661 188.124 81.0852C187.887 81.2043 187.707 81.4126 187.624 81.6644L182.596 96.8537C182.512 97.1055 182.532 97.3801 182.651 97.6171C182.77 97.854 182.979 98.034 183.231 98.1173C183.364 98.1613 183.545 97.168 180.376 111.003C179.896 113.112 180.219 115.325 181.282 117.209C182.345 119.093 184.072 120.513 186.125 121.193C188.179 121.873 190.412 121.763 192.389 120.886C194.366 120.008 195.945 118.425 196.819 116.446C202.56 103.368 202.084 104.359 202.217 104.403C202.469 104.486 202.744 104.466 202.981 104.347C203.218 104.228 203.398 104.02 203.481 103.768L208.509 88.5784C208.593 88.3266 208.573 88.052 208.453 87.8151C208.334 87.5781 208.126 87.3981 207.874 87.3148ZM189.208 83.2423L206.296 88.8992L201.896 102.19L184.808 96.5329L189.208 83.2423ZM199.631 77.2125L201.53 77.841C203.293 78.4245 204.751 79.6842 205.585 81.343C206.418 83.0018 206.559 84.9238 205.976 86.6863L190.786 81.6579C191.37 79.8954 192.629 78.437 194.288 77.6033C195.947 76.7696 197.869 76.629 199.631 77.2125V77.2125ZM194.989 115.641C194.318 117.167 193.102 118.388 191.578 119.065C190.055 119.743 188.334 119.828 186.751 119.304C185.168 118.78 183.837 117.684 183.019 116.232C182.201 114.779 181.953 113.074 182.325 111.448L185.224 98.7773L200.224 103.743L194.989 115.641Z" fill="#8766FF"/>
<path opacity="0.5" d="M175.263 68.0921L177.162 68.7206C179.176 69.3874 180.843 70.827 181.796 72.7228C182.748 74.6186 182.909 76.8152 182.242 78.8294L181.928 79.7788L164.84 74.1219L165.154 73.1725C165.821 71.1583 167.261 69.4915 169.156 68.5387C171.052 67.5859 173.249 67.4253 175.263 68.0921V68.0921ZM206.611 87.9499L189.523 82.293L189.837 81.3436C190.504 79.3294 191.943 77.6625 193.839 76.7098C195.735 75.757 197.932 75.5963 199.946 76.2631L201.844 76.8917C203.859 77.5585 205.526 78.9981 206.478 80.8939C207.431 82.7897 207.592 84.9863 206.925 87.0005L206.611 87.9499ZM161.756 112.076C159.933 111.472 158.402 110.209 157.463 108.534C156.524 106.858 156.246 104.893 156.684 103.023L159.812 89.3112L176.9 94.9681L171.228 107.838C170.463 109.599 169.067 111.011 167.314 111.795C165.562 112.579 163.579 112.679 161.756 112.076V112.076ZM186.439 120.247C188.261 120.85 190.244 120.75 191.997 119.966C193.75 119.182 195.146 117.77 195.91 116.009L201.582 103.139L184.494 97.4823L181.367 111.194C180.929 113.064 181.207 115.03 182.146 116.705C183.084 118.38 184.616 119.643 186.439 120.247V120.247Z" fill="#8766FF"/>
</svg>
