<svg width="271" height="676" viewBox="0 0 271 676" fill="none" xmlns="http://www.w3.org/2000/svg">
<path d="M23 637H254V676H23V637Z" fill="#BBABF7"/>
<path d="M270.5 649H270V659H269.992C269.997 659.166 270 659.333 270 659.5C269.5 668.5 263 676.5 253 675C242.5 672 238.5 669 236.5 659.5C236.5 655.449 238.03 651.761 240.667 649H37.2333C40.7748 651.836 43 655.938 43 660.5C43 669.061 35.165 676 25.5 676C15 673 11 670.5 9 661C9 660.665 9.01048 660.331 9.0312 660H9V649H8.30689V539.474C7.66495 534.593 7.69961 529.281 8.5 523.5C13 491 80.5 452.456 135 452.456C185.847 452.456 267.99 505.861 270.444 539H270.5V649Z" fill="#BBABF7"/>
<path d="M171.5 460C169 467 160.792 477.5 144.5 477.5C128.208 477.5 114.001 464 108 457C138.499 444 122.207 444 138.499 444C154.791 444 138.499 444 171.5 460Z" fill="#EEEAFC"/>
<rect x="119" y="416" width="39" height="45" fill="#EEEAFC"/>
<path fill-rule="evenodd" clip-rule="evenodd" d="M216.267 377.907C220.401 374.166 224.017 367.043 226.5 353.5C226.5 331 207.941 326.5 198 326.5C188.059 326.5 185.5 340.5 189 354.5C190.059 358.734 190.427 362.446 190.658 365.677C184.934 373.497 180 384.839 180 390C180 398.284 180 406.5 194 404C199.414 403.033 207.682 399 213 390C214.817 386.925 216.092 382.509 216.267 377.907ZM102.911 362.28C102.97 361.694 103 361.1 103 360.5C103 350.283 94.2696 342 83.5 342C72.7304 342 64 350.283 64 360.5C64 367.736 68.3789 374.002 74.7598 377.042C74.589 378.006 74.5 378.994 74.5 380C74.5 390.493 87 402.5 102 400.5C113.322 400.5 116 390.493 116 380C116 371.929 110.57 365.033 102.911 362.28Z" fill="#D6CCFB"/>
<path fill-rule="evenodd" clip-rule="evenodd" d="M152.97 436C168.5 436 191.5 413.794 191.5 379C197 343.5 177.48 315 146 315C121.138 315 106.543 329.163 101.505 352.257C93.8534 353.844 88 362.513 88 371C88 379.279 93.5703 386.176 100.946 387.691C106.321 415.27 126.219 436 152.97 436Z" fill="#EEEAFC"/>
<path fill-rule="evenodd" clip-rule="evenodd" d="M165.985 327.028C166.119 326.948 166.25 326.867 166.38 326.786C168.36 327.017 170.558 327.251 173 327.5C174.304 327.385 175.634 327.349 176.975 327.37C183.382 333.988 186.99 342.149 190.98 351.5C198.16 351.5 203.98 337.127 203.98 330.5C203.98 329.369 203.811 328.275 203.494 327.237C206.052 325.131 206.755 320.851 204.5 312.699C202.5 301.5 191.307 292.199 177.5 292.199C170.12 291.245 161.987 293.248 155.881 296.575C151.815 291.337 144.887 288 135 288C119.299 288 107.863 298.299 106.207 309.663C104.186 309.541 101.805 309.64 99 310C85.5 310 72 324.059 72 334C72 343.941 83.2975 354 96 354C112.86 352.073 116.261 344.577 117.382 329.276C117.991 329.61 118.621 329.924 119.269 330.217C124.222 333.114 131.98 335 139.5 335C150.749 334.598 161.999 331.518 165.985 327.028Z" fill="#D6CDFB"/>
<path d="M136.5 372C136.5 375.314 135.433 378 133.5 378C131.567 378 128 375.314 128 372C128 368.686 129.567 364.5 131.5 364.5C134.5 364.5 136.5 368.686 136.5 372Z" fill="#7755F1"/>
<path d="M136.5 372C136.5 375.314 135.433 378 133.5 378C131.567 378 128 375.314 128 372C128 368.686 129.567 364.5 131.5 364.5C134.5 364.5 136.5 368.686 136.5 372Z" fill="#7755F1"/>
<path d="M170.5 372.5C170.5 375.814 171.567 378.5 173.5 378.5C175.433 378.5 179 375.814 179 372.5C179 369.186 177.433 365 175.5 365C172.5 365 170.5 369.186 170.5 372.5Z" fill="#7755F1"/>
<path d="M141 346.5C141 348.157 136 351.556 132 352C127.5 352.5 125.5 353 125 351C125 349 129 345.562 133.5 345C137.5 344.5 141 344.843 141 346.5Z" fill="#7755F1"/>
<path d="M178.5 350.5C178 351.5 174.5 352 171.5 351.5C165 349 166.5 346 167 345C168.5 344 170 344.5 173.5 345C177 346 178.5 349.5 178.5 350.5Z" fill="#7755F1"/>
<path d="M158 374C158.142 381.887 158.667 386.023 161 392.5C154.892 393.413 152.328 394.167 149.5 396" stroke="#7755F1" stroke-width="3" stroke-linecap="round" stroke-linejoin="round"/>
<path d="M138 402.5C140.534 406.38 143.367 407.513 150.5 408" stroke="#7755F1" stroke-width="3" stroke-linecap="round" stroke-linejoin="round"/>
<path d="M152.5 372C152.5 386.672 141.495 398.5 128 398.5C114.505 398.5 103.5 386.672 103.5 372C103.5 357.328 114.505 345.5 128 345.5C141.495 345.5 152.5 357.328 152.5 372Z" fill="#BBABF7" fill-opacity="0.1" stroke="#7D5EF1"/>
<path d="M210.5 371C210.5 385.672 199.495 397.5 186 397.5C172.505 397.5 161.5 385.672 161.5 371C161.5 356.328 172.505 344.5 186 344.5C199.495 344.5 210.5 356.328 210.5 371Z" fill="#BBABF7" fill-opacity="0.1" stroke="#7D5EF1"/>
<path d="M151.5 380.5C156.838 377.101 159.264 377.469 163 380.5M97.5 354L105 362.5" stroke="#7755F1" stroke-linecap="round" stroke-linejoin="round"/>
<ellipse cx="179" cy="325" rx="13" ry="10" fill="#D6CDFB"/>
<path d="M118 422C132 435 147 437.5 159 435.613" stroke="#7655F1" stroke-linecap="round"/>
<path fill-rule="evenodd" clip-rule="evenodd" d="M44.5001 517L104 577.5L110.5 600L85 596L24 535C23.5 523.5 29.0001 514.5 44.5 517C44.5 517 44.5 517 44.5001 517Z" fill="#7452F1"/>
<path fill-rule="evenodd" clip-rule="evenodd" d="M74.6415 564.26C75.3453 564.168 76.0436 564.051 76.7337 563.909C86.0459 563.406 92.0276 567.297 97.0097 570.537L97.0098 570.538C97.5161 570.867 98.012 571.189 98.5 571.5C99 569.475 98.5 562.475 97.5 558.975C96.5872 556.237 93.5916 547.687 91.5549 545.456C87.8774 539.644 77.829 535 69 535C60.5588 535 46.3307 538.953 40.0904 544.268C30.5761 549.596 6.23442 578.352 8.00002 581C8.00002 581.901 8.17009 582.762 8.47987 583.552C8.17175 583.784 8 584.093 8 584.5C8 587.538 22.5817 603.839 27 603.839C27.9906 597.559 35.3598 585.392 41.8167 582.091C46.0468 580.912 49.9551 579.686 52.8121 578.546C56.9288 577.547 60.4755 574.966 62.8507 571.439C63.2599 571.128 63.7348 570.73 64.272 570.28C66.6275 568.307 70.181 565.331 74.6415 564.26Z" fill="#EEEAFC"/>
<path d="M26.2615 600.279C26.2594 600.306 26.2327 601.946 26.0654 601.946" stroke="#EEEAFC" stroke-linecap="round"/>
<path d="M26.5 603.5C22 630 31 649.5 20.5 675" stroke="#EEEAFC" stroke-linecap="round"/>
<path d="M85 596L24 535C25.0098 519.92 29.9424 516.491 44.5 517L104 577.5L110.5 600L85 596Z" stroke="#EEEAFC" stroke-linecap="round"/>
<path d="M254.716 633.395C254.48 633.725 254.242 634.058 254 634.395C249.102 641.217 242.863 649.278 235.716 646.895C233.216 643.395 231.716 637.985 231.716 634.395C231.716 630.805 234.126 615.395 237.716 615.395C239.716 613.395 252.5 628 254.716 633.395Z" fill="#EEEAFC"/>
<path d="M254 633C262 651 262.5 660.5 260 674" stroke="#EEEAFC"/>
<rect x="8.5" y="0.5" width="262" height="675" rx="16.5" stroke="#D2C9FB"/>
<path fill-rule="evenodd" clip-rule="evenodd" d="M261.5 536.5L254.374 539.125C234.178 550.989 225.482 591.198 224.5 602C222 617.5 219.5 629.5 204 648L193.5 661.5L187.612 655.748C180.64 651.577 146.039 647.448 128.81 645.391C125.735 645.024 123.213 644.723 121.5 644.5L89 641.5L99.9727 633.867C107.46 628.284 119.077 616.988 126.5 579L126.5 578.998C128.501 559.499 140.001 537.999 159.5 517.5C159.579 517.453 159.663 517.409 159.753 517.367L170.5 506L189.926 513.77L261.5 536.5Z" fill="#EEEAFC"/>
<path d="M188 533.5L214 542" stroke="#7452F1" stroke-linecap="round" stroke-linejoin="round"/>
<path d="M175 551L215 566" stroke="#7452F1" stroke-linecap="round" stroke-linejoin="round"/>
<path d="M171 556L211.5 571" stroke="#7452F1" stroke-linecap="round" stroke-linejoin="round"/>
<path d="M169 561L184 567" stroke="#7452F1" stroke-linecap="round" stroke-linejoin="round"/>
<path d="M159.5 575L186.5 583" stroke="#7452F1" stroke-linecap="round" stroke-linejoin="round"/>
<path d="M158 580L176 585" stroke="#7452F1" stroke-linecap="round" stroke-linejoin="round"/>
<path d="M169 602L201 607" stroke="#BBABF7" stroke-linecap="round" stroke-linejoin="round"/>
<path d="M167 615.5L197 622.5" stroke="#BBABF7" stroke-linecap="round" stroke-linejoin="round"/>
<path d="M213.638 634.012C213.638 634.012 192.14 631.264 183.67 626.869C175.201 622.474 156.309 612.035 165.429 603.794C174.55 595.552 200.414 599.559 222.759 603.794L224 604" stroke="#BBABF7" stroke-linecap="square" stroke-linejoin="round"/>
<path d="M70 544C85.5 544 92.5914 551.437 98.5 571C89.4995 557.306 86.5 553 73.5 551.5" stroke="#BBABF7" stroke-linecap="round" stroke-linejoin="round"/>
<path d="M99 572.5L94.5 567.5" stroke="#EEEAFC" stroke-linecap="round" stroke-linejoin="round"/>
<path d="M242 617.5C242 623.575 232.799 635.5 227 635.5C221.201 635.5 215.5 635 214 634.5C216.5 628.5 222.5 611.5 224 603.5C229 604.5 236.5 611.5 242 617.5Z" fill="#EEEAFC"/>
<path d="M241.837 633.002C241.837 636.316 238.366 644.5 234.5 644.5C231.5 641 225.837 636.816 225.837 633.502C225.837 630.188 230.971 627.002 234.837 627.002C238.703 627.002 241.837 629.688 241.837 633.002Z" fill="#EEEAFC"/>
<path d="M164 608L201.5 615.5" stroke="#BBABF7" stroke-linecap="square" stroke-linejoin="round"/>
<path d="M157.298 532.767C161.983 526.527 165.286 523.119 171.604 517.574L189.066 524.181C182.945 529.84 179.647 533.31 174.834 539.403L157.298 532.767Z" stroke="#7452F1"/>
<path d="M142.159 557.215C145.264 549.743 147.659 545.879 153.12 540.58L170.711 547.236C166.177 553.5 163.713 557.331 159.786 563.884L142.159 557.215Z" stroke="#7452F1"/>
<path d="M139.185 565.56C136.677 568.632 135.372 572.432 134.577 575.827C134.197 577.452 133.936 578.973 133.714 580.27C133.698 580.361 133.683 580.451 133.667 580.54C133.439 581.867 133.239 583 132.964 583.686C132.962 583.691 132.962 583.693 132.962 583.693L139.185 565.56ZM139.185 565.56L156.736 569.829L139.185 565.56ZM132.962 583.693C132.962 583.693 132.962 583.693 132.962 583.693L132.962 583.693Z" stroke="#7452F1"/>
<path d="M191.5 528.5L227.5 540.5" stroke="#7452F1" stroke-linecap="round" stroke-linejoin="round"/>
<path d="M147 548.5L150.5 560.5L180 546.5" stroke="#7452F1" stroke-width="2" stroke-linecap="round" stroke-linejoin="round"/>
<path d="M97.5025 283.919L92.3589 269.787L106.399 264.676L111.543 278.808L97.5025 283.919ZM95.9459 239.382L84.108 243.691L82.8054 240.112C81.3357 236.074 80.5448 232.379 80.4326 229.025C80.3203 225.671 80.6476 222.572 81.4143 219.73C82.2423 216.865 83.3428 214.178 84.7159 211.669C86.1502 209.138 87.6485 206.687 89.2108 204.317C90.812 201.864 92.3215 199.444 93.7391 197.057C95.218 194.648 96.3853 192.145 97.2411 189.547C98.1581 186.927 98.6384 184.154 98.682 181.229C98.7257 178.303 98.1129 175.096 96.8437 171.609L96.2091 169.866C95.1403 166.929 93.5988 164.407 91.5846 162.3C89.5482 160.131 87.206 158.455 84.5581 157.271C81.9713 156.064 79.1927 155.378 76.2225 155.212C73.3134 155.024 70.3905 155.464 67.454 156.533L64.8845 157.468C61.948 158.537 59.3954 160.09 57.2267 162.126C55.1192 164.14 53.4318 166.452 52.1644 169.061C50.9581 171.648 50.272 174.426 50.106 177.397C49.9178 180.306 50.358 183.229 51.4268 186.165L53.3641 191.488L40.8247 193.869L39.5889 190.474C37.9634 186.008 37.2641 181.516 37.4908 177C37.7787 172.461 38.8565 168.189 40.7242 164.184C42.5919 160.178 45.1829 156.637 48.4971 153.56C51.8502 150.4 55.7597 148.007 60.2257 146.381L63.9881 145.012C68.4541 143.387 72.9565 142.718 77.4954 143.006C82.012 143.232 86.273 144.28 90.2783 146.147C94.2837 148.015 97.8248 150.606 100.902 153.92C104.04 157.212 106.422 161.091 108.047 165.557L108.682 167.301C110.218 171.522 111.076 175.401 111.255 178.939C111.434 182.476 111.143 185.769 110.382 188.818C109.682 191.844 108.637 194.683 107.247 197.337C105.918 199.968 104.454 202.511 102.852 204.964C101.312 207.395 99.7918 209.785 98.2907 212.132C96.8507 214.458 95.65 216.869 94.6885 219.367C93.7881 221.843 93.2716 224.421 93.1389 227.102C93.0062 229.783 93.5077 232.683 94.6433 235.804L95.9459 239.382Z" fill="white" fill-opacity="0.01"/>
<path d="M97.5025 283.919L96.5628 284.261L96.9049 285.2L97.8446 284.858L97.5025 283.919ZM92.3589 269.787L92.0169 268.847L91.0772 269.189L91.4192 270.129L92.3589 269.787ZM106.399 264.676L107.339 264.334L106.997 263.395L106.057 263.737L106.399 264.676ZM111.543 278.808L111.885 279.748L112.825 279.406L112.483 278.466L111.543 278.808ZM95.9459 239.382L96.2879 240.322L97.2276 239.98L96.8856 239.04L95.9459 239.382ZM84.108 243.691L83.1683 244.033L83.5103 244.973L84.45 244.631L84.108 243.691ZM81.4143 219.73L80.4537 219.452L80.4512 219.461L80.4489 219.469L81.4143 219.73ZM84.7159 211.669L83.8459 211.176L83.8423 211.183L83.8387 211.189L84.7159 211.669ZM89.2108 204.317L90.0457 204.868L90.0483 204.864L89.2108 204.317ZM93.7391 197.057L92.8869 196.534L92.8831 196.54L92.8794 196.547L93.7391 197.057ZM97.2411 189.547L96.2972 189.217L96.2942 189.226L96.2913 189.234L97.2411 189.547ZM91.5846 162.3L90.8556 162.984L90.8617 162.991L91.5846 162.3ZM84.5581 157.271L84.1354 158.177L84.1426 158.18L84.1499 158.184L84.5581 157.271ZM76.2225 155.212L76.1579 156.21L76.1667 156.211L76.2225 155.212ZM57.2267 162.126L56.5422 161.397L56.5358 161.403L57.2267 162.126ZM52.1644 169.061L51.2649 168.624L51.2614 168.631L51.258 168.638L52.1644 169.061ZM50.106 177.397L51.104 177.461L51.1045 177.452L50.106 177.397ZM53.3641 191.488L53.5507 192.47L54.706 192.251L54.3038 191.146L53.3641 191.488ZM40.8247 193.869L39.885 194.211L40.1759 195.01L41.0113 194.852L40.8247 193.869ZM37.4908 177L36.4927 176.937L36.492 176.95L37.4908 177ZM48.4971 153.56L49.1775 154.293L49.1829 154.288L48.4971 153.56ZM77.4954 143.006L77.4321 144.004L77.4453 144.004L77.4954 143.006ZM100.902 153.92L100.169 154.601L100.178 154.61L100.902 153.92ZM110.382 188.818L109.411 188.575L109.409 188.584L109.407 188.592L110.382 188.818ZM107.247 197.337L106.361 196.873L106.358 196.88L106.354 196.886L107.247 197.337ZM102.852 204.964L102.015 204.418L102.008 204.429L102.852 204.964ZM98.2907 212.132L97.4482 211.594L97.4443 211.6L97.4405 211.606L98.2907 212.132ZM94.6885 219.367L93.7553 219.008L93.7519 219.017L93.7487 219.025L94.6885 219.367ZM98.4422 283.577L93.2986 269.445L91.4192 270.129L96.5628 284.261L98.4422 283.577ZM92.7009 270.726L106.741 265.616L106.057 263.737L92.0169 268.847L92.7009 270.726ZM105.46 265.018L110.603 279.15L112.483 278.466L107.339 264.334L105.46 265.018ZM111.201 277.869L97.1605 282.979L97.8446 284.858L111.885 279.748L111.201 277.869ZM95.6039 238.443L83.7659 242.751L84.45 244.631L96.2879 240.322L95.6039 238.443ZM85.0477 243.349L83.745 239.77L81.8657 240.454L83.1683 244.033L85.0477 243.349ZM83.745 239.77C82.3019 235.805 81.5399 232.215 81.432 228.991L79.4331 229.058C79.5497 232.542 80.3696 236.344 81.8657 240.454L83.745 239.77ZM81.432 228.991C81.3226 225.723 81.6422 222.725 82.3798 219.99L80.4489 219.469C79.653 222.42 79.318 225.619 79.4331 229.058L81.432 228.991ZM82.375 220.007C83.1835 217.21 84.2566 214.591 85.5932 212.149L83.8387 211.189C82.429 213.765 81.3011 216.52 80.4537 219.452L82.375 220.007ZM85.586 212.162C87.0095 209.65 88.4961 207.219 90.0457 204.868L88.3759 203.767C86.801 206.156 85.291 208.626 83.8459 211.176L85.586 212.162ZM90.0483 204.864C91.6567 202.399 93.1736 199.967 94.5989 197.568L92.8794 196.547C91.4693 198.921 89.9673 201.329 88.3734 203.771L90.0483 204.864ZM94.5913 197.581C96.1094 195.108 97.31 192.534 98.1909 189.86L96.2913 189.234C95.4606 191.756 94.3265 194.189 92.8869 196.534L94.5913 197.581ZM98.185 189.878C99.1393 187.151 99.6368 184.271 99.6819 181.244L97.6822 181.214C97.64 184.038 97.1768 186.704 96.2972 189.217L98.185 189.878ZM99.6819 181.244C99.7278 178.168 99.0835 174.839 97.7834 171.267L95.904 171.951C97.1423 175.353 97.7236 178.437 97.6822 181.214L99.6819 181.244ZM97.7834 171.267L97.1488 169.524L95.2694 170.208L95.904 171.951L97.7834 171.267ZM97.1488 169.524C96.0361 166.467 94.4241 163.823 92.3076 161.609L90.8617 162.991C92.7735 164.991 94.2444 167.392 95.2694 170.208L97.1488 169.524ZM92.3136 161.615C90.1888 159.352 87.7384 157.597 84.9662 156.358L84.1499 158.184C86.6737 159.312 88.9076 160.91 90.8556 162.984L92.3136 161.615ZM84.9807 156.364C82.2737 155.102 79.3701 154.387 76.2783 154.214L76.1667 156.211C79.0154 156.37 81.6688 157.027 84.1354 158.177L84.9807 156.364ZM76.287 154.214C73.2301 154.017 70.1691 154.481 67.112 155.593L67.796 157.473C70.612 156.448 73.3966 156.032 76.1579 156.21L76.287 154.214ZM67.112 155.593L64.5425 156.529L65.2265 158.408L67.796 157.473L67.112 155.593ZM64.5425 156.529C61.4852 157.641 58.8145 159.263 56.5422 161.397L57.9112 162.855C59.9762 160.916 62.4107 159.433 65.2265 158.408L64.5425 156.529ZM56.5358 161.403C54.3428 163.499 52.5845 165.908 51.2649 168.624L53.0638 169.498C54.279 166.996 55.8957 164.782 57.9176 162.849L56.5358 161.403ZM51.258 168.638C49.9958 171.345 49.2804 174.249 49.1076 177.341L51.1045 177.452C51.2637 174.604 51.9205 171.95 53.0707 169.484L51.258 168.638ZM49.1081 177.332C48.9103 180.389 49.3745 183.45 50.4872 186.507L52.3665 185.823C51.3416 183.007 50.9252 180.222 51.1039 177.461L49.1081 177.332ZM50.4872 186.507L52.4244 191.83L54.3038 191.146L52.3665 185.823L50.4872 186.507ZM53.1775 190.505L40.6381 192.887L41.0113 194.852L53.5507 192.47L53.1775 190.505ZM41.7644 193.527L40.5286 190.132L38.6492 190.816L39.885 194.211L41.7644 193.527ZM40.5286 190.132C38.9464 185.785 38.2698 181.427 38.4895 177.05L36.492 176.95C36.2583 181.606 36.9804 186.231 38.6492 190.816L40.5286 190.132ZM38.4888 177.063C38.769 172.645 39.817 168.495 41.6305 164.606L39.8179 163.761C37.8959 167.883 36.7883 172.277 36.4928 176.937L38.4888 177.063ZM41.6305 164.606C43.4424 160.721 45.9556 157.284 49.1774 154.293L47.8167 152.827C44.4101 155.99 41.7415 159.636 39.8179 163.761L41.6305 164.606ZM49.1829 154.288C52.4339 151.224 56.2254 148.902 60.5677 147.321L59.8837 145.442C55.2939 147.112 51.2664 149.576 47.8112 152.832L49.1829 154.288ZM60.5677 147.321L64.3301 145.952L63.6461 144.072L59.8837 145.442L60.5677 147.321ZM64.3301 145.952C68.6724 144.371 73.0371 143.725 77.4321 144.004L77.5587 142.008C72.876 141.711 68.2358 142.402 63.6461 144.072L64.3301 145.952ZM77.4453 144.004C81.836 144.225 85.9701 145.242 89.8557 147.054L90.7009 145.241C86.5758 143.317 82.188 142.24 77.5455 142.007L77.4453 144.004ZM89.8557 147.054C93.7413 148.866 97.1777 151.379 100.169 154.601L101.635 153.24C98.4719 149.833 94.8261 147.165 90.7009 145.241L89.8557 147.054ZM100.178 154.61C103.216 157.798 105.527 161.557 107.107 165.899L108.987 165.215C107.316 160.625 104.863 156.626 101.625 153.23L100.178 154.61ZM107.107 165.899L107.742 167.643L109.621 166.959L108.987 165.215L107.107 165.899ZM107.742 167.643C109.253 171.794 110.083 175.574 110.256 178.989L112.254 178.888C112.068 175.229 111.183 171.25 109.621 166.959L107.742 167.643ZM110.256 178.989C110.431 182.441 110.146 185.634 109.411 188.575L111.352 189.06C112.14 185.905 112.437 182.512 112.254 178.888L110.256 178.989ZM109.407 188.592C108.726 191.538 107.71 194.298 106.361 196.873L108.133 197.801C109.564 195.069 110.637 192.149 111.356 189.043L109.407 188.592ZM106.354 196.886C105.042 199.485 103.596 201.995 102.015 204.418L103.69 205.511C105.311 203.026 106.795 200.452 108.14 197.788L106.354 196.886ZM102.008 204.429C100.468 206.859 98.9485 209.247 97.4482 211.594L99.1332 212.671C100.635 210.322 102.156 207.932 103.697 205.499L102.008 204.429ZM97.4405 211.606C95.9684 213.983 94.7397 216.451 93.7553 219.008L95.6217 219.726C96.5604 217.288 97.7331 214.932 99.1409 212.659L97.4405 211.606ZM93.7487 219.025C92.8135 221.597 92.2777 224.273 92.1401 227.052L94.1377 227.151C94.2655 224.568 94.7627 222.089 95.6283 219.709L93.7487 219.025ZM92.1401 227.052C91.9995 229.894 92.5329 232.929 93.7036 236.146L95.583 235.462C94.4825 232.438 94.0129 229.672 94.1377 227.151L92.1401 227.052ZM93.7036 236.146L95.0062 239.724L96.8856 239.04L95.583 235.462L93.7036 236.146Z" fill="#BBABF7"/>
<path d="M213.733 120.836L233.656 125.746L192.36 229.265L180.144 224.819L213.733 120.836ZM166.28 245.952C167.374 242.945 169.374 240.764 172.279 239.409C175.23 237.929 178.272 237.759 181.404 238.899C184.661 240.085 187.008 242.216 188.442 245.292C189.922 248.243 190.115 251.222 189.02 254.229C187.88 257.361 185.795 259.582 182.764 260.891C179.734 262.2 176.59 262.262 173.332 261.076C170.2 259.936 167.956 257.913 166.602 255.008C165.247 252.103 165.14 249.084 166.28 245.952Z" fill="white" fill-opacity="0.01"/>
<path d="M213.733 120.836L213.973 119.866L213.068 119.643L212.782 120.529L213.733 120.836ZM233.656 125.746L234.584 126.117L235.01 125.05L233.895 124.775L233.656 125.746ZM192.36 229.265L192.018 230.205L192.929 230.537L193.288 229.636L192.36 229.265ZM180.144 224.819L179.192 224.512L178.896 225.429L179.802 225.759L180.144 224.819ZM172.279 239.409L172.702 240.315L172.715 240.309L172.728 240.303L172.279 239.409ZM188.442 245.292L187.536 245.714L187.542 245.727L187.548 245.74L188.442 245.292ZM182.764 260.891L183.161 261.809L182.764 260.891ZM166.602 255.008L165.695 255.431L166.602 255.008ZM213.494 121.807L233.416 126.717L233.895 124.775L213.973 119.866L213.494 121.807ZM232.727 125.376L191.431 228.895L193.288 229.636L234.584 126.117L232.727 125.376ZM192.702 228.326L180.486 223.879L179.802 225.759L192.018 230.205L192.702 228.326ZM181.095 225.126L214.685 121.144L212.782 120.529L179.192 224.512L181.095 225.126ZM167.219 246.294C168.223 243.536 170.037 241.558 172.702 240.315L171.857 238.503C168.711 239.969 166.525 242.353 165.34 245.61L167.219 246.294ZM172.728 240.303C175.43 238.948 178.185 238.792 181.062 239.839L181.746 237.959C178.358 236.726 175.03 236.91 171.831 238.515L172.728 240.303ZM181.062 239.839C184.076 240.936 186.216 242.884 187.536 245.714L189.348 244.869C187.799 241.547 185.247 239.234 181.746 237.959L181.062 239.839ZM187.548 245.74C188.909 248.454 189.078 251.147 188.081 253.887L189.96 254.571C191.152 251.296 190.935 248.031 189.336 244.843L187.548 245.74ZM188.081 253.887C187.034 256.763 185.143 258.774 182.368 259.973L183.161 261.809C186.447 260.389 188.727 257.959 189.96 254.571L188.081 253.887ZM182.368 259.973C179.584 261.175 176.705 261.239 173.674 260.136L172.99 262.016C176.474 263.284 179.883 263.225 183.161 261.809L182.368 259.973ZM173.674 260.136C170.78 259.083 168.746 257.24 167.508 254.585L165.695 255.431C167.167 258.587 169.62 260.789 172.99 262.016L173.674 260.136ZM167.508 254.585C166.27 251.931 166.166 249.188 167.219 246.294L165.34 245.61C164.113 248.98 164.224 252.275 165.695 255.431L167.508 254.585Z" fill="#BBABF7"/>
<path d="M70.3469 400C70.16 408.899 68.6594 412.333 63 415.131C68.7624 415.914 70.1432 419.815 70.3469 431C70.9306 420.225 71.8574 415.325 78 415.131C71.9137 412.71 70.5049 409.097 70.3469 400Z" stroke="#BBABF7" stroke-linecap="round" stroke-linejoin="round"/>
<path d="M48 381C47.6946 393.057 45.2436 397.709 36 401.5C45.4119 402.561 47.6672 407.846 48 423C48.9533 408.401 50.4671 401.763 60.5 401.5C50.5591 398.221 48.258 393.325 48 381Z" stroke="#BBABF7" stroke-linecap="round" stroke-linejoin="round"/>
</svg>
