<svg width="272" height="676" viewBox="0 0 272 676" fill="none" xmlns="http://www.w3.org/2000/svg">
<path d="M74 343.5C72.3864 338.397 72.1381 335.951 73.5 332.5" stroke="#8766FF" stroke-width="3"/>
<path d="M103 401.5C87.5 404.5 72.0001 392 73.5001 378" stroke="#8766FF" stroke-width="3"/>
<path d="M74.5 378C56.5 370.5 60.5 346.5 75.5 343.5" stroke="#8766FF" stroke-width="3"/>
<path fill-rule="evenodd" clip-rule="evenodd" d="M216.267 377.907C220.401 374.166 224.017 367.043 226.5 353.5C226.5 331 207.941 326.5 198 326.5C188.059 326.5 185.5 340.5 189 354.5C190.059 358.734 190.427 362.446 190.658 365.677C184.934 373.497 180 384.839 180 390C180 398.284 180 406.5 194 404C199.414 403.033 207.682 399 213 390C214.817 386.925 216.092 382.509 216.267 377.907ZM102.911 362.28C102.97 361.694 103 361.1 103 360.5C103 350.283 94.2696 342 83.5 342C72.7304 342 64 350.283 64 360.5C64 367.736 68.3789 374.002 74.7598 377.042C74.589 378.006 74.5 378.994 74.5 380C74.5 390.493 87 402.5 102 400.5C113.322 400.5 116 390.493 116 380C116 371.929 110.57 365.033 102.911 362.28Z" fill="#726B8E"/>
<path d="M119 424C107.601 411.748 103.4 404.099 100 389" stroke="#8766FF" stroke-width="3"/>
<path d="M8.5 523.5C13 491 80.5 452.456 135 452.456C185.847 452.456 267.99 505.861 270.444 539H270.5" stroke="#8766FF" stroke-width="2"/>
<rect x="119" y="416" width="39" height="45" fill="#A298C9"/>
<ellipse cx="179" cy="325" rx="13" ry="10" fill="#726B8E"/>
<path fill-rule="evenodd" clip-rule="evenodd" d="M44.5 517L104 577.5L110.5 600L85 596L24 535C23.5 523.5 29 514.5 44.5 517C44.5 517 44.5 517 44.5 517Z" fill="#291E53"/>
<path d="M110 599.5C106.134 599.5 108 599 103.5 599C103.5 595.686 104.134 593.5 108 593.5C110 597 109 597.5 110 599.5Z" fill="#8766FF"/>
<path d="M26.2616 600.279C26.2594 600.306 26.2328 601.946 26.0654 601.946" stroke="#EEEAFC" stroke-linecap="round"/>
<path d="M26.5 603.5C22 630 31 649.5 20.5 675" stroke="#8766FF" stroke-width="2" stroke-linecap="round"/>
<path d="M85 596L24 535C25.0098 519.92 29.9424 516.491 44.5 517L104 577.5L110.5 600L85 596Z" stroke="#8766FF" stroke-width="3" stroke-linecap="round"/>
<path fill-rule="evenodd" clip-rule="evenodd" d="M74.6414 564.26C75.3452 564.168 76.0435 564.051 76.7336 563.909C86.0458 563.406 92.0275 567.297 97.0096 570.537L97.0097 570.538C97.5159 570.867 98.0118 571.189 98.4999 571.5C98.9999 569.475 98.4999 562.475 97.4999 558.975C96.5871 556.237 93.5914 547.687 91.5548 545.456C87.8773 539.644 77.8289 535 68.9999 535C60.5586 535 46.3306 538.953 40.0902 544.268C30.576 549.596 6.2343 578.352 7.99989 581C7.99989 581.901 8.16997 582.762 8.47975 583.552C8.17163 583.784 7.99988 584.093 7.99988 584.5C7.99988 587.538 22.5816 603.839 26.9999 603.839C27.9905 597.559 35.3597 585.392 41.8166 582.091C46.0467 580.912 49.955 579.686 52.812 578.546C56.9287 577.547 60.4754 574.966 62.8506 571.439C63.2597 571.128 63.7346 570.73 64.2718 570.28C66.6274 568.307 70.1809 565.331 74.6414 564.26Z" fill="#A298C9"/>
<path d="M254.716 633.395C254.481 633.725 254.242 634.058 254 634.395C249.102 641.217 242.863 649.278 235.716 646.895C233.216 643.395 231.716 637.985 231.716 634.395C231.716 630.805 234.126 615.395 237.716 615.395C239.716 613.395 252.5 628 254.716 633.395Z" fill="#A298C9"/>
<path d="M254 633C262 651 262.5 660.5 260 674" stroke="#8766FF" stroke-width="2"/>
<rect x="9.5" y="1.5" width="260" height="673" rx="15.5" stroke="#605880" stroke-width="3"/>
<path fill-rule="evenodd" clip-rule="evenodd" d="M261.5 536.5L254.374 539.125C234.178 550.989 225.482 591.198 224.5 602C222 617.5 219.5 629.5 204 648L193.5 661.5L187.612 655.748C180.64 651.577 146.039 647.448 128.81 645.391C125.735 645.024 123.213 644.723 121.5 644.5L89 641.5L99.9727 633.867C107.46 628.284 119.077 616.988 126.5 579L126.5 578.998C128.501 559.499 140.001 537.999 159.5 517.5C159.579 517.453 159.663 517.409 159.753 517.367L170.5 506L189.926 513.77L261.5 536.5Z" fill="#A298C9"/>
<path d="M188 533.5L214 542" stroke="#291E53" stroke-linecap="round" stroke-linejoin="round"/>
<path d="M175 551L215 566" stroke="#291E53" stroke-linecap="round" stroke-linejoin="round"/>
<path d="M171 556L211.5 571" stroke="#291E53" stroke-linecap="round" stroke-linejoin="round"/>
<path d="M169 561L184 567" stroke="#291E53" stroke-linecap="round" stroke-linejoin="round"/>
<path d="M159.5 575L186.5 583" stroke="#291E53" stroke-linecap="round" stroke-linejoin="round"/>
<path d="M158 580L176 585" stroke="#291E53" stroke-linecap="round" stroke-linejoin="round"/>
<path d="M169 602L201 607" stroke="#2A1F55" stroke-linecap="round" stroke-linejoin="round"/>
<path d="M167 615.5L197 622.5" stroke="#2A1F55" stroke-linecap="round" stroke-linejoin="round"/>
<path d="M213.638 634.012C213.638 634.012 192.14 631.264 183.67 626.869C175.201 622.474 156.309 612.035 165.429 603.794C174.55 595.552 200.414 599.559 222.759 603.794L224 604" stroke="#2A1F55" stroke-linecap="square" stroke-linejoin="round"/>
<path d="M70 544C85.5 544 92.5914 551.437 98.5 571C89.4995 557.306 86.5 553 73.5 551.5" stroke="#2A1F55" stroke-linecap="round" stroke-linejoin="round"/>
<path d="M242 617.5C242 623.575 232.799 635.5 227 635.5C221.201 635.5 215.5 635 214 634.5C216.5 628.5 222.5 611.5 224 603.5C229 604.5 236.5 611.5 242 617.5Z" fill="#A298C9"/>
<path d="M241.837 633.002C241.837 636.316 238.366 644.5 234.5 644.5C231.5 641 225.837 636.816 225.837 633.502C225.837 630.188 230.971 627.002 234.837 627.002C238.703 627.002 241.837 629.688 241.837 633.002Z" fill="#A298C9"/>
<path d="M164 608L201.5 615.5" stroke="#2A1F55" stroke-linecap="square" stroke-linejoin="round"/>
<path d="M157.298 532.767C161.983 526.527 165.286 523.119 171.604 517.574L189.066 524.181C182.945 529.84 179.647 533.31 174.834 539.403L157.298 532.767Z" stroke="#291E53"/>
<path d="M142.159 557.215C145.264 549.743 147.659 545.879 153.12 540.58L170.711 547.236C166.177 553.5 163.713 557.331 159.786 563.884L142.159 557.215Z" stroke="#291E53"/>
<path d="M139.185 565.56C136.677 568.632 135.372 572.432 134.577 575.827C134.197 577.452 133.936 578.973 133.714 580.27C133.698 580.361 133.683 580.451 133.667 580.54C133.439 581.867 133.239 583 132.964 583.686C132.962 583.691 132.962 583.693 132.962 583.693L139.185 565.56ZM139.185 565.56L156.736 569.829L139.185 565.56ZM132.962 583.693C132.962 583.693 132.962 583.693 132.962 583.693L132.962 583.693Z" stroke="#291E53"/>
<path d="M191.5 528.5L227.5 540.5" stroke="#291E53" stroke-linecap="round" stroke-linejoin="round"/>
<path d="M147 548.5L150.5 560.5L180 546.5" stroke="#8766FF" stroke-width="3" stroke-linecap="round" stroke-linejoin="round"/>
<path d="M97.5025 281.919L95.6232 282.603L96.3072 284.482L98.1866 283.798L97.5025 281.919ZM92.3589 267.787L91.6748 265.907L89.7955 266.591L90.4795 268.471L92.3589 267.787ZM106.399 262.676L108.279 261.992L107.595 260.113L105.715 260.797L106.399 262.676ZM111.543 276.808L112.227 278.688L114.106 278.004L113.422 276.124L111.543 276.808ZM95.9459 237.382L96.6299 239.262L98.5093 238.578L97.8253 236.698L95.9459 237.382ZM84.108 241.691L82.2286 242.375L82.9126 244.255L84.792 243.57L84.108 241.691ZM81.4143 217.73L79.493 217.175L79.488 217.192L79.4834 217.209L81.4143 217.73ZM84.7159 209.669L82.9759 208.683L82.9686 208.696L82.9615 208.709L84.7159 209.669ZM89.2108 202.317L90.8807 203.418L90.8857 203.41L89.2108 202.317ZM93.7391 195.057L92.0347 194.011L92.027 194.023L92.0196 194.036L93.7391 195.057ZM97.2411 187.547L95.3534 186.887L95.3473 186.904L95.3415 186.922L97.2411 187.547ZM91.5846 160.3L90.1267 161.669L90.1327 161.675L90.1388 161.681L91.5846 160.3ZM84.5581 155.271L83.7128 157.083L83.7272 157.09L83.7417 157.096L84.5581 155.271ZM76.2225 153.212L76.0933 155.208L76.1021 155.209L76.1109 155.209L76.2225 153.212ZM57.2267 160.126L55.8577 158.668L55.8512 158.674L55.8449 158.68L57.2267 160.126ZM52.1644 167.061L50.3654 166.187L50.3585 166.201L50.3517 166.216L52.1644 167.061ZM50.106 175.397L52.1018 175.526L52.1024 175.517L52.1029 175.508L50.106 175.397ZM53.3641 189.488L53.7372 191.452L56.0479 191.014L55.2435 188.804L53.3641 189.488ZM40.8247 191.869L38.9453 192.553L39.527 194.151L41.1979 193.834L40.8247 191.869ZM37.4908 175L35.4948 174.873L35.4939 174.886L35.4933 174.9L37.4908 175ZM48.4971 151.56L49.8578 153.026L49.8633 153.021L49.8688 153.016L48.4971 151.56ZM77.4954 141.006L77.3688 143.002L77.3819 143.002L77.3951 143.003L77.4954 141.006ZM100.902 151.92L99.436 153.281L99.4449 153.291L99.454 153.3L100.902 151.92ZM110.382 186.818L108.441 186.333L108.437 186.35L108.433 186.367L110.382 186.818ZM107.247 195.337L105.475 194.409L105.468 194.422L105.462 194.436L107.247 195.337ZM102.852 202.964L101.178 201.871L101.17 201.882L101.163 201.894L102.852 202.964ZM98.2907 210.132L96.6057 209.055L96.5979 209.067L96.5903 209.08L98.2907 210.132ZM94.6885 217.367L92.822 216.649L92.8153 216.666L92.809 216.684L94.6885 217.367ZM99.3819 281.235L94.2383 267.103L90.4795 268.471L95.6232 282.603L99.3819 281.235ZM93.0429 269.666L107.083 264.556L105.715 260.797L91.6748 265.907L93.0429 269.666ZM104.52 263.36L109.663 277.493L113.422 276.124L108.279 261.992L104.52 263.36ZM110.859 274.929L96.8185 280.039L98.1866 283.798L112.227 278.688L110.859 274.929ZM95.2619 235.503L83.4239 239.812L84.792 243.57L96.6299 239.262L95.2619 235.503ZM85.9874 241.007L84.6847 237.428L80.926 238.796L82.2286 242.375L85.9874 241.007ZM84.6847 237.428C83.2681 233.536 82.535 230.051 82.4315 226.958L78.4337 227.091C78.5546 230.706 79.4034 234.613 80.926 238.796L84.6847 237.428ZM82.4315 226.958C82.3249 223.775 82.6369 220.877 83.3453 218.251L79.4834 217.209C78.6583 220.268 78.3157 223.567 78.4337 227.091L82.4315 226.958ZM83.3357 218.285C84.1247 215.555 85.1705 213.005 86.4704 210.629L82.9615 208.709C81.5151 211.352 80.3598 214.175 79.493 217.175L83.3357 218.285ZM86.456 210.655C87.8687 208.162 89.3437 205.75 90.8807 203.418L87.541 201.217C85.9534 203.625 84.4317 206.114 82.9759 208.683L86.456 210.655ZM90.8857 203.41C92.5014 200.935 94.0258 198.491 95.4586 196.079L92.0196 194.036C90.6171 196.397 89.1226 198.793 87.536 201.224L90.8857 203.41ZM95.4436 196.104C97.0008 193.567 98.2347 190.923 99.1407 188.173L95.3415 186.922C94.5358 189.367 93.4351 191.73 92.0347 194.011L95.4436 196.104ZM99.1288 188.208C100.121 185.374 100.635 182.387 100.682 179.258L96.6823 179.199C96.6417 181.921 96.1956 184.48 95.3534 186.887L99.1288 188.208ZM100.682 179.258C100.73 176.034 100.054 172.582 98.7231 168.925L94.9643 170.293C96.1717 173.611 96.7214 176.572 96.6823 179.199L100.682 179.258ZM98.7231 168.925L98.0885 167.182L94.3297 168.55L94.9643 170.293L98.7231 168.925ZM98.0885 167.182C96.9319 164.004 95.2494 161.24 93.0305 158.918L90.1388 161.681C91.9482 163.575 93.3486 165.854 94.3297 168.55L98.0885 167.182ZM93.0426 158.931C90.8295 156.574 88.2707 154.74 85.3744 153.445L83.7417 157.096C86.1414 158.169 88.267 159.688 90.1267 161.669L93.0426 158.931ZM85.4033 153.458C82.5762 152.14 79.5474 151.395 76.3341 151.215L76.1109 155.209C78.838 155.362 81.3663 155.989 83.7128 157.083L85.4033 153.458ZM76.3516 151.217C73.1468 151.009 69.9476 151.497 66.77 152.654L68.138 156.413C70.8335 155.432 73.4799 155.039 76.0933 155.208L76.3516 151.217ZM66.77 152.654L64.2005 153.589L65.5686 157.348L68.138 156.413L66.77 152.654ZM64.2005 153.589C61.0225 154.746 58.2337 156.437 55.8577 158.668L58.5958 161.584C60.5571 159.742 62.8735 158.329 65.5686 157.348L64.2005 153.589ZM55.8449 158.68C53.5663 160.858 51.7373 163.363 50.3654 166.187L53.9633 167.935C55.1263 165.541 56.6721 163.423 58.6086 161.572L55.8449 158.68ZM50.3517 166.216C49.0334 169.043 48.2887 172.072 48.1091 175.285L52.1029 175.508C52.2553 172.781 52.8828 170.253 53.977 167.906L50.3517 166.216ZM48.1102 175.267C47.9028 178.472 48.3909 181.671 49.5475 184.849L53.3062 183.481C52.3252 180.786 51.9327 178.139 52.1018 175.526L48.1102 175.267ZM49.5475 184.849L51.4847 190.172L55.2435 188.804L53.3062 183.481L49.5475 184.849ZM52.9909 187.523L40.4516 189.904L41.1979 193.834L53.7372 191.452L52.9909 187.523ZM42.7041 191.185L41.4683 187.79L37.7095 189.158L38.9453 192.553L42.7041 191.185ZM41.4683 187.79C39.9294 183.562 39.2756 179.337 39.4883 175.1L35.4933 174.9C35.2525 179.696 35.9975 184.454 37.7095 189.158L41.4683 187.79ZM39.4868 175.126C39.7593 170.829 40.7776 166.802 42.5368 163.029L38.9116 161.338C36.9354 165.576 35.798 170.093 35.4948 174.873L39.4868 175.126ZM42.5368 163.029C44.2928 159.263 46.7284 155.931 49.8578 153.026L47.1363 150.094C43.6374 153.343 40.891 157.093 38.9116 161.338L42.5368 163.029ZM49.8688 153.016C53.0176 150.048 56.6912 147.796 60.9097 146.261L59.5416 142.502C54.8282 144.218 50.6827 146.752 47.1253 150.105L49.8688 153.016ZM60.9097 146.261L64.6722 144.891L63.3041 141.133L59.5416 142.502L60.9097 146.261ZM64.6722 144.891C68.8908 143.356 73.1177 142.732 77.3688 143.002L77.622 139.01C72.7954 138.704 68.0174 139.417 63.3041 141.133L64.6722 144.891ZM77.3951 143.003C81.6599 143.217 85.6673 144.204 89.4331 145.96L91.1235 142.335C86.8786 140.355 82.364 139.248 77.5957 139.008L77.3951 143.003ZM89.4331 145.96C93.1989 147.716 96.5306 150.152 99.436 153.281L102.367 150.559C99.119 147.06 95.3685 144.314 91.1235 142.335L89.4331 145.96ZM99.454 153.3C102.393 156.383 104.632 160.022 106.168 164.241L109.926 162.873C108.211 158.16 105.686 154.041 102.349 150.54L99.454 153.3ZM106.168 164.241L106.802 165.985L110.561 164.617L109.926 162.873L106.168 164.241ZM106.802 165.985C108.288 170.066 109.091 173.747 109.257 177.04L113.252 176.838C113.061 173.056 112.148 168.977 110.561 164.617L106.802 165.985ZM109.257 177.04C109.428 180.405 109.149 183.499 108.441 186.333L112.322 187.302C113.137 184.04 113.44 180.547 113.252 176.838L109.257 177.04ZM108.433 186.367C107.77 189.233 106.783 191.912 105.475 194.409L109.019 196.265C110.49 193.455 111.593 190.454 112.33 187.268L108.433 186.367ZM105.462 194.436C104.166 197.001 102.738 199.48 101.178 201.871L104.527 204.057C106.169 201.542 107.671 198.935 109.032 196.238L105.462 194.436ZM101.163 201.894C99.6243 204.323 98.1052 206.71 96.6057 209.055L99.9757 211.21C101.478 208.86 103 206.468 104.542 204.034L101.163 201.894ZM96.5903 209.08C95.0861 211.509 93.8293 214.032 92.822 216.649L96.555 218.086C97.4707 215.707 98.6154 213.407 99.9911 211.185L96.5903 209.08ZM92.809 216.684C91.8389 219.351 91.2838 222.126 91.1414 225.003L95.1365 225.201C95.2595 222.716 95.7373 220.335 96.568 218.051L92.809 216.684ZM91.1414 225.003C90.9928 228.005 91.5581 231.175 92.7639 234.488L96.5227 233.12C95.4573 230.192 95.0197 227.561 95.1365 225.201L91.1414 225.003ZM92.7639 234.488L94.0665 238.066L97.8253 236.698L96.5227 233.12L92.7639 234.488Z" fill="#8766FF"/>
<path d="M213.733 120.836L214.212 118.895L212.403 118.449L211.83 120.222L213.733 120.836ZM233.656 125.746L235.513 126.487L236.364 124.354L234.134 123.804L233.656 125.746ZM192.36 229.265L191.676 231.145L193.499 231.808L194.217 230.006L192.36 229.265ZM180.144 224.819L178.24 224.204L177.648 226.039L179.46 226.698L180.144 224.819ZM172.279 239.409L173.125 241.222L173.15 241.21L173.176 241.197L172.279 239.409ZM188.442 245.292L186.629 246.137L186.641 246.163L186.654 246.188L188.442 245.292ZM182.764 260.891L183.558 262.727L182.764 260.891ZM166.602 255.008L164.789 255.853L166.602 255.008ZM213.255 122.778L233.177 127.688L234.134 123.804L214.212 118.895L213.255 122.778ZM231.798 125.005L190.502 228.524L194.217 230.006L235.513 126.487L231.798 125.005ZM193.044 227.386L180.828 222.94L179.46 226.698L191.676 231.145L193.044 227.386ZM182.047 225.434L215.637 121.451L211.83 120.222L178.24 224.204L182.047 225.434ZM168.159 246.636C169.072 244.128 170.699 242.353 173.125 241.222L171.434 237.596C168.049 239.175 165.677 241.761 164.4 245.268L168.159 246.636ZM173.176 241.197C175.629 239.966 178.099 239.825 180.72 240.779L182.088 237.02C178.444 235.694 174.831 235.892 171.383 237.621L173.176 241.197ZM180.72 240.779C183.491 241.787 185.424 243.553 186.629 246.137L190.255 244.447C188.591 240.878 185.832 238.383 182.088 237.02L180.72 240.779ZM186.654 246.188C187.896 248.665 188.041 251.073 187.141 253.545L190.9 254.913C192.189 251.37 191.948 247.82 190.23 244.395L186.654 246.188ZM187.141 253.545C186.187 256.165 184.491 257.966 181.971 259.055L183.558 262.727C187.099 261.197 189.574 258.556 190.9 254.913L187.141 253.545ZM181.971 259.055C179.435 260.15 176.821 260.217 174.016 259.197L172.648 262.955C176.359 264.306 180.033 264.249 183.558 262.727L181.971 259.055ZM174.016 259.197C171.36 258.23 169.535 256.566 168.414 254.163L164.789 255.853C166.378 259.26 169.04 261.642 172.648 262.955L174.016 259.197ZM168.414 254.163C167.294 251.759 167.192 249.292 168.159 246.636L164.4 245.268C163.087 248.876 163.2 252.446 164.789 255.853L168.414 254.163Z" fill="#8766FF"/>
<path d="M70.3469 400C70.16 408.899 68.6594 412.333 63 415.131C68.7624 415.914 70.1432 419.815 70.3469 431C70.9306 420.225 71.8574 415.325 78 415.131C71.9137 412.71 70.5049 409.097 70.3469 400Z" fill="#8766FF" stroke="#8766FF" stroke-linecap="round" stroke-linejoin="round"/>
<path d="M48 381C47.6946 393.057 45.2436 397.709 36 401.5C45.4119 402.561 47.6672 407.846 48 423C48.9533 408.401 50.4671 401.763 60.5 401.5C50.5591 398.221 48.258 393.325 48 381Z" fill="#8766FF" stroke="#8766FF" stroke-linecap="round" stroke-linejoin="round"/>
<path d="M118.5 422.5C120.422 424.655 139.262 440.41 159.5 435.5" stroke="#291E53"/>
<path d="M119 421V456" stroke="#8766FF" stroke-width="3"/>
<path d="M171.5 460C169 467 160.792 477.5 144.5 477.5C128.208 477.5 113.001 464 107 457C137.499 444 122.207 444 138.499 444C154.791 444 138.499 444 171.5 460Z" fill="#A298C9"/>
<path d="M106.5 456L119.5 449.5" stroke="#8766FF" stroke-width="3"/>
<path d="M101.5 389.5C85.5 385.5 82 364.5 94 355" stroke="#8766FF" stroke-width="3"/>
<path d="M98.5 355H93" stroke="#8766FF" stroke-width="3"/>
<path fill-rule="evenodd" clip-rule="evenodd" d="M152.97 436C168.5 436 191.5 413.794 191.5 379C197 343.5 177.48 315 146 315C121.138 315 106.543 329.163 101.505 352.257C93.8534 353.844 88 362.513 88 371C88 379.279 93.5703 386.176 100.946 387.691C106.321 415.27 126.219 436 152.97 436Z" fill="#A298C9"/>
<path d="M136.5 372C136.5 375.314 135.433 378 133.5 378C131.567 378 128 375.314 128 372C128 368.686 129.567 364.5 131.5 364.5C134.5 364.5 136.5 368.686 136.5 372Z" fill="#291E53"/>
<path d="M136.5 372C136.5 375.314 135.433 378 133.5 378C131.567 378 128 375.314 128 372C128 368.686 129.567 364.5 131.5 364.5C134.5 364.5 136.5 368.686 136.5 372Z" fill="#291E53"/>
<path d="M170.5 372.5C170.5 375.814 171.567 378.5 173.5 378.5C175.433 378.5 179 375.814 179 372.5C179 369.186 177.433 365 175.5 365C172.5 365 170.5 369.186 170.5 372.5Z" fill="#291E53"/>
<path d="M141 346.5C141 348.157 136 351.556 132 352C127.5 352.5 125.5 353 125 351C125 349 129 345.562 133.5 345C137.5 344.5 141 344.843 141 346.5Z" fill="#291E53"/>
<path d="M178.5 350.5C178 351.5 174.5 352 171.5 351.5C165 349 166.5 346 167 345C168.5 344 170 344.5 173.5 345C177 346 178.5 349.5 178.5 350.5Z" fill="#291E53"/>
<path d="M158 374C158.142 381.887 158.667 386.023 161 392.5C154.892 393.413 152.328 394.167 149.5 396" stroke="#291E53" stroke-width="3" stroke-linecap="round" stroke-linejoin="round"/>
<path d="M138 402.5C140.534 406.38 143.367 407.513 150.5 408" stroke="#291E53" stroke-width="3" stroke-linecap="round" stroke-linejoin="round"/>
<path d="M152.5 372C152.5 386.672 141.495 398.5 128 398.5C114.505 398.5 103.5 386.672 103.5 372C103.5 357.328 114.505 345.5 128 345.5C141.495 345.5 152.5 357.328 152.5 372Z" fill="#8766FF" fill-opacity="0.14" stroke="#2A1F54"/>
<path d="M151.5 380.5C156.838 377.101 159.264 377.469 163 380.5M97.5 354L105 362.5" stroke="#291E53" stroke-linecap="round" stroke-linejoin="round"/>
<path fill-rule="evenodd" clip-rule="evenodd" d="M165.985 327.028C166.119 326.948 166.25 326.867 166.38 326.786C168.36 327.017 170.558 327.251 173 327.5C174.304 327.385 175.634 327.349 176.975 327.37C183.382 333.988 186.99 342.149 190.98 351.5C198.16 351.5 203.98 337.127 203.98 330.5C203.98 329.369 203.811 328.275 203.494 327.237C206.052 325.131 206.755 320.851 204.5 312.699C202.5 301.5 191.307 292.199 177.5 292.199C170.12 291.245 161.987 293.248 155.881 296.575C151.815 291.337 144.887 288 135 288C119.299 288 107.863 298.299 106.207 309.663C104.186 309.541 101.805 309.64 99 310C85.5 310 72 324.059 72 334C72 343.941 83.2975 354 96 354C112.86 352.073 116.261 344.577 117.382 329.276C117.991 329.61 118.621 329.924 119.269 330.217C124.222 333.114 131.98 335 139.5 335C150.749 334.598 161.999 331.518 165.985 327.028Z" fill="#726B8E"/>
<path d="M210.5 371C210.5 385.672 199.495 397.5 186 397.5C172.505 397.5 161.5 385.672 161.5 371C161.5 356.328 172.505 344.5 186 344.5C199.495 344.5 210.5 356.328 210.5 371Z" fill="#8766FF" fill-opacity="0.14" stroke="#2A1F54"/>
</svg>
