<svg width="265" height="676" viewBox="0 0 265 676" fill="none" xmlns="http://www.w3.org/2000/svg">
<path fill-rule="evenodd" clip-rule="evenodd" d="M20.4859 603.667C20.5783 603.123 20.2119 602.607 19.6674 602.514C19.1229 602.422 18.6066 602.788 18.5141 603.333C16.6436 614.348 17.083 624.186 17.5046 633.628L17.5046 633.628C17.5951 635.654 17.6847 637.661 17.7505 639.658C18.1177 650.796 17.7573 661.699 12.8269 674H14.9768C19.7805 661.62 20.1127 650.61 19.7494 639.592C19.6823 637.554 19.5917 635.519 19.5008 633.476L19.5008 633.476C19.0812 624.045 18.6544 614.453 20.4859 603.667ZM13.5225 676H13.4768C13.492 676 13.5073 676 13.5225 676Z" fill="#8766FF"/>
<path d="M67 343.5C65.3864 338.397 65.1381 335.951 66.5 332.5" stroke="#8766FF" stroke-width="3"/>
<path d="M96 401.5C80.5 404.5 65.0001 392 66.5001 378" stroke="#8766FF" stroke-width="3"/>
<path d="M67.5 378C49.5 370.5 53.5 346.5 68.5 343.5" stroke="#8766FF" stroke-width="3"/>
<path fill-rule="evenodd" clip-rule="evenodd" d="M209.267 377.907C213.401 374.166 217.017 367.043 219.5 353.5C219.5 331 200.941 326.5 191 326.5C181.059 326.5 178.5 340.5 182 354.5C183.059 358.734 183.427 362.446 183.658 365.677C177.934 373.497 173 384.839 173 390C173 398.284 173 406.5 187 404C192.414 403.033 200.682 399 206 390C207.817 386.925 209.092 382.509 209.267 377.907ZM95.9109 362.28C95.9699 361.694 96 361.1 96 360.5C96 350.283 87.2696 342 76.5 342C65.7304 342 57 350.283 57 360.5C57 367.736 61.3789 374.002 67.7598 377.042C67.589 378.006 67.5 378.994 67.5 380C67.5 390.493 80 402.5 95 400.5C106.322 400.5 109 390.493 109 380C109 371.929 103.57 365.033 95.9109 362.28Z" fill="#726B8E"/>
<path d="M112 424C100.601 411.748 96.3998 404.099 93 389" stroke="#8766FF" stroke-width="3"/>
<path d="M1.5 523.5C6.00002 491 73.5 452.456 128 452.456C178.847 452.456 260.99 505.861 263.444 539H263.5" stroke="#8766FF" stroke-width="2"/>
<rect x="112" y="416" width="39" height="45" fill="#A298C9"/>
<ellipse cx="172" cy="325" rx="13" ry="10" fill="#726B8E"/>
<path fill-rule="evenodd" clip-rule="evenodd" d="M37.5 517L97 577.5L103.5 600L78 596L17 535C16.5 523.5 22 514.5 37.5 517C37.5 517 37.5 517 37.5 517Z" fill="#291E53"/>
<path d="M103 599.5C99.134 599.5 101 599 96.5 599C96.5 595.686 97.134 593.5 101 593.5C103 597 102 597.5 103 599.5Z" fill="#8766FF"/>
<path d="M19.2616 600.279C19.2594 600.306 19.2328 601.946 19.0654 601.946" stroke="#EEEAFC" stroke-linecap="round"/>
<path d="M78 596L17 535C18.0098 519.92 22.9424 516.491 37.5 517L97 577.5L103.5 600L78 596Z" stroke="#8766FF" stroke-width="3" stroke-linecap="round"/>
<path fill-rule="evenodd" clip-rule="evenodd" d="M67.6414 564.26C68.3452 564.168 69.0435 564.051 69.7336 563.909C79.0458 563.406 85.0275 567.297 90.0096 570.537L90.0097 570.538C90.5159 570.867 91.0118 571.189 91.4999 571.5C91.9999 569.475 91.4999 562.475 90.4999 558.975C89.5871 556.237 86.5914 547.687 84.5548 545.456C80.8773 539.644 70.8289 535 61.9999 535C53.5586 535 39.3306 538.953 33.0902 544.268C23.576 549.596 -0.7657 578.352 0.999894 581C0.999894 581.901 1.16997 582.762 1.47975 583.552C1.17163 583.784 0.999878 584.093 0.999878 584.5C0.999878 587.538 15.5816 603.839 19.9999 603.839C20.9905 597.559 28.3597 585.392 34.8166 582.091C39.0467 580.912 42.955 579.686 45.812 578.546C49.9287 577.547 53.4754 574.966 55.8506 571.439C56.2597 571.128 56.7346 570.73 57.2718 570.28C59.6274 568.307 63.1809 565.331 67.6414 564.26Z" fill="#A298C9"/>
<path d="M247.716 633.395C247.481 633.725 247.242 634.058 247 634.395C242.102 641.217 235.863 649.278 228.716 646.895C226.216 643.395 224.716 637.985 224.716 634.395C224.716 630.805 227.126 615.395 230.716 615.395C232.716 613.395 245.5 628 247.716 633.395Z" fill="#A298C9"/>
<path d="M247 633C255 651 255.5 660.5 253 674" stroke="#8766FF" stroke-width="2"/>
<path fill-rule="evenodd" clip-rule="evenodd" d="M254.5 536.5L247.374 539.125C227.178 550.989 218.482 591.198 217.5 602C215 617.5 212.5 629.5 197 648L186.5 661.5L180.612 655.748C173.64 651.577 139.039 647.448 121.81 645.391C118.735 645.024 116.213 644.723 114.5 644.5L82 641.5L92.9727 633.867C100.46 628.284 112.077 616.988 119.5 579L119.5 578.998C121.501 559.499 133.001 537.999 152.5 517.5C152.579 517.453 152.663 517.409 152.753 517.367L163.5 506L182.926 513.77L254.5 536.5Z" fill="#A298C9"/>
<path d="M181 533.5L207 542" stroke="#291E53" stroke-linecap="round" stroke-linejoin="round"/>
<path d="M168 551L208 566" stroke="#291E53" stroke-linecap="round" stroke-linejoin="round"/>
<path d="M164 556L204.5 571" stroke="#291E53" stroke-linecap="round" stroke-linejoin="round"/>
<path d="M162 561L177 567" stroke="#291E53" stroke-linecap="round" stroke-linejoin="round"/>
<path d="M162 602L194 607" stroke="#2A1F55" stroke-linecap="round" stroke-linejoin="round"/>
<path d="M160 615.5L190 622.5" stroke="#2A1F55" stroke-linecap="round" stroke-linejoin="round"/>
<path d="M206.638 634.012C206.638 634.012 185.14 631.264 176.67 626.869C168.201 622.474 149.309 612.035 158.429 603.794C167.55 595.552 193.414 599.559 215.759 603.794L217 604" stroke="#2A1F55" stroke-linecap="square" stroke-linejoin="round"/>
<path d="M63 544C78.5 544 85.5914 551.437 91.5 571C82.4995 557.306 79.5 553 66.5 551.5" stroke="#2A1F55" stroke-linecap="round" stroke-linejoin="round"/>
<path d="M235 617.5C235 623.575 225.799 635.5 220 635.5C214.201 635.5 208.5 635 207 634.5C209.5 628.5 215.5 611.5 217 603.5C222 604.5 229.5 611.5 235 617.5Z" fill="#A298C9"/>
<path d="M234.837 633.002C234.837 636.316 231.366 644.5 227.5 644.5C224.5 641 218.837 636.816 218.837 633.502C218.837 630.188 223.971 627.002 227.837 627.002C231.703 627.002 234.837 629.688 234.837 633.002Z" fill="#A298C9"/>
<path d="M157 608L194.5 615.5" stroke="#2A1F55" stroke-linecap="square" stroke-linejoin="round"/>
<path d="M150.298 532.767C154.983 526.527 158.286 523.119 164.604 517.574L182.066 524.181C175.945 529.84 172.647 533.31 167.834 539.403L150.298 532.767Z" stroke="#291E53"/>
<path d="M135.159 557.215C138.264 549.743 140.659 545.879 146.12 540.58L163.711 547.236C159.177 553.5 156.713 557.331 152.786 563.884L135.159 557.215Z" stroke="#291E53"/>
<path d="M184.5 528.5L220.5 540.5" stroke="#291E53" stroke-linecap="round" stroke-linejoin="round"/>
<path d="M140 548.5L143.5 560.5L173 546.5" stroke="#8766FF" stroke-width="3" stroke-linecap="round" stroke-linejoin="round"/>
<path d="M102.503 281.919L100.623 282.603L101.307 284.482L103.187 283.798L102.503 281.919ZM97.3589 267.787L96.6748 265.907L94.7955 266.591L95.4795 268.471L97.3589 267.787ZM111.399 262.676L113.279 261.992L112.595 260.113L110.715 260.797L111.399 262.676ZM116.543 276.808L117.227 278.688L119.106 278.004L118.422 276.124L116.543 276.808ZM100.946 237.382L101.63 239.262L103.509 238.578L102.825 236.698L100.946 237.382ZM89.108 241.691L87.2286 242.375L87.9126 244.255L89.792 243.57L89.108 241.691ZM86.4143 217.73L84.493 217.175L84.488 217.192L84.4834 217.209L86.4143 217.73ZM89.7159 209.669L87.9759 208.683L87.9686 208.696L87.9615 208.709L89.7159 209.669ZM94.2108 202.317L95.8807 203.418L95.8857 203.41L94.2108 202.317ZM98.7391 195.057L97.0347 194.011L97.027 194.023L97.0196 194.036L98.7391 195.057ZM102.241 187.547L100.353 186.887L100.347 186.904L100.342 186.922L102.241 187.547ZM96.5846 160.3L95.1267 161.669L95.1327 161.675L95.1388 161.681L96.5846 160.3ZM89.5581 155.271L88.7128 157.083L88.7272 157.09L88.7417 157.096L89.5581 155.271ZM81.2225 153.212L81.0933 155.208L81.1021 155.209L81.1109 155.209L81.2225 153.212ZM62.2267 160.126L60.8577 158.668L60.8512 158.674L60.8449 158.68L62.2267 160.126ZM57.1644 167.061L55.3654 166.187L55.3585 166.201L55.3517 166.216L57.1644 167.061ZM55.106 175.397L57.1018 175.526L57.1024 175.517L57.1029 175.508L55.106 175.397ZM58.3641 189.488L58.7372 191.452L61.0479 191.014L60.2435 188.804L58.3641 189.488ZM45.8247 191.869L43.9453 192.553L44.527 194.151L46.1979 193.834L45.8247 191.869ZM42.4908 175L40.4948 174.873L40.4939 174.886L40.4933 174.9L42.4908 175ZM53.4971 151.56L54.8578 153.026L54.8633 153.021L54.8688 153.016L53.4971 151.56ZM82.4954 141.006L82.3688 143.002L82.3819 143.002L82.3951 143.003L82.4954 141.006ZM105.902 151.92L104.436 153.281L104.445 153.291L104.454 153.3L105.902 151.92ZM115.382 186.818L113.441 186.333L113.437 186.35L113.433 186.367L115.382 186.818ZM112.247 195.337L110.475 194.409L110.468 194.422L110.462 194.436L112.247 195.337ZM107.852 202.964L106.178 201.871L106.17 201.882L106.163 201.894L107.852 202.964ZM103.291 210.132L101.606 209.055L101.598 209.067L101.59 209.08L103.291 210.132ZM99.6885 217.367L97.822 216.649L97.8153 216.666L97.809 216.684L99.6885 217.367ZM104.382 281.235L99.2383 267.103L95.4795 268.471L100.623 282.603L104.382 281.235ZM98.0429 269.666L112.083 264.556L110.715 260.797L96.6748 265.907L98.0429 269.666ZM109.52 263.36L114.663 277.493L118.422 276.124L113.279 261.992L109.52 263.36ZM115.859 274.929L101.819 280.039L103.187 283.798L117.227 278.688L115.859 274.929ZM100.262 235.503L88.4239 239.812L89.792 243.57L101.63 239.262L100.262 235.503ZM90.9874 241.007L89.6847 237.428L85.926 238.796L87.2286 242.375L90.9874 241.007ZM89.6847 237.428C88.2681 233.536 87.535 230.051 87.4315 226.958L83.4337 227.091C83.5546 230.706 84.4034 234.613 85.926 238.796L89.6847 237.428ZM87.4315 226.958C87.3249 223.775 87.6369 220.877 88.3453 218.251L84.4834 217.209C83.6583 220.268 83.3157 223.567 83.4337 227.091L87.4315 226.958ZM88.3357 218.285C89.1247 215.555 90.1705 213.005 91.4704 210.629L87.9615 208.709C86.5151 211.352 85.3598 214.175 84.493 217.175L88.3357 218.285ZM91.456 210.655C92.8687 208.162 94.3437 205.75 95.8807 203.418L92.541 201.217C90.9534 203.625 89.4317 206.114 87.9759 208.683L91.456 210.655ZM95.8857 203.41C97.5014 200.935 99.0258 198.491 100.459 196.079L97.0196 194.036C95.6171 196.397 94.1226 198.793 92.536 201.224L95.8857 203.41ZM100.444 196.104C102.001 193.567 103.235 190.923 104.141 188.173L100.342 186.922C99.5358 189.367 98.4351 191.73 97.0347 194.011L100.444 196.104ZM104.129 188.208C105.121 185.374 105.635 182.387 105.682 179.258L101.682 179.199C101.642 181.921 101.196 184.48 100.353 186.887L104.129 188.208ZM105.682 179.258C105.73 176.034 105.054 172.582 103.723 168.925L99.9643 170.293C101.172 173.611 101.721 176.572 101.682 179.199L105.682 179.258ZM103.723 168.925L103.088 167.182L99.3297 168.55L99.9643 170.293L103.723 168.925ZM103.088 167.182C101.932 164.004 100.249 161.24 98.0305 158.918L95.1388 161.681C96.9482 163.575 98.3486 165.854 99.3297 168.55L103.088 167.182ZM98.0426 158.931C95.8295 156.574 93.2707 154.74 90.3744 153.445L88.7417 157.096C91.1414 158.169 93.267 159.688 95.1267 161.669L98.0426 158.931ZM90.4033 153.458C87.5762 152.14 84.5474 151.395 81.3341 151.215L81.1109 155.209C83.838 155.362 86.3663 155.989 88.7128 157.083L90.4033 153.458ZM81.3516 151.217C78.1468 151.009 74.9476 151.497 71.77 152.654L73.138 156.413C75.8335 155.432 78.4799 155.039 81.0933 155.208L81.3516 151.217ZM71.77 152.654L69.2005 153.589L70.5686 157.348L73.138 156.413L71.77 152.654ZM69.2005 153.589C66.0225 154.746 63.2337 156.437 60.8577 158.668L63.5958 161.584C65.5571 159.742 67.8735 158.329 70.5686 157.348L69.2005 153.589ZM60.8449 158.68C58.5663 160.858 56.7373 163.363 55.3654 166.187L58.9633 167.935C60.1263 165.541 61.6721 163.423 63.6086 161.572L60.8449 158.68ZM55.3517 166.216C54.0334 169.043 53.2887 172.072 53.1091 175.285L57.1029 175.508C57.2553 172.781 57.8828 170.253 58.977 167.906L55.3517 166.216ZM53.1102 175.267C52.9028 178.472 53.3909 181.671 54.5475 184.849L58.3062 183.481C57.3252 180.786 56.9327 178.139 57.1018 175.526L53.1102 175.267ZM54.5475 184.849L56.4847 190.172L60.2435 188.804L58.3062 183.481L54.5475 184.849ZM57.9909 187.523L45.4516 189.904L46.1979 193.834L58.7372 191.452L57.9909 187.523ZM47.7041 191.185L46.4683 187.79L42.7095 189.158L43.9453 192.553L47.7041 191.185ZM46.4683 187.79C44.9294 183.562 44.2756 179.337 44.4883 175.1L40.4933 174.9C40.2525 179.696 40.9975 184.454 42.7095 189.158L46.4683 187.79ZM44.4868 175.126C44.7593 170.829 45.7776 166.802 47.5368 163.029L43.9116 161.338C41.9354 165.576 40.798 170.093 40.4948 174.873L44.4868 175.126ZM47.5368 163.029C49.2928 159.263 51.7284 155.931 54.8578 153.026L52.1363 150.094C48.6374 153.343 45.891 157.093 43.9116 161.338L47.5368 163.029ZM54.8688 153.016C58.0176 150.048 61.6912 147.796 65.9097 146.261L64.5416 142.502C59.8282 144.218 55.6827 146.752 52.1253 150.105L54.8688 153.016ZM65.9097 146.261L69.6722 144.891L68.3041 141.133L64.5416 142.502L65.9097 146.261ZM69.6722 144.891C73.8908 143.356 78.1177 142.732 82.3688 143.002L82.622 139.01C77.7954 138.704 73.0174 139.417 68.3041 141.133L69.6722 144.891ZM82.3951 143.003C86.6599 143.217 90.6673 144.204 94.4331 145.96L96.1235 142.335C91.8786 140.355 87.364 139.248 82.5957 139.008L82.3951 143.003ZM94.4331 145.96C98.1989 147.716 101.531 150.152 104.436 153.281L107.367 150.559C104.119 147.06 100.368 144.314 96.1235 142.335L94.4331 145.96ZM104.454 153.3C107.393 156.383 109.632 160.022 111.168 164.241L114.926 162.873C113.211 158.16 110.686 154.041 107.349 150.54L104.454 153.3ZM111.168 164.241L111.802 165.985L115.561 164.617L114.926 162.873L111.168 164.241ZM111.802 165.985C113.288 170.066 114.091 173.747 114.257 177.04L118.252 176.838C118.061 173.056 117.148 168.977 115.561 164.617L111.802 165.985ZM114.257 177.04C114.428 180.405 114.149 183.499 113.441 186.333L117.322 187.302C118.137 184.04 118.44 180.547 118.252 176.838L114.257 177.04ZM113.433 186.367C112.77 189.233 111.783 191.912 110.475 194.409L114.019 196.265C115.49 193.455 116.593 190.454 117.33 187.268L113.433 186.367ZM110.462 194.436C109.166 197.001 107.738 199.48 106.178 201.871L109.527 204.057C111.169 201.542 112.671 198.935 114.032 196.238L110.462 194.436ZM106.163 201.894C104.624 204.323 103.105 206.71 101.606 209.055L104.976 211.21C106.478 208.86 108 206.468 109.542 204.034L106.163 201.894ZM101.59 209.08C100.086 211.509 98.8293 214.032 97.822 216.649L101.555 218.086C102.471 215.707 103.615 213.407 104.991 211.185L101.59 209.08ZM97.809 216.684C96.8389 219.351 96.2838 222.126 96.1414 225.003L100.136 225.201C100.259 222.716 100.737 220.335 101.568 218.051L97.809 216.684ZM96.1414 225.003C95.9928 228.005 96.5581 231.175 97.7639 234.488L101.523 233.12C100.457 230.192 100.02 227.561 100.136 225.201L96.1414 225.003ZM97.7639 234.488L99.0665 238.066L102.825 236.698L101.523 233.12L97.7639 234.488Z" fill="#8766FF"/>
<path d="M206.733 120.836L207.212 118.895L205.403 118.449L204.83 120.222L206.733 120.836ZM226.656 125.746L228.513 126.487L229.364 124.354L227.134 123.804L226.656 125.746ZM185.36 229.265L184.676 231.145L186.499 231.808L187.217 230.006L185.36 229.265ZM173.144 224.819L171.24 224.204L170.648 226.039L172.46 226.698L173.144 224.819ZM165.279 239.409L166.125 241.222L166.15 241.21L166.176 241.197L165.279 239.409ZM181.442 245.292L179.629 246.137L179.641 246.163L179.654 246.188L181.442 245.292ZM175.764 260.891L176.558 262.727L175.764 260.891ZM159.602 255.008L157.789 255.853L159.602 255.008ZM206.255 122.778L226.177 127.688L227.134 123.804L207.212 118.895L206.255 122.778ZM224.798 125.005L183.502 228.524L187.217 230.006L228.513 126.487L224.798 125.005ZM186.044 227.386L173.828 222.94L172.46 226.698L184.676 231.145L186.044 227.386ZM175.047 225.434L208.637 121.451L204.83 120.222L171.24 224.204L175.047 225.434ZM161.159 246.636C162.072 244.128 163.699 242.353 166.125 241.222L164.434 237.596C161.049 239.175 158.677 241.761 157.4 245.268L161.159 246.636ZM166.176 241.197C168.629 239.966 171.099 239.825 173.72 240.779L175.088 237.02C171.444 235.694 167.831 235.892 164.383 237.621L166.176 241.197ZM173.72 240.779C176.491 241.787 178.424 243.553 179.629 246.137L183.255 244.447C181.591 240.878 178.832 238.383 175.088 237.02L173.72 240.779ZM179.654 246.188C180.896 248.665 181.041 251.073 180.141 253.545L183.9 254.913C185.189 251.37 184.948 247.82 183.23 244.395L179.654 246.188ZM180.141 253.545C179.187 256.165 177.491 257.966 174.971 259.055L176.558 262.727C180.099 261.197 182.574 258.556 183.9 254.913L180.141 253.545ZM174.971 259.055C172.435 260.15 169.821 260.217 167.016 259.197L165.648 262.955C169.359 264.306 173.033 264.249 176.558 262.727L174.971 259.055ZM167.016 259.197C164.36 258.23 162.535 256.566 161.414 254.163L157.789 255.853C159.378 259.26 162.04 261.642 165.648 262.955L167.016 259.197ZM161.414 254.163C160.294 251.759 160.192 249.292 161.159 246.636L157.4 245.268C156.087 248.876 156.2 252.446 157.789 255.853L161.414 254.163Z" fill="#8766FF"/>
<path d="M63.3469 400C63.16 408.899 61.6594 412.333 56 415.131C61.7624 415.914 63.1432 419.815 63.3469 431C63.9306 420.225 64.8574 415.325 71 415.131C64.9137 412.71 63.5049 409.097 63.3469 400Z" fill="#8766FF" stroke="#8766FF" stroke-linecap="round" stroke-linejoin="round"/>
<path d="M41 381C40.6946 393.057 38.2436 397.709 29 401.5C38.4119 402.561 40.6672 407.846 41 423C41.9533 408.401 43.4671 401.763 53.5 401.5C43.5591 398.221 41.258 393.325 41 381Z" fill="#8766FF" stroke="#8766FF" stroke-linecap="round" stroke-linejoin="round"/>
<path d="M111.5 422.5C113.422 424.655 132.262 440.41 152.5 435.5" stroke="#291E53"/>
<path d="M112 421V456" stroke="#8766FF" stroke-width="3"/>
<path d="M164.5 460C162 467 153.792 477.5 137.5 477.5C121.208 477.5 106.001 464 100 457C130.499 444 115.207 444 131.499 444C147.791 444 131.499 444 164.5 460Z" fill="#A298C9"/>
<path d="M99.5 456L112.5 449.5" stroke="#8766FF" stroke-width="3"/>
<path d="M94.5 389.5C78.5 385.5 75 364.5 87 355" stroke="#8766FF" stroke-width="3"/>
<path d="M91.5 355H86" stroke="#8766FF" stroke-width="3"/>
<path fill-rule="evenodd" clip-rule="evenodd" d="M145.97 436C161.5 436 184.5 413.794 184.5 379C190 343.5 170.48 315 139 315C114.138 315 99.5427 329.163 94.5048 352.257C86.8534 353.844 81 362.513 81 371C81 379.279 86.5703 386.176 93.9462 387.691C99.3205 415.27 119.219 436 145.97 436Z" fill="#A298C9"/>
<path d="M129.5 372C129.5 375.314 128.433 378 126.5 378C124.567 378 121 375.314 121 372C121 368.686 122.567 364.5 124.5 364.5C127.5 364.5 129.5 368.686 129.5 372Z" fill="#291E53"/>
<path d="M129.5 372C129.5 375.314 128.433 378 126.5 378C124.567 378 121 375.314 121 372C121 368.686 122.567 364.5 124.5 364.5C127.5 364.5 129.5 368.686 129.5 372Z" fill="#291E53"/>
<path d="M163.5 372.5C163.5 375.814 164.567 378.5 166.5 378.5C168.433 378.5 172 375.814 172 372.5C172 369.186 170.433 365 168.5 365C165.5 365 163.5 369.186 163.5 372.5Z" fill="#291E53"/>
<path d="M134 346.5C134 348.157 129 351.556 125 352C120.5 352.5 118.5 353 118 351C118 349 122 345.562 126.5 345C130.5 344.5 134 344.843 134 346.5Z" fill="#291E53"/>
<path d="M171.5 350.5C171 351.5 167.5 352 164.5 351.5C158 349 159.5 346 160 345C161.5 344 163 344.5 166.5 345C170 346 171.5 349.5 171.5 350.5Z" fill="#291E53"/>
<path d="M151 374C151.142 381.887 151.667 386.023 154 392.5C147.892 393.413 145.328 394.167 142.5 396" stroke="#291E53" stroke-width="3" stroke-linecap="round" stroke-linejoin="round"/>
<path d="M131 402.5C133.534 406.38 136.367 407.513 143.5 408" stroke="#291E53" stroke-width="3" stroke-linecap="round" stroke-linejoin="round"/>
<path d="M145.5 372C145.5 386.672 134.495 398.5 121 398.5C107.505 398.5 96.5 386.672 96.5 372C96.5 357.328 107.505 345.5 121 345.5C134.495 345.5 145.5 357.328 145.5 372Z" fill="#8766FF" fill-opacity="0.14" stroke="#2A1F54"/>
<path d="M144.5 380.5C149.838 377.101 152.264 377.469 156 380.5M90.5 354L98 362.5" stroke="#291E53" stroke-linecap="round" stroke-linejoin="round"/>
<path fill-rule="evenodd" clip-rule="evenodd" d="M158.985 327.028C159.119 326.948 159.25 326.867 159.38 326.786C161.36 327.017 163.558 327.251 166 327.5C167.304 327.385 168.634 327.349 169.975 327.37C176.382 333.988 179.99 342.149 183.98 351.5C191.16 351.5 196.98 337.127 196.98 330.5C196.98 329.369 196.811 328.275 196.494 327.237C199.052 325.131 199.755 320.851 197.5 312.699C195.5 301.5 184.307 292.199 170.5 292.199C163.12 291.245 154.987 293.248 148.881 296.575C144.815 291.337 137.887 288 128 288C112.299 288 100.863 298.299 99.207 309.663C97.1863 309.541 94.8053 309.64 92 310C78.5 310 65 324.059 65 334C65 343.941 76.2975 354 89 354C105.86 352.073 109.261 344.577 110.382 329.276C110.991 329.61 111.621 329.924 112.269 330.217C117.222 333.114 124.98 335 132.5 335C143.749 334.598 154.999 331.518 158.985 327.028Z" fill="#726B8E"/>
<path d="M203.5 371C203.5 385.672 192.495 397.5 179 397.5C165.505 397.5 154.5 385.672 154.5 371C154.5 356.328 165.505 344.5 179 344.5C192.495 344.5 203.5 356.328 203.5 371Z" fill="#8766FF" fill-opacity="0.14" stroke="#2A1F54"/>
<path d="M132.185 565.56C129.677 568.632 128.372 572.432 127.577 575.827C127.197 577.452 126.936 578.973 126.714 580.27C126.698 580.361 126.683 580.451 126.667 580.54C126.439 581.867 126.239 583 125.964 583.686C125.962 583.691 125.962 583.693 125.962 583.693L132.185 565.56ZM132.185 565.56L149.736 569.829L132.185 565.56ZM125.962 583.693C125.962 583.693 125.962 583.693 125.962 583.693L125.962 583.693Z" stroke="#291E53"/>
<path d="M151 580L169 585" stroke="#291E53" stroke-linecap="round" stroke-linejoin="round"/>
<path d="M152.5 575L179.5 583" stroke="#291E53" stroke-linecap="round" stroke-linejoin="round"/>
<rect x="2.5" y="1.5" width="260" height="673" rx="15.5" stroke="#605880" stroke-width="3"/>
</svg>
