<svg width="264" height="676" viewBox="0 0 264 676" fill="none" xmlns="http://www.w3.org/2000/svg">
<path d="M16 637H247V676H16V637Z" fill="#BBABF7"/>
<path d="M263.5 649H263V659H262.992C262.997 659.166 263 659.333 263 659.5C262.5 668.5 256 676.5 246 675C235.5 672 231.5 669 229.5 659.5C229.5 655.449 231.03 651.761 233.667 649H30.2333C33.7748 651.836 36 655.938 36 660.5C36 669.061 28.165 676 18.5 676C8 673 4 670.5 2 661C2 660.665 2.01048 660.331 2.0312 660H2V649H1.30689V539.474C0.664948 534.593 0.69961 529.281 1.5 523.5C6.00002 491 73.5 452.456 128 452.456C178.847 452.456 260.99 505.861 263.444 539H263.5V649Z" fill="#BBABF7"/>
<path d="M164.5 460C162 467 153.792 477.5 137.5 477.5C121.208 477.5 107.001 464 101 457C131.499 444 115.207 444 131.499 444C147.791 444 131.499 444 164.5 460Z" fill="#EEEAFC"/>
<rect x="112" y="416" width="39" height="45" fill="#EEEAFC"/>
<path fill-rule="evenodd" clip-rule="evenodd" d="M209.267 377.907C213.401 374.166 217.017 367.043 219.5 353.5C219.5 331 200.941 326.5 191 326.5C181.059 326.5 178.5 340.5 182 354.5C183.059 358.734 183.427 362.446 183.658 365.677C177.934 373.497 173 384.839 173 390C173 398.284 173 406.5 187 404C192.414 403.033 200.682 399 206 390C207.817 386.925 209.092 382.509 209.267 377.907ZM95.9109 362.28C95.9699 361.694 96 361.1 96 360.5C96 350.283 87.2696 342 76.5 342C65.7304 342 57 350.283 57 360.5C57 367.736 61.3789 374.002 67.7598 377.042C67.589 378.006 67.5 378.994 67.5 380C67.5 390.493 80 402.5 95 400.5C106.322 400.5 109 390.493 109 380C109 371.929 103.57 365.033 95.9109 362.28Z" fill="#D6CCFB"/>
<path fill-rule="evenodd" clip-rule="evenodd" d="M145.97 436C161.5 436 184.5 413.794 184.5 379C190 343.5 170.48 315 139 315C114.138 315 99.5427 329.163 94.5048 352.257C86.8534 353.844 81 362.513 81 371C81 379.279 86.5703 386.176 93.9462 387.691C99.3205 415.27 119.219 436 145.97 436Z" fill="#EEEAFC"/>
<path fill-rule="evenodd" clip-rule="evenodd" d="M158.985 327.028C159.119 326.948 159.25 326.867 159.38 326.786C161.36 327.017 163.558 327.251 166 327.5C167.304 327.385 168.634 327.349 169.975 327.37C176.382 333.988 179.99 342.149 183.98 351.5C191.16 351.5 196.98 337.127 196.98 330.5C196.98 329.369 196.811 328.275 196.494 327.237C199.052 325.131 199.755 320.851 197.5 312.699C195.5 301.5 184.307 292.199 170.5 292.199C163.12 291.245 154.987 293.248 148.881 296.575C144.815 291.337 137.887 288 128 288C112.299 288 100.863 298.299 99.207 309.663C97.1863 309.541 94.8053 309.64 92 310C78.5 310 65 324.059 65 334C65 343.941 76.2975 354 89 354C105.86 352.073 109.261 344.577 110.382 329.276C110.991 329.61 111.621 329.924 112.269 330.217C117.222 333.114 124.98 335 132.5 335C143.749 334.598 154.999 331.518 158.985 327.028Z" fill="#D6CDFB"/>
<path d="M129.5 372C129.5 375.314 128.433 378 126.5 378C124.567 378 121 375.314 121 372C121 368.686 122.567 364.5 124.5 364.5C127.5 364.5 129.5 368.686 129.5 372Z" fill="#7755F1"/>
<path d="M129.5 372C129.5 375.314 128.433 378 126.5 378C124.567 378 121 375.314 121 372C121 368.686 122.567 364.5 124.5 364.5C127.5 364.5 129.5 368.686 129.5 372Z" fill="#7755F1"/>
<path d="M163.5 372.5C163.5 375.814 164.567 378.5 166.5 378.5C168.433 378.5 172 375.814 172 372.5C172 369.186 170.433 365 168.5 365C165.5 365 163.5 369.186 163.5 372.5Z" fill="#7755F1"/>
<path d="M134 346.5C134 348.157 129 351.556 125 352C120.5 352.5 118.5 353 118 351C118 349 122 345.562 126.5 345C130.5 344.5 134 344.843 134 346.5Z" fill="#7755F1"/>
<path d="M171.5 350.5C171 351.5 167.5 352 164.5 351.5C158 349 159.5 346 160 345C161.5 344 163 344.5 166.5 345C170 346 171.5 349.5 171.5 350.5Z" fill="#7755F1"/>
<path d="M151 374C151.142 381.887 151.667 386.023 154 392.5C147.892 393.413 145.328 394.167 142.5 396" stroke="#7755F1" stroke-width="3" stroke-linecap="round" stroke-linejoin="round"/>
<path d="M131 402.5C133.534 406.38 136.367 407.513 143.5 408" stroke="#7755F1" stroke-width="3" stroke-linecap="round" stroke-linejoin="round"/>
<path d="M145.5 372C145.5 386.672 134.495 398.5 121 398.5C107.505 398.5 96.5 386.672 96.5 372C96.5 357.328 107.505 345.5 121 345.5C134.495 345.5 145.5 357.328 145.5 372Z" fill="#BBABF7" fill-opacity="0.1" stroke="#7D5EF1"/>
<path d="M203.5 371C203.5 385.672 192.495 397.5 179 397.5C165.505 397.5 154.5 385.672 154.5 371C154.5 356.328 165.505 344.5 179 344.5C192.495 344.5 203.5 356.328 203.5 371Z" fill="#BBABF7" fill-opacity="0.1" stroke="#7D5EF1"/>
<path d="M144.5 380.5C149.838 377.101 152.264 377.469 156 380.5M90.5 354L98 362.5" stroke="#7755F1" stroke-linecap="round" stroke-linejoin="round"/>
<ellipse cx="172" cy="325" rx="13" ry="10" fill="#D6CDFB"/>
<path d="M111 422C125 435 140 437.5 152 435.613" stroke="#7655F1" stroke-linecap="round"/>
<path fill-rule="evenodd" clip-rule="evenodd" d="M37.5001 517L97 577.5L103.5 600L78 596L17 535C16.5 523.5 22.0001 514.5 37.5 517C37.5 517 37.5 517 37.5001 517Z" fill="#7452F1"/>
<path fill-rule="evenodd" clip-rule="evenodd" d="M67.6415 564.26C68.3453 564.168 69.0436 564.051 69.7337 563.909C79.0459 563.406 85.0276 567.297 90.0097 570.537L90.0098 570.538C90.5161 570.867 91.012 571.189 91.5 571.5C92 569.475 91.5 562.475 90.5 558.975C89.5872 556.237 86.5916 547.687 84.5549 545.456C80.8774 539.644 70.829 535 62 535C53.5587 535 39.3307 538.953 33.0904 544.268C23.5761 549.596 -0.765578 578.352 1.00002 581C1.00002 581.901 1.17009 582.762 1.47987 583.552C1.17175 583.784 1 584.093 1 584.5C1 587.538 15.5817 603.839 20 603.839C20.9906 597.559 28.3598 585.392 34.8167 582.091C39.0468 580.912 42.9551 579.686 45.8121 578.546C49.9288 577.547 53.4755 574.966 55.8507 571.439C56.2599 571.128 56.7348 570.73 57.272 570.28C59.6275 568.307 63.181 565.331 67.6415 564.26Z" fill="#EEEAFC"/>
<path d="M19.2615 600.279C19.2594 600.306 19.2327 601.946 19.0654 601.946" stroke="#EEEAFC" stroke-linecap="round"/>
<path d="M19.5 603.5C15 630 24 649.5 13.5 675" stroke="#EEEAFC" stroke-linecap="round"/>
<path d="M78 596L17 535C18.0098 519.92 22.9424 516.491 37.5 517L97 577.5L103.5 600L78 596Z" stroke="#EEEAFC" stroke-linecap="round"/>
<path d="M247.716 633.395C247.48 633.725 247.242 634.058 247 634.395C242.102 641.217 235.863 649.278 228.716 646.895C226.216 643.395 224.716 637.985 224.716 634.395C224.716 630.805 227.126 615.395 230.716 615.395C232.716 613.395 245.5 628 247.716 633.395Z" fill="#EEEAFC"/>
<path d="M247 633C255 651 255.5 660.5 253 674" stroke="#EEEAFC"/>
<rect x="1.5" y="0.5" width="262" height="675" rx="16.5" stroke="#D2C9FB"/>
<path fill-rule="evenodd" clip-rule="evenodd" d="M254.5 536.5L247.374 539.125C227.178 550.989 218.482 591.198 217.5 602C215 617.5 212.5 629.5 197 648L186.5 661.5L180.612 655.748C173.64 651.577 139.039 647.448 121.81 645.391C118.735 645.024 116.213 644.723 114.5 644.5L82 641.5L92.9727 633.867C100.46 628.284 112.077 616.988 119.5 579L119.5 578.998C121.501 559.499 133.001 537.999 152.5 517.5C152.579 517.453 152.663 517.409 152.753 517.367L163.5 506L182.926 513.77L254.5 536.5Z" fill="#EEEAFC"/>
<path d="M181 533.5L207 542" stroke="#7452F1" stroke-linecap="round" stroke-linejoin="round"/>
<path d="M168 551L208 566" stroke="#7452F1" stroke-linecap="round" stroke-linejoin="round"/>
<path d="M164 556L204.5 571" stroke="#7452F1" stroke-linecap="round" stroke-linejoin="round"/>
<path d="M162 561L177 567" stroke="#7452F1" stroke-linecap="round" stroke-linejoin="round"/>
<path d="M162 602L194 607" stroke="#BBABF7" stroke-linecap="round" stroke-linejoin="round"/>
<path d="M160 615.5L190 622.5" stroke="#BBABF7" stroke-linecap="round" stroke-linejoin="round"/>
<path d="M206.638 634.012C206.638 634.012 185.14 631.264 176.67 626.869C168.201 622.474 149.309 612.035 158.429 603.794C167.55 595.552 193.414 599.559 215.759 603.794L217 604" stroke="#BBABF7" stroke-linecap="square" stroke-linejoin="round"/>
<path d="M63 544C78.5 544 85.5914 551.437 91.5 571C82.4995 557.306 79.5 553 66.5 551.5" stroke="#BBABF7" stroke-linecap="round" stroke-linejoin="round"/>
<path d="M92 572.5L87.5 567.5" stroke="#EEEAFC" stroke-linecap="round" stroke-linejoin="round"/>
<path d="M235 617.5C235 623.575 225.799 635.5 220 635.5C214.201 635.5 208.5 635 207 634.5C209.5 628.5 215.5 611.5 217 603.5C222 604.5 229.5 611.5 235 617.5Z" fill="#EEEAFC"/>
<path d="M234.837 633.002C234.837 636.316 231.366 644.5 227.5 644.5C224.5 641 218.837 636.816 218.837 633.502C218.837 630.188 223.971 627.002 227.837 627.002C231.703 627.002 234.837 629.688 234.837 633.002Z" fill="#EEEAFC"/>
<path d="M157 608L194.5 615.5" stroke="#BBABF7" stroke-linecap="square" stroke-linejoin="round"/>
<path d="M150.298 532.767C154.983 526.527 158.286 523.119 164.604 517.574L182.066 524.181C175.945 529.84 172.647 533.31 167.834 539.403L150.298 532.767Z" stroke="#7452F1"/>
<path d="M135.159 557.215C138.264 549.743 140.659 545.879 146.12 540.58L163.711 547.236C159.177 553.5 156.713 557.331 152.786 563.884L135.159 557.215Z" stroke="#7452F1"/>
<path d="M184.5 528.5L220.5 540.5" stroke="#7452F1" stroke-linecap="round" stroke-linejoin="round"/>
<path d="M140 548.5L143.5 560.5L173 546.5" stroke="#7452F1" stroke-width="2" stroke-linecap="round" stroke-linejoin="round"/>
<path d="M99.933 276.859L94.7893 262.727L108.83 257.616L113.973 271.749L99.933 276.859ZM98.3763 232.323L86.5384 236.631L85.2358 233.052C83.7662 229.015 82.9752 225.319 82.863 221.965C82.7508 218.611 83.078 215.512 83.8448 212.67C84.6727 209.805 85.7732 207.118 87.1464 204.609C88.5807 202.078 90.079 199.627 91.6412 197.257C93.2424 194.804 94.7519 192.384 96.1695 189.997C97.6484 187.589 98.8157 185.085 99.6715 182.487C100.589 179.867 101.069 177.094 101.112 174.169C101.156 171.243 100.543 168.036 99.2741 164.549L98.6395 162.806C97.5707 159.869 96.0292 157.347 94.0151 155.24C91.9786 153.071 89.6364 151.395 86.9885 150.211C84.4017 149.005 81.6232 148.318 78.6529 148.152C75.7438 147.964 72.821 148.404 69.8844 149.473L67.3149 150.408C64.3784 151.477 61.8258 153.03 59.6571 155.066C57.5497 157.08 55.8622 159.392 54.5948 162.001C53.3885 164.588 52.7024 167.366 52.5364 170.337C52.3482 173.246 52.7885 176.169 53.8573 179.105L55.7945 184.428L43.2552 186.809L42.0193 183.414C40.3939 178.948 39.6945 174.457 39.9212 169.94C40.2091 165.401 41.2869 161.129 43.1546 157.124C45.0224 153.118 47.6133 149.577 50.9275 146.5C54.2806 143.34 58.1901 140.947 62.6561 139.322L66.4185 137.952C70.8845 136.327 75.387 135.658 79.9258 135.946C84.4424 136.172 88.7034 137.22 92.7087 139.087C96.7141 140.955 100.255 143.546 103.332 146.86C106.47 150.152 108.852 154.031 110.477 158.497L111.112 160.241C112.648 164.462 113.506 168.341 113.685 171.879C113.864 175.416 113.573 178.709 112.812 181.758C112.112 184.784 111.067 187.624 109.677 190.277C108.349 192.908 106.884 195.451 105.283 197.904C103.743 200.335 102.222 202.725 100.721 205.072C99.2812 207.398 98.0804 209.81 97.1189 212.307C96.2186 214.783 95.702 217.361 95.5693 220.042C95.4366 222.723 95.9381 225.624 97.0737 228.744L98.3763 232.323Z" fill="white" fill-opacity="0.01"/>
<path d="M99.933 276.859L98.9933 277.201L99.3353 278.141L100.275 277.798L99.933 276.859ZM94.7893 262.727L94.4473 261.787L93.5076 262.129L93.8496 263.069L94.7893 262.727ZM108.83 257.616L109.769 257.274L109.427 256.335L108.488 256.677L108.83 257.616ZM113.973 271.749L114.315 272.688L115.255 272.346L114.913 271.407L113.973 271.749ZM98.3763 232.323L98.7183 233.262L99.658 232.92L99.316 231.981L98.3763 232.323ZM86.5384 236.631L85.5987 236.973L85.9407 237.913L86.8804 237.571L86.5384 236.631ZM83.8448 212.67L82.8841 212.392L82.8816 212.401L82.8793 212.409L83.8448 212.67ZM87.1464 204.609L86.2763 204.116L86.2727 204.123L86.2691 204.129L87.1464 204.609ZM91.6412 197.257L92.4762 197.808L92.4787 197.804L91.6412 197.257ZM96.1695 189.997L95.3173 189.474L95.3135 189.48L95.3098 189.487L96.1695 189.997ZM99.6715 182.487L98.7277 182.157L98.7246 182.166L98.7217 182.174L99.6715 182.487ZM94.0151 155.24L93.286 155.924L93.2921 155.931L94.0151 155.24ZM86.9885 150.211L86.5659 151.117L86.5731 151.12L86.5803 151.124L86.9885 150.211ZM78.6529 148.152L78.5883 149.15L78.5971 149.151L78.6529 148.152ZM59.6571 155.066L58.9726 154.337L58.9662 154.343L59.6571 155.066ZM54.5948 162.001L53.6953 161.564L53.6918 161.571L53.6885 161.578L54.5948 162.001ZM52.5364 170.337L53.5344 170.401L53.5349 170.392L52.5364 170.337ZM55.7945 184.428L55.9811 185.41L57.1364 185.191L56.7342 184.086L55.7945 184.428ZM43.2552 186.809L42.3155 187.151L42.6063 187.95L43.4417 187.792L43.2552 186.809ZM39.9212 169.94L38.9231 169.877L38.9224 169.89L39.9212 169.94ZM50.9275 146.5L51.6079 147.233L51.6134 147.228L50.9275 146.5ZM79.9258 135.946L79.8625 136.944L79.8757 136.944L79.9258 135.946ZM103.332 146.86L102.599 147.541L102.608 147.55L103.332 146.86ZM112.812 181.758L111.842 181.515L111.84 181.524L111.838 181.532L112.812 181.758ZM109.677 190.277L108.792 189.813L108.788 189.82L108.785 189.826L109.677 190.277ZM105.283 197.904L104.445 197.358L104.438 197.369L105.283 197.904ZM100.721 205.072L99.8786 204.534L99.8747 204.54L99.8709 204.546L100.721 205.072ZM97.1189 212.307L96.1857 211.948L96.1823 211.957L96.1791 211.965L97.1189 212.307ZM100.873 276.517L95.729 262.385L93.8496 263.069L98.9933 277.201L100.873 276.517ZM95.1313 263.666L109.172 258.556L108.488 256.677L94.4473 261.787L95.1313 263.666ZM107.89 257.958L113.034 272.091L114.913 271.407L109.769 257.274L107.89 257.958ZM113.631 270.809L99.5909 275.919L100.275 277.798L114.315 272.688L113.631 270.809ZM98.0343 231.383L86.1964 235.691L86.8804 237.571L98.7183 233.262L98.0343 231.383ZM87.4781 236.289L86.1755 232.71L84.2961 233.394L85.5987 236.973L87.4781 236.289ZM86.1755 232.71C84.7323 228.745 83.9703 225.155 83.8624 221.931L81.8636 221.998C81.9801 225.482 82.8 229.284 84.2961 233.394L86.1755 232.71ZM83.8624 221.931C83.7531 218.663 84.0727 215.665 84.8103 212.93L82.8793 212.409C82.0834 215.36 81.7485 218.559 81.8636 221.998L83.8624 221.931ZM84.8055 212.948C85.6139 210.15 86.6871 207.531 88.0236 205.089L86.2691 204.129C84.8594 206.705 83.7315 209.46 82.8841 212.392L84.8055 212.948ZM88.0164 205.102C89.4399 202.59 90.9265 200.159 92.4762 197.808L90.8063 196.707C89.2314 199.096 87.7214 201.566 86.2763 204.116L88.0164 205.102ZM92.4787 197.804C94.0871 195.339 95.6041 192.907 97.0293 190.508L95.3098 189.487C93.8997 191.861 92.3977 194.269 90.8038 196.711L92.4787 197.804ZM97.0218 190.521C98.5398 188.048 99.7404 185.474 100.621 182.8L98.7217 182.174C97.891 184.696 96.757 187.129 95.3173 189.474L97.0218 190.521ZM100.615 182.818C101.57 180.091 102.067 177.211 102.112 174.184L100.113 174.154C100.07 176.978 99.6073 179.644 98.7277 182.157L100.615 182.818ZM102.112 174.184C102.158 171.108 101.514 167.779 100.214 164.207L98.3344 164.891C99.5727 168.294 100.154 171.377 100.113 174.154L102.112 174.184ZM100.214 164.207L99.5792 162.464L97.6998 163.148L98.3344 164.891L100.214 164.207ZM99.5792 162.464C98.4665 159.407 96.8545 156.763 94.738 154.549L93.2921 155.931C95.2039 157.931 96.6749 160.332 97.6998 163.148L99.5792 162.464ZM94.744 154.555C92.6193 152.292 90.1688 150.537 87.3967 149.298L86.5803 151.124C89.1041 152.252 91.338 153.85 93.2861 155.924L94.744 154.555ZM87.4111 149.304C84.7042 148.042 81.8005 147.327 78.7087 147.154L78.5971 149.151C81.4458 149.31 84.0992 149.967 86.5659 151.117L87.4111 149.304ZM78.7175 147.155C75.6605 146.957 72.5995 147.421 69.5424 148.534L70.2264 150.413C73.0424 149.388 75.827 148.972 78.5883 149.15L78.7175 147.155ZM69.5424 148.534L66.9729 149.469L67.657 151.348L70.2264 150.413L69.5424 148.534ZM66.9729 149.469C63.9157 150.582 61.245 152.204 58.9726 154.337L60.3417 155.795C62.4067 153.856 64.8412 152.373 67.657 151.348L66.9729 149.469ZM58.9662 154.343C56.7732 156.439 55.0149 158.848 53.6953 161.564L55.4943 162.438C56.7095 159.937 58.3261 157.722 60.3481 155.789L58.9662 154.343ZM53.6885 161.578C52.4262 164.285 51.7108 167.189 51.538 170.281L53.5349 170.392C53.6941 167.544 54.3509 164.89 55.5011 162.424L53.6885 161.578ZM51.5385 170.272C51.3407 173.329 51.8049 176.39 52.9176 179.447L54.797 178.763C53.772 175.947 53.3557 173.163 53.5343 170.401L51.5385 170.272ZM52.9176 179.447L54.8548 184.77L56.7342 184.086L54.797 178.763L52.9176 179.447ZM55.6079 183.445L43.0686 185.827L43.4417 187.792L55.9811 185.41L55.6079 183.445ZM44.1948 186.467L42.959 183.072L41.0796 183.756L42.3155 187.151L44.1948 186.467ZM42.959 183.072C41.3768 178.725 40.7002 174.367 40.9199 169.99L38.9224 169.89C38.6887 174.546 39.4109 179.171 41.0796 183.756L42.959 183.072ZM40.9192 170.003C41.1994 165.585 42.2474 161.435 44.0609 157.546L42.2483 156.701C40.3264 160.823 39.2188 165.217 38.9232 169.877L40.9192 170.003ZM44.0609 157.546C45.8728 153.661 48.3861 150.224 51.6079 147.233L50.2471 145.767C46.8405 148.93 44.1719 152.576 42.2483 156.701L44.0609 157.546ZM51.6134 147.228C54.8643 144.164 58.6559 141.842 62.9981 140.261L62.3141 138.382C57.7244 140.052 53.6968 142.516 50.2416 145.773L51.6134 147.228ZM62.9981 140.261L66.7606 138.892L66.0765 137.012L62.3141 138.382L62.9981 140.261ZM66.7606 138.892C71.1029 137.311 75.4675 136.665 79.8625 136.944L79.9891 134.948C75.3064 134.651 70.6662 135.342 66.0765 137.012L66.7606 138.892ZM79.8757 136.944C84.2664 137.165 88.4005 138.182 92.2861 139.994L93.1313 138.181C89.0062 136.258 84.6184 135.18 79.9759 134.947L79.8757 136.944ZM92.2861 139.994C96.1717 141.806 99.6081 144.319 102.599 147.541L104.065 146.18C100.902 142.773 97.2565 140.105 93.1313 138.181L92.2861 139.994ZM102.608 147.55C105.647 150.738 107.957 154.497 109.538 158.839L111.417 158.155C109.747 153.565 107.293 149.567 104.056 146.17L102.608 147.55ZM109.538 158.839L110.172 160.583L112.052 159.899L111.417 158.155L109.538 158.839ZM110.172 160.583C111.683 164.734 112.514 168.514 112.686 171.929L114.684 171.828C114.499 168.169 113.614 164.19 112.052 159.899L110.172 160.583ZM112.686 171.929C112.861 175.381 112.576 178.574 111.842 181.515L113.782 182C114.57 178.845 114.867 175.452 114.684 171.828L112.686 171.929ZM111.838 181.532C111.156 184.478 110.14 187.238 108.792 189.813L110.563 190.741C111.994 188.009 113.068 185.089 113.786 181.983L111.838 181.532ZM108.785 189.826C107.473 192.425 106.026 194.935 104.445 197.358L106.12 198.451C107.742 195.966 109.225 193.392 110.57 190.728L108.785 189.826ZM104.438 197.369C102.899 199.799 101.379 202.187 99.8786 204.534L101.564 205.611C103.065 203.262 104.587 200.872 106.128 198.439L104.438 197.369ZM99.8709 204.546C98.3989 206.923 97.1701 209.391 96.1857 211.948L98.0521 212.666C98.9908 210.228 100.163 207.873 101.571 205.599L99.8709 204.546ZM96.1791 211.965C95.244 214.537 94.7081 217.214 94.5706 219.993L96.5681 220.091C96.696 217.508 97.1932 215.029 98.0587 212.649L96.1791 211.965ZM94.5706 219.993C94.4299 222.834 94.9633 225.869 96.134 229.086L98.0134 228.402C96.9129 225.378 96.4434 222.612 96.5681 220.091L94.5706 219.993ZM96.134 229.086L97.4366 232.665L99.316 231.981L98.0134 228.402L96.134 229.086Z" fill="#BBABF7"/>
<path d="M206.733 120.836L226.656 125.746L185.36 229.265L173.144 224.819L206.733 120.836ZM159.28 245.952C160.374 242.945 162.374 240.764 165.279 239.409C168.23 237.929 171.272 237.759 174.404 238.899C177.661 240.085 180.008 242.216 181.442 245.292C182.922 248.243 183.115 251.222 182.02 254.229C180.88 257.361 178.795 259.582 175.764 260.891C172.734 262.2 169.59 262.262 166.332 261.076C163.2 259.936 160.956 257.913 159.602 255.008C158.247 252.103 158.14 249.084 159.28 245.952Z" fill="white" fill-opacity="0.01"/>
<path d="M206.733 120.836L206.973 119.866L206.068 119.643L205.782 120.529L206.733 120.836ZM226.656 125.746L227.584 126.117L228.01 125.05L226.895 124.775L226.656 125.746ZM185.36 229.265L185.018 230.205L185.929 230.537L186.288 229.636L185.36 229.265ZM173.144 224.819L172.192 224.512L171.896 225.429L172.802 225.759L173.144 224.819ZM165.279 239.409L165.702 240.315L165.715 240.309L165.728 240.303L165.279 239.409ZM181.442 245.292L180.536 245.714L180.542 245.727L180.548 245.74L181.442 245.292ZM175.764 260.891L176.161 261.809L176.161 261.809L175.764 260.891ZM159.602 255.008L158.695 255.431L158.695 255.431L159.602 255.008ZM206.494 121.807L226.416 126.717L226.895 124.775L206.973 119.866L206.494 121.807ZM225.727 125.376L184.431 228.895L186.288 229.636L227.584 126.117L225.727 125.376ZM185.702 228.326L173.486 223.879L172.802 225.759L185.018 230.205L185.702 228.326ZM174.095 225.126L207.685 121.144L205.782 120.529L172.192 224.512L174.095 225.126ZM160.219 246.294C161.223 243.536 163.037 241.558 165.702 240.315L164.857 238.503C161.711 239.969 159.525 242.353 158.34 245.61L160.219 246.294ZM165.728 240.303C168.43 238.948 171.185 238.792 174.062 239.839L174.746 237.959C171.358 236.726 168.03 236.91 164.831 238.515L165.728 240.303ZM174.062 239.839C177.076 240.936 179.216 242.884 180.536 245.714L182.348 244.869C180.799 241.547 178.247 239.234 174.746 237.959L174.062 239.839ZM180.548 245.74C181.909 248.454 182.078 251.147 181.081 253.887L182.96 254.571C184.152 251.296 183.935 248.031 182.336 244.844L180.548 245.74ZM181.081 253.887C180.034 256.763 178.143 258.774 175.368 259.973L176.161 261.809C179.447 260.389 181.727 257.959 182.96 254.571L181.081 253.887ZM175.368 259.973C172.584 261.175 169.705 261.239 166.674 260.136L165.99 262.016C169.474 263.284 172.883 263.225 176.161 261.809L175.368 259.973ZM166.674 260.136C163.78 259.083 161.746 257.24 160.508 254.585L158.695 255.431C160.167 258.587 162.62 260.789 165.99 262.016L166.674 260.136ZM160.508 254.585C159.27 251.931 159.166 249.188 160.219 246.294L158.34 245.61C157.113 248.98 157.224 252.275 158.695 255.431L160.508 254.585Z" fill="#BBABF7"/>
<path d="M63.3469 400C63.16 408.899 61.6594 412.333 56 415.131C61.7624 415.914 63.1432 419.815 63.3469 431C63.9306 420.225 64.8574 415.325 71 415.131C64.9137 412.71 63.5049 409.097 63.3469 400Z" stroke="#BBABF7" stroke-linecap="round" stroke-linejoin="round"/>
<path d="M41 381C40.6946 393.057 38.2436 397.709 29 401.5C38.4119 402.561 40.6672 407.846 41 423C41.9533 408.401 43.4671 401.763 53.5 401.5C43.5591 398.221 41.258 393.325 41 381Z" stroke="#BBABF7" stroke-linecap="round" stroke-linejoin="round"/>
<path d="M132.185 565.56C129.677 568.632 128.372 572.432 127.577 575.827C127.197 577.452 126.936 578.973 126.714 580.27C126.698 580.361 126.683 580.451 126.667 580.54C126.439 581.867 126.239 583 125.964 583.686C125.962 583.691 125.962 583.693 125.962 583.693L132.185 565.56ZM132.185 565.56L149.736 569.829L132.185 565.56ZM125.962 583.693C125.962 583.693 125.962 583.693 125.962 583.693L125.962 583.693Z" stroke="#7452F1"/>
<path d="M151 580L169 585" stroke="#7452F1" stroke-linecap="round" stroke-linejoin="round"/>
<path d="M152.5 575L179.5 583" stroke="#7452F1" stroke-linecap="round" stroke-linejoin="round"/>
</svg>
