<svg width="263" height="676" viewBox="0 0 263 676" fill="none" xmlns="http://www.w3.org/2000/svg">
<path d="M126.107 380.388C126.678 383.652 126.09 386.482 124.186 386.815C122.282 387.148 118.305 385.117 117.734 381.853C117.163 378.589 117.985 374.195 119.889 373.862C122.844 373.345 125.536 377.124 126.107 380.388Z" fill="#7755F1"/>
<mask id="path-2-inside-1_544_344" fill="white">
<path fill-rule="evenodd" clip-rule="evenodd" d="M263 661.007V535.282C255.158 502.021 177.126 452.456 128.141 452.456C73.6408 452.456 6.14083 491 1.64081 523.5C0.840418 529.281 0.805756 534.593 1.44769 539.474V649H2.14081V660H2.172C2.15129 660.331 2.14081 660.665 2.14081 661C3.97359 669.706 7.48592 672.533 16.1408 675.254V676H18.6404L18.6408 676L18.711 676H247.141V675.12C256.024 675.91 261.938 669.071 263 661.007Z"/>
</mask>
<path fill-rule="evenodd" clip-rule="evenodd" d="M263 661.007V535.282C255.158 502.021 177.126 452.456 128.141 452.456C73.6408 452.456 6.14083 491 1.64081 523.5C0.840418 529.281 0.805756 534.593 1.44769 539.474V649H2.14081V660H2.172C2.15129 660.331 2.14081 660.665 2.14081 661C3.97359 669.706 7.48592 672.533 16.1408 675.254V676H18.6404L18.6408 676L18.711 676H247.141V675.12C256.024 675.91 261.938 669.071 263 661.007Z" fill="#291E53"/>
<path d="M263 661.007L265.974 661.399L266 661.204V661.007H263ZM263 535.282H266V534.933L265.92 534.593L263 535.282ZM1.64081 523.5L-1.33084 523.089H-1.33084L1.64081 523.5ZM1.44769 539.474H4.44769V539.278L4.42208 539.083L1.44769 539.474ZM1.44769 649H-1.55231V652H1.44769V649ZM2.14081 649H5.14081V646H2.14081V649ZM2.14081 660H-0.859191V663H2.14081V660ZM2.172 660L5.16616 660.187L5.36543 657H2.172V660ZM2.14081 661H-0.859191V661.312L-0.794841 661.618L2.14081 661ZM16.1408 675.254H19.1408V673.052L17.0404 672.392L16.1408 675.254ZM16.1408 676H13.1408V679H16.1408V676ZM18.6404 676L19.4645 673.115L19.0605 673H18.6404V676ZM18.6408 676L17.8166 678.885L18.2232 679.001L18.646 679L18.6408 676ZM18.711 676V673H18.7058L18.711 676ZM247.141 676V679H250.141V676H247.141ZM247.141 675.12L247.407 672.132L244.141 671.841V675.12H247.141ZM266 661.007V535.282H260V661.007H266ZM128.141 455.456C151.825 455.456 183.011 467.524 209.415 483.944C222.567 492.123 234.389 501.294 243.371 510.414C252.421 519.603 258.308 528.456 260.08 535.97L265.92 534.593C263.77 525.477 256.963 515.663 247.646 506.203C238.261 496.675 226.043 487.219 212.583 478.849C185.765 462.171 153.442 449.456 128.141 449.456V455.456ZM4.61246 523.911C5.61521 516.669 10.2087 508.723 17.8108 500.76C25.3714 492.84 35.6792 485.146 47.6163 478.403C71.5223 464.898 101.517 455.456 128.141 455.456V449.456C100.264 449.456 69.2594 459.286 44.6653 473.178C32.3524 480.134 21.5353 488.169 13.4708 496.617C5.44796 505.021 -0.0835894 514.081 -1.33084 523.089L4.61246 523.911ZM4.42208 539.083C3.81892 534.497 3.84479 529.456 4.61246 523.911L-1.33084 523.089C-2.16395 529.105 -2.20741 534.689 -1.5267 539.866L4.42208 539.083ZM4.44769 649V539.474H-1.55231V649H4.44769ZM2.14081 646H1.44769V652H2.14081V646ZM5.14081 660V649H-0.859191V660H5.14081ZM2.172 657H2.14081V663H2.172V657ZM5.14081 661C5.14081 660.727 5.14933 660.456 5.16616 660.187L-0.82215 659.813C-0.84676 660.206 -0.859191 660.602 -0.859191 661H5.14081ZM17.0404 672.392C12.8111 671.062 10.3395 669.845 8.67723 668.224C7.08066 666.666 5.92924 664.433 5.07646 660.382L-0.794841 661.618C0.185158 666.273 1.70629 669.806 4.4878 672.519C7.20365 675.168 10.8156 676.725 15.2412 678.116L17.0404 672.392ZM19.1408 676V675.254H13.1408V676H19.1408ZM18.6404 673H16.1408V679H18.6404V673ZM19.465 673.116L19.4645 673.115L17.8162 678.885L17.8166 678.885L19.465 673.116ZM18.7058 673L18.6356 673L18.646 679L18.7162 679L18.7058 673ZM247.141 673H18.711V679H247.141V673ZM244.141 675.12V676H250.141V675.12H244.141ZM260.026 660.616C259.105 667.606 254.212 672.737 247.407 672.132L246.875 678.108C257.835 679.083 264.771 670.536 265.974 661.399L260.026 660.616Z" fill="#8766FF" mask="url(#path-2-inside-1_544_344)"/>
<path d="M158.734 377.036C159.305 380.3 160.819 382.762 162.723 382.429C164.627 382.096 167.678 378.835 167.107 375.571C166.535 372.307 164.27 368.453 162.366 368.786C159.411 369.303 158.163 373.772 158.734 377.036Z" fill="#7755F1"/>
<path d="M164.641 460C162.141 467 153.933 477.5 137.641 477.5C121.348 477.5 107.142 464 101.141 457C131.64 444 115.347 444 131.64 444C147.932 444 131.64 444 164.641 460Z" fill="#A298C9"/>
<rect x="112.141" y="416" width="39" height="45" fill="#A298C9"/>
<path fill-rule="evenodd" clip-rule="evenodd" d="M209.408 377.907C213.542 374.166 217.158 367.043 219.641 353.5C219.641 331 201.082 326.5 191.141 326.5C181.2 326.5 178.641 340.5 182.141 354.5C183.199 358.734 183.568 362.446 183.798 365.677C178.075 373.497 173.141 384.839 173.141 390C173.141 398.284 173.141 406.5 187.141 404C192.555 403.033 200.822 399 206.141 390C207.957 386.925 209.233 382.509 209.408 377.907ZM96.0516 362.28C96.1105 361.694 96.1406 361.1 96.1406 360.5C96.1406 350.283 87.4102 342 76.6406 342C65.8711 342 57.1406 350.283 57.1406 360.5C57.1406 367.736 61.5195 374.002 67.9005 377.042C67.7296 378.006 67.6406 378.994 67.6406 380C67.6406 390.493 80.1406 402.5 95.1406 400.5C106.462 400.5 109.141 390.493 109.141 380C109.141 371.929 103.711 365.033 96.0516 362.28Z" fill="#726B8E"/>
<path fill-rule="evenodd" clip-rule="evenodd" d="M146.111 436C161.641 436 184.641 413.794 184.641 379C190.141 343.5 170.621 315 139.141 315C114.278 315 99.6833 329.163 94.6455 352.257C86.994 353.844 81.1406 362.513 81.1406 371C81.1406 379.279 86.7109 386.176 94.0868 387.691C99.4611 415.27 119.359 436 146.111 436Z" fill="#A298C9"/>
<path d="M134.141 346.5C134.141 348.157 129.141 351.556 125.141 352C120.641 352.5 118.641 353 118.141 351C118.141 349 122.141 345.562 126.641 345C130.641 344.5 134.141 344.843 134.141 346.5Z" fill="#291E53"/>
<path d="M171.641 350.5C171.141 351.5 167.641 352 164.641 351.5C158.141 349 159.641 346 160.141 345C161.641 344 163.141 344.5 166.641 345C170.141 346 171.641 349.5 171.641 350.5Z" fill="#291E53"/>
<path d="M151.141 374C151.282 381.887 151.807 386.023 154.141 392.5C148.033 393.413 145.469 394.167 142.641 396" stroke="#291E53" stroke-width="3" stroke-linecap="round" stroke-linejoin="round"/>
<ellipse cx="172.141" cy="325" rx="13" ry="10" fill="#726B8E"/>
<path d="M111.141 422C125.141 435 140.141 437.5 152.141 435.613" stroke="#291E53" stroke-linecap="round"/>
<path d="M89 353L96.5 364" stroke="#8766FF" stroke-width="4" stroke-linecap="round"/>
<path d="M153.275 368.216C153.275 371.695 164.258 392.891 177.425 392.891C188.975 392.891 192.65 380.62 192.65 377.141C192.65 373.661 189.5 354.041 170.6 355.091C153.525 356.039 153.275 364.736 153.275 368.216Z" fill="#291E53"/>
<path d="M139.543 360.417C142.693 371.442 132.648 387.717 130.618 387.717C128.589 387.717 116.443 397.167 106.993 390.342C98.5935 373.017 107.589 360.417 109.618 360.417C112.768 360.417 121.168 353.067 139.543 360.417Z" fill="#291E53"/>
<path d="M97.1875 366.583H104.888C105.468 366.583 106.024 366.362 106.434 365.969C106.845 365.576 107.075 365.042 107.075 364.486C107.075 363.93 106.845 363.397 106.434 363.003C106.024 362.61 105.468 362.389 104.888 362.389H97.1875C96.6073 362.389 96.0509 362.61 95.6407 363.003C95.2305 363.397 95 363.93 95 364.486C95 365.042 95.2305 365.576 95.6407 365.969C96.0509 366.362 96.6073 366.583 97.1875 366.583ZM190.113 366.583H197.812C198.393 366.583 198.949 366.362 199.359 365.969C199.77 365.576 200 365.042 200 364.486C200 363.93 199.77 363.397 199.359 363.003C198.949 362.61 198.393 362.389 197.812 362.389H190.113C189.532 362.389 188.976 362.61 188.566 363.003C188.155 363.397 187.925 363.93 187.925 364.486C187.925 365.042 188.155 365.576 188.566 365.969C188.976 366.362 189.532 366.583 190.113 366.583Z" fill="#3C3B41"/>
<path d="M97.1875 362.389H103.75C105.788 359.784 108.43 357.67 111.467 356.214C114.505 354.758 117.854 354 121.25 354H173.75C177.146 354 180.495 354.758 183.533 356.214C186.57 357.67 189.212 359.784 191.25 362.389H197.812C198.393 362.389 198.949 362.61 199.359 363.003C199.77 363.397 200 363.93 200 364.486C200 365.043 199.77 365.576 199.359 365.969C198.949 366.363 198.393 366.584 197.812 366.584H193.788C194.996 369.229 195.621 372.085 195.625 374.973C195.625 388.102 189.062 395.945 178.125 395.945C166.312 395.945 152.706 379.167 151.875 367.59C150.492 367.023 149.004 366.73 147.5 366.73C145.996 366.73 144.508 367.023 143.125 367.59C142.294 379.167 128.688 395.945 116.875 395.945C105.938 395.945 99.375 388.102 99.375 374.973C99.3786 372.085 100.004 369.229 101.213 366.584H97.1875C96.6073 366.584 96.0509 366.363 95.6407 365.969C95.2305 365.576 95 365.043 95 364.486C95 363.93 95.2305 363.397 95.6407 363.003C96.0509 362.61 96.6073 362.389 97.1875 362.389ZM178.125 391.751C189.544 391.751 191.25 381.222 191.25 374.973C191.25 370.523 189.406 366.255 186.124 363.109C182.842 359.962 178.391 358.195 173.75 358.195C161.062 358.195 156.25 358.908 156.25 366.584C156.25 375.937 168.675 391.751 178.125 391.751ZM142.775 363.144C145.856 362.25 149.144 362.25 152.225 363.144C152.553 361.31 153.401 359.598 154.675 358.195H140.281C141.571 359.593 142.434 361.306 142.775 363.144ZM116.875 391.751C126.325 391.751 138.75 375.937 138.75 366.584C138.75 358.908 133.938 358.195 121.25 358.195C116.609 358.195 112.158 359.962 108.876 363.109C105.594 366.255 103.75 370.523 103.75 374.973C103.75 381.222 105.456 391.751 116.875 391.751Z" fill="#8766FF"/>
<path d="M112.258 364.722C112.447 368.031 111.99 369.349 109.971 370.553C112.132 370.676 112.758 372.084 113.159 376.23C113.062 372.213 113.264 370.367 115.539 370.117C113.209 369.395 112.581 368.095 112.258 364.722Z" fill="#A298C9"/>
<path fill-rule="evenodd" clip-rule="evenodd" d="M159.126 327.028C159.259 326.948 159.391 326.867 159.521 326.786C161.5 327.017 163.699 327.251 166.141 327.5C167.444 327.385 168.774 327.349 170.116 327.37C176.522 333.988 180.131 342.149 184.121 351.5C191.3 351.5 197.121 337.127 197.121 330.5C197.121 329.369 196.951 328.275 196.634 327.237C199.193 325.131 199.896 320.851 197.641 312.699C195.641 301.5 184.448 292.199 170.641 292.199C163.261 291.245 155.127 293.248 149.021 296.575C144.955 291.337 138.028 288 128.141 288C112.44 288 101.004 298.299 99.3477 309.663C97.3269 309.541 94.9459 309.64 92.1406 310C78.6406 310 65.1406 324.059 65.1406 334C65.1406 343.941 76.4381 354 89.1406 354C106.001 352.073 109.402 344.577 110.522 329.276C111.132 329.61 111.761 329.924 112.41 330.217C117.363 333.114 125.12 335 132.641 335C143.89 334.598 155.139 331.518 159.126 327.028Z" fill="#726B8E"/>
<path d="M225 403.5L232.5 439" stroke="#A298C9" stroke-width="10" stroke-linecap="round"/>
<path d="M224.5 398C229.341 410.583 233.52 429.37 232.5 429.5" stroke="#291E53" stroke-linecap="round"/>
<path d="M197.5 426.5L216 418.5L228.5 432L220 454L213 455L197.5 450L194.5 436.5" stroke="#A298C9" stroke-width="10" stroke-linecap="round"/>
<path d="M230 398C240.932 428.901 236.5 449 230 456C223.5 463 194.5 458.5 198 449" stroke="#A298C9" stroke-width="10" stroke-linecap="round"/>
<path d="M234 434.5C234 440.023 228.023 463.5 222.5 463.5C216.977 463.5 193 452.023 193 446.5C193 440.977 205.477 446.5 211 446.5C216.523 446.5 234 428.977 234 434.5Z" fill="#A298C9"/>
<path d="M131.264 406.209L149 407C147 410.5 147 411 144.5 414.5L131.264 410.553V406.209Z" fill="#A298C9"/>
<path d="M149 407.5L145 414" stroke="#291E53" stroke-width="2" stroke-linecap="round"/>
<path d="M130.227 404.079C134.16 407.343 140.541 408.227 149 407.209" stroke="#291E53" stroke-width="3" stroke-linecap="round" stroke-linejoin="round"/>
<path d="M130.338 404.209C128.759 405.291 132.578 414.576 144.769 414.209" stroke="#291E53" stroke-width="3" stroke-linecap="round"/>
<path d="M133.418 402.168C133.597 405.566 133.001 406.929 130.451 408.201C133.156 408.29 133.914 409.726 134.343 413.98C134.293 409.853 134.578 407.952 137.43 407.655C134.526 406.954 133.763 405.629 133.418 402.168Z" fill="#A298C9"/>
<mask id="path-31-inside-2_544_344" fill="white">
<path fill-rule="evenodd" clip-rule="evenodd" d="M261.911 475.569C260.044 472.332 255.918 470.398 247 464C243.501 461.49 240.444 458.888 237.752 456.598C227.836 448.16 222.876 443.94 219 464C225.559 472.558 233.986 489.406 241.426 504.279C249.629 520.679 256.631 534.678 258.604 532.517C261.5 542.484 262.59 536.903 263 525.319V478.695C262.775 477.47 262.431 476.469 261.911 475.569Z"/>
</mask>
<path fill-rule="evenodd" clip-rule="evenodd" d="M261.911 475.569C260.044 472.332 255.918 470.398 247 464C243.501 461.49 240.444 458.888 237.752 456.598C227.836 448.16 222.876 443.94 219 464C225.559 472.558 233.986 489.406 241.426 504.279C249.629 520.679 256.631 534.678 258.604 532.517C261.5 542.484 262.59 536.903 263 525.319V478.695C262.775 477.47 262.431 476.469 261.911 475.569Z" fill="#291E53"/>
<path d="M247 464L245.834 465.625V465.625L247 464ZM261.911 475.569L260.179 476.568V476.568L261.911 475.569ZM237.752 456.598L236.456 458.121H236.456L237.752 456.598ZM219 464L217.037 463.621L216.866 464.503L217.413 465.217L219 464ZM241.426 504.279L239.637 505.174L241.426 504.279ZM258.604 532.517L260.525 531.959L259.53 528.537L257.127 531.169L258.604 532.517ZM263 525.319L264.999 525.389L265 525.354V525.319H263ZM263 478.695H265V478.513L264.967 478.335L263 478.695ZM245.834 465.625C248.085 467.24 250.031 468.571 251.708 469.707C253.395 470.851 254.776 471.774 255.943 472.601C258.301 474.274 259.479 475.355 260.179 476.568L263.644 474.569C262.476 472.545 260.658 471.041 258.257 469.338C257.044 468.478 255.604 467.516 253.952 466.396C252.288 465.269 250.375 463.96 248.166 462.375L245.834 465.625ZM236.456 458.121C239.142 460.407 242.258 463.06 245.834 465.625L248.166 462.375C244.743 459.919 241.745 457.37 239.048 455.075L236.456 458.121ZM220.964 464.38C221.924 459.412 222.919 456.138 223.954 454.1C224.989 452.062 225.844 451.666 226.377 451.595C227.089 451.499 228.223 451.815 230.081 453.043C231.877 454.23 233.944 455.984 236.456 458.121L239.048 455.075C236.602 452.993 234.33 451.056 232.286 449.706C230.304 448.396 228.097 447.328 225.845 447.63C223.414 447.957 221.682 449.74 220.388 452.289C219.093 454.838 218.015 458.559 217.037 463.621L220.964 464.38ZM243.215 503.385C235.82 488.601 227.293 471.532 220.588 462.784L217.413 465.217C223.826 473.584 232.153 490.211 239.637 505.174L243.215 503.385ZM257.127 531.169C257.311 530.967 257.628 530.772 258.026 530.742C258.364 530.717 258.565 530.826 258.566 530.826C258.573 530.83 258.499 530.79 258.341 530.645C258.19 530.507 258.001 530.308 257.773 530.037C256.834 528.919 255.592 526.994 254.087 524.365C251.099 519.145 247.327 511.606 243.215 503.385L239.637 505.174C243.728 513.353 247.559 521.012 250.616 526.352C252.133 529.002 253.524 531.197 254.71 532.609C255.277 533.285 255.95 533.971 256.707 534.368C257.103 534.576 257.665 534.781 258.326 534.731C259.048 534.676 259.651 534.337 260.081 533.866L257.127 531.169ZM261.001 525.248C260.899 528.126 260.756 530.596 260.558 532.528C260.35 534.547 260.103 535.729 259.896 536.211C259.853 536.311 259.855 536.272 259.935 536.179C260.014 536.085 260.276 535.814 260.754 535.715C261.818 535.495 262.282 536.333 262.063 536.037C261.961 535.9 261.756 535.538 261.468 534.81C261.191 534.11 260.877 533.171 260.525 531.959L256.684 533.075C257.055 534.355 257.409 535.422 257.747 536.28C258.075 537.108 258.432 537.855 258.847 538.415C259.143 538.816 260.076 539.941 261.565 539.632C262.255 539.489 262.718 539.082 262.989 538.761C263.26 538.441 263.443 538.088 263.572 537.788C264.051 536.672 264.334 534.911 264.537 532.937C264.748 530.875 264.895 528.304 264.999 525.389L261.001 525.248ZM265 525.319V478.695H261V525.319H265ZM260.179 476.568C260.561 477.23 260.84 478.005 261.033 479.056L264.967 478.335C264.711 476.935 264.3 475.708 263.644 474.569L260.179 476.568Z" fill="#8766FF" mask="url(#path-31-inside-2_544_344)"/>
<rect x="3" y="527" width="260" height="147" fill="#291E53"/>
<rect x="3" y="540" width="50" height="134" fill="#291E53"/>
<path d="M63.7021 576.241C46.5488 589.518 22.7123 594.036 1.5 600.712" stroke="#8766FF" stroke-width="3"/>
<path d="M19 674.5C55.5001 621 49 619.5 78.5 590" stroke="#8766FF" stroke-width="3"/>
<circle cx="108.302" cy="549.057" r="27.3019" fill="#291E53" stroke="#8766FF" stroke-width="2"/>
<circle cx="111.698" cy="548.302" r="27.3019" fill="#291E53" stroke="#8766FF" stroke-width="2"/>
<path d="M113.75 549.909H104.886V548.034H113.75C114.568 548.034 115.244 547.892 115.778 547.608C116.313 547.318 116.71 546.926 116.972 546.432C117.233 545.932 117.364 545.364 117.364 544.727C117.364 544.091 117.233 543.526 116.972 543.031C116.71 542.531 116.313 542.139 115.778 541.855C115.244 541.565 114.568 541.42 113.75 541.42H109.761V557H107.648V539.545H113.75C115.045 539.545 116.114 539.781 116.955 540.253C117.795 540.724 118.42 541.352 118.83 542.136C119.239 542.92 119.443 543.784 119.443 544.727C119.443 545.67 119.239 546.534 118.83 547.318C118.42 548.102 117.795 548.73 116.955 549.202C116.114 549.673 115.045 549.909 113.75 549.909ZM113.614 551.545V553.42H104.886V551.545H113.614Z" fill="#8766FF"/>
<path d="M65.8351 545C63.9664 550.197 60.6381 582.981 65.8351 584.85C71.0322 586.719 97.4785 584.032 99.3473 578.835C76.8838 574.977 75.9999 548.5 75.9999 545C78.5 529.5 67.7039 539.803 65.8351 545Z" fill="#A298C9"/>
<path d="M83 527.5C63 548 59.6217 581.821 67.1544 587.695C74.6871 593.57 88.0005 587.695 97.0005 581.5" stroke="#A298C9" stroke-width="10" stroke-linecap="round"/>
<path d="M87.5 526L75 541.5L68.1396 557L76.6396 579L83.6396 580L98 581L110 576.5" stroke="#A298C9" stroke-width="10" stroke-linecap="round"/>
<path d="M253 524.5C256.03 529.681 257.647 532.162 260.5 536.5" stroke="#8766FF" stroke-width="2" stroke-linecap="round"/>
<path d="M3.5 524.5L2 541" stroke="#8766FF" stroke-width="2" stroke-linecap="round"/>
<rect x="-1.5" y="1.5" width="260" height="673" rx="15.5" transform="matrix(-1 0 0 1 260 0)" stroke="#696187" stroke-width="3"/>
<path d="M211.481 136.751C211.484 136.805 211.484 136.86 211.48 136.915V136.915C211.464 137.117 211.377 137.308 211.234 137.453V137.453L208.874 139.784C208.796 139.868 208.702 139.936 208.597 139.983C208.492 140.03 208.378 140.055 208.263 140.057C208.148 140.058 208.034 140.037 207.927 139.993C207.821 139.95 207.724 139.885 207.643 139.803C207.562 139.722 207.499 139.624 207.457 139.517C207.414 139.41 207.394 139.296 207.398 139.181C207.401 139.066 207.427 138.952 207.475 138.848C207.524 138.743 207.592 138.65 207.678 138.573L208.551 137.694L144.693 137.305C144.467 137.304 144.251 137.213 144.092 137.052C143.933 136.891 143.844 136.674 143.846 136.448L144.235 72.5898L143.354 73.4367C143.276 73.521 143.181 73.5887 143.076 73.6356C142.971 73.6825 142.858 73.7076 142.743 73.7094C142.628 73.7113 142.513 73.6898 142.407 73.6463C142.3 73.6027 142.204 73.5381 142.123 73.4563C142.042 73.3744 141.978 73.277 141.936 73.17C141.894 73.0629 141.874 72.9484 141.877 72.8334C141.88 72.7184 141.907 72.6052 141.955 72.5007C142.003 72.3962 142.072 72.3025 142.157 72.2253L144.517 69.8942L144.564 69.8476C144.694 69.7407 144.852 69.6737 145.019 69.6549L145.183 69.6559C145.389 69.6698 145.582 69.757 145.729 69.9016V69.9016L148.06 72.2613C148.219 72.422 148.307 72.6391 148.305 72.8648C148.304 73.0905 148.213 73.3065 148.053 73.4653C147.974 73.5447 147.88 73.6076 147.776 73.6503C147.672 73.693 147.561 73.7146 147.449 73.7139C147.337 73.7132 147.226 73.6902 147.123 73.6463C147.02 73.6023 146.927 73.5383 146.849 73.4579L145.939 72.6002L145.555 135.606L208.561 135.99L207.691 135.109C207.544 134.946 207.465 134.733 207.471 134.513C207.477 134.294 207.568 134.085 207.724 133.931C207.88 133.777 208.09 133.689 208.309 133.685C208.529 133.682 208.741 133.763 208.902 133.912L211.233 136.272L211.233 136.319C211.348 136.445 211.418 136.604 211.434 136.774L211.481 136.751ZM211.758 82.3129C211.761 82.2843 211.761 82.2555 211.758 82.2269C211.727 82.1647 211.688 82.1067 211.642 82.0542L211.564 81.9833C211.516 81.9353 211.461 81.8954 211.401 81.8651L211.237 81.8171L211.198 81.8169C211.124 81.7959 211.048 81.7823 210.971 81.7764L205.202 81.7413C204.976 81.7399 204.758 81.8284 204.597 81.9872C204.437 82.146 204.346 82.3623 204.344 82.5883C204.343 82.8143 204.431 83.0316 204.59 83.1924C204.749 83.3531 204.965 83.4442 205.191 83.4456L209.311 83.4707L198.808 98.1522L187.619 90.594L187.478 90.5384C187.425 90.5114 187.371 90.4875 187.315 90.4671C187.257 90.4628 187.2 90.4625 187.143 90.466C187.091 90.4618 187.038 90.4615 186.986 90.4651C186.929 90.4786 186.874 90.4993 186.822 90.5266L186.681 90.5805C186.638 90.6153 186.598 90.6543 186.563 90.697C186.52 90.7292 186.48 90.7656 186.445 90.8058L175.05 106.709L164.025 99.2929C163.841 99.1667 163.616 99.1174 163.396 99.1555C163.177 99.1937 162.981 99.3161 162.851 99.4968L151.022 116.094C150.957 116.185 150.911 116.288 150.886 116.398C150.861 116.507 150.858 116.62 150.877 116.731C150.896 116.841 150.937 116.947 150.996 117.042C151.056 117.136 151.134 117.219 151.226 117.283C151.37 117.385 151.541 117.44 151.717 117.443C151.854 117.443 151.988 117.411 152.109 117.349C152.231 117.287 152.336 117.197 152.415 117.087L163.755 101.136L174.765 108.568L174.804 108.569C174.88 108.614 174.961 108.649 175.046 108.672L175.132 108.672L175.234 108.673C175.234 108.673 175.281 108.673 175.312 108.673C175.39 108.667 175.466 108.649 175.539 108.62L175.657 108.574C175.744 108.524 175.822 108.458 175.885 108.38C175.885 108.38 175.924 108.38 175.94 108.333L187.334 92.4609L198.359 99.9086C198.499 99.9996 198.661 100.049 198.827 100.052L198.976 100.053L199.101 100.054C199.237 100.055 199.372 100.023 199.493 99.9611C199.615 99.8993 199.72 99.8092 199.799 99.6984L210.098 85.2972L210.08 88.2212C210.078 88.4472 210.167 88.6645 210.326 88.8253C210.485 88.986 210.701 89.0771 210.927 89.0785C211.153 89.0799 211.37 88.9914 211.531 88.8326C211.692 88.6738 211.783 88.4576 211.784 88.2315L211.818 82.6182C211.819 82.5134 211.798 82.4095 211.758 82.3129V82.3129ZM153.976 125.306L165.355 109.387L176.357 116.826L176.396 116.827C176.469 116.877 176.551 116.912 176.638 116.93L176.724 116.93L176.825 116.931L176.896 116.931C176.976 116.922 177.054 116.904 177.131 116.878L177.248 116.824C177.336 116.775 177.413 116.709 177.476 116.63L177.531 116.591L188.933 100.711L199.959 108.159C200.097 108.252 200.26 108.302 200.427 108.302L200.575 108.303L200.693 108.304C200.83 108.306 200.966 108.274 201.089 108.212C201.212 108.15 201.318 108.06 201.399 107.949L211.595 93.6876C211.726 93.5039 211.78 93.2753 211.743 93.0522C211.706 92.8291 211.582 92.6298 211.399 92.498C211.215 92.3663 210.986 92.3129 210.763 92.3497C210.54 92.3864 210.341 92.5103 210.209 92.6941L200.407 106.403L189.242 98.8445C189.197 98.8188 189.15 98.7975 189.101 98.7811C189.052 98.7533 189 98.732 188.945 98.7176C188.881 98.709 188.815 98.7086 188.75 98.7164L188.617 98.7156C188.556 98.7352 188.495 98.7584 188.437 98.7848C188.392 98.7962 188.35 98.8144 188.311 98.8388C188.266 98.8705 188.224 98.9069 188.186 98.9475C188.186 98.9475 188.107 99.0174 188.075 99.0563L176.634 114.96L165.616 107.512C165.433 107.387 165.208 107.339 164.99 107.379C164.772 107.418 164.578 107.542 164.45 107.724L152.622 124.313C152.557 124.404 152.511 124.507 152.486 124.617C152.461 124.726 152.458 124.839 152.477 124.95C152.496 125.06 152.536 125.166 152.596 125.261C152.656 125.356 152.734 125.438 152.825 125.502C152.964 125.608 153.135 125.664 153.309 125.662C153.44 125.657 153.568 125.622 153.684 125.561C153.799 125.499 153.899 125.412 153.976 125.306V125.306Z" fill="#8766FF"/>
<path d="M209.33 219.844C209.539 219.844 209.74 219.761 209.888 219.613C210.036 219.465 210.119 219.264 210.119 219.055V216.426C210.118 215.74 209.846 215.083 209.361 214.598C208.876 214.113 208.219 213.84 207.533 213.839H203.29L202.322 210.983C202.257 210.789 202.118 210.628 201.935 210.534C201.753 210.44 201.541 210.421 201.345 210.481L178.367 217.466C178.176 217.536 178.02 217.675 177.93 217.856C177.839 218.038 177.822 218.247 177.881 218.44C177.94 218.634 178.071 218.797 178.247 218.897C178.423 218.997 178.631 219.026 178.828 218.977L201.073 212.213L203.194 218.474C203.261 218.672 203.404 218.835 203.592 218.928C203.78 219.021 203.997 219.035 204.195 218.968C204.393 218.901 204.557 218.757 204.649 218.57C204.742 218.382 204.756 218.165 204.689 217.967L203.826 215.417H207.535C208.09 215.417 208.542 215.868 208.542 216.424V219.055C208.54 219.49 208.894 219.844 209.33 219.844Z" fill="#8766FF"/>
<path d="M215.632 231.686C215.422 231.686 215.221 231.769 215.073 231.917C214.925 232.066 214.842 232.266 214.842 232.476C214.842 232.685 214.925 232.886 215.073 233.034C215.221 233.182 215.422 233.265 215.632 233.265C216.186 233.265 216.421 233.5 216.421 234.055V243.528C216.421 244.083 216.186 244.318 215.632 244.318H203C202.446 244.318 202.211 244.083 202.211 243.528V235.634C202.211 235.079 202.446 234.844 203 234.844H212.474C212.683 234.844 212.884 234.761 213.032 234.613C213.18 234.465 213.263 234.264 213.263 234.055V224.581C213.263 223.143 212.333 222.213 210.895 222.213H162.737C160.79 222.213 159.579 221.001 159.579 219.055C159.579 217.108 160.79 215.897 162.737 215.897H170.752L165.974 217.473C165.872 217.502 165.777 217.552 165.694 217.619C165.612 217.686 165.544 217.769 165.494 217.863C165.445 217.956 165.415 218.059 165.406 218.165C165.397 218.271 165.409 218.378 165.443 218.478C165.476 218.579 165.529 218.672 165.599 218.752C165.669 218.832 165.755 218.897 165.851 218.943C165.946 218.989 166.05 219.015 166.156 219.02C166.262 219.025 166.368 219.008 166.468 218.971L195.077 209.54C195.175 209.507 195.266 209.456 195.345 209.388C195.424 209.32 195.488 209.238 195.535 209.145C195.581 209.052 195.609 208.951 195.617 208.848C195.624 208.744 195.612 208.641 195.579 208.542C195.546 208.444 195.495 208.352 195.427 208.274C195.359 208.195 195.277 208.131 195.184 208.084C195.091 208.038 194.99 208.01 194.887 208.002C194.783 207.995 194.68 208.007 194.581 208.04L175.476 214.34C175.439 214.334 175.406 214.318 175.368 214.318H162.737C159.904 214.318 158 216.222 158 219.055V253.791C158 256.624 159.904 258.528 162.737 258.528H210.895C212.333 258.528 213.263 257.598 213.263 256.16V248.265C213.263 248.056 213.18 247.855 213.032 247.707C212.884 247.559 212.683 247.476 212.474 247.476C212.264 247.476 212.063 247.559 211.915 247.707C211.767 247.855 211.684 248.056 211.684 248.265V256.16C211.684 256.714 211.449 256.949 210.895 256.949H162.737C160.79 256.949 159.579 255.738 159.579 253.791V222.705C160.389 223.389 161.461 223.791 162.737 223.791H210.895C211.449 223.791 211.684 224.027 211.684 224.581V233.265H203C201.562 233.265 200.632 234.195 200.632 235.634V243.528C200.632 244.967 201.562 245.897 203 245.897H215.632C217.07 245.897 218 244.967 218 243.528V234.055C218 232.616 217.07 231.686 215.632 231.686Z" fill="#8766FF"/>
<path d="M208.526 241.16C209.398 241.16 210.105 240.453 210.105 239.581C210.105 238.709 209.398 238.002 208.526 238.002C207.654 238.002 206.947 238.709 206.947 239.581C206.947 240.453 207.654 241.16 208.526 241.16Z" fill="#8766FF"/>
<path d="M68.5875 164.347L68.5875 164.347C64.7295 169.701 59.4416 173.624 55.1467 176.202C52.995 177.494 51.0819 178.454 49.7048 179.092C49.0161 179.411 48.4607 179.65 48.0759 179.81C47.8834 179.89 47.7336 179.95 47.6309 179.99C47.6197 179.995 47.609 179.999 47.5989 180.003C47.1444 180.412 46.925 180.807 46.8254 181.152C46.7177 181.525 46.7348 181.892 46.8176 182.234C46.9012 182.579 47.0484 182.882 47.1797 183.103C47.2444 183.211 47.3028 183.296 47.3432 183.351C47.3633 183.379 47.3787 183.399 47.3878 183.41L47.3963 183.421L47.3966 183.421L47.3972 183.422L68.2147 208.068C68.2252 208.078 68.2505 208.099 68.2931 208.128C68.3817 208.187 68.5508 208.281 68.825 208.36C69.3667 208.517 70.355 208.623 71.9858 208.233C72.0089 208.224 72.0418 208.211 72.084 208.194C72.1787 208.157 72.3203 208.1 72.5041 208.024C72.8719 207.872 73.4086 207.641 74.0774 207.332C75.4156 206.712 77.28 205.778 79.3777 204.519C83.5816 201.998 88.6799 198.202 92.3714 193.078L92.3715 193.077C96.3616 187.541 101.935 183.921 106.475 181.69C108.75 180.572 110.778 179.797 112.24 179.3C112.971 179.052 113.561 178.873 113.971 178.755C114.169 178.699 114.325 178.656 114.434 178.627C114.866 178.229 115.077 177.845 115.175 177.508C115.282 177.135 115.265 176.766 115.182 176.424C115.099 176.079 114.952 175.776 114.821 175.555C114.756 175.446 114.698 175.361 114.657 175.306C114.637 175.278 114.622 175.259 114.613 175.247L114.606 175.238L114.605 175.238L114.605 175.237L114.604 175.236L114.604 175.236L114.603 175.235L93.7858 150.593C93.7754 150.584 93.75 150.562 93.7071 150.533C93.6184 150.474 93.4491 150.379 93.1749 150.299C92.6282 150.141 91.6268 150.033 89.9694 150.434L89.9694 150.434L89.9691 150.434L89.9683 150.434L89.9624 150.436L89.9356 150.443C89.9112 150.449 89.8738 150.458 89.8239 150.471C89.7242 150.498 89.5748 150.538 89.3806 150.594C88.9924 150.705 88.4255 150.876 87.7195 151.116C86.3068 151.595 84.3405 152.346 82.1347 153.429C77.7138 155.6 72.3796 159.083 68.5875 164.347Z" fill="#291E53" stroke="#8766FF" stroke-width="1.5"/>
<path d="M63.5256 169.98L87.5594 198.444C89.2891 196.847 90.9416 195.069 92.374 193.08L92.3741 193.08C93.9057 190.954 95.675 189.127 97.5176 187.544L73.4861 159.08C71.7177 160.599 70.0376 162.336 68.5903 164.347L68.5902 164.347C67.0734 166.453 65.3316 168.321 63.5256 169.98Z" fill="#291E53" stroke="#8766FF" stroke-width="1.5"/>
<path d="M109.268 208.037L109.472 207.845L109.73 207.602L109.687 207.567C109.688 207.567 109.688 207.567 109.688 207.566C109.756 207.482 109.796 207.436 109.827 207.401C109.859 207.365 109.882 207.339 109.917 207.292C109.95 207.243 109.976 207.2 110.013 207.139C110.032 207.108 110.053 207.073 110.079 207.03L110.084 207.023L110.089 207.015C111.357 205.063 111.619 202.357 110.843 199.393C110.069 196.438 108.276 193.298 105.553 190.575C102.831 187.854 99.6924 186.061 96.7371 185.287C93.7733 184.51 91.0661 184.773 89.1135 186.041L89.1041 186.047L89.0945 186.053C89.0615 186.073 89.0328 186.091 89.007 186.106C88.9378 186.148 88.8901 186.176 88.8381 186.213C88.7907 186.248 88.7579 186.276 88.7125 186.315C88.6765 186.346 88.6328 186.384 88.5677 186.437L88.5678 186.438L88.5607 186.443C88.4816 186.506 88.4221 186.552 88.3735 186.589C88.3369 186.616 88.3064 186.64 88.2783 186.662L88.0911 186.861C86.3563 188.701 86.3616 191.519 88.064 193.225C89.7713 194.93 92.5869 194.933 94.43 193.197L94.9599 192.698L95.4745 193.213L95.4965 193.235L96.0268 193.765L95.4965 194.296C95.4647 194.327 95.4352 194.353 95.4123 194.372C95.3915 194.389 95.3718 194.404 95.3616 194.412L95.3601 194.413C95.3583 194.415 95.3568 194.416 95.3554 194.417C93.535 196.253 93.5194 199.138 95.2532 200.878C96.9892 202.611 99.8794 202.595 101.714 200.773C101.714 200.773 101.714 200.772 101.714 200.772L101.725 200.757L101.743 200.735C101.756 200.718 101.774 200.695 101.795 200.67L102.346 200.032L102.916 200.653L102.938 200.677L103.408 201.191L102.931 201.698C101.195 203.544 101.198 206.357 102.905 208.065C104.611 209.768 107.425 209.773 109.268 208.037ZM109.731 207.601L109.798 207.538L110.283 208.023C110.312 207.988 110.342 207.953 110.372 207.919C110.425 207.856 110.479 207.794 110.526 207.729C110.578 207.656 110.622 207.581 110.668 207.506C110.684 207.479 110.701 207.451 110.718 207.423L109.731 207.601Z" fill="#291E53" stroke="#8766FF" stroke-width="1.5"/>
<path d="M51.6373 146.342C51.5519 146.412 51.4904 146.458 51.4409 146.496C51.4044 146.524 51.3744 146.547 51.3461 146.57L51.2341 146.689L51.2247 146.701L51.2154 146.709L51.1665 146.761C49.431 148.604 49.4354 151.419 51.1408 153.125C52.8463 154.83 55.6621 154.835 57.5052 153.099L58.0351 152.6L58.5497 153.115L58.5717 153.137L59.1158 153.681L58.5579 154.211C58.5082 154.258 58.4587 154.296 58.4388 154.311L58.4351 154.314C58.4319 154.317 58.4292 154.319 58.4271 154.32C56.6079 156.157 56.594 159.041 58.3284 160.778C60.0641 162.513 62.9528 162.496 64.7898 160.672C64.7905 160.671 64.7911 160.67 64.7919 160.669L64.7949 160.665C64.8012 160.657 64.8128 160.642 64.8235 160.628C64.8381 160.61 64.8579 160.586 64.8821 160.559L65.4346 159.948L65.9911 160.555L66.013 160.579L66.4839 161.093L66.0062 161.6C64.2705 163.444 64.2733 166.257 65.9805 167.965C67.6859 169.67 70.4996 169.674 72.3427 167.937L72.5488 167.743C72.5692 167.717 72.5902 167.69 72.6151 167.657C72.6518 167.609 72.6968 167.549 72.7604 167.47L72.7604 167.47L72.7671 167.461C72.8157 167.402 72.8517 167.36 72.8813 167.326C72.9253 167.275 72.9552 167.24 72.9913 167.19C73.0257 167.142 73.0493 167.103 73.0848 167.045C73.1043 167.013 73.1274 166.975 73.1579 166.927L73.1578 166.927L73.1641 166.917C74.4319 164.964 74.6937 162.257 73.9172 159.293C73.1429 156.338 71.35 153.199 68.6283 150.477L68.6282 150.477C65.9065 147.754 62.7675 145.961 59.8122 145.187C56.8485 144.41 54.1413 144.673 52.1887 145.941L52.1793 145.947L52.1697 145.953C52.1494 145.966 52.1302 145.977 52.1121 145.988C52.0326 146.036 51.9714 146.073 51.9094 146.115C51.8635 146.149 51.838 146.172 51.8024 146.203C51.7671 146.234 51.722 146.274 51.6373 146.342ZM51.6373 146.342C51.6374 146.342 51.6376 146.342 51.6377 146.342L51.6021 146.298L51.6012 146.299L51.6366 146.343C51.6368 146.343 51.637 146.342 51.6373 146.342Z" fill="#291E53" stroke="#8766FF" stroke-width="1.5"/>
<path d="M64.8218 197.288L70.2437 192.659" stroke="#8766FF" stroke-width="1.5" stroke-linecap="round" stroke-linejoin="round"/>
<path d="M68.8976 198.07L59.6381 187.226L63.3349 184.069C64.1846 183.343 65.2877 182.985 66.4016 183.073C67.5155 183.161 68.5489 183.687 69.2745 184.537C70.0001 185.387 70.3584 186.49 70.2706 187.604C70.1828 188.718 69.6561 189.751 68.8064 190.477L63.138 195.317" stroke="#8766FF" stroke-width="1.5" stroke-linecap="round" stroke-linejoin="round"/>
</svg>
