<svg width="277" height="676" viewBox="0 0 277 676" fill="none" xmlns="http://www.w3.org/2000/svg">
<path d="M15.1408 637H246.141V676H15.1408V637Z" fill="#BBABF7"/>
<path d="M262.641 649H262.141V659H262.132C262.138 659.166 262.141 659.333 262.141 659.5C261.641 668.5 255.141 676.5 245.141 675C234.641 672 230.641 669 228.641 659.5C228.641 655.449 230.171 651.761 232.808 649H29.3741C32.9156 651.836 35.1408 655.938 35.1408 660.5C35.1408 669.061 27.3058 676 17.6408 676C7.14081 673 3.14081 670.5 1.14081 661C1.14081 660.665 1.15129 660.331 1.172 660H1.14081V649H0.447693V539.474C-0.194244 534.593 -0.159582 529.281 0.640807 523.5C5.14083 491 72.6408 452.456 127.141 452.456C177.988 452.456 260.131 505.861 262.585 539H262.641V649Z" fill="#BBABF7"/>
<path d="M246 464C268.303 480 262.248 471.99 262.247 499.876C262.247 524.5 264 550.5 257.604 532.517C253.842 536.638 231.791 481.994 218 464C222.928 438.495 229.608 452.241 246 464Z" fill="#BBABF7"/>
<path d="M125.107 380.388C125.678 383.652 125.09 386.482 123.186 386.815C121.282 387.148 117.305 385.117 116.734 381.853C116.163 378.589 116.985 374.195 118.889 373.862C121.844 373.345 124.536 377.124 125.107 380.388Z" fill="#7755F1"/>
<path d="M157.734 377.036C158.305 380.3 159.819 382.762 161.723 382.429C163.627 382.096 166.678 378.835 166.107 375.571C165.535 372.307 163.27 368.453 161.366 368.786C158.411 369.303 157.163 373.772 157.734 377.036Z" fill="#7755F1"/>
<path d="M163.641 460C161.141 467 152.933 477.5 136.641 477.5C120.348 477.5 106.142 464 100.141 457C130.64 444 114.347 444 130.64 444C146.932 444 130.64 444 163.641 460Z" fill="#EEEAFC"/>
<rect x="111.141" y="416" width="39" height="45" fill="#EEEAFC"/>
<path fill-rule="evenodd" clip-rule="evenodd" d="M208.408 377.907C212.542 374.166 216.158 367.043 218.641 353.5C218.641 331 200.082 326.5 190.141 326.5C180.2 326.5 177.641 340.5 181.141 354.5C182.199 358.734 182.568 362.446 182.798 365.677C177.075 373.497 172.141 384.839 172.141 390C172.141 398.284 172.141 406.5 186.141 404C191.555 403.033 199.822 399 205.141 390C206.957 386.925 208.233 382.509 208.408 377.907ZM95.0516 362.28C95.1105 361.694 95.1406 361.1 95.1406 360.5C95.1406 350.283 86.4102 342 75.6406 342C64.8711 342 56.1406 350.283 56.1406 360.5C56.1406 367.736 60.5195 374.002 66.9005 377.042C66.7296 378.006 66.6406 378.994 66.6406 380C66.6406 390.493 79.1406 402.5 94.1406 400.5C105.462 400.5 108.141 390.493 108.141 380C108.141 371.929 102.711 365.033 95.0516 362.28Z" fill="#D6CCFB"/>
<path fill-rule="evenodd" clip-rule="evenodd" d="M145.111 436C160.641 436 183.641 413.794 183.641 379C189.141 343.5 169.621 315 138.141 315C113.278 315 98.6833 329.163 93.6455 352.257C85.994 353.844 80.1406 362.513 80.1406 371C80.1406 379.279 85.7109 386.176 93.0868 387.691C98.4611 415.27 118.359 436 145.111 436Z" fill="#EEEAFC"/>
<path d="M133.141 346.5C133.141 348.157 128.141 351.556 124.141 352C119.641 352.5 117.641 353 117.141 351C117.141 349 121.141 345.562 125.641 345C129.641 344.5 133.141 344.843 133.141 346.5Z" fill="#7755F1"/>
<path d="M170.641 350.5C170.141 351.5 166.641 352 163.641 351.5C157.141 349 158.641 346 159.141 345C160.641 344 162.141 344.5 165.641 345C169.141 346 170.641 349.5 170.641 350.5Z" fill="#7755F1"/>
<path d="M150.141 374C150.282 381.887 150.807 386.023 153.141 392.5C147.033 393.413 144.469 394.167 141.641 396" stroke="#7755F1" stroke-width="3" stroke-linecap="round" stroke-linejoin="round"/>
<ellipse cx="171.141" cy="325" rx="13" ry="10" fill="#D6CDFB"/>
<path d="M110.141 422C124.141 435 139.141 437.5 151.141 435.613" stroke="#7655F1" stroke-linecap="round"/>
<path d="M88 353L95.5 364" stroke="#BBABF7" stroke-width="4" stroke-linecap="round"/>
<path d="M152.275 368.216C152.275 371.695 163.258 392.891 176.425 392.891C187.975 392.891 191.65 380.62 191.65 377.141C191.65 373.661 188.5 354.041 169.6 355.091C152.525 356.039 152.275 364.736 152.275 368.216Z" fill="#7755F1"/>
<path d="M138.543 360.417C141.693 371.442 131.648 387.717 129.618 387.717C127.589 387.717 115.443 397.167 105.993 390.342C97.5935 373.017 106.589 360.417 108.618 360.417C111.768 360.417 120.168 353.067 138.543 360.417Z" fill="#7755F1"/>
<path d="M96.1875 366.584H103.888C104.468 366.584 105.024 366.363 105.434 365.969C105.845 365.576 106.075 365.042 106.075 364.486C106.075 363.93 105.845 363.397 105.434 363.003C105.024 362.61 104.468 362.389 103.888 362.389H96.1875C95.6073 362.389 95.0509 362.61 94.6407 363.003C94.2305 363.397 94 363.93 94 364.486C94 365.042 94.2305 365.576 94.6407 365.969C95.0509 366.363 95.6073 366.584 96.1875 366.584ZM189.113 366.584H196.812C197.393 366.584 197.949 366.363 198.359 365.969C198.77 365.576 199 365.042 199 364.486C199 363.93 198.77 363.397 198.359 363.003C197.949 362.61 197.393 362.389 196.812 362.389H189.113C188.532 362.389 187.976 362.61 187.566 363.003C187.155 363.397 186.925 363.93 186.925 364.486C186.925 365.042 187.155 365.576 187.566 365.969C187.976 366.363 188.532 366.584 189.113 366.584Z" fill="#3C3B41"/>
<path d="M96.1875 362.389H102.75C104.788 359.784 107.43 357.67 110.467 356.214C113.505 354.758 116.854 354 120.25 354H172.75C176.146 354 179.495 354.758 182.533 356.214C185.57 357.67 188.212 359.784 190.25 362.389H196.812C197.393 362.389 197.949 362.61 198.359 363.003C198.77 363.397 199 363.93 199 364.486C199 365.043 198.77 365.576 198.359 365.969C197.949 366.363 197.393 366.584 196.812 366.584H192.788C193.996 369.229 194.621 372.085 194.625 374.973C194.625 388.102 188.062 395.945 177.125 395.945C165.312 395.945 151.706 379.167 150.875 367.59C149.492 367.023 148.004 366.73 146.5 366.73C144.996 366.73 143.508 367.023 142.125 367.59C141.294 379.167 127.688 395.945 115.875 395.945C104.938 395.945 98.375 388.102 98.375 374.973C98.3786 372.085 99.0041 369.229 100.213 366.584H96.1875C95.6073 366.584 95.0509 366.363 94.6407 365.969C94.2305 365.576 94 365.043 94 364.486C94 363.93 94.2305 363.397 94.6407 363.003C95.0509 362.61 95.6073 362.389 96.1875 362.389ZM177.125 391.751C188.544 391.751 190.25 381.222 190.25 374.973C190.25 370.523 188.406 366.255 185.124 363.109C181.842 359.962 177.391 358.195 172.75 358.195C160.062 358.195 155.25 358.908 155.25 366.584C155.25 375.937 167.675 391.751 177.125 391.751ZM141.775 363.144C144.856 362.25 148.144 362.25 151.225 363.144C151.553 361.31 152.401 359.598 153.675 358.195H139.281C140.571 359.593 141.434 361.306 141.775 363.144ZM115.875 391.751C125.325 391.751 137.75 375.937 137.75 366.584C137.75 358.908 132.938 358.195 120.25 358.195C115.609 358.195 111.158 359.962 107.876 363.109C104.594 366.255 102.75 370.523 102.75 374.973C102.75 381.222 104.456 391.751 115.875 391.751Z" fill="#BBABF7"/>
<path d="M111.258 364.722C111.447 368.031 110.99 369.349 108.971 370.553C111.132 370.676 111.758 372.084 112.159 376.23C112.062 372.213 112.264 370.367 114.539 370.117C112.209 369.395 111.581 368.095 111.258 364.722Z" fill="#D6CDFB"/>
<path fill-rule="evenodd" clip-rule="evenodd" d="M158.126 327.028C158.259 326.948 158.391 326.867 158.521 326.786C160.5 327.017 162.699 327.251 165.141 327.5C166.444 327.385 167.774 327.349 169.116 327.37C175.522 333.988 179.131 342.149 183.121 351.5C190.3 351.5 196.121 337.127 196.121 330.5C196.121 329.369 195.951 328.275 195.634 327.237C198.193 325.131 198.896 320.851 196.641 312.699C194.641 301.5 183.448 292.199 169.641 292.199C162.261 291.245 154.127 293.248 148.021 296.575C143.955 291.337 137.028 288 127.141 288C111.44 288 100.004 298.299 98.3477 309.663C96.3269 309.541 93.9459 309.64 91.1406 310C77.6406 310 64.1406 324.059 64.1406 334C64.1406 343.941 75.4381 354 88.1406 354C105.001 352.073 108.402 344.577 109.522 329.276C110.132 329.61 110.761 329.924 111.41 330.217C116.363 333.114 124.12 335 131.641 335C142.89 334.598 154.139 331.518 158.126 327.028Z" fill="#D6CDFB"/>
<circle cx="107.302" cy="549.057" r="27.3019" fill="#D6CDFB" stroke="#EEEAFC" stroke-width="2"/>
<circle cx="110.698" cy="548.302" r="27.3019" fill="#D6CDFB" stroke="#EEEAFC" stroke-width="2"/>
<path d="M112.75 549.909H103.886V548.034H112.75C113.568 548.034 114.244 547.892 114.778 547.608C115.313 547.318 115.71 546.926 115.972 546.432C116.233 545.932 116.364 545.364 116.364 544.727C116.364 544.091 116.233 543.526 115.972 543.031C115.71 542.531 115.313 542.139 114.778 541.855C114.244 541.565 113.568 541.42 112.75 541.42H108.761V557H106.648V539.545H112.75C114.045 539.545 115.114 539.781 115.955 540.253C116.795 540.724 117.42 541.352 117.83 542.136C118.239 542.92 118.443 543.784 118.443 544.727C118.443 545.67 118.239 546.534 117.83 547.318C117.42 548.102 116.795 548.73 115.955 549.202C115.114 549.673 114.045 549.909 112.75 549.909ZM112.614 551.545V553.42H103.886V551.545H112.614Z" fill="#EEEAFC"/>
<path d="M224 403.5L231.5 439" stroke="#EEEAFC" stroke-width="10" stroke-linecap="round"/>
<path d="M223.5 398C228.341 410.583 232.52 429.37 231.5 429.5" stroke="#7452F1" stroke-linecap="round"/>
<path d="M196.5 426.5L215 418.5L227.5 432L219 454L212 455L196.5 450L193.5 436.5" stroke="#EEEAFC" stroke-width="10" stroke-linecap="round"/>
<path d="M229 398C239.932 428.901 235.5 449 229 456C222.5 463 193.5 458.5 197 449" stroke="#EEEAFC" stroke-width="10" stroke-linecap="round"/>
<path d="M233 434.5C233 440.023 227.023 463.5 221.5 463.5C215.977 463.5 192 452.023 192 446.5C192 440.977 204.477 446.5 210 446.5C215.523 446.5 233 428.977 233 434.5Z" fill="#EEEAFC"/>
<path d="M86.5 526L74 541.5L67.1396 557L75.6396 579L82.6396 580L97 581L109 576.5" stroke="#EEEAFC" stroke-width="10" stroke-linecap="round"/>
<path d="M82 527.5C62 548 58.6217 581.821 66.1544 587.695C73.6871 593.57 87.0005 587.695 96.0005 581.5" stroke="#EEEAFC" stroke-width="10" stroke-linecap="round"/>
<path d="M64.8351 545C62.9664 550.197 59.6381 582.981 64.8351 584.85C70.0322 586.719 96.4785 584.032 98.3473 578.835C75.8838 574.977 74.9999 548.5 74.9999 545C77.5 529.5 66.7039 539.803 64.8351 545Z" fill="#EEEAFC"/>
<path d="M62.7021 576.242C45.5488 589.518 21.7123 594.036 0.499999 600.712" stroke="#EEEAFC"/>
<path d="M18 674.5C54.5001 621 48 619.5 77.5 590" stroke="#EEEAFC"/>
<path d="M240 504C244.5 510 252.5 517.5 262.5 532" stroke="#EEEAFC" stroke-linecap="round"/>
<rect x="-0.5" y="0.5" width="262" height="675" rx="16.5" transform="matrix(-1 0 0 1 262 0)" stroke="#D2C9FB"/>
<path d="M130.264 406.209L148 407C146 410.5 146 411 143.5 414.5L130.264 410.553V406.209Z" fill="#D6CCFB"/>
<path d="M148 407.5L144 414" stroke="#7452F1" stroke-width="2" stroke-linecap="round"/>
<path d="M129.227 404.079C133.16 407.343 139.541 408.227 148 407.209" stroke="#7755F1" stroke-width="3" stroke-linecap="round" stroke-linejoin="round"/>
<path d="M129.338 404.209C127.759 405.291 131.578 414.576 143.769 414.209" stroke="#7452F1" stroke-width="3" stroke-linecap="round"/>
<path d="M132.418 402.168C132.597 405.566 132.001 406.929 129.451 408.201C132.156 408.289 132.914 409.725 133.343 413.98C133.293 409.853 133.578 407.952 136.43 407.655C133.526 406.954 132.763 405.629 132.418 402.168Z" fill="#EEEAFC"/>
<path d="M211.481 136.751C211.484 136.805 211.484 136.86 211.48 136.915V136.915C211.464 137.117 211.377 137.308 211.234 137.453V137.453L208.874 139.784C208.796 139.868 208.702 139.936 208.597 139.983C208.492 140.03 208.378 140.055 208.263 140.057C208.148 140.058 208.034 140.037 207.927 139.993C207.821 139.95 207.724 139.885 207.643 139.803C207.562 139.722 207.499 139.624 207.457 139.517C207.414 139.41 207.394 139.296 207.398 139.181C207.401 139.066 207.427 138.952 207.475 138.848C207.524 138.743 207.592 138.65 207.678 138.572L208.551 137.694L144.693 137.305C144.467 137.304 144.251 137.213 144.092 137.052C143.933 136.891 143.844 136.674 143.846 136.448L144.235 72.5898L143.354 73.4366C143.276 73.521 143.181 73.5887 143.076 73.6356C142.971 73.6825 142.858 73.7076 142.743 73.7094C142.628 73.7112 142.513 73.6897 142.407 73.6462C142.3 73.6027 142.204 73.5381 142.123 73.4562C142.042 73.3744 141.978 73.277 141.936 73.1699C141.894 73.0629 141.874 72.9484 141.877 72.8334C141.88 72.7184 141.907 72.6052 141.955 72.5007C142.003 72.3962 142.072 72.3025 142.157 72.2253L144.517 69.8942L144.564 69.8475C144.694 69.7406 144.852 69.6737 145.019 69.6549L145.183 69.6559C145.389 69.6698 145.582 69.7569 145.729 69.9016V69.9016L148.06 72.2613C148.219 72.422 148.307 72.6391 148.305 72.8648C148.304 73.0905 148.213 73.3065 148.053 73.4653C147.974 73.5447 147.88 73.6076 147.776 73.6502C147.672 73.6929 147.561 73.7146 147.449 73.7139C147.337 73.7132 147.226 73.6902 147.123 73.6463C147.02 73.6023 146.927 73.5383 146.849 73.4579L145.939 72.6002L145.555 135.606L208.561 135.99L207.691 135.109C207.544 134.946 207.465 134.733 207.471 134.513C207.477 134.294 207.568 134.085 207.724 133.931C207.88 133.777 208.09 133.689 208.309 133.685C208.529 133.682 208.741 133.763 208.902 133.912L211.233 136.272L211.233 136.319C211.348 136.445 211.418 136.604 211.434 136.774L211.481 136.751ZM211.758 82.3128C211.761 82.2843 211.761 82.2555 211.758 82.2268C211.727 82.1647 211.688 82.1066 211.642 82.0541L211.564 81.9833C211.516 81.9353 211.461 81.8953 211.401 81.865L211.237 81.8171L211.198 81.8169C211.124 81.7958 211.048 81.7823 210.971 81.7764L205.202 81.7413C204.976 81.7399 204.758 81.8283 204.597 81.9872C204.437 82.146 204.346 82.3622 204.344 82.5882C204.343 82.8142 204.431 83.0315 204.59 83.1923C204.749 83.3531 204.965 83.4442 205.191 83.4456L209.311 83.4707L198.808 98.1522L187.619 90.594L187.478 90.5384C187.425 90.5113 187.371 90.4875 187.315 90.467C187.257 90.4628 187.2 90.4624 187.143 90.466C187.091 90.4618 187.038 90.4614 186.986 90.465C186.929 90.4786 186.874 90.4993 186.822 90.5266L186.681 90.5805C186.638 90.6153 186.598 90.6543 186.563 90.697C186.52 90.7291 186.48 90.7656 186.445 90.8058L175.05 106.709L164.025 99.2928C163.841 99.1667 163.616 99.1174 163.396 99.1555C163.177 99.1936 162.981 99.3161 162.851 99.4968L151.022 116.093C150.957 116.185 150.911 116.288 150.886 116.398C150.861 116.507 150.858 116.62 150.877 116.731C150.896 116.841 150.937 116.947 150.996 117.042C151.056 117.136 151.134 117.219 151.226 117.283C151.37 117.384 151.541 117.44 151.717 117.442C151.854 117.443 151.988 117.411 152.109 117.349C152.231 117.287 152.336 117.197 152.415 117.087L163.755 101.136L174.765 108.568L174.804 108.569C174.88 108.614 174.961 108.649 175.046 108.672L175.132 108.672L175.234 108.673C175.234 108.673 175.281 108.673 175.312 108.673C175.39 108.667 175.466 108.649 175.539 108.62L175.657 108.574C175.744 108.524 175.822 108.458 175.885 108.38C175.885 108.38 175.924 108.38 175.94 108.333L187.334 92.4608L198.359 99.9086C198.499 99.9996 198.661 100.049 198.827 100.052L198.976 100.053L199.101 100.054C199.237 100.055 199.372 100.023 199.493 99.9611C199.615 99.8992 199.72 99.8092 199.799 99.6984L210.098 85.2972L210.08 88.2211C210.078 88.4471 210.167 88.6644 210.326 88.8252C210.485 88.986 210.701 89.0771 210.927 89.0785C211.153 89.0799 211.37 88.9914 211.531 88.8326C211.692 88.6737 211.783 88.4575 211.784 88.2315L211.818 82.6181C211.819 82.5133 211.798 82.4095 211.758 82.3128V82.3128ZM153.976 125.306L165.355 109.387L176.357 116.826L176.396 116.827C176.469 116.877 176.551 116.912 176.638 116.93L176.724 116.93L176.825 116.931L176.896 116.931C176.976 116.922 177.054 116.904 177.131 116.878L177.248 116.824C177.336 116.775 177.413 116.709 177.476 116.63L177.531 116.591L188.933 100.711L199.959 108.159C200.097 108.252 200.26 108.302 200.427 108.302L200.575 108.303L200.693 108.304C200.83 108.306 200.966 108.274 201.089 108.212C201.212 108.15 201.318 108.06 201.399 107.949L211.595 93.6876C211.726 93.5038 211.78 93.2753 211.743 93.0522C211.706 92.8291 211.582 92.6297 211.399 92.498C211.215 92.3662 210.986 92.3129 210.763 92.3496C210.54 92.3864 210.341 92.5103 210.209 92.694L200.407 106.402L189.242 98.8444C189.197 98.8187 189.15 98.7975 189.101 98.781C189.052 98.7533 189 98.7319 188.945 98.7175C188.881 98.709 188.815 98.7086 188.75 98.7164L188.617 98.7155C188.556 98.7352 188.495 98.7583 188.437 98.7848C188.392 98.7961 188.35 98.8143 188.311 98.8388C188.266 98.8704 188.224 98.9069 188.186 98.9475C188.186 98.9475 188.107 99.0174 188.075 99.0563L176.634 114.959L165.616 107.512C165.433 107.387 165.208 107.339 164.99 107.379C164.772 107.418 164.578 107.542 164.45 107.724L152.622 124.313C152.557 124.404 152.511 124.507 152.486 124.617C152.461 124.726 152.458 124.839 152.477 124.95C152.496 125.06 152.536 125.166 152.596 125.261C152.656 125.355 152.734 125.438 152.825 125.502C152.964 125.608 153.135 125.664 153.309 125.661C153.44 125.657 153.568 125.622 153.684 125.561C153.799 125.499 153.899 125.412 153.976 125.306V125.306Z" fill="#BBABF7"/>
<path d="M209.33 219.844C209.539 219.844 209.74 219.761 209.888 219.613C210.036 219.465 210.119 219.264 210.119 219.055V216.426C210.118 215.74 209.846 215.083 209.361 214.598C208.876 214.113 208.219 213.84 207.533 213.839H203.29L202.322 210.983C202.257 210.789 202.118 210.628 201.935 210.534C201.753 210.44 201.541 210.421 201.345 210.481L178.367 217.466C178.176 217.536 178.02 217.675 177.93 217.856C177.839 218.038 177.822 218.247 177.881 218.44C177.94 218.634 178.071 218.797 178.247 218.897C178.423 218.997 178.631 219.026 178.828 218.977L201.073 212.213L203.194 218.474C203.261 218.672 203.404 218.835 203.592 218.928C203.78 219.021 203.997 219.035 204.195 218.968C204.393 218.901 204.557 218.757 204.649 218.57C204.742 218.382 204.756 218.165 204.689 217.967L203.826 215.417H207.535C208.09 215.417 208.542 215.868 208.542 216.424V219.055C208.54 219.49 208.894 219.844 209.33 219.844Z" fill="#BBABF7"/>
<path d="M215.632 231.686C215.422 231.686 215.221 231.769 215.073 231.917C214.925 232.066 214.842 232.266 214.842 232.476C214.842 232.685 214.925 232.886 215.073 233.034C215.221 233.182 215.422 233.265 215.632 233.265C216.186 233.265 216.421 233.5 216.421 234.055V243.528C216.421 244.083 216.186 244.318 215.632 244.318H203C202.446 244.318 202.211 244.083 202.211 243.528V235.634C202.211 235.079 202.446 234.844 203 234.844H212.474C212.683 234.844 212.884 234.761 213.032 234.613C213.18 234.465 213.263 234.264 213.263 234.055V224.581C213.263 223.143 212.333 222.213 210.895 222.213H162.737C160.79 222.213 159.579 221.001 159.579 219.055C159.579 217.108 160.79 215.897 162.737 215.897H170.752L165.974 217.473C165.872 217.502 165.777 217.552 165.694 217.619C165.612 217.686 165.544 217.769 165.494 217.863C165.445 217.956 165.415 218.059 165.406 218.165C165.397 218.271 165.409 218.378 165.443 218.478C165.476 218.579 165.529 218.672 165.599 218.752C165.669 218.832 165.755 218.897 165.851 218.943C165.946 218.989 166.05 219.015 166.156 219.02C166.262 219.025 166.368 219.008 166.468 218.971L195.077 209.54C195.175 209.507 195.266 209.456 195.345 209.388C195.424 209.32 195.488 209.238 195.535 209.145C195.581 209.052 195.609 208.951 195.617 208.848C195.624 208.744 195.612 208.641 195.579 208.542C195.546 208.444 195.495 208.352 195.427 208.274C195.359 208.195 195.277 208.131 195.184 208.084C195.091 208.038 194.99 208.01 194.887 208.002C194.783 207.995 194.68 208.007 194.581 208.04L175.476 214.34C175.439 214.334 175.406 214.318 175.368 214.318H162.737C159.904 214.318 158 216.222 158 219.055V253.791C158 256.624 159.904 258.528 162.737 258.528H210.895C212.333 258.528 213.263 257.598 213.263 256.16V248.265C213.263 248.056 213.18 247.855 213.032 247.707C212.884 247.559 212.683 247.476 212.474 247.476C212.264 247.476 212.063 247.559 211.915 247.707C211.767 247.855 211.684 248.056 211.684 248.265V256.16C211.684 256.714 211.449 256.949 210.895 256.949H162.737C160.79 256.949 159.579 255.738 159.579 253.791V222.705C160.389 223.389 161.461 223.791 162.737 223.791H210.895C211.449 223.791 211.684 224.027 211.684 224.581V233.265H203C201.562 233.265 200.632 234.195 200.632 235.634V243.528C200.632 244.967 201.562 245.897 203 245.897H215.632C217.07 245.897 218 244.967 218 243.528V234.055C218 232.616 217.07 231.686 215.632 231.686Z" fill="#BBABF7"/>
<path d="M208.526 241.16C209.398 241.16 210.105 240.453 210.105 239.581C210.105 238.709 209.398 238.002 208.526 238.002C207.654 238.002 206.947 238.709 206.947 239.581C206.947 240.453 207.654 241.16 208.526 241.16Z" fill="#BBABF7"/>
<path d="M68.5875 164.347L68.5875 164.347C64.7295 169.701 59.4416 173.624 55.1467 176.202C52.995 177.494 51.0819 178.454 49.7048 179.092C49.0161 179.411 48.4607 179.65 48.0759 179.81C47.8834 179.89 47.7336 179.95 47.6309 179.99C47.6197 179.995 47.609 179.999 47.5989 180.003C47.1444 180.412 46.925 180.807 46.8254 181.152C46.7177 181.525 46.7348 181.893 46.8176 182.234C46.9012 182.579 47.0484 182.882 47.1797 183.103C47.2444 183.211 47.3028 183.296 47.3432 183.351C47.3633 183.379 47.3787 183.399 47.3878 183.41L47.3963 183.421L47.3966 183.421L47.3972 183.422L68.2147 208.068C68.2252 208.078 68.2505 208.099 68.2931 208.128C68.3817 208.187 68.5508 208.281 68.825 208.361C69.3667 208.517 70.355 208.623 71.9858 208.233C72.0089 208.224 72.0418 208.211 72.084 208.194C72.1787 208.157 72.3203 208.1 72.5041 208.024C72.8719 207.872 73.4086 207.641 74.0774 207.332C75.4156 206.712 77.28 205.778 79.3777 204.52C83.5816 201.998 88.6799 198.202 92.3714 193.078L92.3715 193.077C96.3616 187.541 101.935 183.921 106.475 181.69C108.75 180.572 110.778 179.797 112.24 179.3C112.971 179.052 113.561 178.873 113.971 178.756C114.169 178.699 114.325 178.656 114.434 178.627C114.866 178.229 115.077 177.845 115.175 177.508C115.282 177.135 115.265 176.766 115.182 176.424C115.099 176.079 114.952 175.776 114.821 175.555C114.756 175.446 114.698 175.361 114.657 175.306C114.637 175.278 114.622 175.259 114.613 175.247L114.606 175.238L114.605 175.238L114.605 175.237L114.604 175.236L114.604 175.236L114.603 175.235L93.7858 150.593C93.7754 150.584 93.75 150.562 93.7071 150.533C93.6184 150.474 93.4491 150.379 93.1749 150.3C92.6282 150.141 91.6268 150.033 89.9694 150.434L89.9694 150.434L89.9691 150.434L89.9683 150.434L89.9624 150.436L89.9356 150.443C89.9112 150.449 89.8738 150.458 89.8239 150.472C89.7242 150.498 89.5748 150.538 89.3806 150.594C88.9924 150.705 88.4255 150.876 87.7195 151.116C86.3068 151.595 84.3405 152.346 82.1347 153.429C77.7138 155.601 72.3796 159.083 68.5875 164.347Z" fill="#7452F1" stroke="#BBABF7" stroke-width="1.5"/>
<path d="M63.5256 169.98L87.5594 198.444C89.2891 196.847 90.9416 195.069 92.374 193.08L92.3741 193.08C93.9057 190.954 95.675 189.127 97.5176 187.544L73.4861 159.08C71.7177 160.599 70.0376 162.336 68.5903 164.347L68.5902 164.347C67.0734 166.453 65.3316 168.321 63.5256 169.98Z" fill="#7452F1" stroke="#BBABF7" stroke-width="1.5"/>
<path d="M109.268 208.037L109.472 207.845L109.73 207.602L109.687 207.567C109.688 207.567 109.688 207.567 109.688 207.566C109.756 207.482 109.796 207.437 109.827 207.401C109.859 207.365 109.882 207.339 109.917 207.292C109.95 207.243 109.976 207.2 110.013 207.139C110.032 207.108 110.053 207.073 110.079 207.03L110.084 207.023L110.089 207.015C111.357 205.063 111.619 202.357 110.843 199.393C110.069 196.438 108.276 193.298 105.553 190.575C102.831 187.854 99.6924 186.061 96.7371 185.287C93.7733 184.51 91.0661 184.773 89.1135 186.041L89.1041 186.048L89.0945 186.053C89.0615 186.073 89.0328 186.091 89.007 186.106C88.9378 186.148 88.8901 186.176 88.8381 186.213C88.7907 186.248 88.7579 186.276 88.7125 186.315C88.6765 186.346 88.6328 186.384 88.5677 186.438L88.5678 186.438L88.5607 186.443C88.4816 186.506 88.4221 186.552 88.3735 186.589C88.3369 186.616 88.3064 186.64 88.2783 186.662L88.0911 186.861C86.3563 188.702 86.3616 191.52 88.064 193.226C89.7713 194.93 92.5869 194.933 94.43 193.197L94.9599 192.699L95.4745 193.213L95.4965 193.235L96.0268 193.765L95.4965 194.296C95.4647 194.328 95.4352 194.353 95.4123 194.372C95.3915 194.389 95.3718 194.404 95.3616 194.412L95.3601 194.413C95.3583 194.415 95.3568 194.416 95.3554 194.417C93.535 196.253 93.5194 199.138 95.2532 200.878C96.9892 202.612 99.8794 202.596 101.714 200.773C101.714 200.773 101.714 200.773 101.714 200.772L101.725 200.757L101.743 200.735C101.756 200.718 101.774 200.695 101.795 200.67L102.346 200.032L102.916 200.654L102.938 200.677L103.408 201.191L102.931 201.698C101.195 203.544 101.198 206.357 102.905 208.065C104.611 209.768 107.425 209.773 109.268 208.037ZM109.731 207.601L109.798 207.538L110.283 208.024C110.312 207.988 110.342 207.953 110.372 207.919C110.425 207.856 110.479 207.794 110.526 207.729C110.578 207.656 110.622 207.581 110.668 207.506C110.684 207.479 110.701 207.451 110.718 207.424L109.731 207.601Z" fill="#7452F1" stroke="#BBABF7" stroke-width="1.5"/>
<path d="M51.6373 146.342C51.5519 146.412 51.4904 146.458 51.4409 146.496C51.4044 146.524 51.3744 146.547 51.3461 146.57L51.2341 146.689L51.2247 146.701L51.2154 146.709L51.1665 146.761C49.431 148.604 49.4354 151.42 51.1408 153.125C52.8463 154.83 55.6621 154.835 57.5052 153.099L58.0351 152.6L58.5497 153.115L58.5717 153.137L59.1158 153.681L58.5579 154.211C58.5082 154.258 58.4587 154.296 58.4388 154.311L58.4351 154.314C58.4319 154.317 58.4292 154.319 58.4271 154.32C56.6079 156.157 56.594 159.041 58.3284 160.778C60.0641 162.513 62.9528 162.496 64.7898 160.672C64.7905 160.671 64.7911 160.67 64.7919 160.669L64.7949 160.665C64.8012 160.657 64.8128 160.642 64.8235 160.628C64.8381 160.61 64.8579 160.586 64.8821 160.559L65.4346 159.948L65.9911 160.555L66.013 160.579L66.4839 161.093L66.0062 161.6C64.2705 163.444 64.2733 166.257 65.9805 167.965C67.6859 169.67 70.4996 169.674 72.3427 167.937L72.5488 167.743C72.5692 167.717 72.5902 167.69 72.6151 167.657C72.6518 167.609 72.6968 167.549 72.7604 167.47L72.7604 167.47L72.7671 167.461C72.8157 167.402 72.8517 167.361 72.8813 167.326C72.9253 167.275 72.9552 167.24 72.9913 167.19C73.0257 167.142 73.0493 167.104 73.0848 167.045C73.1043 167.013 73.1274 166.975 73.1579 166.927L73.1578 166.927L73.1641 166.917C74.4319 164.964 74.6937 162.257 73.9172 159.293C73.1429 156.338 71.35 153.199 68.6283 150.477L68.6282 150.477C65.9065 147.754 62.7675 145.961 59.8122 145.187C56.8485 144.41 54.1413 144.673 52.1887 145.941L52.1793 145.947L52.1697 145.953C52.1494 145.966 52.1302 145.977 52.1121 145.988C52.0326 146.036 51.9714 146.073 51.9094 146.115C51.8635 146.149 51.838 146.172 51.8024 146.203C51.7671 146.234 51.722 146.274 51.6373 146.342ZM51.6373 146.342C51.6374 146.342 51.6376 146.342 51.6377 146.342L51.6021 146.298L51.6012 146.299L51.6366 146.343C51.6368 146.343 51.637 146.343 51.6373 146.342Z" fill="#7452F1" stroke="#BBABF7" stroke-width="1.5"/>
<path d="M64.8218 197.289L70.2437 192.659" stroke="#BBABF7" stroke-width="1.5" stroke-linecap="round" stroke-linejoin="round"/>
<path d="M68.8976 198.07L59.6381 187.226L63.3349 184.069C64.1846 183.344 65.2877 182.985 66.4016 183.073C67.5155 183.161 68.5489 183.687 69.2745 184.537C70.0001 185.387 70.3584 186.49 70.2706 187.604C70.1828 188.718 69.6561 189.751 68.8064 190.477L63.138 195.317" stroke="#BBABF7" stroke-width="1.5" stroke-linecap="round" stroke-linejoin="round"/>
</svg>
