<svg width="304" height="590" viewBox="0 0 304 590" fill="none" xmlns="http://www.w3.org/2000/svg">
<path d="M299.557 589.5C243.057 589.5 238.057 589.5 155.057 589.5C83.5568 589.5 59.0568 589.5 1.55679 589.5C1.55679 540.347 -26.4432 374.5 155.057 365C339.057 392 299.557 540.5 299.557 589.5Z" fill="#BBABF7"/>
<path d="M39.1408 550H270.141V589H39.1408V550Z" fill="#BBABF7"/>
<path d="M286.641 562H286.141V572H286.132C286.138 572.166 286.141 572.333 286.141 572.5C285.641 581.5 279.141 589.5 269.141 588C258.641 585 254.641 582 252.641 572.5C252.641 568.449 254.171 564.761 256.808 562H53.3741C56.9156 564.836 59.1408 568.938 59.1408 573.5C59.1408 582.061 51.3058 589 41.6408 589C31.1408 586 27.1408 583.5 25.1408 574C25.1408 573.665 25.1513 573.331 25.172 573H25.1408V562H24.4477V452.474C23.8058 447.593 23.8404 442.281 24.6408 436.5C29.1408 404 96.6408 365.456 151.141 365.456C201.988 365.456 284.131 418.861 286.585 452H286.641V562Z" fill="#BBABF7"/>
<rect x="135.141" y="329" width="39" height="45" fill="#EEEAFC"/>
<path fill-rule="evenodd" clip-rule="evenodd" d="M223.158 262.043C225.559 257.012 226.194 249.048 223.34 235.579C214.784 214.769 195.908 217.665 186.714 221.446C177.52 225.226 180.477 239.148 189.038 250.765C191.628 254.278 193.38 257.571 194.822 260.471C192.502 269.88 192.252 282.247 194.215 287.02C197.365 294.682 200.49 302.28 212.487 294.644C217.127 291.691 223.239 284.817 224.735 274.47C225.246 270.936 224.747 266.366 223.158 262.043ZM112.376 290.699C112.208 290.135 112.01 289.574 111.781 289.019C107.896 279.569 96.6716 275.229 86.7112 279.325C76.7508 283.42 71.8262 294.401 75.7117 303.851C78.4635 310.543 84.8962 314.673 91.954 315.058C92.1625 316.014 92.4559 316.962 92.8385 317.892C96.8291 327.597 112.956 333.948 126.068 326.394C136.54 322.088 135.211 311.815 131.22 302.11C128.151 294.645 120.507 290.333 112.376 290.699Z" fill="#D6CCFB"/>
<path fill-rule="evenodd" clip-rule="evenodd" d="M186.71 339.843C201.073 333.937 213.9 304.653 200.668 272.473C192.254 237.549 163.363 218.613 134.248 230.585C111.254 240.04 103.141 258.689 107.264 281.964C100.791 286.342 98.6744 296.585 101.902 304.435C105.05 312.092 112.825 316.352 120.223 314.948C135.682 338.411 161.968 350.016 186.71 339.843Z" fill="#EEEAFC"/>
<path fill-rule="evenodd" clip-rule="evenodd" d="M157.305 234.109C157.398 233.984 157.49 233.86 157.579 233.735C159.497 233.196 161.619 232.576 163.973 231.878C165.135 231.276 166.351 230.737 167.6 230.246C176.042 233.931 182.483 240.106 189.729 247.237C196.369 244.507 196.286 229.001 193.766 222.871C193.336 221.825 192.763 220.877 192.075 220.039C193.64 217.117 192.663 212.892 187.477 206.21C181.369 196.613 167.48 192.268 154.71 197.518C147.522 199.442 140.761 204.388 136.379 209.786C130.626 206.489 122.95 206.037 113.806 209.797C99.2847 215.768 92.6246 229.642 95.4148 240.782C93.4993 241.437 91.3351 242.435 88.8774 243.834C76.3917 248.968 69.2525 267.105 73.033 276.299C76.8136 285.493 91.0875 290.5 102.836 285.669C117.696 277.476 117.991 269.249 113.209 254.672C113.899 254.749 114.601 254.8 115.312 254.825C120.995 255.62 128.886 254.414 135.842 251.554C146.093 246.905 155.326 239.778 157.305 234.109Z" fill="#D6CDFB"/>
<path d="M147.138 286.915C148.398 289.98 148.433 292.87 146.645 293.605C144.857 294.34 140.537 293.212 139.277 290.148C138.016 287.083 137.874 282.615 139.661 281.88C142.436 280.739 145.878 283.85 147.138 286.915Z" fill="#7755F1"/>
<path d="M147.138 286.915C148.398 289.98 148.433 292.87 146.645 293.605C144.857 294.34 140.537 293.212 139.277 290.148C138.016 287.083 137.874 282.615 139.661 281.88C142.436 280.739 145.878 283.85 147.138 286.915Z" fill="#7755F1"/>
<path d="M178.774 274.448C180.034 277.512 182.042 279.591 183.83 278.856C185.618 278.121 187.895 274.28 186.635 271.215C185.375 268.15 182.333 264.875 180.546 265.61C177.771 266.751 177.513 271.383 178.774 274.448Z" fill="#7755F1"/>
<path d="M141.603 261.62C142.233 263.152 138.901 268.197 135.37 270.129C131.399 272.303 129.739 273.526 128.516 271.866C127.755 270.017 130.148 265.316 134.096 263.085C137.605 261.101 140.972 260.087 141.603 261.62Z" fill="#7755F1"/>
<path d="M177.806 251.058C177.724 252.173 174.677 253.967 171.713 254.645C164.75 254.805 164.997 251.46 165.079 250.345C166.086 248.85 167.663 248.742 171.09 247.873C174.708 247.467 177.426 250.133 177.806 251.058Z" fill="#7755F1"/>
<path d="M167.783 280.589C170.914 287.829 172.972 291.454 177.593 296.558C172.291 299.725 170.207 301.397 168.288 304.168" stroke="#7755F1" stroke-width="3" stroke-linecap="round" stroke-linejoin="round"/>
<path d="M160.125 314.553C163.944 317.178 166.995 317.148 173.777 314.886" stroke="#7755F1" stroke-width="3" stroke-linecap="round" stroke-linejoin="round"/>
<path d="M161.936 280.831C167.516 294.401 161.836 309.524 149.355 314.657C136.873 319.789 122.197 313.035 116.618 299.465C111.038 285.895 116.718 270.771 129.199 265.639C141.68 260.507 156.356 267.26 161.936 280.831Z" fill="#BBABF7" fill-opacity="0.1" stroke="#7D5EF1"/>
<path d="M215.198 257.849C220.778 271.419 215.098 286.543 202.616 291.675C190.135 296.807 175.459 290.053 169.879 276.483C164.299 262.913 169.979 247.789 182.461 242.657C194.942 237.525 209.618 244.279 215.198 257.849Z" fill="#BBABF7" fill-opacity="0.1" stroke="#7D5EF1"/>
<path d="M164.244 289.072C167.888 283.899 170.272 283.316 174.88 284.699M104.223 285.099L114.392 290.108" stroke="#7755F1" stroke-linecap="round" stroke-linejoin="round"/>
<ellipse cx="168.571" cy="227.284" rx="13" ry="10" transform="rotate(-22.3519 168.571 227.284)" fill="#D6CDFB"/>
<path d="M132.141 329.5C146.525 341.602 163.496 344.678 175.141 343.613" stroke="#7655F1" stroke-linecap="round"/>
<rect x="137" y="450" width="119" height="19" fill="#EEEAFC"/>
<rect x="142" y="524" width="119" height="19" fill="#EEEAFC"/>
<rect x="149" y="487" width="119" height="19" fill="#EEEAFC"/>
<path d="M279.996 496.437C279.854 491.254 277.804 486.305 274.239 482.54C270.674 478.775 265.845 476.458 260.678 476.033C261.326 475.522 261.939 474.969 262.514 474.378C264.451 472.418 265.978 470.091 267.004 467.533C268.03 464.975 268.534 462.237 268.488 459.482C268.333 454 266.048 448.795 262.117 444.97C258.187 441.146 252.921 439.005 247.437 439H136.985C135.703 439 134.472 439.51 133.566 440.416C132.659 441.323 132.149 442.553 132.149 443.836V446.422C132.149 447.677 132.55 448.899 133.295 449.909C134.039 450.919 135.088 451.664 136.287 452.034V467.99C135.086 468.365 134.036 469.115 133.292 470.129C132.548 471.144 132.147 472.369 132.149 473.628V476.214C132.142 476.853 132.262 477.488 132.502 478.08C132.742 478.673 133.097 479.212 133.547 479.667C133.997 480.121 134.532 480.482 135.122 480.728C135.713 480.975 136.346 481.101 136.985 481.101H143.657V483.507C143.661 484.76 144.064 485.98 144.808 486.99C145.552 487.999 146.598 488.744 147.795 489.118V504.971C146.598 505.353 145.553 506.105 144.81 507.118C144.067 508.13 143.663 509.352 143.657 510.609V513.195C143.63 513.522 143.63 513.85 143.657 514.177C139.722 515.649 136.318 518.266 133.884 521.691C131.45 525.116 130.098 529.192 130.003 533.392C129.958 536.126 130.462 538.841 131.483 541.377C132.505 543.913 134.024 546.219 135.951 548.159C138.022 550.282 140.495 551.972 143.225 553.131C145.955 554.29 148.889 554.894 151.855 554.908H261.505C262.79 554.901 264.02 554.386 264.926 553.475C265.832 552.564 266.341 551.331 266.341 550.046V547.46C266.338 546.207 265.935 544.987 265.191 543.977C264.446 542.968 263.4 542.223 262.203 541.849V525.996C263.4 525.614 264.445 524.862 265.188 523.849C265.932 522.837 266.335 521.614 266.341 520.358V517.772C266.334 517.361 266.273 516.952 266.16 516.557C269.122 515.404 271.809 513.642 274.048 511.385C275.987 509.416 277.512 507.08 278.534 504.513C279.556 501.945 280.053 499.199 279.996 496.437V496.437ZM142.933 452.474H247.075C248.169 452.331 249.281 452.424 250.336 452.746C251.391 453.067 252.366 453.61 253.195 454.339C254.023 455.067 254.687 455.963 255.142 456.968C255.597 457.973 255.832 459.064 255.832 460.167C255.832 461.27 255.597 462.361 255.142 463.366C254.687 464.371 254.023 465.268 253.195 465.996C252.366 466.724 251.391 467.267 250.336 467.588C249.281 467.91 248.169 468.003 247.075 467.861H141.459V452.474H142.933ZM137.321 473.654C137.321 473.461 137.398 473.277 137.533 473.142C137.669 473.006 137.853 472.929 138.045 472.929H247.075C248.873 473.11 250.688 472.912 252.405 472.347C254.122 471.783 255.701 470.865 257.041 469.653C258.381 468.44 259.452 466.961 260.185 465.309C260.918 463.658 261.297 461.871 261.297 460.064C261.297 458.257 260.918 456.47 260.185 454.818C259.452 453.167 258.381 451.687 257.041 450.475C255.701 449.263 254.122 448.345 252.405 447.78C250.688 447.216 248.873 447.017 247.075 447.198H138.045C137.855 447.191 137.675 447.113 137.541 446.979C137.406 446.844 137.328 446.664 137.321 446.474V444.172H247.437C249.523 444.162 251.591 444.568 253.518 445.368C255.445 446.167 257.194 447.343 258.66 448.827C261.537 451.703 263.203 455.571 263.315 459.637C263.351 461.698 262.971 463.745 262.198 465.655C261.425 467.566 260.274 469.301 258.816 470.757C257.228 472.382 255.334 473.676 253.244 474.564C251.153 475.451 248.907 475.916 246.635 475.929H137.321V473.654ZM154.57 489.325H258.583C259.683 489.168 260.804 489.25 261.87 489.564C262.936 489.878 263.922 490.418 264.762 491.146C265.601 491.874 266.274 492.774 266.735 493.785C267.197 494.796 267.436 495.895 267.436 497.006C267.436 498.117 267.197 499.216 266.735 500.227C266.274 501.238 265.601 502.138 264.762 502.866C263.922 503.594 262.936 504.134 261.87 504.448C260.804 504.762 259.683 504.843 258.583 504.687H152.967V489.325H154.57ZM256.307 541.642H151.415C150.321 541.784 149.21 541.691 148.154 541.369C147.099 541.048 146.124 540.505 145.296 539.777C144.467 539.049 143.803 538.152 143.348 537.147C142.893 536.142 142.658 535.051 142.658 533.948C142.658 532.845 142.893 531.754 143.348 530.749C143.803 529.744 144.467 528.848 145.296 528.12C146.124 527.391 147.099 526.848 148.154 526.527C149.21 526.205 150.321 526.112 151.415 526.254H257.031V541.642H256.307ZM261.169 518.057V520.358C261.169 520.55 261.093 520.734 260.957 520.87C260.821 521.006 260.637 521.082 260.445 521.082H151.415C149.618 520.902 147.802 521.1 146.085 521.665C144.369 522.229 142.789 523.147 141.449 524.359C140.109 525.571 139.038 527.051 138.305 528.703C137.572 530.354 137.194 532.141 137.194 533.948C137.194 535.755 137.572 537.542 138.305 539.194C139.038 540.845 140.109 542.325 141.449 543.537C142.789 544.749 144.369 545.667 146.085 546.232C147.802 546.796 149.618 546.994 151.415 546.814H260.445C260.635 546.82 260.815 546.899 260.95 547.033C261.084 547.168 261.162 547.348 261.169 547.538V549.84H151.855C149.584 549.826 147.337 549.362 145.247 548.474C143.156 547.586 141.262 546.292 139.675 544.667C138.221 543.202 137.074 541.462 136.302 539.548C135.529 537.634 135.146 535.585 135.175 533.521C135.276 529.375 136.993 525.433 139.959 522.534C142.925 519.636 146.906 518.01 151.053 518.005H261.169V518.057ZM258.143 512.884H148.829V510.609C148.829 510.414 148.905 510.227 149.04 510.087C149.175 509.947 149.359 509.865 149.553 509.859H258.583C260.389 510.058 262.217 509.873 263.948 509.318C265.678 508.763 267.272 507.849 268.626 506.636C269.979 505.423 271.062 503.939 271.803 502.28C272.544 500.62 272.928 498.823 272.928 497.006C272.928 495.189 272.544 493.392 271.803 491.732C271.062 490.073 269.979 488.588 268.626 487.376C267.272 486.163 265.678 485.249 263.948 484.694C262.217 484.139 260.389 483.954 258.583 484.153H149.553C149.364 484.147 149.183 484.068 149.049 483.934C148.914 483.799 148.836 483.619 148.829 483.429V481.127H258.945C263.092 481.133 267.073 482.758 270.039 485.657C273.006 488.555 274.722 492.498 274.823 496.644C274.859 498.705 274.479 500.752 273.706 502.662C272.933 504.573 271.782 506.308 270.324 507.764C268.732 509.38 266.836 510.664 264.746 511.543C262.655 512.422 260.411 512.878 258.143 512.884V512.884Z" fill="#D6CDFB"/>
<mask id="path-23-inside-1_518_1495" fill="white">
<path fill-rule="evenodd" clip-rule="evenodd" d="M128.317 551.237C135.505 542.175 158.279 525.428 161.092 525.249C164.169 525.052 167.33 526.561 165.984 531.778C166.062 533.013 163.681 535.937 160.436 539.92C158.481 542.32 156.213 545.105 153.981 548.137C154.671 548.398 155.346 548.686 155.999 549C167.799 555.778 184.531 555.12 198.383 554.575C212.119 554.034 223.023 553.605 223.472 560.651C224.428 575.659 174 583 153 583C129.309 583 125.456 576.508 124.5 561.5C124.22 557.111 125.729 553.707 128.317 551.237Z"/>
</mask>
<path fill-rule="evenodd" clip-rule="evenodd" d="M128.317 551.237C135.505 542.175 158.279 525.428 161.092 525.249C164.169 525.052 167.33 526.561 165.984 531.778C166.062 533.013 163.681 535.937 160.436 539.92C158.481 542.32 156.213 545.105 153.981 548.137C154.671 548.398 155.346 548.686 155.999 549C167.799 555.778 184.531 555.12 198.383 554.575C212.119 554.034 223.023 553.605 223.472 560.651C224.428 575.659 174 583 153 583C129.309 583 125.456 576.508 124.5 561.5C124.22 557.111 125.729 553.707 128.317 551.237Z" fill="#EEEAFC"/>
<path d="M128.317 551.237L129.007 551.96L129.057 551.913L129.1 551.858L128.317 551.237ZM161.092 525.249L161.028 524.251L161.092 525.249ZM165.984 531.778L165.015 531.528L164.976 531.683L164.986 531.842L165.984 531.778ZM160.436 539.92L161.211 540.551L160.436 539.92ZM153.981 548.137L153.175 547.544L152.394 548.605L153.626 549.072L153.981 548.137ZM156 549L156.498 548.133L156.466 548.114L156.432 548.098L156 549ZM198.383 554.575L198.343 553.575L198.383 554.575ZM223.472 560.651L224.47 560.588L223.472 560.651ZM124.5 561.5L125.498 561.436L124.5 561.5ZM129.1 551.858C132.611 547.433 140.013 541.045 146.955 535.704C150.413 533.044 153.727 530.666 156.344 528.946C157.654 528.085 158.777 527.398 159.649 526.923C160.085 526.686 160.445 526.51 160.724 526.393C160.863 526.335 160.973 526.296 161.054 526.272C161.142 526.246 161.17 526.246 161.155 526.247L161.028 524.251C160.677 524.273 160.294 524.406 159.954 524.547C159.588 524.7 159.162 524.911 158.693 525.167C157.753 525.678 156.578 526.399 155.246 527.275C152.577 529.029 149.221 531.437 145.735 534.119C138.79 539.463 131.211 545.979 127.533 550.615L129.1 551.858ZM161.155 526.247C162.554 526.157 163.771 526.474 164.49 527.191C165.155 527.855 165.637 529.117 165.015 531.528L166.952 532.028C167.676 529.222 167.251 527.122 165.903 525.776C164.609 524.484 162.707 524.144 161.028 524.251L161.155 526.247ZM164.986 531.842C164.985 531.832 164.989 531.885 164.946 532.023C164.905 532.155 164.832 532.33 164.718 532.553C164.487 532.999 164.128 533.559 163.643 534.236C162.674 535.588 161.291 537.287 159.661 539.288L161.211 540.551C162.826 538.569 164.256 536.815 165.269 535.401C165.775 534.694 166.2 534.043 166.495 533.469C166.771 532.935 167.02 532.312 166.982 531.715L164.986 531.842ZM159.661 539.288C157.707 541.687 155.424 544.49 153.175 547.544L154.786 548.729C157.001 545.72 159.255 542.954 161.211 540.551L159.661 539.288ZM153.626 549.072C154.291 549.324 154.94 549.6 155.567 549.902L156.432 548.098C155.752 547.772 155.051 547.473 154.335 547.201L153.626 549.072ZM155.501 549.867C161.582 553.36 168.881 554.91 176.339 555.53C183.799 556.15 191.506 555.846 198.422 555.574L198.343 553.575C191.407 553.848 183.823 554.146 176.504 553.537C169.183 552.928 162.216 551.418 156.498 548.133L155.501 549.867ZM198.422 555.574C205.331 555.302 211.375 555.069 215.755 555.756C217.942 556.099 219.594 556.656 220.707 557.463C221.77 558.233 222.381 559.257 222.474 560.715L224.47 560.588C224.338 558.523 223.418 556.957 221.881 555.843C220.394 554.766 218.378 554.143 216.065 553.78C211.447 553.055 205.171 553.307 198.343 553.575L198.422 555.574ZM222.474 560.715C222.673 563.838 220.203 566.83 215.323 569.605C210.52 572.337 203.754 574.635 196.231 576.482C181.197 580.174 163.42 582 153 582V584C163.579 584 181.516 582.155 196.708 578.425C204.297 576.561 211.272 574.21 216.312 571.344C221.274 568.522 224.749 564.969 224.47 560.588L222.474 560.715ZM153 582C141.172 582 134.624 580.362 130.879 577.122C127.173 573.916 125.976 568.932 125.498 561.436L123.502 561.564C123.981 569.077 125.188 574.842 129.57 578.634C133.913 582.392 141.136 584 153 584V582ZM125.498 561.436C125.237 557.341 126.634 554.225 129.007 551.96L127.626 550.514C124.824 553.188 123.204 556.881 123.502 561.564L125.498 561.436Z" fill="#BBABF7" mask="url(#path-23-inside-1_518_1495)"/>
<path d="M127 559C80.9363 533.634 72.2683 527.111 42 524" stroke="#EEEAFC"/>
<path d="M101.849 159.615H127.151C128.436 159.611 129.667 159.099 130.576 158.19C131.484 157.282 131.996 156.05 132 154.766V137.849C132 136.563 131.489 135.33 130.58 134.42C129.67 133.511 128.437 133 127.151 133H101.849C100.563 133 99.3296 133.511 98.4202 134.42C97.5109 135.33 97 136.563 97 137.849V154.766C97 156.052 97.5109 157.285 98.4202 158.194C99.3296 159.104 100.563 159.615 101.849 159.615ZM113.851 157.427C114.115 155.933 114.897 154.581 116.059 153.606C117.221 152.631 118.689 152.097 120.206 152.097C121.722 152.097 123.191 152.631 124.353 153.606C125.515 154.581 126.297 155.933 126.56 157.427H113.851ZM99.1875 137.849C99.1894 137.144 99.4704 136.468 99.9691 135.969C100.468 135.47 101.144 135.189 101.849 135.187H127.151C127.856 135.189 128.532 135.47 129.031 135.969C129.53 136.468 129.811 137.144 129.813 137.849V154.766C129.816 155.193 129.716 155.615 129.522 155.996C129.328 156.376 129.045 156.705 128.697 156.953C128.312 154.935 127.22 153.121 125.618 151.835C124.016 150.55 122.008 149.877 119.955 149.937C117.902 149.998 115.937 150.788 114.414 152.166C112.89 153.544 111.907 155.419 111.642 157.456H101.849C101.497 157.455 101.149 157.385 100.825 157.249C100.5 157.113 100.206 156.914 99.9588 156.664C99.7115 156.414 99.516 156.118 99.3836 155.792C99.2513 155.466 99.1846 155.117 99.1875 154.766V137.849Z" fill="#BBABF7"/>
<path d="M120.21 147.547C121.171 147.547 122.11 147.262 122.909 146.729C123.709 146.195 124.332 145.437 124.701 144.55C125.07 143.662 125.167 142.685 124.981 141.743C124.795 140.8 124.334 139.933 123.656 139.252C122.978 138.571 122.114 138.106 121.172 137.916C120.23 137.726 119.253 137.819 118.364 138.184C117.475 138.549 116.713 139.168 116.176 139.965C115.639 140.762 115.35 141.7 115.346 142.661C115.343 143.302 115.467 143.937 115.71 144.529C115.953 145.122 116.311 145.661 116.763 146.115C117.215 146.569 117.752 146.929 118.343 147.175C118.935 147.42 119.569 147.547 120.21 147.547ZM120.21 140.007C120.74 140.007 121.258 140.165 121.699 140.46C122.139 140.755 122.482 141.174 122.684 141.664C122.886 142.155 122.938 142.694 122.833 143.214C122.728 143.733 122.47 144.21 122.094 144.583C121.718 144.957 121.239 145.21 120.718 145.311C120.198 145.411 119.659 145.355 119.17 145.149C118.682 144.943 118.265 144.597 117.974 144.154C117.683 143.711 117.529 143.192 117.534 142.661C117.539 141.956 117.824 141.28 118.325 140.783C118.826 140.286 119.504 140.007 120.21 140.007ZM103.191 142.18H108.361C108.651 142.18 108.929 142.065 109.134 141.86C109.339 141.655 109.454 141.377 109.454 141.086C109.454 140.796 109.339 140.518 109.134 140.313C108.929 140.108 108.651 139.993 108.361 139.993H103.191C102.901 139.993 102.623 140.108 102.418 140.313C102.212 140.518 102.097 140.796 102.097 141.086C102.097 141.377 102.212 141.655 102.418 141.86C102.623 142.065 102.901 142.18 103.191 142.18V142.18ZM103.191 147.131H108.361C108.651 147.131 108.929 147.016 109.134 146.811C109.339 146.606 109.454 146.328 109.454 146.038C109.454 145.747 109.339 145.469 109.134 145.264C108.929 145.059 108.651 144.944 108.361 144.944H103.191C102.901 144.944 102.623 145.059 102.418 145.264C102.212 145.469 102.097 145.747 102.097 146.038C102.097 146.328 102.212 146.606 102.418 146.811C102.623 147.016 102.901 147.131 103.191 147.131Z" fill="#BBABF7"/>
<path d="M103.584 154.642C104.188 154.642 104.678 154.152 104.678 153.548C104.678 152.944 104.188 152.454 103.584 152.454C102.98 152.454 102.49 152.944 102.49 153.548C102.49 154.152 102.98 154.642 103.584 154.642Z" fill="#BBABF7"/>
<path d="M107.959 154.642C108.563 154.642 109.053 154.152 109.053 153.548C109.053 152.944 108.563 152.454 107.959 152.454C107.355 152.454 106.865 152.944 106.865 153.548C106.865 154.152 107.355 154.642 107.959 154.642Z" fill="#BBABF7"/>
<path d="M140 0H82C81.7348 0 81.4804 0.105357 81.2929 0.292893C81.1054 0.48043 81 0.734784 81 1V45C81 45.2652 81.1054 45.5196 81.2929 45.7071C81.4804 45.8946 81.7348 46 82 46H113V53C113 53.1479 113.033 53.294 113.096 53.4277C113.16 53.5613 113.252 53.6793 113.366 53.773C113.481 53.8668 113.615 53.934 113.758 53.9697C113.902 54.0055 114.051 54.009 114.196 53.98L119 53.02L123.804 53.98C123.949 54.009 124.098 54.0055 124.242 53.9697C124.385 53.934 124.519 53.8668 124.634 53.773C124.748 53.6793 124.84 53.5613 124.904 53.4277C124.967 53.294 125 53.1479 125 53V46H140C140.265 46 140.52 45.8946 140.707 45.7071C140.895 45.5196 141 45.2652 141 45V1C141 0.734784 140.895 0.48043 140.707 0.292893C140.52 0.105357 140.265 0 140 0ZM123 51.78L119.196 51.02C119.067 50.994 118.933 50.994 118.804 51.02L115 51.78V46.9292C115.036 46.9498 115.075 46.9633 115.111 46.9833C116.298 47.6499 117.638 48 119 48C120.362 48 121.702 47.6499 122.89 46.9833C122.925 46.9633 122.964 46.9498 123 46.9292L123 51.78ZM123.287 44.1882C123.271 44.2048 123.255 44.2219 123.24 44.2399C123.223 44.2551 123.205 44.2707 123.188 44.2868C122.071 45.3846 120.567 45.9997 119 45.9997C117.433 45.9997 115.929 45.3846 114.812 44.2868C114.795 44.2707 114.777 44.2551 114.76 44.2399C114.745 44.2219 114.729 44.2048 114.713 44.1882C113.611 43.0731 112.996 41.5675 113 40C112.996 39.7118 113.02 39.4238 113.07 39.14C113.275 37.7093 113.991 36.4011 115.085 35.4566C116.179 34.5121 117.578 33.9949 119.023 34.0004C120.468 34.0058 121.863 34.5336 122.95 35.4864C124.036 36.4392 124.742 37.7528 124.937 39.185C124.983 39.4541 125.004 39.727 125 40C125.005 41.5676 124.389 43.0733 123.287 44.1885V44.1882ZM125.647 35.567C125.598 35.4946 125.545 35.4262 125.494 35.3555C125.412 35.2421 125.332 35.1285 125.245 35.0197C125.185 34.9456 125.122 34.8754 125.06 34.8035C124.974 34.704 124.889 34.6046 124.799 34.5095C124.731 34.4378 124.659 34.3695 124.589 34.3008C124.498 34.2118 124.407 34.1235 124.312 34.0389C124.237 33.9719 124.159 33.908 124.082 33.8439C123.985 33.7639 123.888 33.6855 123.787 33.6101C123.706 33.5491 123.623 33.4906 123.54 33.4327C123.438 33.3615 123.333 33.2926 123.228 33.226C123.141 33.1718 123.054 33.1193 122.966 33.0684C122.857 33.0057 122.746 32.9463 122.634 32.8884C122.544 32.8422 122.454 32.7964 122.363 32.7535C122.247 32.6992 122.129 32.6495 122.011 32.6008C121.918 32.5628 121.827 32.5244 121.733 32.4899C121.609 32.4444 121.483 32.4047 121.356 32.3652C121.264 32.3363 121.172 32.3058 121.078 32.2802C120.945 32.2439 120.809 32.2148 120.674 32.1854C120.583 32.1654 120.494 32.1432 120.402 32.1267C120.25 32.0994 120.096 32.0809 119.941 32.0624C119.864 32.0531 119.787 32.0394 119.709 32.0324C119.475 32.0118 119.239 32 119 32C118.761 32 118.525 32.0118 118.291 32.0328C118.212 32.0399 118.135 32.0537 118.057 32.0628C117.903 32.0813 117.75 32.0996 117.599 32.1268C117.504 32.1438 117.412 32.1668 117.319 32.1874C117.187 32.2161 117.055 32.2441 116.926 32.2793C116.825 32.3066 116.727 32.3393 116.628 32.3704C116.51 32.4075 116.392 32.4443 116.276 32.4867C116.171 32.5251 116.068 32.5679 115.965 32.6106C115.862 32.6533 115.757 32.6972 115.655 32.7447C115.546 32.7955 115.439 32.8498 115.332 32.9054C115.242 32.9521 115.154 32.9994 115.066 33.0492C114.953 33.1138 114.841 33.1813 114.731 33.2513C114.657 33.298 114.585 33.3459 114.512 33.3951C114.394 33.4757 114.278 33.5587 114.164 33.6451C114.108 33.6878 114.053 33.7319 113.998 33.7761C113.874 33.8755 113.753 33.9772 113.635 34.0838C113.599 34.1166 113.564 34.1506 113.528 34.1838C113.398 34.3066 113.27 34.432 113.147 34.5638C113.134 34.5776 113.122 34.592 113.11 34.6059C112.235 35.5519 111.606 36.6982 111.278 37.9442C111.273 37.963 111.266 37.9809 111.261 37.9998H92.8994C92.7016 37.0399 92.2268 36.1591 91.5338 35.4661C90.8408 34.7731 89.9599 34.2984 89 34.1006V11.8994C89.9599 11.7016 90.8408 11.2269 91.5338 10.5338C92.2269 9.84082 92.7016 8.95991 92.8994 8H129.101C129.298 8.95991 129.773 9.84082 130.466 10.5338C131.159 11.2269 132.04 11.7016 133 11.8994V34.1006C132.04 34.2984 131.159 34.7731 130.466 35.4662C129.773 36.1592 129.298 37.0401 129.101 38H126.739C126.71 37.8873 126.672 37.7784 126.639 37.6678C126.612 37.5789 126.588 37.4886 126.558 37.4011C126.506 37.2504 126.446 37.1038 126.385 36.9574C126.358 36.8915 126.335 36.8236 126.306 36.7587C126.213 36.5504 126.112 36.3471 126.003 36.1487C125.974 36.0971 125.941 36.0487 125.911 35.9979C125.827 35.8521 125.741 35.707 125.647 35.5673V35.567ZM139 44H125.929C125.951 43.962 125.966 43.92 125.988 43.8821C126.117 43.6517 126.234 43.4149 126.34 43.1727C126.359 43.1281 126.382 43.0854 126.401 43.0404C126.518 42.7536 126.618 42.46 126.7 42.1614C126.722 42.0825 126.739 42.0023 126.759 41.9227C126.816 41.6904 126.863 41.4553 126.899 41.2175C126.912 41.1275 126.927 41.039 126.938 40.9487C126.977 40.634 126.998 40.3172 127 40H130C130.265 40 130.52 39.8946 130.707 39.7071C130.895 39.5196 131 39.2652 131 39C131.001 38.2046 131.317 37.4421 131.88 36.8796C132.442 36.3172 133.205 36.0009 134 36C134.265 36 134.52 35.8946 134.707 35.7071C134.895 35.5196 135 35.2652 135 35V11C135 10.7348 134.895 10.4804 134.707 10.2929C134.52 10.1054 134.265 10 134 10C133.205 9.99913 132.442 9.68278 131.88 9.12036C131.317 8.55794 131.001 7.79538 131 7C131 6.73478 130.895 6.48043 130.707 6.29289C130.52 6.10536 130.265 6 130 6H92C91.7348 6 91.4804 6.10536 91.2929 6.29289C91.1054 6.48043 91 6.73478 91 7C90.9991 7.79538 90.6828 8.55794 90.1204 9.12036C89.5579 9.68278 88.7954 9.99913 88 10C87.7348 10 87.4804 10.1054 87.2929 10.2929C87.1054 10.4804 87 10.7348 87 11V35C87 35.2652 87.1054 35.5196 87.2929 35.7071C87.4804 35.8946 87.7348 36 88 36C88.7954 36.0009 89.5579 36.3172 90.1204 36.8796C90.6828 37.4421 90.9991 38.2046 91 39C91 39.2652 91.1054 39.5196 91.2929 39.7071C91.4804 39.8946 91.7348 40 92 40H111C111.002 40.3176 111.023 40.6348 111.062 40.95C111.073 41.04 111.087 41.128 111.101 41.2171C111.137 41.4555 111.184 41.6909 111.242 41.9234C111.262 42.0034 111.278 42.0834 111.3 42.1619C111.382 42.4609 111.483 42.7547 111.6 43.0419C111.618 43.0861 111.641 43.1281 111.66 43.1719C111.765 43.4147 111.883 43.652 112.013 43.883C112.034 43.9214 112.049 43.963 112.071 44.0009H83V2H139V44Z" fill="#BBABF7"/>
<path d="M122 12H100C99.7348 12 99.4804 12.1054 99.2929 12.2929C99.1054 12.4804 99 12.7348 99 13V21C99 21.2652 99.1054 21.5196 99.2929 21.7071C99.4804 21.8946 99.7348 22 100 22H122C122.265 22 122.52 21.8946 122.707 21.7071C122.895 21.5196 123 21.2652 123 21V13C123 12.7348 122.895 12.4804 122.707 12.2929C122.52 12.1054 122.265 12 122 12ZM121 20H101V14H121V20Z" fill="#BBABF7"/>
<path d="M219.869 78.4469H190.119C189.528 78.4469 189.058 77.9766 189.058 77.3859C189.058 76.7953 189.528 76.325 190.119 76.325H219.88C220.471 76.325 220.941 76.7953 220.941 77.3859C220.93 77.9656 220.46 78.4469 219.869 78.4469ZM219.869 88.8047H190.119C189.528 88.8047 189.058 88.3344 189.058 87.7438C189.058 87.1531 189.528 86.6828 190.119 86.6828H219.88C220.471 86.6828 220.941 87.1531 220.941 87.7438C220.93 88.3344 220.46 88.8047 219.869 88.8047ZM219.869 99.1734H190.119C189.528 99.1734 189.058 98.7031 189.058 98.1125C189.058 97.5219 189.528 97.0516 190.119 97.0516H219.88C220.471 97.0516 220.941 97.5219 220.941 98.1125C220.93 98.6922 220.46 99.1734 219.869 99.1734ZM219.869 109.531H190.119C189.528 109.531 189.058 109.061 189.058 108.47C189.058 107.88 189.528 107.409 190.119 107.409H219.88C220.471 107.409 220.941 107.88 220.941 108.47C220.93 109.061 220.46 109.531 219.869 109.531Z" fill="#BBABF7"/>
<path d="M228.542 119.616H181.456C180.865 119.616 180.395 119.145 180.395 118.555V60.0609C180.395 59.4703 180.865 59 181.456 59H219.158C219.442 59 219.704 59.1094 219.912 59.3062L229.297 68.6906C229.493 68.8875 229.603 69.1609 229.603 69.4453V118.555C229.603 119.134 229.122 119.616 228.542 119.616ZM182.517 117.494H227.481V69.8828L218.72 61.1219H182.517V117.494V117.494Z" fill="#BBABF7"/>
<path d="M228.542 70.5062H219.158C218.567 70.5062 218.097 70.0359 218.097 69.4453V60.0609C218.097 59.4703 218.567 59 219.158 59C219.749 59 220.219 59.4703 220.219 60.0609V68.3844H228.542C229.133 68.3844 229.603 68.8547 229.603 69.4453C229.603 70.025 229.122 70.5062 228.542 70.5062Z" fill="#BBABF7"/>
<path d="M219.147 129H172.061C171.47 129 171 128.53 171 127.939V69.4453C171 68.8547 171.47 68.3844 172.061 68.3844H181.456C182.047 68.3844 182.517 68.8547 182.517 69.4453C182.517 70.036 182.047 70.5063 181.456 70.5063H173.122V126.878H218.086V118.555C218.086 117.964 218.556 117.494 219.147 117.494C219.737 117.494 220.208 117.964 220.208 118.555V127.939C220.208 128.53 219.737 129 219.147 129Z" fill="#BBABF7"/>
<path d="M184.5 372C182 379 173.792 389.5 157.5 389.5C141.208 389.5 127.001 376 121 369C151.499 356 135.207 356 151.499 356C167.791 356 151.499 356 184.5 372Z" fill="#EEEAFC"/>
</svg>
