<svg width="304" height="612" viewBox="0 0 304 612" fill="none" xmlns="http://www.w3.org/2000/svg">
<path d="M88.1329 118.591C88.1017 118.235 87.958 117.999 87.9519 117.989C87.9488 117.984 87.9444 117.98 87.9392 117.978C87.934 117.975 87.9281 117.974 87.9223 117.974L87.2369 118.034C87.2251 118.035 87.2148 118.043 87.2104 118.054C87.2061 118.065 87.1055 118.322 87.1367 118.678C87.1533 118.868 87.2277 119.038 87.2998 119.203C87.3653 119.353 87.4272 119.495 87.4397 119.638C87.4662 119.94 87.4351 120.188 87.4348 120.191C87.4325 120.209 87.4384 120.227 87.4511 120.241C87.4574 120.247 87.465 120.252 87.4735 120.255C87.4819 120.259 87.491 120.26 87.5 120.259L88.0496 120.211C88.0679 120.209 88.0843 120.2 88.0946 120.184C88.0996 120.177 88.1029 120.168 88.1042 120.159C88.1055 120.15 88.1048 120.141 88.1021 120.133C88.099 120.123 88.0274 119.889 88.0011 119.589C87.9886 119.446 88.025 119.295 88.0636 119.136C88.1058 118.961 88.1495 118.781 88.1329 118.591V118.591ZM87.2022 118.551C87.2002 118.527 87.2034 118.505 87.2121 118.485C87.2266 118.451 87.2527 118.427 87.2775 118.425L87.2777 118.425C87.3061 118.423 87.3297 118.402 87.3353 118.374C87.3388 118.357 87.3477 118.341 87.3606 118.33C87.3736 118.318 87.3899 118.311 87.4072 118.31C87.4271 118.308 87.447 118.314 87.463 118.326C87.4789 118.338 87.4897 118.355 87.4933 118.375C87.4951 118.385 87.4994 118.395 87.5056 118.403C87.5119 118.411 87.52 118.417 87.5293 118.422C87.5385 118.426 87.5487 118.428 87.5589 118.428C87.5692 118.427 87.5792 118.425 87.5881 118.42C87.5948 118.416 87.6032 118.414 87.6137 118.413C87.6291 118.411 87.6618 118.425 87.6795 118.444C87.6938 118.459 87.7148 118.466 87.7359 118.463C87.7462 118.462 87.7559 118.458 87.7643 118.452C87.7727 118.446 87.7795 118.437 87.7842 118.428C87.8083 118.38 87.847 118.35 87.8903 118.346C87.954 118.34 88.0152 118.393 88.041 118.471C87.9902 118.51 87.8366 118.608 87.6398 118.531C87.4615 118.46 87.2836 118.516 87.2022 118.551V118.551ZM87.2626 118.095L87.9078 118.039C87.929 118.077 87.9815 118.182 88.0222 118.331C87.9827 118.297 87.9345 118.279 87.8849 118.283C87.8191 118.289 87.7618 118.332 87.7255 118.4C87.6958 118.369 87.6443 118.347 87.6082 118.35C87.5886 118.352 87.572 118.356 87.5553 118.364C87.549 118.329 87.5297 118.297 87.5012 118.275C87.4728 118.254 87.4372 118.244 87.4017 118.247C87.3387 118.252 87.286 118.299 87.2722 118.362L87.2717 118.362C87.2465 118.365 87.2223 118.376 87.2014 118.394C87.216 118.245 87.2486 118.136 87.2626 118.095V118.095ZM87.9382 119.594C87.9645 119.894 88.0352 120.13 88.0418 120.148L87.4977 120.196C87.4987 120.187 87.5014 120.163 87.5043 120.127L87.9223 120.091C87.9306 120.09 87.9383 120.086 87.9437 120.08C87.9491 120.073 87.9517 120.065 87.9509 120.057C87.9502 120.048 87.9462 120.041 87.9398 120.035C87.9334 120.03 87.9251 120.027 87.9168 120.028L87.5086 120.064C87.5145 119.96 87.5176 119.805 87.5025 119.632C87.4891 119.479 87.4252 119.333 87.3574 119.178C87.2875 119.018 87.2152 118.852 87.1995 118.673C87.198 118.656 87.1969 118.639 87.196 118.623C87.2379 118.602 87.4302 118.516 87.6166 118.589C87.6933 118.619 87.7642 118.627 87.8269 118.621C87.9342 118.612 88.017 118.565 88.0629 118.533C88.0656 118.554 88.0681 118.575 88.07 118.597C88.0857 118.776 88.0432 118.951 88.0021 119.122C87.9623 119.286 87.9248 119.441 87.9382 119.594V119.594Z" fill="#BBABF7"/>
<path d="M87.45 118.811C87.4447 118.818 87.4421 118.826 87.4428 118.834C87.4435 118.843 87.4476 118.85 87.4539 118.856C87.4603 118.861 87.4687 118.864 87.4771 118.863C87.4833 118.863 87.4892 118.86 87.4941 118.856C87.499 118.852 87.5025 118.847 87.5044 118.841C87.5062 118.835 87.5063 118.829 87.5045 118.823C87.5028 118.817 87.4993 118.811 87.4945 118.807C87.4817 118.797 87.4611 118.799 87.45 118.811V118.811ZM87.6741 118.937C87.6691 118.944 87.6665 118.952 87.6672 118.96C87.668 118.969 87.672 118.976 87.6784 118.982C87.6847 118.987 87.6929 118.99 87.7012 118.989C87.7095 118.988 87.7172 118.984 87.7226 118.978C87.728 118.972 87.7307 118.963 87.73 118.955C87.7293 118.947 87.7252 118.939 87.7189 118.933C87.7061 118.923 87.6852 118.925 87.6741 118.937ZM87.8654 118.733C87.86 118.739 87.8574 118.747 87.8581 118.756C87.8589 118.764 87.8629 118.772 87.8693 118.777C87.8757 118.783 87.8841 118.785 87.8925 118.785C87.8987 118.784 87.9046 118.782 87.9094 118.778C87.9143 118.774 87.9179 118.768 87.9197 118.762C87.9216 118.756 87.9216 118.75 87.9199 118.744C87.9181 118.738 87.9146 118.733 87.9098 118.729C87.8971 118.718 87.8761 118.72 87.8654 118.733V118.733ZM87.7949 119.252C87.7895 119.258 87.7869 119.267 87.7876 119.275C87.7884 119.283 87.7924 119.291 87.7988 119.296C87.8051 119.302 87.8133 119.304 87.8216 119.304C87.8278 119.303 87.8338 119.301 87.8386 119.297C87.8435 119.293 87.8471 119.288 87.849 119.282C87.8509 119.276 87.851 119.269 87.8492 119.263C87.8475 119.257 87.844 119.252 87.8393 119.248C87.8265 119.237 87.8056 119.239 87.7949 119.252V119.252ZM87.6307 119.498C87.6253 119.505 87.6227 119.513 87.6234 119.522C87.6242 119.53 87.6282 119.538 87.6346 119.543C87.6409 119.548 87.6491 119.551 87.6574 119.55C87.6657 119.549 87.6734 119.545 87.6788 119.539C87.6842 119.533 87.6869 119.524 87.6862 119.516C87.6855 119.508 87.6815 119.5 87.6751 119.495C87.6623 119.484 87.6414 119.486 87.6307 119.498ZM87.7387 119.675C87.7334 119.681 87.7309 119.69 87.7317 119.698C87.7325 119.706 87.7365 119.714 87.7429 119.719C87.7492 119.725 87.7576 119.727 87.7657 119.726C87.7741 119.726 87.7819 119.722 87.7873 119.715C87.7926 119.709 87.7953 119.701 87.7945 119.692C87.7938 119.684 87.7898 119.676 87.7834 119.671C87.7709 119.66 87.7497 119.662 87.7387 119.675V119.675Z" fill="#BBABF7"/>
<path d="M75.6076 81.7341L75.6528 81.2072L75.2427 80.8732L73.7512 79.6586L73.7512 79.6586L73.7493 79.6571L73.7557 79.6556L75.615 79.2219L76.1281 79.1022L76.3195 78.6112L77.0164 76.8237L77.0164 76.8237L77.0192 76.8163L77.0233 76.8231L78.02 78.4624L78.2937 78.9127L78.8199 78.9415L80.7262 79.0457L80.7262 79.0457L80.7328 79.046L80.7312 79.0479L79.4733 80.5031L79.1381 80.8908L79.2571 81.3893L79.7008 83.2477L79.7055 83.2677L79.7108 83.2864L79.707 83.2848L77.9359 82.5463L77.4527 82.3449L77.0119 82.6272L75.4449 83.6306L75.6076 81.7341ZM89.392 85.5924L92.2628 84.8909L92.7814 84.7642L92.9647 84.2627L94.0257 81.3592L94.0257 81.3592L94.0291 81.3498L94.0341 81.3585L95.5831 84.0336L95.8507 84.4957L96.3835 84.5304L99.2886 84.7199L97.3467 87.0889L97.0263 87.4797L97.151 87.9695L97.931 91.0332L97.9334 91.0428L97.9358 91.0515L97.9247 91.0525L95.2092 89.8404L94.7077 89.6165L94.2497 89.9197L91.8212 91.5271L92.0543 88.4154L92.092 87.9114L91.7086 87.5821L89.392 85.5924Z" stroke="#BBABF7" stroke-width="2"/>
<path d="M85.9571 107.845L100.372 106.584L90.9461 113.582C90.7659 113.707 90.632 113.889 90.5651 114.098C90.4981 114.307 90.5017 114.532 90.5755 114.739C90.6546 114.949 90.8022 115.126 90.9944 115.242C91.1867 115.359 91.4124 115.407 91.6353 115.379L100.601 114.594L100.427 112.602L94.9776 113.079L104.403 106.08C104.584 105.955 104.718 105.774 104.785 105.565C104.852 105.356 104.848 105.131 104.774 104.924C104.695 104.714 104.547 104.536 104.355 104.42C104.163 104.304 103.937 104.256 103.714 104.284L85.7828 105.853L85.9571 107.845Z" fill="#BBABF7"/>
<path d="M84.0915 104.921L82.0991 105.095L82.2734 107.087L84.2658 106.913L84.0915 104.921Z" fill="#BBABF7"/>
<path d="M299.557 611.5C243.057 611.5 238.057 611.5 155.057 611.5C83.5567 611.5 59.0567 611.5 1.5567 611.5C1.5567 562.347 -26.4433 396.5 155.057 387C339.057 414 299.557 562.5 299.557 611.5Z" fill="#BBABF7"/>
<path d="M183.177 397.038C183.177 402.008 178.476 406.038 172.677 406.038C166.878 406.038 162.177 402.008 162.177 397.038C162.177 392.067 166.878 388.038 172.677 388.038C177.177 387.538 183.177 392.067 183.177 397.038Z" fill="#D6CDFB"/>
<path d="M38.1408 572.544H269.141V611.544H38.1408V572.544Z" fill="#BBABF7"/>
<path d="M285.641 584.544H285.141V594.544H285.132C285.138 594.71 285.141 594.877 285.141 595.044C284.641 604.044 278 612.5 268 611C257.5 608 253.641 604.544 251.641 595.044C251.641 590.993 253.171 587.305 255.808 584.544H52.3741C55.9156 587.38 58.1408 591.482 58.1408 596.044C58.1408 604.604 50.3058 611.544 40.6408 611.544C33.5 611 26 608 24 598.5C24 598.165 23.4793 596.831 23.5 596.5V595.5V584.5L23.4477 584.544V475.018C22.8058 470.137 22.8404 464.825 23.6408 459.044C28.1408 426.544 95.6408 388 150.141 388C200.988 388 283.131 441.405 285.585 474.544H285.641V584.544Z" fill="#BBABF7"/>
<path d="M186.5 396C184 403 175.792 413.5 159.5 413.5C143.208 413.5 129.001 400 123 393C153.499 380 137.207 380 153.499 380C169.791 380 153.499 380 186.5 396Z" fill="#EEEAFC"/>
<ellipse cx="164.5" cy="466.575" rx="32.5" ry="11.5753" fill="#EEEAFC"/>
<path d="M194.45 466.685C194.45 467.935 193.74 469.201 192.288 470.423C190.839 471.644 188.709 472.768 186.029 473.722C180.673 475.63 173.238 476.82 165 476.82C156.762 476.82 149.327 475.63 143.971 473.722C141.291 472.768 139.161 471.644 137.712 470.423C136.26 469.201 135.55 467.935 135.55 466.685C135.55 465.435 136.26 464.169 137.712 462.947C139.161 461.726 141.291 460.602 143.971 459.648C149.327 457.74 156.762 456.55 165 456.55C173.238 456.55 180.673 457.74 186.029 459.648C188.709 460.602 190.839 461.726 192.288 462.947C193.74 464.169 194.45 465.435 194.45 466.685Z" stroke="#EEEAFC" stroke-width="1.1"/>
<path d="M94.9998 428C93.3012 446.575 80.0001 487.5 58.5001 500C21.3879 514.84 9.23281 457.425 42.9995 422C63.5001 402 123.364 388 138 388C110 407 94.9998 409.775 94.9998 428Z" fill="#D6CDFB"/>
<ellipse cx="165" cy="508.26" rx="26" ry="9.26027" fill="#D6CCFB"/>
<path d="M132 467H197L191 509H139L132 467Z" fill="#D6CCFB"/>
<ellipse cx="164.5" cy="466.575" rx="32.5" ry="11.5753" fill="#EEEAFC"/>
<path d="M191 471.438C186 473.5 179.136 477 164.5 477C149.864 477 143.5 473.5 138 471.438C138 466.226 149.864 462 164.5 462C179.136 462 191 466.226 191 471.438Z" fill="#BBABF7"/>
<path d="M174.333 435.681C181.834 451.723 169.222 469 166 469C162.778 469 175.167 468.383 161 441.851C161 426.176 173.5 424.617 181 411C178.5 428.894 174.333 420.005 174.333 435.681Z" fill="#EEEAFC" fill-opacity="0.75"/>
<path d="M142 494.897C146.049 508.672 149.895 524.861 139.551 527.901C129.207 530.942 109.722 506.372 109.465 503.625C105.416 489.85 116.051 452.01 126.396 448.97C139.757 443.913 137.95 481.122 142 494.897Z" fill="#EEEAFC"/>
<path d="M128.5 447.397C128 449.397 124 480.897 124 495.397" stroke="#BBABF7"/>
<path d="M134.5 448.397C129.618 466.752 133 473.397 132.5 495.897" stroke="#BBABF7"/>
<path d="M122.5 450.397C122.5 450.397 116.5 478.397 116 494.397" stroke="#BBABF7"/>
<path d="M190.419 492.897C186.37 506.672 182.524 522.861 192.868 525.901C203.212 528.942 222.697 504.372 222.954 501.625C227.003 487.85 216.367 450.01 206.023 446.97C192.661 441.913 194.469 479.122 190.419 492.897Z" fill="#EEEAFC"/>
<path d="M203.919 445.397C204.419 447.397 208.419 478.897 208.419 493.397" stroke="#BBABF7"/>
<path d="M197.919 446.397C202.801 464.752 199.419 471.397 199.919 493.897" stroke="#BBABF7"/>
<path d="M209.919 448.397C209.919 448.397 215.919 476.397 216.419 492.397" stroke="#BBABF7"/>
<path d="M278.5 611.5C249.405 611.5 215.137 611.5 173 611.5C158.453 532 223.473 511 220.965 473C224.248 433.942 173.31 392 173.31 388C184.346 389 364.596 413 278.5 611.5Z" fill="#D6CCFB"/>
<path d="M203.91 146.43C201.889 145.83 199.744 145.787 197.701 146.306C195.658 146.825 193.793 147.887 192.303 149.378C190.591 151.089 189.452 153.289 189.043 155.674C188.633 158.059 188.974 160.513 190.017 162.696L187.474 165.238L187.475 167.999L184.715 167.997L184.718 170.754L181.956 170.757L181.959 173.514L179.241 173.473L179.2 176.273L176.439 176.272L175.06 177.654L175.751 182.482L180.579 183.17L195.534 168.214C196.818 168.815 198.2 169.177 199.614 169.283C198.414 167.848 197.577 166.146 197.173 164.319C196.769 162.493 196.811 160.596 197.294 158.79C198.005 156.141 199.623 153.827 201.866 152.25C204.109 150.673 206.835 149.935 209.568 150.163C209.343 149.889 209.105 149.626 208.857 149.373C207.48 147.993 205.779 146.981 203.91 146.428L203.91 146.43ZM210.116 156.167C209.582 156.023 209.019 156.033 208.49 156.196C207.962 156.36 207.491 156.669 207.132 157.089C206.772 157.509 206.539 158.022 206.459 158.569C206.379 159.116 206.456 159.675 206.68 160.18C206.905 160.685 207.268 161.116 207.727 161.424C208.187 161.731 208.724 161.902 209.277 161.917C209.829 161.932 210.375 161.79 210.85 161.507C211.325 161.224 211.71 160.813 211.961 160.321C212.101 159.73 212.194 159.13 212.241 158.525C212.152 157.969 211.904 157.451 211.527 157.032C211.15 156.614 210.66 156.313 210.116 156.167Z" stroke="#BBABF7" stroke-width="2" stroke-linecap="round" stroke-linejoin="round"/>
<path d="M211.631 150.514C208.964 149.799 206.13 150.05 203.63 151.223C201.13 152.395 199.126 154.414 197.97 156.922C196.815 159.43 196.583 162.265 197.317 164.927C198.05 167.589 199.7 169.906 201.977 171.469L201.046 174.941L202.426 177.33L200.037 178.71L201.416 181.099L199.027 182.478L200.406 184.867L198.032 186.19L199.396 188.636L197.007 190.015L196.502 191.899L199.514 195.735L204.039 193.919L209.514 173.488C212.265 173.272 214.852 172.09 216.817 170.151C218.781 168.213 219.998 165.642 220.251 162.894C220.504 160.145 219.778 157.396 218.2 155.131C216.623 152.866 214.296 151.231 211.63 150.516L211.631 150.514ZM210.116 156.167C210.866 156.368 211.505 156.858 211.893 157.53C212.281 158.202 212.386 159.001 212.185 159.75C211.984 160.5 211.494 161.139 210.822 161.527C210.15 161.915 209.351 162.02 208.601 161.819C207.852 161.619 207.213 161.128 206.825 160.456C206.437 159.784 206.331 158.985 206.532 158.236C206.733 157.486 207.224 156.847 207.896 156.459C208.568 156.071 209.366 155.966 210.116 156.167Z" stroke="#BBABF7" stroke-width="2" stroke-linecap="round" stroke-linejoin="round"/>
<path d="M195.775 146.754C195.894 144.434 196.702 142.201 198.096 140.342C199.491 138.483 201.408 137.082 203.602 136.319C205.798 135.554 208.171 135.462 210.419 136.053C212.668 136.645 214.688 137.894 216.223 139.64C217.757 141.385 218.736 143.548 219.034 145.852C219.333 148.156 218.937 150.497 217.898 152.575C216.859 154.654 215.224 156.375 213.201 157.519C211.178 158.663 208.86 159.178 206.542 158.998" stroke="#BBABF7" stroke-width="2" stroke-linecap="round" stroke-linejoin="round"/>
<path d="M133.088 113.834L129.103 114.182L129.277 116.175L133.262 115.826L133.088 113.834Z" fill="#BBABF7"/>
<path d="M129.082 128.712L122.318 129.304L122.492 131.296L129.257 130.704L129.082 128.712Z" fill="#BBABF7"/>
<path d="M108.307 77.2765L108.302 77.2699L108.314 77.2736C111.019 78.1489 113.574 79.4311 115.893 81.076C122.134 85.5814 126.356 92.3585 127.648 99.947C128.94 107.537 127.199 115.331 122.798 121.648L122.798 121.648L122.793 121.657C120.633 124.827 117.862 127.534 114.643 129.62C111.424 131.706 107.82 133.128 104.044 133.804L104.027 133.807L104.011 133.811C103.214 133.982 102.409 134.053 101.543 134.129C94.8707 134.71 88.2102 132.886 82.7641 128.987L82.7641 128.987L82.7568 128.982C79.872 126.955 77.3876 124.411 75.4296 121.479C81.3644 123.859 87.9352 124.137 94.0495 122.265C100.161 120.394 105.449 116.488 109.034 111.196C112.533 106.2 114.349 100.219 114.219 94.1214C114.09 88.0207 112.019 82.1202 108.307 77.2765L108.307 77.2765Z" stroke="#BBABF7" stroke-width="2"/>
<path opacity="0.5" d="M194.142 21.8268L188.721 24.5512L185.996 19.1303C185.753 18.5616 185.736 17.9215 185.949 17.3406C186.161 16.7596 186.587 16.2816 187.14 16.0038C187.692 15.7261 188.33 15.6695 188.923 15.8457C189.516 16.0219 190.019 16.4175 190.331 16.952L190.877 18.0387L191.963 17.4926C192.25 17.3256 192.568 17.2191 192.897 17.1797C193.227 17.1402 193.561 17.1686 193.879 17.263C194.197 17.3575 194.492 17.5161 194.746 17.7291C195.001 17.942 195.209 18.2048 195.358 18.5012C195.507 18.7976 195.593 19.1213 195.612 19.4525C195.631 19.7837 195.583 20.1153 195.469 20.4269C195.355 20.7384 195.178 21.0234 194.95 21.2641C194.722 21.5049 194.447 21.6963 194.142 21.8268V21.8268ZM210.679 27.3014L213.403 32.7222L218.824 29.9978C219.129 29.8674 219.404 29.6759 219.633 29.4352C219.861 29.1944 220.037 28.9095 220.151 28.5979C220.265 28.2864 220.314 27.9548 220.295 27.6236C220.276 27.2924 220.189 26.9687 220.04 26.6723C219.891 26.3759 219.683 26.1131 219.429 25.9002C219.174 25.6872 218.879 25.5286 218.561 25.4341C218.243 25.3396 217.909 25.3113 217.58 25.3507C217.251 25.3902 216.933 25.4967 216.646 25.6637L215.559 26.2098L215.013 25.1231C214.883 24.8181 214.691 24.543 214.451 24.3148C214.21 24.0866 213.925 23.9101 213.613 23.7961C213.302 23.6822 212.97 23.6333 212.639 23.6524C212.308 23.6715 211.984 23.7582 211.688 23.9072C211.391 24.0561 211.128 24.2642 210.916 24.5186C210.703 24.7729 210.544 25.0682 210.45 25.3862C210.355 25.7042 210.327 26.0382 210.366 26.3675C210.406 26.6969 210.512 27.0147 210.679 27.3014Z" fill="#BBABF7"/>
<path d="M202.369 15.1437C203.119 12.8777 202.938 10.4065 201.866 8.27376C200.794 6.14102 198.919 4.52142 196.653 3.77127L194.755 3.14272C192.489 2.39257 190.017 2.57331 187.885 3.64519C185.752 4.71706 184.132 6.59226 183.382 8.85827C183.13 8.77492 182.856 8.795 182.619 8.9141C182.382 9.03319 182.202 9.24155 182.119 9.49333L177.09 24.6827C177.007 24.9344 177.027 25.209 177.146 25.446C177.265 25.683 177.473 25.8629 177.725 25.9463C177.858 25.9903 178.039 24.9969 174.871 38.8321C174.391 40.9413 174.714 43.1537 175.777 45.0376C176.84 46.9216 178.566 48.342 180.62 49.0218C182.673 49.7016 184.907 49.5921 186.884 48.7145C188.861 47.8369 190.44 46.2543 191.313 44.2753C197.054 31.1969 196.579 32.1877 196.712 32.2317C196.964 32.3151 197.238 32.295 197.475 32.1759C197.712 32.0568 197.892 31.8484 197.975 31.5966L203.004 16.4073C203.087 16.1555 203.067 15.881 202.948 15.644C202.829 15.407 202.621 15.2271 202.369 15.1437ZM183.703 11.0712L200.791 16.7281L196.391 30.0188L179.303 24.3619L183.703 11.0712ZM194.126 5.04139L196.025 5.66993C197.787 6.25339 199.246 7.51307 200.079 9.17187C200.913 10.8307 201.054 12.7527 200.47 14.5152L185.281 9.48681C185.864 7.72436 187.124 6.26587 188.783 5.43219C190.442 4.59851 192.364 4.45794 194.126 5.04139V5.04139ZM189.484 43.4695C188.813 44.9958 187.596 46.2169 186.073 46.8942C184.549 47.5716 182.828 47.6566 181.245 47.1326C179.662 46.6087 178.332 45.5133 177.513 44.0607C176.695 42.608 176.448 40.9024 176.82 39.2772L179.719 26.6062L194.718 31.5717L189.484 43.4695ZM227.051 23.3148C227.802 21.0488 227.621 18.5776 226.549 16.4448C225.477 14.3121 223.602 12.6925 221.336 11.9424L219.437 11.3138C217.171 10.5637 214.7 10.7444 212.567 11.8163C210.435 12.8881 208.815 14.7633 208.065 17.0293C207.813 16.946 207.538 16.9661 207.301 17.0852C207.064 17.2043 206.885 17.4126 206.801 17.6644L201.773 32.8537C201.689 33.1055 201.71 33.3801 201.829 33.6171C201.948 33.854 202.156 34.034 202.408 34.1173C202.541 34.1613 202.722 33.168 199.554 47.0032C199.074 49.1124 199.397 51.3248 200.459 53.2087C201.522 55.0927 203.249 56.5131 205.303 57.1929C207.356 57.8727 209.589 57.7632 211.566 56.8856C213.543 56.008 215.123 54.4254 215.996 52.4464C221.737 39.368 221.262 40.3588 221.395 40.4028C221.646 40.4861 221.921 40.4661 222.158 40.347C222.395 40.2279 222.575 40.0195 222.658 39.7677L227.686 24.5784C227.77 24.3266 227.75 24.052 227.631 23.8151C227.512 23.5781 227.303 23.3981 227.051 23.3148ZM208.386 19.2423L225.474 24.8992L221.074 38.1899L203.986 32.5329L208.386 19.2423ZM218.809 13.2125L220.707 13.841C222.47 14.4245 223.928 15.6842 224.762 17.343C225.596 19.0018 225.736 20.9238 225.153 22.6863L209.963 17.6579C210.547 15.8954 211.807 14.437 213.465 13.6033C215.124 12.7696 217.046 12.629 218.809 13.2125V13.2125ZM214.167 51.6406C213.495 53.1668 212.279 54.3879 210.756 55.0653C209.232 55.7427 207.511 55.8277 205.928 55.3037C204.345 54.7797 203.014 53.6844 202.196 52.2318C201.378 50.7791 201.13 49.0735 201.502 47.4482L204.401 34.7773L219.401 39.7428L214.167 51.6406Z" fill="#BBABF7"/>
<path opacity="0.5" d="M194.44 4.09206L196.339 4.7206C198.353 5.38741 200.02 6.82705 200.973 8.72282C201.926 10.6186 202.086 12.8152 201.419 14.8294L201.105 15.7788L184.017 10.1219L184.331 9.17254C184.998 7.15831 186.438 5.49147 188.334 4.53869C190.229 3.58592 192.426 3.42526 194.44 4.09206V4.09206ZM225.788 23.9499L208.7 18.293L209.014 17.3436C209.681 15.3294 211.12 13.6625 213.016 12.7098C214.912 11.757 217.109 11.5963 219.123 12.2631L221.022 12.8917C223.036 13.5585 224.703 14.9981 225.655 16.8939C226.608 18.7897 226.769 20.9863 226.102 23.0005L225.788 23.9499ZM180.933 48.0756C179.11 47.4724 177.579 46.2089 176.64 44.5337C175.701 42.8585 175.424 40.8927 175.861 39.023L178.989 25.3112L196.077 30.9681L190.405 43.8376C189.64 45.5991 188.244 47.0107 186.491 47.795C184.739 48.5793 182.756 48.6794 180.933 48.0756V48.0756ZM205.616 56.2467C207.439 56.8504 209.421 56.7503 211.174 55.9661C212.927 55.1818 214.323 53.7702 215.087 52.0087L220.759 39.1392L203.671 33.4823L200.544 47.1941C200.106 49.0638 200.384 51.0296 201.323 52.7048C202.261 54.38 203.793 55.6435 205.616 56.2467V56.2467Z" fill="#BBABF7"/>
<rect x="134" y="352" width="39" height="45" fill="#EEEAFC"/>
<path fill-rule="evenodd" clip-rule="evenodd" d="M231.267 313.907C235.401 310.166 239.017 303.043 241.5 289.5C241.5 267 222.941 262.5 213 262.5C203.059 262.5 200.5 276.5 204 290.5C205.059 294.734 205.427 298.446 205.658 301.677C199.934 309.497 195 320.839 195 326C195 334.284 195 342.5 209 340C214.414 339.033 222.682 335 228 326C229.817 322.925 231.092 318.509 231.267 313.907ZM117.911 298.28C117.97 297.694 118 297.1 118 296.5C118 286.283 109.27 278 98.5 278C87.7304 278 79 286.283 79 296.5C79 303.736 83.3789 310.002 89.7598 313.042C89.589 314.006 89.5 314.994 89.5 316C89.5 326.493 102 338.5 117 336.5C128.322 336.5 131 326.493 131 316C131 307.929 125.57 301.033 117.911 298.28Z" fill="#D6CCFB"/>
<path fill-rule="evenodd" clip-rule="evenodd" d="M167.97 372C183.5 372 206.5 349.794 206.5 315C212 279.5 192.48 251 161 251C136.138 251 121.543 265.163 116.505 288.257C108.853 289.844 103 298.513 103 307C103 315.279 108.57 322.176 115.946 323.691C121.321 351.27 141.219 372 167.97 372Z" fill="#EEEAFC"/>
<path fill-rule="evenodd" clip-rule="evenodd" d="M180.985 263.028C181.119 262.948 181.25 262.867 181.38 262.786C183.36 263.017 185.558 263.251 188 263.5C189.304 263.385 190.634 263.349 191.975 263.37C198.382 269.988 201.99 278.149 205.98 287.5C213.16 287.5 218.98 273.127 218.98 266.5C218.98 265.369 218.811 264.275 218.494 263.237C221.052 261.131 221.755 256.851 219.5 248.699C217.5 237.5 206.307 228.199 192.5 228.199C185.12 227.245 176.987 229.248 170.881 232.575C166.815 227.337 159.887 224 150 224C134.299 224 122.863 234.299 121.207 245.663C119.186 245.541 116.805 245.64 114 246C100.5 246 87 260.059 87 270C87 279.941 98.2975 290 111 290C127.86 288.073 131.261 280.577 132.382 265.276C132.991 265.61 133.621 265.924 134.269 266.217C139.222 269.114 146.98 271 154.5 271C165.749 270.598 176.999 267.518 180.985 263.028Z" fill="#D6CDFB"/>
<path d="M156 282.5C156 284.157 151 287.556 147 288C142.5 288.5 140.5 289 140 287C140 285 144 281.562 148.5 281C152.5 280.5 156 280.843 156 282.5Z" fill="#7755F1"/>
<path d="M193.5 286.5C193 287.5 189.5 288 186.5 287.5C180 285 181.5 282 182 281C183.5 280 185 280.5 188.5 281C192 282 193.5 285.5 193.5 286.5Z" fill="#7755F1"/>
<path d="M173 310C173.142 317.887 173.667 322.023 176 328.5C169.892 329.413 167.328 330.167 164.5 332" stroke="#7755F1" stroke-width="3" stroke-linecap="round" stroke-linejoin="round"/>
<path d="M153 338.5C155.534 342.38 158.367 343.513 165.5 344" stroke="#7755F1" stroke-width="3" stroke-linecap="round" stroke-linejoin="round"/>
<path d="M184 311.154C186.595 306.507 192.437 304.475 197.007 306.994" stroke="#7755F1" stroke-width="3" stroke-linecap="round" stroke-linejoin="round"/>
<path d="M154.664 312.32C152.14 307.247 147.214 305.058 138.029 307.372" stroke="#7755F1" stroke-width="3" stroke-linecap="round" stroke-linejoin="round"/>
<path d="M167.5 308C167.5 322.672 156.495 334.5 143 334.5C129.505 334.5 118.5 322.672 118.5 308C118.5 293.328 129.505 281.5 143 281.5C156.495 281.5 167.5 293.328 167.5 308Z" fill="#BBABF7" fill-opacity="0.1" stroke="#7D5EF1"/>
<path d="M225.5 307C225.5 321.672 214.495 333.5 201 333.5C187.505 333.5 176.5 321.672 176.5 307C176.5 292.328 187.505 280.5 201 280.5C214.495 280.5 225.5 292.328 225.5 307Z" fill="#BBABF7" fill-opacity="0.1" stroke="#7D5EF1"/>
<path d="M166.5 316.5C171.838 313.101 174.264 313.469 178 316.5M112.5 290L120 298.5" stroke="#7755F1" stroke-linecap="round" stroke-linejoin="round"/>
<ellipse cx="194" cy="261" rx="13" ry="10" fill="#D6CDFB"/>
<path d="M133 358C147 371 162 373.5 174 371.613" stroke="#7655F1" stroke-linecap="round"/>
<path fill-rule="evenodd" clip-rule="evenodd" d="M121.559 516.857C121.771 516.681 122.086 516.709 122.263 516.921C122.44 517.133 122.411 517.449 122.199 517.626C104.842 532.094 83.2785 540.477 62.2809 548.64C61.0574 549.115 59.8359 549.59 58.6173 550.066C36.511 558.687 15.3581 567.441 0.5 583.198V581.751C15.4938 566.283 36.5321 557.606 58.2539 549.134C59.4592 548.664 60.6666 548.194 61.8753 547.725L61.8766 547.724C82.9122 539.545 104.332 531.217 121.559 516.857Z" fill="#EEEAFC"/>
<path fill-rule="evenodd" clip-rule="evenodd" d="M136.415 527.279C136.569 527.05 136.508 526.739 136.279 526.585C136.05 526.431 135.739 526.492 135.585 526.721C121.709 547.354 114.091 560.311 108.337 570.099L108.337 570.1C106.583 573.083 105.002 575.772 103.47 578.294C96.9448 589.034 91.2842 596.784 76.7908 611.5H78.1928C92.227 597.187 97.8596 589.454 104.324 578.813C105.863 576.28 107.448 573.584 109.205 570.596L109.205 570.595C114.959 560.808 122.558 547.884 136.415 527.279Z" fill="#EEEAFC"/>
</svg>
