<svg width="344" height="608" viewBox="0 0 344 608" fill="none" xmlns="http://www.w3.org/2000/svg">
<path fill-rule="evenodd" clip-rule="evenodd" d="M145.284 384C-7.94535 397.341 -1.89645 528.186 0.949096 589.738C1.27372 596.76 1.55665 602.881 1.55665 607.822H152.492L145.284 384Z" fill="#BBABF7"/>
<path fill-rule="evenodd" clip-rule="evenodd" d="M129.126 607.5H223.418C290.382 561.32 353.092 470.125 342.683 459.521C262.683 378.021 242.183 371.521 232.183 391.566C310.035 485.973 285.687 497.186 155.24 409.566C57.3086 414.692 144.246 471.737 202.338 509.855C251.91 542.382 280.478 561.127 155.24 522.066C164.97 529.567 155.057 549.396 144.595 570.324C138.174 583.167 131.547 596.425 129.126 607.5Z" fill="#BBABF7"/>
<path d="M39.1408 568.544H270.141V607.544H39.1408V568.544Z" fill="#BBABF7"/>
<path d="M286.641 580.544V581.544V586.044V590.544V591.044C286.641 591.044 286.641 591.515 286.641 591.682C286.5 601.044 286.641 599.044 286.641 607.544C275 607.544 261 607.544 245.5 607.544C245.5 603.493 254.171 583.305 256.808 580.544H53.3741C56.9156 583.38 73.5 602.982 73.5 607.544C54.5 607.544 34.1128 607.544 24.4478 607.544C24.5 595.544 24.4477 601.044 24.4477 594.044C24.4477 593.709 24.427 593.375 24.4477 593.044V591.544V581.157V580.544V471.018C23.8058 466.137 23.8404 460.825 24.6408 455.044C29.1408 422.544 96.6408 384 151.141 384C201.988 384 284.131 437.405 286.585 470.544H286.641V580.544Z" fill="#BBABF7"/>
<path d="M39.1408 568H270.141V607H39.1408V568Z" fill="#BBABF7"/>
<path d="M286.641 580H286.141V590H286.132C286.138 590.166 286.141 590.333 286.141 590.5C285.641 599.5 279.141 607.5 269.141 606C258.641 603 254.641 600 252.641 590.5C252.641 586.449 254.171 582.761 256.808 580H53.3741C56.9156 582.836 59.1408 586.938 59.1408 591.5C59.1408 600.061 51.3058 607 41.6408 607C31.1408 604 27.1408 601.5 25.1408 592C25.1408 591.665 25.1513 591.331 25.172 591H25.1408V580H24.4477V470.474C23.8058 465.593 23.8404 460.281 24.6408 454.5C29.1408 422 96.6408 383.456 151.141 383.456C201.988 383.456 284.131 436.861 286.585 470H286.641V580Z" fill="#BBABF7"/>
<path d="M270 395C292.303 411 286.248 402.99 286.247 430.876C286.247 455.5 288 481.5 281.604 463.517C277.842 467.638 255.791 412.994 242 395C246.928 369.495 253.608 383.241 270 395Z" fill="#BBABF7"/>
<path d="M149.107 311.388C149.678 314.652 149.09 317.482 147.186 317.815C145.282 318.148 141.305 316.117 140.734 312.853C140.163 309.589 140.985 305.195 142.889 304.862C145.844 304.345 148.536 308.124 149.107 311.388Z" fill="#7755F1"/>
<path d="M181.734 308.036C182.305 311.3 183.819 313.762 185.723 313.429C187.627 313.096 190.678 309.835 190.107 306.571C189.535 303.307 187.27 299.453 185.366 299.786C182.411 300.303 181.163 304.772 181.734 308.036Z" fill="#7755F1"/>
<path d="M187.641 391C185.141 398 176.933 408.5 160.641 408.5C144.348 408.5 130.142 395 124.141 388C154.64 375 138.347 375 154.64 375C170.932 375 154.64 375 187.641 391Z" fill="#EEEAFC"/>
<rect x="135.141" y="347" width="39" height="45" fill="#EEEAFC"/>
<path fill-rule="evenodd" clip-rule="evenodd" d="M232.408 308.907C236.542 305.166 240.158 298.043 242.641 284.5C242.641 262 224.082 257.5 214.141 257.5C204.2 257.5 201.641 271.5 205.141 285.5C206.199 289.734 206.568 293.446 206.798 296.677C201.075 304.497 196.141 315.839 196.141 321C196.141 329.284 196.141 337.5 210.141 335C215.555 334.033 223.822 330 229.141 321C230.957 317.925 232.233 313.509 232.408 308.907ZM119.052 293.28C119.11 292.694 119.141 292.1 119.141 291.5C119.141 281.283 110.41 273 99.6406 273C88.8711 273 80.1406 281.283 80.1406 291.5C80.1406 298.736 84.5195 305.002 90.9005 308.042C90.7296 309.006 90.6406 309.994 90.6406 311C90.6406 321.493 103.141 333.5 118.141 331.5C129.462 331.5 132.141 321.493 132.141 311C132.141 302.929 126.711 296.033 119.052 293.28Z" fill="#D6CCFB"/>
<path fill-rule="evenodd" clip-rule="evenodd" d="M169.111 367C184.641 367 207.641 344.794 207.641 310C213.141 274.5 193.621 246 162.141 246C137.278 246 122.683 260.163 117.645 283.257C109.994 284.844 104.141 293.513 104.141 302C104.141 310.279 109.711 317.176 117.087 318.691C122.461 346.27 142.359 367 169.111 367Z" fill="#EEEAFC"/>
<path d="M157.141 277.5C157.141 279.157 152.141 282.556 148.141 283C143.641 283.5 141.641 284 141.141 282C141.141 280 145.141 276.562 149.641 276C153.641 275.5 157.141 275.843 157.141 277.5Z" fill="#7755F1"/>
<path d="M194.641 281.5C194.141 282.5 190.641 283 187.641 282.5C181.141 280 182.641 277 183.141 276C184.641 275 186.141 275.5 189.641 276C193.141 277 194.641 280.5 194.641 281.5Z" fill="#7755F1"/>
<path d="M174.141 305C174.282 312.887 174.807 317.023 177.141 323.5C171.033 324.413 168.469 325.167 165.641 327" stroke="#7755F1" stroke-width="3" stroke-linecap="round" stroke-linejoin="round"/>
<ellipse cx="195.141" cy="256" rx="13" ry="10" fill="#D6CDFB"/>
<path d="M134.141 353C148.141 366 163.141 368.5 175.141 366.613" stroke="#7655F1" stroke-linecap="round"/>
<path d="M112 284L119.5 295" stroke="#BBABF7" stroke-width="4" stroke-linecap="round"/>
<path d="M176.275 299.216C176.275 302.695 187.258 323.891 200.425 323.891C211.975 323.891 215.65 311.62 215.65 308.141C215.65 304.661 212.5 285.041 193.6 286.091C176.525 287.039 176.275 295.736 176.275 299.216Z" fill="#7755F1"/>
<path d="M162.543 291.417C165.693 302.442 155.648 318.717 153.618 318.717C151.589 318.717 139.443 328.167 129.993 321.342C121.594 304.017 130.589 291.417 132.618 291.417C135.768 291.417 144.168 284.067 162.543 291.417Z" fill="#7755F1"/>
<path d="M120.188 297.584H127.888C128.468 297.584 129.024 297.363 129.434 296.969C129.845 296.576 130.075 296.042 130.075 295.486C130.075 294.93 129.845 294.397 129.434 294.003C129.024 293.61 128.468 293.389 127.888 293.389H120.188C119.607 293.389 119.051 293.61 118.641 294.003C118.23 294.397 118 294.93 118 295.486C118 296.042 118.23 296.576 118.641 296.969C119.051 297.363 119.607 297.584 120.188 297.584ZM213.113 297.584H220.812C221.393 297.584 221.949 297.363 222.359 296.969C222.77 296.576 223 296.042 223 295.486C223 294.93 222.77 294.397 222.359 294.003C221.949 293.61 221.393 293.389 220.812 293.389H213.113C212.532 293.389 211.976 293.61 211.566 294.003C211.155 294.397 210.925 294.93 210.925 295.486C210.925 296.042 211.155 296.576 211.566 296.969C211.976 297.363 212.532 297.584 213.113 297.584Z" fill="#3C3B41"/>
<path d="M120.188 293.389H126.75C128.788 290.784 131.43 288.67 134.467 287.214C137.505 285.758 140.854 285 144.25 285H196.75C200.146 285 203.495 285.758 206.533 287.214C209.57 288.67 212.212 290.784 214.25 293.389H220.812C221.393 293.389 221.949 293.61 222.359 294.003C222.77 294.397 223 294.93 223 295.486C223 296.043 222.77 296.576 222.359 296.969C221.949 297.363 221.393 297.584 220.812 297.584H216.788C217.996 300.229 218.621 303.085 218.625 305.973C218.625 319.102 212.062 326.945 201.125 326.945C189.312 326.945 175.706 310.167 174.875 298.59C173.492 298.023 172.004 297.73 170.5 297.73C168.996 297.73 167.508 298.023 166.125 298.59C165.294 310.167 151.688 326.945 139.875 326.945C128.938 326.945 122.375 319.102 122.375 305.973C122.379 303.085 123.004 300.229 124.213 297.584H120.188C119.607 297.584 119.051 297.363 118.641 296.969C118.23 296.576 118 296.043 118 295.486C118 294.93 118.23 294.397 118.641 294.003C119.051 293.61 119.607 293.389 120.188 293.389ZM201.125 322.751C212.544 322.751 214.25 312.222 214.25 305.973C214.25 301.523 212.406 297.255 209.124 294.109C205.842 290.962 201.391 289.195 196.75 289.195C184.062 289.195 179.25 289.908 179.25 297.584C179.25 306.937 191.675 322.751 201.125 322.751ZM165.775 294.144C168.856 293.25 172.144 293.25 175.225 294.144C175.553 292.31 176.401 290.598 177.675 289.195H163.281C164.571 290.593 165.434 292.306 165.775 294.144ZM139.875 322.751C149.325 322.751 161.75 306.937 161.75 297.584C161.75 289.908 156.938 289.195 144.25 289.195C139.609 289.195 135.158 290.962 131.876 294.109C128.594 297.255 126.75 301.523 126.75 305.973C126.75 312.222 128.456 322.751 139.875 322.751Z" fill="#BBABF7"/>
<path d="M135.258 295.722C135.447 299.031 134.99 300.349 132.971 301.553C135.132 301.676 135.758 303.084 136.159 307.23C136.062 303.213 136.264 301.367 138.539 301.117C136.209 300.395 135.581 299.095 135.258 295.722Z" fill="#D6CDFB"/>
<path fill-rule="evenodd" clip-rule="evenodd" d="M182.126 258.028C182.259 257.948 182.391 257.867 182.521 257.786C184.5 258.017 186.699 258.251 189.141 258.5C190.444 258.385 191.774 258.349 193.116 258.37C199.522 264.988 203.131 273.149 207.121 282.5C214.3 282.5 220.121 268.127 220.121 261.5C220.121 260.369 219.951 259.275 219.634 258.237C222.193 256.131 222.896 251.851 220.641 243.699C218.641 232.5 207.448 223.199 193.641 223.199C186.261 222.245 178.127 224.248 172.021 227.575C167.955 222.337 161.028 219 151.141 219C135.44 219 124.004 229.299 122.348 240.663C120.327 240.541 117.946 240.64 115.141 241C101.641 241 88.1406 255.059 88.1406 265C88.1406 274.941 99.4381 285 112.141 285C129.001 283.073 132.402 275.577 133.522 260.276C134.132 260.61 134.761 260.924 135.41 261.217C140.363 264.114 148.12 266 155.641 266C166.89 265.598 178.139 262.518 182.126 258.028Z" fill="#D6CDFB"/>
<circle cx="131.302" cy="480.057" r="27.3019" fill="#D6CDFB" stroke="#EEEAFC" stroke-width="2"/>
<circle cx="134.698" cy="479.302" r="27.3019" fill="#D6CDFB" stroke="#EEEAFC" stroke-width="2"/>
<path d="M136.75 480.909H127.886V479.034H136.75C137.568 479.034 138.244 478.892 138.778 478.608C139.313 478.318 139.71 477.926 139.972 477.432C140.233 476.932 140.364 476.364 140.364 475.727C140.364 475.091 140.233 474.526 139.972 474.031C139.71 473.531 139.313 473.139 138.778 472.855C138.244 472.565 137.568 472.42 136.75 472.42H132.761V488H130.648V470.545H136.75C138.045 470.545 139.114 470.781 139.955 471.253C140.795 471.724 141.42 472.352 141.83 473.136C142.239 473.92 142.443 474.784 142.443 475.727C142.443 476.67 142.239 477.534 141.83 478.318C141.42 479.102 140.795 479.73 139.955 480.202C139.114 480.673 138.045 480.909 136.75 480.909ZM136.614 482.545V484.42H127.886V482.545H136.614Z" fill="#EEEAFC"/>
<path d="M248 334.5L255.5 370" stroke="#EEEAFC" stroke-width="10" stroke-linecap="round"/>
<path d="M247.5 329C252.341 341.583 256.52 360.37 255.5 360.5" stroke="#7452F1" stroke-linecap="round"/>
<path d="M220.5 357.5L239 349.5L251.5 363L243 385L236 386L220.5 381L217.5 367.5" stroke="#EEEAFC" stroke-width="10" stroke-linecap="round"/>
<path d="M253 329C263.932 359.901 259.5 380 253 387C246.5 394 217.5 389.5 221 380" stroke="#EEEAFC" stroke-width="10" stroke-linecap="round"/>
<path d="M257 365.5C257 371.023 251.023 394.5 245.5 394.5C239.977 394.5 216 383.023 216 377.5C216 371.977 228.477 377.5 234 377.5C239.523 377.5 257 359.977 257 365.5Z" fill="#EEEAFC"/>
<path d="M110.5 457L98 472.5L91.1396 488L99.6396 510L106.64 511L121 512L133 507.5" stroke="#EEEAFC" stroke-width="10" stroke-linecap="round"/>
<path d="M106 458.5C86 479 82.6217 512.821 90.1544 518.695C97.6871 524.57 111.001 518.695 120 512.5" stroke="#EEEAFC" stroke-width="10" stroke-linecap="round"/>
<path d="M88.8351 476C86.9664 481.197 83.6381 513.981 88.8351 515.85C94.0322 517.719 120.479 515.032 122.347 509.835C99.8838 505.977 98.9999 479.5 98.9999 476C101.5 460.5 90.7039 470.803 88.8351 476Z" fill="#EEEAFC"/>
<path d="M264 435C268.5 441 276.5 448.5 286.5 463" stroke="#EEEAFC" stroke-linecap="round"/>
<path d="M154.264 337.209L172 338C170 341.5 170 342 167.5 345.5L154.264 341.553V337.209Z" fill="#D6CCFB"/>
<path d="M172 338.5L168 345" stroke="#7452F1" stroke-width="2" stroke-linecap="round"/>
<path d="M153.227 335.079C157.16 338.343 163.541 339.227 172 338.209" stroke="#7755F1" stroke-width="3" stroke-linecap="round" stroke-linejoin="round"/>
<path d="M153.338 335.209C151.759 336.291 155.578 345.576 167.769 345.209" stroke="#7452F1" stroke-width="3" stroke-linecap="round"/>
<path d="M156.418 333.168C156.597 336.566 156.001 337.929 153.451 339.201C156.156 339.289 156.914 340.725 157.343 344.98C157.293 340.853 157.578 338.952 160.43 338.655C157.526 337.954 156.763 336.629 156.418 333.168Z" fill="#EEEAFC"/>
<path d="M247.481 67.7505C247.484 67.8052 247.484 67.8601 247.48 67.9147V67.9147C247.464 68.1174 247.377 68.308 247.234 68.4527V68.4527L244.874 70.7838C244.796 70.8682 244.702 70.9359 244.597 70.9827C244.492 71.0296 244.378 71.0547 244.263 71.0566C244.148 71.0584 244.034 71.0369 243.927 70.9934C243.821 70.9499 243.724 70.8852 243.643 70.8034C243.562 70.7215 243.499 70.6241 243.457 70.5171C243.414 70.4101 243.394 70.2956 243.398 70.1805C243.401 70.0655 243.427 69.9523 243.475 69.8478C243.524 69.7433 243.592 69.6497 243.678 69.5725L244.551 68.6943L180.693 68.3053C180.467 68.3039 180.251 68.2128 180.092 68.052C179.933 67.8912 179.844 67.6739 179.846 67.4479L180.235 3.58979L179.354 4.43663C179.276 4.52102 179.181 4.58869 179.076 4.63557C178.971 4.68245 178.858 4.70756 178.743 4.7094C178.628 4.71123 178.513 4.68974 178.407 4.64623C178.3 4.60272 178.204 4.53808 178.123 4.45622C178.042 4.37436 177.978 4.27697 177.936 4.16993C177.894 4.06288 177.874 3.9484 177.877 3.83337C177.88 3.71835 177.907 3.60518 177.955 3.50067C178.003 3.39616 178.072 3.30249 178.157 3.22531L180.517 0.894169L180.564 0.847546C180.694 0.740647 180.852 0.673707 181.019 0.654857L181.183 0.655857C181.389 0.669762 181.582 0.756944 181.729 0.901552V0.901552L184.06 3.26127C184.219 3.422 184.307 3.63905 184.305 3.86478C184.304 4.0905 184.213 4.30646 184.053 4.46525C183.974 4.54467 183.88 4.60756 183.776 4.65024C183.672 4.69293 183.561 4.71456 183.449 4.71388C183.337 4.71319 183.226 4.69021 183.123 4.64626C183.02 4.60232 182.927 4.53829 182.849 4.45792L181.939 3.60017L181.555 66.6061L244.561 66.99L243.691 66.109C243.544 65.9462 243.465 65.7329 243.471 65.5134C243.477 65.294 243.568 65.0854 243.724 64.9311C243.88 64.7768 244.09 64.6888 244.309 64.6853C244.529 64.6818 244.741 64.7631 244.902 64.9124L247.233 67.2721L247.233 67.319C247.348 67.4447 247.418 67.6043 247.434 67.7737L247.481 67.7505ZM247.758 13.3128C247.761 13.2843 247.761 13.2555 247.758 13.2268C247.727 13.1647 247.688 13.1066 247.642 13.0541L247.564 12.9833C247.516 12.9353 247.461 12.8953 247.401 12.865L247.237 12.8171L247.198 12.8169C247.124 12.7958 247.048 12.7823 246.971 12.7764L241.202 12.7413C240.976 12.7399 240.758 12.8283 240.597 12.9872C240.437 13.146 240.346 13.3622 240.344 13.5882C240.343 13.8142 240.431 14.0315 240.59 14.1923C240.749 14.3531 240.965 14.4442 241.191 14.4456L245.311 14.4707L234.808 29.1522L223.619 21.594L223.478 21.5384C223.425 21.5113 223.371 21.4875 223.315 21.467C223.257 21.4628 223.2 21.4624 223.143 21.466C223.091 21.4618 223.038 21.4614 222.986 21.465C222.929 21.4786 222.874 21.4993 222.822 21.5266L222.681 21.5805C222.638 21.6153 222.598 21.6543 222.563 21.697C222.52 21.7291 222.48 21.7656 222.445 21.8058L211.05 37.7093L200.025 30.2928C199.841 30.1667 199.616 30.1174 199.396 30.1555C199.177 30.1936 198.981 30.3161 198.851 30.4968L187.022 47.0935C186.957 47.1849 186.911 47.2883 186.886 47.3976C186.861 47.5069 186.858 47.6201 186.877 47.7306C186.896 47.8411 186.937 47.9468 186.996 48.0416C187.056 48.1364 187.134 48.2185 187.226 48.2831C187.37 48.3845 187.541 48.44 187.717 48.4425C187.854 48.4427 187.988 48.4107 188.109 48.3489C188.231 48.2871 188.336 48.1974 188.415 48.0871L199.755 32.1363L210.765 39.5683L210.804 39.5686C210.88 39.6141 210.961 39.6488 211.046 39.6717L211.132 39.6722L211.234 39.6728C211.234 39.6728 211.281 39.6731 211.312 39.6733C211.39 39.667 211.466 39.649 211.539 39.6199L211.657 39.5737C211.744 39.5243 211.822 39.4584 211.885 39.3797C211.885 39.3797 211.924 39.3799 211.94 39.3331L223.334 23.4608L234.359 30.9086C234.499 30.9996 234.661 31.0494 234.827 31.0521L234.976 31.053L235.101 31.0538C235.237 31.0547 235.372 31.0229 235.493 30.9611C235.615 30.8992 235.72 30.8092 235.799 30.6984L246.098 16.2972L246.08 19.2211C246.078 19.4471 246.167 19.6644 246.326 19.8252C246.485 19.986 246.701 20.0771 246.927 20.0785C247.153 20.0799 247.37 19.9914 247.531 19.8326C247.692 19.6737 247.783 19.4575 247.784 19.2315L247.818 13.6181C247.819 13.5133 247.798 13.4095 247.758 13.3128V13.3128ZM189.976 56.3059L201.355 40.3866L212.357 47.8264L212.396 47.8266C212.469 47.8768 212.551 47.9118 212.638 47.9297L212.724 47.9303L212.825 47.9309L212.896 47.9313C212.976 47.9219 213.054 47.904 213.131 47.878L213.248 47.824C213.336 47.7746 213.413 47.7087 213.476 47.6299L213.531 47.5912L224.933 31.7112L235.959 39.1589C236.097 39.2519 236.26 39.3019 236.427 39.3025L236.575 39.3034L236.693 39.3041C236.83 39.3056 236.966 39.2741 237.089 39.2123C237.212 39.1504 237.318 39.0601 237.399 38.9487L247.595 24.6876C247.726 24.5038 247.78 24.2753 247.743 24.0522C247.706 23.8291 247.582 23.6297 247.399 23.498C247.215 23.3662 246.986 23.3129 246.763 23.3496C246.54 23.3864 246.341 23.5103 246.209 23.694L236.407 37.4025L225.242 29.8444C225.197 29.8187 225.15 29.7975 225.101 29.781C225.052 29.7533 225 29.7319 224.945 29.7175C224.881 29.709 224.815 29.7086 224.75 29.7164L224.617 29.7155C224.556 29.7352 224.495 29.7583 224.437 29.7848C224.392 29.7961 224.35 29.8143 224.311 29.8388C224.266 29.8704 224.224 29.9069 224.186 29.9475C224.186 29.9475 224.107 30.0174 224.075 30.0563L212.634 45.9595L201.616 38.5118C201.433 38.3869 201.208 38.3391 200.99 38.3787C200.772 38.4183 200.578 38.5422 200.45 38.7236L188.622 55.3125C188.557 55.404 188.511 55.5073 188.486 55.6166C188.461 55.726 188.458 55.8391 188.477 55.9497C188.496 56.0602 188.536 56.1659 188.596 56.2607C188.656 56.3555 188.734 56.4375 188.825 56.5022C188.964 56.6078 189.135 56.6639 189.309 56.6615C189.44 56.6569 189.568 56.6225 189.684 56.5608C189.799 56.4992 189.899 56.412 189.976 56.3059V56.3059Z" fill="#BBABF7"/>
<path d="M245.33 150.844C245.539 150.844 245.74 150.761 245.888 150.613C246.036 150.465 246.119 150.264 246.119 150.055V147.426C246.118 146.74 245.846 146.083 245.361 145.598C244.876 145.113 244.219 144.84 243.533 144.839H239.29L238.322 141.983C238.257 141.789 238.118 141.628 237.935 141.534C237.753 141.44 237.541 141.421 237.345 141.481L214.367 148.466C214.176 148.536 214.02 148.675 213.93 148.856C213.839 149.038 213.822 149.247 213.881 149.44C213.94 149.634 214.071 149.797 214.247 149.897C214.423 149.997 214.631 150.026 214.828 149.977L237.073 143.213L239.194 149.474C239.261 149.672 239.404 149.835 239.592 149.928C239.78 150.021 239.997 150.035 240.195 149.968C240.393 149.901 240.557 149.757 240.649 149.57C240.742 149.382 240.756 149.165 240.689 148.967L239.826 146.417H243.535C244.09 146.417 244.542 146.868 244.542 147.424V150.055C244.54 150.49 244.894 150.844 245.33 150.844Z" fill="#BBABF7"/>
<path d="M251.632 162.686C251.422 162.686 251.221 162.769 251.073 162.917C250.925 163.066 250.842 163.266 250.842 163.476C250.842 163.685 250.925 163.886 251.073 164.034C251.221 164.182 251.422 164.265 251.632 164.265C252.186 164.265 252.421 164.5 252.421 165.055V174.528C252.421 175.083 252.186 175.318 251.632 175.318H239C238.446 175.318 238.211 175.083 238.211 174.528V166.634C238.211 166.079 238.446 165.844 239 165.844H248.474C248.683 165.844 248.884 165.761 249.032 165.613C249.18 165.465 249.263 165.264 249.263 165.055V155.581C249.263 154.143 248.333 153.213 246.895 153.213H198.737C196.79 153.213 195.579 152.001 195.579 150.055C195.579 148.108 196.79 146.897 198.737 146.897H206.752L201.974 148.473C201.872 148.502 201.777 148.552 201.694 148.619C201.612 148.686 201.544 148.769 201.494 148.863C201.445 148.956 201.415 149.059 201.406 149.165C201.397 149.271 201.409 149.378 201.443 149.478C201.476 149.579 201.529 149.672 201.599 149.752C201.669 149.832 201.755 149.897 201.851 149.943C201.946 149.989 202.05 150.015 202.156 150.02C202.262 150.025 202.368 150.008 202.468 149.971L231.077 140.54C231.175 140.507 231.266 140.456 231.345 140.388C231.424 140.32 231.488 140.238 231.535 140.145C231.581 140.052 231.609 139.951 231.617 139.848C231.624 139.744 231.612 139.641 231.579 139.542C231.546 139.444 231.495 139.352 231.427 139.274C231.359 139.195 231.277 139.131 231.184 139.084C231.091 139.038 230.99 139.01 230.887 139.002C230.783 138.995 230.68 139.007 230.581 139.04L211.476 145.34C211.439 145.334 211.406 145.318 211.368 145.318H198.737C195.904 145.318 194 147.222 194 150.055V184.791C194 187.624 195.904 189.528 198.737 189.528H246.895C248.333 189.528 249.263 188.598 249.263 187.16V179.265C249.263 179.056 249.18 178.855 249.032 178.707C248.884 178.559 248.683 178.476 248.474 178.476C248.264 178.476 248.063 178.559 247.915 178.707C247.767 178.855 247.684 179.056 247.684 179.265V187.16C247.684 187.714 247.449 187.949 246.895 187.949H198.737C196.79 187.949 195.579 186.738 195.579 184.791V153.705C196.389 154.389 197.461 154.791 198.737 154.791H246.895C247.449 154.791 247.684 155.027 247.684 155.581V164.265H239C237.562 164.265 236.632 165.195 236.632 166.634V174.528C236.632 175.967 237.562 176.897 239 176.897H251.632C253.07 176.897 254 175.967 254 174.528V165.055C254 163.616 253.07 162.686 251.632 162.686Z" fill="#BBABF7"/>
<path d="M244.526 172.16C245.398 172.16 246.105 171.453 246.105 170.581C246.105 169.709 245.398 169.002 244.526 169.002C243.654 169.002 242.947 169.709 242.947 170.581C242.947 171.453 243.654 172.16 244.526 172.16Z" fill="#BBABF7"/>
<path d="M104.588 95.3468L104.588 95.3469C100.73 100.701 95.4416 104.624 91.1467 107.202C88.995 108.494 87.0819 109.454 85.7048 110.092C85.0161 110.411 84.4607 110.65 84.0759 110.81C83.8834 110.89 83.7336 110.95 83.6309 110.99C83.6197 110.995 83.609 110.999 83.5989 111.003C83.1444 111.412 82.925 111.807 82.8254 112.152C82.7177 112.525 82.7348 112.893 82.8176 113.234C82.9012 113.579 83.0484 113.882 83.1797 114.103C83.2444 114.211 83.3028 114.296 83.3432 114.351C83.3633 114.379 83.3787 114.399 83.3878 114.41L83.3963 114.421L83.3966 114.421L83.3972 114.422L104.215 139.068C104.225 139.078 104.251 139.099 104.293 139.128C104.382 139.187 104.551 139.281 104.825 139.361C105.367 139.517 106.355 139.623 107.986 139.233C108.009 139.224 108.042 139.211 108.084 139.194C108.179 139.157 108.32 139.1 108.504 139.024C108.872 138.872 109.409 138.641 110.077 138.332C111.416 137.712 113.28 136.778 115.378 135.52C119.582 132.998 124.68 129.202 128.371 124.078L128.372 124.077C132.362 118.541 137.935 114.921 142.475 112.69C144.75 111.572 146.778 110.797 148.24 110.3C148.971 110.052 149.561 109.873 149.971 109.756C150.169 109.699 150.325 109.656 150.434 109.627C150.866 109.229 151.077 108.845 151.175 108.508C151.282 108.135 151.265 107.766 151.182 107.424C151.099 107.079 150.952 106.776 150.821 106.555C150.756 106.446 150.698 106.361 150.657 106.306C150.637 106.278 150.622 106.259 150.613 106.247L150.606 106.238L150.605 106.238L150.605 106.237L150.604 106.236L150.604 106.236L150.603 106.235L129.786 81.593C129.775 81.5837 129.75 81.5621 129.707 81.5332C129.618 81.4736 129.449 81.379 129.175 81.2995C128.628 81.1411 127.627 81.0326 125.969 81.4342L125.969 81.4342L125.969 81.4343L125.968 81.4345L125.962 81.4359L125.936 81.4426C125.911 81.4488 125.874 81.4584 125.824 81.4715C125.724 81.4978 125.575 81.5382 125.381 81.5937C124.992 81.7048 124.426 81.8762 123.719 82.1158C122.307 82.5952 120.341 83.346 118.135 84.4294C113.714 86.6005 108.38 90.0833 104.588 95.3468Z" fill="#7452F1" stroke="#BBABF7" stroke-width="1.5"/>
<path d="M99.5256 100.98L123.559 129.444C125.289 127.847 126.942 126.069 128.374 124.08L128.374 124.08C129.906 121.954 131.675 120.127 133.518 118.544L109.486 90.0803C107.718 91.5986 106.038 93.3361 104.59 95.3466L104.59 95.3467C103.073 97.4527 101.332 99.3206 99.5256 100.98Z" fill="#7452F1" stroke="#BBABF7" stroke-width="1.5"/>
<path d="M145.268 139.037L145.472 138.845L145.73 138.602L145.687 138.567C145.688 138.567 145.688 138.567 145.688 138.566C145.756 138.482 145.796 138.437 145.827 138.401C145.859 138.365 145.882 138.339 145.917 138.292C145.95 138.243 145.976 138.2 146.013 138.139C146.032 138.108 146.053 138.073 146.079 138.03L146.084 138.023L146.089 138.015C147.357 136.063 147.619 133.357 146.843 130.393C146.069 127.438 144.276 124.298 141.553 121.575C138.831 118.854 135.692 117.061 132.737 116.287C129.773 115.51 127.066 115.773 125.114 117.041L125.104 117.048L125.094 117.053C125.061 117.073 125.033 117.091 125.007 117.106C124.938 117.148 124.89 117.176 124.838 117.213C124.791 117.248 124.758 117.276 124.712 117.315C124.677 117.346 124.633 117.384 124.568 117.438L124.568 117.438L124.561 117.443C124.482 117.506 124.422 117.552 124.374 117.589C124.337 117.616 124.306 117.64 124.278 117.662L124.091 117.861C122.356 119.702 122.362 122.52 124.064 124.226C125.771 125.93 128.587 125.933 130.43 124.197L130.96 123.699L131.475 124.213L131.496 124.235L132.027 124.765L131.496 125.296C131.465 125.328 131.435 125.353 131.412 125.372C131.391 125.389 131.372 125.404 131.362 125.412L131.36 125.413C131.358 125.415 131.357 125.416 131.355 125.417C129.535 127.253 129.519 130.138 131.253 131.878C132.989 133.612 135.879 133.596 137.714 131.773C137.714 131.773 137.714 131.773 137.714 131.772L137.725 131.757L137.743 131.735C137.756 131.718 137.774 131.695 137.795 131.67L138.346 131.032L138.916 131.654L138.938 131.677L139.408 132.191L138.931 132.698C137.195 134.544 137.198 137.357 138.905 139.065C140.611 140.768 143.425 140.773 145.268 139.037ZM145.731 138.601L145.798 138.538L146.283 139.024C146.312 138.988 146.342 138.953 146.372 138.919C146.425 138.856 146.479 138.794 146.526 138.729C146.578 138.656 146.622 138.581 146.668 138.506C146.684 138.479 146.701 138.451 146.718 138.424L145.731 138.601Z" fill="#7452F1" stroke="#BBABF7" stroke-width="1.5"/>
<path d="M87.6373 77.3424C87.5519 77.4116 87.4904 77.4583 87.4409 77.496C87.4044 77.5238 87.3744 77.5466 87.3461 77.5698L87.2341 77.6888L87.2247 77.7009L87.2154 77.7086L87.1665 77.7606C85.431 79.6037 85.4354 82.4195 87.1408 84.125C88.8463 85.8304 91.6621 85.8348 93.5052 84.0993L94.0351 83.6004L94.5497 84.115L94.5717 84.1369L95.1158 84.681L94.5579 85.211C94.5082 85.2583 94.4587 85.2961 94.4388 85.3113L94.4351 85.3141C94.4319 85.3166 94.4292 85.3186 94.4271 85.3203C92.6079 87.1572 92.594 90.0415 94.3284 91.7776C96.0641 93.513 98.9528 93.496 100.79 91.6718C100.79 91.671 100.791 91.6701 100.792 91.6692L100.795 91.6652C100.801 91.6571 100.813 91.6419 100.824 91.6284C100.838 91.61 100.858 91.5857 100.882 91.559L101.435 90.9483L101.991 91.5554L102.013 91.5793L102.484 92.093L102.006 92.6003C100.271 94.4436 100.273 97.2574 101.981 98.9647C103.686 100.67 106.5 100.674 108.343 98.9373L108.549 98.743C108.569 98.7174 108.59 98.6897 108.615 98.6569C108.652 98.6086 108.697 98.5492 108.76 98.4696L108.76 98.4696L108.767 98.4614C108.816 98.4024 108.852 98.3605 108.881 98.326C108.925 98.2748 108.955 98.24 108.991 98.19C109.026 98.1422 109.049 98.1035 109.085 98.0452C109.104 98.0132 109.127 97.9753 109.158 97.9268L109.158 97.9267L109.164 97.917C110.432 95.9644 110.694 93.2571 109.917 90.2933C109.143 87.3379 107.35 84.1989 104.628 81.4772L104.628 81.4771C101.907 78.7544 98.7675 76.9611 95.8122 76.1868C92.8485 75.4103 90.1413 75.6726 88.1887 76.9412L88.1793 76.9474L88.1697 76.9532C88.1494 76.9656 88.1302 76.9771 88.1121 76.9881C88.0326 77.0362 87.9714 77.0733 87.9094 77.1153C87.8635 77.1495 87.838 77.172 87.8024 77.2032C87.7671 77.2342 87.722 77.2739 87.6373 77.3424ZM87.6373 77.3424C87.6374 77.3422 87.6376 77.3421 87.6377 77.342L87.6021 77.298L87.6012 77.299L87.6366 77.3429C87.6368 77.3427 87.637 77.3425 87.6373 77.3424Z" fill="#7452F1" stroke="#BBABF7" stroke-width="1.5"/>
<path d="M100.822 128.289L106.244 123.659" stroke="#BBABF7" stroke-width="1.5" stroke-linecap="round" stroke-linejoin="round"/>
<path d="M104.898 129.07L95.6381 118.226L99.3349 115.069C100.185 114.344 101.288 113.985 102.402 114.073C103.516 114.161 104.549 114.687 105.274 115.537C106 116.387 106.358 117.49 106.271 118.604C106.183 119.718 105.656 120.751 104.806 121.477L99.138 126.317" stroke="#BBABF7" stroke-width="1.5" stroke-linecap="round" stroke-linejoin="round"/>
<path fill-rule="evenodd" clip-rule="evenodd" d="M87.008 507.637C82.6592 511.003 76.3653 514.001 69.0753 516.71C61.7777 519.421 53.4467 521.855 45.0003 524.079C38.0018 525.923 30.9353 527.62 24.3043 529.212L24.3039 529.212C15.1519 531.41 6.82973 533.409 0.661622 535.317C0.681244 534.978 0.700579 534.623 0.719756 534.253C6.87583 532.37 15.118 530.39 24.1323 528.225L24.1324 528.225L24.1324 528.225C30.7601 526.633 37.8053 524.94 44.7456 523.112C53.1791 520.891 61.4741 518.467 68.727 515.772C75.9874 513.075 82.168 510.118 86.3959 506.846L87.008 507.637Z" fill="#EEEAFC"/>
<path fill-rule="evenodd" clip-rule="evenodd" d="M70.0875 563.508C64.1263 573.84 56.4508 587.144 42.4045 607.825H41.1953C55.4624 586.856 63.2038 573.438 69.2182 563.013C70.7087 560.43 72.0931 558.031 73.4445 555.746C80.3397 544.086 86.3651 535.428 101.146 520.646L101.853 521.354C87.1344 536.072 81.1599 544.664 74.3052 556.255C72.9579 558.533 71.5761 560.928 70.0875 563.508Z" fill="#EEEAFC"/>
</svg>
