<svg width="356" height="618" viewBox="0 0 356 618" fill="none" xmlns="http://www.w3.org/2000/svg">
<path fill-rule="evenodd" clip-rule="evenodd" d="M286.57 587H287.07V477H287.013C284.56 443.861 202.417 390.456 151.57 390.456C97.0695 390.456 29.5695 429 25.0695 461.5C24.2691 467.281 24.2345 472.593 24.8764 477.474V587L24.5 589V598L24.8764 598.5C24.8654 598.677 24.9011 598.853 24.9369 599.031C24.9684 599.187 25 599.343 25 599.5C26.8228 608.159 31.5532 610.587 39.5695 612.097V612.5H41.9015L42 612.516C42.3005 612.516 42.5992 612.51 42.8961 612.5H267.883C268.425 612.667 268.987 612.834 269.57 613C278.5 612 285 606.5 286.57 597.5C286.57 597.333 286.567 597.166 286.561 597H286.57V587Z" fill="#BBABF7"/>
<path fill-rule="evenodd" clip-rule="evenodd" d="M299.558 613H1.55574C1.53771 608.148 1.2629 602.204 0.949146 595.417C-1.95561 532.584 -8.19841 397.545 155.057 389C315.502 412.544 306.007 528.471 300.947 590.254C300.224 599.085 299.591 606.809 299.558 613Z" fill="#BBABF7"/>
<path d="M186.07 398C183.57 405 175.362 415.5 159.07 415.5C142.777 415.5 128.571 402 122.57 395C153.068 382 136.776 382 153.068 382C169.361 382 153.068 382 186.07 398Z" fill="#EEEAFC"/>
<rect x="133.57" y="354" width="39" height="45" fill="#EEEAFC"/>
<ellipse cx="98.0696" cy="298.5" rx="19.5" ry="18.5" fill="#D6CDFB"/>
<path d="M130.57 318C130.57 328.493 127.891 338.5 116.57 338.5C101.57 340.5 89.0696 328.493 89.0696 318C89.0696 307.507 98.7477 299 110.07 299C121.391 299 130.57 307.507 130.57 318Z" fill="#D6CDFB"/>
<path d="M241.07 291.5C235.57 321.5 224.511 320 214.57 320C202.07 316.5 207.445 308 203.57 292.5C200.07 278.5 202.629 264.5 212.57 264.5C222.511 264.5 241.07 269 241.07 291.5Z" fill="#D6CDFB"/>
<path d="M223.07 322C221.57 327.5 217.648 333 211.57 333C203.569 333 202.465 333.989 203.57 324C204.62 314.5 215.519 308.5 215.019 311.975C221.646 311.975 223.07 315.925 223.07 322Z" fill="#D9D9D9"/>
<path d="M211.57 317C211.57 320.866 209.779 324 207.57 324C205.36 324 203.77 326 204.57 318C205.07 313 207.86 303 210.07 303C212.279 303 211.57 313.134 211.57 317Z" fill="#D9D9D9"/>
<path d="M227.57 328C222.251 337 213.984 341.033 208.57 342C194.57 344.5 194.57 336.284 194.57 328C194.57 319.716 207.285 295.5 215.57 295.5C233.57 298.5 232.888 319 227.57 328Z" fill="#D6CCFB"/>
<path d="M135 309C135 318.389 127.837 326 119 326C110.163 326 103 318.389 103 309C103 299.611 110.163 290 119 290C127.837 290 135 299.611 135 309Z" fill="#EEEAFC"/>
<path d="M207 317C207 351.794 184 374 168.47 374C136.99 374 115 345.294 115 310.5C115 275.706 130.02 253 161.5 253C192.98 253 212.5 281.5 207 317Z" fill="#EEEAFC"/>
<path d="M174.82 248.293C174.82 260.719 164.07 270.793 147.82 270.793C132.07 271.5 120.57 261 120.57 250.5C120.57 238.074 132.57 226 149.57 226C166.57 226 174.82 235.866 174.82 248.293Z" fill="#D6CDFB"/>
<path d="M219.07 250.699C226.07 276 204.57 264 187.57 265.5C163.07 263 163.07 262.021 163.07 250.699C154.07 241.5 175.07 228 192.07 230.199C205.877 230.199 217.07 239.5 219.07 250.699Z" fill="#D6CDFB"/>
<path d="M218.55 268.5C218.55 275.127 212.729 289.5 205.55 289.5C201.07 279 197.07 270 189.05 263C186.55 257.5 198.37 256.5 205.55 256.5C212.729 256.5 218.55 261.873 218.55 268.5Z" fill="#D6CDFB"/>
<path d="M191.07 252.5C185.57 262 182.57 268 160.07 270.5C147.091 270.5 142.57 252.776 142.57 252.5C142.57 252.224 152.591 238.5 165.57 238.5C178.548 238.5 191.07 252.224 191.07 252.5Z" fill="#D6CDFB"/>
<path d="M132.07 265.5C131.07 282 128.07 290 110.57 292C97.867 292 86.5696 281.941 86.5696 272C86.5696 262.059 100.07 248 113.57 248C133.07 245.5 132.07 255.559 132.07 265.5Z" fill="#D6CDFB"/>
<path d="M182.07 261.5C182.07 267.851 168.07 272.5 154.07 273C141.643 273 128.57 267.851 128.57 261.5C128.57 255.149 141.643 250 154.07 250C166.496 250 182.07 255.149 182.07 261.5Z" fill="#D6CDFB"/>
<path d="M155.57 284.5C155.57 286.157 150.57 289.556 146.57 290C142.07 290.5 140.07 291 139.57 289C139.57 287 143.57 283.562 148.07 283C152.07 282.5 155.57 282.843 155.57 284.5Z" fill="#7755F1"/>
<path d="M193.069 288.5C192.569 289.5 189.069 290 186.069 289.5C179.569 287 181.069 284 181.569 283C183.069 282 184.569 282.5 188.069 283C191.569 284 193.069 287.5 193.069 288.5Z" fill="#7755F1"/>
<path d="M172.57 312C172.711 319.887 173.236 324.023 175.57 330.5C169.462 331.413 166.898 332.167 164.07 334" stroke="#7755F1" stroke-width="3" stroke-linecap="round" stroke-linejoin="round"/>
<path d="M167.07 310C167.07 324.672 156.065 336.5 142.57 336.5C129.074 336.5 118.07 324.672 118.07 310C118.07 295.328 129.074 283.5 142.57 283.5C156.065 283.5 167.07 295.328 167.07 310Z" fill="#BBABF7" fill-opacity="0.1" stroke="#7D5EF1"/>
<path d="M225.07 309C225.07 323.672 214.065 335.5 200.57 335.5C187.074 335.5 176.07 323.672 176.07 309C176.07 294.328 187.074 282.5 200.57 282.5C214.065 282.5 225.07 294.328 225.07 309Z" fill="#BBABF7" fill-opacity="0.1" stroke="#7D5EF1"/>
<path d="M166.07 318.5C171.408 315.101 173.834 315.469 177.57 318.5M112.07 292L119.57 300.5" stroke="#7755F1" stroke-linecap="round" stroke-linejoin="round"/>
<ellipse cx="193.57" cy="263" rx="13" ry="10" fill="#D6CDFB"/>
<path d="M132.5 359C146.5 372 161.57 375.5 173.57 373.613" stroke="#7655F1" stroke-linecap="round"/>
<ellipse rx="5" ry="10.5" transform="matrix(-0.934013 0.357238 0.357238 0.934013 211.091 371.593)" fill="#EEEAFC"/>
<ellipse rx="5" ry="10.5" transform="matrix(-0.934013 0.357238 0.357238 0.934013 206.421 373.379)" fill="#EEEAFC"/>
<path d="M207.34 361.786L202.67 363.572L210.172 383.187L214.842 381.4L207.34 361.786Z" fill="#EEEAFC"/>
<path d="M185 313.154C187.595 308.507 193.437 306.475 198.007 308.994" stroke="#7755F1" stroke-width="3" stroke-linecap="round" stroke-linejoin="round"/>
<path d="M155.664 314.32C153.14 309.247 148.214 307.058 139.029 309.372" stroke="#7755F1" stroke-width="3" stroke-linecap="round" stroke-linejoin="round"/>
<path d="M185 313.154C187.595 308.507 193.437 306.475 198.007 308.994" stroke="#7755F1" stroke-width="3" stroke-linecap="round" stroke-linejoin="round"/>
<path d="M155.664 314.32C153.14 309.247 148.214 307.058 139.029 309.372" stroke="#7755F1" stroke-width="3" stroke-linecap="round" stroke-linejoin="round"/>
<path d="M224.199 429.044C163 511 112.5 595 24.9999 577.5" stroke="#EEEAFC"/>
<path d="M218 419.5C216.228 419.43 208.561 424.977 207 423C199.5 413.5 223.096 388.742 224.868 388.812C226.64 388.882 228.331 390.631 227.17 395.633C227.06 398.416 222.657 407.345 218 419.5Z" fill="#EEEAFC"/>
<rect width="18.3068" height="45.3509" transform="matrix(-0.934013 0.357238 0.357238 0.934013 229.632 367.893)" fill="#EEEAFC"/>
<ellipse rx="9.15338" ry="1.64912" transform="matrix(-0.934013 0.357238 0.357238 0.934013 237.283 413.521)" fill="#EEEAFC"/>
<ellipse rx="10" ry="21" transform="matrix(-0.934013 0.357238 0.357238 0.934013 225.115 365.338)" fill="#EEEAFC"/>
<ellipse rx="10" ry="21" transform="matrix(-0.934013 0.357238 0.357238 0.934013 215.774 368.911)" fill="#EEEAFC"/>
<path d="M217.613 345.724L208.272 349.297L223.276 388.525L232.617 384.953L217.613 345.724Z" fill="#EEEAFC"/>
<path d="M239.5 429C225.754 433.147 210.479 434.371 207.365 424.049C204.251 413.727 228.681 394.068 231.426 393.791C241 387 254.5 388 258.5 404.5C256 435.5 250.572 425.66 239.5 429Z" fill="#EEEAFC"/>
<path d="M259.504 408.678C254.004 406.178 250.504 407.178 244.004 407.678" stroke="#7452F1" stroke-linecap="round"/>
<path d="M257.5 418C253 418 247.5 419 243.5 418" stroke="#7452F1" stroke-linecap="round"/>
<path d="M258.005 399.394C258.005 399.394 252.005 395.394 241.006 397.894" stroke="#7452F1" stroke-linecap="round"/>
<ellipse rx="13.5" ry="28.4211" transform="matrix(-0.934013 0.357238 0.357238 0.934013 235.072 361.981)" fill="#D6CDFB"/>
<path d="M292.878 275.181C269.249 302.054 254.546 315.578 224.452 335.614L244.814 388.852C280.44 380.872 300.346 381.062 335.747 387.263L292.878 275.181Z" fill="#D6CDFB"/>
<path fill-rule="evenodd" clip-rule="evenodd" d="M335.747 387.263C321.046 392.886 299.531 372.354 287.694 341.403C275.856 310.453 278.177 280.804 292.879 275.181C307.58 269.558 329.095 290.09 340.932 321.041C352.77 351.991 350.449 381.64 335.747 387.263Z" fill="#EEEAFC"/>
<path d="M291.298 339.63C296.449 353.098 303.69 364.252 311.188 371.409C318.747 378.623 326.281 381.53 332.159 379.281C338.037 377.033 341.708 369.841 342.523 359.424C343.332 349.09 341.281 335.951 336.13 322.483C330.979 309.015 323.739 297.861 316.24 290.705C308.681 283.491 301.148 280.584 295.269 282.832C289.391 285.08 285.721 292.272 284.905 302.689C284.096 313.023 286.147 326.163 291.298 339.63Z" fill="#EEEAFC" stroke="#D6CDFB" stroke-width="2"/>
<path d="M291.32 341.087C296.362 351.471 294.384 353.298 304.26 351.127C311.998 348.167 315.871 339.496 312.912 331.758C309.952 324.02 301.281 320.147 293.543 323.106C284.382 327.146 287.431 328.121 291.32 341.087Z" fill="#D6CDFB"/>
<path d="M153.264 344L172.5 345.5C170.5 349 170.5 349.5 168 353L153.264 348.344V344Z" fill="#7452F1"/>
<path d="M152.227 341.87C156.16 345.134 162.541 346.018 171 345" stroke="#7755F1" stroke-width="3" stroke-linecap="round" stroke-linejoin="round"/>
<path d="M152.338 342C150.759 343.082 154.578 352.367 166.769 352" stroke="#7452F1" stroke-width="3" stroke-linecap="round"/>
<path d="M164.813 344.01C168.821 343.87 170.834 343.653 174 343L168.5 353.5C165.537 353.665 164.106 353.519 161.813 353.01L164.813 344.01Z" fill="#7452F1"/>
<path d="M190.674 1.17468L207.901 10.5955L200.518 49.9184L183.294 40.4779L190.674 1.17468Z" fill="#7452F1"/>
<path d="M227.363 8.06344L207.901 10.5956L200.518 49.9184L219.983 47.3666L227.363 8.06344Z" fill="#7452F1"/>
<path d="M227.363 8.06348L244.59 17.4843L237.207 56.8072L219.983 47.3667L227.363 8.06348Z" fill="#7452F1"/>
<path d="M230.255 14.172L227.081 31.0766L236.983 36.4867L240.155 19.592L230.255 14.172Z" fill="#BBABF7"/>
<path d="M193.213 7.21692L190.039 24.1215L199.941 29.5317L203.113 12.6369L193.213 7.21692V7.21692Z" fill="#BBABF7"/>
<path d="M195.874 33.4688L194.902 38.6483L197.92 40.2935L198.892 35.1141L195.874 33.4688V33.4688ZM188.992 29.6941L188.018 34.8834L192.144 37.1334L193.116 31.9539L188.992 29.6941Z" fill="#7452F1"/>
<path d="M211.407 35.4391L209.757 44.2255L206.348 44.6639L207.998 35.8774L211.407 35.4391ZM219.187 34.4275L217.539 43.2041L212.877 43.8141L214.527 35.0277L219.187 34.4275Z" fill="#7452F1"/>
<path d="M245.07 16.6078C241.499 14.6552 228.113 7.31902 227.766 7.16229C227.626 7.1055 227.475 7.07727 227.324 7.07925C226.955 7.09144 213.091 8.91425 208.093 9.57336L191.156 0.288328C191.016 0.213077 190.861 0.172139 190.702 0.168895C190.543 0.165651 190.386 0.200193 190.244 0.269669C190.095 0.34044 189.966 0.446815 189.868 0.579349C189.771 0.711883 189.707 0.866478 189.684 1.02941L182.302 40.3424C182.264 40.5497 182.291 40.764 182.382 40.9545C182.472 41.1451 182.62 41.3022 182.805 41.4035L200.038 50.7948C200.229 50.902 200.45 50.9435 200.667 50.9129L219.809 48.4022L236.747 57.6873C236.888 57.7612 237.046 57.8001 237.206 57.8006C237.366 57.8012 237.523 57.7634 237.665 57.6905C237.808 57.6175 237.93 57.5115 238.023 57.3814C238.116 57.2512 238.176 57.1007 238.199 56.9425L245.581 17.6295C245.61 17.4274 245.577 17.2212 245.486 17.0386C245.394 16.856 245.249 16.7056 245.07 16.6078ZM191.404 2.70564L206.784 11.1284L199.79 48.3775L184.41 39.9547L191.404 2.70564ZM208.75 11.4975L226.127 9.2253L219.133 46.4744L201.756 48.7466L208.75 11.4975ZM236.479 55.2662L221.099 46.8435L228.093 9.59437L243.473 18.0172L236.479 55.2662Z" fill="#BBABF7"/>
<path d="M226.611 31.955L236.503 37.3633C236.645 37.4413 236.804 37.4836 236.966 37.4865C237.129 37.4894 237.289 37.4528 237.434 37.3799C237.579 37.307 237.704 37.1999 237.798 37.0679C237.892 36.9359 237.953 36.7829 237.975 36.6222L241.138 19.7766C241.189 19.563 241.168 19.3386 241.079 19.1379C240.99 18.9373 240.837 18.7716 240.644 18.6664L230.745 13.2974C230.607 13.2217 230.452 13.1797 230.295 13.1751C230.137 13.1704 229.98 13.2032 229.837 13.2707C229.695 13.3382 229.57 13.4385 229.474 13.5634C229.377 13.6883 229.312 13.8343 229.282 13.9894L226.11 30.8842C226.069 31.0927 226.095 31.309 226.186 31.5015C226.276 31.6941 226.425 31.8529 226.611 31.955ZM230.993 15.7147L239.01 20.1096L236.224 34.9503L228.209 30.5456L230.993 15.7147ZM236.587 40.2787L233.55 38.62C233.319 38.5043 233.052 38.4828 232.805 38.56C232.558 38.6373 232.35 38.8072 232.226 39.0341C232.102 39.2611 232.07 39.5273 232.138 39.777C232.206 40.0267 232.368 40.2403 232.59 40.373L235.627 42.0317C235.725 42.0648 235.827 42.0841 235.931 42.0889C236.165 42.1322 236.406 42.091 236.612 41.9725C236.818 41.854 236.975 41.666 237.055 41.4422C237.135 41.2185 237.133 40.9735 237.049 40.7513C236.964 40.5291 236.804 40.3442 236.596 40.2296L236.587 40.2787ZM231.014 37.279L226.687 34.9098C226.572 34.8452 226.445 34.8042 226.313 34.7891C226.182 34.774 226.049 34.7852 225.922 34.8219C225.795 34.8586 225.676 34.9201 225.573 35.003C225.47 35.0858 225.384 35.1883 225.321 35.3044C225.21 35.5344 225.191 35.7982 225.268 36.0416C225.346 36.2851 225.513 36.4897 225.737 36.6136L230.064 38.9828C230.161 39.0213 230.264 39.0407 230.368 39.04C230.573 39.0394 230.772 38.9763 230.939 38.8591C231.107 38.7419 231.234 38.5762 231.304 38.3844C231.375 38.1926 231.385 37.9838 231.333 37.7862C231.281 37.5885 231.17 37.4115 231.014 37.279ZM235.902 43.925L232.866 42.2663C232.634 42.1506 232.367 42.1291 232.12 42.2063C231.873 42.2835 231.666 42.4535 231.542 42.6804C231.417 42.9074 231.386 43.1736 231.454 43.4233C231.522 43.6729 231.684 43.8866 231.906 44.0192L234.942 45.678C235.039 45.7158 235.142 45.7352 235.247 45.7352C235.454 45.774 235.668 45.7462 235.859 45.6559C236.049 45.5656 236.206 45.4173 236.308 45.2324C236.419 45.0037 236.439 44.7413 236.363 44.4984C236.288 44.2555 236.123 44.0505 235.902 43.925V43.925ZM225.057 40.2304L229.385 42.5996C229.483 42.6335 229.585 42.6528 229.689 42.6568C229.923 42.7001 230.164 42.6588 230.37 42.5403C230.576 42.4218 230.733 42.2339 230.813 42.0101C230.893 41.7863 230.891 41.5414 230.807 41.3192C230.722 41.097 230.562 40.9121 230.354 40.7975L226.028 38.4185C225.909 38.3547 225.779 38.315 225.645 38.3016C225.51 38.2882 225.375 38.3015 225.246 38.3405C225.116 38.3795 224.996 38.4436 224.892 38.5292C224.787 38.6147 224.701 38.7199 224.637 38.8389C224.573 38.9579 224.534 39.0882 224.52 39.2226C224.507 39.3569 224.52 39.4925 224.559 39.6217C224.598 39.7509 224.662 39.8712 224.748 39.9756C224.833 40.0801 224.938 40.1666 225.057 40.2304V40.2304ZM235.228 47.5123L232.192 45.8536C231.961 45.7379 231.694 45.7164 231.447 45.7936C231.2 45.8709 230.992 46.0408 230.868 46.2677C230.744 46.4947 230.712 46.7609 230.78 47.0106C230.848 47.2603 231.01 47.4739 231.232 47.6066L234.268 49.2653C234.367 49.2984 234.469 49.3177 234.573 49.3225C234.807 49.3658 235.048 49.3245 235.254 49.206C235.46 49.0875 235.617 48.8996 235.697 48.6758C235.777 48.4521 235.775 48.2071 235.69 47.9849C235.606 47.7627 235.446 47.5778 235.238 47.4632L235.228 47.5123ZM229.665 44.4634L225.338 42.0942C225.223 42.0297 225.096 41.9887 224.964 41.9736C224.833 41.9585 224.7 41.9696 224.573 42.0063C224.446 42.043 224.327 42.1046 224.224 42.1874C224.121 42.2702 224.035 42.3727 223.972 42.4889C223.909 42.6047 223.87 42.7317 223.856 42.8628C223.843 42.9938 223.855 43.1263 223.893 43.2525C223.931 43.3787 223.993 43.4962 224.076 43.5983C224.16 43.7003 224.262 43.7849 224.378 43.8472L228.705 46.2164C228.802 46.2549 228.906 46.2743 229.01 46.2736C229.244 46.3169 229.485 46.2756 229.691 46.1571C229.897 46.0386 230.054 45.8507 230.134 45.6269C230.214 45.4031 230.212 45.1582 230.128 44.936C230.043 44.7138 229.883 44.5289 229.675 44.4143L229.665 44.4634ZM203.589 11.78L193.693 6.34043C193.554 6.26465 193.4 6.22272 193.242 6.21807C193.084 6.21341 192.928 6.24617 192.785 6.31366C192.642 6.38115 192.518 6.48146 192.421 6.60637C192.325 6.73129 192.259 6.87727 192.23 7.03237L189.058 23.9271C189.007 24.1407 189.027 24.3651 189.117 24.5658C189.206 24.7664 189.359 24.9321 189.551 25.0373L199.431 30.4026C199.573 30.4806 199.732 30.523 199.894 30.5258C200.056 30.5287 200.217 30.4921 200.362 30.4192C200.507 30.3463 200.632 30.2392 200.726 30.1072C200.82 29.9752 200.881 29.8222 200.903 29.6615L204.066 12.8159C204.101 12.6152 204.075 12.4084 203.989 12.2233C203.904 12.0382 203.764 11.8835 203.589 11.78ZM199.21 28.0006L191.156 23.5886L193.941 8.75774L201.997 13.16L199.21 28.0006ZM199.362 34.2358L196.354 32.5924C196.212 32.5143 196.053 32.472 195.891 32.4691C195.728 32.4662 195.568 32.5028 195.423 32.5758C195.278 32.6487 195.153 32.7558 195.059 32.8878C194.965 33.0198 194.904 33.1728 194.882 33.3335L193.92 38.454C193.869 38.6676 193.89 38.892 193.979 39.0926C194.069 39.2933 194.221 39.459 194.414 39.5641L197.414 41.1449C197.556 41.2229 197.715 41.2652 197.877 41.2681C198.04 41.271 198.2 41.2344 198.345 41.1615C198.49 41.0885 198.615 40.9815 198.709 40.8495C198.803 40.7175 198.864 40.5645 198.886 40.4038L199.846 35.2931C199.885 35.0885 199.86 34.8766 199.773 34.687C199.687 34.4974 199.543 34.3397 199.362 34.2358V34.2358ZM197.18 38.7607L196.019 38.1154L196.604 34.9999L197.765 35.6452L197.18 38.7607ZM193.596 31.0775L189.472 28.8177C189.334 28.7412 189.179 28.6987 189.021 28.6937C188.862 28.6888 188.705 28.7215 188.562 28.7892C188.42 28.8572 188.295 28.9579 188.199 29.0831C188.103 29.2083 188.038 29.3544 188.01 29.5096L187.035 34.6989C186.984 34.9125 187.005 35.1369 187.094 35.3376C187.183 35.5382 187.336 35.7039 187.529 35.8091L191.66 38.0296C191.802 38.1076 191.961 38.1499 192.123 38.1528C192.286 38.1557 192.446 38.1191 192.591 38.0462C192.736 37.9732 192.861 37.8661 192.955 37.7341C193.049 37.6021 193.11 37.4492 193.132 37.2885L194.099 32.1385C194.138 31.9312 194.11 31.717 194.02 31.5264C193.929 31.3358 193.781 31.1787 193.596 31.0775V31.0775ZM191.414 35.6024L189.136 34.3505L189.721 31.235L191.999 32.4869L191.414 35.6024ZM211.418 15.8751C211.516 15.909 211.618 15.9282 211.722 15.9323L215.153 15.4878C215.287 15.4754 215.417 15.4361 215.536 15.3723C215.654 15.3085 215.758 15.2214 215.842 15.1164C215.926 15.0113 215.988 14.8904 216.024 14.7609C216.06 14.6314 216.07 14.4959 216.053 14.3626C216.035 14.2292 215.991 14.1008 215.923 13.9849C215.855 13.869 215.764 13.768 215.656 13.6881C215.548 13.6081 215.424 13.5508 215.294 13.5195C215.163 13.4882 215.027 13.4836 214.894 13.506L211.464 13.9505C211.228 13.9818 211.011 14.0959 210.852 14.2724C210.693 14.4489 210.602 14.6763 210.596 14.9139C210.589 15.1514 210.667 15.3835 210.816 15.5686C210.965 15.7538 211.175 15.8798 211.408 15.9242L211.418 15.8751ZM217.717 15.0535C217.821 15.0752 217.927 15.0779 218.031 15.0616L222.929 14.3938C223.063 14.3814 223.193 14.3421 223.311 14.2783C223.429 14.2145 223.534 14.1275 223.618 14.0224C223.701 13.9174 223.763 13.7965 223.8 13.667C223.836 13.5375 223.845 13.402 223.828 13.2686C223.811 13.1353 223.766 13.0068 223.698 12.8909C223.63 12.775 223.539 12.6741 223.431 12.5941C223.323 12.5142 223.2 12.4568 223.069 12.4255C222.938 12.3942 222.802 12.3897 222.67 12.412L217.778 13.0503C217.543 13.0816 217.326 13.1957 217.167 13.3722C217.008 13.5487 216.917 13.7761 216.91 14.0137C216.903 14.2512 216.982 14.4833 217.131 14.6685C217.279 14.8536 217.49 14.9796 217.723 15.024L217.717 15.0535ZM215.323 18.0531C215.307 17.9223 215.265 17.796 215.2 17.6813C215.135 17.5667 215.049 17.4659 214.945 17.385C214.841 17.304 214.722 17.2444 214.595 17.2095C214.468 17.1746 214.335 17.1652 214.204 17.1818L210.772 17.6361C210.503 17.6275 210.243 17.7259 210.047 17.9096C209.851 18.0932 209.736 18.3471 209.728 18.6153C209.719 18.8836 209.818 19.1442 210.001 19.3399C210.185 19.5357 210.439 19.6504 210.707 19.6589C210.811 19.6772 210.917 19.6799 211.021 19.667L214.454 19.2127C214.588 19.1968 214.718 19.1537 214.836 19.0861C214.953 19.0185 215.056 18.9277 215.137 18.8192C215.218 18.7108 215.277 18.5869 215.309 18.4552C215.34 18.3236 215.345 18.1867 215.323 18.0531V18.0531ZM217.009 18.8275C217.113 18.8442 217.218 18.8469 217.323 18.8356L222.214 18.1974C222.47 18.1543 222.698 18.014 222.852 17.806C223.006 17.598 223.073 17.3384 223.04 17.0819C223.006 16.8253 222.874 16.5917 222.672 16.4302C222.47 16.2686 222.213 16.1917 221.956 16.2156L217.064 16.8538C216.828 16.8851 216.612 16.9992 216.453 17.1757C216.294 17.3523 216.203 17.5797 216.196 17.8172C216.189 18.0547 216.267 18.2869 216.416 18.472C216.565 18.6571 216.775 18.7832 217.009 18.8275V18.8275ZM214.609 21.8566C214.574 21.5939 214.437 21.3556 214.227 21.1941C214.017 21.0326 213.751 20.961 213.488 20.9951L210.057 21.4396C209.926 21.4564 209.8 21.4991 209.685 21.5651C209.57 21.6312 209.47 21.7193 209.39 21.8244C209.309 21.9295 209.251 22.0495 209.217 22.1775C209.184 22.3054 209.176 22.4387 209.194 22.5697C209.222 22.7875 209.321 22.99 209.476 23.1459C209.63 23.3018 209.832 23.4025 210.05 23.4324C210.153 23.4507 210.259 23.4534 210.363 23.4405L213.796 22.9861C214.052 22.9402 214.279 22.7966 214.431 22.5858C214.583 22.375 214.646 22.1135 214.609 21.8566V21.8566ZM216.3 22.6016C216.404 22.6183 216.51 22.621 216.614 22.6097L221.506 21.9714C221.761 21.9283 221.989 21.7881 222.143 21.58C222.297 21.372 222.364 21.1125 222.331 20.8559C222.297 20.5993 222.166 20.3658 221.964 20.2042C221.762 20.0427 221.505 19.9658 221.247 19.9896L216.355 20.6279C216.12 20.6591 215.903 20.7733 215.744 20.9498C215.585 21.1263 215.494 21.3537 215.487 21.5912C215.481 21.8288 215.559 22.0609 215.708 22.246C215.857 22.4312 216.067 22.5572 216.3 22.6016V22.6016ZM212.78 24.7692L209.349 25.2137C209.086 25.2482 208.848 25.3855 208.686 25.5956C208.525 25.8056 208.453 26.0712 208.487 26.3339C208.515 26.5517 208.614 26.7542 208.769 26.9101C208.924 27.066 209.125 27.1667 209.343 27.1966C209.446 27.2198 209.552 27.2225 209.657 27.2047L213.033 26.7804C213.296 26.746 213.534 26.6086 213.695 26.3986C213.857 26.1885 213.929 25.9229 213.894 25.6602C213.881 25.528 213.841 25.3999 213.778 25.2832C213.714 25.1666 213.628 25.0638 213.524 24.9808C213.42 24.8979 213.301 24.8364 213.173 24.8001C213.045 24.7638 212.912 24.7532 212.78 24.7692V24.7692ZM215.592 26.3756C215.695 26.3923 215.801 26.395 215.905 26.3837L220.797 25.7455C221.061 25.7114 221.301 25.5738 221.464 25.363C221.626 25.1521 221.699 24.8853 221.665 24.6212C221.631 24.3571 221.493 24.1174 221.282 23.9547C221.071 23.792 220.804 23.7198 220.54 23.7539L215.647 24.4019C215.411 24.4332 215.194 24.5473 215.035 24.7238C214.876 24.9004 214.785 25.1278 214.779 25.3653C214.772 25.6028 214.85 25.835 214.999 26.0201C215.148 26.2052 215.358 26.3313 215.592 26.3756V26.3756ZM208.899 30.9695L212.33 30.525C212.585 30.4819 212.813 30.3417 212.967 30.1336C213.121 29.9256 213.188 29.6661 213.155 29.4095C213.121 29.1529 212.99 28.9193 212.788 28.7578C212.586 28.5963 212.329 28.5194 212.071 28.5432L208.636 29.0074C208.374 29.0419 208.135 29.1792 207.974 29.3893C207.812 29.5993 207.741 29.8649 207.775 30.1276C207.803 30.3454 207.902 30.5479 208.057 30.7038C208.211 30.8597 208.413 30.9604 208.63 30.9903C208.72 30.9984 208.811 30.9914 208.899 30.9695V30.9695ZM215.197 30.1578L220.089 29.5195C220.353 29.4854 220.592 29.3479 220.755 29.137C220.918 28.9262 220.99 28.6594 220.956 28.3953C220.922 28.1312 220.784 27.8914 220.573 27.7287C220.363 27.5661 220.096 27.4938 219.832 27.5279L214.942 28.1563C214.811 28.1731 214.684 28.2158 214.569 28.2818C214.455 28.3479 214.354 28.436 214.274 28.5411C214.194 28.6462 214.135 28.7662 214.102 28.8942C214.068 29.0221 214.06 29.1554 214.078 29.2864C214.109 29.5027 214.209 29.7031 214.364 29.8571C214.518 30.0111 214.719 30.1102 214.936 30.1393C215.022 30.1554 215.109 30.1616 215.197 30.1578V30.1578ZM212.127 34.7501C212.019 34.6369 211.886 34.5506 211.738 34.4981C211.591 34.4457 211.433 34.4286 211.278 34.4482L207.868 34.8866C207.659 34.9139 207.464 35.0065 207.311 35.1513C207.158 35.2962 207.054 35.4857 207.015 35.693L205.365 44.4794C205.336 44.6346 205.344 44.7944 205.389 44.9458C205.433 45.0972 205.513 45.2359 205.622 45.3505C205.73 45.4652 205.864 45.5525 206.013 45.6054C206.162 45.6583 206.321 45.6752 206.477 45.6548L209.877 45.2146C210.095 45.1865 210.297 45.0875 210.453 44.9329C210.609 44.7783 210.71 44.5767 210.74 44.3591L212.38 35.6218C212.41 35.4668 212.402 35.307 212.358 35.1555C212.314 35.004 212.235 34.8651 212.127 34.7501ZM208.913 43.3039L207.589 43.4725L208.846 36.7795L210.17 36.6109L208.913 43.3039ZM219.907 33.7384C219.799 33.6252 219.666 33.5389 219.518 33.4865C219.371 33.4341 219.213 33.417 219.058 33.4366L214.397 34.0368C214.188 34.0641 213.993 34.1567 213.84 34.3016C213.686 34.4464 213.583 34.636 213.544 34.8432L211.894 43.6297C211.865 43.7848 211.873 43.9446 211.918 44.096C211.962 44.2474 212.042 44.3861 212.151 44.5008C212.259 44.6154 212.393 44.7028 212.542 44.7556C212.691 44.8085 212.85 44.8255 213.006 44.8051L217.667 44.2049C217.885 44.1768 218.087 44.0778 218.243 43.9231C218.399 43.7685 218.5 43.5669 218.53 43.3494L220.17 34.612C220.199 34.456 220.19 34.2954 220.144 34.1435C220.098 33.9916 220.017 33.8527 219.907 33.7384ZM216.693 42.2923L214.118 42.6228L215.375 35.9297L217.952 35.5894L216.693 42.2923Z" fill="#BBABF7"/>
<path d="M134.5 129.833C139.609 129.833 143.75 125.692 143.75 120.583C143.75 115.475 139.609 111.333 134.5 111.333C129.391 111.333 125.25 115.475 125.25 120.583C125.25 125.692 129.391 129.833 134.5 129.833Z" stroke="#BBABF7" stroke-width="2" stroke-linecap="round" stroke-linejoin="round"/>
<path d="M97.5 108.25C102.609 108.25 106.75 104.109 106.75 99C106.75 93.8914 102.609 89.75 97.5 89.75C92.3914 89.75 88.25 93.8914 88.25 99C88.25 104.109 92.3914 108.25 97.5 108.25Z" stroke="#BBABF7" stroke-width="2" stroke-linecap="round" stroke-linejoin="round"/>
<path d="M105.486 103.656L126.545 115.928" stroke="#BBABF7" stroke-width="2" stroke-linecap="round" stroke-linejoin="round"/>
<path d="M134.5 86.6666C139.609 86.6666 143.75 82.5253 143.75 77.4166C143.75 72.308 139.609 68.1666 134.5 68.1666C129.391 68.1666 125.25 72.308 125.25 77.4166C125.25 82.5253 129.391 86.6666 134.5 86.6666Z" stroke="#BBABF7" stroke-width="2" stroke-linecap="round" stroke-linejoin="round"/>
<path d="M126.514 82.0725L105.486 94.3442" stroke="#BBABF7" stroke-width="2" stroke-linecap="round" stroke-linejoin="round"/>
<path d="M206.562 192.388H223.438V196.138H206.562V192.388Z" fill="#7452F1"/>
<path d="M200.938 158.638L202.812 171.763H227.188L229.062 158.638H200.938Z" fill="#7452F1"/>
<path d="M205.625 171.763L204.688 158.638H225.312L224.375 171.763" fill="#7452F1"/>
<path d="M221.562 164.263H208.438L208.685 166.239C209.769 174.913 210.312 183.647 210.312 192.388H219.688C219.688 183.647 220.231 174.913 221.315 166.239L221.562 164.263ZM200.938 154.888H229.062V158.638H200.938V154.888Z" fill="#7452F1"/>
<path d="M211.411 144.388C211.237 144.214 211.099 144.008 211.004 143.78C210.91 143.553 210.862 143.309 210.862 143.063C210.862 142.816 210.91 142.572 211.004 142.345C211.099 142.118 211.237 141.911 211.411 141.737L212.737 140.411C212.911 140.237 213.118 140.099 213.345 140.005C213.573 139.911 213.816 139.862 214.063 139.862C214.309 139.862 214.553 139.911 214.78 140.005C215.007 140.099 215.214 140.237 215.388 140.411C215.562 140.585 215.7 140.792 215.795 141.019C215.889 141.247 215.937 141.491 215.937 141.737C215.937 141.983 215.889 142.227 215.795 142.454C215.7 142.682 215.562 142.888 215.388 143.063L214.063 144.388C213.711 144.74 213.234 144.937 212.737 144.937C212.24 144.937 211.763 144.74 211.411 144.388Z" fill="#7452F1"/>
<path d="M227.188 172.701H221.094C220.845 172.701 220.607 172.602 220.431 172.426C220.255 172.25 220.156 172.012 220.156 171.763C220.156 171.515 220.255 171.276 220.431 171.1C220.607 170.924 220.845 170.826 221.094 170.826H226.374L227.981 159.576H202.018L203.624 170.826H208.904C209.153 170.826 209.392 170.924 209.567 171.1C209.743 171.276 209.842 171.515 209.842 171.763C209.842 172.012 209.743 172.25 209.567 172.426C209.392 172.602 209.153 172.701 208.904 172.701H202.813C202.587 172.701 202.369 172.619 202.198 172.472C202.028 172.324 201.916 172.12 201.884 171.896L200.009 158.771C199.989 158.638 199.998 158.502 200.036 158.373C200.073 158.244 200.139 158.124 200.227 158.023C200.315 157.921 200.424 157.84 200.547 157.785C200.67 157.729 200.803 157.701 200.938 157.703H229.063C229.197 157.703 229.329 157.732 229.451 157.788C229.572 157.844 229.681 157.925 229.769 158.027C229.857 158.128 229.922 158.247 229.96 158.375C229.998 158.503 230.009 158.639 229.991 158.771L228.116 171.896C228.084 172.12 227.972 172.324 227.802 172.472C227.631 172.619 227.413 172.701 227.188 172.701Z" fill="#BBABF7"/>
<path d="M224.377 172.701L224.309 172.699C224.187 172.69 224.067 172.658 223.956 172.603C223.846 172.548 223.748 172.471 223.667 172.378C223.586 172.285 223.524 172.177 223.485 172.061C223.446 171.944 223.431 171.82 223.439 171.698L224.306 159.578H205.694L206.561 171.698C206.569 171.82 206.554 171.944 206.515 172.061C206.476 172.177 206.414 172.285 206.333 172.378C206.252 172.471 206.154 172.548 206.044 172.603C205.934 172.658 205.814 172.69 205.691 172.699C205.444 172.71 205.203 172.626 205.017 172.464C204.831 172.303 204.714 172.076 204.689 171.831L203.752 158.706C203.733 158.445 203.823 158.19 204.001 158.001C204.179 157.811 204.429 157.703 204.688 157.703H225.313C225.441 157.703 225.568 157.73 225.686 157.781C225.804 157.833 225.91 157.908 225.997 158.002C226.085 158.096 226.152 158.207 226.196 158.328C226.239 158.449 226.257 158.577 226.248 158.706L225.311 171.831C225.294 172.067 225.188 172.288 225.015 172.449C224.842 172.61 224.614 172.7 224.377 172.701ZM223.438 197.076H206.563C206.314 197.076 206.075 196.977 205.9 196.801C205.724 196.625 205.625 196.387 205.625 196.138V192.388C205.625 192.139 205.724 191.901 205.9 191.725C206.075 191.549 206.314 191.451 206.563 191.451H223.438C223.686 191.451 223.925 191.549 224.1 191.725C224.276 191.901 224.375 192.139 224.375 192.388V196.138C224.375 196.387 224.276 196.625 224.1 196.801C223.925 196.977 223.686 197.076 223.438 197.076ZM207.5 195.201H222.5V193.326H207.5V195.201Z" fill="#BBABF7"/>
<path d="M229.062 159.576H200.938C200.689 159.576 200.45 159.477 200.275 159.301C200.099 159.125 200 158.887 200 158.638V154.888C200 154.639 200.099 154.401 200.275 154.225C200.45 154.049 200.689 153.951 200.938 153.951H229.062C229.311 153.951 229.55 154.049 229.725 154.225C229.901 154.401 230 154.639 230 154.888V158.638C230 158.887 229.901 159.125 229.725 159.301C229.55 159.477 229.311 159.576 229.062 159.576ZM201.875 157.701H228.125V155.826H201.875V157.701ZM219.688 193.326H210.312C210.064 193.326 209.825 193.227 209.65 193.051C209.474 192.875 209.375 192.637 209.375 192.388C209.375 183.718 208.829 174.96 207.755 166.356L207.507 164.379C207.491 164.248 207.503 164.114 207.542 163.987C207.581 163.86 207.647 163.742 207.735 163.643C207.823 163.543 207.931 163.463 208.052 163.409C208.173 163.354 208.305 163.326 208.438 163.326H221.562C221.695 163.326 221.827 163.354 221.948 163.409C222.069 163.464 222.177 163.544 222.264 163.643C222.352 163.743 222.418 163.86 222.457 163.987C222.497 164.114 222.509 164.248 222.493 164.379L222.245 166.356C221.168 174.991 220.627 183.686 220.625 192.388C220.625 192.637 220.526 192.875 220.35 193.051C220.175 193.227 219.936 193.326 219.688 193.326ZM211.248 191.451H218.752C218.791 183.011 219.339 174.495 220.385 166.123L220.501 165.201H209.501L209.615 166.125C210.661 174.495 211.211 183.011 211.248 191.451ZM212.737 145.873C212.017 145.873 211.297 145.599 210.748 145.052C210.486 144.791 210.278 144.481 210.137 144.14C209.995 143.798 209.923 143.432 209.924 143.063C209.924 142.313 210.217 141.606 210.748 141.073L212.073 139.748C212.605 139.243 213.314 138.965 214.047 138.975C214.781 138.985 215.481 139.28 216 139.799C216.519 140.318 216.815 141.019 216.824 141.752C216.834 142.486 216.557 143.194 216.052 143.726L214.726 145.05C214.465 145.312 214.155 145.519 213.814 145.66C213.472 145.802 213.106 145.874 212.737 145.873ZM214.062 140.799C213.939 140.799 213.817 140.823 213.703 140.87C213.589 140.917 213.486 140.986 213.399 141.073L212.073 142.399C211.986 142.486 211.916 142.589 211.869 142.703C211.822 142.817 211.799 142.939 211.799 143.063C211.8 143.248 211.855 143.428 211.958 143.582C212.061 143.736 212.207 143.856 212.378 143.927C212.549 143.997 212.738 144.016 212.919 143.98C213.101 143.944 213.268 143.855 213.399 143.724L214.724 142.399C214.854 142.267 214.942 142.101 214.978 141.919C215.013 141.738 214.995 141.55 214.924 141.38C214.853 141.209 214.734 141.063 214.581 140.96C214.427 140.856 214.247 140.801 214.062 140.799Z" fill="#BBABF7"/>
<path d="M217.812 155.826H206.562C206.314 155.826 206.075 155.727 205.9 155.551C205.724 155.375 205.625 155.137 205.625 154.888V150.082C205.625 148.687 206.24 147.375 207.311 146.481L210.755 143.61C210.85 143.531 210.959 143.472 211.077 143.435C211.194 143.398 211.318 143.385 211.441 143.396C211.564 143.407 211.683 143.443 211.792 143.5C211.901 143.557 211.998 143.635 212.077 143.73C212.156 143.825 212.215 143.934 212.252 144.052C212.289 144.169 212.302 144.293 212.291 144.416C212.28 144.538 212.244 144.658 212.187 144.767C212.13 144.876 212.052 144.973 211.957 145.052L208.512 147.922C207.867 148.459 207.5 149.246 207.5 150.082V153.951H217.812C218.061 153.951 218.3 154.049 218.475 154.225C218.651 154.401 218.75 154.639 218.75 154.888C218.75 155.137 218.651 155.375 218.475 155.551C218.3 155.727 218.061 155.826 217.812 155.826Z" fill="#BBABF7"/>
</svg>
