<svg width="290" height="676" viewBox="0 0 290 676" fill="none" xmlns="http://www.w3.org/2000/svg">
<path d="M27.9999 636H26.9999V637V673.876C23.7934 672.792 21.467 671.675 19.7117 670.177C17.3987 668.202 15.9754 665.469 15.0003 660.897C15.0022 660.617 15.0119 660.339 15.0292 660.062L15.0956 659H14.9999V649V648H14.3068V539.474V539.409L14.2983 539.344C13.6693 534.561 13.701 529.339 14.4905 523.637C15.5747 515.806 20.4809 507.489 28.2233 499.379C35.9518 491.283 46.4294 483.475 58.4918 476.661C82.6271 463.028 112.959 453.456 140 453.456C165.147 453.456 198.201 466.694 225.329 484.142C238.876 492.855 250.89 502.584 259.658 512.172C268.457 521.793 273.859 531.134 274.446 539.074L274.5 539.797V648H274V649V658H273.958L273.992 659.033C273.997 659.179 274 659.325 274 659.472C273.756 663.75 272.09 667.745 269.355 670.48C267.004 672.832 263.838 674.281 260 674.177V637V636H259H27.9999ZM245.892 670.43C248.061 672.387 250.9 673.765 254.597 675H39.3302C45.0589 672.222 48.9999 666.818 48.9999 660.5C48.9999 656.495 47.4022 652.84 44.7733 650H243.537C241.594 652.69 240.5 655.97 240.5 659.5V659.604L240.521 659.706C241.545 664.566 243.113 667.922 245.892 670.43ZM30.6385 675C30.0712 674.837 29.5254 674.676 28.9999 674.516V638H258V673.96C252.925 672.493 249.571 671.056 247.232 668.945C244.904 666.844 243.477 663.976 242.5 659.397C242.526 655.645 243.953 652.243 246.39 649.691L248.004 648H245.667H42.2332H39.3849L41.6081 649.781C44.943 652.451 46.9999 656.279 46.9999 660.5C46.9999 668.358 39.8028 674.934 30.6385 675Z" fill="#291E53" stroke="#8766FF" stroke-width="2"/>
<path d="M176.5 460C174 467 165.792 477.5 149.5 477.5C133.208 477.5 119.001 464 113 457C143.499 444 127.207 444 143.499 444C159.791 444 143.499 444 176.5 460Z" fill="#A298C9"/>
<rect x="124" y="416" width="39" height="45" fill="#A298C9"/>
<path fill-rule="evenodd" clip-rule="evenodd" d="M216.267 378.907C220.401 375.166 224.017 368.043 226.5 354.5C226.5 332 207.941 327.5 198 327.5C188.059 327.5 185.5 341.5 189 355.5C190.059 359.734 190.427 363.446 190.658 366.677C184.934 374.497 180 385.839 180 391C180 399.284 180 407.5 194 405C199.414 404.033 207.682 400 213 391C214.817 387.925 216.092 383.509 216.267 378.907ZM102.911 363.28C102.97 362.694 103 362.1 103 361.5C103 351.283 94.2696 343 83.5 343C72.7304 343 64 351.283 64 361.5C64 368.736 68.3789 375.002 74.7598 378.042C74.589 379.006 74.5 379.994 74.5 381C74.5 391.493 87 403.5 102 401.5C113.322 401.5 116 391.493 116 381C116 372.929 110.57 366.033 102.911 363.28Z" fill="#726B8E"/>
<path d="M191.5 380C186.465 412.5 163.53 437 148 437C120 437 101 405.5 98.5 377C98.5 342.206 114.52 316 146 316C177.48 316 197 344.5 191.5 380Z" fill="#A298C9"/>
<path fill-rule="evenodd" clip-rule="evenodd" d="M165.985 328.028C166.119 327.948 166.25 327.867 166.38 327.786C168.36 328.017 170.558 328.251 173 328.5C174.304 328.385 175.634 328.349 176.975 328.37C183.382 334.988 186.99 343.149 190.98 352.5C198.16 352.5 203.98 338.127 203.98 331.5C203.98 330.369 203.811 329.275 203.494 328.237C206.052 326.131 206.755 321.851 204.5 313.699C202.5 302.5 191.307 293.199 177.5 293.199C170.12 292.245 161.987 294.248 155.881 297.575C151.815 292.337 144.887 289 135 289C119.299 289 107.863 299.299 106.207 310.663C104.186 310.541 101.805 310.64 99 311C85.5 311 72 325.059 72 335C72 344.941 83.2975 355 96 355C112.86 353.073 116.261 345.577 117.382 330.276C117.991 330.61 118.621 330.924 119.269 331.217C124.222 334.114 131.98 336 139.5 336C150.749 335.598 161.999 332.518 165.985 328.028Z" fill="#726B8E"/>
<path d="M141.5 372C141.5 375.314 140.433 378 138.5 378C136.567 378 133 375.314 133 372C133 368.686 134.567 364.5 136.5 364.5C139.5 364.5 141.5 368.686 141.5 372Z" fill="#7755F1"/>
<path d="M141.5 372C141.5 375.314 140.433 378 138.5 378C136.567 378 133 375.314 133 372C133 368.686 134.567 364.5 136.5 364.5C139.5 364.5 141.5 368.686 141.5 372Z" fill="#7755F1"/>
<path d="M139 343.711C139 345.368 134 348.767 130 349.211C125.5 349.711 123.5 350.211 123 348.211C123 346.211 127 342.774 131.5 342.211C135.5 341.711 139 342.055 139 343.711Z" fill="#291E53"/>
<path d="M170.01 354.077C169.51 355.077 166.01 355.577 163.01 355.077C156.51 352.577 158.01 349.577 158.51 348.577C160.01 347.577 161.51 348.077 165.01 348.577C168.51 349.577 170.01 353.077 170.01 354.077Z" fill="#291E53"/>
<path d="M151.5 373C151.642 380.887 150.167 388.523 152.5 395C146.392 395.913 149.828 393.167 147 395" stroke="#291E53" stroke-width="3" stroke-linecap="round" stroke-linejoin="round"/>
<path d="M148.3 409.062C152.371 415.296 136.842 408.279 148.3 409.062Z" stroke="#291E53" stroke-width="3" stroke-linecap="round" stroke-linejoin="round"/>
<ellipse cx="179" cy="326" rx="13" ry="10" fill="#726B8E"/>
<path d="M119 424.5C136.5 442 147.5 445.5 169.5 426" stroke="#291E53" stroke-linecap="round"/>
<circle cx="147" cy="372" r="10" fill="#8766FF"/>
<path d="M130 362C136.59 364.929 140.428 365.935 147.739 365.607C154.789 365.98 158.176 364.748 164 362L163.014 383C158.001 380.491 154.758 379.488 147.739 378.835C140.318 378.916 136.471 379.939 130 383V362Z" fill="#8766FF"/>
<path d="M93.4935 425.82C64.2761 453.969 30.8006 501.103 14.5 533.226L14.5 452L14.5 451.638L14.2682 451.36C14.1799 451.254 14.1037 451.086 14.1566 450.728C14.2135 450.344 14.4147 449.815 14.8225 449.13C15.636 447.763 17.114 446.034 19.1592 444.005C23.2343 439.964 29.3513 434.938 36.2499 429.559C41.1494 425.739 46.4433 421.741 51.6529 417.806C60.874 410.843 69.8307 404.078 75.8683 398.852C82.7152 399.828 89.7631 398.956 95.8277 397.885C97.5411 397.582 99.2454 397.25 100.834 396.94C102.061 396.701 103.218 396.475 104.258 396.287C106.744 395.837 108.742 395.564 110.189 395.628C111.689 395.694 112.136 396.091 112.28 396.486C112.377 396.751 112.419 397.193 112.267 397.912C112.117 398.625 111.791 399.536 111.243 400.684C109.034 405.306 103.548 413.1 93.4935 425.82Z" fill="#291E53" stroke="#8766FF" stroke-width="2"/>
<path d="M205.227 436.819C234.446 464.974 258.93 507.01 274.5 538.662L274.5 528.018C274.5 504.278 274.5 479.139 274.5 454L274.5 453.551L274.836 453.253C274.837 453.252 274.838 453.251 274.84 453.25C274.852 453.242 274.875 453.226 274.864 453.102C274.847 452.91 274.742 452.58 274.451 452.088C273.873 451.112 272.759 449.824 271.155 448.262C267.967 445.156 263.08 441.192 257.425 436.811C254.058 434.202 250.421 431.447 246.726 428.649C238.217 422.205 229.399 415.527 222.852 409.852C216.005 410.827 208.957 409.956 202.893 408.885C201.179 408.582 199.475 408.25 197.886 407.94C196.66 407.701 195.502 407.475 194.462 407.287C191.976 406.837 189.978 406.563 188.531 406.628C187.032 406.694 186.584 407.091 186.44 407.486C186.344 407.751 186.301 408.193 186.453 408.912C186.603 409.625 186.929 410.536 187.478 411.684C189.687 416.306 195.172 424.1 205.227 436.819Z" fill="#291E53" stroke="#8766FF" stroke-width="2"/>
<path d="M128.5 398.5C123.5 410.5 120.5 421.5 93.5001 430.5C83.5001 433.5 64 437 65.5 386C65.5 372.193 90.1931 350 104 350C117.807 350 128.5 384.693 128.5 398.5Z" fill="#A298C9"/>
<path d="M164 397.5C169 409.5 172 420.5 199 429.5C209 432.5 228.5 436 227 385C227 371.193 202.307 349 188.5 349C174.693 349 164 383.693 164 397.5Z" fill="#A298C9"/>
<path d="M113 422C123.5 413.5 127 403.5 129.5 397" stroke="#291E53" stroke-linecap="round"/>
<path d="M182.5 423C172 414.5 168.5 404.5 166 398" stroke="#291E53" stroke-linecap="round"/>
<circle cx="110.5" cy="377.5" r="27.5" fill="#8766FF"/>
<circle cx="110.5" cy="377.5" r="22.5" fill="#291E53"/>
<circle cx="110.337" cy="388.613" r="2.5" transform="rotate(31.9409 110.337 388.613)" fill="#A298C9"/>
<circle cx="183.5" cy="377.5" r="27.5" fill="#8766FF"/>
<circle cx="183.5" cy="377.5" r="22.5" fill="#291E53"/>
<circle cx="182.945" cy="388.652" r="2.5" transform="rotate(151.859 182.945 388.652)" fill="#A298C9"/>
<path d="M107.948 365.037C113.895 360.591 118.314 365.384 117.246 368.795C116.635 371.472 109.622 374.234 110.383 379.804" stroke="#A298C9" stroke-width="3" stroke-linecap="round"/>
<path d="M180.982 365.027C186.945 360.603 191.347 365.412 190.267 368.819C189.646 371.494 182.623 374.231 183.364 379.803" stroke="#A298C9" stroke-width="3" stroke-linecap="round"/>
<path d="M165.419 226.912L209.157 230.738C213.585 231.126 216.86 235.028 216.473 239.455C216.085 243.882 212.182 247.157 207.755 246.769L164.017 242.943C159.589 242.555 156.314 238.653 156.701 234.226C157.088 229.799 160.992 226.524 165.419 226.912Z" stroke="#8766FF" stroke-width="2"/>
<path d="M207.407 241.443C205.949 241.315 204.871 240.03 204.998 238.572C205.126 237.114 206.411 236.036 207.869 236.163C209.327 236.291 210.405 237.576 210.278 239.034C210.15 240.492 208.865 241.57 207.407 241.443Z" stroke="#8766FF" stroke-width="2"/>
<path d="M196.848 240.519C195.39 240.392 194.312 239.106 194.439 237.649C194.567 236.191 195.852 235.112 197.31 235.24C198.768 235.367 199.846 236.653 199.719 238.11C199.591 239.568 198.306 240.647 196.848 240.519Z" stroke="#8766FF" stroke-width="2"/>
<path d="M186.289 239.595C184.831 239.468 183.752 238.183 183.88 236.725C184.007 235.267 185.293 234.188 186.751 234.316C188.209 234.443 189.287 235.729 189.159 237.187C189.032 238.645 187.747 239.723 186.289 239.595Z" stroke="#8766FF" stroke-width="2"/>
<path d="M175.73 238.672C174.272 238.544 173.193 237.259 173.321 235.801C173.448 234.343 174.734 233.265 176.192 233.392C177.649 233.52 178.728 234.805 178.6 236.263C178.473 237.721 177.188 238.799 175.73 238.672Z" stroke="#8766FF" stroke-width="2"/>
<path d="M209.744 230.567L210.416 222.886C210.431 222.714 210.362 222.546 210.23 222.435L207.505 220.135L169.296 216.792M164.869 226.641L165.54 218.972C165.555 218.794 165.66 218.635 165.818 218.551L169.144 216.779M198.774 218.897L199.623 209.197C199.649 208.905 199.433 208.648 199.141 208.623L181.347 207.066C181.209 207.054 181.071 207.097 180.964 207.185L178.547 209.178C178.437 209.268 178.368 209.399 178.356 209.541L177.783 216.087M178.146 211.939L159.895 205.296M214.752 233.056L217.704 199.324M181.499 218.473L180.671 227.931M216.8 199.055L205.615 205.896C205.296 206.091 205.274 206.547 205.574 206.772L210.649 210.58L215.527 214.097C215.861 214.337 216.329 214.123 216.365 213.713L216.932 207.237L217.604 199.553C217.642 199.12 217.171 198.828 216.8 199.055Z" stroke="#8766FF" stroke-width="2" stroke-linecap="round"/>
<path d="M192.578 214.323C191.849 214.259 191.309 213.616 191.373 212.888C191.437 212.159 192.08 211.619 192.809 211.683C193.537 211.747 194.077 212.39 194.013 213.118C193.949 213.847 193.307 214.387 192.578 214.323Z" fill="#8766FF"/>
<path d="M207.272 102.272L188.728 83.728C187.546 82.546 186.143 81.6085 184.599 80.9688C183.054 80.3292 181.399 80 179.728 80C177.211 80 174.75 80.7465 172.657 82.1451C170.564 83.5437 168.932 85.5315 167.969 87.8572C167.006 90.1829 166.753 92.7421 167.245 95.2111C167.736 97.6801 168.948 99.948 170.728 101.728L189.272 120.272C191.052 122.052 193.32 123.264 195.789 123.755C198.258 124.246 200.817 123.994 203.143 123.031C205.468 122.068 207.456 120.436 208.855 118.343C210.253 116.25 211 113.789 211 111.272C211 109.601 210.671 107.945 210.031 106.401C209.391 104.857 208.454 103.454 207.272 102.272ZM193 119L175 101L188 88L206 106L193 119Z" fill="#291E53"/>
<path d="M205 79H181C180.8 79 180.6 79.0044 180.4 79.013V79.033C180.175 79.022 179.952 79 179.725 79C177.899 78.9986 176.092 79.3631 174.409 80.072L172.535 74.452C172.094 73.1741 171.337 72.0289 170.333 71.1237C169.329 70.2185 168.112 69.5829 166.795 69.2764C165.478 68.97 164.106 69.0027 162.805 69.3715C161.505 69.7403 160.319 70.4331 159.359 71.3851C158.4 72.3371 157.697 73.5171 157.318 74.8145C156.939 76.112 156.895 77.4845 157.191 78.8035C157.487 80.1225 158.113 81.3448 159.01 82.356C159.907 83.3672 161.046 84.1341 162.32 84.585L167.544 86.429C166.2 89.0134 165.716 91.9591 166.161 94.8377C166.607 97.7163 167.959 100.378 170.021 102.435L188.565 120.979C190.829 123.246 193.814 124.649 197.004 124.946C200.194 125.243 203.388 124.415 206.031 122.604C208.674 120.794 210.601 118.116 211.477 115.035C212.353 111.953 212.124 108.662 210.828 105.732C213.735 104.403 216.099 102.119 217.528 99.2607C218.957 96.4021 219.366 93.1405 218.685 90.0179C218.004 86.8952 216.275 84.0995 213.786 82.0952C211.296 80.0909 208.196 78.9987 205 79ZM162.986 82.7C162.02 82.3674 161.155 81.7943 160.472 81.0347C159.789 80.2752 159.311 79.3542 159.083 78.3586C158.854 77.363 158.883 76.3257 159.167 75.3444C159.45 74.3631 159.979 73.4702 160.703 72.7499C161.428 72.0295 162.323 71.5055 163.306 71.2273C164.289 70.949 165.326 70.9257 166.321 71.1594C167.315 71.3931 168.233 71.8763 168.989 72.5633C169.745 73.2503 170.314 74.1185 170.641 75.086L172.615 81.01C171.054 81.9604 169.698 83.2112 168.624 84.69L162.986 82.7ZM198.272 123C196.731 123.004 195.205 122.703 193.782 122.113C192.358 121.523 191.066 120.657 189.979 119.565L171.435 101.021C169.641 99.2287 168.477 96.9027 168.118 94.3925C167.759 91.8823 168.225 89.3233 169.444 87.1L172 88C171.992 88.7172 172.238 89.4142 172.695 89.9672C173.152 90.5203 173.789 90.8938 174.495 91.0216C175.201 91.1493 175.929 91.023 176.551 90.6651C177.172 90.3072 177.647 89.7408 177.891 89.0663C178.135 88.3917 178.132 87.6526 177.883 86.98C177.634 86.3073 177.155 85.7446 176.531 85.3915C175.906 85.0384 175.177 84.9177 174.472 85.0509C173.767 85.1841 173.133 85.5625 172.68 86.119L170.6 85.386C171.63 84.1013 172.919 83.0482 174.384 82.2954C175.849 81.5427 177.455 81.1073 179.1 81.0175C180.744 80.9278 182.388 81.1858 183.926 81.7746C185.464 82.3635 186.86 83.27 188.024 84.435L206.565 102.979C208.205 104.619 209.322 106.709 209.775 108.984C210.227 111.259 209.995 113.617 209.107 115.76C208.22 117.903 206.717 119.735 204.788 121.024C202.859 122.312 200.592 123 198.272 123ZM174 88C174 87.8022 174.059 87.6089 174.169 87.4445C174.279 87.28 174.435 87.1518 174.617 87.0761C174.8 87.0005 175.001 86.9807 175.195 87.0192C175.389 87.0578 175.567 87.1531 175.707 87.2929C175.847 87.4328 175.942 87.611 175.981 87.8049C176.019 87.9989 176 88.2 175.924 88.3827C175.848 88.5654 175.72 88.7216 175.556 88.8315C175.391 88.9414 175.198 89 175 89C174.735 89 174.481 88.8947 174.293 88.7071C174.105 88.5196 174 88.2652 174 88ZM205 98.586L191.414 85H205V98.586ZM209.882 103.961C209.339 103.093 208.702 102.289 207.982 101.561L207 100.586V84C207 83.7348 206.895 83.4805 206.707 83.2929C206.52 83.1054 206.265 83 206 83H189.412C188.637 82.2343 187.775 81.5629 186.842 81H205C207.749 81.0006 210.414 81.9448 212.55 83.6748C214.686 85.4048 216.164 87.8157 216.735 90.5044C217.307 93.193 216.938 95.9965 215.691 98.4459C214.443 100.895 212.393 102.842 209.882 103.961Z" fill="#8766FF"/>
<path d="M187.293 87.293L174.293 100.293C174.106 100.481 174 100.735 174 101C174 101.265 174.106 101.52 174.293 101.707L192.293 119.707C192.481 119.895 192.735 120 193 120C193.265 120 193.52 119.895 193.707 119.707L206.707 106.707C206.895 106.52 207 106.265 207 106C207 105.735 206.895 105.481 206.707 105.293L188.707 87.293C188.52 87.1056 188.265 87.0002 188 87.0002C187.735 87.0002 187.481 87.1056 187.293 87.293ZM193 117.586L176.414 101L188 89.414L204.586 106L193 117.586Z" fill="#8766FF"/>
<path d="M187.707 93.2927L186.293 94.7069L193.292 101.707L194.707 100.292L187.707 93.2927Z" fill="#8766FF"/>
<path d="M196.707 102.293L195.293 103.707L197.293 105.707L198.707 104.293L196.707 102.293Z" fill="#8766FF"/>
<path d="M184.707 96.2932L183.293 97.7074L196.293 110.708L197.708 109.293L184.707 96.2932Z" fill="#8766FF"/>
<path d="M181.707 99.2932L180.293 100.707L188.793 109.208L190.208 107.793L181.707 99.2932Z" fill="#8766FF"/>
<g clip-path="url(#clip0_489_30)">
<path d="M84.6137 146.374L92.2897 162.002L81.9766 160.377L81.9838 160.356L84.6137 146.374Z" fill="#291E53"/>
<path d="M76.9532 130.784L84.6138 146.374L81.9839 160.356L81.9767 160.377L71.6637 158.752L76.9433 130.785L76.9532 130.784Z" fill="#291E53"/>
<path d="M101.782 157.663L101.794 157.682L92.2897 162.002L84.6137 146.374L76.9531 130.784L87.8528 129.302L101.782 157.663Z" fill="#291E53"/>
<path d="M98.7426 127.821L111.299 153.362L101.794 157.682L101.782 157.663L87.8528 129.302L98.7326 127.822L98.7426 127.821Z" fill="#291E53"/>
<path d="M93.108 167.946C95.0678 167.679 97.0626 168 98.8401 168.867C100.618 169.734 102.098 171.109 103.094 172.818C104.091 174.526 104.558 176.492 104.437 178.466C104.316 180.44 103.612 182.334 102.415 183.908C101.218 185.483 99.5804 186.666 97.7103 187.31C95.8401 187.954 93.8211 188.029 91.9085 187.525C89.9959 187.021 88.2757 185.961 86.9653 184.48C85.6549 182.999 84.8132 181.162 84.5467 179.202C84.1903 176.574 84.8919 173.913 86.4973 171.802C88.1027 169.691 90.4805 168.304 93.108 167.946ZM97.5858 178.61L100.17 175.352L95.9787 175.326L93.647 171.909L92.3026 175.826L88.2798 176.969L91.6405 179.418L91.4841 183.537L94.9029 181.144L98.8364 182.537L97.5858 178.61Z" fill="#291E53"/>
<path d="M100.171 175.352L97.586 178.61L98.8366 182.537L94.9031 181.144L91.4843 183.537L91.6407 179.418L88.28 176.969L92.3027 175.826L93.6472 171.909L95.9789 175.326L100.171 175.352Z" fill="#291E53"/>
<path d="M95.8032 187.763C97.763 187.497 99.5997 186.655 101.081 185.345C102.563 184.034 103.622 182.314 104.126 180.402C104.63 178.489 104.555 176.47 103.911 174.6C103.267 172.73 102.084 171.093 100.509 169.895C98.9352 168.698 97.0413 167.994 95.0672 167.873C93.0931 167.752 91.1274 168.22 89.4188 169.216C87.7102 170.212 86.3354 171.692 85.4682 173.47C84.601 175.248 84.2804 177.242 84.5469 179.202C84.9052 181.83 86.2921 184.207 88.4029 185.813C90.5136 187.418 93.1754 188.12 95.8032 187.763ZM92.7039 164.973C96.1187 164.51 99.5776 165.422 102.32 167.509C105.062 169.596 106.863 172.687 107.327 176.102C107.791 179.516 106.879 182.976 104.793 185.718C102.706 188.461 99.6158 190.262 96.2012 190.727C92.7865 191.191 89.3273 190.28 86.5842 188.194C83.8412 186.108 82.039 183.018 81.5739 179.604C81.1089 176.189 82.0192 172.73 84.1046 169.987C86.1899 167.243 89.2796 165.44 92.694 164.975L92.7039 164.973Z" fill="#291E53"/>
<path d="M98.9677 183.533C98.8091 183.554 98.6475 183.537 98.4968 183.484L95.0519 182.256L92.06 184.359C91.9077 184.466 91.7284 184.529 91.5423 184.54C91.3562 184.551 91.1708 184.509 91.007 184.42C90.8432 184.331 90.7076 184.198 90.6153 184.036C90.5231 183.874 90.478 183.69 90.4851 183.504L90.6197 179.913L87.6891 177.778C87.5375 177.668 87.42 177.517 87.3499 177.343C87.2799 177.169 87.2602 176.979 87.2931 176.795C87.3259 176.61 87.41 176.438 87.5357 176.299C87.6615 176.16 87.8238 176.059 88.0041 176.008L91.5291 175.005L92.6991 171.586C92.7699 171.42 92.8823 171.276 93.0255 171.167C93.1688 171.058 93.3378 170.988 93.5162 170.963C93.6947 170.939 93.8763 170.961 94.0435 171.028C94.2106 171.095 94.3576 171.204 94.4699 171.345L96.5106 174.328L100.175 174.353C100.363 174.354 100.546 174.408 100.704 174.508C100.863 174.609 100.99 174.752 101.071 174.921C101.152 175.09 101.183 175.279 101.162 175.465C101.141 175.651 101.068 175.828 100.952 175.975L98.6976 178.814L99.7862 182.239C99.8305 182.378 99.8438 182.525 99.8253 182.67C99.8067 182.814 99.7566 182.953 99.6786 183.077C99.6006 183.2 99.4966 183.305 99.3737 183.383C99.2509 183.462 99.1123 183.513 98.9677 183.533L98.9677 183.533ZM94.7654 180.149C94.9241 180.127 95.0857 180.144 95.2364 180.199L97.2696 180.923L96.6306 178.913C96.581 178.757 96.5706 178.591 96.6003 178.429C96.6299 178.268 96.6986 178.117 96.8005 177.988L98.1097 176.339L95.974 176.325C95.8126 176.323 95.6539 176.283 95.5114 176.207C95.369 176.131 95.247 176.022 95.1559 175.889L93.9455 174.12L93.2515 176.148C93.1993 176.301 93.1109 176.438 92.9939 176.55C92.8768 176.661 92.7346 176.742 92.5794 176.786L90.5251 177.37L92.2273 178.61C92.3597 178.707 92.4664 178.834 92.5381 178.982C92.6097 179.129 92.644 179.292 92.638 179.456L92.559 181.564L94.3248 180.322C94.4556 180.23 94.6068 180.171 94.7654 180.149L94.7654 180.149ZM98.8813 128.812L77.0897 131.775C76.8269 131.811 76.5607 131.741 76.3496 131.581C76.1385 131.42 75.9998 131.182 75.9641 130.919C75.9284 130.657 75.9985 130.39 76.159 130.179C76.3196 129.968 76.5574 129.829 76.8202 129.794L98.6118 126.83C98.8746 126.795 99.1409 126.865 99.352 127.025C99.5631 127.186 99.7017 127.424 99.7375 127.686C99.7732 127.949 99.7031 128.215 99.5425 128.427C99.382 128.638 99.1441 128.776 98.8813 128.812Z" fill="#8766FF"/>
<path d="M92.4264 162.992C92.2184 163.021 92.0068 162.983 91.8214 162.884C91.6361 162.786 91.4865 162.631 91.3938 162.443L76.0571 131.226C75.941 130.988 75.924 130.714 76.0098 130.463C76.0956 130.212 76.2773 130.006 76.5149 129.889C76.7526 129.773 77.0269 129.755 77.2777 129.84C77.5285 129.925 77.7353 130.106 77.8529 130.343L93.1896 161.56C93.3063 161.798 93.3237 162.073 93.2382 162.324C93.1526 162.575 92.9709 162.782 92.7331 162.9C92.6364 162.946 92.5329 162.978 92.4264 162.992Z" fill="#8766FF"/>
<path d="M92.4264 162.992C92.1884 163.025 91.9468 162.971 91.7455 162.84C91.5443 162.709 91.397 162.509 91.3304 162.279C91.2639 162.048 91.2826 161.801 91.3831 161.583C91.4837 161.365 91.6594 161.19 91.878 161.091L110.881 152.453C111.001 152.398 111.13 152.367 111.262 152.363C111.393 152.358 111.524 152.38 111.647 152.426C111.77 152.472 111.883 152.542 111.979 152.631C112.076 152.721 112.153 152.829 112.207 152.949C112.262 153.068 112.292 153.198 112.296 153.329C112.301 153.461 112.279 153.592 112.233 153.715C112.186 153.838 112.116 153.95 112.026 154.046C111.936 154.142 111.828 154.22 111.709 154.274L92.7051 162.912C92.6166 162.952 92.5227 162.979 92.4264 162.992Z" fill="#8766FF"/>
<path d="M101.921 158.657C101.713 158.685 101.501 158.647 101.316 158.549C101.131 158.45 100.981 158.296 100.888 158.107L86.9529 129.744C86.8378 129.506 86.8215 129.232 86.9075 128.983C86.9935 128.733 87.175 128.527 87.4121 128.41C87.6493 128.294 87.923 128.276 88.1734 128.36C88.4239 128.445 88.6307 128.625 88.7488 128.861L102.684 157.225C102.801 157.463 102.818 157.738 102.733 157.989C102.647 158.24 102.466 158.447 102.228 158.564C102.131 158.611 102.028 158.642 101.921 158.657ZM111.43 154.355C111.222 154.383 111.01 154.345 110.825 154.247C110.64 154.148 110.49 153.994 110.397 153.805L97.8488 128.262C97.7318 128.024 97.7142 127.749 97.7998 127.498C97.8854 127.247 98.0673 127.04 98.3054 126.923C98.5435 126.806 98.8183 126.789 99.0695 126.874C99.3206 126.96 99.5275 127.142 99.6446 127.38L112.193 152.923C112.31 153.161 112.327 153.436 112.242 153.687C112.156 153.938 111.975 154.145 111.737 154.262C111.64 154.309 111.536 154.34 111.43 154.355Z" fill="#8766FF"/>
<path d="M98.8657 128.814L77.0741 131.777C76.8113 131.813 76.5451 131.743 76.334 131.583C76.1229 131.422 75.9842 131.184 75.9485 130.921C75.9128 130.659 75.9829 130.392 76.1434 130.181C76.304 129.97 76.5418 129.831 76.8046 129.796L98.5962 126.832C98.859 126.797 99.1253 126.867 99.3364 127.027C99.5475 127.188 99.6861 127.426 99.7219 127.688C99.7576 127.951 99.6875 128.217 99.5269 128.429C99.3664 128.64 99.1285 128.778 98.8657 128.814ZM92.4224 162.993C92.326 163.006 92.2283 163.005 92.1322 162.99L71.5121 159.74C71.3821 159.72 71.2574 159.674 71.1452 159.606C71.0329 159.537 70.9352 159.447 70.8576 159.341C70.7801 159.235 70.7243 159.115 70.6934 158.987C70.6625 158.859 70.6572 158.726 70.6776 158.596C70.698 158.466 70.7439 158.342 70.8125 158.23C70.8812 158.118 70.9713 158.02 71.0776 157.943C71.184 157.865 71.3046 157.81 71.4325 157.779C71.5604 157.749 71.693 157.743 71.8229 157.764L92.443 161.014C92.6803 161.051 92.8962 161.173 93.0513 161.356C93.2064 161.539 93.2904 161.772 93.2879 162.013C93.2854 162.253 93.1966 162.484 93.0377 162.664C92.8787 162.844 92.6603 162.961 92.4224 162.993Z" fill="#8766FF"/>
<path d="M82.1149 161.35C82.0083 161.365 81.9002 161.362 81.7945 161.343C81.5339 161.293 81.3036 161.142 81.1541 160.923C81.0046 160.704 80.9481 160.435 80.9969 160.174L83.633 146.192C83.6829 145.932 83.8339 145.702 84.0529 145.554C84.2719 145.405 84.541 145.349 84.8012 145.398C85.0615 145.447 85.2916 145.597 85.4412 145.816C85.5908 146.034 85.6477 146.303 85.5994 146.563L82.9633 160.545C82.9242 160.751 82.8213 160.94 82.669 161.085C82.5167 161.229 82.3229 161.322 82.1149 161.35ZM71.8024 159.744C71.6959 159.758 71.5878 159.756 71.482 159.736C71.2214 159.687 70.9911 159.536 70.8416 159.317C70.6921 159.098 70.6356 158.828 70.6845 158.568L75.9562 130.601C76.0054 130.34 76.1562 130.11 76.3754 129.96C76.5946 129.811 76.8643 129.754 77.125 129.803C77.3858 129.853 77.6163 130.004 77.7659 130.223C77.9155 130.442 77.9718 130.712 77.9226 130.972L72.6508 158.939C72.6118 159.145 72.5088 159.334 72.3565 159.478C72.2043 159.623 72.0104 159.716 71.8024 159.744ZM96.3397 191.726C93.596 192.099 90.8033 191.651 88.3148 190.436C85.8262 189.222 83.7535 187.298 82.3588 184.906C80.9641 182.514 80.3101 179.762 80.4794 176.998C80.6487 174.234 81.6338 171.583 83.31 169.379C84.9863 167.175 87.2784 165.517 89.8966 164.616C92.5148 163.715 95.3414 163.61 98.019 164.316C100.697 165.021 103.105 166.504 104.94 168.578C106.774 170.652 107.952 173.224 108.326 175.967C108.822 179.646 107.838 183.371 105.591 186.325C103.344 189.28 100.017 191.222 96.3397 191.726ZM92.8362 165.963C90.4845 166.283 88.2804 167.293 86.5027 168.866C84.725 170.438 83.4535 172.502 82.849 174.798C82.2445 177.093 82.3341 179.516 83.1066 181.76C83.8791 184.004 85.2997 185.968 87.1887 187.405C89.0778 188.842 91.3505 189.686 93.7194 189.832C96.0884 189.977 98.4471 189.416 100.497 188.221C102.548 187.025 104.198 185.249 105.238 183.116C106.279 180.982 106.664 178.589 106.344 176.237C105.912 173.085 104.247 170.233 101.714 168.307C99.1821 166.381 95.9892 165.538 92.8362 165.963Z" fill="#8766FF"/>
<path d="M95.9355 188.754C93.7797 189.047 91.5855 188.694 89.6301 187.74C87.6748 186.786 86.0463 185.274 84.9505 183.394C83.8547 181.515 83.3408 179.353 83.4738 177.181C83.6069 175.01 84.3808 172.926 85.6979 171.195C87.0149 169.463 88.8159 168.161 90.873 167.453C92.9302 166.745 95.1511 166.663 97.2549 167.217C99.3588 167.771 101.251 168.936 102.692 170.566C104.134 172.196 105.06 174.216 105.353 176.372C105.743 179.262 104.97 182.189 103.204 184.51C101.439 186.831 98.8248 188.357 95.9355 188.754ZM93.2405 168.936C91.4767 169.176 89.8236 169.933 88.4903 171.113C87.157 172.292 86.2034 173.84 85.75 175.562C85.2967 177.283 85.3639 179.1 85.9433 180.783C86.5226 182.466 87.5881 183.94 89.0049 185.017C90.4217 186.095 92.1262 186.728 93.9029 186.837C95.6796 186.946 97.4487 186.525 98.9864 185.629C100.524 184.732 101.761 183.4 102.542 181.8C103.322 180.2 103.611 178.405 103.371 176.641C103.047 174.277 101.798 172.138 99.8991 170.694C97.9999 169.249 95.6052 168.617 93.2405 168.936Z" fill="#8766FF"/>
<path d="M92.8308 165.966C92.7006 165.984 92.5683 165.976 92.4413 165.942C92.3142 165.909 92.1951 165.851 92.0905 165.771C91.986 165.692 91.8981 165.593 91.832 165.479C91.7659 165.366 91.7228 165.24 91.7052 165.11L91.3008 162.136C91.265 161.874 91.3351 161.607 91.4957 161.396C91.6563 161.185 91.8941 161.046 92.1569 161.011C92.4197 160.975 92.6859 161.045 92.897 161.206C93.1081 161.366 93.2468 161.604 93.2825 161.867L93.6869 164.841C93.7047 164.971 93.6966 165.103 93.6632 165.23C93.6298 165.357 93.5717 165.476 93.4922 165.581C93.4127 165.685 93.3133 165.773 93.1998 165.839C93.0863 165.905 92.9609 165.949 92.8308 165.966Z" fill="#8766FF"/>
</g>
<rect x="26" y="628" width="238" height="46" fill="#291E53"/>
<rect x="14.5" y="1.5" width="260" height="673" rx="15.5" stroke="#696187" stroke-width="3"/>
<defs>
<clipPath id="clip0_489_30">
<rect width="64" height="64" fill="white" transform="translate(56 132.624) rotate(-7.74422)"/>
</clipPath>
</defs>
</svg>
