<svg width="264" height="676" viewBox="0 0 264 676" fill="none" xmlns="http://www.w3.org/2000/svg">
<path d="M15.9999 636H14.9999V637V673.876C11.7934 672.792 9.467 671.675 7.71171 670.177C5.39866 668.202 3.97536 665.469 3.00029 660.897C3.0022 660.617 3.01189 660.339 3.02919 660.062L3.09561 659H2.99994V649V648H2.30682V539.474V539.409L2.29829 539.344C1.66927 534.561 1.701 529.339 2.49049 523.637C3.57474 515.806 8.4809 507.489 16.2233 499.379C23.9518 491.283 34.4294 483.475 46.4918 476.661C70.6271 463.028 100.959 453.456 128 453.456C153.147 453.456 186.201 466.694 213.329 484.142C226.876 492.855 238.89 502.584 247.658 512.172C256.457 521.793 261.859 531.134 262.446 539.074L262.5 539.797V648H262V649V658H261.958L261.992 659.033C261.997 659.179 262 659.325 262 659.472C261.756 663.75 260.09 667.745 257.355 670.48C255.004 672.832 251.838 674.281 248 674.177V637V636H247H15.9999ZM233.892 670.43C236.061 672.387 238.9 673.765 242.597 675H27.3302C33.0589 672.222 36.9999 666.818 36.9999 660.5C36.9999 656.495 35.4022 652.84 32.7733 650H231.537C229.594 652.69 228.5 655.97 228.5 659.5V659.604L228.521 659.706C229.545 664.566 231.113 667.922 233.892 670.43ZM18.6385 675C18.0712 674.837 17.5254 674.676 16.9999 674.516V638H246V673.96C240.925 672.493 237.571 671.056 235.232 668.945C232.904 666.844 231.477 663.976 230.5 659.397C230.526 655.645 231.953 652.243 234.39 649.691L236.004 648H233.667H30.2332H27.3849L29.6081 649.781C32.943 652.451 34.9999 656.279 34.9999 660.5C34.9999 668.358 27.8028 674.934 18.6385 675Z" fill="#291E53" stroke="#8766FF" stroke-width="2"/>
<path d="M153.419 226.912L197.157 230.738C201.585 231.126 204.86 235.028 204.473 239.455C204.085 243.882 200.182 247.157 195.755 246.769L152.017 242.943C147.589 242.555 144.314 238.653 144.701 234.226C145.088 229.799 148.992 226.524 153.419 226.912Z" stroke="#8766FF" stroke-width="2"/>
<path d="M195.407 241.443C193.949 241.315 192.871 240.03 192.998 238.572C193.126 237.114 194.411 236.036 195.869 236.163C197.327 236.291 198.405 237.576 198.278 239.034C198.15 240.492 196.865 241.57 195.407 241.443Z" stroke="#8766FF" stroke-width="2"/>
<path d="M184.848 240.519C183.39 240.392 182.312 239.106 182.439 237.649C182.567 236.191 183.852 235.112 185.31 235.24C186.768 235.367 187.846 236.653 187.719 238.11C187.591 239.568 186.306 240.647 184.848 240.519Z" stroke="#8766FF" stroke-width="2"/>
<path d="M174.289 239.595C172.831 239.468 171.752 238.183 171.88 236.725C172.007 235.267 173.293 234.188 174.751 234.316C176.209 234.443 177.287 235.729 177.159 237.187C177.032 238.645 175.747 239.723 174.289 239.595Z" stroke="#8766FF" stroke-width="2"/>
<path d="M163.73 238.672C162.272 238.544 161.193 237.259 161.321 235.801C161.448 234.343 162.734 233.265 164.192 233.392C165.649 233.52 166.728 234.805 166.6 236.263C166.473 237.721 165.188 238.799 163.73 238.672Z" stroke="#8766FF" stroke-width="2"/>
<path d="M197.744 230.567L198.416 222.886C198.431 222.714 198.362 222.546 198.23 222.435L195.505 220.135L157.296 216.792M152.869 226.641L153.54 218.972C153.555 218.794 153.66 218.635 153.818 218.551L157.144 216.779M186.774 218.897L187.623 209.197C187.649 208.905 187.433 208.648 187.141 208.623L169.347 207.066C169.209 207.054 169.071 207.097 168.964 207.185L166.547 209.178C166.437 209.268 166.368 209.399 166.356 209.541L165.783 216.087M166.146 211.939L147.895 205.296M202.752 233.056L205.704 199.324M169.499 218.473L168.671 227.931M204.8 199.055L193.615 205.896C193.296 206.091 193.274 206.547 193.574 206.772L198.649 210.58L203.527 214.097C203.861 214.337 204.329 214.123 204.365 213.713L204.932 207.237L205.604 199.553C205.642 199.12 205.171 198.828 204.8 199.055Z" stroke="#8766FF" stroke-width="2" stroke-linecap="round"/>
<path d="M180.578 214.323C179.849 214.259 179.309 213.616 179.373 212.888C179.437 212.159 180.08 211.619 180.809 211.683C181.537 211.747 182.077 212.39 182.013 213.118C181.949 213.847 181.307 214.387 180.578 214.323Z" fill="#8766FF"/>
<path d="M195.272 102.272L176.728 83.728C175.546 82.546 174.143 81.6085 172.599 80.9688C171.054 80.3292 169.399 80 167.728 80C165.211 80 162.75 80.7465 160.657 82.1451C158.564 83.5437 156.932 85.5315 155.969 87.8572C155.006 90.1829 154.753 92.7421 155.245 95.2111C155.736 97.6801 156.948 99.948 158.728 101.728L177.272 120.272C179.052 122.052 181.32 123.264 183.789 123.755C186.258 124.246 188.817 123.994 191.143 123.031C193.468 122.068 195.456 120.436 196.855 118.343C198.253 116.25 199 113.789 199 111.272C199 109.601 198.671 107.945 198.031 106.401C197.391 104.857 196.454 103.454 195.272 102.272ZM181 119L163 101L176 88L194 106L181 119Z" fill="#291E53"/>
<path d="M193 79H169C168.8 79 168.6 79.0044 168.4 79.013V79.033C168.175 79.022 167.952 79 167.725 79C165.899 78.9986 164.092 79.3631 162.409 80.072L160.535 74.452C160.094 73.1741 159.337 72.0289 158.333 71.1237C157.329 70.2185 156.112 69.5829 154.795 69.2764C153.478 68.97 152.106 69.0027 150.805 69.3715C149.505 69.7403 148.319 70.4331 147.359 71.3851C146.4 72.3371 145.697 73.5171 145.318 74.8145C144.939 76.112 144.895 77.4845 145.191 78.8035C145.487 80.1225 146.113 81.3448 147.01 82.356C147.907 83.3672 149.046 84.1341 150.32 84.585L155.544 86.429C154.2 89.0134 153.716 91.9591 154.161 94.8377C154.607 97.7163 155.959 100.378 158.021 102.435L176.565 120.979C178.829 123.246 181.814 124.649 185.004 124.946C188.194 125.243 191.388 124.415 194.031 122.604C196.674 120.794 198.601 118.116 199.477 115.035C200.353 111.953 200.124 108.662 198.828 105.732C201.735 104.403 204.099 102.119 205.528 99.2607C206.957 96.4021 207.366 93.1405 206.685 90.0179C206.004 86.8952 204.275 84.0995 201.786 82.0952C199.296 80.0909 196.196 78.9987 193 79ZM150.986 82.7C150.02 82.3674 149.155 81.7943 148.472 81.0347C147.789 80.2752 147.311 79.3542 147.083 78.3586C146.854 77.363 146.883 76.3257 147.167 75.3444C147.45 74.3631 147.979 73.4702 148.703 72.7499C149.428 72.0295 150.323 71.5055 151.306 71.2273C152.289 70.949 153.326 70.9257 154.321 71.1594C155.315 71.3931 156.233 71.8763 156.989 72.5633C157.745 73.2503 158.314 74.1185 158.641 75.086L160.615 81.01C159.054 81.9604 157.698 83.2112 156.624 84.69L150.986 82.7ZM186.272 123C184.731 123.004 183.205 122.703 181.782 122.113C180.358 121.523 179.066 120.657 177.979 119.565L159.435 101.021C157.641 99.2287 156.477 96.9027 156.118 94.3925C155.759 91.8823 156.225 89.3233 157.444 87.1L160 88C159.992 88.7172 160.238 89.4142 160.695 89.9672C161.152 90.5203 161.789 90.8938 162.495 91.0216C163.201 91.1493 163.929 91.023 164.551 90.6651C165.172 90.3072 165.647 89.7408 165.891 89.0663C166.135 88.3917 166.132 87.6526 165.883 86.98C165.634 86.3073 165.155 85.7446 164.531 85.3915C163.906 85.0384 163.177 84.9177 162.472 85.0509C161.767 85.1841 161.133 85.5625 160.68 86.119L158.6 85.386C159.63 84.1013 160.919 83.0482 162.384 82.2954C163.849 81.5427 165.455 81.1073 167.1 81.0175C168.744 80.9278 170.388 81.1858 171.926 81.7746C173.464 82.3635 174.86 83.27 176.024 84.435L194.565 102.979C196.205 104.619 197.322 106.709 197.775 108.984C198.227 111.259 197.995 113.617 197.107 115.76C196.22 117.903 194.717 119.735 192.788 121.024C190.859 122.312 188.592 123 186.272 123ZM162 88C162 87.8022 162.059 87.6089 162.169 87.4445C162.279 87.28 162.435 87.1518 162.617 87.0761C162.8 87.0005 163.001 86.9807 163.195 87.0192C163.389 87.0578 163.567 87.1531 163.707 87.2929C163.847 87.4328 163.942 87.611 163.981 87.8049C164.019 87.9989 164 88.2 163.924 88.3827C163.848 88.5654 163.72 88.7216 163.556 88.8315C163.391 88.9414 163.198 89 163 89C162.735 89 162.481 88.8947 162.293 88.7071C162.105 88.5196 162 88.2652 162 88ZM193 98.586L179.414 85H193V98.586ZM197.882 103.961C197.339 103.093 196.702 102.289 195.982 101.561L195 100.586V84C195 83.7348 194.895 83.4805 194.707 83.2929C194.52 83.1054 194.265 83 194 83H177.412C176.637 82.2343 175.775 81.5629 174.842 81H193C195.749 81.0006 198.414 81.9448 200.55 83.6748C202.686 85.4048 204.164 87.8157 204.735 90.5044C205.307 93.193 204.938 95.9965 203.691 98.4459C202.443 100.895 200.393 102.842 197.882 103.961Z" fill="#8766FF"/>
<path d="M175.293 87.293L162.293 100.293C162.106 100.481 162 100.735 162 101C162 101.265 162.106 101.52 162.293 101.707L180.293 119.707C180.481 119.895 180.735 120 181 120C181.265 120 181.52 119.895 181.707 119.707L194.707 106.707C194.895 106.52 195 106.265 195 106C195 105.735 194.895 105.481 194.707 105.293L176.707 87.293C176.52 87.1056 176.265 87.0002 176 87.0002C175.735 87.0002 175.481 87.1056 175.293 87.293ZM181 117.586L164.414 101L176 89.414L192.586 106L181 117.586Z" fill="#8766FF"/>
<path d="M175.707 93.2927L174.293 94.7069L181.292 101.707L182.707 100.292L175.707 93.2927Z" fill="#8766FF"/>
<path d="M184.707 102.293L183.293 103.707L185.293 105.707L186.707 104.293L184.707 102.293Z" fill="#8766FF"/>
<path d="M172.707 96.2932L171.293 97.7074L184.293 110.708L185.708 109.293L172.707 96.2932Z" fill="#8766FF"/>
<path d="M169.707 99.2932L168.293 100.707L176.793 109.208L178.208 107.793L169.707 99.2932Z" fill="#8766FF"/>
<g clip-path="url(#clip0_515_697)">
<path d="M72.6137 146.374L80.2897 162.002L69.9766 160.377L69.9838 160.356L72.6137 146.374Z" fill="#291E53"/>
<path d="M64.9532 130.784L72.6138 146.374L69.9839 160.356L69.9767 160.377L59.6637 158.752L64.9433 130.785L64.9532 130.784Z" fill="#291E53"/>
<path d="M89.7816 157.663L89.7942 157.682L80.2897 162.002L72.6137 146.374L64.9531 130.784L75.8528 129.302L89.7816 157.663Z" fill="#291E53"/>
<path d="M86.7426 127.821L99.2987 153.362L89.7942 157.682L89.7816 157.663L75.8528 129.302L86.7326 127.822L86.7426 127.821Z" fill="#291E53"/>
<path d="M81.108 167.946C83.0678 167.679 85.0626 168 86.8401 168.867C88.6177 169.734 90.0982 171.109 91.0944 172.818C92.0906 174.526 92.5578 176.492 92.4368 178.466C92.3159 180.44 91.6122 182.334 90.4149 183.908C89.2176 185.483 87.5804 186.666 85.7103 187.31C83.8401 187.954 81.8211 188.029 79.9085 187.525C77.9959 187.021 76.2757 185.961 74.9653 184.48C73.6549 182.999 72.8132 181.162 72.5467 179.202C72.1903 176.574 72.8919 173.913 74.4973 171.802C76.1027 169.691 78.4805 168.304 81.108 167.946ZM85.5858 178.61L88.1704 175.352L83.9787 175.326L81.647 171.909L80.3026 175.826L76.2798 176.969L79.6405 179.418L79.4841 183.537L82.9029 181.144L86.8364 182.537L85.5858 178.61Z" fill="#291E53"/>
<path d="M88.1705 175.352L85.586 178.61L86.8366 182.537L82.9031 181.144L79.4843 183.537L79.6407 179.418L76.28 176.969L80.3027 175.826L81.6472 171.909L83.9789 175.326L88.1705 175.352Z" fill="#291E53"/>
<path d="M83.8032 187.763C85.763 187.497 87.5997 186.655 89.0811 185.345C90.5626 184.034 91.6222 182.314 92.1259 180.402C92.6297 178.489 92.5549 176.47 91.9112 174.6C91.2675 172.73 90.0837 171.093 88.5094 169.895C86.9352 168.698 85.0413 167.994 83.0672 167.873C81.0931 167.752 79.1274 168.22 77.4188 169.216C75.7102 170.212 74.3354 171.692 73.4682 173.47C72.601 175.248 72.2804 177.242 72.5469 179.202C72.9052 181.83 74.2921 184.207 76.4029 185.813C78.5136 187.418 81.1754 188.12 83.8032 187.763ZM80.7039 164.973C84.1187 164.51 87.5776 165.422 90.3199 167.509C93.0622 169.596 94.8632 172.687 95.3269 176.102C95.7906 179.516 94.879 182.976 92.7926 185.718C90.7062 188.461 87.6158 190.262 84.2012 190.727C80.7865 191.191 77.3273 190.28 74.5842 188.194C71.8412 186.108 70.039 183.018 69.5739 179.604C69.1089 176.189 70.0192 172.73 72.1046 169.987C74.1899 167.243 77.2796 165.44 80.694 164.975L80.7039 164.973Z" fill="#291E53"/>
<path d="M86.9677 183.533C86.8091 183.554 86.6475 183.537 86.4968 183.484L83.0519 182.256L80.06 184.359C79.9077 184.466 79.7284 184.529 79.5423 184.54C79.3562 184.551 79.1708 184.509 79.007 184.42C78.8432 184.331 78.7076 184.198 78.6153 184.036C78.5231 183.874 78.478 183.69 78.4851 183.504L78.6197 179.913L75.6891 177.778C75.5375 177.668 75.42 177.517 75.3499 177.343C75.2799 177.169 75.2602 176.979 75.2931 176.795C75.3259 176.61 75.41 176.438 75.5357 176.299C75.6615 176.16 75.8238 176.059 76.0041 176.008L79.5291 175.005L80.6991 171.586C80.7699 171.42 80.8823 171.276 81.0255 171.167C81.1688 171.058 81.3378 170.988 81.5162 170.963C81.6947 170.939 81.8763 170.961 82.0435 171.028C82.2106 171.095 82.3576 171.204 82.4699 171.345L84.5106 174.328L88.1753 174.353C88.3628 174.354 88.5462 174.408 88.7045 174.508C88.8628 174.609 88.9897 174.752 89.0706 174.921C89.1516 175.09 89.1834 175.279 89.1624 175.465C89.1413 175.651 89.0684 175.828 88.9517 175.975L86.6976 178.814L87.7862 182.239C87.8305 182.378 87.8438 182.525 87.8253 182.67C87.8067 182.814 87.7566 182.953 87.6786 183.077C87.6006 183.2 87.4966 183.305 87.3737 183.383C87.2509 183.462 87.1123 183.513 86.9677 183.533L86.9677 183.533ZM82.7654 180.149C82.9241 180.127 83.0857 180.144 83.2364 180.199L85.2696 180.923L84.6306 178.913C84.581 178.757 84.5706 178.591 84.6003 178.429C84.6299 178.268 84.6986 178.117 84.8005 177.988L86.1097 176.339L83.974 176.325C83.8126 176.323 83.6539 176.283 83.5114 176.207C83.369 176.131 83.247 176.022 83.1559 175.889L81.9455 174.12L81.2515 176.148C81.1993 176.301 81.1109 176.438 80.9939 176.55C80.8768 176.661 80.7346 176.742 80.5794 176.786L78.5251 177.37L80.2273 178.61C80.3597 178.707 80.4664 178.834 80.5381 178.982C80.6097 179.129 80.644 179.292 80.638 179.456L80.559 181.564L82.3248 180.322C82.4556 180.23 82.6068 180.171 82.7654 180.149L82.7654 180.149ZM86.8813 128.812L65.0897 131.775C64.8269 131.811 64.5607 131.741 64.3496 131.581C64.1385 131.42 63.9998 131.182 63.9641 130.919C63.9284 130.657 63.9985 130.39 64.159 130.179C64.3196 129.968 64.5574 129.829 64.8202 129.794L86.6118 126.83C86.8746 126.795 87.1409 126.865 87.352 127.025C87.5631 127.186 87.7017 127.424 87.7375 127.686C87.7732 127.949 87.7031 128.215 87.5425 128.427C87.382 128.638 87.1441 128.776 86.8813 128.812Z" fill="#8766FF"/>
<path d="M80.4264 162.992C80.2184 163.021 80.0068 162.983 79.8214 162.884C79.6361 162.786 79.4865 162.631 79.3938 162.443L64.0571 131.226C63.941 130.988 63.924 130.714 64.0098 130.463C64.0956 130.212 64.2773 130.006 64.5149 129.889C64.7526 129.773 65.0269 129.755 65.2777 129.84C65.5285 129.925 65.7353 130.106 65.8529 130.343L81.1896 161.56C81.3063 161.798 81.3237 162.073 81.2382 162.324C81.1526 162.575 80.9709 162.782 80.7331 162.9C80.6364 162.946 80.5329 162.978 80.4264 162.992Z" fill="#8766FF"/>
<path d="M80.4264 162.992C80.1884 163.025 79.9468 162.971 79.7455 162.84C79.5443 162.709 79.397 162.509 79.3304 162.279C79.2639 162.048 79.2826 161.801 79.3831 161.583C79.4837 161.365 79.6594 161.19 79.878 161.091L98.8814 152.453C99.001 152.398 99.1303 152.367 99.2617 152.363C99.3931 152.358 99.5241 152.38 99.6473 152.426C99.7704 152.472 99.8833 152.542 99.9794 152.631C100.076 152.721 100.153 152.829 100.207 152.949C100.262 153.068 100.292 153.198 100.296 153.329C100.301 153.461 100.279 153.592 100.233 153.715C100.186 153.838 100.116 153.95 100.026 154.046C99.9364 154.142 99.8284 154.22 99.7086 154.274L80.7051 162.912C80.6166 162.952 80.5227 162.979 80.4264 162.992Z" fill="#8766FF"/>
<path d="M89.921 158.657C89.713 158.685 89.5014 158.647 89.3161 158.549C89.1307 158.45 88.9811 158.296 88.8884 158.107L74.9529 129.744C74.8378 129.506 74.8215 129.232 74.9075 128.983C74.9935 128.733 75.175 128.527 75.4121 128.41C75.6493 128.294 75.923 128.276 76.1734 128.36C76.4239 128.445 76.6307 128.625 76.7488 128.861L90.6842 157.225C90.8009 157.463 90.8184 157.738 90.7328 157.989C90.6473 158.24 90.4656 158.447 90.2277 158.564C90.131 158.611 90.0275 158.642 89.921 158.657ZM99.43 154.355C99.222 154.383 99.0104 154.345 98.825 154.247C98.6397 154.148 98.4901 153.994 98.3973 153.805L85.8488 128.262C85.7318 128.024 85.7142 127.749 85.7998 127.498C85.8854 127.247 86.0673 127.04 86.3054 126.923C86.5435 126.806 86.8183 126.789 87.0695 126.874C87.3206 126.96 87.5275 127.142 87.6446 127.38L100.193 152.923C100.31 153.161 100.327 153.436 100.242 153.687C100.156 153.938 99.9746 154.145 99.7367 154.262C99.64 154.309 99.5365 154.34 99.43 154.355Z" fill="#8766FF"/>
<path d="M86.8657 128.814L65.0741 131.777C64.8113 131.813 64.5451 131.743 64.334 131.583C64.1229 131.422 63.9842 131.184 63.9485 130.921C63.9128 130.659 63.9829 130.392 64.1434 130.181C64.304 129.97 64.5418 129.831 64.8046 129.796L86.5962 126.832C86.859 126.797 87.1253 126.867 87.3364 127.027C87.5475 127.188 87.6861 127.426 87.7219 127.688C87.7576 127.951 87.6875 128.217 87.5269 128.429C87.3664 128.64 87.1285 128.778 86.8657 128.814ZM80.4224 162.993C80.326 163.006 80.2283 163.005 80.1322 162.99L59.5121 159.74C59.3821 159.72 59.2574 159.674 59.1452 159.606C59.0329 159.537 58.9352 159.447 58.8576 159.341C58.7801 159.235 58.7243 159.115 58.6934 158.987C58.6625 158.859 58.6572 158.726 58.6776 158.596C58.698 158.466 58.7439 158.342 58.8125 158.23C58.8812 158.118 58.9713 158.02 59.0776 157.943C59.184 157.865 59.3046 157.81 59.4325 157.779C59.5604 157.749 59.693 157.743 59.8229 157.764L80.443 161.014C80.6803 161.051 80.8962 161.173 81.0513 161.356C81.2064 161.539 81.2904 161.772 81.2879 162.013C81.2854 162.253 81.1966 162.484 81.0377 162.664C80.8787 162.844 80.6603 162.961 80.4224 162.993Z" fill="#8766FF"/>
<path d="M70.1149 161.35C70.0083 161.365 69.9002 161.362 69.7945 161.343C69.5339 161.293 69.3036 161.142 69.1541 160.923C69.0046 160.704 68.9481 160.435 68.9969 160.174L71.633 146.192C71.6829 145.932 71.8339 145.702 72.0529 145.554C72.2719 145.405 72.541 145.349 72.8012 145.398C73.0615 145.447 73.2916 145.597 73.4412 145.816C73.5908 146.034 73.6477 146.303 73.5994 146.563L70.9633 160.545C70.9242 160.751 70.8213 160.94 70.669 161.085C70.5167 161.229 70.3229 161.322 70.1149 161.35ZM59.8024 159.744C59.6959 159.758 59.5878 159.756 59.482 159.736C59.2214 159.687 58.9911 159.536 58.8416 159.317C58.6921 159.098 58.6356 158.828 58.6845 158.568L63.9562 130.601C64.0054 130.34 64.1562 130.11 64.3754 129.96C64.5946 129.811 64.8643 129.754 65.125 129.803C65.3858 129.853 65.6163 130.004 65.7659 130.223C65.9155 130.442 65.9718 130.712 65.9226 130.972L60.6508 158.939C60.6118 159.145 60.5088 159.334 60.3565 159.478C60.2043 159.623 60.0104 159.716 59.8024 159.744ZM84.3397 191.726C81.596 192.099 78.8033 191.651 76.3148 190.436C73.8262 189.222 71.7535 187.298 70.3588 184.906C68.9641 182.514 68.3101 179.762 68.4794 176.998C68.6487 174.234 69.6338 171.583 71.31 169.379C72.9863 167.175 75.2784 165.517 77.8966 164.616C80.5148 163.715 83.3414 163.61 86.019 164.316C88.6966 165.021 91.105 166.504 92.9395 168.578C94.7741 170.652 95.9524 173.224 96.3255 175.967C96.8216 179.646 95.8382 183.371 93.5912 186.325C91.3442 189.28 88.0171 191.222 84.3397 191.726ZM80.8362 165.963C78.4845 166.283 76.2804 167.293 74.5027 168.866C72.725 170.438 71.4535 172.502 70.849 174.798C70.2445 177.093 70.3341 179.516 71.1066 181.76C71.8791 184.004 73.2997 185.968 75.1887 187.405C77.0778 188.842 79.3505 189.686 81.7194 189.832C84.0884 189.977 86.4471 189.416 88.4975 188.221C90.5478 187.025 92.1976 185.249 93.2382 183.116C94.2789 180.982 94.6636 178.589 94.3438 176.237C93.9116 173.085 92.2467 170.233 89.7144 168.307C87.1821 166.381 83.9892 165.538 80.8362 165.963Z" fill="#8766FF"/>
<path d="M83.9355 188.754C81.7797 189.047 79.5855 188.694 77.6301 187.74C75.6748 186.786 74.0463 185.274 72.9505 183.394C71.8547 181.515 71.3408 179.353 71.4738 177.181C71.6069 175.01 72.3808 172.926 73.6979 171.195C75.0149 169.463 76.8159 168.161 78.873 167.453C80.9302 166.745 83.1511 166.663 85.2549 167.217C87.3588 167.771 89.2511 168.936 90.6925 170.566C92.1339 172.196 93.0597 174.216 93.3529 176.372C93.7426 179.262 92.97 182.189 91.2045 184.51C89.439 186.831 86.8248 188.357 83.9355 188.754ZM81.2405 168.936C79.4767 169.176 77.8236 169.933 76.4903 171.113C75.157 172.292 74.2034 173.84 73.75 175.562C73.2967 177.283 73.3639 179.1 73.9433 180.783C74.5226 182.466 75.5881 183.94 77.0049 185.017C78.4217 186.095 80.1262 186.728 81.9029 186.837C83.6796 186.946 85.4487 186.525 86.9864 185.629C88.5242 184.732 89.7615 183.4 90.542 181.8C91.3225 180.2 91.611 178.405 91.3711 176.641C91.047 174.277 89.7984 172.138 87.8991 170.694C85.9999 169.249 83.6052 168.617 81.2405 168.936Z" fill="#8766FF"/>
<path d="M80.8308 165.966C80.7006 165.984 80.5683 165.976 80.4413 165.942C80.3142 165.909 80.1951 165.851 80.0905 165.771C79.986 165.692 79.8981 165.593 79.832 165.479C79.7659 165.366 79.7228 165.24 79.7052 165.11L79.3008 162.136C79.265 161.874 79.3351 161.607 79.4957 161.396C79.6563 161.185 79.8941 161.046 80.1569 161.011C80.4197 160.975 80.6859 161.045 80.897 161.206C81.1081 161.366 81.2468 161.604 81.2825 161.867L81.6869 164.841C81.7047 164.971 81.6966 165.103 81.6632 165.23C81.6298 165.357 81.5717 165.476 81.4922 165.581C81.4127 165.685 81.3133 165.773 81.1998 165.839C81.0863 165.905 80.9609 165.949 80.8308 165.966Z" fill="#8766FF"/>
</g>
<rect x="14" y="628" width="238" height="46" fill="#291E53"/>
<mask id="path-32-inside-1_515_697" fill="white">
<path fill-rule="evenodd" clip-rule="evenodd" d="M1.49998 537.5C16.932 505.485 51.9082 455.694 82.2359 426.493C109.614 391.865 103.748 393.01 88.6105 395.965C81.4817 397.356 72.2968 399.149 63.5599 397.796C57.5461 403.041 48.4753 409.89 39.0982 416.972C19.2861 431.933 -1.89376 447.928 1.49998 452L1.49998 537.5Z"/>
</mask>
<path fill-rule="evenodd" clip-rule="evenodd" d="M1.49998 537.5C16.932 505.485 51.9082 455.694 82.2359 426.493C109.614 391.865 103.748 393.01 88.6105 395.965C81.4817 397.356 72.2968 399.149 63.5599 397.796C57.5461 403.041 48.4753 409.89 39.0982 416.972C19.2861 431.933 -1.89376 447.928 1.49998 452L1.49998 537.5Z" fill="#291E53"/>
<path d="M82.2359 426.493L83.6231 427.934L83.7208 427.84L83.8048 427.733L82.2359 426.493ZM1.49998 537.5H-0.500023L3.3016 538.368L1.49998 537.5ZM88.6105 395.965L88.9937 397.928L88.6105 395.965ZM63.5599 397.796L63.8661 395.819L62.9466 395.677L62.2453 396.288L63.5599 397.796ZM39.0982 416.972L37.8929 415.376L39.0982 416.972ZM1.49998 452H3.49998V451.276L3.03642 450.72L1.49998 452ZM80.8487 425.052C50.3442 454.424 15.2299 504.41 -0.301643 536.632L3.3016 538.368C18.634 506.56 53.4721 456.965 83.6231 427.934L80.8487 425.052ZM88.9937 397.928C92.8715 397.171 95.8353 396.603 97.8344 396.619C98.8463 396.627 99.2532 396.792 99.3624 396.864C99.3808 396.876 99.3557 396.86 99.3406 396.828C99.3322 396.811 99.3707 396.877 99.3669 397.101C99.3582 397.602 99.1484 398.51 98.4604 399.998C97.7895 401.448 96.7398 403.291 95.2337 405.609C92.2227 410.244 87.5033 416.606 80.6671 425.252L83.8048 427.733C90.6577 419.066 95.4719 412.585 98.5881 407.788C100.146 405.391 101.308 403.37 102.091 401.677C102.857 400.021 103.343 398.506 103.366 397.17C103.392 395.699 102.84 394.368 101.567 393.527C100.473 392.804 99.1058 392.629 97.8668 392.619C95.3642 392.599 91.9182 393.282 88.2274 394.002L88.9937 397.928ZM63.2537 399.772C72.3926 401.188 81.9216 399.308 88.9937 397.928L88.2274 394.002C81.0419 395.404 72.201 397.11 63.8661 395.819L63.2537 399.772ZM40.3035 418.568C49.6567 411.505 58.7948 404.605 64.8745 399.303L62.2453 396.288C56.2973 401.476 47.294 408.276 37.8929 415.376L40.3035 418.568ZM3.03642 450.72C3.24668 450.972 3.03935 451.117 3.22081 450.587C3.40533 450.048 3.86902 449.24 4.7275 448.151C6.42322 446 9.25261 443.253 12.908 440.08C20.1923 433.756 30.3779 426.063 40.3035 418.568L37.8929 415.376C28.0064 422.842 17.696 430.627 10.2858 437.059C6.59392 440.264 3.52642 443.214 1.58628 445.675C0.626829 446.892 -0.162157 448.118 -0.56372 449.292C-0.968341 450.474 -1.09516 452.01 -0.0364646 453.28L3.03642 450.72ZM3.49998 537.5L3.49998 452H-0.500022L-0.500023 537.5H3.49998Z" fill="#8766FF" mask="url(#path-32-inside-1_515_697)"/>
<mask id="path-34-inside-2_515_697" fill="white">
<path fill-rule="evenodd" clip-rule="evenodd" d="M263.5 543C248.068 510.985 222.812 466.694 192.485 437.493C165.106 402.865 170.973 404.01 186.11 406.965C193.239 408.356 202.424 410.149 211.161 408.795C217.714 414.511 226.646 421.276 235.295 427.825C251.348 439.983 266.425 451.4 263.5 454C263.5 479.054 263.5 504.107 263.5 527.775L263.5 543Z"/>
</mask>
<path fill-rule="evenodd" clip-rule="evenodd" d="M263.5 543C248.068 510.985 222.812 466.694 192.485 437.493C165.106 402.865 170.973 404.01 186.11 406.965C193.239 408.356 202.424 410.149 211.161 408.795C217.714 414.511 226.646 421.276 235.295 427.825C251.348 439.983 266.425 451.4 263.5 454C263.5 479.054 263.5 504.107 263.5 527.775L263.5 543Z" fill="#291E53"/>
<path d="M192.485 437.493L190.916 438.733L191 438.839L191.097 438.933L192.485 437.493ZM263.5 543L261.698 543.868L265.5 543L263.5 543ZM186.11 406.965L185.727 408.928L186.11 406.965ZM211.161 408.795L212.475 407.288L211.774 406.677L210.854 406.819L211.161 408.795ZM235.295 427.825L236.502 426.231L235.295 427.825ZM263.5 454L262.172 452.505L261.5 453.102V454L263.5 454ZM263.5 527.775L265.5 527.775L263.5 527.775ZM191.097 438.933C221.163 467.882 246.294 511.911 261.698 543.868L265.302 542.132C249.842 510.059 224.462 465.506 193.872 436.052L191.097 438.933ZM186.493 405.002C182.802 404.281 179.356 403.599 176.854 403.619C175.615 403.629 174.248 403.804 173.154 404.526C171.88 405.368 171.329 406.699 171.354 408.17C171.377 409.506 171.864 411.021 172.63 412.677C173.413 414.37 174.575 416.391 176.132 418.788C179.249 423.585 184.063 430.066 190.916 438.733L194.053 436.252C187.217 427.606 182.498 421.244 179.487 416.609C177.981 414.291 176.931 412.448 176.26 410.998C175.572 409.51 175.362 408.601 175.354 408.101C175.35 407.877 175.388 407.811 175.38 407.828C175.365 407.86 175.34 407.876 175.358 407.864C175.467 407.792 175.874 407.627 176.886 407.619C178.885 407.603 181.849 408.171 185.727 408.928L186.493 405.002ZM210.854 406.819C202.519 408.11 193.679 406.404 186.493 405.002L185.727 408.928C192.799 410.308 202.328 412.188 211.467 410.772L210.854 406.819ZM236.502 426.231C227.835 419.667 218.966 412.949 212.475 407.288L209.846 410.303C216.463 416.074 225.458 422.884 234.087 429.419L236.502 426.231ZM264.829 455.495C265.955 454.494 266.004 453.13 265.712 452.088C265.444 451.131 264.845 450.18 264.169 449.302C262.787 447.509 260.546 445.349 257.826 442.987C252.353 438.234 244.508 432.293 236.502 426.231L234.087 429.419C242.135 435.514 249.855 441.362 255.203 446.007C257.893 448.343 259.876 450.286 261 451.744C261.577 452.492 261.801 452.955 261.861 453.167C261.896 453.295 261.777 452.856 262.172 452.505L264.829 455.495ZM265.5 527.775C265.5 504.107 265.5 479.054 265.5 454L261.5 454C261.5 479.054 261.5 504.107 261.5 527.775L265.5 527.775ZM265.5 543L265.5 527.775L261.5 527.775L261.5 543L265.5 543Z" fill="#8766FF" mask="url(#path-34-inside-2_515_697)"/>
<path d="M164.5 460C162 467 153.792 477.5 137.5 477.5C121.208 477.5 107.001 464 101 457C131.499 444 115.207 444 131.499 444C147.791 444 131.499 444 164.5 460Z" fill="#A298C9"/>
<rect x="112" y="416" width="39" height="45" fill="#A298C9"/>
<path fill-rule="evenodd" clip-rule="evenodd" d="M204.267 378.907C208.401 375.166 212.017 368.043 214.5 354.5C214.5 332 195.941 327.5 186 327.5C176.059 327.5 173.5 341.5 177 355.5C178.059 359.734 178.427 363.446 178.658 366.677C172.934 374.497 168 385.839 168 391C168 399.284 168 407.5 182 405C187.414 404.033 195.682 400 201 391C202.817 387.925 204.092 383.509 204.267 378.907ZM90.9109 363.28C90.9699 362.694 91 362.1 91 361.5C91 351.283 82.2696 343 71.5 343C60.7304 343 52 351.283 52 361.5C52 368.736 56.3789 375.002 62.7598 378.042C62.589 379.006 62.5 379.994 62.5 381C62.5 391.493 75 403.5 90 401.5C101.322 401.5 104 391.493 104 381C104 372.929 98.5699 366.033 90.9109 363.28Z" fill="#726B8E"/>
<path d="M179.5 380C174.465 412.5 151.53 437 136 437C108 437 89 405.5 86.5 377C86.5 342.206 102.52 316 134 316C165.48 316 185 344.5 179.5 380Z" fill="#A298C9"/>
<path fill-rule="evenodd" clip-rule="evenodd" d="M153.985 328.028C154.119 327.948 154.25 327.867 154.38 327.786C156.36 328.017 158.558 328.251 161 328.5C162.304 328.385 163.634 328.349 164.975 328.37C171.382 334.988 174.99 343.149 178.98 352.5C186.16 352.5 191.98 338.127 191.98 331.5C191.98 330.369 191.811 329.275 191.494 328.237C194.052 326.131 194.755 321.851 192.5 313.699C190.5 302.5 179.307 293.199 165.5 293.199C158.12 292.245 149.987 294.248 143.881 297.575C139.815 292.337 132.887 289 123 289C107.299 289 95.863 299.299 94.207 310.663C92.1863 310.541 89.8053 310.64 87 311C73.5 311 60 325.059 60 335C60 344.941 71.2975 355 84 355C100.86 353.073 104.261 345.577 105.382 330.276C105.991 330.61 106.621 330.924 107.269 331.217C112.222 334.114 119.98 336 127.5 336C138.749 335.598 149.999 332.518 153.985 328.028Z" fill="#726B8E"/>
<path d="M129.5 372C129.5 375.314 128.433 378 126.5 378C124.567 378 121 375.314 121 372C121 368.686 122.567 364.5 124.5 364.5C127.5 364.5 129.5 368.686 129.5 372Z" fill="#7755F1"/>
<path d="M129.5 372C129.5 375.314 128.433 378 126.5 378C124.567 378 121 375.314 121 372C121 368.686 122.567 364.5 124.5 364.5C127.5 364.5 129.5 368.686 129.5 372Z" fill="#7755F1"/>
<path d="M127 343.711C127 345.368 122 348.767 118 349.211C113.5 349.711 111.5 350.211 111 348.211C111 346.211 115 342.774 119.5 342.211C123.5 341.711 127 342.055 127 343.711Z" fill="#291E53"/>
<path d="M158.01 354.077C157.51 355.077 154.01 355.577 151.01 355.077C144.51 352.577 146.01 349.577 146.51 348.577C148.01 347.577 149.51 348.077 153.01 348.577C156.51 349.577 158.01 353.077 158.01 354.077Z" fill="#291E53"/>
<path d="M139.5 373C139.642 380.887 138.167 388.523 140.5 395C134.392 395.913 137.828 393.167 135 395" stroke="#291E53" stroke-width="3" stroke-linecap="round" stroke-linejoin="round"/>
<path d="M136.3 409.062C140.371 415.296 124.842 408.279 136.3 409.062Z" stroke="#291E53" stroke-width="3" stroke-linecap="round" stroke-linejoin="round"/>
<ellipse cx="167" cy="326" rx="13" ry="10" fill="#726B8E"/>
<path d="M107 424.5C124.5 442 135.5 445.5 157.5 426" stroke="#291E53" stroke-linecap="round"/>
<circle cx="135" cy="372" r="10" fill="#8766FF"/>
<path d="M118 362C124.59 364.929 128.428 365.935 135.739 365.607C142.789 365.98 146.176 364.748 152 362L151.014 383C146.001 380.491 142.758 379.488 135.739 378.835C128.318 378.916 124.471 379.939 118 383V362Z" fill="#8766FF"/>
<path d="M116.5 398.5C111.5 410.5 108.5 421.5 81.5001 430.5C71.5001 433.5 52 437 53.5 386C53.5 372.193 78.1931 350 92.0002 350C105.807 350 116.5 384.693 116.5 398.5Z" fill="#A298C9"/>
<path d="M152 397.5C157 409.5 160 420.5 187 429.5C197 432.5 216.5 436 215 385C215 371.193 190.307 349 176.5 349C162.693 349 152 383.693 152 397.5Z" fill="#A298C9"/>
<path d="M101 422C111.5 413.5 115 403.5 117.5 397" stroke="#291E53" stroke-linecap="round"/>
<path d="M170.5 423C160 414.5 156.5 404.5 154 398" stroke="#291E53" stroke-linecap="round"/>
<circle cx="98.5" cy="377.5" r="27.5" fill="#8766FF"/>
<circle cx="98.5" cy="377.5" r="22.5" fill="#291E53"/>
<circle cx="98.3367" cy="388.613" r="2.5" transform="rotate(31.9409 98.3367 388.613)" fill="#A298C9"/>
<circle cx="171.5" cy="377.5" r="27.5" fill="#8766FF"/>
<circle cx="171.5" cy="377.5" r="22.5" fill="#291E53"/>
<circle cx="170.945" cy="388.652" r="2.5" transform="rotate(151.859 170.945 388.652)" fill="#A298C9"/>
<path d="M95.9481 365.037C101.895 360.591 106.314 365.384 105.246 368.795C104.635 371.472 97.6221 374.234 98.3827 379.804" stroke="#A298C9" stroke-width="3" stroke-linecap="round"/>
<path d="M168.982 365.027C174.945 360.603 179.347 365.412 178.267 368.819C177.646 371.494 170.623 374.231 171.364 379.803" stroke="#A298C9" stroke-width="3" stroke-linecap="round"/>
<rect x="2.5" y="1.5" width="260" height="673" rx="15.5" stroke="#696187" stroke-width="3"/>
<defs>
<clipPath id="clip0_515_697">
<rect width="64" height="64" fill="white" transform="translate(44 132.624) rotate(-7.74422)"/>
</clipPath>
</defs>
</svg>
