<svg width="341" height="680" viewBox="0 0 341 680" fill="none" xmlns="http://www.w3.org/2000/svg">
<path d="M15.5695 637H246.57V676H15.5695V637Z" fill="#BBABF7"/>
<path d="M263.07 649H262.57V659H262.561C262.567 659.166 262.57 659.333 262.57 659.5C262.07 668.5 255.57 676.5 245.57 675C235.07 672 231.07 669 229.07 659.5C229.07 655.449 230.6 651.761 233.237 649H29.8028C33.3443 651.836 35.5695 655.938 35.5695 660.5C35.5695 669.061 27.7345 676 18.0695 676C7.56952 673 3.56952 670.5 1.56952 661C1.56952 660.665 1.58 660.331 1.60071 660H1.56952V649H0.876404V539.474C0.234467 534.593 0.269129 529.281 1.06952 523.5C5.56954 491 73.0695 452.456 127.57 452.456C178.417 452.456 260.56 505.861 263.013 539H263.07V649Z" fill="#BBABF7"/>
<path d="M164.07 460C161.57 467 153.362 477.5 137.07 477.5C120.777 477.5 106.571 464 100.57 457C131.068 444 114.776 444 131.068 444C147.361 444 131.068 444 164.07 460Z" fill="#EEEAFC"/>
<rect x="111.57" y="416" width="39" height="45" fill="#EEEAFC"/>
<path fill-rule="evenodd" clip-rule="evenodd" d="M208.837 377.907C212.971 374.166 216.587 367.043 219.07 353.5C219.07 331 200.511 326.5 190.57 326.5C180.628 326.5 178.07 340.5 181.57 354.5C182.628 358.734 182.996 362.446 183.227 365.677C177.504 373.497 172.57 384.839 172.57 390C172.57 398.284 172.57 406.5 186.57 404C191.984 403.033 200.251 399 205.57 390C207.386 386.925 208.662 382.509 208.837 377.907ZM95.4805 362.28C95.5394 361.694 95.5696 361.1 95.5696 360.5C95.5696 350.283 86.8391 342 76.0696 342C65.3 342 56.5696 350.283 56.5696 360.5C56.5696 367.736 60.9485 374.002 67.3294 377.042C67.1586 378.006 67.0696 378.994 67.0696 380C67.0696 390.493 79.5696 402.5 94.5696 400.5C105.891 400.5 108.57 390.493 108.57 380C108.57 371.929 103.14 365.033 95.4805 362.28Z" fill="#D6CCFB"/>
<path d="M113 371C113 380.389 105.837 388 97 388C88.1634 388 81 380.389 81 371C81 361.611 88.1635 352 97 352C105.837 352 113 361.611 113 371Z" fill="#EEEAFC"/>
<path d="M185 379C185 413.794 162 436 146.47 436C114.99 436 93 407.294 93 372.5C93 337.706 108.02 315 139.5 315C170.98 315 190.5 343.5 185 379Z" fill="#EEEAFC"/>
<path fill-rule="evenodd" clip-rule="evenodd" d="M158.554 327.028C158.688 326.948 158.82 326.867 158.95 326.786C160.929 327.017 163.128 327.251 165.57 327.5C166.873 327.385 168.203 327.349 169.545 327.37C175.951 333.988 179.56 342.149 183.55 351.5C190.729 351.5 196.55 337.127 196.55 330.5C196.55 329.369 196.38 328.275 196.063 327.237C198.622 325.131 199.325 320.851 197.07 312.699C195.07 301.5 183.877 292.199 170.07 292.199C162.69 291.245 154.556 293.248 148.45 296.575C144.384 291.337 137.457 288 127.57 288C111.869 288 100.433 298.299 98.7766 309.663C96.7559 309.541 94.3749 309.64 91.5696 310C78.0696 310 64.5696 324.059 64.5696 334C64.5696 343.941 75.867 354 88.5696 354C105.43 352.073 108.831 344.577 109.951 329.276C110.561 329.61 111.19 329.924 111.839 330.217C116.792 333.114 124.549 335 132.07 335C143.319 334.598 154.568 331.518 158.554 327.028Z" fill="#D6CDFB"/>
<path d="M133.57 346.5C133.57 348.157 128.57 351.556 124.57 352C120.07 352.5 118.07 353 117.57 351C117.57 349 121.57 345.562 126.07 345C130.07 344.5 133.57 344.843 133.57 346.5Z" fill="#7755F1"/>
<path d="M171.069 350.5C170.569 351.5 167.069 352 164.069 351.5C157.569 349 159.069 346 159.569 345C161.069 344 162.569 344.5 166.069 345C169.569 346 171.069 349.5 171.069 350.5Z" fill="#7755F1"/>
<path d="M150.57 374C150.711 381.887 151.236 386.023 153.57 392.5C147.462 393.413 144.898 394.167 142.07 396" stroke="#7755F1" stroke-width="3" stroke-linecap="round" stroke-linejoin="round"/>
<path d="M145.07 372C145.07 386.672 134.065 398.5 120.57 398.5C107.074 398.5 96.0696 386.672 96.0696 372C96.0696 357.328 107.074 345.5 120.57 345.5C134.065 345.5 145.07 357.328 145.07 372Z" fill="#BBABF7" fill-opacity="0.1" stroke="#7D5EF1"/>
<path d="M203.07 371C203.07 385.672 192.065 397.5 178.57 397.5C165.074 397.5 154.07 385.672 154.07 371C154.07 356.328 165.074 344.5 178.57 344.5C192.065 344.5 203.07 356.328 203.07 371Z" fill="#BBABF7" fill-opacity="0.1" stroke="#7D5EF1"/>
<path d="M144.07 380.5C149.408 377.101 151.834 377.469 155.57 380.5M90.0696 354L97.5696 362.5" stroke="#7755F1" stroke-linecap="round" stroke-linejoin="round"/>
<ellipse cx="171.57" cy="325" rx="13" ry="10" fill="#D6CDFB"/>
<path d="M110.5 421C124.5 434 139.57 437.5 151.57 435.613" stroke="#7655F1" stroke-linecap="round"/>
<path fill-rule="evenodd" clip-rule="evenodd" d="M188.172 445.187L192.842 443.4L192.842 443.4C195.421 442.414 195.833 437.223 193.761 431.807C191.69 426.391 187.919 422.8 185.34 423.786C185.335 423.788 185.33 423.79 185.325 423.792L180.67 425.572C178.091 426.559 177.68 431.749 179.751 437.166C181.823 442.582 185.593 446.173 188.172 445.187Z" fill="#EEEAFC"/>
<path d="M163 375.154C165.595 370.507 171.437 368.475 176.007 370.994" stroke="#7755F1" stroke-width="3" stroke-linecap="round" stroke-linejoin="round"/>
<path d="M133.664 376.32C131.14 371.247 126.214 369.058 117.029 371.372" stroke="#7755F1" stroke-width="3" stroke-linecap="round" stroke-linejoin="round"/>
<path d="M163 375.154C165.595 370.507 171.437 368.475 176.007 370.994" stroke="#7755F1" stroke-width="3" stroke-linecap="round" stroke-linejoin="round"/>
<path d="M133.664 376.32C131.14 371.247 126.214 369.058 117.029 371.372" stroke="#7755F1" stroke-width="3" stroke-linecap="round" stroke-linejoin="round"/>
<path d="M131.264 406L150.5 407.5C148.5 411 148.5 411.5 146 415L131.264 410.344V406Z" fill="#7452F1"/>
<path d="M130.227 403.87C134.16 407.134 140.541 408.018 149 407" stroke="#7755F1" stroke-width="3" stroke-linecap="round" stroke-linejoin="round"/>
<path d="M130.338 404C128.759 405.082 132.578 414.367 144.769 414" stroke="#7452F1" stroke-width="3" stroke-linecap="round"/>
<path d="M200.199 491.044C139 573 88.4999 657 0.999888 639.5" stroke="#EEEAFC"/>
<path d="M196 481.5C194.228 481.43 186.561 486.977 185 485C177.5 475.5 201.096 450.742 202.868 450.812C204.64 450.882 206.331 452.631 205.17 457.633C205.06 460.416 200.657 469.345 196 481.5Z" fill="#EEEAFC"/>
<path fill-rule="evenodd" clip-rule="evenodd" d="M190.533 436.433L207.632 429.893L223.833 472.251L223.833 472.251C224.158 473.102 220.594 475.256 215.873 477.062C211.151 478.868 207.059 479.642 206.734 478.791C206.733 478.787 206.731 478.783 206.73 478.779L190.533 436.433Z" fill="#D6CDFB"/>
<path fill-rule="evenodd" clip-rule="evenodd" d="M201.276 450.525L210.617 446.953C215.775 444.98 216.598 434.599 212.455 423.766C208.311 412.933 200.771 405.751 195.613 407.724L186.272 411.296C181.114 413.269 180.291 423.65 184.434 434.483C188.577 445.316 196.118 452.498 201.276 450.525Z" fill="#D6CDFB"/>
<path d="M217.5 491C203.754 495.147 188.479 496.371 185.365 486.049C182.251 475.727 206.681 456.068 209.426 455.791C219 449 232.5 450 236.5 466.5C234 497.5 228.572 487.66 217.5 491Z" fill="#EEEAFC"/>
<path d="M237.504 470.678C232.004 468.178 228.504 469.178 222.004 469.678" stroke="#7452F1" stroke-linecap="round"/>
<path d="M235.5 480C231 480 225.5 481 221.5 480" stroke="#7452F1" stroke-linecap="round"/>
<path d="M236.005 461.394C236.005 461.394 230.005 457.394 219.006 459.894" stroke="#7452F1" stroke-linecap="round"/>
<rect x="1.06958" y="0.5" width="262" height="675" rx="16.5" stroke="#D2C9FB"/>
<ellipse rx="13.5" ry="28.4211" transform="matrix(-0.934013 0.357238 0.357238 0.934013 213.072 423.981)" fill="#D6CDFB"/>
<path d="M270.878 337.181C247.249 364.054 232.546 377.578 202.452 397.614L222.814 450.852C258.44 442.872 278.346 443.062 313.747 449.263L270.878 337.181Z" fill="#D6CDFB"/>
<ellipse rx="28.5" ry="60" transform="matrix(-0.934013 0.357238 0.357238 0.934013 292.313 393.222)" fill="#EEEAFC"/>
<path d="M269.298 401.63C274.449 415.098 281.69 426.252 289.188 433.409C296.747 440.623 304.281 443.53 310.159 441.281C316.037 439.033 319.708 431.841 320.523 421.424C321.332 411.09 319.281 397.951 314.13 384.483C308.979 371.015 301.739 359.861 294.24 352.705C286.681 345.491 279.148 342.584 273.269 344.832C267.391 347.08 263.721 354.272 262.905 364.689C262.096 375.023 264.147 388.163 269.298 401.63Z" fill="#EEEAFC" stroke="#D6CDFB" stroke-width="2"/>
<path d="M269.32 403.087C274.362 413.471 272.384 415.298 282.26 413.127C289.998 410.167 293.871 401.496 290.912 393.758C287.952 386.02 279.281 382.147 271.543 385.106C262.382 389.146 265.431 390.121 269.32 403.087Z" fill="#D6CDFB"/>
<path d="M142.813 406.01C146.821 405.87 148.834 405.653 152 405L146.5 415.5C143.537 415.665 142.106 415.519 139.813 415.01L142.813 406.01Z" fill="#7452F1"/>
<path d="M105.348 178.503C102.442 179.246 100.194 181.303 99.1 183.841L82.2039 179.061C82.5399 176.589 81.9057 174.106 80.425 172.097L92.9589 159.8C95.1353 161.502 98.095 162.229 101.002 161.487C106.028 160.203 109.049 155.109 107.765 150.083C106.481 145.057 101.387 142.036 96.3611 143.32C91.335 144.604 88.3142 149.698 89.5981 154.724C89.9074 155.935 90.459 157.084 91.1459 158.005L78.6274 170.363C76.3905 168.677 73.4914 167.934 70.5847 168.676C65.5586 169.96 62.5377 175.054 63.8216 180.08C65.1055 185.106 70.1991 188.127 75.2253 186.843C78.1319 186.1 80.38 184.042 81.4736 181.505L98.3697 186.285C98.2088 187.423 98.2759 188.696 98.5853 189.907C99.8692 194.933 104.963 197.954 109.989 196.67C115.015 195.386 118.036 190.292 116.752 185.266C115.468 180.24 110.374 177.219 105.348 178.503ZM96.9953 145.803C100.689 144.859 104.414 147.069 105.358 150.763C106.302 154.457 104.092 158.182 100.398 159.125C96.7045 160.069 92.9793 157.86 92.0357 154.166C91.0922 150.472 93.3014 146.747 96.9953 145.803ZM74.6065 184.421C70.9126 185.364 67.1874 183.155 66.2439 179.461C65.3003 175.767 67.5095 172.042 71.2034 171.098C74.8973 170.155 78.6225 172.364 79.5661 176.058C80.5097 179.752 78.3004 183.477 74.6065 184.421ZM109.37 194.247C105.676 195.191 101.951 192.982 101.008 189.288C100.064 185.594 102.273 181.869 105.967 180.925C109.661 179.982 113.386 182.191 114.33 185.885C115.273 189.579 113.064 193.304 109.37 194.247Z" fill="#EEEAFC"/>
<path d="M154.674 63.1747L171.901 72.5955L164.518 111.918L147.294 102.478L154.674 63.1747Z" fill="#7452F1"/>
<path d="M191.363 70.0634L171.901 72.5955L164.518 111.918L183.983 109.367L191.363 70.0634Z" fill="#7452F1"/>
<path d="M191.363 70.0634L208.59 79.4843L201.207 118.807L183.983 109.367L191.363 70.0634Z" fill="#7452F1"/>
<path d="M194.255 76.1721L191.081 93.0767L200.983 98.4868L204.155 81.592L194.255 76.1721Z" fill="#BBABF7"/>
<path d="M157.213 69.2169L154.039 86.1215L163.941 91.5316L167.113 74.6368L157.213 69.2169Z" fill="#D6CDFB"/>
<path d="M159.874 95.4689L158.902 100.648L161.92 102.294L162.892 97.1141L159.874 95.4689ZM152.992 91.6941L152.018 96.8834L156.144 99.1334L157.116 93.9539L152.992 91.6941Z" fill="#4F9FF6"/>
<path d="M175.407 97.4391L173.757 106.226L170.348 106.664L171.998 97.8775L175.407 97.4391ZM183.187 96.4275L181.539 105.204L176.877 105.814L178.527 97.0277L183.187 96.4275Z" fill="#7452F1"/>
<path d="M209.07 78.6078C205.499 76.6552 192.113 69.319 191.766 69.1623C191.626 69.1055 191.475 69.0773 191.324 69.0793C190.955 69.0914 177.091 70.9143 172.093 71.5734L155.156 62.2883C155.016 62.2131 154.861 62.1721 154.702 62.1689C154.543 62.1657 154.386 62.2002 154.244 62.2697C154.095 62.3404 153.966 62.4468 153.868 62.5793C153.771 62.7119 153.707 62.8665 153.684 63.0294L146.302 102.342C146.264 102.55 146.291 102.764 146.382 102.955C146.472 103.145 146.62 103.302 146.805 103.403L164.038 112.795C164.229 112.902 164.45 112.944 164.667 112.913L183.809 110.402L200.747 119.687C200.888 119.761 201.046 119.8 201.206 119.801C201.366 119.801 201.523 119.763 201.665 119.69C201.808 119.618 201.93 119.512 202.023 119.381C202.116 119.251 202.176 119.101 202.199 118.942L209.581 79.6295C209.61 79.4274 209.577 79.2212 209.486 79.0386C209.394 78.856 209.249 78.7056 209.07 78.6078ZM155.404 64.7056L170.784 73.1284L163.79 110.378L148.41 101.955L155.404 64.7056ZM172.75 73.4975L190.127 71.2253L183.133 108.474L165.756 110.747L172.75 73.4975ZM200.479 117.266L185.099 108.843L192.093 71.5944L207.473 80.0172L200.479 117.266Z" fill="#EEEAFC"/>
<path d="M190.611 93.955L200.503 99.3633C200.645 99.4413 200.804 99.4836 200.966 99.4865C201.129 99.4894 201.289 99.4528 201.434 99.3799C201.579 99.307 201.704 99.1999 201.798 99.0679C201.892 98.9359 201.953 98.7829 201.975 98.6222L205.138 81.7766C205.189 81.563 205.168 81.3386 205.079 81.1379C204.99 80.9373 204.837 80.7716 204.644 80.6664L194.745 75.2974C194.607 75.2217 194.452 75.1797 194.295 75.1751C194.137 75.1704 193.98 75.2032 193.837 75.2707C193.695 75.3382 193.57 75.4385 193.474 75.5634C193.377 75.6883 193.312 75.8343 193.282 75.9894L190.11 92.8842C190.069 93.0927 190.095 93.309 190.186 93.5015C190.276 93.6941 190.425 93.8529 190.611 93.955ZM194.993 77.7147L203.01 82.1096L200.224 96.9503L192.209 92.5456L194.993 77.7147ZM200.587 102.279L197.55 100.62C197.319 100.504 197.052 100.483 196.805 100.56C196.558 100.637 196.35 100.807 196.226 101.034C196.102 101.261 196.07 101.527 196.138 101.777C196.206 102.027 196.368 102.24 196.59 102.373L199.627 104.032C199.725 104.065 199.827 104.084 199.931 104.089C200.165 104.132 200.406 104.091 200.612 103.972C200.818 103.854 200.975 103.666 201.055 103.442C201.135 103.218 201.133 102.974 201.049 102.751C200.964 102.529 200.804 102.344 200.596 102.23L200.587 102.279ZM195.014 99.279L190.687 96.9098C190.572 96.8452 190.445 96.8042 190.313 96.7891C190.182 96.774 190.049 96.7852 189.922 96.8219C189.795 96.8586 189.676 96.9201 189.573 97.003C189.47 97.0858 189.384 97.1883 189.321 97.3044C189.21 97.5344 189.191 97.7982 189.268 98.0416C189.346 98.2851 189.513 98.4897 189.737 98.6136L194.064 100.983C194.161 101.021 194.264 101.041 194.368 101.04C194.573 101.039 194.772 100.976 194.939 100.859C195.107 100.742 195.234 100.576 195.304 100.384C195.375 100.193 195.385 99.9838 195.333 99.7862C195.281 99.5885 195.17 99.4115 195.014 99.279ZM199.902 105.925L196.866 104.266C196.634 104.151 196.367 104.129 196.12 104.206C195.873 104.284 195.666 104.453 195.542 104.68C195.417 104.907 195.386 105.174 195.454 105.423C195.522 105.673 195.684 105.887 195.906 106.019L198.942 107.678C199.039 107.716 199.142 107.735 199.247 107.735C199.454 107.774 199.668 107.746 199.859 107.656C200.049 107.566 200.206 107.417 200.308 107.232C200.419 107.004 200.439 106.741 200.363 106.498C200.288 106.256 200.123 106.051 199.902 105.925ZM189.057 102.23L193.385 104.6C193.483 104.633 193.585 104.653 193.689 104.657C193.923 104.7 194.164 104.659 194.37 104.54C194.576 104.422 194.733 104.234 194.813 104.01C194.893 103.786 194.891 103.541 194.807 103.319C194.722 103.097 194.562 102.912 194.354 102.797L190.028 100.418C189.909 100.355 189.779 100.315 189.645 100.302C189.51 100.288 189.375 100.301 189.246 100.34C189.116 100.38 188.996 100.444 188.892 100.529C188.787 100.615 188.701 100.72 188.637 100.839C188.573 100.958 188.534 101.088 188.52 101.223C188.507 101.357 188.52 101.493 188.559 101.622C188.598 101.751 188.662 101.871 188.748 101.976C188.833 102.08 188.938 102.167 189.057 102.23ZM199.228 109.512L196.192 107.854C195.961 107.738 195.694 107.716 195.447 107.794C195.2 107.871 194.992 108.041 194.868 108.268C194.744 108.495 194.712 108.761 194.78 109.011C194.848 109.26 195.01 109.474 195.232 109.607L198.268 111.265C198.367 111.298 198.469 111.318 198.573 111.323C198.807 111.366 199.048 111.325 199.254 111.206C199.46 111.088 199.617 110.9 199.697 110.676C199.777 110.452 199.775 110.207 199.69 109.985C199.606 109.763 199.446 109.578 199.238 109.463L199.228 109.512ZM193.665 106.463L189.338 104.094C189.223 104.03 189.096 103.989 188.964 103.974C188.833 103.958 188.7 103.97 188.573 104.006C188.446 104.043 188.327 104.105 188.224 104.187C188.121 104.27 188.035 104.373 187.972 104.489C187.909 104.605 187.87 104.732 187.856 104.863C187.843 104.994 187.855 105.126 187.893 105.252C187.931 105.379 187.993 105.496 188.076 105.598C188.16 105.7 188.262 105.785 188.378 105.847L192.705 108.216C192.802 108.255 192.906 108.274 193.01 108.274C193.244 108.317 193.485 108.276 193.691 108.157C193.897 108.039 194.054 107.851 194.134 107.627C194.214 107.403 194.212 107.158 194.128 106.936C194.043 106.714 193.883 106.529 193.675 106.414L193.665 106.463ZM167.589 73.78L157.693 68.3404C157.554 68.2646 157.4 68.2227 157.242 68.2181C157.084 68.2134 156.928 68.2462 156.785 68.3137C156.642 68.3812 156.518 68.4815 156.421 68.6064C156.325 68.7313 156.259 68.8773 156.23 69.0324L153.058 85.9271C153.007 86.1407 153.027 86.3651 153.117 86.5658C153.206 86.7664 153.359 86.9321 153.551 87.0373L163.431 92.4026C163.573 92.4806 163.732 92.523 163.894 92.5258C164.056 92.5287 164.217 92.4921 164.362 92.4192C164.507 92.3463 164.632 92.2392 164.726 92.1072C164.82 91.9752 164.881 91.8222 164.903 91.6615L168.066 74.8159C168.101 74.6152 168.075 74.4084 167.989 74.2233C167.904 74.0382 167.764 73.8835 167.589 73.78ZM163.21 90.0006L155.156 85.5886L157.941 70.7577L165.997 75.16L163.21 90.0006ZM163.362 96.2358L160.354 94.5924C160.212 94.5143 160.053 94.472 159.891 94.4691C159.728 94.4662 159.568 94.5028 159.423 94.5758C159.278 94.6487 159.153 94.7558 159.059 94.8878C158.965 95.0198 158.904 95.1728 158.882 95.3335L157.92 100.454C157.869 100.668 157.89 100.892 157.979 101.093C158.069 101.293 158.221 101.459 158.414 101.564L161.414 103.145C161.556 103.223 161.715 103.265 161.877 103.268C162.04 103.271 162.2 103.234 162.345 103.161C162.49 103.089 162.615 102.981 162.709 102.849C162.803 102.717 162.864 102.564 162.886 102.404L163.846 97.2931C163.885 97.0885 163.86 96.8766 163.773 96.687C163.687 96.4974 163.543 96.3397 163.362 96.2358ZM161.18 100.761L160.019 100.115L160.604 96.9999L161.765 97.6452L161.18 100.761ZM157.596 93.0775L153.472 90.8177C153.334 90.7412 153.179 90.6987 153.021 90.6937C152.862 90.6888 152.705 90.7215 152.562 90.7892C152.42 90.8572 152.295 90.9579 152.199 91.0831C152.103 91.2083 152.038 91.3544 152.01 91.5096L151.035 96.6989C150.984 96.9125 151.005 97.1369 151.094 97.3376C151.183 97.5382 151.336 97.7039 151.529 97.8091L155.66 100.03C155.802 100.108 155.961 100.15 156.123 100.153C156.286 100.156 156.446 100.119 156.591 100.046C156.736 99.9732 156.861 99.8661 156.955 99.7341C157.049 99.6021 157.11 99.4492 157.132 99.2885L158.099 94.1385C158.138 93.9312 158.11 93.717 158.02 93.5264C157.929 93.3358 157.781 93.1787 157.596 93.0775ZM155.414 97.6024L153.136 96.3505L153.721 93.235L155.999 94.4869L155.414 97.6024ZM175.418 77.8751C175.516 77.909 175.618 77.9282 175.722 77.9323L179.153 77.4878C179.287 77.4754 179.417 77.4361 179.536 77.3723C179.654 77.3085 179.758 77.2214 179.842 77.1164C179.926 77.0113 179.988 76.8904 180.024 76.7609C180.06 76.6314 180.07 76.4959 180.053 76.3626C180.035 76.2292 179.991 76.1008 179.923 75.9849C179.855 75.869 179.764 75.768 179.656 75.6881C179.548 75.6081 179.424 75.5508 179.294 75.5195C179.163 75.4882 179.027 75.4836 178.894 75.506L175.464 75.9505C175.228 75.9818 175.011 76.0959 174.852 76.2724C174.693 76.4489 174.602 76.6763 174.596 76.9139C174.589 77.1514 174.667 77.3835 174.816 77.5686C174.965 77.7538 175.175 77.8798 175.408 77.9242L175.418 77.8751ZM181.717 77.0535C181.821 77.0752 181.927 77.0779 182.031 77.0616L186.929 76.3938C187.063 76.3814 187.193 76.3421 187.311 76.2783C187.429 76.2145 187.534 76.1275 187.618 76.0224C187.701 75.9174 187.763 75.7965 187.8 75.667C187.836 75.5375 187.845 75.402 187.828 75.2686C187.811 75.1353 187.766 75.0068 187.698 74.8909C187.63 74.775 187.539 74.6741 187.431 74.5941C187.323 74.5142 187.2 74.4568 187.069 74.4255C186.938 74.3942 186.802 74.3897 186.67 74.412L181.778 75.0503C181.543 75.0816 181.326 75.1957 181.167 75.3722C181.008 75.5487 180.917 75.7761 180.91 76.0137C180.903 76.2512 180.982 76.4833 181.131 76.6685C181.279 76.8536 181.49 76.9796 181.723 77.024L181.717 77.0535ZM179.323 80.0531C179.307 79.9223 179.265 79.796 179.2 79.6813C179.135 79.5667 179.049 79.4659 178.945 79.385C178.841 79.304 178.722 79.2444 178.595 79.2095C178.468 79.1746 178.335 79.1652 178.204 79.1818L174.772 79.6361C174.503 79.6275 174.243 79.7259 174.047 79.9096C173.851 80.0932 173.736 80.3471 173.728 80.6153C173.719 80.8836 173.818 81.1442 174.001 81.3399C174.185 81.5357 174.439 81.6504 174.707 81.6589C174.811 81.6772 174.917 81.6799 175.021 81.667L178.454 81.2127C178.588 81.1968 178.718 81.1537 178.836 81.0861C178.953 81.0185 179.056 80.9277 179.137 80.8192C179.218 80.7108 179.277 80.5869 179.309 80.4552C179.34 80.3236 179.345 80.1867 179.323 80.0531ZM181.009 80.8275C181.113 80.8442 181.218 80.8469 181.323 80.8356L186.214 80.1974C186.47 80.1543 186.698 80.014 186.852 79.806C187.006 79.598 187.073 79.3384 187.04 79.0819C187.006 78.8253 186.874 78.5917 186.672 78.4302C186.47 78.2686 186.213 78.1917 185.956 78.2156L181.064 78.8538C180.828 78.8851 180.612 78.9992 180.453 79.1757C180.294 79.3523 180.203 79.5797 180.196 79.8172C180.189 80.0547 180.267 80.2869 180.416 80.472C180.565 80.6571 180.775 80.7832 181.009 80.8275ZM178.609 83.8566C178.574 83.5939 178.437 83.3556 178.227 83.1941C178.017 83.0326 177.751 82.961 177.488 82.9951L174.057 83.4396C173.926 83.4564 173.8 83.4991 173.685 83.5651C173.57 83.6312 173.47 83.7193 173.39 83.8244C173.309 83.9295 173.251 84.0495 173.217 84.1775C173.184 84.3054 173.176 84.4387 173.194 84.5697C173.222 84.7875 173.321 84.99 173.476 85.1459C173.63 85.3018 173.832 85.4025 174.05 85.4324C174.153 85.4507 174.259 85.4534 174.363 85.4405L177.796 84.9861C178.052 84.9402 178.279 84.7966 178.431 84.5858C178.583 84.375 178.646 84.1135 178.609 83.8566ZM180.3 84.6016C180.404 84.6183 180.51 84.621 180.614 84.6097L185.506 83.9714C185.761 83.9283 185.989 83.7881 186.143 83.58C186.297 83.372 186.364 83.1125 186.331 82.8559C186.297 82.5993 186.166 82.3658 185.964 82.2042C185.762 82.0427 185.505 81.9658 185.247 81.9896L180.355 82.6279C180.12 82.6591 179.903 82.7733 179.744 82.9498C179.585 83.1263 179.494 83.3537 179.487 83.5912C179.481 83.8288 179.559 84.0609 179.708 84.246C179.857 84.4312 180.067 84.5572 180.3 84.6016ZM176.78 86.7692L173.349 87.2137C173.086 87.2482 172.848 87.3855 172.686 87.5956C172.525 87.8056 172.453 88.0712 172.487 88.3339C172.515 88.5517 172.614 88.7542 172.769 88.9101C172.924 89.066 173.125 89.1667 173.343 89.1966C173.446 89.2198 173.552 89.2225 173.657 89.2047L177.033 88.7804C177.296 88.746 177.534 88.6086 177.695 88.3986C177.857 88.1885 177.929 87.9229 177.894 87.6602C177.881 87.528 177.841 87.3999 177.778 87.2832C177.714 87.1666 177.628 87.0638 177.524 86.9808C177.42 86.8979 177.301 86.8364 177.173 86.8001C177.045 86.7638 176.912 86.7532 176.78 86.7692ZM179.592 88.3756C179.695 88.3923 179.801 88.395 179.905 88.3837L184.797 87.7455C185.061 87.7114 185.301 87.5738 185.464 87.363C185.626 87.1521 185.699 86.8853 185.665 86.6212C185.631 86.3571 185.493 86.1174 185.282 85.9547C185.071 85.792 184.804 85.7198 184.54 85.7539L179.647 86.4019C179.411 86.4332 179.194 86.5473 179.035 86.7238C178.876 86.9004 178.785 87.1278 178.779 87.3653C178.772 87.6028 178.85 87.835 178.999 88.0201C179.148 88.2052 179.358 88.3313 179.592 88.3756ZM172.899 92.9695L176.33 92.525C176.585 92.4819 176.813 92.3417 176.967 92.1336C177.121 91.9256 177.188 91.6661 177.155 91.4095C177.121 91.1529 176.99 90.9193 176.788 90.7578C176.586 90.5963 176.329 90.5194 176.071 90.5432L172.636 91.0074C172.374 91.0419 172.135 91.1792 171.974 91.3893C171.812 91.5993 171.741 91.8649 171.775 92.1276C171.803 92.3454 171.902 92.5479 172.057 92.7038C172.211 92.8597 172.413 92.9604 172.63 92.9903C172.72 92.9984 172.811 92.9914 172.899 92.9695ZM179.197 92.1578L184.089 91.5195C184.353 91.4854 184.592 91.3479 184.755 91.137C184.918 90.9262 184.99 90.6594 184.956 90.3953C184.922 90.1312 184.784 89.8914 184.573 89.7287C184.363 89.5661 184.096 89.4938 183.832 89.5279L178.942 90.1563C178.811 90.1731 178.684 90.2158 178.569 90.2818C178.455 90.3479 178.354 90.436 178.274 90.5411C178.194 90.6462 178.135 90.7662 178.102 90.8942C178.068 91.0221 178.06 91.1554 178.078 91.2864C178.109 91.5027 178.209 91.7031 178.364 91.8571C178.518 92.0111 178.719 92.1102 178.936 92.1393C179.022 92.1554 179.109 92.1616 179.197 92.1578ZM176.127 96.7501C176.019 96.6369 175.886 96.5506 175.738 96.4981C175.591 96.4457 175.433 96.4286 175.278 96.4482L171.868 96.8866C171.659 96.9139 171.464 97.0065 171.311 97.1513C171.158 97.2962 171.054 97.4857 171.015 97.693L169.365 106.479C169.336 106.635 169.344 106.794 169.389 106.946C169.433 107.097 169.513 107.236 169.622 107.351C169.73 107.465 169.864 107.553 170.013 107.605C170.162 107.658 170.321 107.675 170.477 107.655L173.877 107.215C174.095 107.187 174.297 107.088 174.453 106.933C174.609 106.778 174.71 106.577 174.74 106.359L176.38 97.6218C176.41 97.4668 176.402 97.307 176.358 97.1555C176.314 97.004 176.235 96.8651 176.127 96.7501ZM172.913 105.304L171.589 105.473L172.846 98.7795L174.17 98.6109L172.913 105.304ZM183.907 95.7384C183.799 95.6252 183.666 95.5389 183.518 95.4865C183.371 95.4341 183.213 95.417 183.058 95.4366L178.397 96.0368C178.188 96.0641 177.993 96.1567 177.84 96.3016C177.686 96.4464 177.583 96.636 177.544 96.8432L175.894 105.63C175.865 105.785 175.873 105.945 175.918 106.096C175.962 106.247 176.042 106.386 176.151 106.501C176.259 106.615 176.393 106.703 176.542 106.756C176.691 106.809 176.85 106.825 177.006 106.805L181.667 106.205C181.885 106.177 182.087 106.078 182.243 105.923C182.399 105.769 182.5 105.567 182.53 105.349L184.17 96.612C184.199 96.456 184.19 96.2954 184.144 96.1435C184.098 95.9916 184.017 95.8527 183.907 95.7384ZM180.693 104.292L178.118 104.623L179.375 97.9297L181.952 97.5894L180.693 104.292Z" fill="#EEEAFC"/>
<path d="M182.918 252.579L182.672 254.227L153 249.805L153.246 248.157C153.381 247.247 154.23 246.619 155.14 246.754L181.515 250.685C182.425 250.82 183.054 251.669 182.918 252.579ZM188.077 217.961L187.831 219.61C187.696 220.519 186.847 221.148 185.937 221.012L159.562 217.082C158.652 216.946 158.023 216.098 158.159 215.188L158.404 213.539L188.077 217.961ZM172.373 213.093L172.741 210.621C172.808 210.172 173.112 209.794 173.539 209.634L179.548 207.378C179.772 206.037 181.028 205.115 182.378 205.316C183.743 205.52 184.686 206.793 184.482 208.158C184.279 209.522 183.006 210.465 181.641 210.262C181.178 210.193 180.77 209.994 180.432 209.716L175.106 211.716L174.845 213.462L172.373 213.093ZM161.082 219.836L158.428 244.717L178.964 247.777L183.679 223.203L161.082 219.836ZM169.31 242.126C165.669 241.583 163.156 238.191 163.699 234.549L165.173 224.658L178.361 226.624L176.887 236.514C176.344 240.156 172.952 242.668 169.31 242.126Z" fill="#EEEAFC"/>
</svg>
