<svg width="340" height="681" viewBox="0 0 340 681" fill="none" xmlns="http://www.w3.org/2000/svg">
<path d="M15.5695 637H14.5695V638V674.922C11.3343 673.912 9.00864 672.973 7.2519 671.641C4.97942 669.917 3.57326 667.455 2.60038 662.894C2.59978 662.782 2.59845 662.637 2.59699 662.476C2.5922 661.953 2.58593 661.268 2.59877 661.062L2.66519 660H1.8764V650.5V650V540.474V540.409L1.86787 540.344C1.23885 535.561 1.27058 530.339 2.06007 524.637C3.14432 516.806 8.05048 508.489 15.7929 500.379C23.5214 492.283 33.999 484.475 46.0614 477.661C70.1967 464.028 100.528 454.456 127.57 454.456C152.716 454.456 185.77 467.694 212.898 485.142C226.445 493.855 238.46 503.584 247.228 513.172C256.027 522.793 261.428 532.134 262.016 540.074L262.07 540.797V649H261.57V650V659H261.527L261.562 660.033C261.567 660.179 261.569 660.325 261.569 660.472C261.326 664.75 259.66 668.745 256.925 671.48C254.574 673.832 251.407 675.281 247.57 675.177V638V637H246.57H15.5695ZM233.462 671.43C235.63 673.387 238.47 674.765 242.166 676H26.8997C32.6285 673.222 36.5695 667.818 36.5695 661.5C36.5695 657.495 34.9718 653.84 32.3429 651H231.107C229.164 653.69 228.07 656.97 228.07 660.5V660.604L228.091 660.706C229.114 665.566 230.682 668.922 233.462 671.43ZM18.2079 676C17.6403 675.837 17.0946 675.68 16.5695 675.526V639H245.57V674.96C240.494 673.493 237.141 672.056 234.802 669.945C232.474 667.844 231.046 664.976 230.07 660.397C230.096 656.645 231.522 653.243 233.96 650.691L235.574 649H233.237H29.8028H26.9545L29.1777 650.781C32.5126 653.451 34.5695 657.279 34.5695 661.5C34.5695 669.358 27.3723 675.934 18.2079 676Z" stroke="#8766FF" stroke-width="2"/>
<path d="M163.07 461C160.57 468 152.362 478.5 136.07 478.5C119.777 478.5 105.571 465 99.5696 458C130.068 445 113.776 445 130.068 445C146.361 445 130.068 445 163.07 461Z" fill="#A298C9"/>
<rect x="110.57" y="417" width="39" height="45" fill="#A298C9"/>
<path fill-rule="evenodd" clip-rule="evenodd" d="M207.837 378.907C211.971 375.166 215.587 368.043 218.07 354.5C218.07 332 199.511 327.5 189.57 327.5C179.628 327.5 177.07 341.5 180.57 355.5C181.628 359.734 181.996 363.446 182.227 366.677C176.504 374.497 171.57 385.839 171.57 391C171.57 399.284 171.57 407.5 185.57 405C190.984 404.033 199.251 400 204.57 391C206.386 387.925 207.662 383.509 207.837 378.907ZM94.4805 363.28C94.5394 362.694 94.5696 362.1 94.5696 361.5C94.5696 351.283 85.8391 343 75.0696 343C64.3 343 55.5696 351.283 55.5696 361.5C55.5696 368.736 59.9485 375.002 66.3294 378.042C66.1586 379.006 66.0696 379.994 66.0696 381C66.0696 391.493 78.5696 403.5 93.5696 401.5C104.891 401.5 107.57 391.493 107.57 381C107.57 372.929 102.14 366.033 94.4805 363.28Z" fill="#726B8E"/>
<path d="M112 372C112 381.389 104.837 389 96 389C87.1634 389 80 381.389 80 372C80 362.611 87.1635 353 96 353C104.837 353 112 362.611 112 372Z" fill="#A298C9"/>
<path d="M184 380C184 414.794 161 437 145.47 437C113.99 437 92 408.294 92 373.5C92 338.706 107.02 316 138.5 316C169.98 316 189.5 344.5 184 380Z" fill="#A298C9"/>
<path fill-rule="evenodd" clip-rule="evenodd" d="M157.554 328.028C157.688 327.948 157.82 327.867 157.95 327.786C159.929 328.017 162.128 328.251 164.57 328.5C165.873 328.385 167.203 328.349 168.545 328.37C174.951 334.988 178.56 343.149 182.55 352.5C189.729 352.5 195.55 338.127 195.55 331.5C195.55 330.369 195.38 329.275 195.063 328.237C197.622 326.131 198.325 321.851 196.07 313.699C194.07 302.5 182.877 293.199 169.07 293.199C161.69 292.245 153.556 294.248 147.45 297.575C143.384 292.337 136.457 289 126.57 289C110.869 289 99.4325 299.299 97.7766 310.663C95.7559 310.541 93.3749 310.64 90.5696 311C77.0696 311 63.5696 325.059 63.5696 335C63.5696 344.941 74.867 355 87.5696 355C104.43 353.073 107.831 345.577 108.951 330.276C109.561 330.61 110.19 330.924 110.839 331.217C115.792 334.114 123.549 336 131.07 336C142.319 335.598 153.568 332.518 157.554 328.028Z" fill="#726B8E"/>
<path d="M132.57 347.5C132.57 349.157 127.57 352.556 123.57 353C119.07 353.5 117.07 354 116.57 352C116.57 350 120.57 346.562 125.07 346C129.07 345.5 132.57 345.843 132.57 347.5Z" fill="#291E53"/>
<path d="M170.069 351.5C169.569 352.5 166.069 353 163.069 352.5C156.569 350 158.069 347 158.569 346C160.069 345 161.569 345.5 165.069 346C168.569 347 170.069 350.5 170.069 351.5Z" fill="#291E53"/>
<path d="M149.57 375C149.711 382.887 150.236 387.023 152.57 393.5C146.462 394.413 143.898 395.167 141.07 397" stroke="#291E53" stroke-width="3" stroke-linecap="round" stroke-linejoin="round"/>
<path d="M144.07 373C144.07 387.672 133.065 399.5 119.57 399.5C106.074 399.5 95.0696 387.672 95.0696 373C95.0696 358.328 106.074 346.5 119.57 346.5C133.065 346.5 144.07 358.328 144.07 373Z" fill="#8766FF" fill-opacity="0.14" stroke="#291E53"/>
<path d="M202.07 372C202.07 386.672 191.065 398.5 177.57 398.5C164.074 398.5 153.07 386.672 153.07 372C153.07 357.328 164.074 345.5 177.57 345.5C191.065 345.5 202.07 357.328 202.07 372Z" fill="#8766FF" fill-opacity="0.14" stroke="#291E53"/>
<path d="M143.07 381.5C148.408 378.101 150.834 378.469 154.57 381.5M89.0696 355L96.5696 363.5" stroke="#291E53" stroke-linecap="round" stroke-linejoin="round"/>
<ellipse cx="170.57" cy="326" rx="13" ry="10" fill="#726B8E"/>
<path d="M109.5 422C123.5 435 138.57 438.5 150.57 436.613" stroke="#291E53" stroke-linecap="round"/>
<path d="M162 376.154C164.595 371.507 170.437 369.475 175.007 371.994" stroke="#7755F1" stroke-width="3" stroke-linecap="round" stroke-linejoin="round"/>
<path d="M132.664 377.32C130.14 372.247 125.214 370.058 116.029 372.372" stroke="#7755F1" stroke-width="3" stroke-linecap="round" stroke-linejoin="round"/>
<path d="M162 376.154C164.595 371.507 170.437 369.475 175.007 371.994" stroke="#291E53" stroke-width="3" stroke-linecap="round" stroke-linejoin="round"/>
<path d="M132.664 377.32C130.14 372.247 125.214 370.058 116.029 372.372" stroke="#291E53" stroke-width="3" stroke-linecap="round" stroke-linejoin="round"/>
<path d="M130.264 407L149.5 408.5C147.5 412 147.5 412.5 145 416L130.264 411.344V407Z" fill="#291E53"/>
<path d="M129.227 404.87C133.16 408.134 139.541 409.018 148 408" stroke="#291E53" stroke-width="3" stroke-linecap="round" stroke-linejoin="round"/>
<path d="M129.338 405C127.759 406.082 131.578 415.367 143.769 415" stroke="#291E53" stroke-width="3" stroke-linecap="round"/>
<path d="M141.813 407.01C145.821 406.87 147.834 406.653 151 406L145.5 416.5C142.537 416.665 141.106 416.519 138.813 416.01L141.813 407.01Z" fill="#291E53"/>
<path d="M153.674 64.1747L170.901 73.5955L163.518 112.918L146.294 103.478L153.674 64.1747Z" fill="#291E53"/>
<path d="M190.363 71.0634L170.901 73.5956L163.518 112.918L182.983 110.367L190.363 71.0634Z" fill="#291E53"/>
<path d="M190.363 71.0635L207.59 80.4843L200.207 119.807L182.983 110.367L190.363 71.0635Z" fill="#291E53"/>
<path d="M193.255 77.172L190.081 94.0766L199.983 99.4867L203.155 82.592L193.255 77.172Z" fill="#8766FF"/>
<path d="M156.213 70.2169L153.039 87.1215L162.941 92.5317L166.113 75.6369L156.213 70.2169Z" fill="#8766FF"/>
<path d="M158.874 96.4688L157.902 101.648L160.92 103.294L161.892 98.1141L158.874 96.4688ZM151.992 92.6941L151.018 97.8834L155.144 100.133L156.116 94.9539L151.992 92.6941Z" fill="#291E53"/>
<path d="M174.407 98.4391L172.757 107.226L169.348 107.664L170.998 98.8774L174.407 98.4391ZM182.187 97.4275L180.539 106.204L175.877 106.814L177.527 98.0277L182.187 97.4275Z" fill="#291E53"/>
<path d="M208.07 79.6078C204.499 77.6552 191.113 70.319 190.766 70.1623C190.626 70.1055 190.475 70.0773 190.324 70.0793C189.955 70.0914 176.091 71.9143 171.093 72.5734L154.156 63.2883C154.016 63.2131 153.861 63.1721 153.702 63.1689C153.543 63.1657 153.386 63.2002 153.244 63.2697C153.095 63.3404 152.966 63.4468 152.868 63.5793C152.771 63.7119 152.707 63.8665 152.684 64.0294L145.302 103.342C145.264 103.55 145.291 103.764 145.382 103.955C145.472 104.145 145.62 104.302 145.805 104.403L163.038 113.795C163.229 113.902 163.45 113.944 163.667 113.913L182.809 111.402L199.747 120.687C199.888 120.761 200.046 120.8 200.206 120.801C200.366 120.801 200.523 120.763 200.665 120.69C200.808 120.618 200.93 120.512 201.023 120.381C201.116 120.251 201.176 120.101 201.199 119.942L208.581 80.6295C208.61 80.4274 208.577 80.2212 208.486 80.0386C208.394 79.856 208.249 79.7056 208.07 79.6078ZM154.404 65.7056L169.784 74.1284L162.79 111.378L147.41 102.955L154.404 65.7056ZM171.75 74.4975L189.127 72.2253L182.133 109.474L164.756 111.747L171.75 74.4975ZM199.479 118.266L184.099 109.843L191.093 72.5944L206.473 81.0172L199.479 118.266Z" fill="#8766FF"/>
<path d="M189.611 94.955L199.503 100.363C199.645 100.441 199.804 100.484 199.966 100.487C200.129 100.489 200.289 100.453 200.434 100.38C200.579 100.307 200.704 100.2 200.798 100.068C200.892 99.9359 200.953 99.7829 200.975 99.6222L204.138 82.7766C204.189 82.563 204.168 82.3386 204.079 82.1379C203.99 81.9373 203.837 81.7716 203.644 81.6664L193.745 76.2974C193.607 76.2217 193.452 76.1797 193.295 76.1751C193.137 76.1704 192.98 76.2032 192.837 76.2707C192.695 76.3382 192.57 76.4385 192.474 76.5634C192.377 76.6883 192.312 76.8343 192.282 76.9894L189.11 93.8842C189.069 94.0927 189.095 94.309 189.186 94.5015C189.276 94.6941 189.425 94.8529 189.611 94.955ZM193.993 78.7147L202.01 83.1096L199.224 97.9503L191.209 93.5456L193.993 78.7147ZM199.587 103.279L196.55 101.62C196.319 101.504 196.052 101.483 195.805 101.56C195.558 101.637 195.35 101.807 195.226 102.034C195.102 102.261 195.07 102.527 195.138 102.777C195.206 103.027 195.368 103.24 195.59 103.373L198.627 105.032C198.725 105.065 198.827 105.084 198.931 105.089C199.165 105.132 199.406 105.091 199.612 104.972C199.818 104.854 199.975 104.666 200.055 104.442C200.135 104.218 200.133 103.974 200.049 103.751C199.964 103.529 199.804 103.344 199.596 103.23L199.587 103.279ZM194.014 100.279L189.687 97.9098C189.572 97.8452 189.445 97.8042 189.313 97.7891C189.182 97.774 189.049 97.7852 188.922 97.8219C188.795 97.8586 188.676 97.9201 188.573 98.003C188.47 98.0858 188.384 98.1883 188.321 98.3044C188.21 98.5344 188.191 98.7982 188.268 99.0416C188.346 99.2851 188.513 99.4897 188.737 99.6136L193.064 101.983C193.161 102.021 193.264 102.041 193.368 102.04C193.573 102.039 193.772 101.976 193.939 101.859C194.107 101.742 194.234 101.576 194.304 101.384C194.375 101.193 194.385 100.984 194.333 100.786C194.281 100.589 194.17 100.412 194.014 100.279ZM198.902 106.925L195.866 105.266C195.634 105.151 195.367 105.129 195.12 105.206C194.873 105.284 194.666 105.453 194.542 105.68C194.417 105.907 194.386 106.174 194.454 106.423C194.522 106.673 194.684 106.887 194.906 107.019L197.942 108.678C198.039 108.716 198.142 108.735 198.247 108.735C198.454 108.774 198.668 108.746 198.859 108.656C199.049 108.566 199.206 108.417 199.308 108.232C199.419 108.004 199.439 107.741 199.363 107.498C199.288 107.256 199.123 107.051 198.902 106.925ZM188.057 103.23L192.385 105.6C192.483 105.633 192.585 105.653 192.689 105.657C192.923 105.7 193.164 105.659 193.37 105.54C193.576 105.422 193.733 105.234 193.813 105.01C193.893 104.786 193.891 104.541 193.807 104.319C193.722 104.097 193.562 103.912 193.354 103.797L189.028 101.418C188.909 101.355 188.779 101.315 188.645 101.302C188.51 101.288 188.375 101.301 188.246 101.34C188.116 101.38 187.996 101.444 187.892 101.529C187.787 101.615 187.701 101.72 187.637 101.839C187.573 101.958 187.534 102.088 187.52 102.223C187.507 102.357 187.52 102.493 187.559 102.622C187.598 102.751 187.662 102.871 187.748 102.976C187.833 103.08 187.938 103.167 188.057 103.23ZM198.228 110.512L195.192 108.854C194.961 108.738 194.694 108.716 194.447 108.794C194.2 108.871 193.992 109.041 193.868 109.268C193.744 109.495 193.712 109.761 193.78 110.011C193.848 110.26 194.01 110.474 194.232 110.607L197.268 112.265C197.367 112.298 197.469 112.318 197.573 112.323C197.807 112.366 198.048 112.325 198.254 112.206C198.46 112.088 198.617 111.9 198.697 111.676C198.777 111.452 198.775 111.207 198.69 110.985C198.606 110.763 198.446 110.578 198.238 110.463L198.228 110.512ZM192.665 107.463L188.338 105.094C188.223 105.03 188.096 104.989 187.964 104.974C187.833 104.958 187.7 104.97 187.573 105.006C187.446 105.043 187.327 105.105 187.224 105.187C187.121 105.27 187.035 105.373 186.972 105.489C186.909 105.605 186.87 105.732 186.856 105.863C186.843 105.994 186.855 106.126 186.893 106.252C186.931 106.379 186.993 106.496 187.076 106.598C187.16 106.7 187.262 106.785 187.378 106.847L191.705 109.216C191.802 109.255 191.906 109.274 192.01 109.274C192.244 109.317 192.485 109.276 192.691 109.157C192.897 109.039 193.054 108.851 193.134 108.627C193.214 108.403 193.212 108.158 193.128 107.936C193.043 107.714 192.883 107.529 192.675 107.414L192.665 107.463ZM166.589 74.78L156.693 69.3404C156.554 69.2646 156.4 69.2227 156.242 69.2181C156.084 69.2134 155.928 69.2462 155.785 69.3137C155.642 69.3812 155.518 69.4815 155.421 69.6064C155.325 69.7313 155.259 69.8773 155.23 70.0324L152.058 86.9271C152.007 87.1407 152.027 87.3651 152.117 87.5658C152.206 87.7664 152.359 87.9321 152.551 88.0373L162.431 93.4026C162.573 93.4806 162.732 93.523 162.894 93.5258C163.056 93.5287 163.217 93.4921 163.362 93.4192C163.507 93.3463 163.632 93.2392 163.726 93.1072C163.82 92.9752 163.881 92.8222 163.903 92.6615L167.066 75.8159C167.101 75.6152 167.075 75.4084 166.989 75.2233C166.904 75.0382 166.764 74.8835 166.589 74.78ZM162.21 91.0006L154.156 86.5886L156.941 71.7577L164.997 76.16L162.21 91.0006ZM162.362 97.2358L159.354 95.5924C159.212 95.5143 159.053 95.472 158.891 95.4691C158.728 95.4662 158.568 95.5028 158.423 95.5758C158.278 95.6487 158.153 95.7558 158.059 95.8878C157.965 96.0198 157.904 96.1728 157.882 96.3335L156.92 101.454C156.869 101.668 156.89 101.892 156.979 102.093C157.069 102.293 157.221 102.459 157.414 102.564L160.414 104.145C160.556 104.223 160.715 104.265 160.877 104.268C161.04 104.271 161.2 104.234 161.345 104.161C161.49 104.089 161.615 103.981 161.709 103.849C161.803 103.717 161.864 103.564 161.886 103.404L162.846 98.2931C162.885 98.0885 162.86 97.8766 162.773 97.687C162.687 97.4974 162.543 97.3397 162.362 97.2358ZM160.18 101.761L159.019 101.115L159.604 97.9999L160.765 98.6452L160.18 101.761ZM156.596 94.0775L152.472 91.8177C152.334 91.7412 152.179 91.6987 152.021 91.6937C151.862 91.6888 151.705 91.7215 151.562 91.7892C151.42 91.8572 151.295 91.9579 151.199 92.0831C151.103 92.2083 151.038 92.3544 151.01 92.5096L150.035 97.6989C149.984 97.9125 150.005 98.1369 150.094 98.3376C150.183 98.5382 150.336 98.7039 150.529 98.8091L154.66 101.03C154.802 101.108 154.961 101.15 155.123 101.153C155.286 101.156 155.446 101.119 155.591 101.046C155.736 100.973 155.861 100.866 155.955 100.734C156.049 100.602 156.11 100.449 156.132 100.288L157.099 95.1385C157.138 94.9312 157.11 94.717 157.02 94.5264C156.929 94.3358 156.781 94.1787 156.596 94.0775ZM154.414 98.6024L152.136 97.3505L152.721 94.235L154.999 95.4869L154.414 98.6024ZM174.418 78.8751C174.516 78.909 174.618 78.9282 174.722 78.9323L178.153 78.4878C178.287 78.4754 178.417 78.4361 178.536 78.3723C178.654 78.3085 178.758 78.2214 178.842 78.1164C178.926 78.0113 178.988 77.8904 179.024 77.7609C179.06 77.6314 179.07 77.4959 179.053 77.3626C179.035 77.2292 178.991 77.1008 178.923 76.9849C178.855 76.869 178.764 76.768 178.656 76.6881C178.548 76.6081 178.424 76.5508 178.294 76.5195C178.163 76.4882 178.027 76.4836 177.894 76.506L174.464 76.9505C174.228 76.9818 174.011 77.0959 173.852 77.2724C173.693 77.4489 173.602 77.6763 173.596 77.9139C173.589 78.1514 173.667 78.3835 173.816 78.5686C173.965 78.7538 174.175 78.8798 174.408 78.9242L174.418 78.8751ZM180.717 78.0535C180.821 78.0752 180.927 78.0779 181.031 78.0616L185.929 77.3938C186.063 77.3814 186.193 77.3421 186.311 77.2783C186.429 77.2145 186.534 77.1275 186.618 77.0224C186.701 76.9174 186.763 76.7965 186.8 76.667C186.836 76.5375 186.845 76.402 186.828 76.2686C186.811 76.1353 186.766 76.0068 186.698 75.8909C186.63 75.775 186.539 75.6741 186.431 75.5941C186.323 75.5142 186.2 75.4568 186.069 75.4255C185.938 75.3942 185.802 75.3897 185.67 75.412L180.778 76.0503C180.543 76.0816 180.326 76.1957 180.167 76.3722C180.008 76.5487 179.917 76.7761 179.91 77.0137C179.903 77.2512 179.982 77.4833 180.131 77.6685C180.279 77.8536 180.49 77.9796 180.723 78.024L180.717 78.0535ZM178.323 81.0531C178.307 80.9223 178.265 80.796 178.2 80.6813C178.135 80.5667 178.049 80.4659 177.945 80.385C177.841 80.304 177.722 80.2444 177.595 80.2095C177.468 80.1746 177.335 80.1652 177.204 80.1818L173.772 80.6361C173.503 80.6275 173.243 80.7259 173.047 80.9096C172.851 81.0932 172.736 81.3471 172.728 81.6153C172.719 81.8836 172.818 82.1442 173.001 82.3399C173.185 82.5357 173.439 82.6504 173.707 82.6589C173.811 82.6772 173.917 82.6799 174.021 82.667L177.454 82.2127C177.588 82.1968 177.718 82.1537 177.836 82.0861C177.953 82.0185 178.056 81.9277 178.137 81.8192C178.218 81.7108 178.277 81.5869 178.309 81.4552C178.34 81.3236 178.345 81.1867 178.323 81.0531ZM180.009 81.8275C180.113 81.8442 180.218 81.8469 180.323 81.8356L185.214 81.1974C185.47 81.1543 185.698 81.014 185.852 80.806C186.006 80.598 186.073 80.3384 186.04 80.0819C186.006 79.8253 185.874 79.5917 185.672 79.4302C185.47 79.2686 185.213 79.1917 184.956 79.2156L180.064 79.8538C179.828 79.8851 179.612 79.9992 179.453 80.1757C179.294 80.3523 179.203 80.5797 179.196 80.8172C179.189 81.0547 179.267 81.2869 179.416 81.472C179.565 81.6571 179.775 81.7832 180.009 81.8275ZM177.609 84.8566C177.574 84.5939 177.437 84.3556 177.227 84.1941C177.017 84.0326 176.751 83.961 176.488 83.9951L173.057 84.4396C172.926 84.4564 172.8 84.4991 172.685 84.5651C172.57 84.6312 172.47 84.7193 172.39 84.8244C172.309 84.9295 172.251 85.0495 172.217 85.1775C172.184 85.3054 172.176 85.4387 172.194 85.5697C172.222 85.7875 172.321 85.99 172.476 86.1459C172.63 86.3018 172.832 86.4025 173.05 86.4324C173.153 86.4507 173.259 86.4534 173.363 86.4405L176.796 85.9861C177.052 85.9402 177.279 85.7966 177.431 85.5858C177.583 85.375 177.646 85.1135 177.609 84.8566ZM179.3 85.6016C179.404 85.6183 179.51 85.621 179.614 85.6097L184.506 84.9714C184.761 84.9283 184.989 84.7881 185.143 84.58C185.297 84.372 185.364 84.1125 185.331 83.8559C185.297 83.5993 185.166 83.3658 184.964 83.2042C184.762 83.0427 184.505 82.9658 184.247 82.9896L179.355 83.6279C179.12 83.6591 178.903 83.7733 178.744 83.9498C178.585 84.1263 178.494 84.3537 178.487 84.5912C178.481 84.8288 178.559 85.0609 178.708 85.246C178.857 85.4312 179.067 85.5572 179.3 85.6016ZM175.78 87.7692L172.349 88.2137C172.086 88.2482 171.848 88.3855 171.686 88.5956C171.525 88.8056 171.453 89.0712 171.487 89.3339C171.515 89.5517 171.614 89.7542 171.769 89.9101C171.924 90.066 172.125 90.1667 172.343 90.1966C172.446 90.2198 172.552 90.2225 172.657 90.2047L176.033 89.7804C176.296 89.746 176.534 89.6086 176.695 89.3986C176.857 89.1885 176.929 88.9229 176.894 88.6602C176.881 88.528 176.841 88.3999 176.778 88.2832C176.714 88.1666 176.628 88.0638 176.524 87.9808C176.42 87.8979 176.301 87.8364 176.173 87.8001C176.045 87.7638 175.912 87.7532 175.78 87.7692ZM178.592 89.3756C178.695 89.3923 178.801 89.395 178.905 89.3837L183.797 88.7455C184.061 88.7114 184.301 88.5738 184.464 88.363C184.626 88.1521 184.699 87.8853 184.665 87.6212C184.631 87.3571 184.493 87.1174 184.282 86.9547C184.071 86.792 183.804 86.7198 183.54 86.7539L178.647 87.4019C178.411 87.4332 178.194 87.5473 178.035 87.7238C177.876 87.9004 177.785 88.1278 177.779 88.3653C177.772 88.6028 177.85 88.835 177.999 89.0201C178.148 89.2052 178.358 89.3313 178.592 89.3756ZM171.899 93.9695L175.33 93.525C175.585 93.4819 175.813 93.3417 175.967 93.1336C176.121 92.9256 176.188 92.6661 176.155 92.4095C176.121 92.1529 175.99 91.9193 175.788 91.7578C175.586 91.5963 175.329 91.5194 175.071 91.5432L171.636 92.0074C171.374 92.0419 171.135 92.1792 170.974 92.3893C170.812 92.5993 170.741 92.8649 170.775 93.1276C170.803 93.3454 170.902 93.5479 171.057 93.7038C171.211 93.8597 171.413 93.9604 171.63 93.9903C171.72 93.9984 171.811 93.9914 171.899 93.9695ZM178.197 93.1578L183.089 92.5195C183.353 92.4854 183.592 92.3479 183.755 92.137C183.918 91.9262 183.99 91.6594 183.956 91.3953C183.922 91.1312 183.784 90.8914 183.573 90.7287C183.363 90.5661 183.096 90.4938 182.832 90.5279L177.942 91.1563C177.811 91.1731 177.684 91.2158 177.569 91.2818C177.455 91.3479 177.354 91.436 177.274 91.5411C177.194 91.6462 177.135 91.7662 177.102 91.8942C177.068 92.0221 177.06 92.1554 177.078 92.2864C177.109 92.5027 177.209 92.7031 177.364 92.8571C177.518 93.0111 177.719 93.1102 177.936 93.1393C178.022 93.1554 178.109 93.1616 178.197 93.1578ZM175.127 97.7501C175.019 97.6369 174.886 97.5506 174.738 97.4981C174.591 97.4457 174.433 97.4286 174.278 97.4482L170.868 97.8866C170.659 97.9139 170.464 98.0065 170.311 98.1513C170.158 98.2962 170.054 98.4857 170.015 98.693L168.365 107.479C168.336 107.635 168.344 107.794 168.389 107.946C168.433 108.097 168.513 108.236 168.622 108.351C168.73 108.465 168.864 108.553 169.013 108.605C169.162 108.658 169.321 108.675 169.477 108.655L172.877 108.215C173.095 108.187 173.297 108.088 173.453 107.933C173.609 107.778 173.71 107.577 173.74 107.359L175.38 98.6218C175.41 98.4668 175.402 98.307 175.358 98.1555C175.314 98.004 175.235 97.8651 175.127 97.7501ZM171.913 106.304L170.589 106.473L171.846 99.7795L173.17 99.6109L171.913 106.304ZM182.907 96.7384C182.799 96.6252 182.666 96.5389 182.518 96.4865C182.371 96.4341 182.213 96.417 182.058 96.4366L177.397 97.0368C177.188 97.0641 176.993 97.1567 176.84 97.3016C176.686 97.4464 176.583 97.636 176.544 97.8432L174.894 106.63C174.865 106.785 174.873 106.945 174.918 107.096C174.962 107.247 175.042 107.386 175.151 107.501C175.259 107.615 175.393 107.703 175.542 107.756C175.691 107.809 175.85 107.825 176.006 107.805L180.667 107.205C180.885 107.177 181.087 107.078 181.243 106.923C181.399 106.769 181.5 106.567 181.53 106.349L183.17 97.612C183.199 97.456 183.19 97.2954 183.144 97.1435C183.098 96.9916 183.017 96.8527 182.907 96.7384ZM179.693 105.292L177.118 105.623L178.375 98.9297L180.952 98.5894L179.693 105.292Z" fill="#8766FF"/>
<path d="M97.5 192.833C102.609 192.833 106.75 188.692 106.75 183.583C106.75 178.475 102.609 174.333 97.5 174.333C92.3914 174.333 88.25 178.475 88.25 183.583C88.25 188.692 92.3914 192.833 97.5 192.833Z" stroke="#8766FF" stroke-width="2" stroke-linecap="round" stroke-linejoin="round"/>
<path d="M60.5 171.25C65.6086 171.25 69.75 167.109 69.75 162C69.75 156.891 65.6086 152.75 60.5 152.75C55.3914 152.75 51.25 156.891 51.25 162C51.25 167.109 55.3914 171.25 60.5 171.25Z" stroke="#8766FF" stroke-width="2" stroke-linecap="round" stroke-linejoin="round"/>
<path d="M68.4858 166.656L89.545 178.928" stroke="#8766FF" stroke-width="2" stroke-linecap="round" stroke-linejoin="round"/>
<path d="M97.5 149.667C102.609 149.667 106.75 145.525 106.75 140.417C106.75 135.308 102.609 131.167 97.5 131.167C92.3914 131.167 88.25 135.308 88.25 140.417C88.25 145.525 92.3914 149.667 97.5 149.667Z" stroke="#8766FF" stroke-width="2" stroke-linecap="round" stroke-linejoin="round"/>
<path d="M89.5142 145.073L68.4858 157.344" stroke="#8766FF" stroke-width="2" stroke-linecap="round" stroke-linejoin="round"/>
<path d="M170.562 256.388H187.438V260.138H170.562V256.388Z" fill="#291E53"/>
<path d="M164.938 222.638L166.812 235.763H191.188L193.062 222.638H164.938Z" fill="#291E53"/>
<path d="M169.625 235.763L168.688 222.638H189.312L188.375 235.763" fill="#291E53"/>
<path d="M185.562 228.263H172.438L172.685 230.239C173.769 238.913 174.312 247.647 174.312 256.388H183.688C183.688 247.647 184.231 238.913 185.315 230.239L185.562 228.263ZM164.938 218.888H193.062V222.638H164.938V218.888Z" fill="#291E53"/>
<path d="M175.411 208.388C175.237 208.214 175.099 208.008 175.004 207.78C174.91 207.553 174.862 207.309 174.862 207.063C174.862 206.816 174.91 206.572 175.004 206.345C175.099 206.118 175.237 205.911 175.411 205.737L176.737 204.411C176.911 204.237 177.118 204.099 177.345 204.005C177.573 203.911 177.816 203.862 178.063 203.862C178.309 203.862 178.553 203.911 178.78 204.005C179.007 204.099 179.214 204.237 179.388 204.411C179.562 204.585 179.7 204.792 179.795 205.019C179.889 205.247 179.937 205.491 179.937 205.737C179.937 205.983 179.889 206.227 179.795 206.454C179.7 206.682 179.562 206.888 179.388 207.063L178.063 208.388C177.711 208.74 177.234 208.937 176.737 208.937C176.24 208.937 175.763 208.74 175.411 208.388Z" fill="#291E53"/>
<path d="M191.188 236.701H185.094C184.845 236.701 184.607 236.602 184.431 236.426C184.255 236.25 184.156 236.012 184.156 235.763C184.156 235.515 184.255 235.276 184.431 235.1C184.607 234.924 184.845 234.826 185.094 234.826H190.374L191.981 223.576H166.018L167.624 234.826H172.904C173.153 234.826 173.392 234.924 173.567 235.1C173.743 235.276 173.842 235.515 173.842 235.763C173.842 236.012 173.743 236.25 173.567 236.426C173.392 236.602 173.153 236.701 172.904 236.701H166.813C166.587 236.701 166.369 236.619 166.198 236.472C166.028 236.324 165.916 236.12 165.884 235.896L164.009 222.771C163.989 222.638 163.998 222.502 164.036 222.373C164.073 222.244 164.139 222.124 164.227 222.023C164.315 221.921 164.424 221.84 164.547 221.785C164.67 221.729 164.803 221.701 164.938 221.703H193.063C193.197 221.703 193.329 221.732 193.451 221.788C193.572 221.844 193.681 221.925 193.769 222.027C193.857 222.128 193.922 222.247 193.96 222.375C193.998 222.503 194.009 222.639 193.991 222.771L192.116 235.896C192.084 236.12 191.972 236.324 191.802 236.472C191.631 236.619 191.413 236.701 191.188 236.701Z" fill="#8766FF"/>
<path d="M188.377 236.701L188.309 236.699C188.187 236.69 188.067 236.658 187.956 236.603C187.846 236.548 187.748 236.471 187.667 236.378C187.586 236.285 187.524 236.177 187.485 236.061C187.446 235.944 187.431 235.82 187.439 235.698L188.306 223.578H169.694L170.561 235.698C170.569 235.82 170.554 235.944 170.515 236.061C170.476 236.177 170.414 236.285 170.333 236.378C170.252 236.471 170.154 236.548 170.044 236.603C169.934 236.658 169.814 236.69 169.691 236.699C169.444 236.71 169.203 236.626 169.017 236.464C168.831 236.303 168.714 236.076 168.689 235.831L167.752 222.706C167.733 222.445 167.823 222.19 168.001 222.001C168.179 221.811 168.429 221.703 168.688 221.703H189.313C189.441 221.703 189.568 221.73 189.686 221.781C189.804 221.833 189.91 221.908 189.997 222.002C190.085 222.096 190.152 222.207 190.196 222.328C190.239 222.449 190.257 222.577 190.248 222.706L189.311 235.831C189.294 236.067 189.188 236.288 189.015 236.449C188.842 236.61 188.614 236.7 188.377 236.701ZM187.438 261.076H170.563C170.314 261.076 170.075 260.977 169.9 260.801C169.724 260.625 169.625 260.387 169.625 260.138V256.388C169.625 256.139 169.724 255.901 169.9 255.725C170.075 255.549 170.314 255.451 170.563 255.451H187.438C187.686 255.451 187.925 255.549 188.1 255.725C188.276 255.901 188.375 256.139 188.375 256.388V260.138C188.375 260.387 188.276 260.625 188.1 260.801C187.925 260.977 187.686 261.076 187.438 261.076ZM171.5 259.201H186.5V257.326H171.5V259.201Z" fill="#8766FF"/>
<path d="M193.062 223.576H164.938C164.689 223.576 164.45 223.477 164.275 223.301C164.099 223.125 164 222.887 164 222.638V218.888C164 218.639 164.099 218.401 164.275 218.225C164.45 218.049 164.689 217.951 164.938 217.951H193.062C193.311 217.951 193.55 218.049 193.725 218.225C193.901 218.401 194 218.639 194 218.888V222.638C194 222.887 193.901 223.125 193.725 223.301C193.55 223.477 193.311 223.576 193.062 223.576ZM165.875 221.701H192.125V219.826H165.875V221.701ZM183.688 257.326H174.312C174.064 257.326 173.825 257.227 173.65 257.051C173.474 256.875 173.375 256.637 173.375 256.388C173.375 247.718 172.829 238.96 171.755 230.356L171.507 228.379C171.491 228.248 171.503 228.114 171.542 227.987C171.581 227.86 171.647 227.742 171.735 227.643C171.823 227.543 171.931 227.463 172.052 227.409C172.173 227.354 172.305 227.326 172.438 227.326H185.562C185.695 227.326 185.827 227.354 185.948 227.409C186.069 227.464 186.177 227.544 186.264 227.643C186.352 227.743 186.418 227.86 186.457 227.987C186.497 228.114 186.509 228.248 186.493 228.379L186.245 230.356C185.168 238.991 184.627 247.686 184.625 256.388C184.625 256.637 184.526 256.875 184.35 257.051C184.175 257.227 183.936 257.326 183.688 257.326ZM175.248 255.451H182.752C182.791 247.011 183.339 238.495 184.385 230.123L184.501 229.201H173.501L173.615 230.125C174.661 238.495 175.211 247.011 175.248 255.451ZM176.737 209.873C176.017 209.873 175.297 209.599 174.748 209.052C174.486 208.791 174.278 208.481 174.137 208.14C173.995 207.798 173.923 207.432 173.924 207.063C173.924 206.313 174.217 205.606 174.748 205.073L176.073 203.748C176.605 203.243 177.314 202.965 178.047 202.975C178.781 202.985 179.481 203.28 180 203.799C180.519 204.318 180.815 205.019 180.824 205.752C180.834 206.486 180.557 207.194 180.052 207.726L178.726 209.05C178.465 209.312 178.155 209.519 177.814 209.66C177.472 209.802 177.106 209.874 176.737 209.873ZM178.062 204.799C177.939 204.799 177.817 204.823 177.703 204.87C177.589 204.917 177.486 204.986 177.399 205.073L176.073 206.399C175.986 206.486 175.916 206.589 175.869 206.703C175.822 206.817 175.799 206.939 175.799 207.063C175.8 207.248 175.855 207.428 175.958 207.582C176.061 207.736 176.207 207.856 176.378 207.927C176.549 207.997 176.738 208.016 176.919 207.98C177.101 207.944 177.268 207.855 177.399 207.724L178.724 206.399C178.854 206.267 178.942 206.101 178.978 205.919C179.013 205.738 178.995 205.55 178.924 205.38C178.853 205.209 178.734 205.063 178.581 204.96C178.427 204.856 178.247 204.801 178.062 204.799Z" fill="#8766FF"/>
<path d="M181.812 219.826H170.562C170.314 219.826 170.075 219.727 169.9 219.551C169.724 219.375 169.625 219.137 169.625 218.888V214.082C169.625 212.687 170.24 211.375 171.311 210.481L174.755 207.61C174.85 207.531 174.959 207.472 175.077 207.435C175.194 207.398 175.318 207.385 175.441 207.396C175.564 207.407 175.683 207.443 175.792 207.5C175.901 207.557 175.998 207.635 176.077 207.73C176.156 207.825 176.215 207.934 176.252 208.052C176.289 208.169 176.302 208.293 176.291 208.416C176.28 208.538 176.244 208.658 176.187 208.767C176.13 208.876 176.052 208.973 175.957 209.052L172.512 211.922C171.867 212.459 171.5 213.246 171.5 214.082V217.951H181.812C182.061 217.951 182.3 218.049 182.475 218.225C182.651 218.401 182.75 218.639 182.75 218.888C182.75 219.137 182.651 219.375 182.475 219.551C182.3 219.727 182.061 219.826 181.812 219.826Z" fill="#8766FF"/>
<rect x="3" y="631" width="247" height="46" fill="#291E53"/>
<path d="M201.199 492.044C140 574 89.4999 658 1.99989 640.5" stroke="#8766FF" stroke-width="3"/>
<mask id="path-49-inside-1_544_345" fill="white">
<path fill-rule="evenodd" clip-rule="evenodd" d="M187.172 446.187L191.842 444.4L191.842 444.4C194.421 443.414 194.833 438.223 192.761 432.807C190.69 427.391 186.919 423.8 184.34 424.786C184.335 424.788 184.33 424.79 184.325 424.792L179.67 426.572C177.091 427.559 176.68 432.749 178.751 438.166C180.823 443.582 184.593 447.173 187.172 446.187Z"/>
</mask>
<path fill-rule="evenodd" clip-rule="evenodd" d="M187.172 446.187L191.842 444.4L191.842 444.4C194.421 443.414 194.833 438.223 192.761 432.807C190.69 427.391 186.919 423.8 184.34 424.786C184.335 424.788 184.33 424.79 184.325 424.792L179.67 426.572C177.091 427.559 176.68 432.749 178.751 438.166C180.823 443.582 184.593 447.173 187.172 446.187Z" fill="#291E53"/>
<path d="M187.172 446.187L188.244 448.989L187.172 446.187ZM191.842 444.4L194.644 443.329L195.716 446.131L192.914 447.203L191.842 444.4ZM191.842 444.4L189.04 445.472L187.969 442.67L190.77 441.598L191.842 444.4ZM184.325 424.792L185.415 427.587L185.406 427.591L185.397 427.594L184.325 424.792ZM179.67 426.572L180.742 429.374L179.67 426.572ZM186.101 443.385L190.771 441.598L192.914 447.203L188.244 448.989L186.101 443.385ZM189.04 445.472L189.04 445.472L194.644 443.329L194.644 443.329L189.04 445.472ZM190.77 441.598C190.355 441.757 190.912 441.837 191.055 440.028C191.179 438.466 190.872 436.265 189.959 433.879L195.563 431.735C196.722 434.766 197.245 437.868 197.036 440.502C196.847 442.889 195.909 446.057 192.914 447.202L190.77 441.598ZM189.959 433.879C189.047 431.493 187.807 429.649 186.672 428.568C185.358 427.316 184.996 427.747 185.412 427.588L183.268 421.984C186.263 420.839 189.077 422.572 190.81 424.223C192.723 426.045 194.404 428.705 195.563 431.735L189.959 433.879ZM185.412 427.588C185.413 427.588 185.414 427.587 185.415 427.587L183.234 421.997C183.246 421.993 183.257 421.989 183.268 421.984L185.412 427.588ZM185.397 427.594L180.742 429.374L178.599 423.77L183.253 421.99L185.397 427.594ZM180.742 429.374C181.158 429.215 180.601 429.136 180.457 430.945C180.333 432.507 180.641 434.708 181.553 437.094L175.949 439.237C174.79 436.207 174.267 433.105 174.476 430.471C174.665 428.084 175.604 424.916 178.599 423.77L180.742 429.374ZM181.553 437.094C182.466 439.48 183.706 441.324 184.84 442.405C186.155 443.657 186.516 443.226 186.101 443.385L188.244 448.989C185.249 450.134 182.436 448.401 180.702 446.75C178.789 444.927 177.108 442.268 175.949 439.237L181.553 437.094Z" fill="#8766FF" mask="url(#path-49-inside-1_544_345)"/>
<path d="M195 482.5C193.228 482.43 185.561 487.977 184 486C176.5 476.5 200.096 451.742 201.868 451.812C203.64 451.882 205.331 453.631 204.17 458.633C204.06 461.416 199.657 470.345 195 482.5Z" fill="#A298C9"/>
<mask id="path-52-inside-2_544_345" fill="white">
<path fill-rule="evenodd" clip-rule="evenodd" d="M189.533 437.433L206.632 430.893L222.833 473.251L222.833 473.251C223.158 474.102 219.594 476.256 214.873 478.062C210.151 479.868 206.059 480.642 205.734 479.791C205.733 479.787 205.731 479.783 205.73 479.779L189.533 437.433Z"/>
</mask>
<path fill-rule="evenodd" clip-rule="evenodd" d="M189.533 437.433L206.632 430.893L222.833 473.251L222.833 473.251C223.158 474.102 219.594 476.256 214.873 478.062C210.151 479.868 206.059 480.642 205.734 479.791C205.733 479.787 205.731 479.783 205.73 479.779L189.533 437.433Z" fill="#291E53"/>
<path d="M206.632 430.893L205.918 429.025L207.786 428.311L208.5 430.179L206.632 430.893ZM189.533 437.433L187.665 438.147L186.951 436.279L188.819 435.565L189.533 437.433ZM222.833 473.251L224.701 472.537L225.456 474.51L223.445 475.156L222.833 473.251ZM222.833 473.251L220.965 473.966L220.21 471.993L222.221 471.347L222.833 473.251ZM205.73 479.779L207.598 479.065L207.613 479.105L207.627 479.146L205.73 479.779ZM207.347 432.761L190.248 439.301L188.819 435.565L205.918 429.025L207.347 432.761ZM220.965 473.966L204.764 431.608L208.5 430.179L224.701 472.537L220.965 473.966ZM222.221 471.347L222.221 471.347L223.445 475.156L223.445 475.156L222.221 471.347ZM214.158 476.194C216.443 475.32 218.4 474.379 219.711 473.587C220.381 473.182 220.797 472.867 221.001 472.669C221.109 472.565 221.072 472.575 221.007 472.698C220.948 472.811 220.717 473.317 220.965 473.966L224.701 472.537C225.03 473.399 224.759 474.158 224.549 474.558C224.333 474.97 224.033 475.302 223.78 475.547C223.26 476.049 222.551 476.544 221.78 477.01C220.21 477.959 218.024 478.998 215.587 479.93L214.158 476.194ZM207.602 479.077C207.354 478.428 206.844 478.205 206.725 478.161C206.594 478.112 206.559 478.13 206.71 478.135C206.994 478.146 207.514 478.103 208.283 477.958C209.788 477.673 211.873 477.068 214.158 476.194L215.587 479.93C213.15 480.862 210.829 481.547 209.027 481.888C208.142 482.055 207.283 482.16 206.561 482.133C206.208 482.119 205.764 482.072 205.328 481.91C204.905 481.752 204.196 481.367 203.866 480.506L207.602 479.077ZM207.627 479.146C207.619 479.122 207.611 479.1 207.602 479.077L203.866 480.506C203.854 480.475 203.843 480.444 203.833 480.413L207.627 479.146ZM191.401 436.718L207.598 479.065L203.862 480.494L187.665 438.147L191.401 436.718Z" fill="#8766FF" mask="url(#path-52-inside-2_544_345)"/>
<mask id="path-54-inside-3_544_345" fill="white">
<path fill-rule="evenodd" clip-rule="evenodd" d="M200.276 451.525L209.617 447.953C214.775 445.98 215.598 435.599 211.455 424.766C207.311 413.933 199.771 406.751 194.613 408.724L185.272 412.296C180.114 414.269 179.291 424.65 183.434 435.483C187.577 446.316 195.118 453.498 200.276 451.525Z"/>
</mask>
<path fill-rule="evenodd" clip-rule="evenodd" d="M200.276 451.525L209.617 447.953C214.775 445.98 215.598 435.599 211.455 424.766C207.311 413.933 199.771 406.751 194.613 408.724L185.272 412.296C180.114 414.269 179.291 424.65 183.434 435.483C187.577 446.316 195.118 453.498 200.276 451.525Z" fill="#291E53"/>
<path d="M199.205 448.723L208.545 445.151L210.688 450.755L201.348 454.327L199.205 448.723ZM208.545 445.151C209.419 444.816 210.723 443.352 211.033 439.445C211.323 435.784 210.601 430.932 208.653 425.838L214.257 423.694C216.452 429.433 217.389 435.187 217.014 439.919C216.659 444.403 214.973 449.116 210.688 450.755L208.545 445.151ZM208.653 425.838C206.704 420.744 204.004 416.647 201.345 414.115C198.507 411.412 196.558 411.192 195.684 411.526L193.541 405.922C197.825 404.283 202.226 406.668 205.483 409.771C208.92 413.044 212.062 417.956 214.257 423.694L208.653 425.838ZM195.684 411.526L186.344 415.098L184.201 409.494L193.541 405.922L195.684 411.526ZM186.344 415.098C185.47 415.433 184.166 416.897 183.856 420.804C183.566 424.465 184.288 429.317 186.236 434.411L180.632 436.555C178.437 430.816 177.499 425.062 177.875 420.33C178.23 415.846 179.916 411.133 184.201 409.494L186.344 415.098ZM186.236 434.411C188.185 439.505 190.885 443.601 193.544 446.134C196.382 448.837 198.331 449.057 199.205 448.723L201.348 454.327C197.064 455.966 192.663 453.581 189.406 450.478C185.969 447.205 182.827 442.293 180.632 436.555L186.236 434.411Z" fill="#8766FF" mask="url(#path-54-inside-3_544_345)"/>
<path d="M216.5 492C202.754 496.147 187.479 497.371 184.365 487.049C181.251 476.727 205.681 457.068 208.426 456.791C218 450 231.5 451 235.5 467.5C233 498.5 227.572 488.66 216.5 492Z" fill="#A298C9"/>
<path d="M236.504 471.678C231.004 469.178 227.504 470.178 221.004 470.678" stroke="#291E53" stroke-linecap="round"/>
<path d="M234.5 481C230 481 224.5 482 220.5 481" stroke="#291E53" stroke-linecap="round"/>
<path d="M235.005 462.394C235.005 462.394 229.005 458.394 218.006 460.894" stroke="#291E53" stroke-linecap="round"/>
<rect x="1.5" y="1.5" width="260" height="673" rx="15.5" stroke="#696187" stroke-width="3"/>
<path d="M200.864 429.268C203.606 436.437 207.446 442.33 211.371 446.076C215.387 449.909 219.062 451.13 221.689 450.125C224.317 449.12 226.239 445.758 226.672 440.224C227.095 434.815 226.022 427.863 223.28 420.694C220.538 413.524 216.698 407.631 212.773 403.885C208.757 400.053 205.082 398.831 202.455 399.836C199.827 400.841 197.905 404.203 197.472 409.737C197.049 415.146 198.122 422.098 200.864 429.268Z" fill="#291E53" stroke="#8766FF" stroke-width="3"/>
<path d="M222.753 450.107C256.93 442.559 276.844 442.62 310.404 448.336L269.363 341.033C246.861 366.476 232.133 379.907 203.281 399.197L222.753 450.107Z" fill="#291E53" stroke="#8766FF" stroke-width="3"/>
<path d="M265.628 404.046C271.506 419.414 279.77 432.149 288.337 440.325C296.964 448.558 305.609 451.922 312.39 449.329C319.171 446.735 323.364 438.46 324.295 426.572C325.219 414.766 322.876 399.766 316.998 384.398C311.12 369.03 302.856 356.295 294.289 348.119C285.662 339.886 277.017 336.522 270.236 339.115C263.455 341.709 259.262 349.984 258.331 361.873C257.406 373.678 259.75 388.678 265.628 404.046Z" fill="#291E53" stroke="#8766FF" stroke-width="2"/>
<path d="M268.298 402.63C273.449 416.098 280.69 427.252 288.188 434.409C295.747 441.623 303.281 444.53 309.159 442.281C315.037 440.033 318.708 432.841 319.523 422.424C320.332 412.09 318.281 398.951 313.13 385.483C307.979 372.015 300.739 360.861 293.24 353.705C285.681 346.491 278.148 343.584 272.269 345.832C266.391 348.08 262.721 355.272 261.905 365.689C261.096 376.023 263.147 389.163 268.298 402.63Z" fill="#291E53" stroke="#8766FF" stroke-width="2"/>
<path d="M269.722 403.541C270.737 405.639 271.474 407.401 272.067 408.818C272.205 409.149 272.336 409.462 272.461 409.756C273.159 411.4 273.602 412.28 274.079 412.797C274.432 413.179 274.848 413.413 275.814 413.435C276.876 413.458 278.408 413.215 280.826 412.686C287.722 409.986 291.161 402.224 288.511 395.294C285.852 388.341 278.068 384.855 271.113 387.494C268.839 388.499 267.532 389.229 266.797 389.903C266.452 390.218 266.273 390.486 266.173 390.727C266.074 390.967 266.018 391.263 266.036 391.684C266.076 392.608 266.449 393.858 267.155 395.882C267.28 396.242 267.415 396.623 267.557 397.025C268.174 398.773 268.932 400.917 269.722 403.541Z" fill="#291E53" stroke="#8766FF" stroke-width="3"/>
<path d="M202.5 401.5L223.5 387L245 444.5L220 449L202.5 401.5Z" fill="#291E53"/>
</svg>
