<svg width="341" height="681" viewBox="0 0 341 681" fill="none" xmlns="http://www.w3.org/2000/svg">
<path d="M15.5695 637H14.5695V638V674.876C11.363 673.792 9.03658 672.675 7.28129 671.177C4.96824 669.202 3.54494 666.469 2.56987 661.897C2.57178 661.617 2.58147 661.339 2.59877 661.062L2.66519 660H2.56952V650V649H1.8764V540.474V540.409L1.86787 540.344C1.23885 535.561 1.27058 530.339 2.06007 524.637C3.14432 516.806 8.05048 508.489 15.7929 500.379C23.5214 492.283 33.999 484.475 46.0614 477.661C70.1967 464.028 100.528 454.456 127.57 454.456C152.716 454.456 185.77 467.694 212.898 485.142C226.445 493.855 238.46 503.584 247.228 513.172C256.027 522.793 261.428 532.134 262.016 540.074L262.07 540.797V649H261.57V650V659H261.527L261.562 660.033C261.567 660.179 261.569 660.325 261.569 660.472C261.326 664.75 259.66 668.745 256.925 671.48C254.574 673.832 251.407 675.281 247.57 675.177V638V637H246.57H15.5695ZM233.462 671.43C235.63 673.387 238.47 674.765 242.166 676H26.8997C32.6285 673.222 36.5695 667.818 36.5695 661.5C36.5695 657.495 34.9718 653.84 32.3429 651H231.107C229.164 653.69 228.07 656.97 228.07 660.5V660.604L228.091 660.706C229.114 665.566 230.682 668.922 233.462 671.43ZM18.2081 676C17.6408 675.837 17.0949 675.676 16.5695 675.516V639H245.57V674.96C240.494 673.493 237.141 672.056 234.802 669.945C232.474 667.844 231.046 664.976 230.07 660.397C230.096 656.645 231.522 653.243 233.96 650.691L235.574 649H233.237H29.8028H26.9545L29.1777 650.781C32.5126 653.451 34.5695 657.279 34.5695 661.5C34.5695 669.358 27.3724 675.934 18.2081 676Z" stroke="#8766FF" stroke-width="2"/>
<path d="M164.07 461C161.57 468 153.362 478.5 137.07 478.5C120.777 478.5 106.571 465 100.57 458C131.068 445 114.776 445 131.068 445C147.361 445 131.068 445 164.07 461Z" fill="#A298C9"/>
<rect x="111.57" y="417" width="39" height="45" fill="#A298C9"/>
<path fill-rule="evenodd" clip-rule="evenodd" d="M208.837 378.907C212.971 375.166 216.587 368.043 219.07 354.5C219.07 332 200.511 327.5 190.57 327.5C180.628 327.5 178.07 341.5 181.57 355.5C182.628 359.734 182.996 363.446 183.227 366.677C177.504 374.497 172.57 385.839 172.57 391C172.57 399.284 172.57 407.5 186.57 405C191.984 404.033 200.251 400 205.57 391C207.386 387.925 208.662 383.509 208.837 378.907ZM95.4805 363.28C95.5394 362.694 95.5696 362.1 95.5696 361.5C95.5696 351.283 86.8391 343 76.0696 343C65.3 343 56.5696 351.283 56.5696 361.5C56.5696 368.736 60.9485 375.002 67.3294 378.042C67.1586 379.006 67.0696 379.994 67.0696 381C67.0696 391.493 79.5696 403.5 94.5696 401.5C105.891 401.5 108.57 391.493 108.57 381C108.57 372.929 103.14 366.033 95.4805 363.28Z" fill="#726B8E"/>
<path d="M113 372C113 381.389 105.837 389 97 389C88.1634 389 81 381.389 81 372C81 362.611 88.1635 353 97 353C105.837 353 113 362.611 113 372Z" fill="#A298C9"/>
<path d="M185 380C185 414.794 162 437 146.47 437C114.99 437 93 408.294 93 373.5C93 338.706 108.02 316 139.5 316C170.98 316 190.5 344.5 185 380Z" fill="#A298C9"/>
<path fill-rule="evenodd" clip-rule="evenodd" d="M158.554 328.028C158.688 327.948 158.82 327.867 158.95 327.786C160.929 328.017 163.128 328.251 165.57 328.5C166.873 328.385 168.203 328.349 169.545 328.37C175.951 334.988 179.56 343.149 183.55 352.5C190.729 352.5 196.55 338.127 196.55 331.5C196.55 330.369 196.38 329.275 196.063 328.237C198.622 326.131 199.325 321.851 197.07 313.699C195.07 302.5 183.877 293.199 170.07 293.199C162.69 292.245 154.556 294.248 148.45 297.575C144.384 292.337 137.457 289 127.57 289C111.869 289 100.433 299.299 98.7766 310.663C96.7559 310.541 94.3749 310.64 91.5696 311C78.0696 311 64.5696 325.059 64.5696 335C64.5696 344.941 75.867 355 88.5696 355C105.43 353.073 108.831 345.577 109.951 330.276C110.561 330.61 111.19 330.924 111.839 331.217C116.792 334.114 124.549 336 132.07 336C143.319 335.598 154.568 332.518 158.554 328.028Z" fill="#726B8E"/>
<path d="M133.57 347.5C133.57 349.157 128.57 352.556 124.57 353C120.07 353.5 118.07 354 117.57 352C117.57 350 121.57 346.562 126.07 346C130.07 345.5 133.57 345.843 133.57 347.5Z" fill="#291E53"/>
<path d="M171.069 351.5C170.569 352.5 167.069 353 164.069 352.5C157.569 350 159.069 347 159.569 346C161.069 345 162.569 345.5 166.069 346C169.569 347 171.069 350.5 171.069 351.5Z" fill="#291E53"/>
<path d="M150.57 375C150.711 382.887 151.236 387.023 153.57 393.5C147.462 394.413 144.898 395.167 142.07 397" stroke="#291E53" stroke-width="3" stroke-linecap="round" stroke-linejoin="round"/>
<path d="M145.07 373C145.07 387.672 134.065 399.5 120.57 399.5C107.074 399.5 96.0696 387.672 96.0696 373C96.0696 358.328 107.074 346.5 120.57 346.5C134.065 346.5 145.07 358.328 145.07 373Z" fill="#8766FF" fill-opacity="0.14" stroke="#291E53"/>
<path d="M203.07 372C203.07 386.672 192.065 398.5 178.57 398.5C165.074 398.5 154.07 386.672 154.07 372C154.07 357.328 165.074 345.5 178.57 345.5C192.065 345.5 203.07 357.328 203.07 372Z" fill="#8766FF" fill-opacity="0.14" stroke="#291E53"/>
<path d="M144.07 381.5C149.408 378.101 151.834 378.469 155.57 381.5M90.0696 355L97.5696 363.5" stroke="#291E53" stroke-linecap="round" stroke-linejoin="round"/>
<ellipse cx="171.57" cy="326" rx="13" ry="10" fill="#726B8E"/>
<path d="M110.5 422C124.5 435 139.57 438.5 151.57 436.613" stroke="#291E53" stroke-linecap="round"/>
<path d="M163 376.154C165.595 371.507 171.437 369.475 176.007 371.994" stroke="#7755F1" stroke-width="3" stroke-linecap="round" stroke-linejoin="round"/>
<path d="M133.664 377.32C131.14 372.247 126.214 370.058 117.029 372.372" stroke="#7755F1" stroke-width="3" stroke-linecap="round" stroke-linejoin="round"/>
<path d="M163 376.154C165.595 371.507 171.437 369.475 176.007 371.994" stroke="#291E53" stroke-width="3" stroke-linecap="round" stroke-linejoin="round"/>
<path d="M133.664 377.32C131.14 372.247 126.214 370.058 117.029 372.372" stroke="#291E53" stroke-width="3" stroke-linecap="round" stroke-linejoin="round"/>
<path d="M131.264 407L150.5 408.5C148.5 412 148.5 412.5 146 416L131.264 411.344V407Z" fill="#291E53"/>
<path d="M130.227 404.87C134.16 408.134 140.541 409.018 149 408" stroke="#291E53" stroke-width="3" stroke-linecap="round" stroke-linejoin="round"/>
<path d="M130.338 405C128.759 406.082 132.578 415.367 144.769 415" stroke="#291E53" stroke-width="3" stroke-linecap="round"/>
<path d="M142.813 407.01C146.821 406.87 148.834 406.653 152 406L146.5 416.5C143.537 416.665 142.106 416.519 139.813 416.01L142.813 407.01Z" fill="#291E53"/>
<path d="M154.674 64.1747L171.901 73.5955L164.518 112.918L147.294 103.478L154.674 64.1747Z" fill="#291E53"/>
<path d="M191.363 71.0634L171.901 73.5956L164.518 112.918L183.983 110.367L191.363 71.0634Z" fill="#291E53"/>
<path d="M191.363 71.0635L208.59 80.4843L201.207 119.807L183.983 110.367L191.363 71.0635Z" fill="#291E53"/>
<path d="M194.255 77.172L191.081 94.0766L200.983 99.4867L204.155 82.592L194.255 77.172Z" fill="#8766FF"/>
<path d="M157.213 70.2169L154.039 87.1215L163.941 92.5317L167.113 75.6369L157.213 70.2169Z" fill="#8766FF"/>
<path d="M159.874 96.4688L158.902 101.648L161.92 103.294L162.892 98.1141L159.874 96.4688ZM152.992 92.6941L152.018 97.8834L156.144 100.133L157.116 94.9539L152.992 92.6941Z" fill="#291E53"/>
<path d="M175.407 98.4391L173.757 107.226L170.348 107.664L171.998 98.8774L175.407 98.4391ZM183.187 97.4275L181.539 106.204L176.877 106.814L178.527 98.0277L183.187 97.4275Z" fill="#291E53"/>
<path d="M209.07 79.6078C205.499 77.6552 192.113 70.319 191.766 70.1623C191.626 70.1055 191.475 70.0773 191.324 70.0793C190.955 70.0914 177.091 71.9143 172.093 72.5734L155.156 63.2883C155.016 63.2131 154.861 63.1721 154.702 63.1689C154.543 63.1657 154.386 63.2002 154.244 63.2697C154.095 63.3404 153.966 63.4468 153.868 63.5793C153.771 63.7119 153.707 63.8665 153.684 64.0294L146.302 103.342C146.264 103.55 146.291 103.764 146.382 103.955C146.472 104.145 146.62 104.302 146.805 104.403L164.038 113.795C164.229 113.902 164.45 113.944 164.667 113.913L183.809 111.402L200.747 120.687C200.888 120.761 201.046 120.8 201.206 120.801C201.366 120.801 201.523 120.763 201.665 120.69C201.808 120.618 201.93 120.512 202.023 120.381C202.116 120.251 202.176 120.101 202.199 119.942L209.581 80.6295C209.61 80.4274 209.577 80.2212 209.486 80.0386C209.394 79.856 209.249 79.7056 209.07 79.6078ZM155.404 65.7056L170.784 74.1284L163.79 111.378L148.41 102.955L155.404 65.7056ZM172.75 74.4975L190.127 72.2253L183.133 109.474L165.756 111.747L172.75 74.4975ZM200.479 118.266L185.099 109.843L192.093 72.5944L207.473 81.0172L200.479 118.266Z" fill="#8766FF"/>
<path d="M190.611 94.955L200.503 100.363C200.645 100.441 200.804 100.484 200.966 100.487C201.129 100.489 201.289 100.453 201.434 100.38C201.579 100.307 201.704 100.2 201.798 100.068C201.892 99.9359 201.953 99.7829 201.975 99.6222L205.138 82.7766C205.189 82.563 205.168 82.3386 205.079 82.1379C204.99 81.9373 204.837 81.7716 204.644 81.6664L194.745 76.2974C194.607 76.2217 194.452 76.1797 194.295 76.1751C194.137 76.1704 193.98 76.2032 193.837 76.2707C193.695 76.3382 193.57 76.4385 193.474 76.5634C193.377 76.6883 193.312 76.8343 193.282 76.9894L190.11 93.8842C190.069 94.0927 190.095 94.309 190.186 94.5015C190.276 94.6941 190.425 94.8529 190.611 94.955ZM194.993 78.7147L203.01 83.1096L200.224 97.9503L192.209 93.5456L194.993 78.7147ZM200.587 103.279L197.55 101.62C197.319 101.504 197.052 101.483 196.805 101.56C196.558 101.637 196.35 101.807 196.226 102.034C196.102 102.261 196.07 102.527 196.138 102.777C196.206 103.027 196.368 103.24 196.59 103.373L199.627 105.032C199.725 105.065 199.827 105.084 199.931 105.089C200.165 105.132 200.406 105.091 200.612 104.972C200.818 104.854 200.975 104.666 201.055 104.442C201.135 104.218 201.133 103.974 201.049 103.751C200.964 103.529 200.804 103.344 200.596 103.23L200.587 103.279ZM195.014 100.279L190.687 97.9098C190.572 97.8452 190.445 97.8042 190.313 97.7891C190.182 97.774 190.049 97.7852 189.922 97.8219C189.795 97.8586 189.676 97.9201 189.573 98.003C189.47 98.0858 189.384 98.1883 189.321 98.3044C189.21 98.5344 189.191 98.7982 189.268 99.0416C189.346 99.2851 189.513 99.4897 189.737 99.6136L194.064 101.983C194.161 102.021 194.264 102.041 194.368 102.04C194.573 102.039 194.772 101.976 194.939 101.859C195.107 101.742 195.234 101.576 195.304 101.384C195.375 101.193 195.385 100.984 195.333 100.786C195.281 100.589 195.17 100.412 195.014 100.279ZM199.902 106.925L196.866 105.266C196.634 105.151 196.367 105.129 196.12 105.206C195.873 105.284 195.666 105.453 195.542 105.68C195.417 105.907 195.386 106.174 195.454 106.423C195.522 106.673 195.684 106.887 195.906 107.019L198.942 108.678C199.039 108.716 199.142 108.735 199.247 108.735C199.454 108.774 199.668 108.746 199.859 108.656C200.049 108.566 200.206 108.417 200.308 108.232C200.419 108.004 200.439 107.741 200.363 107.498C200.288 107.256 200.123 107.051 199.902 106.925ZM189.057 103.23L193.385 105.6C193.483 105.633 193.585 105.653 193.689 105.657C193.923 105.7 194.164 105.659 194.37 105.54C194.576 105.422 194.733 105.234 194.813 105.01C194.893 104.786 194.891 104.541 194.807 104.319C194.722 104.097 194.562 103.912 194.354 103.797L190.028 101.418C189.909 101.355 189.779 101.315 189.645 101.302C189.51 101.288 189.375 101.301 189.246 101.34C189.116 101.38 188.996 101.444 188.892 101.529C188.787 101.615 188.701 101.72 188.637 101.839C188.573 101.958 188.534 102.088 188.52 102.223C188.507 102.357 188.52 102.493 188.559 102.622C188.598 102.751 188.662 102.871 188.748 102.976C188.833 103.08 188.938 103.167 189.057 103.23ZM199.228 110.512L196.192 108.854C195.961 108.738 195.694 108.716 195.447 108.794C195.2 108.871 194.992 109.041 194.868 109.268C194.744 109.495 194.712 109.761 194.78 110.011C194.848 110.26 195.01 110.474 195.232 110.607L198.268 112.265C198.367 112.298 198.469 112.318 198.573 112.323C198.807 112.366 199.048 112.325 199.254 112.206C199.46 112.088 199.617 111.9 199.697 111.676C199.777 111.452 199.775 111.207 199.69 110.985C199.606 110.763 199.446 110.578 199.238 110.463L199.228 110.512ZM193.665 107.463L189.338 105.094C189.223 105.03 189.096 104.989 188.964 104.974C188.833 104.958 188.7 104.97 188.573 105.006C188.446 105.043 188.327 105.105 188.224 105.187C188.121 105.27 188.035 105.373 187.972 105.489C187.909 105.605 187.87 105.732 187.856 105.863C187.843 105.994 187.855 106.126 187.893 106.252C187.931 106.379 187.993 106.496 188.076 106.598C188.16 106.7 188.262 106.785 188.378 106.847L192.705 109.216C192.802 109.255 192.906 109.274 193.01 109.274C193.244 109.317 193.485 109.276 193.691 109.157C193.897 109.039 194.054 108.851 194.134 108.627C194.214 108.403 194.212 108.158 194.128 107.936C194.043 107.714 193.883 107.529 193.675 107.414L193.665 107.463ZM167.589 74.78L157.693 69.3404C157.554 69.2646 157.4 69.2227 157.242 69.2181C157.084 69.2134 156.928 69.2462 156.785 69.3137C156.642 69.3812 156.518 69.4815 156.421 69.6064C156.325 69.7313 156.259 69.8773 156.23 70.0324L153.058 86.9271C153.007 87.1407 153.027 87.3651 153.117 87.5658C153.206 87.7664 153.359 87.9321 153.551 88.0373L163.431 93.4026C163.573 93.4806 163.732 93.523 163.894 93.5258C164.056 93.5287 164.217 93.4921 164.362 93.4192C164.507 93.3463 164.632 93.2392 164.726 93.1072C164.82 92.9752 164.881 92.8222 164.903 92.6615L168.066 75.8159C168.101 75.6152 168.075 75.4084 167.989 75.2233C167.904 75.0382 167.764 74.8835 167.589 74.78ZM163.21 91.0006L155.156 86.5886L157.941 71.7577L165.997 76.16L163.21 91.0006ZM163.362 97.2358L160.354 95.5924C160.212 95.5143 160.053 95.472 159.891 95.4691C159.728 95.4662 159.568 95.5028 159.423 95.5758C159.278 95.6487 159.153 95.7558 159.059 95.8878C158.965 96.0198 158.904 96.1728 158.882 96.3335L157.92 101.454C157.869 101.668 157.89 101.892 157.979 102.093C158.069 102.293 158.221 102.459 158.414 102.564L161.414 104.145C161.556 104.223 161.715 104.265 161.877 104.268C162.04 104.271 162.2 104.234 162.345 104.161C162.49 104.089 162.615 103.981 162.709 103.849C162.803 103.717 162.864 103.564 162.886 103.404L163.846 98.2931C163.885 98.0885 163.86 97.8766 163.773 97.687C163.687 97.4974 163.543 97.3397 163.362 97.2358ZM161.18 101.761L160.019 101.115L160.604 97.9999L161.765 98.6452L161.18 101.761ZM157.596 94.0775L153.472 91.8177C153.334 91.7412 153.179 91.6987 153.021 91.6937C152.862 91.6888 152.705 91.7215 152.562 91.7892C152.42 91.8572 152.295 91.9579 152.199 92.0831C152.103 92.2083 152.038 92.3544 152.01 92.5096L151.035 97.6989C150.984 97.9125 151.005 98.1369 151.094 98.3376C151.183 98.5382 151.336 98.7039 151.529 98.8091L155.66 101.03C155.802 101.108 155.961 101.15 156.123 101.153C156.286 101.156 156.446 101.119 156.591 101.046C156.736 100.973 156.861 100.866 156.955 100.734C157.049 100.602 157.11 100.449 157.132 100.288L158.099 95.1385C158.138 94.9312 158.11 94.717 158.02 94.5264C157.929 94.3358 157.781 94.1787 157.596 94.0775ZM155.414 98.6024L153.136 97.3505L153.721 94.235L155.999 95.4869L155.414 98.6024ZM175.418 78.8751C175.516 78.909 175.618 78.9282 175.722 78.9323L179.153 78.4878C179.287 78.4754 179.417 78.4361 179.536 78.3723C179.654 78.3085 179.758 78.2214 179.842 78.1164C179.926 78.0113 179.988 77.8904 180.024 77.7609C180.06 77.6314 180.07 77.4959 180.053 77.3626C180.035 77.2292 179.991 77.1008 179.923 76.9849C179.855 76.869 179.764 76.768 179.656 76.6881C179.548 76.6081 179.424 76.5508 179.294 76.5195C179.163 76.4882 179.027 76.4836 178.894 76.506L175.464 76.9505C175.228 76.9818 175.011 77.0959 174.852 77.2724C174.693 77.4489 174.602 77.6763 174.596 77.9139C174.589 78.1514 174.667 78.3835 174.816 78.5686C174.965 78.7538 175.175 78.8798 175.408 78.9242L175.418 78.8751ZM181.717 78.0535C181.821 78.0752 181.927 78.0779 182.031 78.0616L186.929 77.3938C187.063 77.3814 187.193 77.3421 187.311 77.2783C187.429 77.2145 187.534 77.1275 187.618 77.0224C187.701 76.9174 187.763 76.7965 187.8 76.667C187.836 76.5375 187.845 76.402 187.828 76.2686C187.811 76.1353 187.766 76.0068 187.698 75.8909C187.63 75.775 187.539 75.6741 187.431 75.5941C187.323 75.5142 187.2 75.4568 187.069 75.4255C186.938 75.3942 186.802 75.3897 186.67 75.412L181.778 76.0503C181.543 76.0816 181.326 76.1957 181.167 76.3722C181.008 76.5487 180.917 76.7761 180.91 77.0137C180.903 77.2512 180.982 77.4833 181.131 77.6685C181.279 77.8536 181.49 77.9796 181.723 78.024L181.717 78.0535ZM179.323 81.0531C179.307 80.9223 179.265 80.796 179.2 80.6813C179.135 80.5667 179.049 80.4659 178.945 80.385C178.841 80.304 178.722 80.2444 178.595 80.2095C178.468 80.1746 178.335 80.1652 178.204 80.1818L174.772 80.6361C174.503 80.6275 174.243 80.7259 174.047 80.9096C173.851 81.0932 173.736 81.3471 173.728 81.6153C173.719 81.8836 173.818 82.1442 174.001 82.3399C174.185 82.5357 174.439 82.6504 174.707 82.6589C174.811 82.6772 174.917 82.6799 175.021 82.667L178.454 82.2127C178.588 82.1968 178.718 82.1537 178.836 82.0861C178.953 82.0185 179.056 81.9277 179.137 81.8192C179.218 81.7108 179.277 81.5869 179.309 81.4552C179.34 81.3236 179.345 81.1867 179.323 81.0531ZM181.009 81.8275C181.113 81.8442 181.218 81.8469 181.323 81.8356L186.214 81.1974C186.47 81.1543 186.698 81.014 186.852 80.806C187.006 80.598 187.073 80.3384 187.04 80.0819C187.006 79.8253 186.874 79.5917 186.672 79.4302C186.47 79.2686 186.213 79.1917 185.956 79.2156L181.064 79.8538C180.828 79.8851 180.612 79.9992 180.453 80.1757C180.294 80.3523 180.203 80.5797 180.196 80.8172C180.189 81.0547 180.267 81.2869 180.416 81.472C180.565 81.6571 180.775 81.7832 181.009 81.8275ZM178.609 84.8566C178.574 84.5939 178.437 84.3556 178.227 84.1941C178.017 84.0326 177.751 83.961 177.488 83.9951L174.057 84.4396C173.926 84.4564 173.8 84.4991 173.685 84.5651C173.57 84.6312 173.47 84.7193 173.39 84.8244C173.309 84.9295 173.251 85.0495 173.217 85.1775C173.184 85.3054 173.176 85.4387 173.194 85.5697C173.222 85.7875 173.321 85.99 173.476 86.1459C173.63 86.3018 173.832 86.4025 174.05 86.4324C174.153 86.4507 174.259 86.4534 174.363 86.4405L177.796 85.9861C178.052 85.9402 178.279 85.7966 178.431 85.5858C178.583 85.375 178.646 85.1135 178.609 84.8566ZM180.3 85.6016C180.404 85.6183 180.51 85.621 180.614 85.6097L185.506 84.9714C185.761 84.9283 185.989 84.7881 186.143 84.58C186.297 84.372 186.364 84.1125 186.331 83.8559C186.297 83.5993 186.166 83.3658 185.964 83.2042C185.762 83.0427 185.505 82.9658 185.247 82.9896L180.355 83.6279C180.12 83.6591 179.903 83.7733 179.744 83.9498C179.585 84.1263 179.494 84.3537 179.487 84.5912C179.481 84.8288 179.559 85.0609 179.708 85.246C179.857 85.4312 180.067 85.5572 180.3 85.6016ZM176.78 87.7692L173.349 88.2137C173.086 88.2482 172.848 88.3855 172.686 88.5956C172.525 88.8056 172.453 89.0712 172.487 89.3339C172.515 89.5517 172.614 89.7542 172.769 89.9101C172.924 90.066 173.125 90.1667 173.343 90.1966C173.446 90.2198 173.552 90.2225 173.657 90.2047L177.033 89.7804C177.296 89.746 177.534 89.6086 177.695 89.3986C177.857 89.1885 177.929 88.9229 177.894 88.6602C177.881 88.528 177.841 88.3999 177.778 88.2832C177.714 88.1666 177.628 88.0638 177.524 87.9808C177.42 87.8979 177.301 87.8364 177.173 87.8001C177.045 87.7638 176.912 87.7532 176.78 87.7692ZM179.592 89.3756C179.695 89.3923 179.801 89.395 179.905 89.3837L184.797 88.7455C185.061 88.7114 185.301 88.5738 185.464 88.363C185.626 88.1521 185.699 87.8853 185.665 87.6212C185.631 87.3571 185.493 87.1174 185.282 86.9547C185.071 86.792 184.804 86.7198 184.54 86.7539L179.647 87.4019C179.411 87.4332 179.194 87.5473 179.035 87.7238C178.876 87.9004 178.785 88.1278 178.779 88.3653C178.772 88.6028 178.85 88.835 178.999 89.0201C179.148 89.2052 179.358 89.3313 179.592 89.3756ZM172.899 93.9695L176.33 93.525C176.585 93.4819 176.813 93.3417 176.967 93.1336C177.121 92.9256 177.188 92.6661 177.155 92.4095C177.121 92.1529 176.99 91.9193 176.788 91.7578C176.586 91.5963 176.329 91.5194 176.071 91.5432L172.636 92.0074C172.374 92.0419 172.135 92.1792 171.974 92.3893C171.812 92.5993 171.741 92.8649 171.775 93.1276C171.803 93.3454 171.902 93.5479 172.057 93.7038C172.211 93.8597 172.413 93.9604 172.63 93.9903C172.72 93.9984 172.811 93.9914 172.899 93.9695ZM179.197 93.1578L184.089 92.5195C184.353 92.4854 184.592 92.3479 184.755 92.137C184.918 91.9262 184.99 91.6594 184.956 91.3953C184.922 91.1312 184.784 90.8914 184.573 90.7287C184.363 90.5661 184.096 90.4938 183.832 90.5279L178.942 91.1563C178.811 91.1731 178.684 91.2158 178.569 91.2818C178.455 91.3479 178.354 91.436 178.274 91.5411C178.194 91.6462 178.135 91.7662 178.102 91.8942C178.068 92.0221 178.06 92.1554 178.078 92.2864C178.109 92.5027 178.209 92.7031 178.364 92.8571C178.518 93.0111 178.719 93.1102 178.936 93.1393C179.022 93.1554 179.109 93.1616 179.197 93.1578ZM176.127 97.7501C176.019 97.6369 175.886 97.5506 175.738 97.4981C175.591 97.4457 175.433 97.4286 175.278 97.4482L171.868 97.8866C171.659 97.9139 171.464 98.0065 171.311 98.1513C171.158 98.2962 171.054 98.4857 171.015 98.693L169.365 107.479C169.336 107.635 169.344 107.794 169.389 107.946C169.433 108.097 169.513 108.236 169.622 108.351C169.73 108.465 169.864 108.553 170.013 108.605C170.162 108.658 170.321 108.675 170.477 108.655L173.877 108.215C174.095 108.187 174.297 108.088 174.453 107.933C174.609 107.778 174.71 107.577 174.74 107.359L176.38 98.6218C176.41 98.4668 176.402 98.307 176.358 98.1555C176.314 98.004 176.235 97.8651 176.127 97.7501ZM172.913 106.304L171.589 106.473L172.846 99.7795L174.17 99.6109L172.913 106.304ZM183.907 96.7384C183.799 96.6252 183.666 96.5389 183.518 96.4865C183.371 96.4341 183.213 96.417 183.058 96.4366L178.397 97.0368C178.188 97.0641 177.993 97.1567 177.84 97.3016C177.686 97.4464 177.583 97.636 177.544 97.8432L175.894 106.63C175.865 106.785 175.873 106.945 175.918 107.096C175.962 107.247 176.042 107.386 176.151 107.501C176.259 107.615 176.393 107.703 176.542 107.756C176.691 107.809 176.85 107.825 177.006 107.805L181.667 107.205C181.885 107.177 182.087 107.078 182.243 106.923C182.399 106.769 182.5 106.567 182.53 106.349L184.17 97.612C184.199 97.456 184.19 97.2954 184.144 97.1435C184.098 96.9916 184.017 96.8527 183.907 96.7384ZM180.693 105.292L178.118 105.623L179.375 98.9297L181.952 98.5894L180.693 105.292Z" fill="#8766FF"/>
<path d="M98.5 192.833C103.609 192.833 107.75 188.692 107.75 183.583C107.75 178.475 103.609 174.333 98.5 174.333C93.3914 174.333 89.25 178.475 89.25 183.583C89.25 188.692 93.3914 192.833 98.5 192.833Z" stroke="#8766FF" stroke-width="2" stroke-linecap="round" stroke-linejoin="round"/>
<path d="M61.5 171.25C66.6086 171.25 70.75 167.109 70.75 162C70.75 156.891 66.6086 152.75 61.5 152.75C56.3914 152.75 52.25 156.891 52.25 162C52.25 167.109 56.3914 171.25 61.5 171.25Z" stroke="#8766FF" stroke-width="2" stroke-linecap="round" stroke-linejoin="round"/>
<path d="M69.4858 166.656L90.545 178.928" stroke="#8766FF" stroke-width="2" stroke-linecap="round" stroke-linejoin="round"/>
<path d="M98.5 149.667C103.609 149.667 107.75 145.525 107.75 140.417C107.75 135.308 103.609 131.167 98.5 131.167C93.3914 131.167 89.25 135.308 89.25 140.417C89.25 145.525 93.3914 149.667 98.5 149.667Z" stroke="#8766FF" stroke-width="2" stroke-linecap="round" stroke-linejoin="round"/>
<path d="M90.5142 145.073L69.4858 157.344" stroke="#8766FF" stroke-width="2" stroke-linecap="round" stroke-linejoin="round"/>
<path d="M171.562 256.388H188.438V260.138H171.562V256.388Z" fill="#291E53"/>
<path d="M165.938 222.638L167.812 235.763H192.188L194.062 222.638H165.938Z" fill="#291E53"/>
<path d="M170.625 235.763L169.688 222.638H190.312L189.375 235.763" fill="#291E53"/>
<path d="M186.562 228.263H173.438L173.685 230.239C174.769 238.913 175.312 247.647 175.312 256.388H184.688C184.688 247.647 185.231 238.913 186.315 230.239L186.562 228.263ZM165.938 218.888H194.062V222.638H165.938V218.888Z" fill="#291E53"/>
<path d="M176.411 208.388C176.237 208.214 176.099 208.008 176.004 207.78C175.91 207.553 175.862 207.309 175.862 207.063C175.862 206.816 175.91 206.572 176.004 206.345C176.099 206.118 176.237 205.911 176.411 205.737L177.737 204.411C177.911 204.237 178.118 204.099 178.345 204.005C178.573 203.911 178.816 203.862 179.063 203.862C179.309 203.862 179.553 203.911 179.78 204.005C180.007 204.099 180.214 204.237 180.388 204.411C180.562 204.585 180.7 204.792 180.795 205.019C180.889 205.247 180.937 205.491 180.937 205.737C180.937 205.983 180.889 206.227 180.795 206.454C180.7 206.682 180.562 206.888 180.388 207.063L179.063 208.388C178.711 208.74 178.234 208.937 177.737 208.937C177.24 208.937 176.763 208.74 176.411 208.388Z" fill="#291E53"/>
<path d="M192.188 236.701H186.094C185.845 236.701 185.607 236.602 185.431 236.426C185.255 236.25 185.156 236.012 185.156 235.763C185.156 235.515 185.255 235.276 185.431 235.1C185.607 234.924 185.845 234.826 186.094 234.826H191.374L192.981 223.576H167.018L168.624 234.826H173.904C174.153 234.826 174.392 234.924 174.567 235.1C174.743 235.276 174.842 235.515 174.842 235.763C174.842 236.012 174.743 236.25 174.567 236.426C174.392 236.602 174.153 236.701 173.904 236.701H167.813C167.587 236.701 167.369 236.619 167.198 236.472C167.028 236.324 166.916 236.12 166.884 235.896L165.009 222.771C164.989 222.638 164.998 222.502 165.036 222.373C165.073 222.244 165.139 222.124 165.227 222.023C165.315 221.921 165.424 221.84 165.547 221.785C165.67 221.729 165.803 221.701 165.938 221.703H194.063C194.197 221.703 194.329 221.732 194.451 221.788C194.572 221.844 194.681 221.925 194.769 222.027C194.857 222.128 194.922 222.247 194.96 222.375C194.998 222.503 195.009 222.639 194.991 222.771L193.116 235.896C193.084 236.12 192.972 236.324 192.802 236.472C192.631 236.619 192.413 236.701 192.188 236.701Z" fill="#8766FF"/>
<path d="M189.377 236.701L189.309 236.699C189.187 236.69 189.067 236.658 188.956 236.603C188.846 236.548 188.748 236.471 188.667 236.378C188.586 236.285 188.524 236.177 188.485 236.061C188.446 235.944 188.431 235.82 188.439 235.698L189.306 223.578H170.694L171.561 235.698C171.569 235.82 171.554 235.944 171.515 236.061C171.476 236.177 171.414 236.285 171.333 236.378C171.252 236.471 171.154 236.548 171.044 236.603C170.934 236.658 170.814 236.69 170.691 236.699C170.444 236.71 170.203 236.626 170.017 236.464C169.831 236.303 169.714 236.076 169.689 235.831L168.752 222.706C168.733 222.445 168.823 222.19 169.001 222.001C169.179 221.811 169.429 221.703 169.688 221.703H190.313C190.441 221.703 190.568 221.73 190.686 221.781C190.804 221.833 190.91 221.908 190.997 222.002C191.085 222.096 191.152 222.207 191.196 222.328C191.239 222.449 191.257 222.577 191.248 222.706L190.311 235.831C190.294 236.067 190.188 236.288 190.015 236.449C189.842 236.61 189.614 236.7 189.377 236.701ZM188.438 261.076H171.563C171.314 261.076 171.075 260.977 170.9 260.801C170.724 260.625 170.625 260.387 170.625 260.138V256.388C170.625 256.139 170.724 255.901 170.9 255.725C171.075 255.549 171.314 255.451 171.563 255.451H188.438C188.686 255.451 188.925 255.549 189.1 255.725C189.276 255.901 189.375 256.139 189.375 256.388V260.138C189.375 260.387 189.276 260.625 189.1 260.801C188.925 260.977 188.686 261.076 188.438 261.076ZM172.5 259.201H187.5V257.326H172.5V259.201Z" fill="#8766FF"/>
<path d="M194.062 223.576H165.938C165.689 223.576 165.45 223.477 165.275 223.301C165.099 223.125 165 222.887 165 222.638V218.888C165 218.639 165.099 218.401 165.275 218.225C165.45 218.049 165.689 217.951 165.938 217.951H194.062C194.311 217.951 194.55 218.049 194.725 218.225C194.901 218.401 195 218.639 195 218.888V222.638C195 222.887 194.901 223.125 194.725 223.301C194.55 223.477 194.311 223.576 194.062 223.576ZM166.875 221.701H193.125V219.826H166.875V221.701ZM184.688 257.326H175.312C175.064 257.326 174.825 257.227 174.65 257.051C174.474 256.875 174.375 256.637 174.375 256.388C174.375 247.718 173.829 238.96 172.755 230.356L172.507 228.379C172.491 228.248 172.503 228.114 172.542 227.987C172.581 227.86 172.647 227.742 172.735 227.643C172.823 227.543 172.931 227.463 173.052 227.409C173.173 227.354 173.305 227.326 173.438 227.326H186.562C186.695 227.326 186.827 227.354 186.948 227.409C187.069 227.464 187.177 227.544 187.264 227.643C187.352 227.743 187.418 227.86 187.457 227.987C187.497 228.114 187.509 228.248 187.493 228.379L187.245 230.356C186.168 238.991 185.627 247.686 185.625 256.388C185.625 256.637 185.526 256.875 185.35 257.051C185.175 257.227 184.936 257.326 184.688 257.326ZM176.248 255.451H183.752C183.791 247.011 184.339 238.495 185.385 230.123L185.501 229.201H174.501L174.615 230.125C175.661 238.495 176.211 247.011 176.248 255.451ZM177.737 209.873C177.017 209.873 176.297 209.599 175.748 209.052C175.486 208.791 175.278 208.481 175.137 208.14C174.995 207.798 174.923 207.432 174.924 207.063C174.924 206.313 175.217 205.606 175.748 205.073L177.073 203.748C177.605 203.243 178.314 202.965 179.047 202.975C179.781 202.985 180.481 203.28 181 203.799C181.519 204.318 181.815 205.019 181.824 205.752C181.834 206.486 181.557 207.194 181.052 207.726L179.726 209.05C179.465 209.312 179.155 209.519 178.814 209.66C178.472 209.802 178.106 209.874 177.737 209.873ZM179.062 204.799C178.939 204.799 178.817 204.823 178.703 204.87C178.589 204.917 178.486 204.986 178.399 205.073L177.073 206.399C176.986 206.486 176.916 206.589 176.869 206.703C176.822 206.817 176.799 206.939 176.799 207.063C176.8 207.248 176.855 207.428 176.958 207.582C177.061 207.736 177.207 207.856 177.378 207.927C177.549 207.997 177.738 208.016 177.919 207.98C178.101 207.944 178.268 207.855 178.399 207.724L179.724 206.399C179.854 206.267 179.942 206.101 179.978 205.919C180.013 205.738 179.995 205.55 179.924 205.38C179.853 205.209 179.734 205.063 179.581 204.96C179.427 204.856 179.247 204.801 179.062 204.799Z" fill="#8766FF"/>
<path d="M182.812 219.826H171.562C171.314 219.826 171.075 219.727 170.9 219.551C170.724 219.375 170.625 219.137 170.625 218.888V214.082C170.625 212.687 171.24 211.375 172.311 210.481L175.755 207.61C175.85 207.531 175.959 207.472 176.077 207.435C176.194 207.398 176.318 207.385 176.441 207.396C176.564 207.407 176.683 207.443 176.792 207.5C176.901 207.557 176.998 207.635 177.077 207.73C177.156 207.825 177.215 207.934 177.252 208.052C177.289 208.169 177.302 208.293 177.291 208.416C177.28 208.538 177.244 208.658 177.187 208.767C177.13 208.876 177.052 208.973 176.957 209.052L173.512 211.922C172.867 212.459 172.5 213.246 172.5 214.082V217.951H182.812C183.061 217.951 183.3 218.049 183.475 218.225C183.651 218.401 183.75 218.639 183.75 218.888C183.75 219.137 183.651 219.375 183.475 219.551C183.3 219.727 183.061 219.826 182.812 219.826Z" fill="#8766FF"/>
<rect x="13" y="631" width="238" height="46" fill="#291E53"/>
<path d="M200.199 492.044C139 574 88.4999 658 0.999888 640.5" stroke="#8766FF" stroke-width="3"/>
<mask id="path-49-inside-1_489_32" fill="white">
<path fill-rule="evenodd" clip-rule="evenodd" d="M188.172 446.187L192.842 444.4L192.842 444.4C195.421 443.414 195.833 438.223 193.761 432.807C191.69 427.391 187.919 423.8 185.34 424.786C185.335 424.788 185.33 424.79 185.325 424.792L180.67 426.572C178.091 427.559 177.68 432.749 179.751 438.166C181.823 443.582 185.593 447.173 188.172 446.187Z"/>
</mask>
<path fill-rule="evenodd" clip-rule="evenodd" d="M188.172 446.187L192.842 444.4L192.842 444.4C195.421 443.414 195.833 438.223 193.761 432.807C191.69 427.391 187.919 423.8 185.34 424.786C185.335 424.788 185.33 424.79 185.325 424.792L180.67 426.572C178.091 427.559 177.68 432.749 179.751 438.166C181.823 443.582 185.593 447.173 188.172 446.187Z" fill="#291E53"/>
<path d="M188.172 446.187L189.244 448.989L188.172 446.187ZM192.842 444.4L195.644 443.329L196.716 446.131L193.914 447.203L192.842 444.4ZM192.842 444.4L190.04 445.472L188.969 442.67L191.77 441.598L192.842 444.4ZM185.325 424.792L186.415 427.587L186.406 427.591L186.397 427.594L185.325 424.792ZM180.67 426.572L181.742 429.374L180.67 426.572ZM187.101 443.385L191.771 441.598L193.914 447.203L189.244 448.989L187.101 443.385ZM190.04 445.472L190.04 445.472L195.644 443.329L195.644 443.329L190.04 445.472ZM191.77 441.598C191.355 441.757 191.912 441.837 192.055 440.028C192.179 438.466 191.872 436.265 190.959 433.879L196.563 431.735C197.722 434.766 198.245 437.868 198.036 440.502C197.847 442.889 196.909 446.057 193.914 447.202L191.77 441.598ZM190.959 433.879C190.047 431.493 188.807 429.649 187.672 428.568C186.358 427.316 185.996 427.747 186.412 427.588L184.268 421.984C187.263 420.839 190.077 422.572 191.81 424.223C193.723 426.045 195.404 428.705 196.563 431.735L190.959 433.879ZM186.412 427.588C186.413 427.588 186.414 427.587 186.415 427.587L184.234 421.997C184.246 421.993 184.257 421.989 184.268 421.984L186.412 427.588ZM186.397 427.594L181.742 429.374L179.599 423.77L184.253 421.99L186.397 427.594ZM181.742 429.374C182.158 429.215 181.601 429.136 181.457 430.945C181.333 432.507 181.641 434.708 182.553 437.094L176.949 439.237C175.79 436.207 175.267 433.105 175.476 430.471C175.665 428.084 176.604 424.916 179.599 423.77L181.742 429.374ZM182.553 437.094C183.466 439.48 184.706 441.324 185.84 442.405C187.155 443.657 187.516 443.226 187.101 443.385L189.244 448.989C186.249 450.134 183.436 448.401 181.702 446.75C179.789 444.927 178.108 442.268 176.949 439.237L182.553 437.094Z" fill="#8766FF" mask="url(#path-49-inside-1_489_32)"/>
<path d="M196 482.5C194.228 482.43 186.561 487.977 185 486C177.5 476.5 201.096 451.742 202.868 451.812C204.64 451.882 206.331 453.631 205.17 458.633C205.06 461.416 200.657 470.345 196 482.5Z" fill="#A298C9"/>
<mask id="path-52-inside-2_489_32" fill="white">
<path fill-rule="evenodd" clip-rule="evenodd" d="M190.533 437.433L207.632 430.893L223.833 473.251L223.833 473.251C224.158 474.102 220.594 476.256 215.873 478.062C211.151 479.868 207.059 480.642 206.734 479.791C206.733 479.787 206.731 479.783 206.73 479.779L190.533 437.433Z"/>
</mask>
<path fill-rule="evenodd" clip-rule="evenodd" d="M190.533 437.433L207.632 430.893L223.833 473.251L223.833 473.251C224.158 474.102 220.594 476.256 215.873 478.062C211.151 479.868 207.059 480.642 206.734 479.791C206.733 479.787 206.731 479.783 206.73 479.779L190.533 437.433Z" fill="#291E53"/>
<path d="M207.632 430.893L206.918 429.025L208.786 428.311L209.5 430.179L207.632 430.893ZM190.533 437.433L188.665 438.147L187.951 436.279L189.819 435.565L190.533 437.433ZM223.833 473.251L225.701 472.537L226.456 474.51L224.445 475.156L223.833 473.251ZM223.833 473.251L221.965 473.966L221.21 471.993L223.221 471.347L223.833 473.251ZM206.73 479.779L208.598 479.065L208.613 479.105L208.627 479.146L206.73 479.779ZM208.347 432.761L191.248 439.301L189.819 435.565L206.918 429.025L208.347 432.761ZM221.965 473.966L205.764 431.608L209.5 430.179L225.701 472.537L221.965 473.966ZM223.221 471.347L223.221 471.347L224.445 475.156L224.445 475.156L223.221 471.347ZM215.158 476.194C217.443 475.32 219.4 474.379 220.711 473.587C221.381 473.182 221.797 472.867 222.001 472.669C222.109 472.565 222.072 472.575 222.007 472.698C221.948 472.811 221.717 473.317 221.965 473.966L225.701 472.537C226.03 473.399 225.759 474.158 225.549 474.558C225.333 474.97 225.033 475.302 224.78 475.547C224.26 476.049 223.551 476.544 222.78 477.01C221.21 477.959 219.024 478.998 216.587 479.93L215.158 476.194ZM208.602 479.077C208.354 478.428 207.844 478.205 207.725 478.161C207.594 478.112 207.559 478.13 207.71 478.135C207.994 478.146 208.514 478.103 209.283 477.958C210.788 477.673 212.873 477.068 215.158 476.194L216.587 479.93C214.15 480.862 211.829 481.547 210.027 481.888C209.142 482.055 208.283 482.16 207.561 482.133C207.208 482.119 206.764 482.072 206.328 481.91C205.905 481.752 205.196 481.367 204.866 480.506L208.602 479.077ZM208.627 479.146C208.619 479.122 208.611 479.1 208.602 479.077L204.866 480.506C204.854 480.475 204.843 480.444 204.833 480.413L208.627 479.146ZM192.401 436.718L208.598 479.065L204.862 480.494L188.665 438.147L192.401 436.718Z" fill="#8766FF" mask="url(#path-52-inside-2_489_32)"/>
<mask id="path-54-inside-3_489_32" fill="white">
<path fill-rule="evenodd" clip-rule="evenodd" d="M201.276 451.525L210.617 447.953C215.775 445.98 216.598 435.599 212.455 424.766C208.311 413.933 200.771 406.751 195.613 408.724L186.272 412.296C181.114 414.269 180.291 424.65 184.434 435.483C188.577 446.316 196.118 453.498 201.276 451.525Z"/>
</mask>
<path fill-rule="evenodd" clip-rule="evenodd" d="M201.276 451.525L210.617 447.953C215.775 445.98 216.598 435.599 212.455 424.766C208.311 413.933 200.771 406.751 195.613 408.724L186.272 412.296C181.114 414.269 180.291 424.65 184.434 435.483C188.577 446.316 196.118 453.498 201.276 451.525Z" fill="#291E53"/>
<path d="M200.205 448.723L209.545 445.151L211.688 450.755L202.348 454.327L200.205 448.723ZM209.545 445.151C210.419 444.816 211.723 443.352 212.033 439.445C212.323 435.784 211.601 430.932 209.653 425.838L215.257 423.694C217.452 429.433 218.389 435.187 218.014 439.919C217.659 444.403 215.973 449.116 211.688 450.755L209.545 445.151ZM209.653 425.838C207.704 420.744 205.004 416.647 202.345 414.115C199.507 411.412 197.558 411.192 196.684 411.526L194.541 405.922C198.825 404.283 203.226 406.668 206.483 409.771C209.92 413.044 213.062 417.956 215.257 423.694L209.653 425.838ZM196.684 411.526L187.344 415.098L185.201 409.494L194.541 405.922L196.684 411.526ZM187.344 415.098C186.47 415.433 185.166 416.897 184.856 420.804C184.566 424.465 185.288 429.317 187.236 434.411L181.632 436.555C179.437 430.816 178.499 425.062 178.875 420.33C179.23 415.846 180.916 411.133 185.201 409.494L187.344 415.098ZM187.236 434.411C189.185 439.505 191.885 443.601 194.544 446.134C197.382 448.837 199.331 449.057 200.205 448.723L202.348 454.327C198.064 455.966 193.663 453.581 190.406 450.478C186.969 447.205 183.827 442.293 181.632 436.555L187.236 434.411Z" fill="#8766FF" mask="url(#path-54-inside-3_489_32)"/>
<path d="M217.5 492C203.754 496.147 188.479 497.371 185.365 487.049C182.251 476.727 206.681 457.068 209.426 456.791C219 450 232.5 451 236.5 467.5C234 498.5 228.572 488.66 217.5 492Z" fill="#A298C9"/>
<path d="M237.504 471.678C232.004 469.178 228.504 470.178 222.004 470.678" stroke="#291E53" stroke-linecap="round"/>
<path d="M235.5 481C231 481 225.5 482 221.5 481" stroke="#291E53" stroke-linecap="round"/>
<path d="M236.005 462.394C236.005 462.394 230.005 458.394 219.006 460.894" stroke="#291E53" stroke-linecap="round"/>
<rect x="2.5" y="1.5" width="260" height="673" rx="15.5" stroke="#696187" stroke-width="3"/>
<path d="M201.864 429.268C204.606 436.437 208.446 442.33 212.371 446.076C216.387 449.909 220.062 451.13 222.689 450.125C225.317 449.12 227.239 445.758 227.672 440.224C228.095 434.815 227.022 427.863 224.28 420.694C221.538 413.524 217.698 407.631 213.773 403.885C209.757 400.053 206.082 398.831 203.455 399.836C200.827 400.841 198.905 404.203 198.472 409.737C198.049 415.146 199.122 422.098 201.864 429.268Z" fill="#291E53" stroke="#8766FF" stroke-width="3"/>
<path d="M223.753 450.107C257.93 442.559 277.844 442.62 311.404 448.336L270.363 341.033C247.861 366.476 233.133 379.907 204.281 399.197L223.753 450.107Z" fill="#291E53" stroke="#8766FF" stroke-width="3"/>
<path d="M266.628 404.046C272.506 419.414 280.77 432.149 289.337 440.325C297.964 448.558 306.609 451.922 313.39 449.329C320.171 446.735 324.364 438.46 325.295 426.572C326.219 414.766 323.876 399.766 317.998 384.398C312.12 369.03 303.856 356.295 295.289 348.119C286.662 339.886 278.017 336.522 271.236 339.115C264.455 341.709 260.262 349.984 259.331 361.873C258.406 373.678 260.75 388.678 266.628 404.046Z" fill="#291E53" stroke="#8766FF" stroke-width="2"/>
<path d="M269.298 402.63C274.449 416.098 281.69 427.252 289.188 434.409C296.747 441.623 304.281 444.53 310.159 442.281C316.037 440.033 319.708 432.841 320.523 422.424C321.332 412.09 319.281 398.951 314.13 385.483C308.979 372.015 301.739 360.861 294.24 353.705C286.681 346.491 279.148 343.584 273.269 345.832C267.391 348.08 263.721 355.272 262.905 365.689C262.096 376.023 264.147 389.163 269.298 402.63Z" fill="#291E53" stroke="#8766FF" stroke-width="2"/>
<path d="M270.722 403.541C271.737 405.639 272.474 407.401 273.067 408.818C273.205 409.149 273.336 409.462 273.461 409.756C274.159 411.4 274.602 412.28 275.079 412.797C275.432 413.179 275.848 413.413 276.814 413.435C277.876 413.458 279.408 413.215 281.826 412.686C288.722 409.986 292.161 402.224 289.511 395.294C286.852 388.341 279.068 384.855 272.113 387.494C269.839 388.499 268.532 389.229 267.797 389.903C267.452 390.218 267.273 390.486 267.173 390.727C267.074 390.967 267.018 391.263 267.036 391.684C267.076 392.608 267.449 393.858 268.155 395.882C268.28 396.242 268.415 396.623 268.557 397.025C269.174 398.773 269.932 400.917 270.722 403.541Z" fill="#291E53" stroke="#8766FF" stroke-width="3"/>
<path d="M203.5 401.5L224.5 387L246 444.5L221 449L203.5 401.5Z" fill="#291E53"/>
</svg>
