<svg width="264" height="676" viewBox="0 0 264 676" fill="none" xmlns="http://www.w3.org/2000/svg">
<path d="M15.1408 637H246.141V676H15.1408V637Z" fill="#BBABF7"/>
<path d="M262.641 649H262.141V659H262.132C262.138 659.166 262.141 659.333 262.141 659.5C261.641 668.5 255.141 676.5 245.141 675C234.641 672 230.641 669 228.641 659.5C228.641 655.449 230.171 651.761 232.808 649H29.3741C32.9156 651.836 35.1408 655.938 35.1408 660.5C35.1408 669.061 27.3058 676 17.6408 676C7.14081 673 3.14081 670.5 1.14081 661C1.14081 660.665 1.15129 660.331 1.172 660H1.14081V649H0.447693V539.474C-0.194244 534.593 -0.159582 529.281 0.640807 523.5C5.14083 491 72.6408 452.456 127.141 452.456C177.988 452.456 260.131 505.861 262.585 539H262.641V649Z" fill="#BBABF7"/>
<path d="M163.641 460C161.141 467 152.933 477.5 136.641 477.5C120.348 477.5 106.142 464 100.141 457C130.64 444 114.347 444 130.64 444C146.932 444 130.64 444 163.641 460Z" fill="#EEEAFC"/>
<rect x="111.141" y="416" width="39" height="45" fill="#EEEAFC"/>
<path fill-rule="evenodd" clip-rule="evenodd" d="M199.158 349.043C201.56 344.012 202.195 336.048 199.341 322.579C190.784 301.769 171.908 304.665 162.714 308.446C153.52 312.226 156.478 326.147 165.039 337.765C167.628 341.278 169.38 344.571 170.822 347.471C168.503 356.88 168.253 369.247 170.215 374.02C173.366 381.682 176.49 389.28 188.488 381.644C193.127 378.691 199.24 371.817 200.736 361.47C201.247 357.936 200.747 353.366 199.158 349.043ZM88.3764 377.699C88.2081 377.135 88.0103 376.574 87.782 376.019C83.8964 366.569 72.6721 362.229 62.7117 366.325C52.7513 370.42 47.8266 381.401 51.7122 390.851C54.464 397.543 60.8967 401.673 67.9545 402.058C68.163 403.014 68.4564 403.962 68.839 404.892C72.8296 414.597 88.9564 420.948 102.069 413.394C112.54 409.088 111.212 398.815 107.221 389.11C104.152 381.645 96.507 377.333 88.3764 377.699Z" fill="#D6CCFB"/>
<path fill-rule="evenodd" clip-rule="evenodd" d="M162.71 426.843C177.073 420.937 189.9 391.653 176.668 359.473C168.254 324.549 139.363 305.613 110.248 317.585C87.2535 327.04 79.1409 345.689 83.2643 368.964C76.7913 373.342 74.6744 383.585 77.9019 391.435C81.0504 399.092 88.8251 403.352 96.2227 401.948C111.682 425.411 137.968 437.016 162.71 426.843Z" fill="#EEEAFC"/>
<path fill-rule="evenodd" clip-rule="evenodd" d="M133.305 321.109C133.399 320.984 133.49 320.86 133.579 320.735C135.497 320.196 137.62 319.576 139.973 318.878C141.135 318.276 142.351 317.737 143.6 317.246C152.042 320.931 158.483 327.106 165.729 334.237C172.369 331.507 172.286 316.001 169.766 309.871C169.336 308.825 168.763 307.877 168.076 307.039C169.641 304.117 168.664 299.892 163.478 293.21C157.369 283.613 143.48 279.268 130.71 284.518C123.522 286.442 116.761 291.388 112.379 296.786C106.627 293.489 98.9505 293.037 89.8063 296.797C75.285 302.768 68.6249 316.642 71.415 327.782C69.4995 328.437 67.3353 329.435 64.8776 330.834C52.3919 335.968 45.2527 354.105 49.0333 363.299C52.8138 372.493 67.0878 377.5 78.8359 372.669C93.6964 364.476 93.9913 356.249 89.2088 341.672C89.8994 341.749 90.6011 341.8 91.3122 341.825C96.9949 342.62 104.887 341.414 111.842 338.554C122.093 333.905 131.326 326.778 133.305 321.109Z" fill="#D6CDFB"/>
<path d="M123.138 373.915C124.399 376.98 124.433 379.87 122.646 380.605C120.858 381.34 116.537 380.212 115.277 377.148C114.017 374.083 113.874 369.615 115.662 368.88C118.436 367.739 121.878 370.85 123.138 373.915Z" fill="#7755F1"/>
<path d="M123.138 373.915C124.399 376.98 124.433 379.87 122.646 380.605C120.858 381.34 116.537 380.212 115.277 377.148C114.017 374.083 113.874 369.615 115.662 368.88C118.436 367.739 121.878 370.85 123.138 373.915Z" fill="#7755F1"/>
<path d="M154.774 361.448C156.034 364.512 158.042 366.591 159.83 365.856C161.618 365.121 163.895 361.28 162.635 358.215C161.375 355.15 158.334 351.875 156.546 352.61C153.771 353.751 153.514 358.383 154.774 361.448Z" fill="#7755F1"/>
<path d="M117.603 348.62C118.233 350.152 114.901 355.197 111.371 357.129C107.399 359.303 105.739 360.526 104.516 358.866C103.756 357.017 106.148 352.316 110.096 350.085C113.605 348.101 116.973 347.087 117.603 348.62Z" fill="#7755F1"/>
<path d="M153.806 338.058C153.724 339.173 150.677 340.967 147.713 341.645C140.75 341.805 140.997 338.46 141.079 337.345C142.086 335.85 143.663 335.742 147.09 334.873C150.708 334.467 153.426 337.133 153.806 338.058Z" fill="#7755F1"/>
<path d="M143.783 367.589C146.914 374.829 148.972 378.454 153.594 383.558C148.292 386.725 146.207 388.397 144.289 391.168" stroke="#7755F1" stroke-width="3" stroke-linecap="round" stroke-linejoin="round"/>
<path d="M136.125 401.553C139.944 404.178 142.995 404.148 149.777 401.886" stroke="#7755F1" stroke-width="3" stroke-linecap="round" stroke-linejoin="round"/>
<path d="M137.936 367.831C143.516 381.401 137.836 396.524 125.355 401.657C112.873 406.789 98.1977 400.035 92.6178 386.465C87.038 372.895 92.7178 357.771 105.199 352.639C117.681 347.507 132.356 354.26 137.936 367.831Z" fill="#BBABF7" fill-opacity="0.1" stroke="#7D5EF1"/>
<path d="M191.198 344.849C196.778 358.419 191.098 373.543 178.617 378.675C166.135 383.807 151.46 377.053 145.88 363.483C140.3 349.913 145.98 334.789 158.461 329.657C170.943 324.525 185.618 331.279 191.198 344.849Z" fill="#BBABF7" fill-opacity="0.1" stroke="#7D5EF1"/>
<path d="M140.244 376.072C143.888 370.899 146.272 370.316 150.88 371.699M80.2231 372.099L90.3921 377.108" stroke="#7755F1" stroke-linecap="round" stroke-linejoin="round"/>
<ellipse cx="144.571" cy="314.284" rx="13" ry="10" transform="rotate(-22.3519 144.571 314.284)" fill="#D6CDFB"/>
<path d="M108.141 416.5C122.526 428.602 139.496 431.678 151.141 430.613" stroke="#7655F1" stroke-linecap="round"/>
<path fill-rule="evenodd" clip-rule="evenodd" d="M145.374 448.394C148.996 444.973 155.801 440.68 158.978 438.677L158.979 438.676C159.263 438.497 159.518 438.336 159.739 438.196C164.161 434.254 167.626 429.551 170.4 425.787C174.25 420.561 176.768 417.145 178.66 420.084C181.378 424.306 178.298 438.685 165.947 450.463C168.276 450.693 170.186 451.55 171.016 452.537C172.101 453.828 172.911 457.207 172.296 460.66C173.368 461.048 174.207 461.574 174.686 462.144C176.033 463.746 176.955 468.566 175.255 472.752C173.8 476.899 168.856 482.421 158.072 490.76C140.272 504.523 130.753 496.327 121.073 484.818C118.602 481.88 117.749 478.79 118.062 475.712C117.504 465.458 126.719 435.474 128.997 433.559C131.356 431.574 134.795 430.912 136.81 435.909C137.606 436.855 137.425 440.622 137.179 445.754C137.054 448.361 136.913 451.32 136.873 454.441C137.701 453.98 138.527 453.546 139.342 453.144C141.702 451.16 143.659 449.564 145.374 448.394Z" fill="#EEEAFC"/>
<path d="M118 472C117.738 471.159 124.437 431.819 132.5 432C140.563 432.181 136.162 454.691 137 454C142.738 450.138 145.187 447.922 150 444" stroke="#BBABF7" stroke-linecap="round"/>
<path d="M122 484C85.984 512.949 30.0509 513.262 0.999994 544" stroke="#EEEAFC" stroke-linecap="round"/>
<path d="M136.5 494.5C70.2477 579.973 57.5 623 0.5 646.5" stroke="#EEEAFC"/>
<rect x="0.640869" y="0.5" width="262" height="675" rx="16.5" stroke="#D2C9FB"/>
<path opacity="0.3" d="M179.456 142.297L228.157 131.471L227.359 137.762L178.592 149.113L179.456 142.297Z" fill="#BBABF7"/>
<path d="M218.799 187.466C218.393 190.672 216.633 193.235 214.436 194.247C213.608 194.634 212.728 194.789 211.82 194.673C210.913 194.558 210.099 194.189 209.395 193.608C207.519 192.079 206.456 189.158 206.863 185.952C207.42 181.556 210.535 178.325 213.841 178.744C217.148 179.164 219.357 183.07 218.799 187.466Z" fill="#BBABF7"/>
<path d="M230.453 129.201L184.487 107.491C184.124 107.281 183.681 107.225 183.277 107.338L133.345 116.881C132.695 117.003 132.197 117.534 132.115 118.179L131.046 126.608C130.967 127.233 131.298 127.849 131.855 128.145L150.936 138.105L148.334 158.611C148.288 158.974 148.366 159.332 148.572 159.645C148.657 159.779 150.839 163.088 155.217 166.696C159.242 170.014 165.985 174.189 175.238 175.383L175.298 175.391C184.536 176.542 192.108 174.184 196.834 171.977C201.972 169.596 204.911 166.937 205.03 166.809C205.307 166.557 205.472 166.23 205.518 165.867L208.12 145.36L216.796 143.347L212.332 178.532C212.227 179.359 212.825 180.131 213.652 180.236C214.479 180.341 215.251 179.743 215.356 178.916L219.964 142.601L229.084 140.48C229.696 140.333 230.171 139.819 230.251 139.194L231.32 130.766C231.402 130.121 231.053 129.482 230.453 129.201ZM202.568 164.898C201.631 165.66 199.139 167.536 195.46 169.241C191.128 171.253 184.176 173.403 175.685 172.346L175.624 172.338C167.135 171.261 160.943 167.423 157.23 164.391C154.074 161.819 152.129 159.38 151.433 158.41L153.817 139.618L156.814 141.187L177.452 151.959C177.658 152.108 177.91 152.222 178.172 152.255C178.192 152.258 178.192 152.258 178.213 152.261C178.233 152.263 178.253 152.266 178.253 152.266C178.495 152.296 178.765 152.269 179.025 152.159L204.972 146.108L202.588 164.901L202.568 164.898ZM227.359 137.762L218.766 139.766L182.305 121.617C181.555 121.235 180.634 121.549 180.252 122.299C179.87 123.05 180.183 123.971 180.934 124.353L214.08 140.851L206.355 142.637L178.591 149.113L153.284 135.903L134.204 125.943L134.999 119.672L183.501 110.419L228.155 131.491L227.359 137.762Z" fill="#BBABF7"/>
<path d="M215.962 209.828L204.046 208.316L209.415 193.61C210.12 194.191 210.933 194.561 211.841 194.676C212.748 194.791 213.628 194.636 214.456 194.25L215.962 209.828Z" fill="#BBABF7"/>
<path opacity="0.3" d="M135.002 119.652L179.456 142.297L178.592 149.113L134.204 125.943L135.002 119.652Z" fill="#BBABF7"/>
<path opacity="0.3" d="M203.448 157.962L182.12 164.742C178.47 165.897 174.47 165.451 171.176 163.476L152.206 152.157L153.794 139.636L178.132 152.25L204.929 146.123L203.428 157.959L203.448 157.962Z" fill="#BBABF7"/>
<path d="M121.049 201.766L130.454 241.752L98.8711 249.181C99.2889 247.629 100.757 246.261 102.74 245.795L124.119 240.766C125.784 240.374 126.84 238.752 126.459 237.131L118.293 202.414L121.049 201.766Z" fill="#7452F1"/>
<path d="M113.997 197.737L123.403 237.723L102.04 242.748C100.223 243.175 98.6854 244.112 97.5667 245.334L88.731 207.77C88.2289 205.635 89.9728 203.404 92.6375 202.777L113.997 197.737ZM111.483 206.205C111.287 205.372 110.446 204.851 109.613 205.047L95.0026 208.484C94.1699 208.68 93.6488 209.521 93.8447 210.354C94.0405 211.187 94.8821 211.708 95.7149 211.512L110.325 208.075C111.158 207.879 111.683 207.053 111.483 206.205ZM113.449 214.563C113.253 213.73 112.412 213.209 111.579 213.405L96.9685 216.842C96.1357 217.037 95.6147 217.879 95.8105 218.712C96.0064 219.544 96.848 220.065 97.6807 219.87L112.291 216.433C113.124 216.237 113.645 215.395 113.449 214.563ZM115.415 222.92C115.219 222.088 114.378 221.566 113.545 221.762L98.9343 225.199C98.1016 225.395 97.5805 226.237 97.7764 227.069C97.9723 227.902 98.8139 228.423 99.6466 228.227L114.257 224.79C115.09 224.595 115.611 223.753 115.415 222.92ZM117.381 231.278C117.185 230.445 116.344 229.924 115.511 230.12L100.9 233.557C100.067 233.752 99.5464 234.594 99.7423 235.427C99.9382 236.26 100.78 236.781 101.612 236.585L116.223 233.148C117.056 232.952 117.577 232.111 117.381 231.278ZM85.7029 208.482L94.5422 246.061C92.9962 245.466 91.2025 245.313 89.3856 245.74L68.0224 250.765L58.6133 210.764L79.9917 205.735C82.6413 205.112 85.2008 206.348 85.7029 208.482ZM82.2773 213.075C82.0815 212.242 81.2399 211.721 80.4071 211.917L65.7966 215.354C64.9638 215.55 64.4428 216.391 64.6387 217.224C64.8345 218.057 65.6761 218.578 66.5088 218.382L81.1194 214.945C81.9521 214.749 82.4768 213.923 82.2773 213.075ZM84.2432 221.433C84.0473 220.6 83.2057 220.079 82.373 220.275L67.7624 223.711C66.9297 223.907 66.4086 224.749 66.6045 225.582C66.8004 226.414 67.642 226.935 68.4747 226.739L83.0853 223.303C83.918 223.107 84.4391 222.265 84.2432 221.433ZM86.2091 229.79C86.0132 228.957 85.1716 228.436 84.3389 228.632L69.7283 232.069C68.8956 232.265 68.3745 233.106 68.5704 233.939C68.7663 234.772 69.6079 235.293 70.4406 235.097L85.0512 231.66C85.8839 231.464 86.4049 230.623 86.2091 229.79ZM88.1749 238.148C87.9791 237.315 87.1375 236.794 86.3048 236.99L71.6942 240.426C70.8615 240.622 70.3404 241.464 70.5363 242.297C70.7321 243.129 71.5737 243.65 72.4065 243.455L87.017 240.018C87.8498 239.822 88.3708 238.98 88.1749 238.148Z" fill="#7452F1"/>
<path d="M95.086 250.072L63.503 257.501L54.0974 217.514L56.853 216.866L65.0192 251.583C65.3967 253.188 67.0692 254.185 68.7346 253.793L90.113 248.765C90.976 248.562 91.8363 248.551 92.6112 248.72C94.135 249.017 95.0264 250.022 95.086 250.072Z" fill="#7452F1"/>
<path d="M124.063 200.993L133.497 241.1C133.881 242.736 132.862 244.381 131.227 244.766L64.1547 260.543C62.5195 260.928 60.8738 259.909 60.4891 258.273L51.0551 218.166C50.6705 216.531 51.6894 214.885 53.3246 214.501L56.1407 213.838L55.5638 211.385C55.1863 209.781 56.2391 208.143 57.9046 207.751L79.2829 202.722C81.872 202.113 84.4369 202.693 86.2776 204.065C87.2984 202.019 89.3362 200.358 91.9404 199.745L113.319 194.716C114.984 194.325 116.657 195.321 117.034 196.926L117.611 199.379L120.427 198.717C122.032 198.339 123.678 199.358 124.063 200.993ZM130.454 241.752L121.049 201.766L118.293 202.414L126.459 237.131C126.837 238.736 125.784 240.374 124.119 240.766L102.755 245.791C100.772 246.257 99.289 247.629 98.8863 249.178L130.454 241.752ZM123.406 237.738L113.997 197.737L92.634 202.762C89.9844 203.385 88.2288 205.635 88.7274 207.755L97.5667 245.334C98.6854 244.112 100.223 243.175 102.04 242.748L123.403 237.723L123.406 237.738ZM94.5422 246.061L85.7029 208.482C85.2007 206.348 82.6448 205.127 79.9801 205.754L58.6168 210.779L68.0224 250.765L89.4008 245.737C91.2025 245.313 92.9961 245.466 94.5422 246.061ZM63.503 257.501L95.0861 250.072C95.038 250.003 94.135 249.017 92.6076 248.705C91.8364 248.551 90.9725 248.547 90.1095 248.75L68.7311 253.778C67.0656 254.17 65.3967 253.188 65.0156 251.568L56.853 216.866L54.0974 217.514L63.503 257.501ZM104.623 179.01C105.352 179.462 105.58 180.431 105.11 181.148L96.9139 194.261C96.4472 194.994 95.5085 195.215 94.7755 194.748C94.0462 194.297 93.8218 193.343 94.2885 192.61L102.485 179.497C102.94 178.783 103.894 178.559 104.623 179.01Z" fill="#BBABF7"/>
<path d="M109.613 205.047C110.446 204.851 111.287 205.372 111.483 206.205C111.679 207.038 111.158 207.879 110.325 208.075L95.7147 211.512C94.882 211.708 94.0404 211.187 93.8445 210.354C93.6487 209.521 94.1697 208.68 95.0024 208.484L109.613 205.047ZM111.579 213.405C112.412 213.209 113.253 213.73 113.449 214.563C113.645 215.395 113.124 216.237 112.291 216.433L97.6806 219.87C96.8479 220.065 96.0063 219.544 95.8104 218.712C95.6145 217.879 96.1356 217.037 96.9683 216.841L111.579 213.405ZM113.545 221.762C114.377 221.566 115.219 222.088 115.415 222.92C115.611 223.753 115.09 224.595 114.257 224.79L99.6465 228.227C98.8137 228.423 97.9721 227.902 97.7763 227.069C97.5804 226.237 98.1015 225.395 98.9342 225.199L113.545 221.762ZM115.511 230.12C116.343 229.924 117.185 230.445 117.381 231.278C117.577 232.111 117.056 232.952 116.223 233.148L101.612 236.585C100.78 236.781 99.938 236.26 99.7421 235.427C99.5463 234.594 100.067 233.752 100.9 233.557L115.511 230.12ZM82.3738 180.744L85.896 195.718C86.0919 196.551 85.5708 197.393 84.7381 197.588C83.9054 197.784 83.0638 197.263 82.8679 196.431L79.3457 181.457C79.1499 180.624 79.6709 179.782 80.5036 179.586C81.3364 179.391 82.178 179.912 82.3738 180.744ZM80.407 211.917C81.2397 211.721 82.0813 212.242 82.2772 213.075C82.4731 213.908 81.952 214.749 81.1193 214.945L66.5087 218.382C65.676 218.578 64.8344 218.057 64.6385 217.224C64.4426 216.391 64.9637 215.55 65.7964 215.354L80.407 211.917ZM82.3729 220.275C83.2056 220.079 84.0472 220.6 84.2431 221.433C84.4389 222.265 83.9179 223.107 83.0851 223.303L68.4746 226.739C67.6418 226.935 66.8003 226.414 66.6044 225.582C66.4085 224.749 66.9296 223.907 67.7623 223.711L82.3729 220.275ZM84.3387 228.632C85.1715 228.436 86.0131 228.957 86.2089 229.79C86.4048 230.623 85.8837 231.464 85.051 231.66L70.4404 235.097C69.6077 235.293 68.7661 234.772 68.5702 233.939C68.3744 233.106 68.8954 232.265 69.7282 232.069L84.3387 228.632ZM86.3046 236.99C87.1373 236.794 87.9789 237.315 88.1748 238.148C88.3707 238.98 87.8496 239.822 87.0169 240.018L72.4063 243.455C71.5736 243.65 70.732 243.129 70.5361 242.297C70.3402 241.464 70.8613 240.622 71.694 240.426L86.3046 236.99ZM73.9698 197.389C74.6992 197.841 74.9387 198.791 74.4871 199.52C74.0391 200.265 73.0817 200.474 72.3559 200.038L59.1737 191.954C58.4444 191.502 58.22 190.548 58.6564 189.822C59.0929 189.097 60.0583 188.854 60.7877 189.305L73.9698 197.389Z" fill="#BBABF7"/>
<path d="M99.317 101.366C98.0203 101.965 96.6563 102.406 95.2544 102.679C90.0038 103.696 87.0809 102.384 85.6626 101.316C82.9252 103.33 75.2624 108.006 68.788 102.832C67.2854 101.791 66.1836 100.268 65.6652 98.5143C65.1469 96.761 65.2431 94.8833 65.938 93.1922C66.9625 90.6086 68.9622 88.5318 71.5052 87.4102C71.5421 85.1544 72.4046 82.9905 73.9296 81.3279C75.8798 79.3574 78.792 78.5592 82.5849 78.9537C82.9567 78.9967 83.2966 79.1845 83.5309 79.4764C83.7652 79.7684 83.8749 80.1409 83.8364 80.5132C83.7978 80.8855 83.614 81.2276 83.3248 81.4653C83.0356 81.703 82.6644 81.8172 82.2917 81.783C79.4073 81.4824 77.2769 81.9958 75.9658 83.3151C75.375 84.021 74.9291 84.8365 74.6537 85.7148C74.3783 86.5932 74.2786 87.5172 74.3605 88.4341C74.3838 88.6427 74.3607 88.8538 74.2927 89.0524C74.2248 89.251 74.1137 89.4321 73.9675 89.5827C73.8213 89.7333 73.6435 89.8497 73.447 89.9235C73.2505 89.9972 73.0402 90.0266 72.831 90.0095C72.12 89.9528 69.6376 91.5755 68.5825 94.2415C68.1042 95.3654 68.0408 96.6227 68.4036 97.789C68.7664 98.9554 69.5318 99.9548 70.5633 100.609C76.5686 105.409 84.7304 98.4362 84.814 98.3662C84.9677 98.2326 85.1482 98.1335 85.3435 98.0756C85.5388 98.0178 85.7442 98.0025 85.9459 98.031C86.1476 98.0594 86.3408 98.1308 86.5125 98.2403C86.6842 98.3499 86.8304 98.4951 86.9411 98.666C86.9925 98.7331 88.753 101.039 94.7117 99.8819C99.3324 98.9863 102.722 96.0759 103.33 93.7813C103.475 93.2507 103.453 92.6883 103.267 92.1705C103.081 91.6528 102.741 91.2049 102.291 90.8878C102.004 90.6429 101.826 90.2941 101.797 89.918C101.767 89.5419 101.888 89.1695 102.133 88.8825C102.377 88.5955 102.726 88.4176 103.102 88.3879C103.478 88.3581 103.851 88.479 104.138 88.7238C104.997 89.3873 105.641 90.2907 105.986 91.3199C106.332 92.349 106.365 93.4576 106.081 94.5054C105.365 97.2136 102.745 99.781 99.317 101.366Z" fill="#BBABF7"/>
<path d="M66.4266 102.158C63.5634 103.548 60.3311 103.987 57.201 103.411C53.2598 102.581 49.9157 99.9101 47.2614 95.4712C42.8656 88.1237 47.332 81.8149 50.843 79.0177C50.5304 76.7286 50.3438 70.9166 55.6557 67.4763C58.8204 65.3797 62.4833 64.1573 66.2729 63.9331C66.9794 61.2183 69.4612 57.3237 75.5631 56.1443C81.5428 54.9854 84.6414 56.193 86.0729 57.1842C88.9062 55.4494 97.3144 51.4328 104.692 59.0043C109.565 64.0048 107.725 67.7376 106.703 69.1141C104.081 72.6537 98.0753 73.7463 94.9986 72.1556C89.6683 69.4054 90.5474 65.3728 90.5876 65.2023C90.6267 65.0167 90.7025 64.8409 90.8105 64.6851C90.9186 64.5293 91.0567 64.3966 91.2168 64.295C91.3768 64.1933 91.5556 64.1247 91.7426 64.0931C91.9295 64.0616 92.1209 64.0677 92.3055 64.1112C92.49 64.1547 92.664 64.2346 92.8172 64.3463C92.9705 64.458 93.0998 64.5992 93.1976 64.7617C93.2955 64.9241 93.3598 65.1044 93.387 65.2921C93.4141 65.4797 93.4035 65.6709 93.3556 65.8544C93.349 65.9045 93.0241 67.9367 96.3026 69.6283C98.2629 70.6414 102.716 69.7153 104.418 67.4209C106.023 65.2541 104.341 62.7285 102.65 60.9924C95.4509 53.6045 87.1649 59.8305 86.8176 60.0961C86.6657 60.2136 86.4915 60.2991 86.3056 60.3475C86.1197 60.3959 85.9259 60.4061 85.7359 60.3775C85.546 60.3489 85.3638 60.2822 85.2003 60.1812C85.0368 60.0803 84.8955 59.9473 84.7849 59.7903C84.7849 59.7903 82.8628 57.6297 76.0879 58.9432C69.3131 60.2567 68.8928 65.2477 68.8757 65.4546C68.8628 65.6435 68.8125 65.8279 68.7278 65.9972C68.6432 66.1665 68.5257 66.3174 68.3823 66.441C68.2389 66.5645 68.0724 66.6585 67.8924 66.7172C67.7125 66.776 67.5226 66.7985 67.3339 66.7834C63.7179 66.7728 60.1821 67.8483 57.1843 69.8705C52.3217 73.0217 53.7018 79.0527 53.7615 79.3072C53.8299 79.5879 53.8111 79.8828 53.7077 80.1526C53.6043 80.4224 53.4212 80.6543 53.1828 80.8175C52.8564 81.0436 45.1731 86.4753 49.6864 94.0192C51.9275 97.7372 54.6418 99.9609 57.7658 100.627C60.9615 101.123 64.2275 100.416 66.9322 98.6433C67.2405 98.4255 67.6226 98.3391 67.9946 98.4031C68.3665 98.4671 68.6978 98.6762 68.9156 98.9845C69.1333 99.2927 69.2197 99.6748 69.1557 100.047C69.0918 100.419 68.8826 100.75 68.5744 100.968C67.8929 101.424 67.1745 101.822 66.4266 102.158Z" fill="#BBABF7"/>
<path d="M115.911 85.1428L115.884 85.1553C115.538 85.3061 115.147 85.3135 114.796 85.1758C114.445 85.0381 114.163 84.7666 114.012 84.4211C113.933 84.2505 113.89 84.0658 113.884 83.8781C113.879 83.6903 113.912 83.5034 113.98 83.3286C114.049 83.1537 114.152 82.9945 114.284 82.8606C114.415 82.7266 114.573 82.6206 114.746 82.549C114.862 82.4953 118.123 80.82 116.479 73.9001C114.768 66.6995 106.405 66.0363 106.32 66.0318C106.134 66.0189 105.952 65.9695 105.784 65.8862C105.617 65.803 105.468 65.6876 105.345 65.5467C105.222 65.4057 105.129 65.242 105.069 65.0649C105.01 64.8877 104.986 64.7006 104.999 64.5141C105.011 64.3277 105.061 64.1456 105.144 63.9783C105.227 63.811 105.343 63.6617 105.484 63.539C105.625 63.4163 105.788 63.3225 105.965 63.2631C106.143 63.2037 106.33 63.1797 106.516 63.1926C110.152 63.4435 117.491 65.865 119.246 73.2426C121.414 82.3586 116.384 84.9243 115.911 85.1428Z" fill="#BBABF7"/>
<path d="M112.147 96.6571C109.313 97.8011 106.257 98.2906 103.208 98.089C102.832 98.0593 102.483 97.8814 102.238 97.5944C101.993 97.3075 101.872 96.9349 101.902 96.5588C101.931 96.1826 102.109 95.8337 102.396 95.5887C102.683 95.3438 103.056 95.2228 103.432 95.2526C103.495 95.2577 109.878 95.7192 112.837 92.8217C113.373 92.2805 113.782 91.6257 114.032 90.9056C114.282 90.1856 114.367 89.4185 114.28 88.6612C114.293 87.1531 113.933 85.6652 113.233 84.3291C112.533 82.9931 111.515 81.8502 110.268 81.0015C108.813 80.1684 107.182 79.6913 105.508 79.6091C103.833 79.5269 102.163 79.842 100.633 80.5286C100.283 80.6698 99.891 80.6661 99.5435 80.5182C99.1959 80.3704 98.9213 80.0905 98.7801 79.7402C98.6389 79.3899 98.6426 78.9979 98.7905 78.6503C98.9384 78.3028 99.2182 78.0282 99.5685 77.887C101.518 77.0313 103.642 76.6498 105.766 76.7736C107.891 76.8974 109.957 77.5231 111.793 78.5993C113.418 79.6937 114.753 81.1677 115.68 82.8938C116.607 84.6199 117.1 86.546 117.115 88.5053C117.227 89.6692 117.078 90.8434 116.68 91.9428C116.281 93.0422 115.644 94.0392 114.813 94.8618C114.032 95.6072 113.131 96.2144 112.147 96.6571ZM76.2447 74.2604C75.9332 74.4052 75.5799 74.4324 75.2499 74.3369C74.92 74.2414 74.6357 74.0298 74.4496 73.741C74.2636 73.4523 74.1883 73.1059 74.2377 72.766C74.2871 72.4261 74.4579 72.1155 74.7185 71.8917C75.1018 71.6142 75.4103 71.2461 75.6165 70.8201C75.8226 70.3942 75.9199 69.9238 75.8996 69.451C75.7767 68.8045 75.5074 68.1947 75.1122 67.6685C74.717 67.1422 74.2065 66.7135 73.6199 66.4153C73.2948 66.224 73.0589 65.9114 72.9643 65.5462C72.8696 65.1811 72.9239 64.7933 73.1152 64.4681C73.3065 64.143 73.6191 63.9072 73.9842 63.8125C74.3494 63.7179 74.7372 63.7722 75.0623 63.9634C76.0428 64.485 76.8864 65.2305 77.5246 66.1395C78.1627 67.0485 78.5774 68.0952 78.7349 69.1945C78.7969 70.1171 78.6331 71.0409 78.2577 71.8859C77.8823 72.7309 77.3065 73.4717 76.5804 74.0441C76.4795 74.132 76.3665 74.2049 76.2447 74.2604Z" fill="#BBABF7"/>
<path d="M89.0072 76.9633C88.6719 77.1185 88.2894 77.1372 87.9406 77.0154C87.5918 76.8936 87.304 76.6408 87.1383 76.3106C83.2219 68.5189 78.0231 70.3839 77.8029 70.4669C77.4519 70.6022 77.0615 70.593 76.7173 70.4411C76.373 70.2893 76.103 70.0072 75.9663 69.6567C75.828 69.3088 75.8334 68.9201 75.9814 68.5762C76.1293 68.2322 76.4077 67.961 76.7554 67.822C76.8302 67.7873 84.5589 64.8293 89.6795 75.0352C89.8484 75.3722 89.8766 75.7625 89.758 76.1203C89.6393 76.4782 89.3834 76.7742 89.0466 76.9435L89.0072 76.9633ZM86.8003 95.2445C86.5656 95.3527 86.306 95.3949 86.0492 95.3666C85.7924 95.3384 85.5481 95.2407 85.3426 95.0841C85.1371 94.9274 84.9782 94.7178 84.8828 94.4777C84.7875 94.2376 84.7594 93.976 84.8015 93.7211C84.9721 93.107 85.0079 92.4632 84.9062 91.834C84.8046 91.2047 84.568 90.605 84.2127 90.0758C83.8343 89.7733 83.3999 89.5484 82.9345 89.4141C82.469 89.2798 81.9816 89.2386 81.5002 89.293C81.1262 89.3433 80.7475 89.243 80.4474 89.0142C80.1473 88.7853 79.9504 88.4466 79.9001 88.0726C79.8497 87.6985 79.95 87.3198 80.1789 87.0197C80.4078 86.7197 80.7465 86.5228 81.1205 86.4724C82.0422 86.3599 82.9774 86.4459 83.8631 86.7248C84.7488 87.0036 85.5646 87.4688 86.2557 88.089C86.954 88.9197 87.4418 89.9065 87.6777 90.9658C87.9135 92.025 87.8905 93.1255 87.6106 94.174C87.5741 94.4054 87.4811 94.6241 87.3397 94.8109C87.1983 94.9976 87.013 95.1466 86.8003 95.2445Z" fill="#BBABF7"/>
<path d="M97.5554 90.2711C97.2695 90.403 96.9479 90.4363 96.6411 90.3658C96.3343 90.2952 96.0595 90.1249 95.8599 89.8815C95.3993 89.2077 94.7933 88.6458 94.0867 88.2373C93.3801 87.8288 92.5908 87.5841 91.777 87.5213C89.0229 87.4957 86.6741 90.2273 86.6509 90.2552C86.5307 90.3981 86.3835 90.516 86.2177 90.6021C86.0519 90.6881 85.8708 90.7407 85.6847 90.7568C85.4986 90.7728 85.3112 90.7521 85.1331 90.6957C84.955 90.6393 84.7898 90.5484 84.6468 90.4282C84.5039 90.308 84.386 90.1608 84.2999 89.995C84.2139 89.8292 84.1613 89.6481 84.1452 89.462C84.1292 89.2759 84.1499 89.0884 84.2063 88.9103C84.2627 88.7323 84.3536 88.567 84.4738 88.4241C84.6026 88.2689 87.6868 84.6536 91.7805 84.6755C93.0163 84.728 94.2239 85.0618 95.3112 85.6514C96.3985 86.2411 97.3369 87.0711 98.055 88.0782C98.1931 88.2462 98.2908 88.4436 98.3406 88.6553C98.3905 88.867 98.3911 89.0873 98.3425 89.2993C98.2938 89.5112 98.1972 89.7092 98.0601 89.878C97.923 90.0468 97.749 90.1819 97.5515 90.2729L97.5554 90.2711ZM56.7834 94.633C56.6026 94.7167 56.4059 94.7607 56.2067 94.7618C55.8322 94.7659 55.4711 94.6222 55.2019 94.3617C54.9327 94.1013 54.7771 93.7452 54.769 93.3707C54.7622 92.4432 54.9578 91.5254 55.342 90.6812C55.7261 89.837 56.2897 89.0867 56.9934 88.4825C58.5542 87.3204 60.7053 87.1703 63.3706 88.0408C63.5484 88.0983 63.713 88.1903 63.8552 88.3115C63.9974 88.4327 64.1144 88.5807 64.1994 88.747C64.2844 88.9134 64.3358 89.0949 64.3507 89.2811C64.3656 89.4674 64.3436 89.6547 64.2861 89.8325C64.2285 90.0102 64.1366 90.1749 64.0154 90.3171C63.8942 90.4593 63.7462 90.5762 63.5798 90.6613C63.4135 90.7463 63.232 90.7977 63.0457 90.8125C62.8595 90.8274 62.6722 90.8055 62.4944 90.7479C61.8973 90.4766 61.2486 90.3378 60.5928 90.341C59.937 90.3443 59.2896 90.4896 58.6953 90.7669C58.347 91.0969 58.0708 91.4955 57.8842 91.9375C57.6975 92.3796 57.6044 92.8555 57.6108 93.3353C57.6109 93.6079 57.533 93.875 57.3864 94.1049C57.2398 94.3348 57.0306 94.518 56.7834 94.633ZM67.9769 79.4014C67.7593 79.5019 67.5198 79.5458 67.2807 79.529C66.3129 79.5281 65.3576 79.3097 64.4855 78.8901C63.6134 78.4704 62.8467 77.8603 62.242 77.1046C61.7309 76.3137 61.3813 75.4295 61.2134 74.5029C61.0456 73.5763 61.0627 72.6256 61.2639 71.7057C61.3596 71.3489 61.5903 71.0433 61.9073 70.8536C62.2243 70.6639 62.6027 70.6049 62.9624 70.6893C63.322 70.7736 63.6348 70.9945 63.8344 71.3054C64.0341 71.6162 64.105 71.9925 64.0321 72.3547C63.8087 73.4079 63.9911 74.5066 64.5427 75.4312C64.9112 75.8415 65.3644 76.1668 65.871 76.3847C66.3776 76.6026 66.9254 76.7077 67.4767 76.693C67.7916 76.7151 68.0901 76.8413 68.3254 77.0518C68.5606 77.2623 68.7192 77.545 68.776 77.8555C68.8329 78.166 68.7849 78.4866 68.6395 78.7668C68.4941 79.047 68.2597 79.2709 67.9731 79.4032L67.9769 79.4014Z" fill="#BBABF7"/>
<path d="M59.163 90.5005L59.1268 90.5173C58.7814 90.6655 58.3913 90.671 58.0419 90.5325C57.6924 90.394 57.412 90.1228 57.2619 89.7781C56.0259 87.0696 55.8803 83.9891 56.8555 81.1761C57.8307 78.3631 59.8517 76.0337 62.499 74.6714C62.8315 74.4917 63.2218 74.4514 63.584 74.5594C63.9462 74.6674 64.2506 74.9149 64.4304 75.2474C64.6101 75.5799 64.6504 75.9702 64.5423 76.3324C64.4343 76.6945 64.1868 76.999 63.8543 77.1787C56.7316 81.0303 59.7423 88.3476 59.8747 88.6577C60.0179 88.9972 60.0237 89.3791 59.891 89.7228C59.7582 90.0666 59.4972 90.3454 59.163 90.5005Z" fill="#BBABF7"/>
</svg>
